<?xml version="1.0" standalone="no"?>
<!DOCTYPE svg PUBLIC "-//W3C//DTD SVG 1.1//EN" "http://www.w3.org/Graphics/SVG/1.1/DTD/svg11.dtd" >
<svg xmlns="http://www.w3.org/2000/svg" xmlns:xlink="http://www.w3.org/1999/xlink" version="1.1">
<metadata>
Created by FontForge 20201107 at Sat Aug  3 09:41:41 2024
 By 
Copyright (c) 2014 - 2016 Monotype Imaging Inc. All rights reserved.
</metadata>
<defs>
<font id="FrutigerLTPro-Bold" horiz-adv-x="1138" >
  <font-face 
    font-family="Frutiger LT Pro 45 Light"
    font-weight="700"
    font-stretch="normal"
    units-per-em="2048"
    panose-1="2 11 8 3 3 5 4 2 2 4"
    ascent="1536"
    descent="-512"
    x-height="1055"
    cap-height="1430"
    bbox="-340 -512 2048 1931"
    underline-thickness="102"
    underline-position="-255"
    unicode-range="U+000D-FB02"
  />
<missing-glyph horiz-adv-x="1048" 
d="M1049 0h-1049v1470h1049v-1470zM946 102v1264h-844v-1264h844zM569 240h-114v137h114v-137zM555 479h-94q-4 29 -4 62q0 75 20.5 125.5t87.5 121.5q11 12 33.5 34.5t33 34t24 31t19 39.5t5.5 44q0 74 -46.5 124t-109.5 50q-69 0 -112.5 -48.5t-55.5 -146.5l-102 17
q12 135 84 207.5t192 72.5q110 0 182 -74t72 -194q0 -74 -29 -127t-102 -121q-61 -57 -78 -86.5t-18 -91.5z" />
    <glyph glyph-name="fi" unicode="fi" horiz-adv-x="1366" 
d="M516 0h-274v854h-203v201h203v149q0 55 11.5 105.5t37 97t64 80.5t97 54t130.5 20q94 0 196 -23l-22 -227q-59 37 -119 37q-59 0 -90 -43t-31 -119v-131h240v-201h-240v-854zM1217 1247h-275v262h275v-262zM1217 0h-275v1055h275v-1055z" />
    <glyph glyph-name="fl" unicode="fl" horiz-adv-x="1366" 
d="M516 0h-274v854h-203v201h203v149q0 55 11.5 105.5t37 97t64 80.5t97 54t130.5 20q94 0 196 -23l-22 -227q-59 37 -119 37q-59 0 -90 -43t-31 -119v-131h240v-201h-240v-854zM1219 0h-275v1536h275v-1536z" />
    <glyph glyph-name=".notdef" horiz-adv-x="1048" 
d="M1049 0h-1049v1470h1049v-1470zM946 102v1264h-844v-1264h844zM569 240h-114v137h114v-137zM555 479h-94q-4 29 -4 62q0 75 20.5 125.5t87.5 121.5q11 12 33.5 34.5t33 34t24 31t19 39.5t5.5 44q0 74 -46.5 124t-109.5 50q-69 0 -112.5 -48.5t-55.5 -146.5l-102 17
q12 135 84 207.5t192 72.5q110 0 182 -74t72 -194q0 -74 -29 -127t-102 -121q-61 -57 -78 -86.5t-18 -91.5z" />
    <glyph glyph-name=".null" horiz-adv-x="0" 
 />
    <glyph glyph-name="nonmarkingreturn" horiz-adv-x="682" 
 />
    <glyph glyph-name="NULL" horiz-adv-x="0" 
 />
    <glyph glyph-name="NULL" horiz-adv-x="0" 
 />
    <glyph glyph-name="CR" unicode="&#xd;" horiz-adv-x="569" 
 />
    <glyph glyph-name="space" unicode=" " horiz-adv-x="569" 
 />
    <glyph glyph-name="exclam" unicode="!" horiz-adv-x="796" 
d="M514 420h-233l-39 1010h315zM543 0h-287v287h287v-287z" />
    <glyph glyph-name="quotedbl" unicode="&#x22;" horiz-adv-x="985" 
d="M430 918h-250v512h250v-512zM805 918h-250v512h250v-512z" />
    <glyph glyph-name="numbersign" unicode="#" 
d="M764 0h-180l59 420h-209l-61 -420h-180l59 420h-184v164h206l35 262h-180v164h205l57 420h182l-57 -420h209l57 420h181l-58 -420h166v-164h-190l-35 -262h166v-164h-189zM666 584l34 262h-208l-35 -262h209z" />
    <glyph glyph-name="dollar" unicode="$" 
d="M627 -184h-97v159h-12q-102 0 -171.5 10.5t-205.5 45.5l27 258q163 -88 324 -88q26 0 38 4v383q-102 39 -151 61q-128 60 -194 146t-66 223q0 185 107 296t304 136v152h97v-148q186 0 334 -51l-27 -236q-143 62 -291 62q-12 0 -16 -2v-379l102 -41q53 -22 92.5 -42.5
t84 -55t73 -74.5t47 -98.5t18.5 -128.5q0 -183 -108.5 -291t-308.5 -133v-168zM627 543v-314q118 51 118 156q0 99 -118 158zM530 889v319q-112 -51 -112 -178q0 -47 28.5 -80t83.5 -61z" />
    <glyph glyph-name="percent" unicode="%" horiz-adv-x="2048" 
d="M670 -45h-168l884 1520h168zM561 700q-164 0 -254 99t-90 278q0 178 89.5 277.5t254.5 99.5q163 0 251.5 -99t88.5 -278t-88.5 -278t-251.5 -99zM561 864q63 0 95 55t32 158q0 213 -129 213q-61 0 -95 -56.5t-34 -156.5q0 -98 33.5 -155.5t97.5 -57.5zM1493 -25
q-164 0 -254 99t-90 278q0 178 90 277.5t254 99.5q163 0 251.5 -99t88.5 -278t-88.5 -278t-251.5 -99zM1493 139q63 0 95 55t32 158t-32 158t-95 55q-66 0 -98.5 -58.5t-32.5 -154.5t32.5 -154.5t98.5 -58.5z" />
    <glyph glyph-name="ampersand" unicode="&#x26;" horiz-adv-x="1478" 
d="M1470 0h-352l-96 127q-73 -73 -174.5 -112.5t-214.5 -39.5q-224 0 -367 112.5t-143 303.5q0 143 72.5 235t228.5 158q-96 91 -126 130q-73 93 -73 214q0 98 62.5 173.5t160.5 114t211 38.5q176 0 294 -84.5t118 -239.5q0 -118 -61 -204.5t-215 -173.5l262 -287
q82 96 90 311h250q-13 -286 -183 -489zM635 899q78 43 132 98.5t54 110.5q0 68 -45 106.5t-112 38.5q-70 0 -117 -40.5t-47 -108.5q0 -44 30 -89t105 -116zM889 274l-318 355q-174 -89 -174 -230q0 -91 70 -151t172 -60q161 0 250 86z" />
    <glyph glyph-name="quotesingle" unicode="'" horiz-adv-x="569" 
d="M410 918h-250v512h250v-512z" />
    <glyph glyph-name="parenleft" unicode="(" horiz-adv-x="681" 
d="M668 -287h-260q-170 232 -249 456t-79 462q0 249 74.5 461t253.5 456h260q-162 -254 -229.5 -466t-67.5 -449q0 -233 71 -454t226 -466z" />
    <glyph glyph-name="parenright" unicode=")" horiz-adv-x="681" 
d="M272 -287h-258q155 247 226 467.5t71 450.5q0 234 -67 447t-230 470h258q180 -246 255 -459.5t75 -457.5q0 -238 -80 -461t-250 -457z" />
    <glyph glyph-name="asterisk" unicode="*" 
d="M903 754l-188 -136l-146 254l-155 -254l-187 136l201 219l-281 63l68 213l272 -116l-32 297h233l-35 -295l273 114l65 -213l-284 -63z" />
    <glyph glyph-name="plus" unicode="+" horiz-adv-x="1228" 
d="M1135 412h-414v-412h-213v412h-414v213h414v411h213v-411h414v-213z" />
    <glyph glyph-name="comma" unicode="," horiz-adv-x="569" 
d="M289 -225h-242l131 512h297z" />
    <glyph glyph-name="hyphen" unicode="-" horiz-adv-x="681" 
d="M610 438h-538v226h538v-226z" />
    <glyph glyph-name="period" unicode="." horiz-adv-x="569" 
d="M428 0h-287v287h287v-287z" />
    <glyph glyph-name="slash" unicode="/" horiz-adv-x="796" 
d="M256 -25h-213l500 1479h213z" />
    <glyph glyph-name="zero" unicode="0" 
d="M567 -25q-247 0 -371 181.5t-124 554.5q0 348 125.5 545.5t369.5 197.5q246 0 373 -189.5t127 -553.5q0 -358 -127.5 -547t-372.5 -189zM567 188q43 0 77 19t56 46.5t37.5 74t23.5 87t12.5 100.5t5.5 99t1 97t-1 98t-5.5 100.5t-12.5 101.5t-24 88t-38 75.5t-56.5 47.5
t-77.5 19q-40 0 -72.5 -18t-54 -46.5t-37 -73t-23.5 -87t-13 -100t-6 -100.5t-1 -99q0 -52 1 -89t3.5 -89.5t8.5 -90t16 -81t25.5 -73t36.5 -55.5t51 -38.5t67 -12.5z" />
    <glyph glyph-name="one" unicode="1" 
d="M834 0h-287v1104l-242 -197l-143 187l418 336h254v-1430z" />
    <glyph glyph-name="two" unicode="2" 
d="M1034 0h-950v240l172 159q446 417 446 637q0 89 -67 141t-166 52q-153 0 -330 -115l-22 238q202 102 424 102q214 0 331 -108.5t117 -309.5q0 -159 -117 -343.5t-421 -467.5h583v-225z" />
    <glyph glyph-name="three" unicode="3" 
d="M92 23l17 243q165 -65 315 -65q73 0 140 21t115 68.5t48 112.5q0 224 -313 224h-142v225h140q140 0 224.5 49t84.5 139q0 92 -63.5 140.5t-184.5 48.5q-164 0 -319 -76l-17 229q184 72 398 72q92 0 173 -20t150 -61t109.5 -114.5t40.5 -171.5q0 -123 -65 -206t-202 -136
v-4q128 -17 200.5 -108.5t72.5 -231.5q0 -209 -149 -317.5t-402 -108.5q-202 0 -371 48z" />
    <glyph glyph-name="four" unicode="4" 
d="M924 0h-275v297h-616v231l534 902h357v-920h182v-213h-182v-297zM649 510v620h-4l-354 -620h358z" />
    <glyph glyph-name="five" unicode="5" 
d="M147 16l7 256q166 -71 288 -71q140 0 225 66.5t85 185.5q0 118 -87 182.5t-241 64.5q-138 0 -256 -38l14 768h822v-213h-551l-7 -306q92 15 132 15q98 0 180 -27.5t145.5 -82.5t99 -145.5t35.5 -207.5q0 -221 -150.5 -354.5t-406.5 -133.5q-168 0 -334 41z" />
    <glyph glyph-name="six" unicode="6" 
d="M979 1403l-37 -232q-135 58 -250 58q-162 0 -247 -122.5t-93 -320.5l4 -4q100 144 279 144q196 0 306 -117t110 -320q0 -247 -123 -380.5t-353 -133.5q-242 0 -363.5 164t-121.5 502q0 136 19.5 253.5t63.5 221.5t111 178t167.5 117t226.5 43q158 0 301 -51zM575 188
q49 0 87 22.5t59.5 60.5t32 81.5t10.5 91.5q0 70 -18 128.5t-64 99.5t-115 41q-89 0 -139.5 -72t-50.5 -199q0 -70 19 -125.5t65 -92t114 -36.5z" />
    <glyph glyph-name="seven" unicode="7" 
d="M516 0h-311l530 1204h-633v226h922v-238z" />
    <glyph glyph-name="eight" unicode="8" 
d="M793 768v-2q274 -128 274 -377q0 -197 -129.5 -305.5t-362.5 -108.5q-234 0 -368.5 106.5t-134.5 303.5q0 119 64 205t198 151v4q-120 54 -179 142.5t-59 189.5q0 183 124 280t331 97q135 0 241.5 -37t172 -116t65.5 -191q0 -110 -66.5 -205.5t-170.5 -136.5zM596 854
q61 22 110.5 82t49.5 127q0 71 -44 124.5t-134 53.5q-81 0 -144 -44.5t-63 -127.5q0 -69 53.5 -121t171.5 -94zM541 627q-96 -45 -139.5 -102.5t-43.5 -133.5q0 -86 64 -144.5t153 -58.5t147 52.5t58 138.5q0 170 -239 248z" />
    <glyph glyph-name="nine" unicode="9" 
d="M788 643l-4 4q-97 -143 -276 -143q-201 0 -309.5 118t-108.5 318q0 247 122.5 380.5t352.5 133.5q486 0 486 -666q0 -137 -19.5 -255.5t-64.5 -222.5t-112 -177.5t-167 -115.5t-225 -42q-155 0 -301 52l37 231q130 -57 250 -57q154 0 242 115.5t97 326.5zM571 717
q67 0 112 39.5t63 98t18 132.5q0 110 -49.5 182t-151.5 72q-88 0 -137 -73t-49 -183q0 -116 49.5 -192t144.5 -76z" />
    <glyph glyph-name="colon" unicode=":" horiz-adv-x="569" 
d="M428 768h-287v287h287v-287zM428 0h-287v287h287v-287z" />
    <glyph glyph-name="semicolon" unicode=";" horiz-adv-x="569" 
d="M428 768h-287v287h287v-287zM289 -225h-242l131 512h297z" />
    <glyph glyph-name="less" unicode="&#x3c;" horiz-adv-x="1228" 
d="M1135 -16l-1041 446v176l1041 447v-209l-764 -326l764 -325v-209z" />
    <glyph glyph-name="equal" unicode="=" horiz-adv-x="1228" 
d="M1135 635h-1041v213h1041v-213zM1135 188h-1041v213h1041v-213z" />
    <glyph glyph-name="greater" unicode="&#x3e;" horiz-adv-x="1228" 
d="M1135 430l-1041 -446v209l764 325l-764 326v209l1041 -447v-176z" />
    <glyph glyph-name="question" unicode="?" horiz-adv-x="1024" 
d="M627 418h-252q0 108 36.5 209.5t145.5 210.5q70 70 94.5 119.5t24.5 97.5q0 93 -67 139.5t-169 46.5q-137 0 -315 -82l-23 227q228 68 406 68q209 0 338 -96.5t129 -270.5q0 -89 -44.5 -165.5t-142.5 -180.5q-92 -98 -126.5 -162.5t-34.5 -134.5v-26zM645 0h-287v287h287
v-287z" />
    <glyph glyph-name="at" unicode="@" horiz-adv-x="1638" 
d="M1292 293h174q-105 -157 -270.5 -237.5t-376.5 -80.5q-113 0 -221 30.5t-202.5 93t-166 149.5t-112.5 207.5t-41 259.5q0 152 60 288t163.5 235.5t251.5 157.5t317 58q107 0 208 -24t189.5 -73.5t154.5 -119t104.5 -168t38.5 -213.5q0 -122 -41.5 -224t-102.5 -164.5
t-134 -106t-133.5 -61t-104.5 -17.5q-46 0 -78 27.5t-33 78.5h-4q-95 -106 -207 -106q-131 0 -224 95.5t-93 244.5q0 131 55.5 244t152.5 180t213 67q151 0 238 -131l25 98h172l-109 -479q-18 -83 -18 -88q0 -31 30 -31q91 0 161.5 95.5t70.5 267.5q0 89 -28 160.5
t-76.5 119.5t-116.5 80t-145 46t-165 14q-123 0 -231.5 -44t-184.5 -119t-119.5 -176t-43.5 -212q0 -156 67.5 -282t189.5 -197.5t275 -71.5q320 0 471 129zM774 483q95 0 161 83t66 184q0 73 -41.5 118t-109.5 45q-96 0 -162.5 -81.5t-66.5 -180.5q0 -74 41.5 -121
t111.5 -47z" />
    <glyph glyph-name="A" unicode="A" horiz-adv-x="1478" 
d="M1460 0h-317l-123 328h-580l-125 -328h-297l557 1430h324zM940 553l-207 590h-4l-207 -590h418z" />
    <glyph glyph-name="B" unicode="B" horiz-adv-x="1251" 
d="M659 0h-493v1430h500q220 0 340 -93.5t120 -271.5q0 -125 -75.5 -211t-208.5 -111v-4q148 -13 237.5 -104t89.5 -221q0 -205 -135.5 -309.5t-374.5 -104.5zM453 852h112q275 0 275 174q0 88 -57 133t-199 45h-131v-352zM453 225h137q141 0 217 50t76 149q0 111 -71.5 163
t-215.5 52h-143v-414z" />
    <glyph glyph-name="C" unicode="C" horiz-adv-x="1251" 
d="M1194 260l12 -240q-191 -45 -325 -45q-370 0 -577.5 186t-207.5 529q0 361 207.5 562.5t577.5 201.5q175 0 323 -59l-20 -242q-134 76 -310 76q-142 0 -251.5 -67t-168.5 -184.5t-59 -266.5q0 -228 132.5 -369t353.5 -141q81 0 170 15.5t143 43.5z" />
    <glyph glyph-name="D" unicode="D" horiz-adv-x="1478" 
d="M563 0h-397v1430h395q821 0 821 -715t-819 -715zM453 225h161q91 0 175 33.5t149.5 95t105 155.5t39.5 206q0 142 -63 254t-171.5 173.5t-242.5 61.5h-153v-979z" />
    <glyph glyph-name="E" unicode="E" 
d="M1014 0h-848v1430h844v-226h-557v-352h510v-225h-510v-402h561v-225z" />
    <glyph glyph-name="F" unicode="F" horiz-adv-x="1024" 
d="M453 0h-287v1430h795v-226h-508v-352h483v-225h-483v-627z" />
    <glyph glyph-name="G" unicode="G" horiz-adv-x="1478" 
d="M1069 221v373h-303v225h577v-770q-274 -74 -462 -74q-369 0 -577 186t-208 529q0 359 207 561.5t580 202.5q221 0 417 -59l-18 -242q-168 76 -369 76q-237 0 -377.5 -143t-140.5 -375q0 -228 133 -369t355 -141q104 0 186 20z" />
    <glyph glyph-name="H" unicode="H" horiz-adv-x="1478" 
d="M1313 0h-287v627h-573v-627h-287v1430h287v-578h573v578h287v-1430z" />
    <glyph glyph-name="I" unicode="I" horiz-adv-x="569" 
d="M428 0h-287v1430h287v-1430z" />
    <glyph glyph-name="J" unicode="J" horiz-adv-x="796" 
d="M45 2v248q67 -25 133 -25q97 0 144 52t47 182v971h286v-1082q0 -75 -25 -141.5t-72 -118.5t-123 -82.5t-171 -30.5q-114 0 -219 27z" />
    <glyph glyph-name="K" unicode="K" horiz-adv-x="1366" 
d="M1346 0h-375l-514 664h-4v-664h-287v1430h287v-615l516 615h352l-588 -674z" />
    <glyph glyph-name="L" unicode="L" horiz-adv-x="1024" 
d="M1008 0h-842v1430h287v-1205h555v-225z" />
    <glyph glyph-name="M" unicode="M" horiz-adv-x="1933" 
d="M1767 0h-274v1180h-4l-385 -1180h-275l-385 1180l-4 -4v-1176h-274v1430h459l340 -1084h4l340 1084h458v-1430z" />
    <glyph glyph-name="N" unicode="N" horiz-adv-x="1478" 
d="M1327 0h-350l-547 1069h-4v-1069h-274v1430h352l545 -1070h4v1070h274v-1430z" />
    <glyph glyph-name="O" unicode="O" horiz-adv-x="1593" 
d="M797 -25q-329 0 -515 199.5t-186 544.5q0 341 186 538t515 197q319 0 509.5 -196t190.5 -539q0 -344 -189.5 -544t-510.5 -200zM797 201q129 0 220.5 67.5t136 183t44.5 267.5q0 101 -24 190.5t-71.5 162t-126.5 115t-181 42.5q-125 0 -217 -68.5t-137.5 -183
t-45.5 -258.5q0 -234 105 -376t297 -142z" />
    <glyph glyph-name="P" unicode="P" 
d="M428 0h-287v1430h369q288 0 439 -108.5t151 -324.5q0 -222 -142.5 -338t-404.5 -116h-125v-543zM428 768h96q277 0 277 213q0 110 -71.5 166.5t-201.5 56.5h-100v-436z" />
    <glyph glyph-name="Q" unicode="Q" horiz-adv-x="1593" 
d="M1460 -270h-346l-250 250q-29 -5 -65 -5q-174 0 -309.5 56.5t-221 157t-129 235t-43.5 295.5q0 338 185.5 536.5t515.5 198.5q222 0 382 -95.5t239 -260t79 -379.5q0 -235 -94.5 -410.5t-265.5 -257.5zM797 201q105 0 184.5 43.5t125.5 118t68.5 164.5t22.5 192
q0 76 -13.5 147t-44.5 137.5t-76.5 116t-114.5 79.5t-154 30q-97 0 -175 -41t-126 -112t-73.5 -162t-25.5 -195q0 -105 23.5 -195.5t70 -164t126 -116t182.5 -42.5z" />
    <glyph glyph-name="R" unicode="R" horiz-adv-x="1251" 
d="M1210 0h-319l-166 430q-18 47 -31 72.5t-35.5 49.5t-55 33t-81.5 9h-94v-594h-287v1430h449q134 0 233 -22.5t155.5 -57.5t90.5 -88.5t44.5 -104.5t10.5 -115q0 -128 -80.5 -220.5t-214.5 -110.5v-4q94 -6 158 -162zM428 819h111q71 0 124 12t83.5 30.5t48.5 46t24 53.5
t6 57q0 27 -4 48.5t-20 48.5t-44 45.5t-81 31t-125 12.5h-123v-385z" />
    <glyph glyph-name="S" unicode="S" 
d="M141 31l27 258q163 -88 324 -88q57 0 112 17.5t98 61.5t43 105q0 40 -16 70.5t-51 56t-72 43t-98 41.5q-41 16 -64 25.5t-61 26.5t-60.5 30.5t-54 35.5t-50.5 42.5t-40 49.5t-32.5 59.5t-19 69.5t-7.5 83q0 90 26.5 163t72.5 123.5t110 84.5t137 49.5t156 15.5
q188 0 340 -51l-27 -236q-145 62 -291 62q-92 0 -158.5 -48t-66.5 -151q0 -29 13 -54.5t30 -42.5t51 -35.5t57 -28t67 -26.5q15 -6 23 -9q48 -18 82.5 -32.5t77.5 -37t73 -45t61 -55t49 -68.5t30 -84t12 -104q0 -207 -140.5 -320t-397.5 -113q-70 0 -133.5 8t-104.5 17
t-127 31z" />
    <glyph glyph-name="T" unicode="T" 
d="M713 0h-287v1204h-410v226h1106v-226h-409v-1204z" />
    <glyph glyph-name="U" unicode="U" horiz-adv-x="1478" 
d="M1036 598v832h287v-920q0 -535 -584 -535q-583 0 -583 537v918h286v-832q0 -397 297 -397t297 397z" />
    <glyph glyph-name="V" unicode="V" horiz-adv-x="1366" 
d="M864 0h-352l-492 1430h308l366 -1123h4l363 1123h285z" />
    <glyph glyph-name="W" unicode="W" horiz-adv-x="2048" 
d="M1655 0h-369l-258 1143h-4l-254 -1143h-371l-379 1430h302l266 -1143h4l244 1143h389l252 -1143h4l268 1143h279z" />
    <glyph glyph-name="X" unicode="X" horiz-adv-x="1366" 
d="M1346 0h-338l-330 557l-334 -557h-324l469 743l-426 687h332l299 -510l305 510h308l-430 -687z" />
    <glyph glyph-name="Y" unicode="Y" horiz-adv-x="1366" 
d="M831 0h-286v565l-522 865h335l338 -601l344 601h303l-512 -865v-565z" />
    <glyph glyph-name="Z" unicode="Z" 
d="M1065 0h-991v233l671 971h-645v226h951v-234l-678 -971h692v-225z" />
    <glyph glyph-name="bracketleft" unicode="[" horiz-adv-x="681" 
d="M606 -287h-459v1835h459v-200h-196v-1434h196v-201z" />
    <glyph glyph-name="backslash" unicode="\" horiz-adv-x="796" 
d="M754 -25h-213l-500 1479h213z" />
    <glyph glyph-name="bracketright" unicode="]" horiz-adv-x="681" 
d="M535 -287h-459v201h196v1434h-196v200h459v-1835z" />
    <glyph glyph-name="asciicircum" unicode="^" horiz-adv-x="1228" 
d="M1094 641h-213l-267 573l-266 -573h-213l383 789h193z" />
    <glyph glyph-name="underscore" unicode="_" horiz-adv-x="1024" 
d="M1024 -256h-1024v102h1024v-102z" />
    <glyph glyph-name="grave" unicode="`" horiz-adv-x="569" 
d="M510 1161h-170l-281 299h281z" />
    <glyph glyph-name="a" unicode="a" 
d="M1026 0h-242q-7 32 -12 158h-4q-45 -83 -135.5 -133t-190.5 -50q-151 0 -259.5 86t-108.5 230q0 58 13.5 107.5t49.5 97.5t93 81t148.5 53.5t211.5 20.5h170v4q0 125 -60 174.5t-178 49.5q-174 0 -325 -115l-9 235q77 35 176 57.5t191 22.5q238 0 346.5 -104t108.5 -340
v-217q0 -230 16 -418zM760 475v12h-121q-303 0 -303 -182q0 -62 45.5 -95.5t128.5 -33.5q103 0 176.5 74.5t73.5 224.5z" />
    <glyph glyph-name="b" unicode="b" horiz-adv-x="1251" 
d="M408 0h-267v1536h275v-616h4q121 159 315 159q216 0 329.5 -147.5t113.5 -401.5q0 -119 -26.5 -218t-79 -175t-138.5 -119t-199 -43q-104 0 -187.5 40.5t-135.5 113.5h-4v-129zM659 188q62 0 108.5 30.5t72.5 81t38.5 108.5t12.5 122q0 65 -12.5 122.5t-38.5 106.5
t-71 78t-105 29q-81 0 -139 -53t-82.5 -127t-24.5 -156q0 -64 13.5 -123t41 -109t75.5 -80t111 -30z" />
    <glyph glyph-name="c" unicode="c" horiz-adv-x="909" 
d="M856 238l12 -228q-115 -35 -272 -35q-246 0 -384 149t-138 408q0 158 59.5 281t177 194.5t275.5 71.5q148 0 264 -35l-25 -217q-83 39 -184 39q-128 0 -204.5 -92t-76.5 -242q0 -157 75 -250.5t210 -93.5q95 0 211 50z" />
    <glyph glyph-name="d" unicode="d" horiz-adv-x="1251" 
d="M1110 0h-266v119h-4q-116 -144 -324 -144q-117 0 -204.5 45t-138 123.5t-75 175.5t-24.5 211q0 163 46.5 284.5t147.5 193t248 71.5q102 0 177.5 -35.5t137.5 -111.5h5v604h274v-1536zM592 188q64 0 113 31t76 82.5t40 109.5t13 119q0 58 -14 115t-42.5 107.5t-77.5 82
t-112 31.5q-60 0 -105.5 -29t-71.5 -78t-38.5 -107t-12.5 -122q0 -61 12 -117.5t37 -109t72.5 -84t110.5 -31.5z" />
    <glyph glyph-name="e" unicode="e" 
d="M987 283v-224q-153 -84 -360 -84q-262 0 -407.5 143.5t-145.5 403.5q0 113 30 212t88 177t153.5 123t217.5 45q263 0 382.5 -159t119.5 -478h-729q9 -125 89.5 -195.5t213.5 -70.5q157 0 348 107zM336 631h467q-8 117 -64 182.5t-161 65.5q-103 0 -167.5 -65t-74.5 -183z
" />
    <glyph glyph-name="f" unicode="f" horiz-adv-x="796" 
d="M516 0h-274v854h-203v201h203v149q0 55 11.5 105.5t37 97t64 80.5t97 54t130.5 20q94 0 196 -23l-22 -227q-59 37 -119 37q-59 0 -90 -43t-31 -119v-131h240v-201h-240v-854z" />
    <glyph glyph-name="g" unicode="g" horiz-adv-x="1251" 
d="M836 143v25h-5q-44 -76 -133.5 -122t-193.5 -46q-211 0 -320.5 144.5t-109.5 387.5q0 79 16 155t51 147.5t85.5 125.5t126.5 86.5t167 32.5q218 0 324 -168h4v144h262v-957q0 -269 -139.5 -411t-413.5 -142q-198 0 -369 72l23 233q74 -39 161.5 -65.5t147.5 -26.5
q94 0 158 28.5t97.5 83t47 120t13.5 153.5zM594 213q64 0 112 26.5t75.5 73t41 103.5t13.5 123q0 51 -7 96.5t-24.5 88.5t-43.5 74t-66.5 49.5t-90.5 18.5q-119 0 -181.5 -91.5t-62.5 -242.5q0 -76 24.5 -146.5t79.5 -121.5t130 -51z" />
    <glyph glyph-name="h" unicode="h" horiz-adv-x="1251" 
d="M1110 0h-274v596q0 143 -43.5 206.5t-135.5 63.5q-118 0 -179.5 -97t-61.5 -259v-510h-275v1536h275v-625h4q53 77 139.5 122.5t192.5 45.5q177 0 267.5 -111t90.5 -300v-668z" />
    <glyph glyph-name="i" unicode="i" horiz-adv-x="569" 
d="M422 1247h-275v262h275v-262zM422 0h-275v1055h275v-1055z" />
    <glyph glyph-name="j" unicode="j" horiz-adv-x="569" 
d="M-66 -438l9 205q37 -9 73 -9q66 0 98.5 42t32.5 151v1104h275v-1129q0 -195 -78 -288t-242 -93q-93 0 -168 17zM422 1247h-275v262h275v-262z" />
    <glyph glyph-name="k" unicode="k" 
d="M1126 0h-348l-352 512h-4v-512h-275v1536h275v-903h4l328 422h323l-393 -471z" />
    <glyph glyph-name="l" unicode="l" horiz-adv-x="569" 
d="M422 0h-275v1536h275v-1536z" />
    <glyph glyph-name="m" unicode="m" horiz-adv-x="1820" 
d="M1686 0h-275v657q0 113 -40 161t-118 48q-102 0 -153 -90.5t-51 -259.5v-516h-275v657q0 112 -39.5 160.5t-118.5 48.5q-104 0 -154 -91t-50 -257v-518h-275v1055h256v-148h4q55 81 136.5 126.5t179.5 45.5q225 0 309 -186q42 87 132 136.5t200 49.5q332 0 332 -409v-670
z" />
    <glyph glyph-name="n" unicode="n" horiz-adv-x="1251" 
d="M1110 0h-274v592q0 132 -39 203t-140 71q-83 0 -139 -51t-79 -128t-23 -175v-512h-275v1055h260v-144h5q119 168 346 168q177 0 267.5 -110.5t90.5 -302.5v-666z" />
    <glyph glyph-name="o" unicode="o" horiz-adv-x="1251" 
d="M1178 520q0 -239 -151 -392t-402 -153q-166 0 -292.5 71.5t-192.5 194.5t-66 279q0 252 154 405.5t397 153.5q244 0 398.5 -153.5t154.5 -405.5zM625 188q131 0 198.5 96t67.5 269q0 133 -70 223t-196 90q-124 0 -194.5 -91t-70.5 -222q0 -171 67 -268t198 -97z" />
    <glyph glyph-name="p" unicode="p" horiz-adv-x="1251" 
d="M416 -430h-275v1485h262v-150h5q106 174 327 174q112 0 198 -41.5t139 -116t79.5 -173t26.5 -218.5q0 -119 -26.5 -217.5t-79.5 -175t-140.5 -119.5t-202.5 -43q-103 0 -173.5 34.5t-135.5 111.5h-4v-551zM659 188q63 0 110.5 31.5t72.5 84t37 109t12 117.5
q0 59 -11.5 114.5t-35.5 107t-70.5 83t-109.5 31.5q-64 0 -113 -31.5t-77 -82.5t-42 -107.5t-14 -114.5q0 -62 13 -120t40 -109t75.5 -82t112.5 -31z" />
    <glyph glyph-name="q" unicode="q" horiz-adv-x="1251" 
d="M1110 -430h-274v551h-5q-65 -77 -135.5 -111.5t-173.5 -34.5q-113 0 -200 42t-140.5 117t-80.5 175t-27 221q0 259 115.5 404t332.5 145t322 -174h4v150h262v-1485zM592 188q64 0 113 31t76 82.5t40 109.5t13 119q0 58 -14 115t-42.5 107.5t-77.5 82t-112 31.5
q-60 0 -105.5 -29t-71.5 -78t-38.5 -107t-12.5 -122t12.5 -122t38.5 -108.5t72.5 -81t108.5 -30.5z" />
    <glyph glyph-name="r" unicode="r" horiz-adv-x="796" 
d="M422 0h-275v1055h244v-240h4q8 58 45.5 117.5t104 103t141.5 43.5q50 0 82 -8v-276q-39 22 -123 22q-223 0 -223 -383v-434z" />
    <glyph glyph-name="s" unicode="s" horiz-adv-x="909" 
d="M84 20l16 226q140 -70 271 -70q42 0 80 10.5t69 41t31 77.5q0 26 -10.5 46.5t-25.5 34t-44.5 26.5t-52.5 20.5t-64 18.5q-145 39 -212.5 106.5t-67.5 194.5q0 155 115.5 241t299.5 86q132 0 297 -39l-18 -206q-128 45 -244 45q-74 0 -119 -30t-45 -87q0 -42 42 -68.5
t141 -54.5q152 -42 223.5 -116.5t71.5 -203.5q0 -166 -125.5 -255t-319.5 -89q-142 0 -309 45z" />
    <glyph glyph-name="t" unicode="t" horiz-adv-x="796" 
d="M760 217l8 -217q-89 -25 -201 -25q-163 0 -249.5 92.5t-86.5 249.5v537h-202v201h202v211l275 88v-299h244v-201h-244v-489q0 -87 31 -132t100 -45q76 0 123 29z" />
    <glyph glyph-name="u" unicode="u" horiz-adv-x="1251" 
d="M1110 0h-260v143h-4q-139 -168 -346 -168q-174 0 -266.5 109.5t-92.5 304.5v666h275v-602q0 -147 47 -206t131 -59q120 0 181 98.5t61 258.5v510h274v-1055z" />
    <glyph glyph-name="v" unicode="v" 
d="M725 0h-309l-391 1055h294l263 -768h4l254 768h274z" />
    <glyph glyph-name="w" unicode="w" horiz-adv-x="1820" 
d="M1475 0h-324l-229 805h-4l-226 -805h-313l-356 1055h290l234 -781h4l213 781h319l230 -781h4l219 781h262z" />
    <glyph glyph-name="x" unicode="x" 
d="M1120 0h-327l-236 393l-238 -393h-301l363 553l-326 502h324l207 -344l202 344h291l-315 -502z" />
    <glyph glyph-name="y" unicode="y" 
d="M88 -426l18 203q56 -19 140 -19q85 0 132.5 52.5t47.5 136.5l-403 1108h303l254 -770h4l254 770h278l-442 -1172q-33 -85 -65 -142t-77.5 -104t-108 -69.5t-144.5 -22.5q-89 0 -191 29z" />
    <glyph glyph-name="z" unicode="z" horiz-adv-x="1024" 
d="M950 0h-876v223l534 619h-512v213h836v-226l-524 -616h542v-213z" />
    <glyph glyph-name="braceleft" unicode="{" horiz-adv-x="681" 
d="M662 -287h-152q-132 0 -218.5 74.5t-86.5 200.5v354q0 91 -44 145.5t-124 55.5v176q80 1 124 52t44 136v367q0 126 87.5 200t215.5 74h154v-164h-91q-58 0 -81 -31.5t-23 -109.5v-364q0 -105 -58 -169.5t-171 -76.5v-4q229 -18 229 -260v-351q0 -81 23 -111t81 -30h91
v-164z" />
    <glyph glyph-name="bar" unicode="|" horiz-adv-x="454" 
d="M334 -512h-213v2048h213v-2048z" />
    <glyph glyph-name="braceright" unicode="}" horiz-adv-x="681" 
d="M172 -287h-152v164h91q59 0 81.5 31t22.5 110v347q0 247 229 264v4q-106 11 -167.5 73t-61.5 177v360q0 80 -24 110.5t-82 30.5h-89v164h152q133 0 219 -72.5t86 -201.5v-365q0 -89 44.5 -138.5t123.5 -51.5v-176q-82 -1 -125 -56.5t-43 -144.5v-354q0 -125 -84 -200
t-221 -75z" />
    <glyph glyph-name="asciitilde" unicode="~" horiz-adv-x="1228" 
d="M1014 700l73 -180q-107 -180 -235 -180q-63 0 -118 18.5t-150 69.5q-102 55 -193 55q-110 0 -176 -147l-74 180q92 180 248 180q110 0 236 -67q146 -76 219 -76q42 0 80.5 34.5t89.5 112.5z" />
    <glyph glyph-name="uni00A0" unicode="&#xa0;" horiz-adv-x="569" 
 />
    <glyph glyph-name="exclamdown" unicode="&#xa1;" horiz-adv-x="796" 
d="M539 768h-287v287h287v-287zM555 -375h-315l43 1010h227z" />
    <glyph glyph-name="cent" unicode="&#xa2;" 
d="M958 238l13 -228q-109 -35 -273 -35q-79 0 -145 17l-55 -176h-119l65 213q-130 64 -199 194.5t-69 308.5q0 87 19.5 167t61 149.5t101 120.5t144 80.5t186.5 29.5q53 0 80 -4l53 170h119l-57 -186q17 -1 69 -15l-24 -217q-59 26 -107 33l-198 -645q53 -27 125 -27
q96 0 210 50zM528 297l174 569q-109 -13 -174 -105t-65 -229q0 -146 65 -235z" />
    <glyph glyph-name="sterling" unicode="&#xa3;" 
d="M1034 0h-923v213h180v449h-156v163h156v174q0 197 139.5 326t353.5 129q152 0 265 -35l-15 -225q-125 35 -196 35q-130 0 -195 -77t-65 -191v-136h301v-163h-301v-449h456v-213z" />
    <glyph glyph-name="currency" unicode="&#xa4;" 
d="M981 186l-119 119q-134 -94 -293 -94q-160 0 -293 94l-118 -119l-121 121l119 119q-95 136 -95 293q0 156 95 293l-119 118l121 121l118 -118q129 94 293 94q159 0 293 -94l119 118l121 -121l-119 -118q94 -136 94 -291q0 -156 -94 -295l119 -119zM569 424
q118 0 200.5 87t82.5 208t-83 208t-202 87q-116 0 -198 -87.5t-82 -207.5q0 -123 83 -209t199 -86z" />
    <glyph glyph-name="yen" unicode="&#xa5;" 
d="M707 0h-275v301h-301v164h301v100l-16 27h-285v164h205l-356 674h288l310 -631l315 631h268l-354 -674h201v-164h-287l-14 -27v-100h301v-164h-301v-301z" />
    <glyph glyph-name="brokenbar" unicode="&#xa6;" horiz-adv-x="454" 
d="M334 666h-213v716h213v-716zM334 -358h-213v716h213v-716z" />
    <glyph glyph-name="section" unicode="&#xa7;" 
d="M162 -219l18 233q196 -80 344 -80q207 0 207 142q0 57 -54 93.5t-173 78.5q-71 25 -116 43.5t-98.5 48.5t-83.5 62t-50.5 78.5t-20.5 103.5q0 183 158 276q-77 53 -110 110.5t-33 133.5q0 85 38 153.5t102 110.5t143 64t165 22q23 0 46.5 -1t51.5 -4t45 -5t49.5 -7.5
t43.5 -7.5t48 -8.5t42 -7.5l-23 -223q-134 51 -291 51q-198 0 -198 -139q0 -52 47 -91t190 -85q67 -23 113 -42t96 -48.5t79.5 -62.5t49 -80.5t19.5 -104.5q0 -82 -40.5 -152.5t-111.5 -109.5q65 -37 102 -100t37 -136q0 -111 -65 -197t-167 -129t-220 -43q-137 0 -379 60z
M719 391q74 64 74 154q0 35 -14.5 61.5t-47 48t-65 35.5t-86.5 33q-113 39 -158 61q-31 -22 -52.5 -65t-21.5 -86q0 -52 53 -93.5t170 -84.5q116 -43 148 -64z" />
    <glyph glyph-name="dieresis" unicode="&#xa8;" horiz-adv-x="569" 
d="M193 1192h-238v238h238v-238zM614 1192h-237v238h237v-238z" />
    <glyph glyph-name="copyright" unicode="&#xa9;" horiz-adv-x="1638" 
d="M819 -25q-148 0 -284 57.5t-236 156t-159.5 237.5t-59.5 293q0 196 98 365t268.5 269.5t372.5 100.5q199 0 369 -98t270.5 -268.5t100.5 -372.5q0 -151 -59.5 -288.5t-159 -236.5t-236 -157t-285.5 -58zM819 139q227 0 377 163.5t150 412.5q0 164 -68.5 295.5
t-189.5 205.5t-271 74q-224 0 -374 -161.5t-150 -413.5t149.5 -414t376.5 -162zM1036 596h170q-21 -144 -120 -227.5t-238 -83.5q-184 0 -301 123t-117 313q0 194 113.5 315t300.5 121q145 0 240.5 -82.5t115.5 -224.5h-164q-13 69 -65.5 106t-126.5 37q-99 0 -156 -72.5
t-57 -197.5q0 -116 60 -195t157 -79q78 0 129.5 38t58.5 109z" />
    <glyph glyph-name="ordfeminine" unicode="&#xaa;" horiz-adv-x="739" 
d="M682 803h-172l-6 86h-4q-45 -103 -193 -103q-103 0 -176.5 46.5t-73.5 136.5q0 227 353 227h86q0 79 -38.5 107t-111.5 28q-113 0 -215 -63v135q99 51 248 51t221 -62t72 -216v-68q0 -155 10 -305zM498 1085h-84q-181 0 -181 -104q0 -39 33 -55.5t74 -16.5q78 0 118 52
t40 124z" />
    <glyph glyph-name="guillemotleft" unicode="&#xab;" 
d="M600 131h-258l-242 420l242 420h258l-225 -420zM1057 131h-258l-242 420l242 420h258l-226 -420z" />
    <glyph glyph-name="logicalnot" unicode="&#xac;" horiz-adv-x="1228" 
d="M1135 221h-213v414h-828v213h1041v-627z" />
    <glyph glyph-name="uni00AD" unicode="&#xad;" horiz-adv-x="681" 
d="M610 438h-538v226h538v-226z" />
    <glyph glyph-name="registered" unicode="&#xae;" horiz-adv-x="1638" 
d="M1159 307h-180l-197 348h-84v-348h-176v821h316q164 0 242.5 -58.5t78.5 -186.5q0 -201 -217 -219zM698 791h152q73 0 103 25t30 81q0 96 -156 96h-129v-202zM819 -25q-148 0 -284 57.5t-236 156t-159.5 237.5t-59.5 293q0 196 98 365t268.5 269.5t372.5 100.5
q199 0 369 -98t270.5 -268.5t100.5 -372.5q0 -151 -59.5 -288.5t-159 -236.5t-236 -157t-285.5 -58zM819 139q227 0 377 163.5t150 412.5q0 164 -68.5 295.5t-189.5 205.5t-271 74q-224 0 -374 -161.5t-150 -413.5t149.5 -414t376.5 -162z" />
    <glyph glyph-name="macron" unicode="&#xaf;" horiz-adv-x="569" 
d="M580 1229h-590v164h590v-164z" />
    <glyph glyph-name="degree" unicode="&#xb0;" horiz-adv-x="819" 
d="M410 795q-142 0 -236 92.5t-94 236.5q0 137 97 233.5t233 96.5q137 0 233 -97t96 -233q0 -140 -95 -234.5t-234 -94.5zM590 1124q0 80 -50.5 130.5t-129.5 50.5q-80 0 -130.5 -50.5t-50.5 -130.5q0 -79 50.5 -129.5t130.5 -50.5t130 50t50 130z" />
    <glyph glyph-name="plusminus" unicode="&#xb1;" horiz-adv-x="1228" 
d="M1135 553h-414v-272h-213v272h-414v213h414v270h213v-270h414v-213zM1135 0h-1041v213h1041v-213z" />
    <glyph glyph-name="twosuperior" unicode="&#xb2;" horiz-adv-x="739" 
d="M680 877h-619v167q58 24 147 103.5t159.5 174.5t70.5 151q0 50 -32 77t-93 27q-117 0 -215 -70l-14 179q125 67 276 67t233.5 -68.5t82.5 -193.5q0 -60 -35.5 -130t-89 -128.5t-112.5 -105t-109 -70.5v-4h350v-176z" />
    <glyph glyph-name="threesuperior" unicode="&#xb3;" horiz-adv-x="739" 
d="M504 1327v-4q84 -6 133 -61t49 -136q0 -125 -109.5 -193.5t-267.5 -68.5q-124 0 -256 35l10 170q138 -41 220 -41q70 0 118 29.5t48 75.5q0 100 -152 100q-72 0 -113 -6v174q50 -4 113 -4q64 0 108 27.5t44 70.5q0 94 -132 94q-134 0 -223 -53l-10 168q140 49 262 49
q83 0 154 -20t122.5 -69.5t51.5 -121.5q0 -172 -170 -215z" />
    <glyph glyph-name="acute" unicode="&#xb4;" horiz-adv-x="569" 
d="M229 1161h-170l170 299h281z" />
    <glyph glyph-name="mu" unicode="&#xb5;" horiz-adv-x="1251" 
d="M1110 0h-260v143h-4q-32 -74 -95 -121t-143 -47q-73 0 -114.5 18t-73.5 52h-4v-475h-275v1485h275v-598q0 -81 14 -136.5t40.5 -83t55.5 -38.5t68 -11q119 0 180.5 98t61.5 257v512h274v-1055z" />
    <glyph glyph-name="paragraph" unicode="&#xb6;" horiz-adv-x="1269" 
d="M1096 -254h-213v1520h-217v-1520h-213v952q-210 0 -329.5 96.5t-119.5 264.5q0 188 122 279.5t366 91.5h604v-1684z" />
    <glyph glyph-name="periodcentered" unicode="&#xb7;" horiz-adv-x="569" 
d="M285 424q-71 0 -114.5 44.5t-43.5 113.5q0 68 43.5 112.5t114.5 44.5t114 -44t43 -113t-43 -113.5t-114 -44.5z" />
    <glyph glyph-name="cedilla" unicode="&#xb8;" horiz-adv-x="569" 
d="M154 -412l41 111q6 -2 23.5 -7.5t28 -8.5t27 -7t32.5 -6t32 -2q50 0 79 18.5t29 53.5t-24 54.5t-66 19.5q-30 0 -86 -19l-30 53l120 152h129l-94 -109l4 -4q57 13 82 13q71 0 118.5 -38t47.5 -106q0 -98 -70.5 -154.5t-189.5 -56.5q-142 0 -233 43z" />
    <glyph glyph-name="onesuperior" unicode="&#xb9;" horiz-adv-x="739" 
d="M565 877h-213v655l-157 -121l-107 125l285 205h192v-864z" />
    <glyph glyph-name="ordmasculine" unicode="&#xba;" horiz-adv-x="813" 
d="M770 1122q0 -150 -102 -243t-260 -93q-160 0 -262.5 93t-102.5 243q0 146 106.5 239t260.5 93t257 -93t103 -239zM410 909q159 0 159 211q0 93 -38.5 152t-116.5 59q-80 0 -125 -54.5t-45 -156.5q0 -211 166 -211z" />
    <glyph glyph-name="guillemotright" unicode="&#xbb;" 
d="M340 131h-258l225 420l-225 420h258l242 -420zM797 131h-258l225 420l-225 420h258l241 -420z" />
    <glyph glyph-name="onequarter" unicode="&#xbc;" horiz-adv-x="1708" 
d="M518 575h-213v656l-158 -121l-106 125l285 205h192v-865zM1556 0h-213v162h-411v174l368 528h256v-538h99v-164h-99v-162zM1343 326v350h-4l-233 -350h237zM504 -45h-168l854 1520h168z" />
    <glyph glyph-name="onehalf" unicode="&#xbd;" horiz-adv-x="1708" 
d="M498 575h-213v656l-158 -121l-107 125l285 205h193v-865zM1640 0h-618v168q58 24 147 103t159.5 174t70.5 151q0 50 -32 77t-93 27q-118 0 -215 -69l-15 178q127 68 277 68t232.5 -69t82.5 -194q0 -60 -35.5 -130t-89 -128.5t-112.5 -105t-109 -70.5v-4h350v-176z
M442 -45h-168l854 1520h168z" />
    <glyph glyph-name="threequarters" unicode="&#xbe;" horiz-adv-x="1708" 
d="M1581 0h-213v162h-412v174l369 528h256v-538h98v-164h-98v-162zM1368 326v350h-4l-234 -350h238zM479 1026v-4q85 -6 134 -61t49 -136q0 -125 -109.5 -193.5t-267.5 -68.5q-124 0 -256 35l10 170q138 -41 219 -41q71 0 118.5 29t47.5 75q0 101 -152 101q-72 0 -112 -6
v174q50 -4 112 -4q64 0 108 27.5t44 70.5q0 94 -131 94q-134 0 -223 -53l-11 168q140 49 263 49q83 0 154 -20t122 -69.5t51 -121.5q0 -172 -170 -215zM528 -45h-168l854 1520h168z" />
    <glyph glyph-name="questiondown" unicode="&#xbf;" horiz-adv-x="1024" 
d="M664 768h-287v287h287v-287zM899 -104l23 -228q-161 -67 -404 -67q-214 0 -341.5 95t-127.5 269q0 88 43.5 165.5t136.5 174.5q89 94 128.5 163t39.5 140v29h252q0 -65 -12.5 -123.5t-27 -95.5t-46.5 -82.5t-48.5 -64.5t-55.5 -62q-4 -5 -20 -22t-22.5 -25t-19.5 -25
t-19.5 -30t-14.5 -31t-11.5 -37t-3.5 -39q0 -91 66.5 -138.5t171.5 -47.5q159 0 313 82z" />
    <glyph glyph-name="Agrave" unicode="&#xc0;" horiz-adv-x="1478" 
d="M1460 0h-317l-123 328h-580l-125 -328h-297l557 1430h324zM940 553l-207 590h-4l-207 -590h418zM920 1516h-170l-281 299h281z" />
    <glyph glyph-name="Aacute" unicode="&#xc1;" horiz-adv-x="1478" 
d="M1460 0h-317l-123 328h-580l-125 -328h-297l557 1430h324zM940 553l-207 590h-4l-207 -590h418zM756 1516h-170l170 299h280z" />
    <glyph glyph-name="Acircumflex" unicode="&#xc2;" horiz-adv-x="1478" 
d="M1460 0h-317l-123 328h-580l-125 -328h-297l557 1430h324zM940 553l-207 590h-4l-207 -590h418zM1075 1516h-182l-139 176l-144 -176h-182l225 299h207z" />
    <glyph glyph-name="Atilde" unicode="&#xc3;" horiz-adv-x="1478" 
d="M1460 0h-317l-123 328h-580l-125 -328h-297l557 1430h324zM940 553l-207 590h-4l-207 -590h418zM1001 1796h111q0 -110 -55 -179t-144 -69q-65 0 -124 19t-106.5 38t-84.5 19q-47 0 -73.5 -27t-26.5 -63h-111q2 102 63 175t146 73q68 0 170 -43t145 -43q45 0 67.5 28.5
t22.5 71.5z" />
    <glyph glyph-name="Adieresis" unicode="&#xc4;" horiz-adv-x="1478" 
d="M1460 0h-317l-123 328h-580l-125 -328h-297l557 1430h324zM940 553l-207 590h-4l-207 -590h418zM659 1546h-237v238h237v-238zM1081 1546h-237v238h237v-238z" />
    <glyph glyph-name="Aring" unicode="&#xc5;" horiz-adv-x="1478" 
d="M1460 0h-317l-123 328h-580l-125 -328h-297l557 1430h324zM940 553l-207 590h-4l-207 -590h418zM733 1495q-91 0 -155 64t-64 153q0 90 65.5 154.5t153.5 64.5q91 0 154 -65t63 -154q0 -91 -63 -154t-154 -63zM840 1712q0 46 -31.5 77.5t-75.5 31.5q-45 0 -76.5 -31
t-31.5 -78q0 -44 31 -75t77 -31q44 0 75.5 31t31.5 75z" />
    <glyph glyph-name="AE" unicode="&#xc6;" horiz-adv-x="1933" 
d="M1831 0h-756l-24 328h-549l-176 -328h-308l783 1430h1022v-226h-555l28 -352h482v-225h-457l33 -402h477v-225zM1030 553l-47 664h-4l-354 -664h405z" />
    <glyph glyph-name="Ccedilla" unicode="&#xc7;" horiz-adv-x="1251" 
d="M537 -412l41 111q6 -2 23.5 -7.5t28 -8.5t27 -7t32.5 -6t32 -2q50 0 79 18.5t29 53.5t-24 54.5t-66 19.5q-29 0 -86 -19l-30 53l110 140q-307 34 -472 215.5t-165 486.5q0 361 207.5 562.5t577.5 201.5q170 0 323 -59l-20 -242q-134 76 -310 76q-142 0 -251.5 -67
t-168.5 -184.5t-59 -266.5q0 -228 133 -369t353 -141q80 0 168.5 15.5t144.5 43.5l12 -240q-191 -45 -329 -45q-17 0 -25 2l-74 -86l4 -4q4 1 20 4.5t33 6t31 2.5q65 0 114.5 -37t49.5 -107q0 -99 -71 -155t-189 -56q-136 0 -233 43z" />
    <glyph glyph-name="Egrave" unicode="&#xc8;" 
d="M1014 0h-848v1430h844v-226h-557v-352h510v-225h-510v-402h561v-225zM741 1516h-170l-280 299h280z" />
    <glyph glyph-name="Eacute" unicode="&#xc9;" 
d="M1014 0h-848v1430h844v-226h-557v-352h510v-225h-510v-402h561v-225zM578 1516h-170l170 299h280z" />
    <glyph glyph-name="Ecircumflex" unicode="&#xca;" 
d="M1014 0h-848v1430h844v-226h-557v-352h510v-225h-510v-402h561v-225zM897 1516h-182l-140 176l-143 -176h-182l225 299h207z" />
    <glyph glyph-name="Edieresis" unicode="&#xcb;" 
d="M1014 0h-848v1430h844v-226h-557v-352h510v-225h-510v-402h561v-225zM481 1546h-237v238h237v-238zM903 1546h-237v238h237v-238z" />
    <glyph glyph-name="Igrave" unicode="&#xcc;" horiz-adv-x="569" 
d="M428 0h-287v1430h287v-1430zM459 1516h-170l-281 299h281z" />
    <glyph glyph-name="Iacute" unicode="&#xcd;" horiz-adv-x="569" 
d="M428 0h-287v1430h287v-1430zM285 1516h-170l170 299h280z" />
    <glyph glyph-name="Icircumflex" unicode="&#xce;" horiz-adv-x="569" 
d="M428 0h-287v1430h287v-1430zM608 1516h-182l-139 176l-144 -176h-182l225 299h207z" />
    <glyph glyph-name="Idieresis" unicode="&#xcf;" horiz-adv-x="569" 
d="M428 0h-287v1430h287v-1430zM193 1546h-238v238h238v-238zM614 1546h-237v238h237v-238z" />
    <glyph glyph-name="Eth" unicode="&#xd0;" horiz-adv-x="1478" 
d="M563 0h-397v688h-131v176h131v566h395q821 0 821 -715t-819 -715zM453 225h161q91 0 175 33.5t149.5 95t105 155.5t39.5 206q0 142 -63 254t-171.5 173.5t-242.5 61.5h-153v-340h299v-176h-299v-463z" />
    <glyph glyph-name="Ntilde" unicode="&#xd1;" horiz-adv-x="1478" 
d="M1327 0h-350l-547 1069h-4v-1069h-274v1430h352l545 -1070h4v1070h274v-1430zM997 1796h111q0 -110 -55 -179t-144 -69q-65 0 -124 19t-106.5 38t-84.5 19q-47 0 -73.5 -27t-26.5 -63h-111q2 102 63 175t146 73q68 0 170 -43t145 -43q45 0 67.5 28.5t22.5 71.5z" />
    <glyph glyph-name="Ograve" unicode="&#xd2;" horiz-adv-x="1593" 
d="M797 -25q-329 0 -515 199.5t-186 544.5q0 341 186 538t515 197q319 0 509.5 -196t190.5 -539q0 -344 -189.5 -544t-510.5 -200zM797 201q129 0 220.5 67.5t136 183t44.5 267.5q0 101 -24 190.5t-71.5 162t-126.5 115t-181 42.5q-125 0 -217 -68.5t-137.5 -183
t-45.5 -258.5q0 -234 105 -376t297 -142zM979 1516h-170l-281 299h281z" />
    <glyph glyph-name="Oacute" unicode="&#xd3;" horiz-adv-x="1593" 
d="M797 -25q-329 0 -515 199.5t-186 544.5q0 341 186 538t515 197q319 0 509.5 -196t190.5 -539q0 -344 -189.5 -544t-510.5 -200zM797 201q129 0 220.5 67.5t136 183t44.5 267.5q0 101 -24 190.5t-71.5 162t-126.5 115t-181 42.5q-125 0 -217 -68.5t-137.5 -183
t-45.5 -258.5q0 -234 105 -376t297 -142zM815 1516h-170l170 299h281z" />
    <glyph glyph-name="Ocircumflex" unicode="&#xd4;" horiz-adv-x="1593" 
d="M797 -25q-329 0 -515 199.5t-186 544.5q0 341 186 538t515 197q319 0 509.5 -196t190.5 -539q0 -344 -189.5 -544t-510.5 -200zM797 201q129 0 220.5 67.5t136 183t44.5 267.5q0 101 -24 190.5t-71.5 162t-126.5 115t-181 42.5q-125 0 -217 -68.5t-137.5 -183
t-45.5 -258.5q0 -234 105 -376t297 -142zM1133 1516h-183l-139 176l-143 -176h-183l226 299h207z" />
    <glyph glyph-name="Otilde" unicode="&#xd5;" horiz-adv-x="1593" 
d="M797 -25q-329 0 -515 199.5t-186 544.5q0 341 186 538t515 197q319 0 509.5 -196t190.5 -539q0 -344 -189.5 -544t-510.5 -200zM797 201q129 0 220.5 67.5t136 183t44.5 267.5q0 101 -24 190.5t-71.5 162t-126.5 115t-181 42.5q-125 0 -217 -68.5t-137.5 -183
t-45.5 -258.5q0 -234 105 -376t297 -142zM1059 1796h110q0 -111 -54.5 -179.5t-143.5 -68.5q-65 0 -124.5 19t-107 38t-84.5 19q-47 0 -73.5 -27t-26.5 -63h-111q2 102 63 175t146 73q68 0 170.5 -43t145.5 -43q45 0 67.5 28.5t22.5 71.5z" />
    <glyph glyph-name="Odieresis" unicode="&#xd6;" horiz-adv-x="1593" 
d="M797 -25q-329 0 -515 199.5t-186 544.5q0 341 186 538t515 197q319 0 509.5 -196t190.5 -539q0 -344 -189.5 -544t-510.5 -200zM797 201q129 0 220.5 67.5t136 183t44.5 267.5q0 101 -24 190.5t-71.5 162t-126.5 115t-181 42.5q-125 0 -217 -68.5t-137.5 -183
t-45.5 -258.5q0 -234 105 -376t297 -142zM717 1546h-238v238h238v-238zM1139 1546h-238v238h238v-238z" />
    <glyph glyph-name="multiply" unicode="&#xd7;" horiz-adv-x="1228" 
d="M946 39l-332 334l-331 -334l-148 147l332 332l-332 332l148 147l331 -331l332 331l148 -147l-334 -332l334 -332z" />
    <glyph glyph-name="Oslash" unicode="&#xd8;" horiz-adv-x="1593" 
d="M262 -59l-92 73l121 156q-195 192 -195 549q0 342 185.5 538.5t515.5 196.5q235 0 405 -108l111 143l92 -76l-111 -143q99 -98 151 -239t52 -312q0 -338 -187 -541t-513 -203q-250 0 -418 117zM467 397l575 742q-100 90 -247 90q-188 0 -294 -144.5t-106 -365.5
q0 -190 72 -322zM1118 1042l-577 -743q98 -98 258 -98q97 0 174 39.5t125.5 110t74 164.5t25.5 206q0 190 -80 321z" />
    <glyph glyph-name="Ugrave" unicode="&#xd9;" horiz-adv-x="1478" 
d="M1036 598v832h287v-920q0 -535 -584 -535q-583 0 -583 537v918h286v-832q0 -397 297 -397t297 397zM920 1516h-170l-281 299h281z" />
    <glyph glyph-name="Uacute" unicode="&#xda;" horiz-adv-x="1478" 
d="M1036 598v832h287v-920q0 -535 -584 -535q-583 0 -583 537v918h286v-832q0 -397 297 -397t297 397zM754 1516h-170l170 299h280z" />
    <glyph glyph-name="Ucircumflex" unicode="&#xdb;" horiz-adv-x="1478" 
d="M1036 598v832h287v-920q0 -535 -584 -535q-583 0 -583 537v918h286v-832q0 -397 297 -397t297 397zM1071 1516h-182l-139 176l-144 -176h-182l225 299h207z" />
    <glyph glyph-name="Udieresis" unicode="&#xdc;" horiz-adv-x="1478" 
d="M1036 598v832h287v-920q0 -535 -584 -535q-583 0 -583 537v918h286v-832q0 -397 297 -397t297 397zM655 1546h-237v238h237v-238zM1077 1546h-237v238h237v-238z" />
    <glyph glyph-name="Yacute" unicode="&#xdd;" horiz-adv-x="1366" 
d="M831 0h-286v565l-522 865h335l338 -601l344 601h303l-512 -865v-565zM702 1516h-170l170 299h281z" />
    <glyph glyph-name="Thorn" unicode="&#xde;" 
d="M428 0h-287v1430h287v-238h70q602 0 602 -434q0 -222 -142 -337.5t-407 -115.5h-123v-305zM428 530h100q139 0 206 55.5t67 157.5q0 107 -70.5 165.5t-202.5 58.5h-100v-437z" />
    <glyph glyph-name="germandbls" unicode="&#xdf;" horiz-adv-x="1251" 
d="M532 10l9 213q68 -22 141 -22q99 0 160 64.5t61 203.5q0 117 -79 174t-242 57v213q122 0 184.5 57.5t62.5 166.5q0 97 -49 154t-133 57q-108 0 -166.5 -84.5t-58.5 -206.5v-1057h-275v1034q0 243 131.5 385t370.5 142q90 0 173.5 -25t149 -71.5t105 -119.5t39.5 -161
q0 -140 -69.5 -234t-202.5 -129v-4q153 -20 249.5 -125t96.5 -254q0 -202 -132.5 -326t-346.5 -124q-27 0 -55 2.5t-44 5t-44.5 8t-35.5 6.5z" />
    <glyph glyph-name="agrave" unicode="&#xe0;" 
d="M1026 0h-242q-7 32 -12 158h-4q-45 -83 -135.5 -133t-190.5 -50q-151 0 -259.5 86t-108.5 230q0 58 13.5 107.5t49.5 97.5t93 81t148.5 53.5t211.5 20.5h170v4q0 125 -60 174.5t-178 49.5q-174 0 -325 -115l-9 235q77 35 176 57.5t191 22.5q238 0 346.5 -104t108.5 -340
v-217q0 -230 16 -418zM760 475v12h-121q-303 0 -303 -182q0 -62 45.5 -95.5t128.5 -33.5q103 0 176.5 74.5t73.5 224.5zM709 1161h-170l-281 299h281z" />
    <glyph glyph-name="aacute" unicode="&#xe1;" 
d="M1026 0h-242q-7 32 -12 158h-4q-45 -83 -135.5 -133t-190.5 -50q-151 0 -259.5 86t-108.5 230q0 58 13.5 107.5t49.5 97.5t93 81t148.5 53.5t211.5 20.5h170v4q0 125 -60 174.5t-178 49.5q-174 0 -325 -115l-9 235q77 35 176 57.5t191 22.5q238 0 346.5 -104t108.5 -340
v-217q0 -230 16 -418zM760 475v12h-121q-303 0 -303 -182q0 -62 45.5 -95.5t128.5 -33.5q103 0 176.5 74.5t73.5 224.5zM600 1161h-170l170 299h281z" />
    <glyph glyph-name="acircumflex" unicode="&#xe2;" 
d="M1026 0h-242q-7 32 -12 158h-4q-45 -83 -135.5 -133t-190.5 -50q-151 0 -259.5 86t-108.5 230q0 58 13.5 107.5t49.5 97.5t93 81t148.5 53.5t211.5 20.5h170v4q0 125 -60 174.5t-178 49.5q-174 0 -325 -115l-9 235q77 35 176 57.5t191 22.5q238 0 346.5 -104t108.5 -340
v-217q0 -230 16 -418zM760 475v12h-121q-303 0 -303 -182q0 -62 45.5 -95.5t128.5 -33.5q103 0 176.5 74.5t73.5 224.5zM899 1161h-182l-139 176l-144 -176h-182l225 299h207z" />
    <glyph glyph-name="atilde" unicode="&#xe3;" 
d="M1026 0h-242q-7 32 -12 158h-4q-45 -83 -135.5 -133t-190.5 -50q-151 0 -259.5 86t-108.5 230q0 58 13.5 107.5t49.5 97.5t93 81t148.5 53.5t211.5 20.5h170v4q0 125 -60 174.5t-178 49.5q-174 0 -325 -115l-9 235q77 35 176 57.5t191 22.5q238 0 346.5 -104t108.5 -340
v-217q0 -230 16 -418zM760 475v12h-121q-303 0 -303 -182q0 -62 45.5 -95.5t128.5 -33.5q103 0 176.5 74.5t73.5 224.5zM825 1442h111q0 -110 -55 -179t-144 -69q-65 0 -124 19t-106.5 38t-84.5 19q-47 0 -73.5 -27t-26.5 -63h-111q2 101 63 174t146 73q68 0 170 -43
t145 -43q45 0 67.5 29t22.5 72z" />
    <glyph glyph-name="adieresis" unicode="&#xe4;" 
d="M1026 0h-242q-7 32 -12 158h-4q-45 -83 -135.5 -133t-190.5 -50q-151 0 -259.5 86t-108.5 230q0 58 13.5 107.5t49.5 97.5t93 81t148.5 53.5t211.5 20.5h170v4q0 125 -60 174.5t-178 49.5q-174 0 -325 -115l-9 235q77 35 176 57.5t191 22.5q238 0 346.5 -104t108.5 -340
v-217q0 -230 16 -418zM760 475v12h-121q-303 0 -303 -182q0 -62 45.5 -95.5t128.5 -33.5q103 0 176.5 74.5t73.5 224.5zM483 1192h-237v238h237v-238zM905 1192h-237v238h237v-238z" />
    <glyph glyph-name="aring" unicode="&#xe5;" 
d="M1026 0h-242q-7 32 -12 158h-4q-45 -83 -135.5 -133t-190.5 -50q-151 0 -259.5 86t-108.5 230q0 58 13.5 107.5t49.5 97.5t93 81t148.5 53.5t211.5 20.5h170v4q0 125 -60 174.5t-178 49.5q-174 0 -325 -115l-9 235q77 35 176 57.5t191 22.5q238 0 346.5 -104t108.5 -340
v-217q0 -230 16 -418zM760 475v12h-121q-303 0 -303 -182q0 -62 45.5 -95.5t128.5 -33.5q103 0 176.5 74.5t73.5 224.5zM582 1151q-91 0 -155.5 64t-64.5 153q0 90 65.5 154.5t154.5 64.5q91 0 154 -65t63 -154q0 -91 -63 -154t-154 -63zM688 1368q0 46 -31 77.5t-75 31.5
q-45 0 -77 -31t-32 -78q0 -44 31.5 -75t77.5 -31q44 0 75 31t31 75z" />
    <glyph glyph-name="ae" unicode="&#xe6;" horiz-adv-x="1820" 
d="M1675 283v-224q-153 -84 -360 -84q-312 0 -445 191q-57 -91 -159 -141t-228 -50q-187 0 -298 81.5t-111 232.5q0 177 138 269.5t398 92.5h150q0 122 -58 176t-186 54q-172 0 -326 -117l-8 235q175 80 389 80q75 0 132 -10.5t97 -32.5t62.5 -40t52.5 -50q127 133 361 133
q233 0 352 -160.5t119 -476.5h-725q0 -123 85 -194.5t218 -71.5q159 0 350 107zM1022 631h463q-2 116 -58.5 182t-158.5 66q-110 0 -178 -67.5t-68 -180.5zM760 487h-117q-143 0 -225 -50t-82 -146q0 -51 42.5 -83t115.5 -32q139 0 202.5 73t63.5 238z" />
    <glyph glyph-name="ccedilla" unicode="&#xe7;" horiz-adv-x="909" 
d="M324 -412l41 111q6 -2 23.5 -7.5t28 -8.5t27 -7t32.5 -6t32 -2q50 0 79 18.5t29 53.5t-24 54.5t-66 19.5q-34 0 -86 -19l-30 53l106 134q-211 21 -326.5 168t-115.5 382q0 113 33 211.5t95.5 174t161.5 118.5t222 43q148 0 264 -35l-25 -217q-83 39 -184 39
q-129 0 -205 -91.5t-76 -242.5q0 -159 75.5 -251.5t209.5 -92.5q98 0 211 50l12 -228q-103 -30 -227 -33l-76 -86l4 -4q63 13 84 13q64 0 114 -36t50 -108q0 -97 -69.5 -154t-190.5 -57q-145 0 -233 43z" />
    <glyph glyph-name="egrave" unicode="&#xe8;" 
d="M987 283v-224q-153 -84 -360 -84q-262 0 -407.5 143.5t-145.5 403.5q0 113 30 212t88 177t153.5 123t217.5 45q263 0 382.5 -159t119.5 -478h-729q9 -125 89.5 -195.5t213.5 -70.5q157 0 348 107zM336 631h467q-8 117 -64 182.5t-161 65.5q-103 0 -167.5 -65t-74.5 -183z
M709 1161h-170l-281 299h281z" />
    <glyph glyph-name="eacute" unicode="&#xe9;" 
d="M987 283v-224q-153 -84 -360 -84q-262 0 -407.5 143.5t-145.5 403.5q0 113 30 212t88 177t153.5 123t217.5 45q263 0 382.5 -159t119.5 -478h-729q9 -125 89.5 -195.5t213.5 -70.5q157 0 348 107zM336 631h467q-8 117 -64 182.5t-161 65.5q-103 0 -167.5 -65t-74.5 -183z
M600 1161h-170l170 299h281z" />
    <glyph glyph-name="ecircumflex" unicode="&#xea;" 
d="M987 283v-224q-153 -84 -360 -84q-262 0 -407.5 143.5t-145.5 403.5q0 113 30 212t88 177t153.5 123t217.5 45q263 0 382.5 -159t119.5 -478h-729q9 -125 89.5 -195.5t213.5 -70.5q157 0 348 107zM336 631h467q-8 117 -64 182.5t-161 65.5q-103 0 -167.5 -65t-74.5 -183z
M899 1161h-182l-139 176l-144 -176h-182l225 299h207z" />
    <glyph glyph-name="edieresis" unicode="&#xeb;" 
d="M987 283v-224q-153 -84 -360 -84q-262 0 -407.5 143.5t-145.5 403.5q0 113 30 212t88 177t153.5 123t217.5 45q263 0 382.5 -159t119.5 -478h-729q9 -125 89.5 -195.5t213.5 -70.5q157 0 348 107zM336 631h467q-8 117 -64 182.5t-161 65.5q-103 0 -167.5 -65t-74.5 -183z
M483 1192h-237v238h237v-238zM905 1192h-237v238h237v-238z" />
    <glyph glyph-name="igrave" unicode="&#xec;" horiz-adv-x="569" 
d="M422 0h-275v1055h275v-1055zM418 1161h-170l-281 299h281z" />
    <glyph glyph-name="iacute" unicode="&#xed;" horiz-adv-x="569" 
d="M422 0h-275v1055h275v-1055zM303 1161h-170l170 299h281z" />
    <glyph glyph-name="icircumflex" unicode="&#xee;" horiz-adv-x="569" 
d="M422 0h-275v1055h275v-1055zM608 1161h-182l-139 176l-144 -176h-182l225 299h207z" />
    <glyph glyph-name="idieresis" unicode="&#xef;" horiz-adv-x="569" 
d="M422 0h-275v1055h275v-1055zM193 1192h-238v238h238v-238zM614 1192h-237v238h237v-238z" />
    <glyph glyph-name="eth" unicode="&#xf0;" horiz-adv-x="1251" 
d="M803 989h4q-63 138 -217 254l-189 -123l-104 97l170 110q-97 61 -203 98l125 140q141 -52 260 -121l189 121l104 -97l-170 -108q197 -152 298 -350.5t101 -431.5q0 -290 -141.5 -446.5t-404.5 -156.5q-246 0 -398.5 150.5t-152.5 402.5q0 230 133 378.5t346 148.5
q149 0 250 -66zM627 188q88 0 148 47.5t85 118t25 158.5q0 56 -14.5 111.5t-43.5 106t-81 81.5t-119 31q-122 0 -194.5 -99.5t-72.5 -228.5q0 -61 15 -117t45.5 -104t84 -76.5t122.5 -28.5z" />
    <glyph glyph-name="ntilde" unicode="&#xf1;" horiz-adv-x="1251" 
d="M1110 0h-274v592q0 132 -39 203t-140 71q-83 0 -139 -51t-79 -128t-23 -175v-512h-275v1055h260v-144h5q119 168 346 168q177 0 267.5 -110.5t90.5 -302.5v-666zM883 1442h110q0 -111 -54.5 -179.5t-143.5 -68.5q-65 0 -124.5 19t-107 38t-84.5 19q-47 0 -73.5 -27
t-26.5 -63h-111q2 101 63 174t146 73q68 0 170.5 -43t145.5 -43q45 0 67.5 29t22.5 72z" />
    <glyph glyph-name="ograve" unicode="&#xf2;" horiz-adv-x="1251" 
d="M1178 520q0 -239 -151 -392t-402 -153q-166 0 -292.5 71.5t-192.5 194.5t-66 279q0 252 154 405.5t397 153.5q244 0 398.5 -153.5t154.5 -405.5zM625 188q131 0 198.5 96t67.5 269q0 133 -70 223t-196 90q-124 0 -194.5 -91t-70.5 -222q0 -171 67 -268t198 -97zM768 1161
h-170l-281 299h281z" />
    <glyph glyph-name="oacute" unicode="&#xf3;" horiz-adv-x="1251" 
d="M1178 520q0 -239 -151 -392t-402 -153q-166 0 -292.5 71.5t-192.5 194.5t-66 279q0 252 154 405.5t397 153.5q244 0 398.5 -153.5t154.5 -405.5zM625 188q131 0 198.5 96t67.5 269q0 133 -70 223t-196 90q-124 0 -194.5 -91t-70.5 -222q0 -171 67 -268t198 -97zM657 1161
h-170l170 299h281z" />
    <glyph glyph-name="ocircumflex" unicode="&#xf4;" horiz-adv-x="1251" 
d="M1178 520q0 -239 -151 -392t-402 -153q-166 0 -292.5 71.5t-192.5 194.5t-66 279q0 252 154 405.5t397 153.5q244 0 398.5 -153.5t154.5 -405.5zM625 188q131 0 198.5 96t67.5 269q0 133 -70 223t-196 90q-124 0 -194.5 -91t-70.5 -222q0 -171 67 -268t198 -97zM956 1161
h-182l-139 176l-143 -176h-183l226 299h206z" />
    <glyph glyph-name="otilde" unicode="&#xf5;" horiz-adv-x="1251" 
d="M1178 520q0 -239 -151 -392t-402 -153q-166 0 -292.5 71.5t-192.5 194.5t-66 279q0 252 154 405.5t397 153.5q244 0 398.5 -153.5t154.5 -405.5zM625 188q131 0 198.5 96t67.5 269q0 133 -70 223t-196 90q-124 0 -194.5 -91t-70.5 -222q0 -171 67 -268t198 -97zM883 1442
h110q0 -111 -54.5 -179.5t-143.5 -68.5q-65 0 -124.5 19t-107 38t-84.5 19q-47 0 -73.5 -27t-26.5 -63h-111q2 101 63 174t146 73q68 0 170.5 -43t145.5 -43q45 0 67.5 29t22.5 72z" />
    <glyph glyph-name="odieresis" unicode="&#xf6;" horiz-adv-x="1251" 
d="M1178 520q0 -239 -151 -392t-402 -153q-166 0 -292.5 71.5t-192.5 194.5t-66 279q0 252 154 405.5t397 153.5q244 0 398.5 -153.5t154.5 -405.5zM625 188q131 0 198.5 96t67.5 269q0 133 -70 223t-196 90q-124 0 -194.5 -91t-70.5 -222q0 -171 67 -268t198 -97zM541 1192
h-238v238h238v-238zM963 1192h-238v238h238v-238z" />
    <glyph glyph-name="divide" unicode="&#xf7;" horiz-adv-x="1228" 
d="M614 768q-70 0 -113.5 44.5t-43.5 113.5t43 113t114 44t114.5 -44.5t43.5 -112.5q0 -69 -43.5 -113.5t-114.5 -44.5zM1135 412h-1041v213h1041v-213zM614 -47q-71 0 -114 44.5t-43 113.5t43 113t114 44t114.5 -44.5t43.5 -112.5q0 -69 -43.5 -113.5t-114.5 -44.5z" />
    <glyph glyph-name="oslash" unicode="&#xf8;" horiz-adv-x="1251" 
d="M190 -72l-84 68l115 137q-147 147 -147 387q0 172 74.5 300.5t198.5 193.5t278 65q174 0 315 -86l111 133l82 -67l-111 -133q156 -153 156 -406q0 -240 -152 -392.5t-401 -152.5q-181 0 -322 88zM397 344l389 467q-65 55 -161 55q-123 0 -194 -90.5t-71 -222.5
q0 -125 37 -209zM854 725l-395 -475q65 -62 166 -62q129 0 197.5 95t68.5 270q0 97 -37 172z" />
    <glyph glyph-name="ugrave" unicode="&#xf9;" horiz-adv-x="1251" 
d="M1110 0h-260v143h-4q-139 -168 -346 -168q-174 0 -266.5 109.5t-92.5 304.5v666h275v-602q0 -147 47 -206t131 -59q120 0 181 98.5t61 258.5v510h274v-1055zM766 1161h-170l-281 299h281z" />
    <glyph glyph-name="uacute" unicode="&#xfa;" horiz-adv-x="1251" 
d="M1110 0h-260v143h-4q-139 -168 -346 -168q-174 0 -266.5 109.5t-92.5 304.5v666h275v-602q0 -147 47 -206t131 -59q120 0 181 98.5t61 258.5v510h274v-1055zM655 1161h-170l170 299h281z" />
    <glyph glyph-name="ucircumflex" unicode="&#xfb;" horiz-adv-x="1251" 
d="M1110 0h-260v143h-4q-139 -168 -346 -168q-174 0 -266.5 109.5t-92.5 304.5v666h275v-602q0 -147 47 -206t131 -59q120 0 181 98.5t61 258.5v510h274v-1055zM954 1161h-182l-139 176l-144 -176h-182l225 299h207z" />
    <glyph glyph-name="udieresis" unicode="&#xfc;" horiz-adv-x="1251" 
d="M1110 0h-260v143h-4q-139 -168 -346 -168q-174 0 -266.5 109.5t-92.5 304.5v666h275v-602q0 -147 47 -206t131 -59q120 0 181 98.5t61 258.5v510h274v-1055zM539 1192h-238v238h238v-238zM961 1192h-238v238h238v-238z" />
    <glyph glyph-name="yacute" unicode="&#xfd;" 
d="M88 -426l18 203q56 -19 140 -19q85 0 132.5 52.5t47.5 136.5l-403 1108h303l254 -770h4l254 770h278l-442 -1172q-33 -85 -65 -142t-77.5 -104t-108 -69.5t-144.5 -22.5q-89 0 -191 29zM600 1161h-170l170 299h281z" />
    <glyph glyph-name="thorn" unicode="&#xfe;" horiz-adv-x="1251" 
d="M416 -430h-275v1966h275v-618h4q47 78 128.5 119.5t186.5 41.5q218 0 330.5 -148t112.5 -401q0 -121 -27 -221t-80.5 -175t-139 -117t-196.5 -42q-206 0 -315 144h-4v-549zM659 188q63 0 110.5 31.5t72.5 84t37 109t12 117.5q0 48 -6.5 93t-23.5 90t-42 78t-65 54t-90 21
q-81 0 -139 -53t-82.5 -127t-24.5 -156q0 -63 13.5 -121.5t40.5 -109t75.5 -81t111.5 -30.5z" />
    <glyph glyph-name="ydieresis" unicode="&#xff;" 
d="M88 -426l18 203q56 -19 140 -19q85 0 132.5 52.5t47.5 136.5l-403 1108h303l254 -770h4l254 770h278l-442 -1172q-33 -85 -65 -142t-77.5 -104t-108 -69.5t-144.5 -22.5q-89 0 -191 29zM485 1192h-237v238h237v-238zM907 1192h-237v238h237v-238z" />
    <glyph glyph-name="Amacron" unicode="&#x100;" horiz-adv-x="1478" 
d="M1460 0h-317l-123 328h-580l-125 -328h-297l557 1430h324zM940 553l-207 590h-4l-207 -590h418zM1036 1583h-590v164h590v-164z" />
    <glyph glyph-name="amacron" unicode="&#x101;" 
d="M1026 0h-242q-7 32 -12 158h-4q-45 -83 -135.5 -133t-190.5 -50q-151 0 -259.5 86t-108.5 230q0 58 13.5 107.5t49.5 97.5t93 81t148.5 53.5t211.5 20.5h170v4q0 125 -60 174.5t-178 49.5q-174 0 -325 -115l-9 235q77 35 176 57.5t191 22.5q238 0 346.5 -104t108.5 -340
v-217q0 -230 16 -418zM760 475v12h-121q-303 0 -303 -182q0 -62 45.5 -95.5t128.5 -33.5q103 0 176.5 74.5t73.5 224.5zM870 1229h-589v164h589v-164z" />
    <glyph glyph-name="Abreve" unicode="&#x102;" horiz-adv-x="1478" 
d="M1460 0h-317l-123 328h-580l-125 -328h-297l557 1430h324zM940 553l-207 590h-4l-207 -590h418zM946 1827h127q-8 -137 -101 -224t-235 -87q-139 0 -231 87.5t-100 223.5h126q40 -164 205 -164q168 0 209 164z" />
    <glyph glyph-name="abreve" unicode="&#x103;" 
d="M1026 0h-242q-7 32 -12 158h-4q-45 -83 -135.5 -133t-190.5 -50q-151 0 -259.5 86t-108.5 230q0 58 13.5 107.5t49.5 97.5t93 81t148.5 53.5t211.5 20.5h170v4q0 125 -60 174.5t-178 49.5q-174 0 -325 -115l-9 235q77 35 176 57.5t191 22.5q238 0 346.5 -104t108.5 -340
v-217q0 -230 16 -418zM760 475v12h-121q-303 0 -303 -182q0 -62 45.5 -95.5t128.5 -33.5q103 0 176.5 74.5t73.5 224.5zM776 1473h127q-9 -137 -103 -224.5t-233 -87.5q-138 0 -231.5 88t-99.5 224h126q17 -78 70.5 -121t134.5 -43t135.5 43t73.5 121z" />
    <glyph glyph-name="Aogonek" unicode="&#x104;" horiz-adv-x="1478" 
d="M1309 -276l82 -17q-36 -83 -96.5 -122.5t-157.5 -39.5q-93 0 -148 47t-55 136q0 69 55.5 135t190.5 137h-37l-123 328h-580l-125 -328h-297l557 1430h324l561 -1430h-180q-99 -76 -134.5 -135t-35.5 -121q0 -88 84 -88q33 0 65.5 22t49.5 46zM940 553l-207 590h-4
l-207 -590h418z" />
    <glyph glyph-name="aogonek" unicode="&#x105;" 
d="M973 -276l82 -17q-36 -82 -96 -122t-158 -40q-97 0 -150 49t-53 136q0 143 246 270h-60q-12 82 -12 158h-4q-45 -84 -136.5 -133.5t-189.5 -49.5q-151 0 -259.5 87t-108.5 229q0 360 526 360h160v2q0 115 -52.5 170.5t-185.5 55.5q-87 0 -173 -30.5t-152 -84.5l-9 235
q77 35 176 57.5t195 22.5q126 0 215.5 -31.5t140 -92t73 -137t22.5 -177.5v-78q0 -360 16 -563h-82q-94 -72 -132 -131.5t-38 -122.5q0 -90 82 -90q31 0 63 20t54 48zM760 475v12h-135q-141 0 -215 -46.5t-74 -135.5q0 -59 44 -94t128 -35q57 0 102.5 19.5t72.5 50.5t45 72
t25 79.5t7 77.5z" />
    <glyph glyph-name="Cacute" unicode="&#x106;" horiz-adv-x="1251" 
d="M1194 260l12 -240q-191 -45 -325 -45q-370 0 -577.5 186t-207.5 529q0 361 207.5 562.5t577.5 201.5q175 0 323 -59l-20 -242q-134 76 -310 76q-142 0 -251.5 -67t-168.5 -184.5t-59 -266.5q0 -228 132.5 -369t353.5 -141q81 0 170 15.5t143 43.5zM842 1516h-170l170 299
h280z" />
    <glyph glyph-name="cacute" unicode="&#x107;" horiz-adv-x="909" 
d="M856 238l12 -228q-115 -35 -272 -35q-246 0 -384 149t-138 408q0 158 59.5 281t177 194.5t275.5 71.5q148 0 264 -35l-25 -217q-83 39 -184 39q-128 0 -204.5 -92t-76.5 -242q0 -157 75 -250.5t210 -93.5q95 0 211 50zM610 1161h-170l170 299h281z" />
    <glyph glyph-name="Ccircumflex" unicode="&#x108;" horiz-adv-x="1251" 
d="M1194 260l12 -240q-191 -45 -325 -45q-370 0 -577.5 186t-207.5 529q0 361 207.5 562.5t577.5 201.5q175 0 323 -59l-20 -242q-134 76 -310 76q-142 0 -251.5 -67t-168.5 -184.5t-59 -266.5q0 -228 132.5 -369t353.5 -141q81 0 170 15.5t143 43.5zM1122 1516h-182
l-139 176l-144 -176h-182l225 299h207z" />
    <glyph glyph-name="ccircumflex" unicode="&#x109;" horiz-adv-x="909" 
d="M856 238l12 -228q-115 -35 -272 -35q-246 0 -384 149t-138 408q0 158 59.5 281t177 194.5t275.5 71.5q148 0 264 -35l-25 -217q-83 39 -184 39q-128 0 -204.5 -92t-76.5 -242q0 -157 75 -250.5t210 -93.5q95 0 211 50zM889 1161h-182l-140 176l-143 -176h-182l225 299
h207z" />
    <glyph glyph-name="Cdotaccent" unicode="&#x10a;" horiz-adv-x="1251" 
d="M1194 260l12 -240q-191 -45 -325 -45q-370 0 -577.5 186t-207.5 529q0 361 207.5 562.5t577.5 201.5q175 0 323 -59l-20 -242q-134 76 -310 76q-142 0 -251.5 -67t-168.5 -184.5t-59 -266.5q0 -228 132.5 -369t353.5 -141q81 0 170 15.5t143 43.5zM918 1546h-238v238h238
v-238z" />
    <glyph glyph-name="cdotaccent" unicode="&#x10b;" horiz-adv-x="909" 
d="M856 238l12 -228q-115 -35 -272 -35q-246 0 -384 149t-138 408q0 158 59.5 281t177 194.5t275.5 71.5q148 0 264 -35l-25 -217q-83 39 -184 39q-128 0 -204.5 -92t-76.5 -242q0 -157 75 -250.5t210 -93.5q95 0 211 50zM684 1192h-238v238h238v-238z" />
    <glyph glyph-name="Ccaron" unicode="&#x10c;" horiz-adv-x="1251" 
d="M1194 260l12 -240q-191 -45 -325 -45q-370 0 -577.5 186t-207.5 529q0 361 207.5 562.5t577.5 201.5q175 0 323 -59l-20 -242q-134 76 -310 76q-142 0 -251.5 -67t-168.5 -184.5t-59 -266.5q0 -228 132.5 -369t353.5 -141q81 0 170 15.5t143 43.5zM907 1516h-207
l-225 299h182l144 -177l139 177h182z" />
    <glyph glyph-name="ccaron" unicode="&#x10d;" horiz-adv-x="909" 
d="M856 238l12 -228q-115 -35 -272 -35q-246 0 -384 149t-138 408q0 158 59.5 281t177 194.5t275.5 71.5q148 0 264 -35l-25 -217q-83 39 -184 39q-128 0 -204.5 -92t-76.5 -242q0 -157 75 -250.5t210 -93.5q95 0 211 50zM674 1161h-207l-225 299h182l143 -176l140 176h182z
" />
    <glyph glyph-name="Dcaron" unicode="&#x10e;" horiz-adv-x="1478" 
d="M563 0h-397v1430h395q821 0 821 -715t-819 -715zM453 225h161q91 0 175 33.5t149.5 95t105 155.5t39.5 206q0 142 -63 254t-171.5 173.5t-242.5 61.5h-153v-979zM772 1516h-207l-225 299h182l144 -177l139 177h182z" />
    <glyph glyph-name="dcaron" unicode="&#x10f;" horiz-adv-x="1409" 
d="M1110 0h-266v119h-4q-116 -144 -324 -144q-117 0 -204.5 45t-138 123.5t-75 175.5t-24.5 211q0 163 46.5 284.5t147.5 193t248 71.5q102 0 177.5 -35.5t137.5 -111.5h5v604h274v-1536zM592 188q64 0 113 31t76 82.5t40 109.5t13 119q0 58 -14 115t-42.5 107.5t-77.5 82
t-112 31.5q-60 0 -105.5 -29t-71.5 -78t-38.5 -107t-12.5 -122q0 -61 12 -117.5t37 -109t72.5 -84t110.5 -31.5zM1372 1090h-151l32 407h236z" />
    <glyph glyph-name="Dcroat" unicode="&#x110;" horiz-adv-x="1478" 
d="M563 0h-397v688h-131v176h131v566h395q821 0 821 -715t-819 -715zM453 225h161q91 0 175 33.5t149.5 95t105 155.5t39.5 206q0 142 -63 254t-171.5 173.5t-242.5 61.5h-153v-340h299v-176h-299v-463z" />
    <glyph glyph-name="dcroat" unicode="&#x111;" horiz-adv-x="1251" 
d="M1110 0h-266v119h-4q-116 -144 -324 -144q-117 0 -204.5 45t-138 123.5t-75 175.5t-24.5 211q0 163 46.5 284.5t147.5 193t248 71.5q102 0 177.5 -35.5t137.5 -111.5h5v289h-342v149h342v166h274v-166h176v-149h-176v-1221zM592 188q64 0 113 31t76 82.5t40 109.5t13 119
q0 58 -14 115t-42.5 107.5t-77.5 82t-112 31.5q-60 0 -105.5 -29t-71.5 -78t-38.5 -107t-12.5 -122q0 -61 12 -117.5t37 -109t72.5 -84t110.5 -31.5z" />
    <glyph glyph-name="Emacron" unicode="&#x112;" 
d="M1014 0h-848v1430h844v-226h-557v-352h510v-225h-510v-402h561v-225zM887 1583h-590v164h590v-164z" />
    <glyph glyph-name="emacron" unicode="&#x113;" 
d="M987 283v-224q-153 -84 -360 -84q-262 0 -407.5 143.5t-145.5 403.5q0 113 30 212t88 177t153.5 123t217.5 45q263 0 382.5 -159t119.5 -478h-729q9 -125 89.5 -195.5t213.5 -70.5q157 0 348 107zM336 631h467q-8 117 -64 182.5t-161 65.5q-103 0 -167.5 -65t-74.5 -183z
M881 1229h-590v164h590v-164z" />
    <glyph glyph-name="Ebreve" unicode="&#x114;" 
d="M1014 0h-848v1430h844v-226h-557v-352h510v-225h-510v-402h561v-225zM799 1827h127q-8 -137 -101 -224t-235 -87q-139 0 -231.5 87.5t-100.5 223.5h127q40 -164 205 -164q168 0 209 164z" />
    <glyph glyph-name="ebreve" unicode="&#x115;" 
d="M987 283v-224q-153 -84 -360 -84q-262 0 -407.5 143.5t-145.5 403.5q0 113 30 212t88 177t153.5 123t217.5 45q263 0 382.5 -159t119.5 -478h-729q9 -125 89.5 -195.5t213.5 -70.5q157 0 348 107zM336 631h467q-8 117 -64 182.5t-161 65.5q-103 0 -167.5 -65t-74.5 -183z
M776 1473h127q-9 -137 -103 -224.5t-233 -87.5q-138 0 -231.5 88t-99.5 224h126q17 -78 70.5 -121t134.5 -43t135.5 43t73.5 121z" />
    <glyph glyph-name="Edotaccent" unicode="&#x116;" 
d="M1014 0h-848v1430h844v-226h-557v-352h510v-225h-510v-402h561v-225zM723 1546h-238v238h238v-238z" />
    <glyph glyph-name="edotaccent" unicode="&#x117;" 
d="M987 283v-224q-153 -84 -360 -84q-262 0 -407.5 143.5t-145.5 403.5q0 113 30 212t88 177t153.5 123t217.5 45q263 0 382.5 -159t119.5 -478h-729q9 -125 89.5 -195.5t213.5 -70.5q157 0 348 107zM336 631h467q-8 117 -64 182.5t-161 65.5q-103 0 -167.5 -65t-74.5 -183z
M713 1192h-238v238h238v-238z" />
    <glyph glyph-name="Eogonek" unicode="&#x118;" 
d="M936 -276l82 -17q-37 -85 -96.5 -123.5t-157.5 -38.5q-93 0 -148 47t-55 136q0 73 56 136.5t190 135.5h-641v1430h844v-226h-557v-352h510v-225h-510v-402h561v-225h-107q-97 -74 -133.5 -133t-36.5 -123q0 -88 84 -88q34 0 67 23.5t48 44.5z" />
    <glyph glyph-name="eogonek" unicode="&#x119;" 
d="M741 -276l82 -17q-36 -82 -96 -122t-158 -40q-38 0 -71.5 9t-64 29t-48.5 57.5t-18 89.5q0 67 48.5 126t153.5 121q-98 7 -176.5 32.5t-131.5 66.5t-90.5 91t-58 112t-29.5 121t-9 126q0 47 5.5 94.5t21 103t39 105t62.5 96t89 80t121.5 54t156.5 20.5q258 0 377 -156
t119 -481h-729q7 -127 93.5 -196.5t209.5 -69.5q161 0 348 107v-224q-131 -72 -305 -82q-139 -115 -139 -229q0 -92 84 -92q60 0 114 68zM336 631h467q-2 48 -14 89.5t-36.5 78.5t-69.5 58.5t-105 21.5q-103 0 -167.5 -65t-74.5 -183z" />
    <glyph glyph-name="Ecaron" unicode="&#x11a;" 
d="M1014 0h-848v1430h844v-226h-557v-352h510v-225h-510v-402h561v-225zM698 1516h-206l-226 299h183l143 -177l139 177h182z" />
    <glyph glyph-name="ecaron" unicode="&#x11b;" 
d="M987 283v-224q-153 -84 -360 -84q-262 0 -407.5 143.5t-145.5 403.5q0 113 30 212t88 177t153.5 123t217.5 45q263 0 382.5 -159t119.5 -478h-729q9 -125 89.5 -195.5t213.5 -70.5q157 0 348 107zM336 631h467q-8 117 -64 182.5t-161 65.5q-103 0 -167.5 -65t-74.5 -183z
M690 1161h-207l-225 299h182l144 -176l139 176h182z" />
    <glyph glyph-name="Gcircumflex" unicode="&#x11c;" horiz-adv-x="1478" 
d="M1069 221v373h-303v225h577v-770q-274 -74 -462 -74q-369 0 -577 186t-208 529q0 359 207 561.5t580 202.5q221 0 417 -59l-18 -242q-168 76 -369 76q-237 0 -377.5 -143t-140.5 -375q0 -228 133 -369t355 -141q104 0 186 20zM1161 1516h-182l-139 176l-144 -176h-182
l225 299h207z" />
    <glyph glyph-name="gcircumflex" unicode="&#x11d;" horiz-adv-x="1251" 
d="M836 143v25h-5q-44 -76 -133.5 -122t-193.5 -46q-211 0 -320.5 144.5t-109.5 387.5q0 79 16 155t51 147.5t85.5 125.5t126.5 86.5t167 32.5q218 0 324 -168h4v144h262v-957q0 -269 -139.5 -411t-413.5 -142q-198 0 -369 72l23 233q74 -39 161.5 -65.5t147.5 -26.5
q94 0 158 28.5t97.5 83t47 120t13.5 153.5zM594 213q64 0 112 26.5t75.5 73t41 103.5t13.5 123q0 51 -7 96.5t-24.5 88.5t-43.5 74t-66.5 49.5t-90.5 18.5q-119 0 -181.5 -91.5t-62.5 -242.5q0 -76 24.5 -146.5t79.5 -121.5t130 -51zM954 1161h-182l-139 176l-144 -176h-182
l225 299h207z" />
    <glyph glyph-name="Gbreve" unicode="&#x11e;" horiz-adv-x="1478" 
d="M1069 221v373h-303v225h577v-770q-274 -74 -462 -74q-369 0 -577 186t-208 529q0 359 207 561.5t580 202.5q221 0 417 -59l-18 -242q-168 76 -369 76q-237 0 -377.5 -143t-140.5 -375q0 -228 133 -369t355 -141q104 0 186 20zM1044 1827h127q-8 -137 -100.5 -224
t-234.5 -87q-139 0 -231.5 87.5t-100.5 223.5h127q40 -164 205 -164q167 0 208 164z" />
    <glyph glyph-name="gbreve" unicode="&#x11f;" horiz-adv-x="1251" 
d="M836 143v25h-5q-44 -76 -133.5 -122t-193.5 -46q-211 0 -320.5 144.5t-109.5 387.5q0 79 16 155t51 147.5t85.5 125.5t126.5 86.5t167 32.5q218 0 324 -168h4v144h262v-957q0 -269 -139.5 -411t-413.5 -142q-198 0 -369 72l23 233q74 -39 161.5 -65.5t147.5 -26.5
q94 0 158 28.5t97.5 83t47 120t13.5 153.5zM594 213q64 0 112 26.5t75.5 73t41 103.5t13.5 123q0 51 -7 96.5t-24.5 88.5t-43.5 74t-66.5 49.5t-90.5 18.5q-119 0 -181.5 -91.5t-62.5 -242.5q0 -76 24.5 -146.5t79.5 -121.5t130 -51zM838 1473h127q-9 -137 -103 -224.5
t-233 -87.5q-138 0 -232 88t-100 224h127q17 -78 70.5 -121t134.5 -43t135.5 43t73.5 121z" />
    <glyph glyph-name="Gdotaccent" unicode="&#x120;" horiz-adv-x="1478" 
d="M1069 221v373h-303v225h577v-770q-274 -74 -462 -74q-369 0 -577 186t-208 529q0 359 207 561.5t580 202.5q221 0 417 -59l-18 -242q-168 76 -369 76q-237 0 -377.5 -143t-140.5 -375q0 -228 133 -369t355 -141q104 0 186 20zM956 1546h-237v238h237v-238z" />
    <glyph glyph-name="gdotaccent" unicode="&#x121;" horiz-adv-x="1251" 
d="M836 143v25h-5q-44 -76 -133.5 -122t-193.5 -46q-211 0 -320.5 144.5t-109.5 387.5q0 79 16 155t51 147.5t85.5 125.5t126.5 86.5t167 32.5q218 0 324 -168h4v144h262v-957q0 -269 -139.5 -411t-413.5 -142q-198 0 -369 72l23 233q74 -39 161.5 -65.5t147.5 -26.5
q94 0 158 28.5t97.5 83t47 120t13.5 153.5zM594 213q64 0 112 26.5t75.5 73t41 103.5t13.5 123q0 51 -7 96.5t-24.5 88.5t-43.5 74t-66.5 49.5t-90.5 18.5q-119 0 -181.5 -91.5t-62.5 -242.5q0 -76 24.5 -146.5t79.5 -121.5t130 -51zM750 1192h-238v238h238v-238z" />
    <glyph glyph-name="Gcommaaccent" unicode="&#x122;" horiz-adv-x="1478" 
d="M1069 221v373h-303v225h577v-770q-274 -74 -462 -74q-369 0 -577 186t-208 529q0 359 207 561.5t580 202.5q221 0 417 -59l-18 -242q-168 76 -369 76q-237 0 -377.5 -143t-140.5 -375q0 -228 133 -369t355 -141q104 0 186 20zM879 -455h-205l76 320h260z" />
    <glyph glyph-name="gcommaaccent" unicode="&#x123;" horiz-adv-x="1251" 
d="M836 143v25h-5q-44 -76 -133.5 -122t-193.5 -46q-211 0 -320.5 144.5t-109.5 387.5q0 79 16 155t51 147.5t85.5 125.5t126.5 86.5t167 32.5q218 0 324 -168h4v144h262v-957q0 -269 -139.5 -411t-413.5 -142q-198 0 -369 72l23 233q74 -39 161.5 -65.5t147.5 -26.5
q94 0 158 28.5t97.5 83t47 120t13.5 153.5zM594 213q64 0 112 26.5t75.5 73t41 103.5t13.5 123q0 51 -7 96.5t-24.5 88.5t-43.5 74t-66.5 49.5t-90.5 18.5q-119 0 -181.5 -91.5t-62.5 -242.5q0 -76 24.5 -146.5t79.5 -121.5t130 -51zM735 1198h-250l125 299h199z" />
    <glyph glyph-name="Hcircumflex" unicode="&#x124;" horiz-adv-x="1478" 
d="M1313 0h-287v627h-573v-627h-287v1430h287v-578h573v578h287v-1430zM1061 1516h-182l-140 176l-143 -176h-182l225 299h207z" />
    <glyph glyph-name="hcircumflex" unicode="&#x125;" horiz-adv-x="1251" 
d="M1110 0h-274v596q0 143 -43.5 206.5t-135.5 63.5q-118 0 -179.5 -97t-61.5 -259v-510h-275v1536h275v-625h4q53 77 139.5 122.5t192.5 45.5q177 0 267.5 -111t90.5 -300v-668zM950 1597h-182l-139 177l-144 -177h-182l225 299h207z" />
    <glyph glyph-name="Hbar" unicode="&#x126;" horiz-adv-x="1478" 
d="M1313 0h-287v565h-573v-565h-287v1010h-135v168h135v252h287v-252h573v252h287v-252h135v-168h-135v-1010zM1026 772v238h-573v-238h573z" />
    <glyph glyph-name="hbar" unicode="&#x127;" horiz-adv-x="1251" 
d="M1110 0h-274v596q0 143 -43.5 206.5t-135.5 63.5q-118 0 -179.5 -97t-61.5 -259v-510h-275v1221h-176v149h176v166h275v-166h342v-149h-342v-310h4q53 77 139.5 122.5t192.5 45.5q177 0 267.5 -111t90.5 -300v-668z" />
    <glyph glyph-name="Itilde" unicode="&#x128;" horiz-adv-x="569" 
d="M428 0h-287v1430h287v-1430zM535 1796h110q0 -110 -55 -179t-144 -69q-65 0 -124 19t-106.5 38t-84.5 19q-47 0 -73.5 -27t-26.5 -63h-111q2 102 63 175t146 73q68 0 170 -43t145 -43q45 0 68 28.5t23 71.5z" />
    <glyph glyph-name="itilde" unicode="&#x129;" horiz-adv-x="569" 
d="M422 0h-275v1055h275v-1055zM537 1442h110q0 -111 -54.5 -179.5t-143.5 -68.5q-65 0 -124.5 19t-107 38t-84.5 19q-47 0 -73.5 -27t-26.5 -63h-111q2 101 63 174t146 73q68 0 170 -43t145 -43q45 0 68 29t23 72z" />
    <glyph glyph-name="Imacron" unicode="&#x12a;" horiz-adv-x="569" 
d="M428 0h-287v1430h287v-1430zM578 1583h-590v164h590v-164z" />
    <glyph glyph-name="imacron" unicode="&#x12b;" horiz-adv-x="569" 
d="M422 0h-275v1055h275v-1055zM580 1229h-590v164h590v-164z" />
    <glyph glyph-name="Iogonek" unicode="&#x12e;" horiz-adv-x="569" 
d="M446 -276l82 -17q-37 -82 -96.5 -122t-159.5 -40q-91 0 -145.5 47.5t-54.5 137.5q0 70 56.5 135t188.5 135h-176v1430h287v-1430h-10q-95 -72 -132.5 -131t-37.5 -125q0 -88 84 -88q60 0 114 68z" />
    <glyph glyph-name="iogonek" unicode="&#x12f;" horiz-adv-x="569" 
d="M446 -276l82 -17q-36 -83 -96.5 -122.5t-157.5 -39.5q-93 0 -147.5 47.5t-54.5 137.5q0 73 59.5 138t185.5 132h-170v1055h275v-1055h-4q-96 -74 -133 -132t-37 -124q0 -88 84 -88q59 0 114 68zM422 1247h-275v262h275v-262z" />
    <glyph glyph-name="Idotaccent" unicode="&#x130;" horiz-adv-x="569" 
d="M428 0h-287v1430h287v-1430zM401 1546h-237v238h237v-238z" />
    <glyph glyph-name="dotlessi" unicode="&#x131;" horiz-adv-x="569" 
d="M422 0h-275v1055h275v-1055z" />
    <glyph glyph-name="IJ" unicode="&#x132;" horiz-adv-x="1312" 
d="M428 0h-287v1430h287v-1430zM561 2v248q67 -25 133 -25q97 0 144 52t47 182v971h286v-1082q0 -75 -25 -141.5t-72 -118.5t-123 -82.5t-171 -30.5q-114 0 -219 27z" />
    <glyph glyph-name="ij" unicode="&#x133;" horiz-adv-x="1101" 
d="M422 1247h-275v262h275v-262zM422 0h-275v1055h275v-1055zM467 -438l8 205q37 -9 74 -9q66 0 98.5 42t32.5 151v1104h274v-1129q0 -195 -77.5 -288t-241.5 -93q-93 0 -168 17zM954 1247h-274v262h274v-262z" />
    <glyph glyph-name="Jcircumflex" unicode="&#x134;" horiz-adv-x="796" 
d="M45 2v248q67 -25 133 -25q97 0 144 52t47 182v971h286v-1082q0 -75 -25 -141.5t-72 -118.5t-123 -82.5t-171 -30.5q-114 0 -219 27zM827 1516h-182l-139 176l-144 -176h-182l226 299h206z" />
    <glyph glyph-name="jcircumflex" unicode="&#x135;" horiz-adv-x="569" 
d="M-66 -438l9 205q37 -9 73 -9q66 0 98.5 42t32.5 151v1104h275v-1129q0 -195 -78 -288t-242 -93q-93 0 -168 17zM608 1161h-182l-139 176l-144 -176h-182l225 299h207z" />
    <glyph glyph-name="Kcommaaccent" unicode="&#x136;" horiz-adv-x="1366" 
d="M1346 0h-375l-514 664h-4v-664h-287v1430h287v-615l516 615h352l-588 -674zM733 -455h-205l76 320h260z" />
    <glyph glyph-name="kcommaaccent" unicode="&#x137;" 
d="M1126 0h-348l-352 512h-4v-512h-275v1536h275v-903h4l328 422h323l-393 -471zM616 -455h-204l75 320h261z" />
    <glyph glyph-name="Lacute" unicode="&#x139;" horiz-adv-x="1024" 
d="M1008 0h-842v1430h287v-1205h555v-225zM362 1516h-169l169 299h281z" />
    <glyph glyph-name="lacute" unicode="&#x13a;" horiz-adv-x="569" 
d="M422 0h-275v1536h275v-1536zM291 1597h-170l170 299h280z" />
    <glyph glyph-name="Lcommaaccent" unicode="&#x13b;" horiz-adv-x="1024" 
d="M1008 0h-842v1430h287v-1205h555v-225zM590 -455h-205l76 320h260z" />
    <glyph glyph-name="lcommaaccent" unicode="&#x13c;" horiz-adv-x="569" 
d="M422 0h-275v1536h275v-1536zM291 -455h-205l76 320h260z" />
    <glyph glyph-name="Lcaron" unicode="&#x13d;" horiz-adv-x="1024" 
d="M1008 0h-842v1430h287v-1205h555v-225zM766 1090h-152l33 407h236z" />
    <glyph glyph-name="lcaron" unicode="&#x13e;" horiz-adv-x="722" 
d="M422 0h-275v1536h275v-1536zM686 1090h-151l32 407h236z" />
    <glyph glyph-name="Ldot" unicode="&#x13f;" horiz-adv-x="1024" 
d="M1008 0h-842v1430h287v-1205h555v-225zM881 635h-238v237h238v-237z" />
    <glyph glyph-name="ldot" unicode="&#x140;" horiz-adv-x="888" 
d="M422 0h-275v1536h275v-1536zM817 639h-237v238h237v-238z" />
    <glyph glyph-name="Lslash" unicode="&#x141;" horiz-adv-x="1024" 
d="M1008 0h-842v498l-150 -90v188l150 90v744h287v-574l344 205v-189l-344 -204v-443h555v-225z" />
    <glyph glyph-name="lslash" unicode="&#x142;" horiz-adv-x="569" 
d="M422 0h-275v600l-147 -88v188l147 88v748h275v-584l147 88v-188l-147 -88v-764z" />
    <glyph glyph-name="Nacute" unicode="&#x143;" horiz-adv-x="1478" 
d="M1327 0h-350l-547 1069h-4v-1069h-274v1430h352l545 -1070h4v1070h274v-1430zM827 1516h-170l170 299h281z" />
    <glyph glyph-name="nacute" unicode="&#x144;" horiz-adv-x="1251" 
d="M1110 0h-274v592q0 132 -39 203t-140 71q-83 0 -139 -51t-79 -128t-23 -175v-512h-275v1055h260v-144h5q119 168 346 168q177 0 267.5 -110.5t90.5 -302.5v-666zM696 1161h-170l170 299h281z" />
    <glyph glyph-name="Ncommaaccent" unicode="&#x145;" horiz-adv-x="1478" 
d="M1327 0h-350l-547 1069h-4v-1069h-274v1430h352l545 -1070h4v1070h274v-1430zM788 -455h-204l75 320h261z" />
    <glyph glyph-name="ncommaaccent" unicode="&#x146;" horiz-adv-x="1251" 
d="M1110 0h-274v592q0 132 -39 203t-140 71q-83 0 -139 -51t-79 -128t-23 -175v-512h-275v1055h260v-144h5q119 168 346 168q177 0 267.5 -110.5t90.5 -302.5v-666zM641 -455h-205l76 320h260z" />
    <glyph glyph-name="Ncaron" unicode="&#x147;" horiz-adv-x="1478" 
d="M1327 0h-350l-547 1069h-4v-1069h-274v1430h352l545 -1070h4v1070h274v-1430zM860 1516h-207l-225 299h182l144 -177l139 177h182z" />
    <glyph glyph-name="ncaron" unicode="&#x148;" horiz-adv-x="1251" 
d="M1110 0h-274v592q0 132 -39 203t-140 71q-83 0 -139 -51t-79 -128t-23 -175v-512h-275v1055h260v-144h5q119 168 346 168q177 0 267.5 -110.5t90.5 -302.5v-666zM741 1161h-206l-226 299h183l143 -176l139 176h182z" />
    <glyph glyph-name="napostrophe" unicode="&#x149;" horiz-adv-x="1497" 
d="M-25 958l103 472h291l-168 -472h-226zM1356 0h-275v592q0 132 -38.5 203t-139.5 71q-83 0 -139 -51t-79 -128t-23 -175v-512h-275v1055h260v-144h4q119 168 346 168q177 0 268 -110.5t91 -302.5v-666z" />
    <glyph glyph-name="Omacron" unicode="&#x14c;" horiz-adv-x="1593" 
d="M797 -25q-329 0 -515 199.5t-186 544.5q0 341 186 538t515 197q319 0 509.5 -196t190.5 -539q0 -344 -189.5 -544t-510.5 -200zM797 201q129 0 220.5 67.5t136 183t44.5 267.5q0 101 -24 190.5t-71.5 162t-126.5 115t-181 42.5q-125 0 -217 -68.5t-137.5 -183
t-45.5 -258.5q0 -234 105 -376t297 -142zM1100 1583h-590v164h590v-164z" />
    <glyph glyph-name="omacron" unicode="&#x14d;" horiz-adv-x="1251" 
d="M1178 520q0 -239 -151 -392t-402 -153q-166 0 -292.5 71.5t-192.5 194.5t-66 279q0 252 154 405.5t397 153.5q244 0 398.5 -153.5t154.5 -405.5zM625 188q131 0 198.5 96t67.5 269q0 133 -70 223t-196 90q-124 0 -194.5 -91t-70.5 -222q0 -171 67 -268t198 -97zM922 1229
h-590v164h590v-164z" />
    <glyph glyph-name="Obreve" unicode="&#x14e;" horiz-adv-x="1593" 
d="M797 -25q-329 0 -515 199.5t-186 544.5q0 341 186 538t515 197q319 0 509.5 -196t190.5 -539q0 -344 -189.5 -544t-510.5 -200zM797 201q129 0 220.5 67.5t136 183t44.5 267.5q0 101 -24 190.5t-71.5 162t-126.5 115t-181 42.5q-125 0 -217 -68.5t-137.5 -183
t-45.5 -258.5q0 -234 105 -376t297 -142zM1012 1827h127q-8 -137 -101 -224t-235 -87q-139 0 -231.5 87.5t-100.5 223.5h127q40 -164 205 -164q168 0 209 164z" />
    <glyph glyph-name="obreve" unicode="&#x14f;" horiz-adv-x="1251" 
d="M1178 520q0 -239 -151 -392t-402 -153q-166 0 -292.5 71.5t-192.5 194.5t-66 279q0 252 154 405.5t397 153.5q244 0 398.5 -153.5t154.5 -405.5zM625 188q131 0 198.5 96t67.5 269q0 133 -70 223t-196 90q-124 0 -194.5 -91t-70.5 -222q0 -171 67 -268t198 -97zM831 1473
h127q-9 -137 -102.5 -224.5t-232.5 -87.5q-138 0 -232 88t-100 224h127q17 -78 70.5 -121t134.5 -43t135 43t73 121z" />
    <glyph glyph-name="Ohungarumlaut" unicode="&#x150;" horiz-adv-x="1593" 
d="M797 -25q-329 0 -515 199.5t-186 544.5q0 341 186 538t515 197q319 0 509.5 -196t190.5 -539q0 -344 -189.5 -544t-510.5 -200zM797 201q129 0 220.5 67.5t136 183t44.5 267.5q0 101 -24 190.5t-71.5 162t-126.5 115t-181 42.5q-125 0 -217 -68.5t-137.5 -183
t-45.5 -258.5q0 -234 105 -376t297 -142zM641 1516h-170l170 299h281zM1044 1516h-170l170 299h281z" />
    <glyph glyph-name="ohungarumlaut" unicode="&#x151;" horiz-adv-x="1251" 
d="M1178 520q0 -239 -151 -392t-402 -153q-166 0 -292.5 71.5t-192.5 194.5t-66 279q0 252 154 405.5t397 153.5q244 0 398.5 -153.5t154.5 -405.5zM625 188q131 0 198.5 96t67.5 269q0 133 -70 223t-196 90q-124 0 -194.5 -91t-70.5 -222q0 -171 67 -268t198 -97zM874 1161
h-169l169 299h281zM471 1161h-170l170 299h281z" />
    <glyph glyph-name="OE" unicode="&#x152;" horiz-adv-x="1933" 
d="M1831 0h-561q-60 0 -222.5 -6t-220.5 -6q-731 0 -731 719q0 354 201.5 544.5t572.5 190.5q63 0 217 -6t185 -6h551v-226h-533v-352h488v-225h-488v-402h541v-225zM1004 225v979q-89 13 -152 13q-214 0 -335.5 -138.5t-121.5 -371.5q0 -223 125 -358.5t344 -135.5
q61 0 140 12z" />
    <glyph glyph-name="oe" unicode="&#x153;" horiz-adv-x="1933" 
d="M1778 281l8 -224q-131 -82 -330 -82q-172 0 -271.5 45t-156.5 130q-125 -175 -403 -175q-248 0 -399.5 152.5t-151.5 392.5q0 251 154.5 405t396.5 154q124 0 226 -45.5t167 -134.5q58 86 155.5 133t212.5 47q240 0 357 -158.5t117 -478.5h-689q3 -126 80.5 -196
t212.5 -70q170 0 314 105zM625 176q130 0 201 92t71 254q0 165 -70.5 261t-201.5 96q-86 0 -148 -53.5t-89.5 -132t-27.5 -169.5q0 -70 14.5 -130.5t45 -110.5t83 -78.5t122.5 -28.5zM1171 631h426q-5 120 -58 184t-150 64q-94 0 -155.5 -69t-62.5 -179z" />
    <glyph glyph-name="Racute" unicode="&#x154;" horiz-adv-x="1251" 
d="M1210 0h-319l-166 430q-18 47 -31 72.5t-35.5 49.5t-55 33t-81.5 9h-94v-594h-287v1430h449q134 0 233 -22.5t155.5 -57.5t90.5 -88.5t44.5 -104.5t10.5 -115q0 -128 -80.5 -220.5t-214.5 -110.5v-4q94 -6 158 -162zM428 819h111q71 0 124 12t83.5 30.5t48.5 46t24 53.5
t6 57q0 27 -4 48.5t-20 48.5t-44 45.5t-81 31t-125 12.5h-123v-385zM606 1516h-170l170 299h281z" />
    <glyph glyph-name="racute" unicode="&#x155;" horiz-adv-x="796" 
d="M422 0h-275v1055h244v-240h4q8 58 45.5 117.5t104 103t141.5 43.5q50 0 82 -8v-276q-39 22 -123 22q-223 0 -223 -383v-434zM518 1161h-170l170 299h281z" />
    <glyph glyph-name="Rcommaaccent" unicode="&#x156;" horiz-adv-x="1251" 
d="M1210 0h-319l-166 430q-18 47 -31 72.5t-35.5 49.5t-55 33t-81.5 9h-94v-594h-287v1430h449q134 0 233 -22.5t155.5 -57.5t90.5 -88.5t44.5 -104.5t10.5 -115q0 -128 -80.5 -220.5t-214.5 -110.5v-4q94 -6 158 -162zM428 819h111q71 0 124 12t83.5 30.5t48.5 46t24 53.5
t6 57q0 27 -4 48.5t-20 48.5t-44 45.5t-81 31t-125 12.5h-123v-385zM649 -455h-205l76 320h260z" />
    <glyph glyph-name="rcommaaccent" unicode="&#x157;" horiz-adv-x="796" 
d="M422 0h-275v1055h244v-240h4q8 58 45.5 117.5t104 103t141.5 43.5q50 0 82 -8v-276q-39 22 -123 22q-223 0 -223 -383v-434zM285 -455h-205l76 320h260z" />
    <glyph glyph-name="Rcaron" unicode="&#x158;" horiz-adv-x="1251" 
d="M1210 0h-319l-166 430q-18 47 -31 72.5t-35.5 49.5t-55 33t-81.5 9h-94v-594h-287v1430h449q134 0 233 -22.5t155.5 -57.5t90.5 -88.5t44.5 -104.5t10.5 -115q0 -128 -80.5 -220.5t-214.5 -110.5v-4q94 -6 158 -162zM428 819h111q71 0 124 12t83.5 30.5t48.5 46t24 53.5
t6 57q0 27 -4 48.5t-20 48.5t-44 45.5t-81 31t-125 12.5h-123v-385zM692 1516h-207l-225 299h182l144 -177l139 177h182z" />
    <glyph glyph-name="rcaron" unicode="&#x159;" horiz-adv-x="796" 
d="M422 0h-275v1055h244v-240h4q8 58 45.5 117.5t104 103t141.5 43.5q50 0 82 -8v-276q-39 22 -123 22q-223 0 -223 -383v-434zM580 1161h-207l-226 299h183l143 -176l139 176h183z" />
    <glyph glyph-name="Sacute" unicode="&#x15a;" 
d="M141 31l27 258q163 -88 324 -88q57 0 112 17.5t98 61.5t43 105q0 40 -16 70.5t-51 56t-72 43t-98 41.5q-41 16 -64 25.5t-61 26.5t-60.5 30.5t-54 35.5t-50.5 42.5t-40 49.5t-32.5 59.5t-19 69.5t-7.5 83q0 90 26.5 163t72.5 123.5t110 84.5t137 49.5t156 15.5
q188 0 340 -51l-27 -236q-145 62 -291 62q-92 0 -158.5 -48t-66.5 -151q0 -29 13 -54.5t30 -42.5t51 -35.5t57 -28t67 -26.5q15 -6 23 -9q48 -18 82.5 -32.5t77.5 -37t73 -45t61 -55t49 -68.5t30 -84t12 -104q0 -207 -140.5 -320t-397.5 -113q-70 0 -133.5 8t-104.5 17
t-127 31zM633 1516h-170l170 299h280z" />
    <glyph glyph-name="sacute" unicode="&#x15b;" horiz-adv-x="909" 
d="M84 20l16 226q140 -70 271 -70q42 0 80 10.5t69 41t31 77.5q0 26 -10.5 46.5t-25.5 34t-44.5 26.5t-52.5 20.5t-64 18.5q-145 39 -212.5 106.5t-67.5 194.5q0 155 115.5 241t299.5 86q132 0 297 -39l-18 -206q-128 45 -244 45q-74 0 -119 -30t-45 -87q0 -42 42 -68.5
t141 -54.5q152 -42 223.5 -116.5t71.5 -203.5q0 -166 -125.5 -255t-319.5 -89q-142 0 -309 45zM522 1161h-170l170 299h281z" />
    <glyph glyph-name="Scircumflex" unicode="&#x15c;" 
d="M141 31l27 258q163 -88 324 -88q57 0 112 17.5t98 61.5t43 105q0 40 -16 70.5t-51 56t-72 43t-98 41.5q-41 16 -64 25.5t-61 26.5t-60.5 30.5t-54 35.5t-50.5 42.5t-40 49.5t-32.5 59.5t-19 69.5t-7.5 83q0 90 26.5 163t72.5 123.5t110 84.5t137 49.5t156 15.5
q188 0 340 -51l-27 -236q-145 62 -291 62q-92 0 -158.5 -48t-66.5 -151q0 -29 13 -54.5t30 -42.5t51 -35.5t57 -28t67 -26.5q15 -6 23 -9q48 -18 82.5 -32.5t77.5 -37t73 -45t61 -55t49 -68.5t30 -84t12 -104q0 -207 -140.5 -320t-397.5 -113q-70 0 -133.5 8t-104.5 17
t-127 31zM897 1516h-182l-140 176l-143 -176h-182l225 299h207z" />
    <glyph glyph-name="scircumflex" unicode="&#x15d;" horiz-adv-x="909" 
d="M84 20l16 226q140 -70 271 -70q42 0 80 10.5t69 41t31 77.5q0 26 -10.5 46.5t-25.5 34t-44.5 26.5t-52.5 20.5t-64 18.5q-145 39 -212.5 106.5t-67.5 194.5q0 155 115.5 241t299.5 86q132 0 297 -39l-18 -206q-128 45 -244 45q-74 0 -119 -30t-45 -87q0 -42 42 -68.5
t141 -54.5q152 -42 223.5 -116.5t71.5 -203.5q0 -166 -125.5 -255t-319.5 -89q-142 0 -309 45zM778 1161h-182l-139 176l-144 -176h-182l225 299h207z" />
    <glyph glyph-name="Scedilla" unicode="&#x15e;" 
d="M293 -412l41 111q90 -31 151 -31q47 0 74 19t27 55q0 35 -24 53.5t-66 18.5q-30 0 -86 -19l-31 53l100 127q-71 2 -141.5 13t-196.5 43l27 258q151 -88 324 -88q57 0 112 17.5t98 61.5t43 105q0 40 -16 70.5t-51 56t-72 43t-98 41.5q-41 16 -64 25.5t-61 26.5t-60.5 30.5
t-54 35.5t-50.5 42.5t-40 49.5t-32.5 59.5t-19 69.5t-7.5 83q0 90 26.5 163t72.5 123.5t110 84.5t137 49.5t156 15.5q188 0 340 -51l-27 -236q-145 62 -291 62q-92 0 -158.5 -48t-66.5 -151q0 -29 13 -54.5t30 -42.5t51 -35.5t57 -28t67 -26.5q15 -6 23 -9
q48 -18 82.5 -32.5t77.5 -37t73 -45t61 -55t49 -68.5t30 -84t12 -104q0 -371 -432 -426l-77 -91l4 -4q40 13 82 13q73 0 119 -39.5t46 -104.5q0 -99 -75 -155t-187 -56q-154 0 -231 43z" />
    <glyph glyph-name="scedilla" unicode="&#x15f;" horiz-adv-x="909" 
d="M180 -412l41 111q92 -31 152 -31q100 0 100 74q0 38 -25 55t-59 17q-45 0 -92 -19l-31 53l101 127q-154 6 -283 45l16 226q128 -70 271 -70q42 0 80 10.5t69 41t31 77.5q0 26 -10.5 46.5t-25.5 34t-44.5 26.5t-52.5 20.5t-64 18.5q-145 39 -212.5 106.5t-67.5 194.5
q0 155 115.5 241t299.5 86q132 0 297 -39l-18 -206q-128 45 -244 45q-74 0 -119 -30t-45 -87q0 -42 42 -68.5t141 -54.5q153 -43 224 -116t71 -201q0 -284 -336 -338l-80 -93l4 -4q44 13 84 13q71 0 117.5 -40t46.5 -106q0 -94 -72.5 -151.5t-200.5 -57.5q-64 0 -126.5 12
t-94.5 31z" />
    <glyph glyph-name="Scaron" unicode="&#x160;" 
d="M141 31l27 258q163 -88 324 -88q57 0 112 17.5t98 61.5t43 105q0 40 -16 70.5t-51 56t-72 43t-98 41.5q-41 16 -64 25.5t-61 26.5t-60.5 30.5t-54 35.5t-50.5 42.5t-40 49.5t-32.5 59.5t-19 69.5t-7.5 83q0 90 26.5 163t72.5 123.5t110 84.5t137 49.5t156 15.5
q188 0 340 -51l-27 -236q-145 62 -291 62q-92 0 -158.5 -48t-66.5 -151q0 -29 13 -54.5t30 -42.5t51 -35.5t57 -28t67 -26.5q15 -6 23 -9q48 -18 82.5 -32.5t77.5 -37t73 -45t61 -55t49 -68.5t30 -84t12 -104q0 -207 -140.5 -320t-397.5 -113q-70 0 -133.5 8t-104.5 17
t-127 31zM682 1516h-207l-225 299h182l143 -177l140 177h182z" />
    <glyph glyph-name="scaron" unicode="&#x161;" horiz-adv-x="909" 
d="M84 20l16 226q140 -70 271 -70q42 0 80 10.5t69 41t31 77.5q0 26 -10.5 46.5t-25.5 34t-44.5 26.5t-52.5 20.5t-64 18.5q-145 39 -212.5 106.5t-67.5 194.5q0 155 115.5 241t299.5 86q132 0 297 -39l-18 -206q-128 45 -244 45q-74 0 -119 -30t-45 -87q0 -42 42 -68.5
t141 -54.5q152 -42 223.5 -116.5t71.5 -203.5q0 -166 -125.5 -255t-319.5 -89q-142 0 -309 45zM563 1161h-207l-225 299h182l144 -176l139 176h182z" />
    <glyph glyph-name="Tcommaaccent" unicode="&#x162;" 
d="M713 0h-287v1204h-410v226h1106v-226h-409v-1204zM575 -455h-204l75 320h261z" />
    <glyph glyph-name="tcommaaccent" unicode="&#x163;" horiz-adv-x="796" 
d="M760 217l8 -217q-89 -25 -201 -25q-163 0 -249.5 92.5t-86.5 249.5v537h-202v201h202v211l275 88v-299h244v-201h-244v-489q0 -87 31 -132t100 -45q76 0 123 29zM453 -455h-205l76 320h260z" />
    <glyph glyph-name="Tcaron" unicode="&#x164;" 
d="M713 0h-287v1204h-410v226h1106v-226h-409v-1204zM678 1516h-207l-225 299h182l143 -177l140 177h182z" />
    <glyph glyph-name="tcaron" unicode="&#x165;" horiz-adv-x="815" 
d="M762 1130h-150l31 367h223zM760 217l8 -217q-89 -25 -201 -25q-163 0 -249.5 92.5t-86.5 249.5v537h-202v201h202v211l275 88v-299h244v-201h-244v-489q0 -87 31 -132t100 -45q76 0 123 29z" />
    <glyph glyph-name="Tbar" unicode="&#x166;" 
d="M713 0h-287v748h-317v184h317v272h-410v226h1106v-226h-409v-272h319v-184h-319v-748z" />
    <glyph glyph-name="tbar" unicode="&#x167;" horiz-adv-x="796" 
d="M760 217l8 -217q-89 -25 -201 -25q-163 0 -249.5 92.5t-86.5 249.5v201h-176v154h176v182h-202v201h202v211l275 88v-299h244v-201h-244v-182h194v-154h-194v-153q0 -87 31 -132t100 -45q76 0 123 29z" />
    <glyph glyph-name="Utilde" unicode="&#x168;" horiz-adv-x="1478" 
d="M1036 598v832h287v-920q0 -535 -584 -535q-583 0 -583 537v918h286v-832q0 -397 297 -397t297 397zM999 1802h111q0 -110 -55 -179t-144 -69q-65 0 -124 19t-106.5 38t-84.5 19q-47 0 -73.5 -27t-26.5 -63h-111q2 102 63 175t146 73q68 0 170 -43t145 -43q45 0 67.5 28.5
t22.5 71.5z" />
    <glyph glyph-name="utilde" unicode="&#x169;" horiz-adv-x="1251" 
d="M1110 0h-260v143h-4q-139 -168 -346 -168q-174 0 -266.5 109.5t-92.5 304.5v666h275v-602q0 -147 47 -206t131 -59q120 0 181 98.5t61 258.5v510h274v-1055zM877 1442h110q0 -110 -55 -179t-144 -69q-65 0 -124 19t-106.5 38t-84.5 19q-47 0 -73.5 -27t-26.5 -63h-111
q2 101 63 174t146 73q68 0 170 -43t145 -43q45 0 68 29t23 72z" />
    <glyph glyph-name="Umacron" unicode="&#x16a;" horiz-adv-x="1478" 
d="M1036 598v832h287v-920q0 -535 -584 -535q-583 0 -583 537v918h286v-832q0 -397 297 -397t297 397zM1040 1583h-589v164h589v-164z" />
    <glyph glyph-name="umacron" unicode="&#x16b;" horiz-adv-x="1251" 
d="M1110 0h-260v143h-4q-139 -168 -346 -168q-174 0 -266.5 109.5t-92.5 304.5v666h275v-602q0 -147 47 -206t131 -59q120 0 181 98.5t61 258.5v510h274v-1055zM928 1229h-590v164h590v-164z" />
    <glyph glyph-name="Ubreve" unicode="&#x16c;" horiz-adv-x="1478" 
d="M1036 598v832h287v-920q0 -535 -584 -535q-583 0 -583 537v918h286v-832q0 -397 297 -397t297 397zM954 1827h127q-8 -137 -101 -224t-235 -87q-139 0 -231 87.5t-100 223.5h127q40 -164 204 -164q168 0 209 164z" />
    <glyph glyph-name="ubreve" unicode="&#x16d;" horiz-adv-x="1251" 
d="M1110 0h-260v143h-4q-139 -168 -346 -168q-174 0 -266.5 109.5t-92.5 304.5v666h275v-602q0 -147 47 -206t131 -59q120 0 181 98.5t61 258.5v510h274v-1055zM831 1473h127q-9 -137 -102.5 -224.5t-232.5 -87.5q-138 0 -232 88t-100 224h127q17 -78 70.5 -121t134.5 -43
t135 43t73 121z" />
    <glyph glyph-name="Uring" unicode="&#x16e;" horiz-adv-x="1478" 
d="M1036 598v832h287v-920q0 -535 -584 -535q-583 0 -583 537v918h286v-832q0 -397 297 -397t297 397zM958 1696q0 -86 -63.5 -149.5t-151.5 -63.5q-87 0 -150 64t-63 149q0 87 63 151t150 64q89 0 152 -64t63 -151zM848 1696q0 44 -30.5 74t-74.5 30t-73 -30.5t-29 -73.5
q0 -44 29.5 -73.5t72.5 -29.5q44 0 74.5 29.5t30.5 73.5z" />
    <glyph glyph-name="uring" unicode="&#x16f;" horiz-adv-x="1251" 
d="M1110 0h-260v143h-4q-139 -168 -346 -168q-174 0 -266.5 109.5t-92.5 304.5v666h275v-602q0 -147 47 -206t131 -59q120 0 181 98.5t61 258.5v510h274v-1055zM633 1161q-91 0 -155 64t-64 153q0 90 65.5 154.5t153.5 64.5q91 0 154 -65t63 -154q0 -91 -63 -154t-154 -63z
M739 1378q0 46 -31 77.5t-75 31.5q-45 0 -77 -31t-32 -78q0 -44 31.5 -75t77.5 -31q44 0 75 31t31 75z" />
    <glyph glyph-name="Uhungarumlaut" unicode="&#x170;" horiz-adv-x="1478" 
d="M1036 598v832h287v-920q0 -535 -584 -535q-583 0 -583 537v918h286v-832q0 -397 297 -397t297 397zM584 1516h-170l170 299h280zM987 1516h-170l170 299h281z" />
    <glyph glyph-name="uhungarumlaut" unicode="&#x171;" horiz-adv-x="1251" 
d="M1110 0h-260v143h-4q-139 -168 -346 -168q-174 0 -266.5 109.5t-92.5 304.5v666h275v-602q0 -147 47 -206t131 -59q120 0 181 98.5t61 258.5v510h274v-1055zM874 1161h-169l169 299h281zM471 1161h-170l170 299h281z" />
    <glyph glyph-name="Uogonek" unicode="&#x172;" horiz-adv-x="1478" 
d="M911 -276l82 -17q-35 -79 -94 -120.5t-162 -41.5q-90 0 -145 47t-55 136q0 64 44.5 123.5t153.5 123.5h-16q-285 0 -424 142.5t-139 410.5v902h286v-832q0 -397 297 -397t297 397v832h287v-900q0 -87 -14 -161t-48 -142.5t-86.5 -118t-133.5 -83t-185 -43.5
q-86 -71 -114.5 -128t-28.5 -110q0 -50 25 -69t59 -19q59 0 114 68z" />
    <glyph glyph-name="uogonek" unicode="&#x173;" horiz-adv-x="1251" 
d="M1028 -276l82 -17q-36 -80 -95 -121t-161 -41q-85 0 -143 45.5t-58 139.5q0 74 58 137.5t188 132.5h-49v143h-4q-63 -81 -153 -124.5t-193 -43.5q-174 0 -266.5 109.5t-92.5 304.5v666h275v-602q0 -147 47 -206t131 -59q120 0 181 98.5t61 258.5v510h274v-1055h-111
q-96 -73 -133 -132t-37 -124q0 -88 84 -88q33 0 65 22.5t50 45.5z" />
    <glyph glyph-name="Wcircumflex" unicode="&#x174;" horiz-adv-x="2048" 
d="M1655 0h-369l-258 1143h-4l-254 -1143h-371l-379 1430h302l266 -1143h4l244 1143h389l252 -1143h4l268 1143h279zM1346 1516h-183l-139 176l-143 -176h-183l226 299h206z" />
    <glyph glyph-name="wcircumflex" unicode="&#x175;" horiz-adv-x="1820" 
d="M1475 0h-324l-229 805h-4l-226 -805h-313l-356 1055h290l234 -781h4l213 781h319l230 -781h4l219 781h262zM1233 1161h-182l-140 176l-143 -176h-182l225 299h207z" />
    <glyph glyph-name="Ycircumflex" unicode="&#x176;" horiz-adv-x="1366" 
d="M831 0h-286v565l-522 865h335l338 -601l344 601h303l-512 -865v-565zM1004 1516h-183l-139 176l-143 -176h-183l226 299h206z" />
    <glyph glyph-name="ycircumflex" unicode="&#x177;" 
d="M88 -426l18 203q56 -19 140 -19q85 0 132.5 52.5t47.5 136.5l-403 1108h303l254 -770h4l254 770h278l-442 -1172q-33 -85 -65 -142t-77.5 -104t-108 -69.5t-144.5 -22.5q-89 0 -191 29zM893 1161h-182l-140 176l-143 -176h-182l225 299h207z" />
    <glyph glyph-name="Ydieresis" unicode="&#x178;" horiz-adv-x="1366" 
d="M831 0h-286v565l-522 865h335l338 -601l344 601h303l-512 -865v-565zM604 1516h-237v237h237v-237zM1026 1516h-238v237h238v-237z" />
    <glyph glyph-name="Zacute" unicode="&#x179;" 
d="M1065 0h-991v233l671 971h-645v226h951v-234l-678 -971h692v-225zM647 1516h-170l170 299h281z" />
    <glyph glyph-name="zacute" unicode="&#x17a;" horiz-adv-x="1024" 
d="M950 0h-876v223l534 619h-512v213h836v-226l-524 -616h542v-213zM580 1161h-170l170 299h280z" />
    <glyph glyph-name="Zdotaccent" unicode="&#x17b;" 
d="M1065 0h-991v233l671 971h-645v226h951v-234l-678 -971h692v-225zM725 1546h-238v238h238v-238z" />
    <glyph glyph-name="zdotaccent" unicode="&#x17c;" horiz-adv-x="1024" 
d="M950 0h-876v223l534 619h-512v213h836v-226l-524 -616h542v-213zM662 1192h-238v238h238v-238z" />
    <glyph glyph-name="Zcaron" unicode="&#x17d;" 
d="M1065 0h-991v233l671 971h-645v226h951v-234l-678 -971h692v-225zM678 1516h-207l-225 299h182l143 -177l140 177h182z" />
    <glyph glyph-name="zcaron" unicode="&#x17e;" horiz-adv-x="1024" 
d="M950 0h-876v223l534 619h-512v213h836v-226l-524 -616h542v-213zM621 1161h-207l-226 299h183l143 -176l139 176h183z" />
    <glyph glyph-name="florin" unicode="&#x192;" 
d="M16 -434l41 203q48 -11 105 -11q55 0 91 34.5t52 119.5l150 756h-232l31 163h233l62 277q18 85 44 144t71 107t115.5 71.5t168.5 23.5q99 0 172 -18l-37 -217q-75 22 -116 22q-37 0 -64 -14.5t-43 -43t-24.5 -54.5t-16.5 -66l-49 -232h248l-27 -163h-254l-129 -697
q-13 -72 -31.5 -131t-49.5 -115.5t-71.5 -95t-100 -61.5t-132.5 -23q-137 0 -207 21z" />
    <glyph glyph-name="Scommaaccent" unicode="&#x218;" 
d="M141 31l27 258q163 -88 324 -88q57 0 112 17.5t98 61.5t43 105q0 40 -16 70.5t-51 56t-72 43t-98 41.5q-41 16 -64 25.5t-61 26.5t-60.5 30.5t-54 35.5t-50.5 42.5t-40 49.5t-32.5 59.5t-19 69.5t-7.5 83q0 90 26.5 163t72.5 123.5t110 84.5t137 49.5t156 15.5
q188 0 340 -51l-27 -236q-145 62 -291 62q-92 0 -158.5 -48t-66.5 -151q0 -29 13 -54.5t30 -42.5t51 -35.5t57 -28t67 -26.5q15 -6 23 -9q48 -18 82.5 -32.5t77.5 -37t73 -45t61 -55t49 -68.5t30 -84t12 -104q0 -207 -140.5 -320t-397.5 -113q-70 0 -133.5 8t-104.5 17
t-127 31zM573 -455h-204l75 320h261z" />
    <glyph glyph-name="scommaaccent" unicode="&#x219;" horiz-adv-x="909" 
d="M84 20l16 226q140 -70 271 -70q42 0 80 10.5t69 41t31 77.5q0 26 -10.5 46.5t-25.5 34t-44.5 26.5t-52.5 20.5t-64 18.5q-145 39 -212.5 106.5t-67.5 194.5q0 155 115.5 241t299.5 86q132 0 297 -39l-18 -206q-128 45 -244 45q-74 0 -119 -30t-45 -87q0 -42 42 -68.5
t141 -54.5q152 -42 223.5 -116.5t71.5 -203.5q0 -166 -125.5 -255t-319.5 -89q-142 0 -309 45zM467 -455h-205l76 320h260z" />
    <glyph glyph-name="uni021A" unicode="&#x21a;" 
d="M713 0h-287v1204h-410v226h1106v-226h-409v-1204zM575 -455h-204l75 320h261z" />
    <glyph glyph-name="uni021B" unicode="&#x21b;" horiz-adv-x="796" 
d="M760 217l8 -217q-89 -25 -201 -25q-163 0 -249.5 92.5t-86.5 249.5v537h-202v201h202v211l275 88v-299h244v-201h-244v-489q0 -87 31 -132t100 -45q76 0 123 29zM453 -455h-205l76 320h260z" />
    <glyph glyph-name="dotlessj" unicode="&#x237;" horiz-adv-x="569" 
d="M-66 -438l9 205q37 -9 73 -9q66 0 98.5 42t32.5 151v1104h275v-1129q0 -195 -78 -288t-242 -93q-93 0 -168 17z" />
    <glyph glyph-name="circumflex" unicode="&#x2c6;" horiz-adv-x="569" 
d="M608 1161h-182l-139 176l-144 -176h-182l225 299h207z" />
    <glyph glyph-name="caron" unicode="&#x2c7;" horiz-adv-x="569" 
d="M393 1161h-207l-225 299h182l144 -176l139 176h182z" />
    <glyph glyph-name="uni02C9" unicode="&#x2c9;" horiz-adv-x="569" 
d="M580 1229h-590v164h590v-164z" />
    <glyph glyph-name="breve" unicode="&#x2d8;" horiz-adv-x="569" 
d="M492 1473h126q-9 -137 -102.5 -224.5t-232.5 -87.5q-138 0 -232 88t-100 224h127q17 -78 70.5 -121t134.5 -43t135.5 43t73.5 121z" />
    <glyph glyph-name="dotaccent" unicode="&#x2d9;" horiz-adv-x="569" 
d="M403 1192h-237v238h237v-238z" />
    <glyph glyph-name="ring" unicode="&#x2da;" horiz-adv-x="569" 
d="M287 1161q-91 0 -155 64t-64 153q0 90 65.5 154.5t153.5 64.5q91 0 154 -65t63 -154q0 -91 -63 -154t-154 -63zM393 1378q0 46 -31 77.5t-75 31.5q-45 0 -77 -31t-32 -78q0 -44 31.5 -75t77.5 -31q44 0 75 31t31 75z" />
    <glyph glyph-name="ogonek" unicode="&#x2db;" horiz-adv-x="569" 
d="M500 -276l82 -17q-42 -92 -103 -127t-153 -35q-94 0 -147.5 49t-53.5 136q0 73 60 138t186 132h100q-170 -129 -170 -252q0 -92 82 -92q63 0 117 68z" />
    <glyph glyph-name="tilde" unicode="&#x2dc;" horiz-adv-x="569" 
d="M537 1442h110q0 -111 -54.5 -179.5t-143.5 -68.5q-65 0 -124.5 19t-107 38t-84.5 19q-47 0 -73.5 -27t-26.5 -63h-111q2 101 63 174t146 73q68 0 170 -43t145 -43q45 0 68 29t23 72z" />
    <glyph glyph-name="hungarumlaut" unicode="&#x2dd;" horiz-adv-x="569" 
d="M430 1161h-170l170 299h281zM27 1161h-170l170 299h280z" />
    <glyph glyph-name="uni0394" unicode="&#x394;" horiz-adv-x="1492" 
d="M1466 0h-1439l555 1430h333zM1069 225l-328 963h-2l-338 -963h668z" />
    <glyph glyph-name="uni03A9" unicode="&#x3a9;" horiz-adv-x="1603" 
d="M1489 0h-600l6 225q283 151 283 527q0 219 -101.5 348t-273.5 129q-180 0 -284.5 -132t-104.5 -358q0 -176 70 -308t200 -206l6 -225h-575v225h278q-144 103 -211 235.5t-67 305.5q0 203 87.5 360t245 242.5t359.5 85.5q200 0 353.5 -86.5t235 -237t81.5 -339.5
q0 -176 -74 -326.5t-207 -239.5h293v-225z" />
    <glyph glyph-name="uni03BC" unicode="&#x3bc;" horiz-adv-x="1251" 
d="M1110 0h-260v143h-4q-32 -74 -95 -121t-143 -47q-73 0 -114.5 18t-73.5 52h-4v-475h-275v1485h275v-598q0 -81 14 -136.5t40.5 -83t55.5 -38.5t68 -11q119 0 180.5 98t61.5 257v512h274v-1055z" />
    <glyph glyph-name="pi" unicode="&#x3c0;" horiz-adv-x="1343" 
d="M1270 201l8 -197q-89 -29 -168 -29q-164 0 -235.5 75.5t-71.5 238.5v565h-326v-854h-274v854h-183v201h1242v-201h-185v-549q0 -129 99 -129q46 0 94 25z" />
    <glyph glyph-name="uni1E9E" unicode="&#x1e9e;" horiz-adv-x="1406" 
d="M573 20l27 250q117 -69 266 -69q95 0 147 43.5t52 132.5q0 16 -2.5 31t-10.5 30.5t-13.5 26.5t-20.5 27.5t-23 25.5t-29 27t-29.5 26t-35 29t-35.5 29q-112 94 -162.5 167t-50.5 169q0 91 69 162.5t179 101.5q-78 8 -149 8q-166 0 -245 -82t-79 -248v-907h-287v958
q0 138 39 235t116 154t181 82t246 25q269 0 477 -31v-215q-100 -5 -182 -59t-82 -133q0 -34 13 -64.5t45 -65t55.5 -55.5t74.5 -63q62 -52 97 -86t72.5 -82t54 -100.5t16.5 -114.5q0 -198 -130 -304t-343 -106q-200 0 -318 45z" />
    <glyph glyph-name="uni2010" unicode="&#x2010;" horiz-adv-x="681" 
d="M610 438h-538v226h538v-226z" />
    <glyph glyph-name="endash" unicode="&#x2013;" horiz-adv-x="1024" 
d="M1024 457h-1024v188h1024v-188z" />
    <glyph glyph-name="emdash" unicode="&#x2014;" horiz-adv-x="2048" 
d="M2048 457h-2048v188h2048v-188z" />
    <glyph glyph-name="quoteleft" unicode="&#x2018;" horiz-adv-x="569" 
d="M371 918h-301l186 512h244z" />
    <glyph glyph-name="quoteright" unicode="&#x2019;" horiz-adv-x="569" 
d="M311 918h-241l131 512h299z" />
    <glyph glyph-name="quotesinglbase" unicode="&#x201a;" horiz-adv-x="569" 
d="M311 -225h-241l131 512h299z" />
    <glyph glyph-name="quotedblleft" unicode="&#x201c;" horiz-adv-x="985" 
d="M371 918h-301l186 512h244zM786 918h-301l187 512h243z" />
    <glyph glyph-name="quotedblright" unicode="&#x201d;" horiz-adv-x="985" 
d="M311 918h-241l131 512h299zM727 918h-242l131 512h299z" />
    <glyph glyph-name="quotedblbase" unicode="&#x201e;" horiz-adv-x="985" 
d="M311 -225h-241l131 512h299zM727 -225h-242l131 512h299z" />
    <glyph glyph-name="dagger" unicode="&#x2020;" 
d="M700 0h-262v891h-317v213h317v326h262v-326h318v-213h-318v-891z" />
    <glyph glyph-name="daggerdbl" unicode="&#x2021;" 
d="M1018 301h-318v-301h-262v301h-317v201h317v434h-317v201h317v293h262v-293h318v-201h-318v-434h318v-201z" />
    <glyph glyph-name="bullet" unicode="&#x2022;" horiz-adv-x="1024" 
d="M512 356q-147 0 -251.5 105.5t-104.5 253.5q0 145 103 250.5t253 105.5q148 0 253 -104t105 -252q0 -149 -106 -254t-252 -105z" />
    <glyph glyph-name="ellipsis" unicode="&#x2026;" horiz-adv-x="2048" 
d="M485 0h-286v287h286v-287zM1167 0h-286v287h286v-287zM1849 0h-286v287h286v-287z" />
    <glyph glyph-name="perthousand" unicode="&#x2030;" horiz-adv-x="2048" 
d="M317 -45h-167l878 1520h168zM309 745q-291 0 -291 361q0 178 71.5 263t219.5 85t218.5 -85.5t70.5 -262.5q0 -361 -289 -361zM309 893q57 0 79 41.5t22 165.5t-22.5 165.5t-80.5 41.5q-36 0 -56.5 -15.5t-32 -61.5t-11.5 -130q0 -124 22.5 -165.5t79.5 -41.5zM1055 -25
q-291 0 -291 361q0 178 71.5 263t219.5 85q147 0 217.5 -85.5t70.5 -262.5q0 -361 -288 -361zM1055 123q56 0 78 41t22 166t-22 166t-80 41q-36 0 -57 -15.5t-32.5 -61.5t-11.5 -130q0 -124 23 -165.5t80 -41.5zM1743 -25q-291 0 -291 361q0 178 71.5 263t219.5 85
t218.5 -85.5t70.5 -262.5q0 -361 -289 -361zM1743 123q56 0 78 41t22 166t-22 166t-80 41q-36 0 -57 -15.5t-32.5 -61.5t-11.5 -130q0 -124 23 -165.5t80 -41.5z" />
    <glyph glyph-name="guilsinglleft" unicode="&#x2039;" horiz-adv-x="681" 
d="M600 131h-258l-242 420l242 420h258l-225 -420z" />
    <glyph glyph-name="guilsinglright" unicode="&#x203a;" horiz-adv-x="681" 
d="M340 131h-258l225 420l-225 420h258l242 -420z" />
    <glyph glyph-name="fraction" unicode="&#x2044;" horiz-adv-x="342" 
d="M-172 -45h-168l854 1520h168z" />
    <glyph glyph-name="Euro" unicode="&#x20ac;" 
d="M1167 246l13 -230q-115 -41 -293 -41q-141 0 -260.5 40.5t-206 112t-144 169t-81.5 213.5h-203l31 125h153q-4 43 -4 88l4 72h-184l31 125h174q54 236 238.5 385t447.5 149q186 0 338 -55l-54 -213q-98 49 -239 49q-150 0 -259.5 -81t-160.5 -234h600l-31 -125h-602
q-4 -41 -4 -74l4 -86h565l-28 -125h-504q51 -150 160 -229.5t258 -79.5q142 0 241 45z" />
    <glyph glyph-name="uni20B9" unicode="&#x20b9;" 
d="M934 0h-352l-502 621v190h223q55 0 90 2t77 11.5t66.5 26.5t42.5 48t21 76h-520v164h514q-10 40 -35 66.5t-64 38.5t-74.5 16t-84.5 4h-256v166h1046v-166h-325q63 -42 80 -125h245v-164h-239q-6 -98 -39.5 -165.5t-94 -105.5t-137 -54.5t-180.5 -16.5h-41z" />
    <glyph glyph-name="uni20BA" unicode="&#x20ba;" 
d="M494 199h28q51 0 92 9t70 29t51 43.5t36 60.5t23 70.5t14 84t7.5 91t5.5 99.5q1 31 2 47h287q-4 -142 -23.5 -252.5t-61.5 -206t-108 -158t-167 -97.5t-234 -35q-131 0 -309 16v590l-191 -76v172l191 76v141l-191 -76v168l191 76v359h287v-244l389 155v-170l-389 -155
v-142l389 156v-170l-389 -155v-506z" />
    <glyph glyph-name="uni20BC" unicode="&#x20bc;" horiz-adv-x="1693" 
d="M1624 0h-283v88q0 93 -9.5 194t-35 217.5t-64 210t-103.5 164t-146 87.5v-818h-272v818q-81 -17 -146 -87.5t-104 -164t-64.5 -210t-35 -217.5t-9.5 -194v-88h-282v129q0 139 23 276.5t74 270t124 237t181.5 175t238.5 86.5v256h272v-256q130 -16 238.5 -86.5t181.5 -175
t124 -237t74 -270t23 -276.5v-129z" />
    <glyph glyph-name="ruble" unicode="&#x20bd;" 
d="M813 283h-315v-283h-281v283h-188v180h188v123h-188v180h188v664h391q510 0 510 -431q0 -105 -37.5 -185t-106 -129.5t-158.5 -74t-200 -24.5h-118v-123h315v-180zM498 766h84q127 0 190.5 55.5t63.5 177.5q0 124 -62.5 177t-193.5 53h-82v-463z" />
    <glyph glyph-name="afii61289" unicode="&#x2113;" horiz-adv-x="1024" 
d="M821 219l80 -121q-145 -127 -317 -127q-146 0 -227 78.5t-81 204.5v145l-118 -110l-82 125l198 174v510q0 159 92 269t238 110q125 0 200 -79t75 -212q0 -153 -91.5 -306.5t-283.5 -328.5v-262q0 -70 36 -110t99 -40q82 0 182 80zM504 1139v-394q95 102 141.5 212
t46.5 214q0 67 -25 109.5t-67 42.5q-41 0 -68.5 -49.5t-27.5 -134.5z" />
    <glyph glyph-name="trademark" unicode="&#x2122;" horiz-adv-x="2048" 
d="M551 578h-213v688h-240v164h693v-164h-240v-688zM1950 578h-201v602h-4l-217 -602h-154l-217 602h-4v-602h-201v852h297l203 -533l201 533h297v-852z" />
    <glyph glyph-name="Omega" unicode="&#x2126;" horiz-adv-x="1603" 
d="M1489 0h-600l6 225q283 151 283 527q0 219 -101.5 348t-273.5 129q-180 0 -284.5 -132t-104.5 -358q0 -176 70 -308t200 -206l6 -225h-575v225h278q-144 103 -211 235.5t-67 305.5q0 203 87.5 360t245 242.5t359.5 85.5q200 0 353.5 -86.5t235 -237t81.5 -339.5
q0 -176 -74 -326.5t-207 -239.5h293v-225z" />
    <glyph glyph-name="estimated" unicode="&#x212e;" horiz-adv-x="1228" 
d="M1014 285l71 -43q-91 -147 -200.5 -212t-266.5 -65q-232 0 -380 159.5t-148 405.5q0 160 65.5 289t186.5 203t276 74q233 0 382 -156t149 -410h-827v-370q121 -121 296 -121q131 0 225.5 59.5t170.5 186.5zM918 604v297q-129 123 -304 123q-169 0 -292 -123v-297h596z
" />
    <glyph glyph-name="partialdiff" unicode="&#x2202;" horiz-adv-x="1163" 
d="M823 831h2q2 19 2 66q0 138 -43 254t-124 186t-185 70q-148 0 -264 -98l-72 182q151 117 369 117q114 0 213.5 -50.5t177 -145t122 -245t44.5 -336.5q0 -257 -68 -448t-196.5 -295t-302.5 -104q-98 0 -179.5 41.5t-133 110.5t-79.5 155t-28 178q0 231 124.5 380.5
t315.5 149.5q96 0 177.5 -47t127.5 -121zM803 625q-26 71 -90 124.5t-150 53.5q-103 0 -173.5 -102t-70.5 -242q0 -114 54.5 -193.5t146.5 -79.5q60 0 111.5 40.5t86 106.5t56 140.5t29.5 151.5z" />
    <glyph glyph-name="Delta" unicode="&#x2206;" horiz-adv-x="1492" 
d="M1466 0h-1439l555 1430h333zM1069 225l-328 963h-2l-338 -963h668z" />
    <glyph glyph-name="product" unicode="&#x220f;" horiz-adv-x="1509" 
d="M1380 -438h-221v1847h-811v-1847h-219v2048h1251v-2048z" />
    <glyph glyph-name="summation" unicode="&#x2211;" horiz-adv-x="1316" 
d="M1266 -438h-1215v176l627 858l-600 842v172h1161v-201h-868l571 -811l-608 -838h932v-198z" />
    <glyph glyph-name="minus" unicode="&#x2212;" horiz-adv-x="1228" 
d="M1135 412h-1041v213h1041v-213z" />
    <glyph glyph-name="uni2215" unicode="&#x2215;" horiz-adv-x="342" 
d="M-172 -45h-168l854 1520h168z" />
    <glyph glyph-name="uni2219" unicode="&#x2219;" horiz-adv-x="569" 
d="M285 424q-71 0 -114.5 44.5t-43.5 113.5q0 68 43.5 112.5t114.5 44.5t114 -44t43 -113t-43 -113.5t-114 -44.5z" />
    <glyph glyph-name="radical" unicode="&#x221a;" horiz-adv-x="1087" 
d="M680 -438h-207l-313 653l-103 -47l-82 174l293 133l273 -575l348 1710h223z" />
    <glyph glyph-name="infinity" unicode="&#x221e;" horiz-adv-x="1650" 
d="M825 399q-124 -132 -209.5 -178.5t-183.5 -46.5q-153 0 -247.5 100t-94.5 258t93 259.5t243 101.5q102 0 194.5 -55t204.5 -187q112 130 205 187t193 57q154 0 245 -102t91 -256q0 -163 -93 -265t-245 -102q-98 0 -194 55.5t-202 173.5zM938 526q155 -168 287 -168
q71 0 114 48t43 124q0 79 -44.5 128t-118.5 49q-53 0 -118.5 -38t-162.5 -143zM713 528q-171 177 -287 177q-69 0 -114.5 -50.5t-45.5 -124.5q0 -76 44.5 -123t121.5 -47q64 0 138 44t143 124z" />
    <glyph glyph-name="integral" unicode="&#x222b;" horiz-adv-x="1228" 
d="M465 0v1196q0 212 69.5 313t221.5 101q50 0 97 -15t82.5 -50.5t35.5 -84.5q0 -41 -30.5 -70.5t-74.5 -29.5q-26 0 -45 7.5t-31.5 24t-18.5 28.5t-15 36q-14 37 -35 37q-39 0 -39 -68q0 -49 2 -140t2 -195v-1117q0 -210 -70 -310.5t-217 -100.5q-49 0 -95 15t-80 49.5
t-34 82.5q0 43 27.5 72t71.5 29q42 0 65.5 -22t38.5 -64q18 -52 39 -52q39 0 39 66q-1 77 -3.5 155t-2.5 107z" />
    <glyph glyph-name="approxequal" unicode="&#x2248;" horiz-adv-x="1214" 
d="M1018 909h139q-17 -167 -94 -254.5t-203 -87.5q-57 0 -134.5 22.5t-209.5 72.5q-124 47 -182 47q-51 0 -85 -37.5t-48 -104.5h-140q17 164 93 254t200 90q56 0 132 -21.5t139 -47t137 -47t127 -21.5q101 0 129 135zM1014 494h139q-17 -167 -94 -254.5t-203 -87.5
q-57 0 -135.5 22.5t-208.5 71.5q-124 47 -182 47q-52 0 -85.5 -37t-47.5 -104h-140q17 164 93 254t200 90q70 0 171 -34.5t199.5 -69t164.5 -34.5q101 0 129 136z" />
    <glyph glyph-name="notequal" unicode="&#x2260;" horiz-adv-x="1214" 
d="M1139 203h-584l-160 -312l-182 95l113 217h-250v209h354l125 239h-479v207h583l158 311l182 -92l-110 -219h250v-207h-357l-123 -239h480v-209z" />
    <glyph glyph-name="lessequal" unicode="&#x2264;" horiz-adv-x="1214" 
d="M1139 205l-1063 352v211l1063 367v-220l-781 -251l781 -240v-219zM1139 -72h-1063v207h1063v-207z" />
    <glyph glyph-name="greaterequal" unicode="&#x2265;" horiz-adv-x="1214" 
d="M1139 557l-1063 -352v219l778 240l-778 251v220l1063 -367v-211zM1139 -72h-1063v207h1063v-207z" />
    <glyph glyph-name="lozenge" unicode="&#x25ca;" horiz-adv-x="1214" 
d="M702 -72h-194l-361 799l361 803h194l363 -801zM604 133l250 596l-250 594l-244 -594z" />
    <glyph glyph-name="grave.cap" unicode="&#xe300;" horiz-adv-x="569" 
d="M453 1516h-170l-281 299h281z" />
    <glyph glyph-name="acute.cap" unicode="&#xe301;" horiz-adv-x="569" 
d="M285 1516h-170l170 299h280z" />
    <glyph glyph-name="circumflex.cap" unicode="&#xe302;" horiz-adv-x="569" 
d="M606 1516h-182l-139 176l-144 -176h-182l225 299h207z" />
    <glyph glyph-name="caron.cap" unicode="&#xe303;" horiz-adv-x="569" 
d="M391 1516h-207l-225 299h182l144 -177l139 177h182z" />
    <glyph glyph-name="tilde.cap" unicode="&#xe304;" horiz-adv-x="569" 
d="M535 1796h110q0 -110 -55 -179t-144 -69q-65 0 -124 19t-106.5 38t-84.5 19q-47 0 -73.5 -27t-26.5 -63h-111q2 102 63 175t146 73q68 0 170 -43t145 -43q45 0 68 28.5t23 71.5z" />
    <glyph glyph-name="dieresis.cap" unicode="&#xe305;" horiz-adv-x="569" 
d="M190 1546h-237v238h237v-238zM612 1546h-237v238h237v-238z" />
    <glyph glyph-name="macron.cap" unicode="&#xe306;" horiz-adv-x="569" 
d="M578 1583h-590v164h590v-164z" />
    <glyph glyph-name="breve.cap" unicode="&#xe307;" horiz-adv-x="569" 
d="M492 1827h126q-8 -137 -100.5 -224t-234.5 -87q-139 0 -231.5 87.5t-100.5 223.5h127q40 -164 205 -164q168 0 209 164z" />
    <glyph glyph-name="ring.cap" unicode="&#xe308;" horiz-adv-x="569" 
d="M502 1696q0 -86 -63.5 -149.5t-151.5 -63.5q-87 0 -150 64t-63 149q0 87 63 151t150 64q89 0 152 -64t63 -151zM391 1696q0 44 -30 74t-74 30t-73.5 -30.5t-29.5 -73.5q0 -44 30 -73.5t73 -29.5q44 0 74 29.5t30 73.5z" />
    <glyph glyph-name="hungarumlaut.cap" unicode="&#xe309;" horiz-adv-x="569" 
d="M25 1516h-170l170 299h280zM428 1516h-170l170 299h281z" />
    <glyph glyph-name="dotaccent.cap" unicode="&#xe30a;" horiz-adv-x="569" 
d="M401 1546h-237v238h237v-238z" />
    <glyph glyph-name="caron.alt" unicode="&#xe30b;" horiz-adv-x="569" 
d="M178 1090h-151l32 407h236z" />
    <glyph glyph-name="commaaccent" unicode="&#xe30c;" horiz-adv-x="569" 
d="M309 -455h-205l76 320h260z" />
    <glyph glyph-name="commaaccent.alt" unicode="&#xe30d;" horiz-adv-x="569" 
d="M360 1198h-249l125 299h198z" />
    <glyph glyph-name="uniF8FF" unicode="&#xf8ff;" horiz-adv-x="1048" 
d="M1049 0h-1049v1470h1049v-1470zM946 102v1264h-844v-1264h844zM569 240h-114v137h114v-137zM555 479h-94q-4 29 -4 62q0 75 20.5 125.5t87.5 121.5q11 12 33.5 34.5t33 34t24 31t19 39.5t5.5 44q0 74 -46.5 124t-109.5 50q-69 0 -112.5 -48.5t-55.5 -146.5l-102 17
q12 135 84 207.5t192 72.5q110 0 182 -74t72 -194q0 -74 -29 -127t-102 -121q-61 -57 -78 -86.5t-18 -91.5z" />
    </font>
</defs>
</svg>
