<?xml version="1.0" standalone="no"?>
<!DOCTYPE svg PUBLIC "-//W3C//DTD SVG 1.1//EN" "http://www.w3.org/Graphics/SVG/1.1/DTD/svg11.dtd" >
<svg xmlns="http://www.w3.org/2000/svg" xmlns:xlink="http://www.w3.org/1999/xlink" version="1.1">
<metadata>
Created by FontForge 20201107 at Sat Aug  3 09:41:41 2024
 By 
Copyright (c) 2014 - 2016 Monotype Imaging Inc. All rights reserved.
</metadata>
<defs>
<font id="FrutigerLTPro-Black" horiz-adv-x="1251" >
  <font-face 
    font-family="Frutiger LT Pro 55 Roman"
    font-weight="800"
    font-stretch="normal"
    units-per-em="2048"
    panose-1="2 11 8 3 3 5 4 3 2 4"
    ascent="1536"
    descent="-512"
    x-height="1067"
    cap-height="1430"
    bbox="-336 -512 2048 1954"
    underline-thickness="102"
    underline-position="-255"
    unicode-range="U+000D-FB02"
  />
<missing-glyph horiz-adv-x="1048" 
d="M1049 0h-1049v1470h1049v-1470zM946 102v1264h-844v-1264h844zM555 479h-94q-4 29 -4 62q0 75 20.5 125.5t87.5 121.5q11 12 33.5 34.5t33 34t24 31t19 39.5t5.5 44q0 74 -46.5 124t-109.5 50q-69 0 -112.5 -48.5t-55.5 -146.5l-102 17q12 135 84 207.5t192 72.5
q110 0 182 -74t72 -194q0 -74 -29 -127t-102 -121q-61 -57 -78 -86.5t-18 -91.5zM569 240h-114v137h114v-137z" />
    <glyph glyph-name="fi" unicode="fi" horiz-adv-x="1593" 
d="M612 0h-368v809h-217v258h223v72q0 102 23 177.5t61.5 121.5t97 74.5t120.5 38.5t142 10q69 0 189 -21l-23 -254q-56 17 -115 17q-133 0 -133 -173v-63h262v-258h-262v-809zM1434 1241h-369v270h369v-270zM1434 0h-369v1067h369v-1067z" />
    <glyph glyph-name="fl" unicode="fl" horiz-adv-x="1593" 
d="M612 0h-368v809h-217v258h223v72q0 102 23 177.5t61.5 121.5t97 74.5t120.5 38.5t142 10q69 0 189 -21l-23 -254q-56 17 -115 17q-133 0 -133 -173v-63h262v-258h-262v-809zM1436 0h-369v1536h369v-1536z" />
    <glyph glyph-name=".notdef" horiz-adv-x="1048" 
d="M1049 0h-1049v1470h1049v-1470zM946 102v1264h-844v-1264h844zM555 479h-94q-4 29 -4 62q0 75 20.5 125.5t87.5 121.5q11 12 33.5 34.5t33 34t24 31t19 39.5t5.5 44q0 74 -46.5 124t-109.5 50q-69 0 -112.5 -48.5t-55.5 -146.5l-102 17q12 135 84 207.5t192 72.5
q110 0 182 -74t72 -194q0 -74 -29 -127t-102 -121q-61 -57 -78 -86.5t-18 -91.5zM569 240h-114v137h114v-137z" />
    <glyph glyph-name=".null" horiz-adv-x="0" 
 />
    <glyph glyph-name="nonmarkingreturn" horiz-adv-x="682" 
 />
    <glyph glyph-name="NULL" horiz-adv-x="0" 
 />
    <glyph glyph-name="NULL" horiz-adv-x="0" 
 />
    <glyph glyph-name="CR" unicode="&#xd;" horiz-adv-x="626" 
 />
    <glyph glyph-name="space" unicode=" " horiz-adv-x="626" 
 />
    <glyph glyph-name="exclam" unicode="!" horiz-adv-x="909" 
d="M592 485h-275l-53 945h381zM627 0h-344v332h344v-332z" />
    <glyph glyph-name="quotedbl" unicode="&#x22;" 
d="M561 874h-270v556h270v-556zM961 874h-271v556h271v-556z" />
    <glyph glyph-name="numbersign" unicode="#" horiz-adv-x="1253" 
d="M848 0h-215l53 383h-178l-53 -383h-217l53 383h-172v221h203l30 225h-172v222h203l53 379h217l-53 -379h178l51 379h215l-51 -379h142v-222h-172l-31 -225h141v-221h-172zM717 604l31 225h-179l-30 -225h178z" />
    <glyph glyph-name="dollar" unicode="$" horiz-adv-x="1253" 
d="M668 -201h-123v176q-115 0 -238 16.5t-176 37.5l27 290q185 -73 387 -73v346q-218 35 -342.5 150.5t-124.5 281.5q0 193 127 305.5t366 124.5v174h123v-174q118 0 219.5 -17.5t159.5 -45.5l-24 -277q-78 38 -176 60t-179 22v-309l70 -17q124 -29 207.5 -74.5
t127.5 -106.5t61.5 -125.5t17.5 -147.5q0 -132 -68.5 -232.5t-183 -153t-258.5 -55.5v-176zM571 911v285q-71 -3 -116 -43t-45 -96q0 -59 42.5 -98t118.5 -48zM668 573v-327q178 16 178 176q0 121 -178 151z" />
    <glyph glyph-name="percent" unicode="%" horiz-adv-x="2048" 
d="M743 -45h-225l782 1520h224zM457 606q-359 0 -359 424q0 208 90.5 316t268.5 108q177 0 267.5 -108.5t90.5 -315.5q0 -424 -358 -424zM457 791q33 0 53 15.5t33.5 70t13.5 153.5q0 131 -22.5 185.5t-77.5 54.5q-35 0 -56 -18.5t-33 -72t-12 -149.5q0 -99 14 -153.5
t34 -70t53 -15.5zM1591 -25q-358 0 -358 424q0 208 91 316t267 108q177 0 268 -108.5t91 -315.5q0 -424 -359 -424zM1591 160q20 0 33.5 4.5t27.5 18.5t22 39.5t13 70t5 106.5q0 98 -12.5 152t-33.5 71t-57 17q-32 0 -51.5 -15t-33 -69.5t-13.5 -155.5q0 -74 6.5 -122.5
t20.5 -73.5t30.5 -34t42.5 -9z" />
    <glyph glyph-name="ampersand" unicode="&#x26;" horiz-adv-x="1593" 
d="M1569 0h-408q-67 90 -86 109q-152 -134 -442 -134q-152 0 -274 50.5t-195.5 150.5t-73.5 234q0 136 67 229t214 160q-172 135 -172 313q0 86 38.5 153t105.5 107.5t151.5 61t181.5 20.5q228 0 360.5 -90.5t132.5 -257.5q0 -47 -11.5 -86t-43 -84.5t-94.5 -94t-158 -100.5
q129 -114 246 -227q87 95 94 258h332q-6 -138 -62.5 -263.5t-156.5 -225.5zM664 901q94 52 134 97t40 96q0 57 -43.5 92t-116.5 35q-65 0 -108.5 -36t-43.5 -91q0 -87 138 -193zM885 299q-101 112 -318 315q-65 -34 -97 -79t-32 -115q0 -91 69.5 -145t162.5 -54q61 0 110 18
t105 60z" />
    <glyph glyph-name="quotesingle" unicode="'" horiz-adv-x="681" 
d="M477 874h-270v556h270v-556z" />
    <glyph glyph-name="parenleft" unicode="(" horiz-adv-x="796" 
d="M754 -287h-291q-322 433 -322 918q0 447 326 917h301q-295 -461 -295 -917q0 -439 281 -918z" />
    <glyph glyph-name="parenright" unicode=")" horiz-adv-x="796" 
d="M330 -287h-301q295 464 295 918q0 458 -295 917h301q159 -206 242 -440t83 -477q0 -448 -325 -918z" />
    <glyph glyph-name="asterisk" unicode="*" 
d="M969 764l-207 -150l-137 265l-148 -263l-201 146l211 211l-290 55l77 238l273 -136l-43 300h250l-41 -295l266 131l76 -240l-295 -51z" />
    <glyph glyph-name="plus" unicode="+" horiz-adv-x="1228" 
d="M743 0h-258v389h-389v258h389v389h258v-389h390v-258h-390v-389z" />
    <glyph glyph-name="comma" unicode="," horiz-adv-x="626" 
d="M285 -223h-281l137 555h344z" />
    <glyph glyph-name="hyphen" unicode="-" horiz-adv-x="681" 
d="M618 416h-555v270h555v-270z" />
    <glyph glyph-name="period" unicode="." horiz-adv-x="626" 
d="M485 0h-344v332h344v-332z" />
    <glyph glyph-name="slash" unicode="/" horiz-adv-x="569" 
d="M215 -25h-258l397 1479h258z" />
    <glyph glyph-name="zero" unicode="0" horiz-adv-x="1253" 
d="M627 -25q-184 0 -304.5 72.5t-185.5 238t-65 429.5t64.5 429t185 237.5t305.5 72.5q283 0 419 -176t136 -563q0 -389 -137 -564.5t-418 -175.5zM627 233q63 0 102.5 42t61.5 149.5t22 290.5q0 182 -21.5 289t-61 149.5t-103.5 42.5q-63 0 -102.5 -41.5t-62 -149
t-22.5 -290.5q0 -138 12 -233t37 -149t58 -77t80 -23z" />
    <glyph glyph-name="one" unicode="1" horiz-adv-x="1253" 
d="M954 0h-381v1049l-270 -193l-170 258l485 316h336v-1430z" />
    <glyph glyph-name="two" unicode="2" horiz-adv-x="1253" 
d="M1120 0h-1034v272q318 273 434 394q193 201 193 325q0 86 -53 133t-150 47q-86 0 -193.5 -28t-181.5 -70l-14 297q234 84 426 84q257 0 402 -111t145 -309q0 -325 -539 -764h565v-270z" />
    <glyph glyph-name="three" unicode="3" horiz-adv-x="1253" 
d="M844 750v-5q136 -28 210 -112.5t74 -212.5q0 -93 -33 -168.5t-90 -126.5t-137 -85t-171.5 -49.5t-196.5 -15.5q-275 0 -414 50l18 301q118 -68 351 -68q58 0 108.5 10t93 30.5t67 57t24.5 84.5q0 79 -66 121.5t-199 42.5q-65 0 -155 -4v254q35 -4 143 -4q117 0 185.5 44
t68.5 114q0 163 -248 163q-204 0 -330 -57l-18 281q201 59 414 59q268 0 415.5 -99t147.5 -292q0 -117 -68.5 -198t-193.5 -115z" />
    <glyph glyph-name="four" unicode="4" horiz-adv-x="1253" 
d="M1012 0h-357v272h-639v303l574 855h422v-900h202v-258h-202v-272zM680 530v605h-4l-389 -605h393z" />
    <glyph glyph-name="five" unicode="5" horiz-adv-x="1253" 
d="M139 27l6 309q160 -78 349 -78q140 0 214 59t74 170q0 104 -88 156.5t-231 52.5q-181 0 -309 -34l10 768h932v-259h-604v-237q116 8 118 8q86 0 163.5 -15t147 -49.5t120.5 -85t80.5 -125.5t29.5 -167q0 -255 -165 -390t-466 -135q-178 0 -381 52z" />
    <glyph glyph-name="six" unicode="6" horiz-adv-x="1253" 
d="M1085 1389l-22 -281q-111 76 -299 76q-172 0 -253.5 -101.5t-82.5 -318.5h4q103 145 309 145q189 0 308.5 -125.5t119.5 -324.5q0 -205 -153.5 -344.5t-382.5 -139.5q-268 0 -408.5 179t-140.5 499q0 384 158.5 592.5t474.5 208.5q203 0 368 -65zM631 221q87 0 134.5 58
t47.5 145q0 102 -46 164.5t-136 62.5q-87 0 -137 -60.5t-50 -150.5q0 -93 50 -156t137 -63z" />
    <glyph glyph-name="seven" unicode="7" horiz-adv-x="1253" 
d="M618 0h-409l532 1159h-639v271h1028v-310z" />
    <glyph glyph-name="eight" unicode="8" horiz-adv-x="1253" 
d="M897 760v-4q148 -45 218.5 -132t70.5 -221q0 -205 -150 -316.5t-411 -111.5q-265 0 -411 106t-146 302q0 270 282 352v2q-108 37 -177 121.5t-69 183.5q0 199 141.5 305.5t395.5 106.5q231 0 361.5 -96t130.5 -271q0 -113 -60.5 -198t-175.5 -129zM627 852
q88 50 124.5 96t36.5 109q0 71 -51 111t-123 40q-68 0 -116.5 -47.5t-48.5 -120.5q0 -59 38.5 -103.5t139.5 -84.5zM602 625q-86 -40 -126 -91t-40 -122q0 -75 54 -127t131 -52q85 0 140.5 50.5t55.5 134.5q0 144 -215 207z" />
    <glyph glyph-name="nine" unicode="9" horiz-adv-x="1253" 
d="M825 666h-4q-104 -146 -309 -146q-191 0 -309.5 126.5t-118.5 324.5q0 203 153 343t384 140q269 0 408.5 -179.5t139.5 -500.5q0 -387 -159.5 -593t-470.5 -206q-204 0 -371 66l22 281q113 -76 302 -76q169 0 250.5 101t82.5 319zM623 778q87 0 136.5 59.5t49.5 151.5
q0 95 -49.5 157t-136.5 62q-84 0 -133.5 -56t-49.5 -146q0 -104 47 -166t136 -62z" />
    <glyph glyph-name="colon" unicode=":" horiz-adv-x="626" 
d="M485 735h-344v332h344v-332zM485 0h-344v332h344v-332z" />
    <glyph glyph-name="semicolon" unicode=";" horiz-adv-x="626" 
d="M485 735h-344v332h344v-332zM285 -223h-281l137 555h344z" />
    <glyph glyph-name="less" unicode="&#x3c;" horiz-adv-x="1228" 
d="M1133 -16l-1037 426v217l1037 426v-250l-699 -285l699 -285v-249z" />
    <glyph glyph-name="equal" unicode="=" horiz-adv-x="1228" 
d="M1133 625h-1037v258h1037v-258zM1133 154h-1037v258h1037v-258z" />
    <glyph glyph-name="greater" unicode="&#x3e;" horiz-adv-x="1228" 
d="M1133 410l-1037 -426v249l699 285l-699 285v250l1037 -426v-217z" />
    <glyph glyph-name="question" unicode="?" horiz-adv-x="1138" 
d="M723 485h-299v4q0 143 135 306q74 88 101.5 139t27.5 102q0 69 -67.5 108.5t-159.5 39.5q-171 0 -320 -76l-8 287q191 59 428 59q100 0 187.5 -21t157.5 -61.5t110.5 -108t40.5 -153.5q0 -84 -38 -155.5t-122 -159.5q-87 -92 -127.5 -161.5t-46.5 -148.5zM745 0h-344v332
h344v-332z" />
    <glyph glyph-name="at" unicode="@" horiz-adv-x="1638" 
d="M1255 281h209q-221 -306 -596 -306q-222 0 -403 94.5t-285 264.5t-104 381q0 210 100.5 379t279 264.5t400.5 95.5q194 0 354.5 -73.5t256.5 -211.5t96 -313q0 -224 -129 -373q-60 -70 -144 -117.5t-145 -64t-103 -16.5q-45 0 -75 25t-31 75h-4q-39 -44 -93.5 -72
t-113.5 -28q-130 0 -222.5 113t-92.5 282q0 109 48.5 202.5t139 151.5t201.5 58q161 0 245 -117l19 96h192l-67 -416q-3 -19 -9 -48t-10 -49.5t-4 -31.5q0 -34 27 -34q66 0 120 78.5t54 230.5q0 224 -133 340t-391 116q-239 0 -386 -153t-147 -393q0 -251 149 -395t406 -144
q234 0 391 109zM803 481q87 0 138.5 62t51.5 162q0 82 -46.5 136t-125.5 54q-82 0 -136 -64t-54 -153q0 -87 45.5 -142t126.5 -55z" />
    <glyph glyph-name="A" unicode="A" horiz-adv-x="1593" 
d="M1577 0h-418l-106 305h-537l-113 -305h-387l543 1430h467zM963 575l-170 560h-5l-184 -560h359z" />
    <glyph glyph-name="B" unicode="B" horiz-adv-x="1366" 
d="M725 0h-602v1430h653q221 0 345 -95.5t124 -267.5q0 -253 -252 -334v-4q289 -59 289 -315q0 -210 -146 -312t-411 -102zM504 864h104q256 0 256 152q0 39 -15 66t-36.5 42t-58 23t-67.5 10t-77 2h-106v-295zM504 270h125q70 0 121 10.5t79.5 26.5t45 39.5t21.5 44t5 45.5
q0 96 -70.5 133t-205.5 37h-121v-336z" />
    <glyph glyph-name="C" unicode="C" horiz-adv-x="1366" 
d="M1307 332l18 -299q-224 -58 -422 -58q-137 0 -259.5 29t-226 89.5t-178.5 146.5t-117 206t-42 263q0 348 218.5 546.5t598.5 198.5q179 0 426 -74l-31 -309q-181 100 -370 100q-200 0 -324.5 -128.5t-124.5 -333.5q0 -202 130 -326.5t347 -124.5q169 0 357 74z" />
    <glyph glyph-name="D" unicode="D" horiz-adv-x="1593" 
d="M655 0h-522v1430h520q440 0 643 -173t203 -536q0 -360 -214.5 -540.5t-629.5 -180.5zM514 283h152q209 0 324.5 109.5t115.5 322.5q0 209 -115 320.5t-329 111.5h-148v-864z" />
    <glyph glyph-name="E" unicode="E" 
d="M1153 0h-1030v1430h1007v-271h-626v-295h592v-270h-592v-324h649v-270z" />
    <glyph glyph-name="F" unicode="F" horiz-adv-x="1138" 
d="M504 0h-381v1430h956v-271h-575v-313h551v-271h-551v-575z" />
    <glyph glyph-name="G" unicode="G" horiz-adv-x="1593" 
d="M1085 283v282h-223v271h592v-795q-147 -36 -270 -51t-279 -15q-135 0 -256.5 28.5t-225.5 87.5t-180.5 144.5t-119.5 207t-43 266.5q0 366 231 555.5t670 189.5q274 0 434 -63l-31 -312q-159 92 -350 92q-273 0 -417 -123t-144 -339q0 -204 130.5 -327.5t344.5 -123.5
q82 0 137 25z" />
    <glyph glyph-name="H" unicode="H" horiz-adv-x="1478" 
d="M1346 0h-381v612h-451v-612h-381v1430h381v-547h451v547h381v-1430z" />
    <glyph glyph-name="I" unicode="I" horiz-adv-x="684" 
d="M532 0h-380v1430h380v-1430z" />
    <glyph glyph-name="J" unicode="J" horiz-adv-x="909" 
d="M29 14v316q76 -35 172 -35q194 0 194 309v826h381v-945q0 -510 -510 -510q-81 0 -237 39z" />
    <glyph glyph-name="K" unicode="K" horiz-adv-x="1478" 
d="M1448 0h-485l-445 649h-4v-649h-381v1430h381v-584h4l430 584h459l-528 -666z" />
    <glyph glyph-name="L" unicode="L" horiz-adv-x="1138" 
d="M1104 0h-971v1430h381v-1147h590v-283z" />
    <glyph glyph-name="M" unicode="M" horiz-adv-x="2048" 
d="M1925 0h-373l7 1098h-5l-364 -1098h-350l-348 1098h-5l9 -1098h-373v1430h600l303 -951h4l318 951h577v-1430z" />
    <glyph glyph-name="N" unicode="N" horiz-adv-x="1593" 
d="M1454 0h-473l-500 977h-4l12 -977h-350v1430h486l483 -971h4l-6 971h348v-1430z" />
    <glyph glyph-name="O" unicode="O" horiz-adv-x="1593" 
d="M797 -25q-340 0 -528.5 195t-188.5 545q0 353 186.5 546t530.5 193q343 0 529.5 -193t186.5 -546q0 -351 -187 -545.5t-529 -194.5zM799 258q152 0 236.5 125.5t84.5 331.5q0 214 -84 335t-239 121q-154 0 -239 -119.5t-85 -336.5q0 -204 84 -330.5t242 -126.5z" />
    <glyph glyph-name="P" unicode="P" 
d="M494 0h-381v1430h458q321 0 479 -113t158 -356q0 -149 -72.5 -254t-198 -156t-292.5 -51h-151v-500zM494 770h94q239 0 239 197q0 192 -237 192h-96v-389z" />
    <glyph glyph-name="Q" unicode="Q" horiz-adv-x="1593" 
d="M1487 -270h-430l-240 245h-14q-347 0 -535 194.5t-188 545.5q0 353 186 546t531 193q344 0 530 -192.5t186 -546.5q0 -243 -92.5 -415t-271.5 -253zM797 258q153 0 238 124.5t85 332.5q0 215 -84.5 335.5t-238.5 120.5t-239 -119.5t-85 -336.5q0 -209 86 -333t238 -124z
" />
    <glyph glyph-name="R" unicode="R" horiz-adv-x="1366" 
d="M1331 0h-397l-90 283q-30 94 -57.5 151t-60.5 85.5t-65 37t-83 8.5h-74v-565h-381v1430h674q218 0 342.5 -95.5t124.5 -265.5q0 -143 -69 -235.5t-206 -124.5v-4q69 -19 102 -72t89 -209zM504 836h121q60 0 102.5 6.5t80 23.5t56.5 51t19 84q0 86 -70.5 122t-210.5 36
h-98v-323z" />
    <glyph glyph-name="S" unicode="S" 
d="M104 37l33 315q174 -94 391 -94q123 0 180.5 34.5t57.5 104.5q0 69 -58 109t-192 78q-82 23 -140 45.5t-115.5 58t-92.5 78.5t-56.5 106.5t-21.5 143.5q0 212 166 325t459 113q212 0 366 -53l-24 -295q-142 65 -318 65q-127 0 -191.5 -31t-64.5 -102q0 -28 15 -51
t34 -37.5t61.5 -31t71 -25t88.5 -24.5q7 -2 11 -3q210 -56 302.5 -156t92.5 -264q0 -232 -161.5 -351.5t-467.5 -119.5q-228 0 -426 62z" />
    <glyph glyph-name="T" unicode="T" horiz-adv-x="1138" 
d="M760 0h-381v1147h-352v283h1085v-283h-352v-1147z" />
    <glyph glyph-name="U" unicode="U" horiz-adv-x="1478" 
d="M985 600v830h381v-891q0 -269 -163 -416.5t-464 -147.5q-304 0 -465 148.5t-161 415.5v891h381v-826q0 -346 245 -346q246 0 246 342z" />
    <glyph glyph-name="V" unicode="V" horiz-adv-x="1478" 
d="M971 0h-471l-480 1430h406l317 -1123h5l319 1123h391z" />
    <glyph glyph-name="W" unicode="W" horiz-adv-x="2048" 
d="M1712 0h-489l-203 1098h-4l-189 -1098h-493l-318 1430h390l184 -1098h4l192 1098h484l200 -1098h5l186 1098h371z" />
    <glyph glyph-name="X" unicode="X" horiz-adv-x="1478" 
d="M1458 0h-454l-277 526l-274 -526h-433l463 752l-413 678h444l240 -472l245 472h418l-418 -678z" />
    <glyph glyph-name="Y" unicode="Y" horiz-adv-x="1478" 
d="M932 0h-381v539l-528 891h438l280 -574l277 574h438l-524 -891v-539z" />
    <glyph glyph-name="Z" unicode="Z" 
d="M1171 0h-1118v303l680 844h-661v283h1095v-304l-700 -843h704v-283z" />
    <glyph glyph-name="bracketleft" unicode="[" horiz-adv-x="796" 
d="M721 -287h-541v1835h541v-233h-234v-1368h234v-234z" />
    <glyph glyph-name="backslash" unicode="\" horiz-adv-x="569" 
d="M612 -25h-258l-397 1479h258z" />
    <glyph glyph-name="bracketright" unicode="]" horiz-adv-x="796" 
d="M616 -287h-540v234h233v1368h-233v233h540v-1835z" />
    <glyph glyph-name="asciicircum" unicode="^" horiz-adv-x="1228" 
d="M1085 682h-249l-222 465l-221 -465h-250l357 748h229z" />
    <glyph glyph-name="underscore" unicode="_" horiz-adv-x="1024" 
d="M1024 -256h-1024v102h1024v-102z" />
    <glyph glyph-name="grave" unicode="`" horiz-adv-x="681" 
d="M504 1198h-258l-264 295h383z" />
    <glyph glyph-name="a" unicode="a" 
d="M1151 0h-338l-4 74q-4 58 -4 94h-4q-63 -100 -144 -146.5t-194 -46.5q-178 0 -289 90t-111 246q0 181 143 273t408 92q93 0 172 -14q-2 92 -60.5 138t-182.5 46q-197 0 -340 -80l-6 250q188 76 424 76q249 0 379 -117t130 -322v-413q0 -128 21 -240zM786 473
q-123 6 -153 6q-107 0 -166 -35.5t-59 -105.5q0 -54 41.5 -85.5t109.5 -31.5q99 0 163 76t64 176z" />
    <glyph glyph-name="b" unicode="b" horiz-adv-x="1368" 
d="M446 0h-340v1536h371v-606h4q129 162 367 162q86 0 160.5 -31t128 -84.5t92 -122.5t57.5 -146t19 -155q0 -254 -132 -416t-356 -162q-121 0 -224.5 60t-141.5 155h-5v-190zM700 258q102 0 163 78.5t61 208.5q0 113 -61 188.5t-165 75.5q-97 0 -160 -78t-63 -201
q0 -114 65 -193t160 -79z" />
    <glyph glyph-name="c" unicode="c" horiz-adv-x="1024" 
d="M977 297l8 -274q-142 -48 -301 -48q-275 0 -448 152t-173 405q0 254 171.5 407t449.5 153q170 0 293 -60l-27 -270q-99 59 -223 59q-125 0 -204 -81t-79 -214q0 -122 89 -201t217 -79q133 0 227 51z" />
    <glyph glyph-name="d" unicode="d" horiz-adv-x="1368" 
d="M1262 0h-340v190h-4q-39 -96 -142.5 -155.5t-224.5 -59.5q-150 0 -262 76.5t-169 206.5t-57 295q0 103 31.5 199t88.5 172t145 122t192 46q128 0 216 -40t151 -122h4v606h371v-1536zM668 258q95 0 160 79t65 193q0 122 -62 200.5t-165 78.5q-97 0 -159.5 -73.5
t-62.5 -190.5q0 -130 61 -208.5t163 -78.5z" />
    <glyph glyph-name="e" unicode="e" 
d="M1075 303v-260q-172 -68 -391 -68q-277 0 -449 153.5t-172 406.5q0 254 156.5 405.5t415.5 151.5q122 0 219.5 -36.5t169.5 -109.5t111 -190.5t39 -272.5v-57h-738q28 -205 314 -205q171 0 325 82zM432 635h410q0 106 -53.5 164.5t-151.5 58.5q-88 0 -143 -58t-62 -165z
" />
    <glyph glyph-name="f" unicode="f" horiz-adv-x="909" 
d="M612 0h-368v809h-217v258h223v72q0 102 23 177.5t61.5 121.5t97 74.5t120.5 38.5t142 10q69 0 189 -21l-23 -254q-56 17 -115 17q-133 0 -133 -173v-63h262v-258h-262v-809z" />
    <glyph glyph-name="g" unicode="g" horiz-adv-x="1368" 
d="M901 127v55h-4q-128 -182 -358 -182q-214 0 -345 146.5t-131 390.5q0 260 126 407.5t356 147.5q115 0 208.5 -58t153.5 -160h4v193h334v-936q0 -209 -62 -335.5t-203 -188.5t-378 -62q-219 0 -407 68l18 291q98 -49 180 -68.5t178 -19.5q330 0 330 311zM653 283
q101 0 168.5 77t67.5 197q0 45 -13.5 88t-40.5 80.5t-74.5 60.5t-109.5 23q-96 0 -151.5 -75t-55.5 -191q0 -121 62 -190.5t147 -69.5z" />
    <glyph glyph-name="h" unicode="h" horiz-adv-x="1366" 
d="M1251 0h-368v518q0 266 -170 266q-230 0 -230 -331v-453h-368v1536h368v-627h4q131 183 357 183q197 0 302 -118t105 -310v-664z" />
    <glyph glyph-name="i" unicode="i" horiz-adv-x="684" 
d="M526 1241h-368v270h368v-270zM526 0h-368v1067h368v-1067z" />
    <glyph glyph-name="j" unicode="j" horiz-adv-x="684" 
d="M526 1241h-368v270h368v-270zM-51 -436l8 233q40 -6 76 -6q21 0 37.5 3.5t33.5 15.5t28.5 32.5t18.5 57t7 86.5v1081h368v-1081q0 -226 -90 -333.5t-282 -107.5q-115 0 -205 19z" />
    <glyph glyph-name="k" unicode="k" 
d="M1229 0h-447l-295 528h-4v-528h-368v1536h368v-918h4l308 449h403l-371 -489z" />
    <glyph glyph-name="l" unicode="l" horiz-adv-x="684" 
d="M526 0h-368v1536h368v-1536z" />
    <glyph glyph-name="m" unicode="m" horiz-adv-x="2048" 
d="M1933 0h-368v575q0 93 -36.5 151t-111.5 58q-107 0 -158 -88t-51 -239v-457h-368v571q0 103 -38 158t-110 55q-102 0 -155.5 -84t-53.5 -247v-453h-368v1067h336v-197h4q50 105 150.5 163.5t238.5 58.5q117 0 204.5 -51.5t129.5 -153.5q58 98 155.5 151.5t222.5 53.5
q208 0 292.5 -108.5t84.5 -344.5v-639z" />
    <glyph glyph-name="n" unicode="n" horiz-adv-x="1366" 
d="M1251 0h-368v518q0 266 -170 266q-230 0 -230 -331v-453h-368v1067h336v-197h4q50 105 150.5 163.5t238.5 58.5q197 0 302 -118t105 -310v-664z" />
    <glyph glyph-name="o" unicode="o" horiz-adv-x="1368" 
d="M1305 532q0 -250 -171.5 -403.5t-449.5 -153.5t-449.5 152.5t-171.5 404.5t170.5 406t450.5 154q279 0 450 -154t171 -406zM684 233q112 0 176 80t64 219q0 138 -63 220t-179 82q-110 0 -174 -81t-64 -221q0 -139 64 -219t176 -80z" />
    <glyph glyph-name="p" unicode="p" horiz-adv-x="1368" 
d="M475 -430h-369v1497h340v-193h5q51 103 155 160.5t242 57.5q103 0 191 -46t145 -121.5t89 -172t32 -199.5q0 -254 -132 -416t-356 -162q-113 0 -203 45.5t-135 129.5h-4v-580zM700 258q102 0 163 78.5t61 208.5q0 113 -61 188.5t-165 75.5q-97 0 -160 -78t-63 -201
q0 -115 65.5 -193.5t159.5 -78.5z" />
    <glyph glyph-name="q" unicode="q" horiz-adv-x="1368" 
d="M1262 -430h-369v580h-4q-45 -84 -135 -129.5t-203 -45.5q-148 0 -259.5 74.5t-170 205t-58.5 298.5q0 102 31.5 198t88 172.5t144.5 122.5t193 46q139 0 243.5 -57.5t154.5 -160.5h4v193h340v-1497zM668 258q94 0 159.5 78.5t65.5 193.5q0 121 -61.5 200t-165.5 79
q-97 0 -159.5 -73.5t-62.5 -190.5q0 -130 61 -208.5t163 -78.5z" />
    <glyph glyph-name="r" unicode="r" horiz-adv-x="909" 
d="M483 0h-368v1067h336v-197h4q53 113 130 167.5t185 54.5q40 0 125 -13l-18 -307q-40 12 -123 12q-126 0 -198.5 -85t-72.5 -250v-449z" />
    <glyph glyph-name="s" unicode="s" horiz-adv-x="1024" 
d="M74 27l20 268q172 -74 346 -74q89 0 119.5 24t30.5 64q0 48 -46 71t-206 66q-72 20 -124.5 49t-80.5 58t-43.5 66.5t-19.5 64.5t-4 61q0 111 65.5 191.5t166.5 118t224 37.5q216 0 373 -62l-29 -256q-52 32 -131.5 52t-154.5 20q-81 0 -125.5 -19t-44.5 -55
q0 -42 46.5 -65.5t166.5 -49.5q103 -23 172.5 -57.5t103.5 -79t46.5 -88.5t12.5 -100q0 -174 -127.5 -265.5t-371.5 -91.5q-223 0 -385 52z" />
    <glyph glyph-name="t" unicode="t" horiz-adv-x="909" 
d="M860 236l12 -240q-155 -21 -231 -21q-220 0 -315 90.5t-95 299.5v444h-211v258h218v240l362 112v-352h258v-258h-258v-399q0 -102 34.5 -145.5t113.5 -43.5q18 0 112 15z" />
    <glyph glyph-name="u" unicode="u" horiz-adv-x="1366" 
d="M1251 0h-336v197h-4q-50 -105 -150.5 -163.5t-238.5 -58.5q-101 0 -179.5 33t-128 91t-74.5 134.5t-25 167.5v666h368v-518q0 -266 170 -266q230 0 230 329v455h368v-1067z" />
    <glyph glyph-name="v" unicode="v" 
d="M836 0h-420l-396 1067h396l221 -760h4l223 760h367z" />
    <glyph glyph-name="w" unicode="w" horiz-adv-x="1933" 
d="M1589 0h-428l-180 772h-4l-203 -772h-428l-328 1067h385l172 -768h5l184 768h442l180 -768h5l168 768h356z" />
    <glyph glyph-name="x" unicode="x" 
d="M1233 0h-445l-178 332l-176 -332h-416l363 543l-334 524h436l158 -319l166 319h403l-333 -520z" />
    <glyph glyph-name="y" unicode="y" 
d="M92 -430l25 280q67 -22 143 -22q71 0 119.5 38.5t69.5 108.5l-433 1092h398l229 -696h4l219 696h369l-438 -1114q-81 -214 -188 -311t-287 -97q-111 0 -230 25z" />
    <glyph glyph-name="z" unicode="z" horiz-adv-x="1024" 
d="M971 0h-918v295l488 502h-478v270h900v-295l-488 -502h496v-270z" />
    <glyph glyph-name="braceleft" unicode="{" horiz-adv-x="796" 
d="M735 -287h-203q-126 0 -210 73t-84 208v397q0 67 -46 107t-131 41v184q85 1 131 36t46 97v414q0 125 80.5 201.5t216.5 76.5h200v-184h-94q-69 0 -95 -33.5t-26 -93.5v-375q0 -109 -63 -165t-174 -64v-4q51 -3 88.5 -13t73.5 -35t55.5 -74.5t19.5 -121.5v-362
q0 -63 28.5 -94t92.5 -31h94v-185z" />
    <glyph glyph-name="bar" unicode="|" horiz-adv-x="454" 
d="M356 -512h-258v2048h258v-2048z" />
    <glyph glyph-name="braceright" unicode="}" horiz-adv-x="796" 
d="M268 -287h-207v185h93q65 0 93.5 30t28.5 99v374q0 98 58 158.5t180 69.5v4q-71 2 -120.5 23t-74 57.5t-34 75.5t-9.5 88v362q0 65 -29.5 95t-88.5 30h-97v184h199q144 0 221.5 -79t77.5 -197v-402q0 -66 45 -106t131 -41v-184q-83 -2 -129.5 -36.5t-46.5 -99.5v-411
q0 -133 -84.5 -206t-206.5 -73z" />
    <glyph glyph-name="asciitilde" unicode="~" horiz-adv-x="1228" 
d="M1014 723l73 -223q-90 -176 -256 -176q-92 0 -241 69q-47 22 -73 32.5t-60 20t-62 9.5q-44 0 -85.5 -30.5t-94.5 -111.5l-74 224q92 176 256 176q58 0 114.5 -18.5t135.5 -55.5q121 -57 187 -57q44 0 86 30t94 111z" />
    <glyph glyph-name="uni00A0" unicode="&#xa0;" horiz-adv-x="626" 
 />
    <glyph glyph-name="exclamdown" unicode="&#xa1;" horiz-adv-x="909" 
d="M627 735h-344v332h344v-332zM645 -362h-381l53 944h275z" />
    <glyph glyph-name="cent" unicode="&#xa2;" horiz-adv-x="1253" 
d="M586 -287h-123l88 293q-192 55 -296.5 193.5t-104.5 332.5q0 254 171 407t455 153q47 0 101 -7l73 240h121l-80 -264q17 -5 72 -29l-27 -270q-64 38 -121 51l-165 -555q43 -12 86 -12q133 0 227 51l8 -274q-142 -48 -301 -48q-44 0 -102 7zM643 307l154 514
q-125 -6 -196 -88.5t-71 -206.5q0 -69 30.5 -125.5t82.5 -93.5z" />
    <glyph glyph-name="sterling" unicode="&#xa3;" horiz-adv-x="1253" 
d="M1139 0h-1030v270h188v389h-172v185h176v98q0 44 3.5 82t17 92.5t37 98.5t67 90t102.5 77.5t149.5 51.5t201.5 20q128 0 276 -37l-16 -270q-71 24 -164 24q-51 0 -90 -5t-79.5 -20.5t-67 -42.5t-43.5 -74t-17 -111v-74h311v-185h-311v-389h461v-270z" />
    <glyph glyph-name="currency" unicode="&#xa4;" horiz-adv-x="1253" 
d="M1159 309l-129 -127l-117 111q-49 -39 -131 -62.5t-155 -23.5q-74 0 -155.5 23t-131.5 63l-117 -111l-129 127l119 117q-44 42 -69 121t-25 168t25 167t69 122l-119 116l129 127l117 -110q53 41 132.5 63.5t154.5 22.5t154 -22.5t132 -63.5l117 110l129 -127l-119 -116
q43 -43 69 -120.5t26 -168.5q0 -90 -26 -169t-69 -120zM627 465q102 0 169.5 71t67.5 179t-67.5 179t-169.5 71q-103 0 -170.5 -71.5t-67.5 -178.5t67.5 -178.5t170.5 -71.5z" />
    <glyph glyph-name="yen" unicode="&#xa5;" horiz-adv-x="1253" 
d="M1114 279h-303v-279h-369v279h-303v172h303v88l-18 39h-285v172h199l-338 680h381l246 -578l241 578h385l-338 -680h199v-172h-283l-20 -39v-88h303v-172z" />
    <glyph glyph-name="brokenbar" unicode="&#xa6;" horiz-adv-x="454" 
d="M356 666h-258v716h258v-716zM356 -358h-258v716h258v-716z" />
    <glyph glyph-name="section" unicode="&#xa7;" 
d="M172 -223l18 268q82 -37 183.5 -59.5t183.5 -22.5q103 0 140.5 29t37.5 78q0 42 -49.5 78t-175.5 81q-214 75 -300.5 160.5t-86.5 198.5q0 86 43 151.5t141 126.5q-73 34 -117.5 100t-44.5 140q0 171 135 259.5t398 88.5q143 0 332 -51l-17 -254q-148 59 -315 59
q-87 0 -125.5 -24t-38.5 -70q0 -26 18 -46t77 -49t169 -67q71 -24 127 -53.5t92 -56.5t62 -58.5t39 -56t20.5 -53.5t8.5 -45t1 -37q0 -79 -43.5 -151t-123.5 -128q63 -32 103 -102t40 -145q0 -87 -47.5 -156t-126 -110t-172.5 -62t-195 -21q-171 0 -391 60zM641 457l119 -45
q61 71 61 155q0 48 -47 81.5t-166 86.5l-110 47q-68 -81 -68 -145q0 -50 45 -91.5t166 -88.5z" />
    <glyph glyph-name="dieresis" unicode="&#xa8;" horiz-adv-x="681" 
d="M256 1198h-295v295h295v-295zM723 1198h-295v295h295v-295z" />
    <glyph glyph-name="copyright" unicode="&#xa9;" horiz-adv-x="1638" 
d="M819 -25q-151 0 -288 59t-235.5 158.5t-157 236t-58.5 286.5q0 148 58 284t156 236t235.5 159.5t289.5 59.5t289.5 -59.5t236 -159.5t156.5 -236t58 -284q0 -150 -58.5 -286.5t-157.5 -236t-236 -158.5t-288 -59zM819 184q142 0 258.5 71.5t182 193t65.5 266.5
q0 107 -38 204t-104 169t-161.5 114.5t-204.5 42.5q-210 0 -357 -153.5t-147 -376.5q0 -148 67.5 -270t183.5 -191.5t255 -69.5zM977 598h197q-3 -149 -96 -229t-249 -80q-181 0 -289 119t-108 307t108.5 306t288.5 118q156 0 249 -81.5t96 -228.5h-197q-18 63 -53 88
t-95 25q-75 0 -119 -61.5t-44 -165.5q0 -106 44 -168t119 -62q63 0 96 25.5t52 87.5z" />
    <glyph glyph-name="ordfeminine" unicode="&#xaa;" horiz-adv-x="813" 
d="M770 795h-242l-12 96h-4q-66 -113 -209 -113q-120 0 -190 54t-70 151q0 58 26.5 101.5t73.5 69t104 38t124 12.5q51 0 141 -8q0 57 -37 86t-123 29q-129 0 -223 -51v149q122 45 287 45q97 0 164.5 -16.5t106 -49t55 -76t16.5 -102.5v-258q0 -75 12 -157zM512 1073h-86
q-137 0 -137 -74q0 -38 24 -57.5t64 -19.5q56 0 95.5 43.5t39.5 107.5z" />
    <glyph glyph-name="guillemotleft" unicode="&#xab;" 
d="M643 133h-303l-244 418l244 418h303l-225 -418zM1130 133h-303l-243 418l243 418h303l-225 -418z" />
    <glyph glyph-name="logicalnot" unicode="&#xac;" horiz-adv-x="1228" 
d="M1133 221h-259v404h-778v258h1037v-662z" />
    <glyph glyph-name="uni00AD" unicode="&#xad;" horiz-adv-x="681" 
d="M618 416h-555v270h555v-270z" />
    <glyph glyph-name="registered" unicode="&#xae;" horiz-adv-x="1638" 
d="M1130 315h-196l-176 336h-35v-336h-197v805h334q157 0 230 -55t73 -180q0 -101 -56.5 -158t-168.5 -63zM723 807h119q125 0 125 88q0 70 -136 70h-108v-158zM819 -25q-151 0 -288 59t-235.5 158.5t-157 236t-58.5 286.5q0 148 58 284t156 236t235.5 159.5t289.5 59.5
t289.5 -59.5t236 -159.5t156.5 -236t58 -284q0 -150 -58.5 -286.5t-157.5 -236t-236 -158.5t-288 -59zM819 184q142 0 258.5 71.5t182 193t65.5 266.5q0 107 -38 204t-104 169t-161.5 114.5t-204.5 42.5q-210 0 -357 -153.5t-147 -376.5q0 -148 67.5 -270t183.5 -191.5
t255 -69.5z" />
    <glyph glyph-name="macron" unicode="&#xaf;" horiz-adv-x="681" 
d="M725 1276h-768v172h768v-172z" />
    <glyph glyph-name="degree" unicode="&#xb0;" horiz-adv-x="819" 
d="M410 852q-124 0 -212.5 88t-88.5 213t88.5 213t212.5 88q126 0 213.5 -89t87.5 -212q0 -124 -88 -212.5t-213 -88.5zM555 1153q0 60 -42.5 102.5t-102.5 42.5q-61 0 -103.5 -43t-42.5 -102q0 -60 43 -102.5t103 -42.5t102.5 42.5t42.5 102.5z" />
    <glyph glyph-name="plusminus" unicode="&#xb1;" horiz-adv-x="1228" 
d="M1133 549h-390v-230h-258v230h-389v258h389v229h258v-229h390v-258zM1133 0h-1037v258h1037v-258z" />
    <glyph glyph-name="twosuperior" unicode="&#xb2;" horiz-adv-x="815" 
d="M737 877h-676v184q398 274 398 405q0 40 -34 65t-91 25q-131 0 -238 -49l-10 197q155 49 340 49q142 0 235 -68t93 -184q0 -90 -58 -172t-170 -182l-96 -86h307v-184z" />
    <glyph glyph-name="threesuperior" unicode="&#xb3;" horiz-adv-x="815" 
d="M569 1327v-4q87 -14 138 -65t51 -130q0 -130 -108 -199t-306 -69q-199 0 -287 29l13 213q89 -45 225 -45q83 0 131.5 22.5t48.5 61.5q0 78 -164 78q-19 0 -102 -5v183q27 -6 104 -6q75 0 111.5 25t36.5 65q0 36 -43 55.5t-113 19.5q-113 0 -205 -40l-12 200
q127 37 285 37q180 0 275 -61t95 -176q0 -72 -46 -120t-128 -69z" />
    <glyph glyph-name="acute" unicode="&#xb4;" horiz-adv-x="681" 
d="M461 1198h-258l139 295h383z" />
    <glyph glyph-name="mu" unicode="&#xb5;" horiz-adv-x="1366" 
d="M1251 0h-336v197h-4q-109 -222 -395 -222h-29v-405h-372v1497h368v-518q0 -266 170 -266q230 0 230 327v457h368v-1067z" />
    <glyph glyph-name="paragraph" unicode="&#xb6;" horiz-adv-x="1269" 
d="M1184 -258h-246v1503h-199v-1503h-245v971q-457 0 -457 358q0 359 450 359h697v-1688z" />
    <glyph glyph-name="periodcentered" unicode="&#xb7;" horiz-adv-x="626" 
d="M313 367q-78 0 -134 56t-56 134t56 134.5t134 56.5t134.5 -56.5t56.5 -134.5t-56.5 -134t-134.5 -56z" />
    <glyph glyph-name="cedilla" unicode="&#xb8;" horiz-adv-x="681" 
d="M295 -233l-80 49l86 184h135l-55 -133q46 10 94 10q76 0 120 -47t44 -129q0 -71 -64.5 -113.5t-205.5 -42.5t-256 47l34 95q93 -43 179 -43q104 0 104 63q0 72 -78 72q-27 0 -57 -12z" />
    <glyph glyph-name="onesuperior" unicode="&#xb9;" horiz-adv-x="815" 
d="M604 877h-270v589l-162 -98l-111 178l312 191h231v-860z" />
    <glyph glyph-name="ordmasculine" unicode="&#xba;" horiz-adv-x="888" 
d="M854 1116q0 -153 -112.5 -245.5t-297.5 -92.5t-297 92.5t-112 245.5q0 154 112.5 246t296.5 92t297 -92t113 -246zM444 950q72 0 112 47t40 119q0 70 -39.5 118t-114.5 48q-67 0 -108 -46t-41 -120q0 -73 40 -119.5t111 -46.5z" />
    <glyph glyph-name="guillemotright" unicode="&#xbb;" 
d="M424 133h-303l225 418l-225 418h303l244 -418zM911 133h-303l226 418l-226 418h303l244 -418z" />
    <glyph glyph-name="onequarter" unicode="&#xbc;" horiz-adv-x="1875" 
d="M604 575h-270v590l-162 -98l-111 178l312 191h231v-861zM1708 0h-246v145h-430v207l367 508h309v-530h123v-185h-123v-145zM1462 330v352h-4l-248 -352h252zM651 -45h-223l793 1520h223z" />
    <glyph glyph-name="onehalf" unicode="&#xbd;" horiz-adv-x="1875" 
d="M588 575h-271v590l-161 -98l-111 178l311 191h232v-861zM1815 0h-676v184q397 273 397 406q0 40 -34 65t-91 25q-130 0 -237 -49l-11 196q158 50 340 50q142 0 235 -68t93 -184q0 -91 -58 -173.5t-169 -181.5l-97 -86h308v-184zM635 -45h-223l792 1520h223z" />
    <glyph glyph-name="threequarters" unicode="&#xbe;" horiz-adv-x="1875" 
d="M1708 0h-246v145h-430v207l367 508h309v-530h123v-185h-123v-145zM1462 330v352h-4l-248 -352h252zM569 1026v-4q87 -14 138 -65t51 -130q0 -130 -108 -199t-306 -69q-199 0 -287 29l13 213q89 -45 225 -45q83 0 131.5 22.5t48.5 61.5q0 78 -164 78q-19 0 -102 -5v183
q27 -6 104 -6q75 0 111.5 25t36.5 65q0 36 -43 55.5t-113 19.5q-111 0 -205 -41l-12 201q127 37 285 37q180 0 275 -61t95 -177q0 -72 -46 -119.5t-128 -68.5zM651 -45h-223l793 1520h223z" />
    <glyph glyph-name="questiondown" unicode="&#xbf;" horiz-adv-x="1138" 
d="M737 735h-344v332h344v-332zM997 -41l9 -287q-191 -59 -428 -59q-138 0 -248 36.5t-179 116t-69 191.5q0 85 37.5 156t122.5 159q88 93 127.5 160.5t46.5 149.5h299q0 -150 -133 -308q-72 -84 -101.5 -136.5t-29.5 -104.5q0 -70 67 -110t162 -40q168 0 317 76z" />
    <glyph glyph-name="Agrave" unicode="&#xc0;" horiz-adv-x="1593" 
d="M1577 0h-418l-106 305h-537l-113 -305h-387l543 1430h467zM963 575l-170 560h-5l-184 -560h359zM961 1518h-259l-264 294h383z" />
    <glyph glyph-name="Aacute" unicode="&#xc1;" horiz-adv-x="1593" 
d="M1577 0h-418l-106 305h-537l-113 -305h-387l543 1430h467zM963 575l-170 560h-5l-184 -560h359zM889 1518h-258l139 294h383z" />
    <glyph glyph-name="Acircumflex" unicode="&#xc2;" horiz-adv-x="1593" 
d="M1577 0h-418l-106 305h-537l-113 -305h-387l543 1430h467zM963 575l-170 560h-5l-184 -560h359zM1180 1518h-256l-133 159l-142 -159h-256l232 294h331z" />
    <glyph glyph-name="Atilde" unicode="&#xc3;" horiz-adv-x="1593" 
d="M1577 0h-418l-106 305h-537l-113 -305h-387l543 1430h467zM963 575l-170 560h-5l-184 -560h359zM1053 1812h147q-17 -138 -85.5 -213t-178.5 -75q-56 0 -160 37q-7 2 -26.5 9t-26 9.5t-21 7t-22 6t-18 3t-19.5 1.5q-43 0 -66 -19.5t-32 -59.5h-148q15 132 84.5 210
t175.5 78q55 0 160 -37q101 -36 133 -36q89 0 103 79z" />
    <glyph glyph-name="Adieresis" unicode="&#xc4;" horiz-adv-x="1593" 
d="M1577 0h-418l-106 305h-537l-113 -305h-387l543 1430h467zM963 575l-170 560h-5l-184 -560h359zM713 1518h-295v294h295v-294zM1180 1518h-295v294h295v-294z" />
    <glyph glyph-name="Aring" unicode="&#xc5;" horiz-adv-x="1593" 
d="M1577 0h-418l-106 305h-537l-113 -305h-387l543 1430h467zM963 575l-170 560h-5l-184 -560h359zM799 1495q-93 0 -161.5 67.5t-68.5 161.5t68 162t162 68q96 0 162.5 -68.5t66.5 -161.5q0 -96 -68 -162.5t-161 -66.5zM897 1724q0 41 -28.5 70t-69.5 29q-42 0 -70.5 -29.5
t-28.5 -69.5q0 -41 29 -69.5t70 -28.5t69.5 28.5t28.5 69.5z" />
    <glyph glyph-name="AE" unicode="&#xc6;" horiz-adv-x="2048" 
d="M1968 0h-991v305h-436l-150 -305h-399l747 1430h1205v-271h-586v-295h549v-270h-549v-324h610v-270zM977 575v584h-19l-284 -584h303z" />
    <glyph glyph-name="Ccedilla" unicode="&#xc7;" horiz-adv-x="1366" 
d="M748 -233l-80 49l80 172q-316 46 -492 234t-176 487q0 237 103.5 406.5t286.5 254t427 84.5q179 0 426 -74l-31 -309q-181 100 -370 100q-205 0 -327 -131t-122 -331q0 -204 130 -327.5t347 -123.5q166 0 357 74l18 -299q-133 -34 -226.5 -46t-219.5 -12l-45 -108
q44 10 96 10q74 0 118 -47t44 -129q0 -79 -71.5 -117.5t-199.5 -38.5q-142 0 -256 47l35 95q94 -43 178 -43q105 0 105 63q0 72 -78 72q-27 0 -57 -12z" />
    <glyph glyph-name="Egrave" unicode="&#xc8;" 
d="M1153 0h-1030v1430h1007v-271h-626v-295h592v-270h-592v-324h649v-270zM788 1518h-258l-264 294h383z" />
    <glyph glyph-name="Eacute" unicode="&#xc9;" 
d="M1153 0h-1030v1430h1007v-271h-626v-295h592v-270h-592v-324h649v-270zM717 1518h-258l139 294h383z" />
    <glyph glyph-name="Ecircumflex" unicode="&#xca;" 
d="M1153 0h-1030v1430h1007v-271h-626v-295h592v-270h-592v-324h649v-270zM1018 1518h-256l-133 159l-142 -159h-256l232 294h332z" />
    <glyph glyph-name="Edieresis" unicode="&#xcb;" 
d="M1153 0h-1030v1430h1007v-271h-626v-295h592v-270h-592v-324h649v-270zM541 1518h-295v294h295v-294zM1008 1518h-295v294h295v-294z" />
    <glyph glyph-name="Igrave" unicode="&#xcc;" horiz-adv-x="684" 
d="M532 0h-380v1430h380v-1430zM506 1518h-258l-264 294h383z" />
    <glyph glyph-name="Iacute" unicode="&#xcd;" horiz-adv-x="684" 
d="M532 0h-380v1430h380v-1430zM438 1518h-258l139 294h383z" />
    <glyph glyph-name="Icircumflex" unicode="&#xce;" horiz-adv-x="684" 
d="M532 0h-380v1430h380v-1430zM735 1518h-256l-133 159l-141 -159h-256l231 294h332z" />
    <glyph glyph-name="Idieresis" unicode="&#xcf;" horiz-adv-x="684" 
d="M532 0h-380v1430h380v-1430zM258 1518h-295v294h295v-294zM725 1518h-295v294h295v-294z" />
    <glyph glyph-name="Eth" unicode="&#xd0;" horiz-adv-x="1593" 
d="M657 0h-524v639h-137v209h137v582h531q426 0 630.5 -173t204.5 -536q0 -355 -212 -538t-630 -183zM514 283h152q209 0 324.5 109.5t115.5 322.5q0 214 -118 323t-324 109h-150v-299h342v-209h-342v-356z" />
    <glyph glyph-name="Ntilde" unicode="&#xd1;" horiz-adv-x="1593" 
d="M1454 0h-473l-500 977h-4l12 -977h-350v1430h486l483 -971h4l-6 971h348v-1430zM1077 1812h148q-17 -138 -85.5 -213t-178.5 -75q-56 0 -160 37q-7 2 -26.5 9t-26 9.5t-21 7t-22 6t-18 3t-19.5 1.5q-80 0 -99 -79h-147q15 132 84.5 210t175.5 78q55 0 160 -37
q101 -36 133 -36q88 0 102 79z" />
    <glyph glyph-name="Ograve" unicode="&#xd2;" horiz-adv-x="1593" 
d="M797 -25q-340 0 -528.5 195t-188.5 545q0 353 186.5 546t530.5 193q343 0 529.5 -193t186.5 -546q0 -351 -187 -545.5t-529 -194.5zM799 258q152 0 236.5 125.5t84.5 331.5q0 214 -84 335t-239 121q-154 0 -239 -119.5t-85 -336.5q0 -204 84 -330.5t242 -126.5zM961 1518
h-259l-264 294h383z" />
    <glyph glyph-name="Oacute" unicode="&#xd3;" horiz-adv-x="1593" 
d="M797 -25q-340 0 -528.5 195t-188.5 545q0 353 186.5 546t530.5 193q343 0 529.5 -193t186.5 -546q0 -351 -187 -545.5t-529 -194.5zM799 258q152 0 236.5 125.5t84.5 331.5q0 214 -84 335t-239 121q-154 0 -239 -119.5t-85 -336.5q0 -204 84 -330.5t242 -126.5zM889 1518
h-258l139 294h383z" />
    <glyph glyph-name="Ocircumflex" unicode="&#xd4;" horiz-adv-x="1593" 
d="M797 -25q-340 0 -528.5 195t-188.5 545q0 353 186.5 546t530.5 193q343 0 529.5 -193t186.5 -546q0 -351 -187 -545.5t-529 -194.5zM799 258q152 0 236.5 125.5t84.5 331.5q0 214 -84 335t-239 121q-154 0 -239 -119.5t-85 -336.5q0 -204 84 -330.5t242 -126.5z
M1192 1518h-256l-133 159l-141 -159h-256l231 294h332z" />
    <glyph glyph-name="Otilde" unicode="&#xd5;" horiz-adv-x="1593" 
d="M797 -25q-340 0 -528.5 195t-188.5 545q0 353 186.5 546t530.5 193q343 0 529.5 -193t186.5 -546q0 -351 -187 -545.5t-529 -194.5zM799 258q152 0 236.5 125.5t84.5 331.5q0 214 -84 335t-239 121q-154 0 -239 -119.5t-85 -336.5q0 -204 84 -330.5t242 -126.5z
M1055 1812h147q-17 -138 -85.5 -213t-178.5 -75q-56 0 -160 37q-7 2 -26.5 9t-26 9.5t-21 7t-22 6t-18 3t-19.5 1.5q-43 0 -66 -19.5t-32 -59.5h-148q15 132 84.5 210t175.5 78q55 0 160 -37q101 -36 133 -36q89 0 103 79z" />
    <glyph glyph-name="Odieresis" unicode="&#xd6;" horiz-adv-x="1593" 
d="M797 -25q-340 0 -528.5 195t-188.5 545q0 353 186.5 546t530.5 193q343 0 529.5 -193t186.5 -546q0 -351 -187 -545.5t-529 -194.5zM799 258q152 0 236.5 125.5t84.5 331.5q0 214 -84 335t-239 121q-154 0 -239 -119.5t-85 -336.5q0 -204 84 -330.5t242 -126.5zM713 1518
h-295v294h295v-294zM1180 1518h-295v294h295v-294z" />
    <glyph glyph-name="multiply" unicode="&#xd7;" horiz-adv-x="1228" 
d="M926 31l-312 313l-311 -313l-176 176l311 311l-311 311l176 177l311 -312l312 312l176 -177l-314 -311l314 -311z" />
    <glyph glyph-name="Oslash" unicode="&#xd8;" horiz-adv-x="1593" 
d="M162 -88l-131 123l186 198q-137 184 -137 482q0 353 186 546t531 193q268 0 442 -121l172 187l131 -123l-172 -187q143 -192 143 -495q0 -351 -187 -545.5t-529 -194.5q-280 0 -455 131zM496 532l512 551q-81 88 -213 88q-152 0 -237 -120.5t-85 -335.5q0 -104 23 -183z
M1096 915l-518 -557q80 -100 219 -100q155 0 239 126t84 331q0 111 -24 200z" />
    <glyph glyph-name="Ugrave" unicode="&#xd9;" horiz-adv-x="1478" 
d="M985 600v830h381v-891q0 -269 -163 -416.5t-464 -147.5q-304 0 -465 148.5t-161 415.5v891h381v-826q0 -346 245 -346q246 0 246 342zM903 1518h-258l-264 294h383z" />
    <glyph glyph-name="Uacute" unicode="&#xda;" horiz-adv-x="1478" 
d="M985 600v830h381v-891q0 -269 -163 -416.5t-464 -147.5q-304 0 -465 148.5t-161 415.5v891h381v-826q0 -346 245 -346q246 0 246 342zM831 1518h-258l140 294h383z" />
    <glyph glyph-name="Ucircumflex" unicode="&#xdb;" horiz-adv-x="1478" 
d="M985 600v830h381v-891q0 -269 -163 -416.5t-464 -147.5q-304 0 -465 148.5t-161 415.5v891h381v-826q0 -346 245 -346q246 0 246 342zM1133 1518h-256l-134 159l-141 -159h-256l232 294h331z" />
    <glyph glyph-name="Udieresis" unicode="&#xdc;" horiz-adv-x="1478" 
d="M985 600v830h381v-891q0 -269 -163 -416.5t-464 -147.5q-304 0 -465 148.5t-161 415.5v891h381v-826q0 -346 245 -346q246 0 246 342zM655 1518h-295v294h295v-294zM1122 1518h-295v294h295v-294z" />
    <glyph glyph-name="Yacute" unicode="&#xdd;" horiz-adv-x="1478" 
d="M932 0h-381v539l-528 891h438l280 -574l277 574h438l-524 -891v-539zM860 1518h-258l139 294h383z" />
    <glyph glyph-name="Thorn" unicode="&#xde;" 
d="M494 0h-381v1430h381v-179h67q336 0 491.5 -106t155.5 -363q0 -229 -147 -344.5t-416 -115.5h-151v-322zM494 592h96q237 0 237 196q0 193 -237 193h-96v-389z" />
    <glyph glyph-name="germandbls" unicode="&#xdf;" horiz-adv-x="1366" 
d="M580 0l10 268q68 -10 131 -10q197 0 197 211q0 88 -49 144.5t-142 56.5q-61 0 -96 -4v262h49q83 0 132.5 56.5t49.5 137.5q0 94 -45.5 143.5t-130.5 49.5q-103 0 -153 -75t-50 -202v-1038h-368v1018q0 261 145.5 402t435.5 141q162 0 280 -45t186.5 -141t68.5 -236
q0 -135 -61 -217.5t-195 -128.5v-5q311 -49 311 -356q0 -222 -138.5 -333t-387.5 -111q-86 0 -180 12z" />
    <glyph glyph-name="agrave" unicode="&#xe0;" 
d="M1151 0h-338l-4 74q-4 58 -4 94h-4q-63 -100 -144 -146.5t-194 -46.5q-178 0 -289 90t-111 246q0 181 143 273t408 92q93 0 172 -14q-2 92 -60.5 138t-182.5 46q-197 0 -340 -80l-6 250q188 76 424 76q249 0 379 -117t130 -322v-413q0 -128 21 -240zM786 473
q-123 6 -153 6q-107 0 -166 -35.5t-59 -105.5q0 -54 41.5 -85.5t109.5 -31.5q99 0 163 76t64 176zM788 1198h-258l-264 295h383z" />
    <glyph glyph-name="aacute" unicode="&#xe1;" 
d="M1151 0h-338l-4 74q-4 58 -4 94h-4q-63 -100 -144 -146.5t-194 -46.5q-178 0 -289 90t-111 246q0 181 143 273t408 92q93 0 172 -14q-2 92 -60.5 138t-182.5 46q-197 0 -340 -80l-6 250q188 76 424 76q249 0 379 -117t130 -322v-413q0 -128 21 -240zM786 473
q-123 6 -153 6q-107 0 -166 -35.5t-59 -105.5q0 -54 41.5 -85.5t109.5 -31.5q99 0 163 76t64 176zM745 1198h-258l140 295h383z" />
    <glyph glyph-name="acircumflex" unicode="&#xe2;" 
d="M1151 0h-338l-4 74q-4 58 -4 94h-4q-63 -100 -144 -146.5t-194 -46.5q-178 0 -289 90t-111 246q0 181 143 273t408 92q93 0 172 -14q-2 92 -60.5 138t-182.5 46q-197 0 -340 -80l-6 250q188 76 424 76q249 0 379 -117t130 -322v-413q0 -128 21 -240zM786 473
q-123 6 -153 6q-107 0 -166 -35.5t-59 -105.5q0 -54 41.5 -85.5t109.5 -31.5q99 0 163 76t64 176zM1018 1198h-256l-133 160l-142 -160h-256l232 295h332z" />
    <glyph glyph-name="atilde" unicode="&#xe3;" 
d="M1151 0h-338l-4 74q-4 58 -4 94h-4q-63 -100 -144 -146.5t-194 -46.5q-178 0 -289 90t-111 246q0 181 143 273t408 92q93 0 172 -14q-2 92 -60.5 138t-182.5 46q-197 0 -340 -80l-6 250q188 76 424 76q249 0 379 -117t130 -322v-413q0 -128 21 -240zM786 473
q-123 6 -153 6q-107 0 -166 -35.5t-59 -105.5q0 -54 41.5 -85.5t109.5 -31.5q99 0 163 76t64 176zM881 1493h147q-17 -138 -85.5 -213.5t-178.5 -75.5q-56 0 -160 37q-10 3 -31.5 11t-30.5 11t-23.5 7.5t-25.5 6t-22 1.5q-79 0 -98 -80h-148q15 132 84.5 210.5t175.5 78.5
q55 0 160 -37q7 -2 26.5 -9.5t29.5 -11t25.5 -8t28 -6.5t23.5 -2q89 0 103 80z" />
    <glyph glyph-name="adieresis" unicode="&#xe4;" 
d="M1151 0h-338l-4 74q-4 58 -4 94h-4q-63 -100 -144 -146.5t-194 -46.5q-178 0 -289 90t-111 246q0 181 143 273t408 92q93 0 172 -14q-2 92 -60.5 138t-182.5 46q-197 0 -340 -80l-6 250q188 76 424 76q249 0 379 -117t130 -322v-413q0 -128 21 -240zM786 473
q-123 6 -153 6q-107 0 -166 -35.5t-59 -105.5q0 -54 41.5 -85.5t109.5 -31.5q99 0 163 76t64 176zM541 1198h-295v295h295v-295zM1008 1198h-295v295h295v-295z" />
    <glyph glyph-name="aring" unicode="&#xe5;" 
d="M1151 0h-338l-4 74q-4 58 -4 94h-4q-63 -100 -144 -146.5t-194 -46.5q-178 0 -289 90t-111 246q0 181 143 273t408 92q93 0 172 -14q-2 92 -60.5 138t-182.5 46q-197 0 -340 -80l-6 250q188 76 424 76q249 0 379 -117t130 -322v-413q0 -128 21 -240zM786 473
q-123 6 -153 6q-107 0 -166 -35.5t-59 -105.5q0 -54 41.5 -85.5t109.5 -31.5q99 0 163 76t64 176zM627 1159q-93 0 -161.5 67.5t-68.5 162.5q0 94 68 161.5t162 67.5q96 0 162.5 -68t66.5 -161q0 -96 -68 -163t-161 -67zM725 1389q0 41 -28.5 69.5t-69.5 28.5
q-42 0 -70.5 -29t-28.5 -69q0 -41 29 -70t70 -29t69.5 29t28.5 70z" />
    <glyph glyph-name="ae" unicode="&#xe6;" horiz-adv-x="1933" 
d="M1780 303v-260q-175 -68 -402 -68q-105 0 -185.5 18.5t-135 54t-89.5 74.5t-65 93q-68 -122 -176.5 -181t-282.5 -59q-177 0 -288 88.5t-111 249.5q0 179 142.5 271t408.5 92q67 0 172 -10q-2 87 -59 133.5t-187 46.5q-195 0 -338 -80l-6 252q187 74 414 74
q112 0 213.5 -32t157.5 -99q162 131 376 131q252 0 395.5 -152.5t143.5 -454.5v-59h-737q28 -205 311 -205q174 0 328 82zM1137 635h409q0 103 -52 163t-155 60q-87 0 -141 -58.5t-61 -164.5zM768 479h-145q-234 0 -234 -139q0 -55 42.5 -87t109.5 -32q99 0 163 78t64 180z
" />
    <glyph glyph-name="ccedilla" unicode="&#xe7;" horiz-adv-x="1024" 
d="M522 -233l-80 49l82 178q-218 42 -339.5 185.5t-121.5 352.5q0 169 79.5 297t220 195.5t321.5 67.5q170 0 293 -60l-27 -270q-99 59 -223 59q-125 0 -204 -81t-79 -214q0 -122 89 -201t215 -79q135 0 229 51l8 -274q-139 -48 -305 -48q-15 0 -27 2l-45 -110q46 10 97 10
q74 0 117.5 -46.5t43.5 -129.5q0 -77 -70 -116.5t-200 -39.5q-138 0 -256 47l35 95q94 -43 178 -43q104 0 104 63q0 72 -77 72q-31 0 -58 -12z" />
    <glyph glyph-name="egrave" unicode="&#xe8;" 
d="M1075 303v-260q-172 -68 -391 -68q-277 0 -449 153.5t-172 406.5q0 254 156.5 405.5t415.5 151.5q122 0 219.5 -36.5t169.5 -109.5t111 -190.5t39 -272.5v-57h-738q28 -205 314 -205q171 0 325 82zM432 635h410q0 106 -53.5 164.5t-151.5 58.5q-88 0 -143 -58t-62 -165z
M788 1198h-258l-264 295h383z" />
    <glyph glyph-name="eacute" unicode="&#xe9;" 
d="M1075 303v-260q-172 -68 -391 -68q-277 0 -449 153.5t-172 406.5q0 254 156.5 405.5t415.5 151.5q122 0 219.5 -36.5t169.5 -109.5t111 -190.5t39 -272.5v-57h-738q28 -205 314 -205q171 0 325 82zM432 635h410q0 106 -53.5 164.5t-151.5 58.5q-88 0 -143 -58t-62 -165z
M745 1198h-258l140 295h383z" />
    <glyph glyph-name="ecircumflex" unicode="&#xea;" 
d="M1075 303v-260q-172 -68 -391 -68q-277 0 -449 153.5t-172 406.5q0 254 156.5 405.5t415.5 151.5q122 0 219.5 -36.5t169.5 -109.5t111 -190.5t39 -272.5v-57h-738q28 -205 314 -205q171 0 325 82zM432 635h410q0 106 -53.5 164.5t-151.5 58.5q-88 0 -143 -58t-62 -165z
M1018 1198h-256l-133 160l-142 -160h-256l232 295h332z" />
    <glyph glyph-name="edieresis" unicode="&#xeb;" 
d="M1075 303v-260q-172 -68 -391 -68q-277 0 -449 153.5t-172 406.5q0 254 156.5 405.5t415.5 151.5q122 0 219.5 -36.5t169.5 -109.5t111 -190.5t39 -272.5v-57h-738q28 -205 314 -205q171 0 325 82zM432 635h410q0 106 -53.5 164.5t-151.5 58.5q-88 0 -143 -58t-62 -165z
M541 1198h-295v295h295v-295zM1008 1198h-295v295h295v-295z" />
    <glyph glyph-name="igrave" unicode="&#xec;" horiz-adv-x="684" 
d="M526 0h-368v1067h368v-1067zM506 1198h-258l-264 295h383z" />
    <glyph glyph-name="iacute" unicode="&#xed;" horiz-adv-x="684" 
d="M526 0h-368v1067h368v-1067zM422 1198h-258l139 295h383z" />
    <glyph glyph-name="icircumflex" unicode="&#xee;" horiz-adv-x="684" 
d="M526 0h-368v1067h368v-1067zM735 1198h-256l-133 160l-141 -160h-256l231 295h332z" />
    <glyph glyph-name="idieresis" unicode="&#xef;" horiz-adv-x="684" 
d="M526 0h-368v1067h368v-1067zM258 1198h-295v295h295v-295zM725 1198h-295v295h295v-295z" />
    <glyph glyph-name="eth" unicode="&#xf0;" horiz-adv-x="1368" 
d="M891 872l4 5q-62 193 -311 342l-295 -136l-123 134l219 100q-52 21 -182 69l213 224q156 -53 317 -135l299 135l127 -131l-246 -111q392 -275 392 -750q0 -301 -168.5 -472t-468.5 -171q-295 0 -450 136.5t-155 398.5q0 144 64.5 265t179.5 192t256 71q122 0 208 -43.5
t120 -122.5zM676 233q119 0 183.5 78.5t64.5 200.5q0 116 -63.5 192t-184.5 76q-113 0 -172.5 -74.5t-59.5 -195.5q0 -120 59.5 -198.5t172.5 -78.5z" />
    <glyph glyph-name="ntilde" unicode="&#xf1;" horiz-adv-x="1366" 
d="M1251 0h-368v518q0 266 -170 266q-230 0 -230 -331v-453h-368v1067h336v-197h4q50 105 150.5 163.5t238.5 58.5q197 0 302 -118t105 -310v-664zM938 1493h147q-17 -138 -85.5 -213.5t-178.5 -75.5q-55 0 -159 37q-8 3 -31 11t-31.5 11t-24 7.5t-26 6t-21.5 1.5
q-79 0 -98 -80h-147q15 132 84.5 210.5t175.5 78.5q54 0 159 -37q6 -2 26.5 -9.5t30 -10.5t25.5 -8t28.5 -7t23.5 -2q88 0 102 80z" />
    <glyph glyph-name="ograve" unicode="&#xf2;" horiz-adv-x="1368" 
d="M1305 532q0 -250 -171.5 -403.5t-449.5 -153.5t-449.5 152.5t-171.5 404.5t170.5 406t450.5 154q279 0 450 -154t171 -406zM684 233q112 0 176 80t64 219q0 138 -63 220t-179 82q-110 0 -174 -81t-64 -221q0 -139 64 -219t176 -80zM848 1198h-258l-264 295h383z" />
    <glyph glyph-name="oacute" unicode="&#xf3;" horiz-adv-x="1368" 
d="M1305 532q0 -250 -171.5 -403.5t-449.5 -153.5t-449.5 152.5t-171.5 404.5t170.5 406t450.5 154q279 0 450 -154t171 -406zM684 233q112 0 176 80t64 219q0 138 -63 220t-179 82q-110 0 -174 -81t-64 -221q0 -139 64 -219t176 -80zM805 1198h-258l139 295h383z" />
    <glyph glyph-name="ocircumflex" unicode="&#xf4;" horiz-adv-x="1368" 
d="M1305 532q0 -250 -171.5 -403.5t-449.5 -153.5t-449.5 152.5t-171.5 404.5t170.5 406t450.5 154q279 0 450 -154t171 -406zM684 233q112 0 176 80t64 219q0 138 -63 220t-179 82q-110 0 -174 -81t-64 -221q0 -139 64 -219t176 -80zM1077 1198h-256l-133 160l-141 -160
h-256l231 295h332z" />
    <glyph glyph-name="otilde" unicode="&#xf5;" horiz-adv-x="1368" 
d="M1305 532q0 -250 -171.5 -403.5t-449.5 -153.5t-449.5 152.5t-171.5 404.5t170.5 406t450.5 154q279 0 450 -154t171 -406zM684 233q112 0 176 80t64 219q0 138 -63 220t-179 82q-110 0 -174 -81t-64 -221q0 -139 64 -219t176 -80zM940 1493h147q-17 -138 -85.5 -213.5
t-178.5 -75.5q-55 0 -159 37q-8 3 -31 11t-31.5 11t-24 7.5t-26 6t-21.5 1.5q-79 0 -98 -80h-147q15 132 84.5 210.5t175.5 78.5q55 0 160 -37q7 -2 26.5 -9.5t29.5 -11t25.5 -8t28 -6.5t23.5 -2q88 0 102 80z" />
    <glyph glyph-name="odieresis" unicode="&#xf6;" horiz-adv-x="1368" 
d="M1305 532q0 -250 -171.5 -403.5t-449.5 -153.5t-449.5 152.5t-171.5 404.5t170.5 406t450.5 154q279 0 450 -154t171 -406zM684 233q112 0 176 80t64 219q0 138 -63 220t-179 82q-110 0 -174 -81t-64 -221q0 -139 64 -219t176 -80zM600 1198h-295v295h295v-295z
M1067 1198h-295v295h295v-295z" />
    <glyph glyph-name="divide" unicode="&#xf7;" horiz-adv-x="1228" 
d="M612 754q-78 0 -134 56t-56 134t56 134.5t134 56.5t134.5 -56.5t56.5 -134.5t-56.5 -134t-134.5 -56zM1133 389h-1037v258h1037v-258zM612 -98q-78 0 -134 56t-56 134t56 134.5t134 56.5t134.5 -56.5t56.5 -134.5t-56.5 -134t-134.5 -56z" />
    <glyph glyph-name="oslash" unicode="&#xf8;" horiz-adv-x="1368" 
d="M190 -104l-124 118l139 144q-142 148 -142 374q0 253 171 406.5t450 153.5q197 0 342 -80l154 159l125 -118l-140 -146q140 -150 140 -375q0 -252 -171.5 -404.5t-449.5 -152.5q-192 0 -340 80zM457 420l360 375q-55 39 -135 39q-110 0 -174 -81t-64 -221q0 -55 13 -112z
M911 643l-358 -371q55 -39 131 -39q116 0 178 82.5t62 216.5q0 54 -13 111z" />
    <glyph glyph-name="ugrave" unicode="&#xf9;" horiz-adv-x="1366" 
d="M1251 0h-336v197h-4q-50 -105 -150.5 -163.5t-238.5 -58.5q-101 0 -179.5 33t-128 91t-74.5 134.5t-25 167.5v666h368v-518q0 -266 170 -266q230 0 230 329v455h368v-1067zM846 1198h-258l-264 295h383z" />
    <glyph glyph-name="uacute" unicode="&#xfa;" horiz-adv-x="1366" 
d="M1251 0h-336v197h-4q-50 -105 -150.5 -163.5t-238.5 -58.5q-101 0 -179.5 33t-128 91t-74.5 134.5t-25 167.5v666h368v-518q0 -266 170 -266q230 0 230 329v455h368v-1067zM803 1198h-258l139 295h383z" />
    <glyph glyph-name="ucircumflex" unicode="&#xfb;" horiz-adv-x="1366" 
d="M1251 0h-336v197h-4q-50 -105 -150.5 -163.5t-238.5 -58.5q-101 0 -179.5 33t-128 91t-74.5 134.5t-25 167.5v666h368v-518q0 -266 170 -266q230 0 230 329v455h368v-1067zM1075 1198h-256l-133 160l-141 -160h-256l231 295h332z" />
    <glyph glyph-name="udieresis" unicode="&#xfc;" horiz-adv-x="1366" 
d="M1251 0h-336v197h-4q-50 -105 -150.5 -163.5t-238.5 -58.5q-101 0 -179.5 33t-128 91t-74.5 134.5t-25 167.5v666h368v-518q0 -266 170 -266q230 0 230 329v455h368v-1067zM598 1198h-295v295h295v-295zM1065 1198h-295v295h295v-295z" />
    <glyph glyph-name="yacute" unicode="&#xfd;" 
d="M92 -430l25 280q67 -22 143 -22q71 0 119.5 38.5t69.5 108.5l-433 1092h398l229 -696h4l219 696h369l-438 -1114q-81 -214 -188 -311t-287 -97q-111 0 -230 25zM745 1198h-258l140 295h383z" />
    <glyph glyph-name="thorn" unicode="&#xfe;" horiz-adv-x="1368" 
d="M475 -430h-369v1966h369v-606h6q129 162 367 162q104 0 192 -46.5t145 -123t88.5 -172.5t31.5 -197q0 -254 -132 -416t-356 -162q-117 0 -205 46t-133 129h-4v-580zM700 258q102 0 163 78.5t61 208.5q0 110 -60.5 187t-165.5 77q-97 0 -160 -78t-63 -201q0 -114 65 -193
t160 -79z" />
    <glyph glyph-name="ydieresis" unicode="&#xff;" 
d="M92 -430l25 280q67 -22 143 -22q71 0 119.5 38.5t69.5 108.5l-433 1092h398l229 -696h4l219 696h369l-438 -1114q-81 -214 -188 -311t-287 -97q-111 0 -230 25zM541 1198h-295v295h295v-295zM1008 1198h-295v295h295v-295z" />
    <glyph glyph-name="Amacron" unicode="&#x100;" horiz-adv-x="1593" 
d="M1577 0h-418l-106 305h-537l-113 -305h-387l543 1430h467zM963 575l-170 560h-5l-184 -560h359zM1176 1595h-768v172h768v-172z" />
    <glyph glyph-name="amacron" unicode="&#x101;" 
d="M1151 0h-338l-4 74q-4 58 -4 94h-4q-63 -100 -144 -146.5t-194 -46.5q-178 0 -289 90t-111 246q0 181 143 273t408 92q93 0 172 -14q-2 92 -60.5 138t-182.5 46q-197 0 -340 -80l-6 250q188 76 424 76q249 0 379 -117t130 -322v-413q0 -128 21 -240zM786 473
q-123 6 -153 6q-107 0 -166 -35.5t-59 -105.5q0 -54 41.5 -85.5t109.5 -31.5q99 0 163 76t64 176zM1010 1276h-768v172h768v-172z" />
    <glyph glyph-name="Abreve" unicode="&#x102;" horiz-adv-x="1593" 
d="M1577 0h-418l-106 305h-537l-113 -305h-387l543 1430h467zM963 575l-170 560h-5l-184 -560h359zM1024 1831h156q-19 -159 -117 -240.5t-270 -81.5t-270 81.5t-117 240.5h155q15 -71 73.5 -110.5t158.5 -39.5q195 0 231 150z" />
    <glyph glyph-name="abreve" unicode="&#x103;" 
d="M1151 0h-338l-4 74q-4 58 -4 94h-4q-63 -100 -144 -146.5t-194 -46.5q-178 0 -289 90t-111 246q0 181 143 273t408 92q93 0 172 -14q-2 92 -60.5 138t-182.5 46q-197 0 -340 -80l-6 250q188 76 424 76q249 0 379 -117t130 -322v-413q0 -128 21 -240zM786 473
q-123 6 -153 6q-107 0 -166 -35.5t-59 -105.5q0 -54 41.5 -85.5t109.5 -31.5q99 0 163 76t64 176zM856 1493h156q-17 -158 -117.5 -240t-269.5 -82q-172 0 -271 82.5t-116 239.5h155q17 -73 76.5 -111.5t155.5 -38.5q194 0 231 150z" />
    <glyph glyph-name="Aogonek" unicode="&#x104;" horiz-adv-x="1593" 
d="M1430 -262l77 -35q-55 -86 -124.5 -122t-165.5 -36q-99 0 -155 48.5t-56 123.5q0 79 55 146.5t188 136.5h-90l-106 305h-537l-113 -305h-387l543 1430h467l551 -1430h-186q-96 -75 -136.5 -130t-40.5 -106q0 -37 26 -60t63 -23q70 0 127 57zM963 575l-170 560h-5
l-184 -560h359z" />
    <glyph glyph-name="aogonek" unicode="&#x105;" 
d="M1075 -262l78 -35q-54 -85 -124.5 -121.5t-166.5 -36.5q-94 0 -152.5 47t-58.5 125q0 81 55.5 146.5t188.5 136.5h-82l-4 70q-4 66 -4 98h-4q-64 -101 -143.5 -147t-194.5 -46q-176 0 -288 88t-112 248q0 176 140 270.5t411 94.5q90 0 172 -14v2q0 182 -243 182
q-194 0 -340 -80l-6 250q181 76 424 76q246 0 377.5 -115.5t131.5 -323.5v-413q0 -135 21 -240h-115q-97 -77 -136.5 -130.5t-39.5 -105.5q0 -37 25.5 -60t62.5 -23q70 0 127 57zM633 479q-108 0 -166.5 -35t-58.5 -106q0 -54 42 -85.5t109 -31.5q99 0 163 76t64 176
q-123 6 -153 6z" />
    <glyph glyph-name="Cacute" unicode="&#x106;" horiz-adv-x="1366" 
d="M1307 332l18 -299q-224 -58 -422 -58q-137 0 -259.5 29t-226 89.5t-178.5 146.5t-117 206t-42 263q0 348 218.5 546.5t598.5 198.5q179 0 426 -74l-31 -309q-181 100 -370 100q-200 0 -324.5 -128.5t-124.5 -333.5q0 -202 130 -326.5t347 -124.5q169 0 357 74zM977 1518
h-258l139 294h383z" />
    <glyph glyph-name="cacute" unicode="&#x107;" horiz-adv-x="1024" 
d="M977 297l8 -274q-142 -48 -301 -48q-275 0 -448 152t-173 405q0 254 171.5 407t449.5 153q170 0 293 -60l-27 -270q-99 59 -223 59q-125 0 -204 -81t-79 -214q0 -122 89 -201t217 -79q133 0 227 51zM739 1198h-258l140 295h383z" />
    <glyph glyph-name="Ccircumflex" unicode="&#x108;" horiz-adv-x="1366" 
d="M1307 332l18 -299q-224 -58 -422 -58q-137 0 -259.5 29t-226 89.5t-178.5 146.5t-117 206t-42 263q0 348 218.5 546.5t598.5 198.5q179 0 426 -74l-31 -309q-181 100 -370 100q-200 0 -324.5 -128.5t-124.5 -333.5q0 -202 130 -326.5t347 -124.5q169 0 357 74zM1233 1518
h-256l-133 159l-142 -159h-256l232 294h332z" />
    <glyph glyph-name="ccircumflex" unicode="&#x109;" horiz-adv-x="1024" 
d="M977 297l8 -274q-142 -48 -301 -48q-275 0 -448 152t-173 405q0 254 171.5 407t449.5 153q170 0 293 -60l-27 -270q-99 59 -223 59q-125 0 -204 -81t-79 -214q0 -122 89 -201t217 -79q133 0 227 51zM1014 1198h-256l-133 160l-142 -160h-256l232 295h332z" />
    <glyph glyph-name="Cdotaccent" unicode="&#x10a;" horiz-adv-x="1366" 
d="M1307 332l18 -299q-224 -58 -422 -58q-137 0 -259.5 29t-226 89.5t-178.5 146.5t-117 206t-42 263q0 348 218.5 546.5t598.5 198.5q179 0 426 -74l-31 -309q-181 100 -370 100q-200 0 -324.5 -128.5t-124.5 -333.5q0 -202 130 -326.5t347 -124.5q169 0 357 74zM1030 1518
h-295v294h295v-294z" />
    <glyph glyph-name="cdotaccent" unicode="&#x10b;" horiz-adv-x="1024" 
d="M977 297l8 -274q-142 -48 -301 -48q-275 0 -448 152t-173 405q0 254 171.5 407t449.5 153q170 0 293 -60l-27 -270q-99 59 -223 59q-125 0 -204 -81t-79 -214q0 -122 89 -201t217 -79q133 0 227 51zM801 1198h-295v295h295v-295z" />
    <glyph glyph-name="Ccaron" unicode="&#x10c;" horiz-adv-x="1366" 
d="M1307 332l18 -299q-224 -58 -422 -58q-137 0 -259.5 29t-226 89.5t-178.5 146.5t-117 206t-42 263q0 348 218.5 546.5t598.5 198.5q179 0 426 -74l-31 -309q-181 100 -370 100q-200 0 -324.5 -128.5t-124.5 -333.5q0 -202 130 -326.5t347 -124.5q169 0 357 74zM1044 1518
h-331l-224 294h228l162 -159l170 159h227z" />
    <glyph glyph-name="ccaron" unicode="&#x10d;" horiz-adv-x="1024" 
d="M977 297l8 -274q-142 -48 -301 -48q-275 0 -448 152t-173 405q0 254 171.5 407t449.5 153q170 0 293 -60l-27 -270q-99 59 -223 59q-125 0 -204 -81t-79 -214q0 -122 89 -201t217 -79q133 0 227 51zM815 1198h-332l-223 295h227l162 -160l170 160h228z" />
    <glyph glyph-name="Dcaron" unicode="&#x10e;" horiz-adv-x="1593" 
d="M655 0h-522v1430h520q440 0 643 -173t203 -536q0 -360 -214.5 -540.5t-629.5 -180.5zM514 283h152q209 0 324.5 109.5t115.5 322.5q0 209 -115 320.5t-329 111.5h-148v-864zM885 1518h-332l-223 294h227l162 -159l170 159h227z" />
    <glyph glyph-name="dcaron" unicode="&#x10f;" horiz-adv-x="1597" 
d="M1262 0h-340v190h-4q-39 -96 -142.5 -155.5t-224.5 -59.5q-150 0 -262 76.5t-169 206.5t-57 295q0 103 31.5 199t88.5 172t145 122t192 46q128 0 216 -40t151 -122h4v606h371v-1536zM668 258q95 0 160 79t65 193q0 122 -62 200.5t-165 78.5q-97 0 -159.5 -73.5
t-62.5 -190.5q0 -130 61 -208.5t163 -78.5zM1565 1085h-193l33 408h299z" />
    <glyph glyph-name="Dcroat" unicode="&#x110;" horiz-adv-x="1593" 
d="M657 0h-524v639h-137v209h137v582h531q426 0 630.5 -173t204.5 -536q0 -355 -212 -538t-630 -183zM514 283h152q209 0 324.5 109.5t115.5 322.5q0 214 -118 323t-324 109h-150v-299h342v-209h-342v-356z" />
    <glyph glyph-name="dcroat" unicode="&#x111;" horiz-adv-x="1368" 
d="M1262 0h-340v190h-4q-42 -98 -145.5 -156.5t-221.5 -58.5q-150 0 -262 76.5t-169 206.5t-57 295q0 102 31.5 198t88 172.5t144.5 122.5t193 46q126 0 214 -39.5t153 -122.5h4v287h-365v176h365v143h371v-143h147v-176h-147v-1217zM668 258q93 0 159 78.5t66 193.5
q0 124 -61.5 201.5t-163.5 77.5q-100 0 -162 -74.5t-62 -189.5q0 -129 60 -208t164 -79z" />
    <glyph glyph-name="Emacron" unicode="&#x112;" 
d="M1153 0h-1030v1430h1007v-271h-626v-295h592v-270h-592v-324h649v-270zM1022 1595h-768v172h768v-172z" />
    <glyph glyph-name="emacron" unicode="&#x113;" 
d="M1075 303v-260q-172 -68 -391 -68q-277 0 -449 153.5t-172 406.5q0 254 156.5 405.5t415.5 151.5q122 0 219.5 -36.5t169.5 -109.5t111 -190.5t39 -272.5v-57h-738q28 -205 314 -205q171 0 325 82zM432 635h410q0 106 -53.5 164.5t-151.5 58.5q-88 0 -143 -58t-62 -165z
M1028 1276h-768v172h768v-172z" />
    <glyph glyph-name="Ebreve" unicode="&#x114;" 
d="M1153 0h-1030v1430h1007v-271h-626v-295h592v-270h-592v-324h649v-270zM870 1831h156q-19 -159 -117 -240.5t-270 -81.5t-270 81.5t-117 240.5h156q33 -150 231 -150q195 0 231 150z" />
    <glyph glyph-name="ebreve" unicode="&#x115;" 
d="M1075 303v-260q-172 -68 -391 -68q-277 0 -449 153.5t-172 406.5q0 254 156.5 405.5t415.5 151.5q122 0 219.5 -36.5t169.5 -109.5t111 -190.5t39 -272.5v-57h-738q28 -205 314 -205q171 0 325 82zM432 635h410q0 106 -53.5 164.5t-151.5 58.5q-88 0 -143 -58t-62 -165z
M856 1493h156q-17 -158 -117.5 -240t-269.5 -82q-172 0 -271 82.5t-116 239.5h155q17 -73 76.5 -111.5t155.5 -38.5q194 0 231 150z" />
    <glyph glyph-name="Edotaccent" unicode="&#x116;" 
d="M1153 0h-1030v1430h1007v-271h-626v-295h592v-270h-592v-324h649v-270zM793 1518h-295v294h295v-294z" />
    <glyph glyph-name="edotaccent" unicode="&#x117;" 
d="M1075 303v-260q-172 -68 -391 -68q-277 0 -449 153.5t-172 406.5q0 254 156.5 405.5t415.5 151.5q122 0 219.5 -36.5t169.5 -109.5t111 -190.5t39 -272.5v-57h-738q28 -205 314 -205q171 0 325 82zM432 635h410q0 106 -53.5 164.5t-151.5 58.5q-88 0 -143 -58t-62 -165z
M782 1198h-295v295h295v-295z" />
    <glyph glyph-name="Eogonek" unicode="&#x118;" 
d="M1071 -262l78 -35q-54 -85 -124 -121.5t-167 -36.5t-154 47.5t-57 124.5q0 48 18.5 90t74.5 94t151 99h-768v1430h1007v-271h-626v-295h592v-270h-592v-324h649v-270h-121q-93 -72 -134.5 -128t-41.5 -108q0 -37 25.5 -60t62.5 -23q70 0 127 57z" />
    <glyph glyph-name="eogonek" unicode="&#x119;" 
d="M813 -262l78 -35q-54 -85 -124 -121.5t-167 -36.5q-94 0 -152.5 46t-58.5 126q0 149 207 263q-239 25 -386 173.5t-147 381.5q0 257 157.5 407t414.5 150q248 0 393.5 -151.5t145.5 -455.5v-59h-738q17 -107 96 -156t218 -49q168 0 325 82v-260q-154 -57 -332 -66
q-73 -64 -109 -112t-36 -101q0 -37 25.5 -60t62.5 -23q70 0 127 57zM432 635h410q0 105 -52.5 164t-152.5 59q-89 0 -143.5 -58.5t-61.5 -164.5z" />
    <glyph glyph-name="Ecaron" unicode="&#x11a;" 
d="M1153 0h-1030v1430h1007v-271h-626v-295h592v-270h-592v-324h649v-270zM805 1518h-332l-223 294h227l162 -159l170 159h227z" />
    <glyph glyph-name="ecaron" unicode="&#x11b;" 
d="M1075 303v-260q-172 -68 -391 -68q-277 0 -449 153.5t-172 406.5q0 254 156.5 405.5t415.5 151.5q122 0 219.5 -36.5t169.5 -109.5t111 -190.5t39 -272.5v-57h-738q28 -205 314 -205q171 0 325 82zM432 635h410q0 106 -53.5 164.5t-151.5 58.5q-88 0 -143 -58t-62 -165z
M811 1198h-332l-223 295h227l162 -160l170 160h227z" />
    <glyph glyph-name="Gcircumflex" unicode="&#x11c;" horiz-adv-x="1593" 
d="M1085 283v282h-223v271h592v-795q-147 -36 -270 -51t-279 -15q-135 0 -256.5 28.5t-225.5 87.5t-180.5 144.5t-119.5 207t-43 266.5q0 366 231 555.5t670 189.5q274 0 434 -63l-31 -312q-159 92 -350 92q-273 0 -417 -123t-144 -339q0 -204 130.5 -327.5t344.5 -123.5
q82 0 137 25zM1309 1518h-256l-133 159l-142 -159h-256l232 294h331z" />
    <glyph glyph-name="gcircumflex" unicode="&#x11d;" horiz-adv-x="1368" 
d="M901 127v55h-4q-128 -182 -358 -182q-214 0 -345 146.5t-131 390.5q0 260 126 407.5t356 147.5q115 0 208.5 -58t153.5 -160h4v193h334v-936q0 -209 -62 -335.5t-203 -188.5t-378 -62q-219 0 -407 68l18 291q98 -49 180 -68.5t178 -19.5q330 0 330 311zM653 283
q101 0 168.5 77t67.5 197q0 45 -13.5 88t-40.5 80.5t-74.5 60.5t-109.5 23q-96 0 -151.5 -75t-55.5 -191q0 -121 62 -190.5t147 -69.5zM1112 1198h-256l-133 160l-141 -160h-256l231 295h332z" />
    <glyph glyph-name="Gbreve" unicode="&#x11e;" horiz-adv-x="1593" 
d="M1085 283v282h-223v271h592v-795q-147 -36 -270 -51t-279 -15q-135 0 -256.5 28.5t-225.5 87.5t-180.5 144.5t-119.5 207t-43 266.5q0 366 231 555.5t670 189.5q274 0 434 -63l-31 -312q-159 92 -350 92q-273 0 -417 -123t-144 -339q0 -204 130.5 -327.5t344.5 -123.5
q82 0 137 25zM1153 1831h156q-19 -159 -117 -240.5t-270 -81.5t-270 81.5t-117 240.5h155q15 -71 73.5 -110.5t158.5 -39.5q195 0 231 150z" />
    <glyph glyph-name="gbreve" unicode="&#x11f;" horiz-adv-x="1368" 
d="M901 127v55h-4q-128 -182 -358 -182q-214 0 -345 146.5t-131 390.5q0 260 126 407.5t356 147.5q115 0 208.5 -58t153.5 -160h4v193h334v-936q0 -209 -62 -335.5t-203 -188.5t-378 -62q-219 0 -407 68l18 291q98 -49 180 -68.5t178 -19.5q330 0 330 311zM653 283
q101 0 168.5 77t67.5 197q0 45 -13.5 88t-40.5 80.5t-74.5 60.5t-109.5 23q-96 0 -151.5 -75t-55.5 -191q0 -121 62 -190.5t147 -69.5zM952 1493h156q-17 -158 -117.5 -240t-269.5 -82q-172 0 -271 82.5t-116 239.5h155q17 -73 76.5 -111.5t155.5 -38.5q194 0 231 150z" />
    <glyph glyph-name="Gdotaccent" unicode="&#x120;" horiz-adv-x="1593" 
d="M1085 283v282h-223v271h592v-795q-147 -36 -270 -51t-279 -15q-135 0 -256.5 28.5t-225.5 87.5t-180.5 144.5t-119.5 207t-43 266.5q0 366 231 555.5t670 189.5q274 0 434 -63l-31 -312q-159 92 -350 92q-273 0 -417 -123t-144 -339q0 -204 130.5 -327.5t344.5 -123.5
q82 0 137 25zM1069 1518h-295v294h295v-294z" />
    <glyph glyph-name="gdotaccent" unicode="&#x121;" horiz-adv-x="1368" 
d="M901 127v55h-4q-128 -182 -358 -182q-214 0 -345 146.5t-131 390.5q0 260 126 407.5t356 147.5q115 0 208.5 -58t153.5 -160h4v193h334v-936q0 -209 -62 -335.5t-203 -188.5t-378 -62q-219 0 -407 68l18 291q98 -49 180 -68.5t178 -19.5q330 0 330 311zM653 283
q101 0 168.5 77t67.5 197q0 45 -13.5 88t-40.5 80.5t-74.5 60.5t-109.5 23q-96 0 -151.5 -75t-55.5 -191q0 -121 62 -190.5t147 -69.5zM868 1198h-295v295h295v-295z" />
    <glyph glyph-name="Gcommaaccent" unicode="&#x122;" horiz-adv-x="1593" 
d="M1085 283v282h-223v271h592v-795q-147 -36 -270 -51t-279 -15q-135 0 -256.5 28.5t-225.5 87.5t-180.5 144.5t-119.5 207t-43 266.5q0 366 231 555.5t670 189.5q274 0 434 -63l-31 -312q-159 92 -350 92q-273 0 -417 -123t-144 -339q0 -204 130.5 -327.5t344.5 -123.5
q82 0 137 25zM961 -475h-269l72 325h330z" />
    <glyph glyph-name="gcommaaccent" unicode="&#x123;" horiz-adv-x="1368" 
d="M901 127v55h-4q-128 -182 -358 -182q-214 0 -345 146.5t-131 390.5q0 260 126 407.5t356 147.5q115 0 208.5 -58t153.5 -160h4v193h334v-936q0 -209 -62 -335.5t-203 -188.5t-378 -62q-219 0 -407 68l18 291q98 -49 180 -68.5t178 -19.5q330 0 330 311zM653 283
q101 0 168.5 77t67.5 197q0 45 -13.5 88t-40.5 80.5t-74.5 60.5t-109.5 23q-96 0 -151.5 -75t-55.5 -191q0 -121 62 -190.5t147 -69.5zM844 1198h-316l129 295h254z" />
    <glyph glyph-name="Hcircumflex" unicode="&#x124;" horiz-adv-x="1478" 
d="M1346 0h-381v612h-451v-612h-381v1430h381v-547h451v547h381v-1430zM1130 1518h-256l-133 159l-141 -159h-256l231 294h332z" />
    <glyph glyph-name="hcircumflex" unicode="&#x125;" horiz-adv-x="1366" 
d="M1251 0h-368v518q0 266 -170 266q-230 0 -230 -331v-453h-368v1536h368v-627h4q131 183 357 183q197 0 302 -118t105 -310v-664zM1067 1610h-256l-133 159l-141 -159h-256l231 295h332z" />
    <glyph glyph-name="Hbar" unicode="&#x126;" horiz-adv-x="1478" 
d="M1346 0h-381v545h-451v-545h-381v1024h-121v195h121v211h381v-211h451v211h381v-211h120v-195h-120v-1024zM965 801v223h-451v-223h451z" />
    <glyph glyph-name="hbar" unicode="&#x127;" horiz-adv-x="1366" 
d="M1251 0h-368v518q0 266 -170 266q-230 0 -230 -331v-453h-368v1217h-148v176h148v143h368v-143h371v-176h-371v-308h4q131 183 357 183q197 0 302 -118t105 -310v-664z" />
    <glyph glyph-name="Itilde" unicode="&#x128;" horiz-adv-x="684" 
d="M532 0h-380v1430h380v-1430zM598 1812h147q-17 -138 -85.5 -213t-178.5 -75q-55 0 -159 37q-103 36 -134 36q-43 0 -66 -19.5t-32 -59.5h-147q15 132 84.5 210t175.5 78q54 0 159 -37q101 -36 134 -36q88 0 102 79z" />
    <glyph glyph-name="itilde" unicode="&#x129;" horiz-adv-x="684" 
d="M526 0h-368v1067h368v-1067zM596 1493h147q-17 -138 -85.5 -213.5t-178.5 -75.5q-56 0 -160 37q-10 3 -31.5 11t-30.5 11t-23.5 7.5t-25.5 6t-22 1.5q-79 0 -98 -80h-147q15 132 84.5 210.5t175.5 78.5q54 0 159 -37q6 -2 26.5 -9.5t30 -10.5t25.5 -8t28.5 -7t23.5 -2
q88 0 102 80z" />
    <glyph glyph-name="Imacron" unicode="&#x12a;" horiz-adv-x="684" 
d="M532 0h-380v1430h380v-1430zM727 1595h-768v172h768v-172z" />
    <glyph glyph-name="imacron" unicode="&#x12b;" horiz-adv-x="684" 
d="M526 0h-368v1067h368v-1067zM729 1276h-768v172h768v-172z" />
    <glyph glyph-name="Iogonek" unicode="&#x12e;" horiz-adv-x="684" 
d="M532 -262l78 -35q-54 -85 -124 -121.5t-167 -36.5q-99 0 -154.5 48t-55.5 124q0 79 55 146.5t188 136.5h-200v1430h380v-1430h-38q-95 -75 -136 -129.5t-41 -106.5q0 -37 26 -60t63 -23q69 0 126 57z" />
    <glyph glyph-name="iogonek" unicode="&#x12f;" horiz-adv-x="684" 
d="M526 1241h-368v270h368v-270zM506 -262l78 -35q-54 -85 -124 -121.5t-167 -36.5t-154 47.5t-57 124.5q0 78 55.5 146t188.5 137h-168v1067h368v-1067h-59q-97 -76 -136.5 -130.5t-39.5 -105.5q0 -37 25.5 -60t62.5 -23q70 0 127 57z" />
    <glyph glyph-name="Idotaccent" unicode="&#x130;" horiz-adv-x="684" 
d="M532 0h-380v1430h380v-1430zM489 1518h-294v294h294v-294z" />
    <glyph glyph-name="dotlessi" unicode="&#x131;" horiz-adv-x="684" 
d="M526 0h-368v1067h368v-1067z" />
    <glyph glyph-name="IJ" unicode="&#x132;" horiz-adv-x="1531" 
d="M532 0h-380v1430h380v-1430zM651 14v316q76 -35 172 -35q195 0 195 309v826h381v-945q0 -510 -510 -510q-82 0 -238 39z" />
    <glyph glyph-name="ij" unicode="&#x133;" horiz-adv-x="1331" 
d="M526 1241h-368v270h368v-270zM526 0h-368v1067h368v-1067zM1174 1241h-369v270h369v-270zM596 -436l8 233q40 -6 76 -6q21 0 37.5 3.5t33.5 15.5t28.5 32.5t18.5 57t7 86.5v1081h369v-1081q0 -226 -90.5 -333.5t-282.5 -107.5q-115 0 -205 19z" />
    <glyph glyph-name="Jcircumflex" unicode="&#x134;" horiz-adv-x="909" 
d="M29 14v316q76 -35 172 -35q194 0 194 309v826h381v-945q0 -510 -510 -510q-81 0 -237 39zM979 1518h-256l-133 159l-141 -159h-256l231 294h332z" />
    <glyph glyph-name="jcircumflex" unicode="&#x135;" horiz-adv-x="684" 
d="M-51 -436l8 233q40 -6 76 -6q21 0 37.5 3.5t33.5 15.5t28.5 32.5t18.5 57t7 86.5v1081h368v-1081q0 -226 -90 -333.5t-282 -107.5q-115 0 -205 19zM735 1198h-256l-133 160l-141 -160h-256l231 295h332z" />
    <glyph glyph-name="Kcommaaccent" unicode="&#x136;" horiz-adv-x="1478" 
d="M1448 0h-485l-445 649h-4v-649h-381v1430h381v-584h4l430 584h459l-528 -666zM770 -475h-268l71 325h330z" />
    <glyph glyph-name="kcommaaccent" unicode="&#x137;" 
d="M1229 0h-447l-295 528h-4v-528h-368v1536h368v-918h4l308 449h403l-371 -489zM676 -475h-268l71 325h330z" />
    <glyph glyph-name="Lacute" unicode="&#x139;" horiz-adv-x="1138" 
d="M1104 0h-971v1430h381v-1147h590v-283zM430 1518h-258l139 294h383z" />
    <glyph glyph-name="lacute" unicode="&#x13a;" horiz-adv-x="684" 
d="M526 0h-368v1536h368v-1536zM436 1610h-258l139 295h383z" />
    <glyph glyph-name="Lcommaaccent" unicode="&#x13b;" horiz-adv-x="1138" 
d="M1104 0h-971v1430h381v-1147h590v-283zM649 -475h-268l72 325h329z" />
    <glyph glyph-name="lcommaaccent" unicode="&#x13c;" horiz-adv-x="684" 
d="M526 0h-368v1536h368v-1536zM377 -475h-268l71 325h330z" />
    <glyph glyph-name="Lcaron" unicode="&#x13d;" horiz-adv-x="1138" 
d="M1104 0h-971v1430h381v-1147h590v-283zM870 1085h-192l33 408h299z" />
    <glyph glyph-name="lcaron" unicode="&#x13e;" horiz-adv-x="866" 
d="M526 0h-368v1536h368v-1536zM829 1085h-192l33 408h299z" />
    <glyph glyph-name="Ldot" unicode="&#x13f;" horiz-adv-x="1138" 
d="M1104 0h-971v1430h381v-1147h590v-283zM977 635h-295v295h295v-295z" />
    <glyph glyph-name="ldot" unicode="&#x140;" horiz-adv-x="1064" 
d="M526 0h-368v1536h368v-1536zM975 637h-295v295h295v-295z" />
    <glyph glyph-name="Lslash" unicode="&#x141;" horiz-adv-x="1138" 
d="M1104 0h-971v426l-133 -78v223l133 78v781h381v-556l375 222v-224l-375 -221v-368h590v-283z" />
    <glyph glyph-name="lslash" unicode="&#x142;" horiz-adv-x="684" 
d="M526 0h-368v565l-158 -94v205l158 94v766h368v-549l158 92v-205l-158 -92v-782z" />
    <glyph glyph-name="Nacute" unicode="&#x143;" horiz-adv-x="1593" 
d="M1454 0h-473l-500 977h-4l12 -977h-350v1430h486l483 -971h4l-6 971h348v-1430zM913 1518h-258l140 294h383z" />
    <glyph glyph-name="nacute" unicode="&#x144;" horiz-adv-x="1366" 
d="M1251 0h-368v518q0 266 -170 266q-230 0 -230 -331v-453h-368v1067h336v-197h4q50 105 150.5 163.5t238.5 58.5q197 0 302 -118t105 -310v-664zM786 1198h-258l140 295h383z" />
    <glyph glyph-name="Ncommaaccent" unicode="&#x145;" horiz-adv-x="1593" 
d="M1454 0h-473l-500 977h-4l12 -977h-350v1430h486l483 -971h4l-6 971h348v-1430zM879 -475h-269l72 325h330z" />
    <glyph glyph-name="ncommaaccent" unicode="&#x146;" horiz-adv-x="1366" 
d="M1251 0h-368v518q0 266 -170 266q-230 0 -230 -331v-453h-368v1067h336v-197h4q50 105 150.5 163.5t238.5 58.5q197 0 302 -118t105 -310v-664zM723 -475h-268l71 325h330z" />
    <glyph glyph-name="Ncaron" unicode="&#x147;" horiz-adv-x="1593" 
d="M1454 0h-473l-500 977h-4l12 -977h-350v1430h486l483 -971h4l-6 971h348v-1430zM983 1518h-332l-223 294h227l162 -159l170 159h227z" />
    <glyph glyph-name="ncaron" unicode="&#x148;" horiz-adv-x="1366" 
d="M1251 0h-368v518q0 266 -170 266q-230 0 -230 -331v-453h-368v1067h336v-197h4q50 105 150.5 163.5t238.5 58.5q197 0 302 -118t105 -310v-664zM862 1198h-332l-223 295h228l161 -160l170 160h228z" />
    <glyph glyph-name="napostrophe" unicode="&#x149;" horiz-adv-x="1673" 
d="M-25 915l127 515h322l-191 -515h-258zM1559 0h-369v518q0 266 -170 266q-229 0 -229 -331v-453h-369v1067h336v-197h4q50 105 150.5 163.5t238.5 58.5q197 0 302.5 -118t105.5 -310v-664z" />
    <glyph glyph-name="Omacron" unicode="&#x14c;" horiz-adv-x="1593" 
d="M797 -25q-340 0 -528.5 195t-188.5 545q0 353 186.5 546t530.5 193q343 0 529.5 -193t186.5 -546q0 -351 -187 -545.5t-529 -194.5zM799 258q152 0 236.5 125.5t84.5 331.5q0 214 -84 335t-239 121q-154 0 -239 -119.5t-85 -336.5q0 -204 84 -330.5t242 -126.5z
M1190 1595h-768v172h768v-172z" />
    <glyph glyph-name="omacron" unicode="&#x14d;" horiz-adv-x="1368" 
d="M1305 532q0 -250 -171.5 -403.5t-449.5 -153.5t-449.5 152.5t-171.5 404.5t170.5 406t450.5 154q279 0 450 -154t171 -406zM684 233q112 0 176 80t64 219q0 138 -63 220t-179 82q-110 0 -174 -81t-64 -221q0 -139 64 -219t176 -80zM1071 1276h-768v172h768v-172z" />
    <glyph glyph-name="Obreve" unicode="&#x14e;" horiz-adv-x="1593" 
d="M797 -25q-340 0 -528.5 195t-188.5 545q0 353 186.5 546t530.5 193q343 0 529.5 -193t186.5 -546q0 -351 -187 -545.5t-529 -194.5zM799 258q152 0 236.5 125.5t84.5 331.5q0 214 -84 335t-239 121q-154 0 -239 -119.5t-85 -336.5q0 -204 84 -330.5t242 -126.5z
M1030 1831h156q-19 -159 -117 -240.5t-270 -81.5t-270 81.5t-117 240.5h155q15 -71 73.5 -110.5t158.5 -39.5q195 0 231 150z" />
    <glyph glyph-name="obreve" unicode="&#x14f;" horiz-adv-x="1368" 
d="M1305 532q0 -250 -171.5 -403.5t-449.5 -153.5t-449.5 152.5t-171.5 404.5t170.5 406t450.5 154q279 0 450 -154t171 -406zM684 233q112 0 176 80t64 219q0 138 -63 220t-179 82q-110 0 -174 -81t-64 -221q0 -139 64 -219t176 -80zM915 1493h156q-17 -158 -117.5 -240
t-269.5 -82q-172 0 -271 82.5t-116 239.5h156q17 -73 76 -111.5t155 -38.5q194 0 231 150z" />
    <glyph glyph-name="Ohungarumlaut" unicode="&#x150;" horiz-adv-x="1593" 
d="M797 -25q-340 0 -528.5 195t-188.5 545q0 353 186.5 546t530.5 193q343 0 529.5 -193t186.5 -546q0 -351 -187 -545.5t-529 -194.5zM799 258q152 0 236.5 125.5t84.5 331.5q0 214 -84 335t-239 121q-154 0 -239 -119.5t-85 -336.5q0 -204 84 -330.5t242 -126.5zM647 1518
h-258l139 294h383zM1155 1518h-258l139 294h383z" />
    <glyph glyph-name="ohungarumlaut" unicode="&#x151;" horiz-adv-x="1368" 
d="M1305 532q0 -250 -171.5 -403.5t-449.5 -153.5t-449.5 152.5t-171.5 404.5t170.5 406t450.5 154q279 0 450 -154t171 -406zM684 233q112 0 176 80t64 219q0 138 -63 220t-179 82q-110 0 -174 -81t-64 -221q0 -139 64 -219t176 -80zM528 1198h-258l140 295h383zM1036 1198
h-258l140 295h382z" />
    <glyph glyph-name="OE" unicode="&#x152;" horiz-adv-x="2048" 
d="M2011 0h-870q-40 0 -191.5 -6t-191.5 -6q-342 0 -531.5 193.5t-189.5 533.5q0 344 187 535.5t538 191.5q72 0 285.5 -6t250.5 -6h691v-271h-594v-295h555v-270h-549v-324h610v-270zM1008 279v872q-42 0 -126.5 4t-125.5 4q-164 0 -245 -106t-81 -336q0 -193 96 -320
t265 -127q43 0 117 4.5t100 4.5z" />
    <glyph glyph-name="oe" unicode="&#x153;" horiz-adv-x="2048" 
d="M1894 303v-260q-172 -68 -391 -68q-165 0 -270 43t-172 129q-65 -86 -166.5 -129t-269.5 -43q-261 0 -415.5 150t-154.5 407q0 260 161.5 410t420.5 150q156 0 253.5 -39t166.5 -123q143 162 397 162q249 0 394 -152t145 -455v-59h-738q28 -205 314 -205q171 0 325 82z
M1251 635h410q0 103 -52 163t-155 60q-88 0 -142 -59t-61 -164zM659 221q105 0 164.5 90.5t59.5 220.5q0 83 -23 152t-76 115.5t-127 46.5q-102 0 -161.5 -90.5t-59.5 -223.5q0 -83 23.5 -152t75.5 -114t124 -45z" />
    <glyph glyph-name="Racute" unicode="&#x154;" horiz-adv-x="1366" 
d="M1331 0h-397l-90 283q-30 94 -57.5 151t-60.5 85.5t-65 37t-83 8.5h-74v-565h-381v1430h674q218 0 342.5 -95.5t124.5 -265.5q0 -143 -69 -235.5t-206 -124.5v-4q69 -19 102 -72t89 -209zM504 836h121q60 0 102.5 6.5t80 23.5t56.5 51t19 84q0 86 -70.5 122t-210.5 36
h-98v-323zM743 1518h-258l140 294h383z" />
    <glyph glyph-name="racute" unicode="&#x155;" horiz-adv-x="909" 
d="M483 0h-368v1067h336v-197h4q53 113 130 167.5t185 54.5q40 0 125 -13l-18 -307q-40 12 -123 12q-126 0 -198.5 -85t-72.5 -250v-449zM618 1198h-258l140 295h383z" />
    <glyph glyph-name="Rcommaaccent" unicode="&#x156;" horiz-adv-x="1366" 
d="M1331 0h-397l-90 283q-30 94 -57.5 151t-60.5 85.5t-65 37t-83 8.5h-74v-565h-381v1430h674q218 0 342.5 -95.5t124.5 -265.5q0 -143 -69 -235.5t-206 -124.5v-4q69 -19 102 -72t89 -209zM504 836h121q60 0 102.5 6.5t80 23.5t56.5 51t19 84q0 86 -70.5 122t-210.5 36
h-98v-323zM737 -475h-268l72 325h329z" />
    <glyph glyph-name="rcommaaccent" unicode="&#x157;" horiz-adv-x="909" 
d="M483 0h-368v1067h336v-197h4q53 113 130 167.5t185 54.5q40 0 125 -13l-18 -307q-40 12 -123 12q-126 0 -198.5 -85t-72.5 -250v-449zM338 -475h-268l71 325h330z" />
    <glyph glyph-name="Rcaron" unicode="&#x158;" horiz-adv-x="1366" 
d="M1331 0h-397l-90 283q-30 94 -57.5 151t-60.5 85.5t-65 37t-83 8.5h-74v-565h-381v1430h674q218 0 342.5 -95.5t124.5 -265.5q0 -143 -69 -235.5t-206 -124.5v-4q69 -19 102 -72t89 -209zM504 836h121q60 0 102.5 6.5t80 23.5t56.5 51t19 84q0 86 -70.5 122t-210.5 36
h-98v-323zM811 1518h-332l-223 294h227l162 -159l170 159h227z" />
    <glyph glyph-name="rcaron" unicode="&#x159;" horiz-adv-x="909" 
d="M483 0h-368v1067h336v-197h4q53 113 130 167.5t185 54.5q40 0 125 -13l-18 -307q-40 12 -123 12q-126 0 -198.5 -85t-72.5 -250v-449zM684 1198h-332l-223 295h227l162 -160l170 160h227z" />
    <glyph glyph-name="Sacute" unicode="&#x15a;" 
d="M104 37l33 315q174 -94 391 -94q123 0 180.5 34.5t57.5 104.5q0 69 -58 109t-192 78q-82 23 -140 45.5t-115.5 58t-92.5 78.5t-56.5 106.5t-21.5 143.5q0 212 166 325t459 113q212 0 366 -53l-24 -295q-142 65 -318 65q-127 0 -191.5 -31t-64.5 -102q0 -28 15 -51
t34 -37.5t61.5 -31t71 -25t88.5 -24.5q7 -2 11 -3q210 -56 302.5 -156t92.5 -264q0 -232 -161.5 -351.5t-467.5 -119.5q-228 0 -426 62zM735 1518h-258l139 294h383z" />
    <glyph glyph-name="sacute" unicode="&#x15b;" horiz-adv-x="1024" 
d="M74 27l20 268q172 -74 346 -74q89 0 119.5 24t30.5 64q0 48 -46 71t-206 66q-72 20 -124.5 49t-80.5 58t-43.5 66.5t-19.5 64.5t-4 61q0 111 65.5 191.5t166.5 118t224 37.5q216 0 373 -62l-29 -256q-52 32 -131.5 52t-154.5 20q-81 0 -125.5 -19t-44.5 -55
q0 -42 46.5 -65.5t166.5 -49.5q103 -23 172.5 -57.5t103.5 -79t46.5 -88.5t12.5 -100q0 -174 -127.5 -265.5t-371.5 -91.5q-223 0 -385 52zM627 1198h-258l139 295h383z" />
    <glyph glyph-name="Scircumflex" unicode="&#x15c;" 
d="M104 37l33 315q174 -94 391 -94q123 0 180.5 34.5t57.5 104.5q0 69 -58 109t-192 78q-82 23 -140 45.5t-115.5 58t-92.5 78.5t-56.5 106.5t-21.5 143.5q0 212 166 325t459 113q212 0 366 -53l-24 -295q-142 65 -318 65q-127 0 -191.5 -31t-64.5 -102q0 -28 15 -51
t34 -37.5t61.5 -31t71 -25t88.5 -24.5q7 -2 11 -3q210 -56 302.5 -156t92.5 -264q0 -232 -161.5 -351.5t-467.5 -119.5q-228 0 -426 62zM1024 1518h-256l-133 159l-141 -159h-256l231 294h332z" />
    <glyph glyph-name="scircumflex" unicode="&#x15d;" horiz-adv-x="1024" 
d="M74 27l20 268q172 -74 346 -74q89 0 119.5 24t30.5 64q0 48 -46 71t-206 66q-72 20 -124.5 49t-80.5 58t-43.5 66.5t-19.5 64.5t-4 61q0 111 65.5 191.5t166.5 118t224 37.5q216 0 373 -62l-29 -256q-52 32 -131.5 52t-154.5 20q-81 0 -125.5 -19t-44.5 -55
q0 -42 46.5 -65.5t166.5 -49.5q103 -23 172.5 -57.5t103.5 -79t46.5 -88.5t12.5 -100q0 -174 -127.5 -265.5t-371.5 -91.5q-223 0 -385 52zM905 1198h-256l-133 160l-141 -160h-256l231 295h332z" />
    <glyph glyph-name="Scedilla" unicode="&#x15e;" 
d="M524 -233l-80 49l109 159h-14q-237 0 -435 62l33 315q165 -94 391 -94q115 0 176.5 31t61.5 108q0 65 -50.5 103.5t-164.5 72.5q-10 3 -47 14.5t-53 16.5q-79 22 -140 52.5t-99 66t-63.5 71t-37.5 77t-16.5 74t-4.5 71.5q0 213 166.5 325.5t458.5 112.5q212 0 366 -53
l-24 -295q-136 65 -322 65q-73 0 -124.5 -10.5t-78 -29.5t-38 -41.5t-11.5 -51.5q0 -33 16 -57t68.5 -49.5t147.5 -50.5q102 -29 141 -43q78 -27 135.5 -65.5t89 -77t50 -86.5t23.5 -85.5t5 -83.5q0 -183 -112 -303t-351 -151l-86 -119q54 10 88 10q76 0 123 -40t47 -107
q0 -80 -65 -132.5t-203 -52.5q-92 0 -148.5 11t-109.5 36l35 95q93 -43 180 -43q102 0 102 69q0 68 -75 68q-32 0 -60 -14z" />
    <glyph glyph-name="scedilla" unicode="&#x15f;" horiz-adv-x="1024" 
d="M389 -233l-80 49l109 159q-202 5 -344 52l20 268q165 -74 344 -74q81 0 116.5 21t35.5 65t-45.5 72t-153.5 53q-95 22 -160 53t-100.5 72t-50 85.5t-14.5 102.5q0 110 64 190t165.5 118.5t226.5 38.5q213 0 373 -62l-29 -256q-58 34 -135 53t-151 19q-81 0 -125.5 -19
t-44.5 -55q0 -42 49 -65.5t162 -47.5q102 -21 171 -55.5t103.5 -79t48.5 -90t14 -102.5q0 -153 -100.5 -245t-300.5 -107l-82 -113q49 10 88 10q82 0 126 -42t44 -105q0 -78 -64.5 -131.5t-197.5 -53.5q-168 0 -264 47l35 95q93 -43 182 -43q100 0 100 69q0 68 -75 68
q-32 0 -60 -14z" />
    <glyph glyph-name="Scaron" unicode="&#x160;" 
d="M104 37l33 315q174 -94 391 -94q123 0 180.5 34.5t57.5 104.5q0 69 -58 109t-192 78q-82 23 -140 45.5t-115.5 58t-92.5 78.5t-56.5 106.5t-21.5 143.5q0 212 166 325t459 113q212 0 366 -53l-24 -295q-142 65 -318 65q-127 0 -191.5 -31t-64.5 -102q0 -28 15 -51
t34 -37.5t61.5 -31t71 -25t88.5 -24.5q7 -2 11 -3q210 -56 302.5 -156t92.5 -264q0 -232 -161.5 -351.5t-467.5 -119.5q-228 0 -426 62zM791 1518h-332l-223 294h227l162 -159l170 159h227z" />
    <glyph glyph-name="scaron" unicode="&#x161;" horiz-adv-x="1024" 
d="M74 27l20 268q172 -74 346 -74q89 0 119.5 24t30.5 64q0 48 -46 71t-206 66q-72 20 -124.5 49t-80.5 58t-43.5 66.5t-19.5 64.5t-4 61q0 111 65.5 191.5t166.5 118t224 37.5q216 0 373 -62l-29 -256q-52 32 -131.5 52t-154.5 20q-81 0 -125.5 -19t-44.5 -55
q0 -42 46.5 -65.5t166.5 -49.5q103 -23 172.5 -57.5t103.5 -79t46.5 -88.5t12.5 -100q0 -174 -127.5 -265.5t-371.5 -91.5q-223 0 -385 52zM676 1198h-332l-223 295h227l162 -160l170 160h227z" />
    <glyph glyph-name="Tcommaaccent" unicode="&#x162;" horiz-adv-x="1138" 
d="M760 0h-381v1147h-352v283h1085v-283h-352v-1147zM602 -475h-268l72 325h329z" />
    <glyph glyph-name="tcommaaccent" unicode="&#x163;" horiz-adv-x="909" 
d="M860 236l12 -240q-155 -21 -231 -21q-220 0 -315 90.5t-95 299.5v444h-211v258h218v240l362 112v-352h258v-258h-258v-399q0 -102 34.5 -145.5t113.5 -43.5q18 0 112 15zM526 -475h-268l72 325h329z" />
    <glyph glyph-name="Tcaron" unicode="&#x164;" horiz-adv-x="1138" 
d="M760 0h-381v1147h-352v283h1085v-283h-352v-1147zM737 1518h-331l-224 294h228l161 -159l170 159h228z" />
    <glyph glyph-name="tcaron" unicode="&#x165;" horiz-adv-x="925" 
d="M874 1147h-182l31 346h254zM860 236l12 -240q-155 -21 -231 -21q-220 0 -315 90.5t-95 299.5v444h-211v258h218v240l362 112v-352h258v-258h-258v-399q0 -102 34.5 -145.5t113.5 -43.5q18 0 112 15z" />
    <glyph glyph-name="Tbar" unicode="&#x166;" horiz-adv-x="1138" 
d="M760 0h-381v682h-264v207h264v258h-352v283h1085v-283h-352v-258h264v-207h-264v-682z" />
    <glyph glyph-name="tbar" unicode="&#x167;" horiz-adv-x="909" 
d="M860 236l12 -240q-155 -21 -231 -21q-220 0 -315 90.5t-95 299.5v129h-180v170h180v174h-211v229h218v240l362 112v-352h258v-229h-258v-174h207v-170h-207v-84q0 -102 34.5 -145.5t113.5 -43.5q18 0 112 15z" />
    <glyph glyph-name="Utilde" unicode="&#x168;" horiz-adv-x="1478" 
d="M985 600v830h381v-891q0 -269 -163 -416.5t-464 -147.5q-304 0 -465 148.5t-161 415.5v891h381v-826q0 -346 245 -346q246 0 246 342zM995 1812h148q-17 -138 -85.5 -213t-178.5 -75q-56 0 -160 37q-7 2 -26.5 9t-26 9.5t-21 7t-22 6t-18 3t-19.5 1.5q-80 0 -99 -79h-147
q15 132 84.5 210t175.5 78q55 0 160 -37q101 -36 133 -36q88 0 102 79z" />
    <glyph glyph-name="utilde" unicode="&#x169;" horiz-adv-x="1366" 
d="M1251 0h-336v197h-4q-50 -105 -150.5 -163.5t-238.5 -58.5q-101 0 -179.5 33t-128 91t-74.5 134.5t-25 167.5v666h368v-518q0 -266 170 -266q230 0 230 329v455h368v-1067zM936 1493h147q-17 -138 -85.5 -213.5t-178.5 -75.5q-56 0 -160 37q-10 3 -31.5 11t-30.5 11
t-23.5 7.5t-25.5 6t-22 1.5q-79 0 -98 -80h-147q15 132 84.5 210.5t175.5 78.5q54 0 159 -37q6 -2 26.5 -9.5t30 -10.5t25.5 -8t28.5 -7t23.5 -2q88 0 102 80z" />
    <glyph glyph-name="Umacron" unicode="&#x16a;" horiz-adv-x="1478" 
d="M985 600v830h381v-891q0 -269 -163 -416.5t-464 -147.5q-304 0 -465 148.5t-161 415.5v891h381v-826q0 -346 245 -346q246 0 246 342zM1133 1595h-768v172h768v-172z" />
    <glyph glyph-name="umacron" unicode="&#x16b;" horiz-adv-x="1366" 
d="M1251 0h-336v197h-4q-50 -105 -150.5 -163.5t-238.5 -58.5q-101 0 -179.5 33t-128 91t-74.5 134.5t-25 167.5v666h368v-518q0 -266 170 -266q230 0 230 329v455h368v-1067zM1067 1276h-768v172h768v-172z" />
    <glyph glyph-name="Ubreve" unicode="&#x16c;" horiz-adv-x="1478" 
d="M985 600v830h381v-891q0 -269 -163 -416.5t-464 -147.5q-304 0 -465 148.5t-161 415.5v891h381v-826q0 -346 245 -346q246 0 246 342zM973 1831h155q-19 -159 -117 -240.5t-270 -81.5t-270 81.5t-117 240.5h156q33 -150 231 -150q196 0 232 150z" />
    <glyph glyph-name="ubreve" unicode="&#x16d;" horiz-adv-x="1366" 
d="M1251 0h-336v197h-4q-50 -105 -150.5 -163.5t-238.5 -58.5q-101 0 -179.5 33t-128 91t-74.5 134.5t-25 167.5v666h368v-518q0 -266 170 -266q230 0 230 329v455h368v-1067zM913 1493h156q-17 -158 -117.5 -240t-269.5 -82q-172 0 -271 82.5t-116 239.5h156
q17 -73 76 -111.5t155 -38.5q194 0 231 150z" />
    <glyph glyph-name="Uring" unicode="&#x16e;" horiz-adv-x="1478" 
d="M985 600v830h381v-891q0 -269 -163 -416.5t-464 -147.5q-304 0 -465 148.5t-161 415.5v891h381v-826q0 -346 245 -346q246 0 246 342zM750 1495q-94 0 -162 67.5t-68 161.5t68 162t162 68t161.5 -68.5t67.5 -161.5q0 -91 -66.5 -160t-162.5 -69zM848 1724q0 41 -28.5 70
t-71.5 29q-39 0 -68 -28.5t-29 -70.5t29 -70t70 -28t69.5 28.5t28.5 69.5z" />
    <glyph glyph-name="uring" unicode="&#x16f;" horiz-adv-x="1366" 
d="M1251 0h-336v197h-4q-50 -105 -150.5 -163.5t-238.5 -58.5q-101 0 -179.5 33t-128 91t-74.5 134.5t-25 167.5v666h368v-518q0 -266 170 -266q230 0 230 329v455h368v-1067zM688 1159q-93 0 -161 67.5t-68 162.5q0 94 67.5 161.5t161.5 67.5q96 0 163 -68t67 -161
q0 -96 -68.5 -163t-161.5 -67zM786 1389q0 41 -28.5 69.5t-69.5 28.5q-42 0 -70 -29t-28 -69q0 -41 28.5 -70t69.5 -29t69.5 29t28.5 70z" />
    <glyph glyph-name="Uhungarumlaut" unicode="&#x170;" horiz-adv-x="1478" 
d="M985 600v830h381v-891q0 -269 -163 -416.5t-464 -147.5q-304 0 -465 148.5t-161 415.5v891h381v-826q0 -346 245 -346q246 0 246 342zM590 1518h-258l139 294h383zM1098 1518h-258l139 294h383z" />
    <glyph glyph-name="uhungarumlaut" unicode="&#x171;" horiz-adv-x="1366" 
d="M1251 0h-336v197h-4q-50 -105 -150.5 -163.5t-238.5 -58.5q-101 0 -179.5 33t-128 91t-74.5 134.5t-25 167.5v666h368v-518q0 -266 170 -266q230 0 230 329v455h368v-1067zM528 1198h-258l140 295h383zM1036 1198h-258l140 295h382z" />
    <glyph glyph-name="Uogonek" unicode="&#x172;" horiz-adv-x="1478" 
d="M940 -262l78 -35q-54 -85 -124 -121.5t-167 -36.5q-99 0 -155 48t-56 124q0 146 199 258q-296 6 -449 154.5t-153 409.5v891h381v-826q0 -346 245 -346q246 0 246 342v830h381v-889q0 -240 -126.5 -383t-358.5 -172q-77 -65 -116.5 -116t-39.5 -106q0 -37 25.5 -60
t62.5 -23q70 0 127 57z" />
    <glyph glyph-name="uogonek" unicode="&#x173;" horiz-adv-x="1366" 
d="M1167 -262l78 -35q-56 -86 -124.5 -122t-166.5 -36q-96 0 -153.5 47t-57.5 125q0 73 52 142t192 141h-72v197h-4q-50 -106 -149.5 -164t-239.5 -58q-195 0 -301 116.5t-106 309.5v666h368v-516q0 -268 170 -268q117 0 173.5 81t56.5 250v453h368v-1067h-123
q-96 -75 -136 -130t-40 -106q0 -37 25.5 -60t62.5 -23q70 0 127 57z" />
    <glyph glyph-name="Wcircumflex" unicode="&#x174;" horiz-adv-x="2048" 
d="M1712 0h-489l-203 1098h-4l-189 -1098h-493l-318 1430h390l184 -1098h4l192 1098h484l200 -1098h5l186 1098h371zM1417 1518h-256l-133 159l-141 -159h-256l231 294h332z" />
    <glyph glyph-name="wcircumflex" unicode="&#x175;" horiz-adv-x="1933" 
d="M1589 0h-428l-180 772h-4l-203 -772h-428l-328 1067h385l172 -768h5l184 768h442l180 -768h5l168 768h356zM1360 1198h-256l-133 160l-142 -160h-256l232 295h332z" />
    <glyph glyph-name="Ycircumflex" unicode="&#x176;" horiz-adv-x="1478" 
d="M932 0h-381v539l-528 891h438l280 -574l277 574h438l-524 -891v-539zM1130 1518h-256l-133 159l-141 -159h-256l231 294h332z" />
    <glyph glyph-name="ycircumflex" unicode="&#x177;" 
d="M92 -430l25 280q67 -22 143 -22q71 0 119.5 38.5t69.5 108.5l-433 1092h398l229 -696h4l219 696h369l-438 -1114q-81 -214 -188 -311t-287 -97q-111 0 -230 25zM1018 1198h-256l-133 160l-142 -160h-256l232 295h332z" />
    <glyph glyph-name="Ydieresis" unicode="&#x178;" horiz-adv-x="1478" 
d="M932 0h-381v539l-528 891h438l280 -574l277 574h438l-524 -891v-539zM655 1518h-295v294h295v-294zM1122 1518h-295v294h295v-294z" />
    <glyph glyph-name="Zacute" unicode="&#x179;" 
d="M1171 0h-1118v303l680 844h-661v283h1095v-304l-700 -843h704v-283zM737 1518h-258l139 294h383z" />
    <glyph glyph-name="zacute" unicode="&#x17a;" horiz-adv-x="1024" 
d="M971 0h-918v295l488 502h-478v270h900v-295l-488 -502h496v-270zM647 1198h-258l139 295h383z" />
    <glyph glyph-name="Zdotaccent" unicode="&#x17b;" 
d="M1171 0h-1118v303l680 844h-661v283h1095v-304l-700 -843h704v-283zM795 1518h-295v294h295v-294z" />
    <glyph glyph-name="zdotaccent" unicode="&#x17c;" horiz-adv-x="1024" 
d="M971 0h-918v295l488 502h-478v270h900v-295l-488 -502h496v-270zM692 1198h-295v295h295v-295z" />
    <glyph glyph-name="Zcaron" unicode="&#x17d;" 
d="M1171 0h-1118v303l680 844h-661v283h1095v-304l-700 -843h704v-283zM791 1518h-332l-223 294h227l162 -159l170 159h227z" />
    <glyph glyph-name="zcaron" unicode="&#x17e;" horiz-adv-x="1024" 
d="M971 0h-918v295l488 502h-478v270h900v-295l-488 -502h496v-270zM676 1198h-332l-223 295h227l162 -160l170 160h227z" />
    <glyph glyph-name="florin" unicode="&#x192;" horiz-adv-x="1253" 
d="M1051 643h-254l-152 -709q-27 -116 -65 -192.5t-90 -119.5t-111 -60t-139 -17q-129 0 -240 54l43 245q15 -15 45.5 -28t61.5 -13q29 0 50.5 9.5t33 20.5t21 33t12 32t7.5 32l152 713h-215v221h262l45 213q37 187 128 282t265 95q149 0 260 -53l-43 -258q-50 53 -118 53
q-49 0 -77 -35t-44 -108l-41 -189h203v-221z" />
    <glyph glyph-name="Scommaaccent" unicode="&#x218;" 
d="M104 37l33 315q174 -94 391 -94q123 0 180.5 34.5t57.5 104.5q0 69 -58 109t-192 78q-82 23 -140 45.5t-115.5 58t-92.5 78.5t-56.5 106.5t-21.5 143.5q0 212 166 325t459 113q212 0 366 -53l-24 -295q-142 65 -318 65q-127 0 -191.5 -31t-64.5 -102q0 -28 15 -51
t34 -37.5t61.5 -31t71 -25t88.5 -24.5q7 -2 11 -3q210 -56 302.5 -156t92.5 -264q0 -232 -161.5 -351.5t-467.5 -119.5q-228 0 -426 62zM659 -475h-268l72 325h330z" />
    <glyph glyph-name="scommaaccent" unicode="&#x219;" horiz-adv-x="1024" 
d="M74 27l20 268q172 -74 346 -74q89 0 119.5 24t30.5 64q0 48 -46 71t-206 66q-72 20 -124.5 49t-80.5 58t-43.5 66.5t-19.5 64.5t-4 61q0 111 65.5 191.5t166.5 118t224 37.5q216 0 373 -62l-29 -256q-52 32 -131.5 52t-154.5 20q-81 0 -125.5 -19t-44.5 -55
q0 -42 46.5 -65.5t166.5 -49.5q103 -23 172.5 -57.5t103.5 -79t46.5 -88.5t12.5 -100q0 -174 -127.5 -265.5t-371.5 -91.5q-223 0 -385 52zM539 -475h-269l72 325h330z" />
    <glyph glyph-name="uni021A" unicode="&#x21a;" horiz-adv-x="1138" 
d="M760 0h-381v1147h-352v283h1085v-283h-352v-1147zM602 -475h-268l72 325h329z" />
    <glyph glyph-name="uni021B" unicode="&#x21b;" horiz-adv-x="909" 
d="M860 236l12 -240q-155 -21 -231 -21q-220 0 -315 90.5t-95 299.5v444h-211v258h218v240l362 112v-352h258v-258h-258v-399q0 -102 34.5 -145.5t113.5 -43.5q18 0 112 15zM526 -475h-268l72 325h329z" />
    <glyph glyph-name="dotlessj" unicode="&#x237;" horiz-adv-x="684" 
d="M-51 -436l8 233q40 -6 76 -6q21 0 37.5 3.5t33.5 15.5t28.5 32.5t18.5 57t7 86.5v1081h368v-1081q0 -226 -90 -333.5t-282 -107.5q-115 0 -205 19z" />
    <glyph glyph-name="circumflex" unicode="&#x2c6;" horiz-adv-x="681" 
d="M733 1198h-256l-133 160l-141 -160h-256l231 295h332z" />
    <glyph glyph-name="caron" unicode="&#x2c7;" horiz-adv-x="681" 
d="M504 1198h-332l-223 295h227l162 -160l170 160h227z" />
    <glyph glyph-name="uni02C9" unicode="&#x2c9;" horiz-adv-x="681" 
d="M725 1260h-768v172h768v-172z" />
    <glyph glyph-name="breve" unicode="&#x2d8;" horiz-adv-x="681" 
d="M573 1493h156q-17 -158 -117.5 -240t-269.5 -82q-172 0 -271 82.5t-116 239.5h156q17 -73 76 -111.5t155 -38.5q194 0 231 150z" />
    <glyph glyph-name="dotaccent" unicode="&#x2d9;" horiz-adv-x="681" 
d="M489 1198h-294v295h294v-295z" />
    <glyph glyph-name="ring" unicode="&#x2da;" horiz-adv-x="681" 
d="M342 1159q-93 0 -161 67.5t-68 162.5q0 94 67.5 161.5t161.5 67.5q96 0 162.5 -68t66.5 -161q0 -96 -68 -163t-161 -67zM440 1389q0 41 -28.5 69.5t-69.5 28.5q-42 0 -70 -29t-28 -69q0 -41 28.5 -70t69.5 -29t69.5 29t28.5 70z" />
    <glyph glyph-name="ogonek" unicode="&#x2db;" horiz-adv-x="681" 
d="M522 -262l78 -35q-55 -83 -122.5 -120.5t-178.5 -37.5q-97 0 -149 46.5t-52 134.5q0 74 58.5 139.5t185.5 134.5h141q-176 -134 -176 -236q0 -36 26 -59.5t62 -23.5q70 0 127 57z" />
    <glyph glyph-name="tilde" unicode="&#x2dc;" horiz-adv-x="681" 
d="M596 1493h147q-17 -138 -85.5 -213.5t-178.5 -75.5q-56 0 -160 37q-10 3 -31.5 11t-30.5 11t-23.5 7.5t-25.5 6t-22 1.5q-79 0 -98 -80h-147q15 132 84.5 210.5t175.5 78.5q54 0 159 -37q6 -2 26.5 -9.5t30 -10.5t25.5 -8t28.5 -7t23.5 -2q88 0 102 80z" />
    <glyph glyph-name="hungarumlaut" unicode="&#x2dd;" horiz-adv-x="681" 
d="M207 1198h-258l139 295h383zM715 1198h-258l139 295h383z" />
    <glyph glyph-name="uni0394" unicode="&#x394;" horiz-adv-x="1531" 
d="M1516 0h-1500l519 1430h466zM1018 270l-256 865h-4l-273 -865h533z" />
    <glyph glyph-name="uni03A9" unicode="&#x3a9;" horiz-adv-x="1646" 
d="M1542 0h-657l10 258q131 49 188.5 168t57.5 326q0 197 -85.5 309.5t-232.5 112.5q-148 0 -232.5 -118t-84.5 -325q0 -190 58.5 -306.5t187.5 -166.5l10 -258h-658v258h289q-280 173 -280 545q0 134 49.5 252.5t139 207t223 140t292.5 51.5q162 0 297 -49.5t227 -136.5
t142.5 -207.5t50.5 -261.5q0 -173 -75.5 -321t-207.5 -220h291v-258z" />
    <glyph glyph-name="uni03BC" unicode="&#x3bc;" horiz-adv-x="1366" 
d="M1251 0h-336v197h-4q-109 -222 -395 -222h-29v-405h-372v1497h368v-518q0 -266 170 -266q230 0 230 327v457h368v-1067z" />
    <glyph glyph-name="pi" unicode="&#x3c0;" horiz-adv-x="1429" 
d="M1378 252l11 -244q-105 -33 -199 -33q-204 0 -291.5 90t-87.5 291v453h-229v-809h-369v809h-186v258h1335v-258h-182v-453q0 -129 106 -129q41 0 92 25z" />
    <glyph glyph-name="uni1E9E" unicode="&#x1e9e;" horiz-adv-x="1562" 
d="M653 29l33 309q142 -80 264 -80q166 0 166 123q0 25 -7 46t-25 42t-31.5 34.5t-46.5 40t-50 42.5q-60 53 -90.5 82.5t-69.5 75.5t-56 88t-17 88q0 101 76 166t194 90q-66 8 -164 8q-168 0 -241.5 -79.5t-73.5 -252.5v-852h-381v926q0 122 30.5 213.5t85 151.5t139.5 96.5
t185 51.5t230 15q116 0 275 -10t253 -25v-266q-56 -3 -110 -19.5t-96 -53t-42 -85.5q0 -24 9.5 -46t32.5 -46.5t42 -41.5t58.5 -49t62.5 -52q62 -55 94 -88t66 -79.5t47.5 -95t13.5 -108.5q0 -136 -68 -231t-181.5 -139t-262.5 -44q-198 0 -344 54z" />
    <glyph glyph-name="uni2010" unicode="&#x2010;" horiz-adv-x="681" 
d="M618 416h-555v270h555v-270z" />
    <glyph glyph-name="endash" unicode="&#x2013;" horiz-adv-x="1024" 
d="M1024 422h-1024v258h1024v-258z" />
    <glyph glyph-name="emdash" unicode="&#x2014;" horiz-adv-x="2048" 
d="M2048 422h-2048v258h2048v-258z" />
    <glyph glyph-name="quoteleft" unicode="&#x2018;" horiz-adv-x="681" 
d="M444 874h-344l201 556h281z" />
    <glyph glyph-name="quoteright" unicode="&#x2019;" horiz-adv-x="681" 
d="M381 874h-281l138 556h344z" />
    <glyph glyph-name="quotesinglbase" unicode="&#x201a;" horiz-adv-x="681" 
d="M381 -223h-281l138 555h344z" />
    <glyph glyph-name="quotedblleft" unicode="&#x201c;" 
d="M494 874h-344l200 556h281zM965 874h-344l200 556h281z" />
    <glyph glyph-name="quotedblright" unicode="&#x201d;" 
d="M430 874h-280l137 556h344zM901 874h-280l137 556h344z" />
    <glyph glyph-name="quotedblbase" unicode="&#x201e;" 
d="M432 -223h-282l137 555h346zM901 -223h-283l138 555h346z" />
    <glyph glyph-name="dagger" unicode="&#x2020;" 
d="M793 0h-332v817h-355v270h355v343h332v-343h354v-270h-354v-817z" />
    <glyph glyph-name="daggerdbl" unicode="&#x2021;" 
d="M1147 276h-354v-276h-332v276h-355v246h355v383h-355v246h355v279h332v-279h354v-246h-354v-383h354v-246z" />
    <glyph glyph-name="bullet" unicode="&#x2022;" horiz-adv-x="1024" 
d="M512 356q-146 0 -251 104t-105 255q0 148 105 252t251 104q148 0 253 -105t105 -251q0 -149 -107 -254t-251 -105z" />
    <glyph glyph-name="ellipsis" unicode="&#x2026;" horiz-adv-x="2048" 
d="M514 0h-344v332h344v-332zM1196 0h-344v332h344v-332zM1878 0h-344v332h344v-332z" />
    <glyph glyph-name="perthousand" unicode="&#x2030;" horiz-adv-x="2048" 
d="M358 -45h-159l792 1520h164zM319 651q-317 0 -317 402q0 205 79 303t238 98q156 0 237 -100.5t81 -300.5q0 -197 -80 -299.5t-238 -102.5zM319 836q43 0 63.5 48t20.5 169t-20 169t-66 48q-41 0 -61 -49t-20 -168q0 -121 20 -169t63 -48zM1034 -25q-317 0 -317 402
q0 203 79 302t238 99q318 0 318 -401q0 -196 -80.5 -299t-237.5 -103zM1729 -25q-318 0 -318 402q0 205 79.5 303t238.5 98q156 0 236.5 -100.5t80.5 -300.5q0 -199 -80.5 -300.5t-236.5 -101.5zM1034 147q43 0 63.5 49t20.5 169t-20.5 168.5t-63.5 48.5t-63.5 -48.5
t-20.5 -168.5q0 -119 20 -168.5t64 -49.5zM1729 147q44 0 63.5 49t19.5 169t-19.5 168.5t-63.5 48.5t-64 -48t-20 -169q0 -119 20 -168.5t64 -49.5z" />
    <glyph glyph-name="guilsinglleft" unicode="&#x2039;" horiz-adv-x="681" 
d="M604 133h-303l-244 418l244 418h303l-225 -418z" />
    <glyph glyph-name="guilsinglright" unicode="&#x203a;" horiz-adv-x="681" 
d="M381 133h-303l225 418l-225 418h303l244 -418z" />
    <glyph glyph-name="fraction" unicode="&#x2044;" horiz-adv-x="342" 
d="M-113 -45h-223l793 1520h223z" />
    <glyph glyph-name="Euro" unicode="&#x20ac;" horiz-adv-x="1253" 
d="M1223 301l12 -287q-121 -39 -299 -39q-276 0 -468.5 139.5t-250.5 387.5h-213l35 141h158q-4 36 -4 70q0 27 4 73h-193l35 142h180q61 240 256 383t451 143q193 0 364 -57l-67 -262q-87 41 -226 41q-129 0 -224.5 -65.5t-141.5 -182.5h540l-34 -142h-547q-4 -28 -4 -67
q0 -48 4 -76h512l-37 -141h-434q47 -113 143.5 -177.5t220.5 -64.5q134 0 228 41z" />
    <glyph glyph-name="uni20B9" unicode="&#x20b9;" horiz-adv-x="1253" 
d="M1047 0h-461q-79 93 -229 294t-234 298v209h223q46 0 79 3t67.5 12.5t57 26t39.5 45t23 68.5h-489v172h483q-30 129 -235 129h-248v173h1108v-173h-330q56 -50 74 -129h256v-172h-250q-17 -180 -123 -262t-293 -82h-33q89 -102 257.5 -306t257.5 -306z" />
    <glyph glyph-name="uni20BA" unicode="&#x20ba;" horiz-adv-x="1253" 
d="M174 0v561l-164 -65v186l164 63v134l-164 -64v184l164 64v367h381v-216l356 142v-185l-356 -141v-135l356 141v-184l-356 -141v-471q80 0 135 26t84.5 57t47 105.5t22 122.5t9.5 156q1 12 1 18h367q-5 -184 -43 -318t-115 -231.5t-203 -145.5t-303 -48q-186 0 -383 18z
" />
    <glyph glyph-name="uni20BC" unicode="&#x20bc;" horiz-adv-x="1777" 
d="M1722 0h-352v78q0 76 -7.5 166t-29 204t-53.5 209.5t-88 171.5t-127 99v-785h-350v785q-71 -23 -127 -96.5t-88.5 -166t-53.5 -205.5t-28.5 -205.5t-7.5 -176.5v-78h-355v129q0 116 17.5 231.5t52 227.5t90 211.5t126.5 178.5t167 133t207 71v248h350v-248
q131 -21 241.5 -93.5t186 -177t128 -236t77 -269t24.5 -277.5v-129z" />
    <glyph glyph-name="ruble" unicode="&#x20bd;" horiz-adv-x="1253" 
d="M936 246h-348v-246h-379v246h-199v207h199v112h-199v207h199v658h461q553 0 553 -443q0 -111 -39.5 -193.5t-111.5 -131.5t-167 -73t-213 -24h-104v-112h348v-207zM588 772h51q116 0 166.5 48t50.5 161q0 114 -50 161.5t-167 47.5h-51v-418z" />
    <glyph glyph-name="afii61289" unicode="&#x2113;" horiz-adv-x="1024" 
d="M844 281l108 -166q-176 -144 -370 -144q-162 0 -259.5 85.5t-97.5 244.5v29l-110 -92l-113 174l223 176v481q0 109 48 201.5t139 149.5t206 57q148 0 238 -86t90 -232q0 -154 -94.5 -300.5t-306.5 -319.5v-211q0 -56 31 -90.5t86 -34.5q74 0 182 78zM545 1133v-328
q143 147 143 336q0 57 -19.5 92t-54.5 35q-29 0 -49 -40t-20 -95z" />
    <glyph glyph-name="trademark" unicode="&#x2122;" horiz-adv-x="2048" 
d="M539 578h-222v667h-241v185h704v-185h-241v-667zM1972 578h-221v557h-4l-182 -557h-181l-182 557h-4v-557h-221v852h315l183 -496l182 496h315v-852z" />
    <glyph glyph-name="Omega" unicode="&#x2126;" horiz-adv-x="1646" 
d="M1542 0h-657l10 258q131 49 188.5 168t57.5 326q0 197 -85.5 309.5t-232.5 112.5q-148 0 -232.5 -118t-84.5 -325q0 -190 58.5 -306.5t187.5 -166.5l10 -258h-658v258h289q-280 173 -280 545q0 134 49.5 252.5t139 207t223 140t292.5 51.5q162 0 297 -49.5t227 -136.5
t142.5 -207.5t50.5 -261.5q0 -173 -75.5 -321t-207.5 -220h291v-258z" />
    <glyph glyph-name="estimated" unicode="&#x212e;" horiz-adv-x="1228" 
d="M1014 285l71 -43q-94 -152 -203.5 -214.5t-263.5 -62.5q-230 0 -379 158.5t-149 406.5q0 158 64 286t185.5 204t278.5 76q234 0 382 -156t149 -410h-827v-370q121 -121 296 -121q131 0 225.5 59.5t170.5 186.5zM918 604v297q-129 123 -304 123q-169 0 -292 -123v-297h596
z" />
    <glyph glyph-name="partialdiff" unicode="&#x2202;" horiz-adv-x="1284" 
d="M883 838v55q0 130 -44.5 237.5t-129.5 171.5t-195 64q-162 0 -293 -96l-86 217q177 123 420 123q183 0 326 -96.5t223 -275.5t80 -413q0 -382 -174 -611.5t-463 -229.5q-94 0 -174 31t-134 82t-92 115.5t-55.5 131t-17.5 129.5q0 234 134 385.5t345 151.5q101 0 187 -46
t143 -126zM852 604q-24 71 -89 120.5t-142 49.5q-104 0 -173 -91.5t-69 -215.5q0 -103 57.5 -171.5t143.5 -68.5q97 0 173.5 107t98.5 270z" />
    <glyph glyph-name="Delta" unicode="&#x2206;" horiz-adv-x="1531" 
d="M1516 0h-1500l519 1430h466zM1018 270l-256 865h-4l-273 -865h533z" />
    <glyph glyph-name="product" unicode="&#x220f;" horiz-adv-x="1550" 
d="M1450 -438h-311v1743h-725v-1743h-314v2048h1350v-2048z" />
    <glyph glyph-name="summation" unicode="&#x2211;" horiz-adv-x="1429" 
d="M1368 -438h-1309v266l592 770l-567 743v269h1259v-307h-845l518 -703l-551 -731h903v-307z" />
    <glyph glyph-name="minus" unicode="&#x2212;" horiz-adv-x="1228" 
d="M1133 389h-1037v258h1037v-258z" />
    <glyph glyph-name="uni2215" unicode="&#x2215;" horiz-adv-x="342" 
d="M-113 -45h-223l793 1520h223z" />
    <glyph glyph-name="uni2219" unicode="&#x2219;" horiz-adv-x="626" 
d="M313 367q-78 0 -134 56t-56 134t56 134.5t134 56.5t134.5 -56.5t56.5 -134.5t-56.5 -134t-134.5 -56z" />
    <glyph glyph-name="radical" unicode="&#x221a;" horiz-adv-x="1234" 
d="M788 -438h-280l-291 594l-117 -56l-114 242l395 180l217 -483l320 1571h329z" />
    <glyph glyph-name="infinity" unicode="&#x221e;" horiz-adv-x="1804" 
d="M901 358q-101 -128 -191.5 -182.5t-199.5 -54.5q-195 0 -306.5 123.5t-111.5 316.5q0 194 111.5 313t296.5 119q115 0 209 -59t192 -197q95 138 190 197t214 59q184 0 295.5 -119t111.5 -313q0 -196 -111.5 -319t-297.5 -123q-111 0 -207 56.5t-195 182.5zM743 551
q-128 170 -241 170q-68 0 -109 -48t-41 -118q0 -73 43 -117.5t111 -44.5q60 0 117 38t120 120zM1059 551q114 -160 241 -160q69 0 109.5 46.5t40.5 119.5q0 72 -42 118t-116 46q-107 0 -233 -170z" />
    <glyph glyph-name="integral" unicode="&#x222b;" horiz-adv-x="1345" 
d="M471 117v891q0 107 11.5 194t31.5 148.5t50 107.5t62.5 74.5t73.5 45.5t80 23.5t84 6.5q120 0 202.5 -55t82.5 -144q0 -63 -41.5 -104t-103.5 -41q-56 0 -86 28t-41 86q-11 60 -20.5 78.5t-31.5 18.5q-20 0 -29.5 -17.5t-9.5 -68.5q0 -60 8.5 -191.5t8.5 -175.5v-870
q0 -314 -95.5 -452t-295.5 -138q-113 0 -198 55t-85 152q0 64 40 100.5t101 36.5q111 0 129 -115q9 -59 18.5 -77.5t28.5 -18.5q21 0 31 18t10 68q0 54 -8 174t-8 162z" />
    <glyph glyph-name="approxequal" unicode="&#x2248;" horiz-adv-x="1214" 
d="M979 516h205q-13 -185 -96.5 -309.5t-219.5 -124.5q-75 0 -286 68q-174 57 -240 57q-49 0 -77.5 -32t-33.5 -79h-200q0 67 22 140.5t61 138.5t100.5 107t131.5 42q53 -2 110.5 -14.5t172.5 -48.5q18 -5 44.5 -13.5t38.5 -12.5t31 -9.5t28 -8t22.5 -6t20.5 -5t17 -3
t17.5 -2t15.5 -0.5q51 0 77 25t38 90zM979 1018h205q-13 -185 -96.5 -309.5t-219.5 -124.5q-78 0 -286 67q-177 58 -240 58q-49 0 -77.5 -32t-33.5 -79h-200q0 67 22 140.5t61 138.5t100.5 107t131.5 42q53 -2 110.5 -14.5t172.5 -48.5q18 -5 44.5 -13.5t38.5 -12.5t31 -9.5
t28 -8t22.5 -6t20.5 -5t17 -3t17.5 -2t15.5 -0.5q51 0 77 25t38 90z" />
    <glyph glyph-name="notequal" unicode="&#x2260;" horiz-adv-x="1214" 
d="M1133 154h-574l-145 -297l-207 100l96 197h-207v258h334l107 213h-441v258h568l149 301l207 -101l-100 -200h213v-258h-340l-105 -213h445v-258z" />
    <glyph glyph-name="lessequal" unicode="&#x2264;" horiz-adv-x="1214" 
d="M1163 256l-1112 338v307l1112 311v-317l-680 -147l680 -173v-319zM1163 -104h-1112v311h1112v-311z" />
    <glyph glyph-name="greaterequal" unicode="&#x2265;" horiz-adv-x="1214" 
d="M1163 594l-1112 -338v319l678 173l-678 147v317l1112 -311v-307zM1163 -104h-1112v311h1112v-311z" />
    <glyph glyph-name="lozenge" unicode="&#x25ca;" horiz-adv-x="1214" 
d="M745 -72h-282l-391 801l395 801h278l398 -801zM606 244l215 483l-215 485l-217 -483z" />
    <glyph glyph-name="grave.cap" unicode="&#xe300;" horiz-adv-x="684" 
d="M506 1518h-258l-264 294h383z" />
    <glyph glyph-name="acute.cap" unicode="&#xe301;" horiz-adv-x="684" 
d="M436 1518h-258l139 294h383z" />
    <glyph glyph-name="circumflex.cap" unicode="&#xe302;" horiz-adv-x="684" 
d="M735 1518h-256l-133 159l-141 -159h-256l231 294h332z" />
    <glyph glyph-name="caron.cap" unicode="&#xe303;" horiz-adv-x="684" 
d="M506 1518h-332l-223 294h227l162 -159l170 159h227z" />
    <glyph glyph-name="tilde.cap" unicode="&#xe304;" horiz-adv-x="684" 
d="M598 1812h147q-17 -138 -85.5 -213t-178.5 -75q-55 0 -159 37q-103 36 -134 36q-43 0 -66 -19.5t-32 -59.5h-147q15 132 84.5 210t175.5 78q54 0 159 -37q101 -36 134 -36q88 0 102 79z" />
    <glyph glyph-name="dieresis.cap" unicode="&#xe305;" horiz-adv-x="684" 
d="M256 1518h-295v294h295v-294zM723 1518h-295v294h295v-294z" />
    <glyph glyph-name="macron.cap" unicode="&#xe306;" horiz-adv-x="684" 
d="M727 1595h-768v172h768v-172z" />
    <glyph glyph-name="breve.cap" unicode="&#xe307;" horiz-adv-x="684" 
d="M573 1831h156q-19 -159 -117 -240.5t-270 -81.5t-270 81.5t-117 240.5h156q33 -150 231 -150q195 0 231 150z" />
    <glyph glyph-name="ring.cap" unicode="&#xe308;" horiz-adv-x="684" 
d="M344 1495q-94 0 -161.5 67.5t-67.5 161.5t67.5 162t161.5 68t161.5 -68.5t67.5 -161.5q0 -91 -66.5 -160t-162.5 -69zM442 1724q0 41 -28.5 70t-71.5 29q-39 0 -67.5 -28.5t-28.5 -70.5t29 -70t69 -28q41 0 69.5 28.5t28.5 69.5z" />
    <glyph glyph-name="hungarumlaut.cap" unicode="&#xe309;" horiz-adv-x="684" 
d="M209 1518h-258l139 294h383zM717 1518h-258l139 294h383z" />
    <glyph glyph-name="dotaccent.cap" unicode="&#xe30a;" horiz-adv-x="684" 
d="M492 1518h-295v294h295v-294z" />
    <glyph glyph-name="caron.alt" unicode="&#xe30b;" horiz-adv-x="684" 
d="M225 1085h-192l33 408h299z" />
    <glyph glyph-name="commaaccent" unicode="&#xe30c;" horiz-adv-x="684" 
d="M410 -475h-269l72 325h330z" />
    <glyph glyph-name="commaaccent.alt" unicode="&#xe30d;" horiz-adv-x="684" 
d="M461 1198h-316l129 295h254z" />
    <glyph glyph-name="uniF8FF" unicode="&#xf8ff;" horiz-adv-x="1048" 
d="M1049 0h-1049v1470h1049v-1470zM946 102v1264h-844v-1264h844zM569 240h-114v137h114v-137zM555 479h-94q-4 29 -4 62q0 75 20.5 125.5t87.5 121.5q11 12 33.5 34.5t33 34t24 31t19 39.5t5.5 44q0 74 -46.5 124t-109.5 50q-69 0 -112.5 -48.5t-55.5 -146.5l-102 17
q12 135 84 207.5t192 72.5q110 0 182 -74t72 -194q0 -74 -29 -127t-102 -121q-61 -57 -78 -86.5t-18 -91.5z" />
    </font>
</defs>
</svg>
