<?xml version="1.0" standalone="no"?>
<!DOCTYPE svg PUBLIC "-//W3C//DTD SVG 1.1//EN" "http://www.w3.org/Graphics/SVG/1.1/DTD/svg11.dtd" >
<svg xmlns="http://www.w3.org/2000/svg" xmlns:xlink="http://www.w3.org/1999/xlink" version="1.1">
<metadata>
Created by FontForge 20201107 at Sat Aug  3 09:41:41 2024
 By 
Copyright (c) 2014 - 2016 Monotype Imaging Inc. All rights reserved.
</metadata>
<defs>
<font id="FrutigerLTPro-BlackCnIta" horiz-adv-x="1175" >
  <font-face 
    font-family="Frutiger LT Pro 57 Condensed"
    font-weight="800"
    font-style="italic"
    font-stretch="condensed"
    units-per-em="2048"
    panose-1="2 11 8 6 3 5 4 9 2 4"
    ascent="1536"
    descent="-512"
    x-height="1067"
    cap-height="1430"
    bbox="-371 -512 2101 1944"
    underline-thickness="102"
    underline-position="-255"
    slope="-12"
    unicode-range="U+000D-FB02"
  />
<missing-glyph horiz-adv-x="1048" 
d="M1049 1470v-1470h-1049v1470h1049zM102 102h844v1264h-844v-1264zM555 528v-49h-94v51q0 95 23.5 147t103.5 134q35 35 50 52.5t28.5 46.5t13.5 61q0 72 -46.5 123t-109.5 51q-70 0 -113 -49.5t-55 -145.5l-102 17q12 136 83 208t193 72q111 0 182.5 -74t71.5 -194
q0 -70 -28.5 -126t-102.5 -122q-62 -55 -80 -93t-18 -110zM569 377v-137h-114v137h114z" />
    <glyph glyph-name="fi" unicode="fi" horiz-adv-x="1290" 
d="M377 0h-324l178 840h-184l47 227h185l38 184q33 157 129 233.5t267 76.5q105 0 207 -25l-56 -225q-50 16 -90 16q-61 0 -94 -28t-47 -91l-31 -141h197l-47 -227h-197zM1255 1249h-323l61 287h324zM999 0h-323l225 1067h324z" />
    <glyph glyph-name="fl" unicode="fl" horiz-adv-x="1290" 
d="M377 0h-324l178 840h-184l47 227h185l38 184q33 157 129 233.5t267 76.5q105 0 207 -25l-56 -225q-50 16 -90 16q-61 0 -94 -28t-47 -91l-31 -141h197l-47 -227h-197zM999 0h-323l325 1536h324z" />
    <glyph glyph-name=".notdef" horiz-adv-x="1048" 
d="M1049 1470v-1470h-1049v1470h1049zM102 102h844v1264h-844v-1264zM555 528v-49h-94v51q0 95 23.5 147t103.5 134q35 35 50 52.5t28.5 46.5t13.5 61q0 72 -46.5 123t-109.5 51q-70 0 -113 -49.5t-55 -145.5l-102 17q12 136 83 208t193 72q111 0 182.5 -74t71.5 -194
q0 -70 -28.5 -126t-102.5 -122q-62 -55 -80 -93t-18 -110zM569 377v-137h-114v137h114z" />
    <glyph glyph-name=".null" horiz-adv-x="0" 
 />
    <glyph glyph-name="nonmarkingreturn" horiz-adv-x="682" 
 />
    <glyph glyph-name="NULL" horiz-adv-x="0" 
 />
    <glyph glyph-name="NULL" horiz-adv-x="0" 
 />
    <glyph glyph-name="CR" unicode="&#xd;" horiz-adv-x="532" 
 />
    <glyph glyph-name="space" unicode=" " horiz-adv-x="532" 
 />
    <glyph glyph-name="exclam" unicode="!" horiz-adv-x="794" 
d="M463 455h-242l166 975h324zM393 0h-295l64 307h295z" />
    <glyph glyph-name="quotedbl" unicode="&#x22;" horiz-adv-x="1064" 
d="M500 1004h-258l112 532h258zM946 1004h-258l113 532h258z" />
    <glyph glyph-name="numbersign" unicode="#" horiz-adv-x="1064" 
d="M657 0h-188l86 408h-203l-86 -408h-188l86 408h-144v188h183l51 238h-160v188h201l88 408h188l-88 -408h203l88 408h189l-86 -408h161v-188h-202l-52 -238h181v-188h-220zM594 596l51 238h-203l-51 -238h203z" />
    <glyph glyph-name="dollar" unicode="$" horiz-adv-x="1064" 
d="M375 -203h-90l39 180q-188 0 -353 60l78 260q161 -92 322 -92l88 403q-332 136 -332 383q0 200 134.5 324.5t373.5 136.5l39 174h90l-39 -174q87 -1 173 -19t134 -40l-67 -246q-44 37 -122 58.5t-163 21.5l-80 -363q180 -68 260 -162.5t80 -244.5q0 -211 -139.5 -339
t-386.5 -141zM516 891l74 336q-84 -12 -132 -58t-48 -122q0 -55 26.5 -92t79.5 -64zM543 578l-80 -367q87 10 138.5 68t51.5 145q0 114 -110 154z" />
    <glyph glyph-name="percent" unicode="%" horiz-adv-x="1744" 
d="M518 -68h-184l897 1565h184zM395 623q-115 0 -183.5 76t-68.5 200q0 97 27.5 194.5t77 178.5t127 131.5t168.5 50.5q115 0 183.5 -73.5t68.5 -198.5q0 -148 -49 -275t-142 -205.5t-209 -78.5zM422 786q46 0 87 71.5t63 162t22 160.5q0 110 -78 110q-43 0 -84 -68
t-63.5 -159t-22.5 -168q0 -50 20.5 -79.5t55.5 -29.5zM1200 -25q-115 0 -183.5 76.5t-68.5 200.5q0 97 27.5 194.5t77 178.5t127 131.5t168.5 50.5q115 0 183 -73.5t68 -198.5q0 -148 -49 -275.5t-141.5 -206t-208.5 -78.5zM1227 139q46 0 87 71.5t63 161.5t22 160
q0 53 -20 82t-58 29q-43 0 -84 -68t-63.5 -159t-22.5 -168q0 -50 20.5 -79.5t55.5 -29.5z" />
    <glyph glyph-name="ampersand" unicode="&#x26;" horiz-adv-x="1441" 
d="M1221 0h-338l-64 106q-107 -76 -187.5 -103.5t-182.5 -27.5q-187 0 -303.5 99.5t-116.5 255.5q0 306 360 471q-94 125 -94 272q0 165 126 273t312 108q163 0 273 -89.5t110 -219.5q0 -125 -82 -222.5t-264 -187.5l148 -246q87 87 145 302h285q-56 -276 -293 -508z
M653 909q114 59 156.5 107.5t42.5 128.5q0 45 -36 78.5t-89 33.5q-70 0 -111 -39t-41 -116q0 -39 15.5 -78.5t62.5 -114.5zM705 291l-191 321q-86 -48 -128 -106.5t-42 -136.5q0 -73 44 -117.5t122 -44.5q108 0 195 84z" />
    <glyph glyph-name="quotesingle" unicode="'" horiz-adv-x="532" 
d="M457 1004h-258l112 532h258z" />
    <glyph glyph-name="parenleft" unicode="(" horiz-adv-x="645" 
d="M408 -285h-226q-88 200 -119.5 328t-31.5 293q0 630 504 1210h251q-256 -354 -368.5 -645t-112.5 -598q0 -153 20 -269t83 -319z" />
    <glyph glyph-name="parenright" unicode=")" horiz-adv-x="645" 
d="M68 -285h-252q256 354 368.5 645t112.5 598q0 154 -19.5 270t-82.5 318h225q88 -200 119.5 -327.5t31.5 -292.5q0 -632 -503 -1211z" />
    <glyph glyph-name="asterisk" unicode="*" horiz-adv-x="1062" 
d="M918 926l-211 -135l-91 245l-151 -245l-176 135l211 196l-258 47l98 224l229 -131l-14 274h233l-73 -274l252 131l47 -224l-273 -47z" />
    <glyph glyph-name="plus" unicode="+" horiz-adv-x="1228" 
d="M680 0h-213v412h-412v213h412v411h213v-411h412v-213h-412v-412z" />
    <glyph glyph-name="comma" unicode="," horiz-adv-x="532" 
d="M92 -225h-231l174 532h287z" />
    <glyph glyph-name="hyphen" unicode="-" horiz-adv-x="681" 
d="M543 463h-510l51 250h510z" />
    <glyph glyph-name="period" unicode="." horiz-adv-x="532" 
d="M262 0h-295l64 307h295z" />
    <glyph glyph-name="slash" unicode="/" horiz-adv-x="606" 
d="M84 -25h-213l649 1479h213z" />
    <glyph glyph-name="zero" unicode="0" horiz-adv-x="1064" 
d="M901 362q-170 -385 -479 -385q-207 0 -304.5 111t-97.5 326q0 181 56 400t164 392q73 116 179 181t236 65q183 0 286 -113t103 -305q0 -142 -35.5 -326.5t-107.5 -345.5zM428 209q60 0 116.5 77.5t102.5 229.5q94 309 94 528q0 177 -102 177q-124 0 -219 -303
q-96 -298 -96 -541q0 -168 104 -168z" />
    <glyph glyph-name="one" unicode="1" horiz-adv-x="1064" 
d="M610 0h-323l225 1053l-217 -158l-133 195l483 340h268z" />
    <glyph glyph-name="two" unicode="2" horiz-adv-x="1064" 
d="M813 0h-868l43 250l127 112q31 28 103 91t113 100.5t104 96.5t100 102t75.5 94t56 96t17.5 84q0 84 -45 123t-121 39q-149 0 -303 -103l33 285q107 46 196.5 65t194.5 19q176 0 282.5 -95.5t106.5 -250.5q0 -141 -63.5 -253.5t-186.5 -231.5q-70 -68 -144.5 -135.5
t-115 -102t-101.5 -84t-63 -51.5h508z" />
    <glyph glyph-name="three" unicode="3" horiz-adv-x="1064" 
d="M672 739v-4q112 -29 175.5 -102t63.5 -172q0 -223 -166.5 -354.5t-447.5 -131.5q-217 0 -348 64l67 260q138 -74 283 -74q133 0 206 62.5t73 175.5q0 74 -56.5 113.5t-156.5 39.5h-109l37 232q207 0 301 52t94 167q0 66 -48 100.5t-136 34.5q-156 0 -287 -67l33 254
q82 35 158 50t178 15q202 0 317 -87.5t115 -240.5q0 -142 -87 -241t-259 -146z" />
    <glyph glyph-name="four" unicode="4" horiz-adv-x="1064" 
d="M721 0h-307l57 276h-528l59 289l670 865h352l-197 -920h156l-47 -234h-158zM532 510l123 571h-4l-428 -571h309z" />
    <glyph glyph-name="five" unicode="5" horiz-adv-x="1064" 
d="M-45 39l68 254q48 -30 122.5 -48t151.5 -18q134 0 211.5 74.5t77.5 204.5q0 95 -66 150t-188 55q-40 0 -79.5 -7t-64.5 -14.5t-73 -23.5l157 764h781l-49 -242h-498l-57 -277q43 11 108 11q167 0 272 -101t105 -258q0 -261 -175 -424.5t-456 -163.5q-229 0 -348 64z" />
    <glyph glyph-name="six" unicode="6" horiz-adv-x="1064" 
d="M1057 1399l-70 -248q-99 61 -231 61q-289 0 -375 -415h4q64 64 124 91t130 27q142 0 224.5 -90.5t82.5 -244.5q0 -167 -66.5 -305t-187.5 -219t-272 -81q-187 0 -294.5 112t-107.5 312q0 78 18.5 198t69.5 280t123 272q196 305 539 305q139 0 289 -55zM430 203
q55 0 101.5 51.5t71 129t24.5 159.5q0 62 -29 96.5t-84 34.5q-81 0 -141 -103t-60 -229q0 -64 33 -101.5t84 -37.5z" />
    <glyph glyph-name="seven" unicode="7" horiz-adv-x="1064" 
d="M397 0h-358l700 1180h-536l51 250h858l-57 -281z" />
    <glyph glyph-name="eight" unicode="8" horiz-adv-x="1064" 
d="M725 735q221 -111 221 -301q0 -198 -152 -328.5t-382 -130.5q-194 0 -315.5 97.5t-121.5 253.5q0 150 84.5 251t259.5 168q-75 50 -119 122t-44 161q0 118 66.5 216.5t177.5 154t239 55.5q176 0 287.5 -92t111.5 -234q0 -132 -74.5 -227t-238.5 -166zM551 827
q89 39 140.5 106t51.5 150q0 61 -35 102.5t-90 41.5q-72 0 -122 -59t-50 -146q0 -64 28 -117.5t77 -77.5zM506 645q-221 -80 -221 -289q0 -66 41.5 -109.5t101.5 -43.5q86 0 142.5 66.5t56.5 166.5q0 67 -32.5 123.5t-88.5 85.5z" />
    <glyph glyph-name="nine" unicode="9" horiz-adv-x="1064" 
d="M680 633h-4q-64 -64 -124 -91.5t-128 -27.5q-146 0 -227.5 89.5t-81.5 248.5q0 164 66 301t187 219t273 82q186 0 293.5 -111t107.5 -301q0 -191 -77 -454q-39 -134 -96 -241t-137.5 -193t-191.5 -132.5t-245 -46.5q-138 0 -291 56l70 248q100 -62 231 -62
q143 0 238.5 105t136.5 311zM545 756q56 0 103 48.5t73.5 124t26.5 156.5q0 65 -32.5 103.5t-84.5 38.5q-54 0 -100.5 -51t-71.5 -128.5t-25 -158.5q0 -133 111 -133z" />
    <glyph glyph-name="colon" unicode=":" horiz-adv-x="532" 
d="M422 760h-295l66 307h294zM262 0h-295l64 307h295z" />
    <glyph glyph-name="semicolon" unicode=";" horiz-adv-x="532" 
d="M422 760h-295l66 307h294zM92 -225h-231l174 532h287z" />
    <glyph glyph-name="less" unicode="&#x3c;" horiz-adv-x="1228" 
d="M1092 -16l-1037 446v176l1037 447v-205l-762 -330l762 -330v-204z" />
    <glyph glyph-name="equal" unicode="=" horiz-adv-x="1228" 
d="M1092 635h-1037v213h1037v-213zM1092 188h-1037v213h1037v-213z" />
    <glyph glyph-name="greater" unicode="&#x3e;" horiz-adv-x="1228" 
d="M1133 430l-1037 -446v204l762 330l-762 330v205l1037 -447v-176z" />
    <glyph glyph-name="question" unicode="?" horiz-adv-x="948" 
d="M551 457h-275q15 129 57 201.5t179 205.5q123 123 123 209q0 123 -174 123q-111 0 -254 -66l39 265q91 33 163.5 46t165.5 13q186 0 294 -83t108 -226q0 -103 -55.5 -200t-182.5 -210q-114 -102 -147 -153t-41 -125zM471 0h-295l64 307h295z" />
    <glyph glyph-name="at" unicode="@" horiz-adv-x="1638" 
d="M1186 276h205q-104 -148 -263 -224.5t-358 -76.5q-202 0 -359.5 83.5t-245 234t-87.5 342.5q0 171 65 323t176 260.5t266 172t328 63.5q295 0 477.5 -162t182.5 -432q0 -136 -66.5 -256.5t-179.5 -193t-240 -72.5q-57 0 -92 29t-39 84h-4q-57 -66 -114.5 -93.5
t-135.5 -27.5q-119 0 -201.5 87.5t-82.5 217.5q0 125 54.5 232t153.5 171t220 64q155 0 225 -123l35 102h176l-156 -467q-18 -56 -18 -90q0 -16 10 -27.5t31 -11.5q67 0 127 55.5t94.5 142.5t34.5 177q0 200 -134.5 312t-371.5 112q-181 0 -322 -85t-217.5 -233t-76.5 -333
q0 -226 134 -356t367 -130q133 0 225.5 28.5t176.5 100.5zM762 489q97 0 164 87.5t67 201.5q0 73 -34 117.5t-103 44.5q-94 0 -168 -87t-74 -196q0 -74 40.5 -121t107.5 -47z" />
    <glyph glyph-name="A" unicode="A" horiz-adv-x="1327" 
d="M1167 0h-323l-25 319h-442l-156 -319h-354l764 1430h373zM805 561l-41 594h-4l-281 -594h326z" />
    <glyph glyph-name="B" unicode="B" 
d="M508 0h-524l303 1430h456q180 0 285 -86.5t105 -233.5q0 -142 -81.5 -237t-236.5 -138v-4q112 -23 173 -92.5t61 -173.5q0 -146 -71 -252.5t-192 -159.5t-278 -53zM485 848h103q107 0 165 57.5t58 157.5q0 66 -38.5 99.5t-108.5 33.5h-103zM358 242h131q105 0 167.5 59.5
t62.5 167.5q0 66 -45 105.5t-115 39.5h-123z" />
    <glyph glyph-name="C" unicode="C" 
d="M1030 326l-47 -295q-152 -56 -309 -56q-268 0 -435 157t-167 427q0 253 107.5 457.5t299.5 321t432 116.5q195 0 332 -63l-74 -279q-57 39 -116 57.5t-140 18.5q-147 0 -260.5 -83t-172 -219t-58.5 -298q0 -161 86 -249.5t244 -88.5q140 0 278 76z" />
    <glyph glyph-name="D" unicode="D" horiz-adv-x="1366" 
d="M512 0h-528l303 1430h409q288 0 445 -138t157 -405q0 -190 -58 -355t-161 -282t-249.5 -183.5t-317.5 -66.5zM371 250h135q127 0 228.5 79.5t159.5 222t58 322.5q0 148 -72.5 227t-207.5 79h-103z" />
    <glyph glyph-name="E" unicode="E" horiz-adv-x="1062" 
d="M834 0h-850l303 1430h825l-53 -250h-502l-68 -320h478l-54 -250h-477l-78 -360h527z" />
    <glyph glyph-name="F" unicode="F" horiz-adv-x="985" 
d="M307 0h-323l303 1430h792l-53 -250h-469l-72 -332h451l-51 -250h-451z" />
    <glyph glyph-name="G" unicode="G" horiz-adv-x="1366" 
d="M838 254l65 324h-188l49 241h508l-162 -762q-90 -40 -205.5 -61t-224.5 -21q-278 0 -445 160.5t-167 433.5q0 187 64 350.5t178 281.5t278.5 185.5t357.5 67.5q217 0 391 -59l-69 -275q-54 34 -143 55t-173 21q-165 0 -288.5 -81.5t-187.5 -222.5t-64 -321
q0 -156 79 -247t218 -91q81 0 129 21z" />
    <glyph glyph-name="H" unicode="H" horiz-adv-x="1290" 
d="M1004 0h-336l125 594h-349l-125 -594h-335l303 1430h336l-121 -570h348l121 570h336z" />
    <glyph glyph-name="I" unicode="I" horiz-adv-x="606" 
d="M319 0h-335l303 1430h336z" />
    <glyph glyph-name="J" unicode="J" horiz-adv-x="796" 
d="M-115 16l70 273q66 -27 123 -27q81 0 124.5 44.5t65.5 144.5l209 979h336l-213 -1004q-49 -233 -171 -342t-327 -109q-52 0 -114.5 11.5t-102.5 29.5z" />
    <glyph glyph-name="K" unicode="K" horiz-adv-x="1251" 
d="M1096 0h-375l-258 657h-4l-140 -657h-335l303 1430h336l-125 -592h4l456 592h388l-592 -697z" />
    <glyph glyph-name="L" unicode="L" horiz-adv-x="985" 
d="M793 0h-809l303 1430h336l-250 -1172h473z" />
    <glyph glyph-name="M" unicode="M" horiz-adv-x="1744" 
d="M1458 0h-307l240 1130h-5l-559 -1130h-223l-69 1130h-5l-239 -1130h-307l303 1430h491l43 -920h4l439 920h497z" />
    <glyph glyph-name="N" unicode="N" horiz-adv-x="1366" 
d="M1085 0h-389l-200 1038h-4l-220 -1038h-295l304 1430h385l213 -996h4l211 996h295z" />
    <glyph glyph-name="O" unicode="O" horiz-adv-x="1402" 
d="M1151 268q-185 -293 -557 -293q-248 0 -388 141t-140 394q0 378 190 659q194 285 553 285q248 0 388 -141t140 -391q0 -358 -186 -654zM608 217q108 0 197.5 108t137.5 273t48 342q0 127 -53.5 199.5t-144.5 72.5q-80 0 -151.5 -63.5t-121.5 -165.5t-79 -232t-29 -262
q0 -126 54 -199t142 -73z" />
    <glyph glyph-name="P" unicode="P" horiz-adv-x="1138" 
d="M319 0h-335l303 1430h424q203 0 320.5 -99.5t117.5 -277.5q0 -244 -148 -387.5t-403 -143.5h-168zM471 772h117q102 0 161.5 70t59.5 188q0 71 -44.5 110.5t-125.5 39.5h-82z" />
    <glyph glyph-name="Q" unicode="Q" horiz-adv-x="1402" 
d="M1071 -281h-360l-129 256q-247 7 -381.5 147t-134.5 388q0 378 190 659q194 285 553 285q248 0 388 -141t140 -391q0 -274 -120 -535q-118 -254 -343 -358zM608 217q108 0 197.5 108t137.5 273t48 342q0 127 -53.5 199.5t-144.5 72.5q-80 0 -151.5 -63.5t-121.5 -165.5
t-79 -232t-29 -262q0 -126 54 -199t142 -73z" />
    <glyph glyph-name="R" unicode="R" horiz-adv-x="1214" 
d="M1010 0h-346l-39 422q-14 156 -125 156h-60l-121 -578h-335l303 1430h483q179 0 285 -90t106 -248q0 -160 -87 -262.5t-253 -139.5l2 -8q57 -21 84.5 -74t40.5 -147zM481 819h109q110 0 172.5 63.5t62.5 174.5q0 58 -43.5 94.5t-117.5 36.5h-105z" />
    <glyph glyph-name="S" unicode="S" horiz-adv-x="1099" 
d="M0 39l80 272q51 -38 129 -62t156 -24q117 0 177 41t60 135q0 59 -42.5 111.5t-139.5 108.5q-149 85 -205.5 175.5t-56.5 190.5q0 220 148.5 343.5t412.5 123.5q165 0 319 -55l-65 -256q-120 69 -258 69q-102 0 -159 -38t-60 -111q-1 -20 2.5 -39t13 -36.5t17.5 -31
t26 -30.5t28.5 -27t36 -27t36.5 -24t41 -25.5t40 -25.5q58 -37 99 -74.5t62.5 -67.5t33 -67t14 -62t2.5 -63q0 -233 -154.5 -360.5t-437.5 -127.5q-197 0 -356 64z" />
    <glyph glyph-name="T" unicode="T" horiz-adv-x="1024" 
d="M528 0h-335l247 1171h-311l55 259h959l-56 -259h-311z" />
    <glyph glyph-name="U" unicode="U" horiz-adv-x="1290" 
d="M782 473l203 957h338l-201 -945q-54 -257 -204.5 -383.5t-382.5 -126.5q-223 0 -348.5 101t-125.5 286q0 77 23 183l188 885h336l-190 -898q-21 -99 -21 -145q0 -70 40 -112t114 -42q43 0 74.5 9t63 33.5t54.5 74t39 123.5z" />
    <glyph glyph-name="V" unicode="V" horiz-adv-x="1251" 
d="M655 0h-360l-131 1430h350l43 -1043h4l467 1043h354z" />
    <glyph glyph-name="W" unicode="W" horiz-adv-x="1744" 
d="M1305 0h-394l45 1110h-4l-407 -1110h-393l8 1430h315l-37 -1016h4l377 1016h393l-32 -1016h4l395 1016h301z" />
    <glyph glyph-name="X" unicode="X" horiz-adv-x="1251" 
d="M1087 0h-358l-139 518l-334 -518h-387l584 764l-244 666h360l117 -453l285 453h381l-529 -682z" />
    <glyph glyph-name="Y" unicode="Y" horiz-adv-x="1212" 
d="M625 0h-336l114 547l-251 883h366l127 -560l320 560h391l-617 -889z" />
    <glyph glyph-name="Z" unicode="Z" horiz-adv-x="1062" 
d="M850 0h-940l57 274l738 897h-533l55 259h918l-55 -263l-742 -909h555z" />
    <glyph glyph-name="bracketleft" unicode="[" horiz-adv-x="645" 
d="M371 -287h-437l390 1835h436l-43 -205h-187l-303 -1425h187z" />
    <glyph glyph-name="backslash" unicode="\" horiz-adv-x="606" 
d="M496 -25h-213l-177 1479h213z" />
    <glyph glyph-name="bracketright" unicode="]" horiz-adv-x="645" 
d="M285 -287h-437l43 205h187l303 1425h-186l43 205h436z" />
    <glyph glyph-name="asciicircum" unicode="^" horiz-adv-x="1228" 
d="M1077 641h-207l-143 576l-389 -576h-219l549 789h196z" />
    <glyph glyph-name="underscore" unicode="_" horiz-adv-x="1024" 
d="M1024 -256h-1024v102h1024v-102z" />
    <glyph glyph-name="grave" unicode="`" horiz-adv-x="454" 
d="M494 1188h-183l-168 299h277z" />
    <glyph glyph-name="a" unicode="a" horiz-adv-x="1099" 
d="M850 0h-285q2 49 21 147h-4q-62 -88 -133 -129t-164 -41q-136 0 -222 82.5t-86 216.5q0 390 549 390h160q10 55 10 86q0 118 -151 118q-83 0 -152 -18t-180 -66l12 234q114 38 191.5 50.5t185.5 12.5q182 0 285.5 -82.5t103.5 -218.5q0 -80 -63 -360q-64 -287 -78 -422z
M637 432l16 82h-63q-316 0 -316 -201q0 -55 35 -90t97 -35q80 0 142 56.5t89 187.5z" />
    <glyph glyph-name="b" unicode="b" 
d="M260 0h-307l24 102q7 23 54 236l256 1198h323l-133 -627h4q65 95 132 134.5t157 39.5q137 0 220 -102.5t83 -282.5q0 -188 -68.5 -352.5t-185.5 -263t-252 -98.5q-189 0 -260 186h-4q-23 -109 -43 -170zM500 207q71 0 127.5 66.5t87 176.5t30.5 240q0 77 -30 123.5
t-84 46.5q-75 0 -136.5 -79.5t-92.5 -188.5t-31 -213q0 -80 34.5 -126t94.5 -46z" />
    <glyph glyph-name="c" unicode="c" horiz-adv-x="909" 
d="M772 276l-31 -243q-101 -49 -260 -49q-206 0 -332 118.5t-126 311.5q0 185 77 337t220.5 242t324.5 90q162 0 262 -49l-61 -241q-78 41 -195 41q-139 0 -222 -109.5t-83 -273.5q0 -107 57.5 -166.5t157.5 -59.5q99 0 211 51z" />
    <glyph glyph-name="d" unicode="d" 
d="M920 0h-308q3 51 27 164h-4q-113 -180 -305 -180q-138 0 -221.5 105t-83.5 286q0 192 67 355.5t181.5 258t248.5 94.5q196 0 254 -174h4l133 627h324l-276 -1294q-41 -194 -41 -242zM467 207q76 0 138 80.5t92 189t30 211.5q0 80 -34.5 126t-94.5 46q-105 0 -175.5 -142
t-70.5 -341q0 -79 30 -124.5t85 -45.5z" />
    <glyph glyph-name="e" unicode="e" horiz-adv-x="1099" 
d="M868 279l-30 -242q-161 -53 -324 -53q-226 0 -353.5 114.5t-127.5 313.5q0 90 23 183t71 180.5t115.5 156t164 110t207.5 41.5q181 0 285.5 -100.5t104.5 -269.5q0 -116 -37 -264h-635l-4 -46q0 -92 64 -145t173 -53q136 0 303 74zM362 625h351q16 54 16 104
q0 70 -36 114t-95 44q-81 0 -143.5 -66t-92.5 -196z" />
    <glyph glyph-name="f" unicode="f" horiz-adv-x="757" 
d="M377 0h-324l178 840h-184l47 227h185l38 184q33 157 129 233.5t267 76.5q105 0 207 -25l-56 -225q-50 16 -90 16q-61 0 -94 -28t-47 -91l-31 -141h197l-47 -227h-197z" />
    <glyph glyph-name="g" unicode="g" 
d="M635 182h-4q-62 -95 -133.5 -138.5t-167.5 -43.5q-135 0 -220 105t-85 278q0 190 68 352t182.5 255t246.5 93q95 0 164.5 -47.5t104.5 -138.5h4q36 148 43 170h307q-4 -14 -12 -42.5t-15.5 -61t-15 -62t-12.5 -51.5t-5 -23l-157 -751q-57 -270 -215.5 -400.5
t-423.5 -130.5q-191 0 -389 64l65 264q166 -94 318 -94q66 0 110 9.5t82 33.5t65 70.5t50 115.5t45 174zM467 223q76 0 137.5 75.5t92 181t30.5 208.5q0 80 -34.5 126t-94.5 46q-69 0 -126 -65.5t-88.5 -174t-31.5 -233.5q0 -74 32 -119t83 -45z" />
    <glyph glyph-name="h" unicode="h" horiz-adv-x="1138" 
d="M874 0h-323l139 655q8 47 8 74q0 40 -23.5 68t-64.5 28q-68 0 -119.5 -48t-74.5 -156l-131 -621h-324l326 1536h323l-131 -610h6q126 159 289 159q116 0 190 -72t74 -184q0 -56 -14 -122z" />
    <glyph glyph-name="i" unicode="i" horiz-adv-x="569" 
d="M551 1249h-324l62 287h323zM295 0h-324l226 1067h323z" />
    <glyph glyph-name="j" unicode="j" horiz-adv-x="569" 
d="M551 1249h-324l62 287h323zM-291 -426l51 217q36 -12 68 -12q58 0 83.5 34t41.5 105l244 1149h323l-239 -1130q-31 -148 -85 -235.5t-126 -122t-176 -34.5q-121 0 -185 29z" />
    <glyph glyph-name="k" unicode="k" horiz-adv-x="1099" 
d="M934 0h-340l-188 508h-5l-106 -508h-324l326 1536h324l-193 -895h4l338 426h350l-444 -500z" />
    <glyph glyph-name="l" unicode="l" horiz-adv-x="569" 
d="M295 0h-324l326 1536h324z" />
    <glyph glyph-name="m" unicode="m" horiz-adv-x="1708" 
d="M1444 0h-324l140 657q8 35 8 72q0 40 -22.5 68t-61.5 28q-144 0 -185 -194l-135 -631h-323l139 655q8 39 8 68q0 49 -22.5 75.5t-61.5 26.5q-66 0 -116 -48.5t-68 -135.5l-135 -641h-324l178 844q4 20 11.5 51.5t9 41.5t5.5 32t6.5 43t6.5 55h295q0 -33 -29 -178h5
q123 194 329 194q180 0 240 -178q70 98 144.5 139t178.5 41q118 0 192.5 -71.5t74.5 -184.5q0 -59 -13 -116z" />
    <glyph glyph-name="n" unicode="n" horiz-adv-x="1138" 
d="M874 0h-323l139 655q8 47 8 74q0 40 -23.5 68t-64.5 28q-150 0 -194 -204l-131 -621h-324l178 844q26 118 39 223h295q0 -33 -29 -178h5q56 92 141.5 144t183.5 52q116 0 190 -72t74 -184q0 -59 -14 -122z" />
    <glyph glyph-name="o" unicode="o" 
d="M33 408q2 104 26.5 202t73 184t116.5 150.5t162.5 101.5t204.5 37q202 0 326.5 -115.5t124.5 -301.5q0 -54 -9 -114t-29.5 -127t-51 -129t-78 -119.5t-106 -100t-138.5 -67.5t-172 -25q-204 0 -327 115t-123 309zM489 207q77 0 137 66t91 172t31 231q0 88 -37 136
t-103 48q-75 0 -134 -66.5t-90.5 -173t-31.5 -229.5q0 -87 36.5 -135.5t100.5 -48.5z" />
    <glyph glyph-name="p" unicode="p" 
d="M190 -442h-323l283 1337l28 172h307q-2 -44 -26 -170h4q69 102 136.5 144t168.5 42q141 0 223 -100.5t82 -284.5q0 -188 -68 -353t-184.5 -263t-249.5 -98q-190 0 -249 174h-5zM500 207q68 0 124.5 65t88.5 176t32 242q0 77 -30 123.5t-84 46.5q-73 0 -134.5 -78.5
t-93.5 -188t-32 -214.5q0 -80 34.5 -126t94.5 -46z" />
    <glyph glyph-name="q" unicode="q" 
d="M817 -442h-323l127 589h-5q-63 -88 -127 -125.5t-159 -37.5q-137 0 -221 105t-84 286q0 193 67.5 356.5t182 257.5t247.5 94q95 0 164.5 -47.5t104.5 -138.5h4q36 148 43 170h307q-25 -77 -70 -293zM467 207q76 0 138 80.5t92 189t30 211.5q0 80 -34.5 126t-94.5 46
q-105 0 -175.5 -142t-70.5 -341q0 -79 30 -124.5t85 -45.5z" />
    <glyph glyph-name="r" unicode="r" horiz-adv-x="796" 
d="M285 0h-324l178 844q21 96 39 223h295q0 -33 -33 -193h4q83 128 149.5 168.5t184.5 40.5h56l-64 -299q-56 13 -96 13q-117 0 -185 -70.5t-104 -245.5z" />
    <glyph glyph-name="s" unicode="s" horiz-adv-x="872" 
d="M801 1038l-60 -237q-103 61 -239 61q-65 0 -103.5 -25t-38.5 -67q0 -19 8 -36.5t18.5 -29t34 -26.5t39 -23.5t50.5 -25.5t53 -27q56 -29 92 -62.5t52 -69t21 -63.5t5 -65q0 -176 -119.5 -270.5t-349.5 -94.5q-77 0 -172 17.5t-143 38.5l65 250q76 -38 132.5 -57
t121.5 -19q84 0 122 22.5t40 67.5q0 18 -9.5 36t-22 31t-38 29.5t-42 25t-48.5 25t-45 23.5q-50 27 -83 60t-49 68t-21.5 65t-5.5 65q0 165 122.5 262.5t325.5 97.5q141 0 287 -47z" />
    <glyph glyph-name="t" unicode="t" horiz-adv-x="796" 
d="M641 240l-47 -228q-58 -28 -207 -28q-130 0 -204 59.5t-74 167.5q0 40 14 115l108 514h-174l47 227h183l47 219l336 100l-68 -319h211l-47 -227h-211l-106 -502q-5 -25 -5 -41q0 -40 23 -60t63 -20t111 23z" />
    <glyph glyph-name="u" unicode="u" horiz-adv-x="1138" 
d="M881 0h-295q2 40 28 178h-4q-57 -95 -141 -144.5t-180 -49.5q-116 0 -190 71.5t-74 182.5q0 64 12 116l151 713h324l-137 -647q-10 -44 -10 -82q0 -41 23 -68.5t65 -27.5q69 0 117.5 46.5t68.5 137.5l135 641h324l-201 -952q-3 -14 -5.5 -32t-5.5 -43t-5 -40z" />
    <glyph glyph-name="v" unicode="v" horiz-adv-x="1062" 
d="M573 0h-380l-115 1067h328l45 -760h4l346 760h323z" />
    <glyph glyph-name="w" unicode="w" horiz-adv-x="1630" 
d="M1188 0h-342l-17 780h-4l-321 -780h-354l-70 1067h317l6 -760h5l297 760h362l8 -760h4l297 760h314z" />
    <glyph glyph-name="x" unicode="x" horiz-adv-x="1062" 
d="M901 0h-328l-110 358l-240 -358h-358l469 580l-219 487h338l98 -313l203 313h348l-424 -522z" />
    <glyph glyph-name="y" unicode="y" horiz-adv-x="1062" 
d="M-127 -428l61 240q64 -25 109 -25q126 0 199 215l-162 1065h326l63 -727h4l326 727h323l-618 -1173q-99 -186 -200.5 -267.5t-237.5 -81.5q-107 0 -193 27z" />
    <glyph glyph-name="z" unicode="z" horiz-adv-x="872" 
d="M666 0h-762l55 266l520 559h-389l51 242h740l-56 -264l-512 -561h404z" />
    <glyph glyph-name="braceleft" unicode="{" horiz-adv-x="681" 
d="M459 -287h-164q-106 0 -176 63.5t-70 166.5q0 23 4 51l80 362q4 20 4 45q0 67 -36.5 104.5t-100.5 37.5l37 176q86 1 140.5 53.5t72.5 136.5l76 365q27 127 122 200.5t218 73.5h161l-34 -164h-84q-54 0 -83 -30t-48 -119l-78 -365q-23 -107 -97.5 -172.5t-185.5 -74.5v-5
q91 -21 136.5 -66t45.5 -128q-3 -41 -10 -78l-61 -285q-17 -87 -17 -100q0 -84 80 -84h103z" />
    <glyph glyph-name="bar" unicode="|" horiz-adv-x="454" 
d="M334 -512h-213v2048h213v-2048z" />
    <glyph glyph-name="braceright" unicode="}" horiz-adv-x="681" 
d="M-20 -287h-162l35 164h84q54 0 83 30t48 120l77 364q24 107 98 173t185 75v4q-91 21 -136.5 66.5t-45.5 128.5q3 39 10 77l61 285q17 87 17 100q0 84 -80 84h-102l34 164h164q106 0 176 -63t70 -166q0 -23 -4 -51l-80 -363q-4 -20 -4 -45q0 -67 36.5 -104t100.5 -37
l-37 -176q-85 -1 -140 -54t-73 -137l-76 -364q-27 -128 -121.5 -201.5t-217.5 -73.5z" />
    <glyph glyph-name="asciitilde" unicode="~" horiz-adv-x="1228" 
d="M1006 698l45 -178q-69 -92 -133.5 -136t-139.5 -44q-94 0 -219 74q-121 69 -209 69q-61 0 -106.5 -31.5t-102.5 -113.5l-49 178q65 91 132 135.5t155 44.5q61 0 116.5 -19t143.5 -71q92 -53 164 -53q43 0 87.5 32.5t115.5 112.5z" />
    <glyph glyph-name="uni00A0" unicode="&#xa0;" horiz-adv-x="532" 
 />
    <glyph glyph-name="exclamdown" unicode="&#xa1;" horiz-adv-x="794" 
d="M555 760h-295l64 307h294zM330 -362h-324l248 974h242z" />
    <glyph glyph-name="cent" unicode="&#xa2;" horiz-adv-x="1064" 
d="M545 -276h-111l55 262q-188 19 -296.5 134.5t-108.5 293.5q0 193 78.5 344.5t224.5 238t336 86.5l49 234h113l-54 -244q61 -9 138 -39l-62 -241q-61 27 -127 36l-129 -604q81 7 183 51l-31 -243q-66 -32 -201 -47zM543 238l127 593q-120 -20 -191 -124.5t-71 -255.5
q0 -85 35.5 -138.5t99.5 -74.5z" />
    <glyph glyph-name="sterling" unicode="&#xa3;" horiz-adv-x="1064" 
d="M842 0h-912l52 242h143l88 422h-143l39 184h143l29 133q55 251 202.5 362t376.5 111q123 0 250 -35l-63 -241q-103 43 -185 43q-221 0 -272 -232l-31 -141h311l-39 -184h-311l-88 -422h461z" />
    <glyph glyph-name="currency" unicode="&#xa4;" horiz-adv-x="1064" 
d="M915 219l-108 109q-131 -86 -275 -86q-143 0 -274 86l-108 -109l-113 113l108 108q-86 133 -86 275q0 144 86 274l-108 109l113 112l108 -108q127 86 274 86t275 -86l108 108l113 -112l-108 -109q86 -127 86 -274q0 -139 -86 -275l108 -108zM532 438q108 0 184.5 83
t76.5 194q0 112 -77 194t-186 82q-104 0 -181 -81t-77 -195t75.5 -195.5t184.5 -81.5z" />
    <glyph glyph-name="yen" unicode="&#xa5;" horiz-adv-x="1064" 
d="M866 229h-291l-47 -229h-295l48 229h-289l47 213h287l22 105l-8 31h-277l48 213h190l-129 639h299l88 -599h4l320 599h313l-397 -639h188l-47 -213h-276l-21 -37l-22 -99h290z" />
    <glyph glyph-name="brokenbar" unicode="&#xa6;" horiz-adv-x="454" 
d="M334 666h-213v716h213v-716zM334 -358h-213v716h213v-716z" />
    <glyph glyph-name="section" unicode="&#xa7;" horiz-adv-x="1062" 
d="M-49 -193l76 240q51 -33 135 -60.5t141 -27.5q184 0 184 129q0 56 -57 105t-178 120q-170 99 -170 262q0 109 62.5 189t179.5 123q-95 95 -95 209q0 163 120 260.5t317 97.5q170 0 333 -61l-73 -234q-165 74 -250 74q-158 0 -158 -113q0 -49 49 -98t164 -121
q106 -67 152.5 -133t46.5 -141q0 -95 -54 -173.5t-174 -150.5q86 -83 86 -199q0 -170 -134.5 -271t-360.5 -101q-105 0 -200 22t-142 53zM453 801q-57 -56 -78 -91.5t-21 -78.5q0 -65 47.5 -113t161.5 -115q51 51 71.5 89.5t20.5 85.5q0 60 -44.5 108t-157.5 115z" />
    <glyph glyph-name="dieresis" unicode="&#xa8;" horiz-adv-x="454" 
d="M272 1239h-241l55 258h242zM625 1239h-242l55 258h242z" />
    <glyph glyph-name="copyright" unicode="&#xa9;" horiz-adv-x="1638" 
d="M819 -25q-147 0 -282.5 57t-236 155t-160.5 236t-60 292q0 200 99 370t269 269.5t371 99.5q197 0 367 -98t271.5 -268.5t101.5 -372.5q0 -117 -36.5 -229t-104.5 -203.5t-158.5 -161t-204.5 -108t-236 -38.5zM819 152q148 0 269 74t189.5 203t68.5 286t-68.5 286
t-190 203t-270.5 74q-109 0 -205.5 -42.5t-166.5 -116.5t-111 -179t-41 -225q0 -121 41 -226t111 -179t167.5 -116t206.5 -42zM1028 596h164q-22 -140 -119 -225.5t-233 -85.5q-177 0 -289.5 124.5t-112.5 311.5q0 195 111.5 315.5t290.5 120.5q143 0 236 -80t116 -227h-164
q-13 70 -65 106.5t-123 36.5q-103 0 -160 -71t-57 -199q0 -119 61.5 -196.5t157.5 -77.5q78 0 128.5 38t57.5 109z" />
    <glyph glyph-name="ordfeminine" unicode="&#xaa;" horiz-adv-x="714" 
d="M688 811h-199q0 26 15 88q-58 -55 -103.5 -75.5t-103.5 -20.5q-89 0 -142 46.5t-53 123.5q0 231 400 231h63q6 21 6 41q0 46 -29 64t-85 18q-103 0 -205 -57l20 145q98 37 242 37q122 0 187 -49t65 -133q0 -39 -8 -72l-53 -256q-17 -87 -17 -131zM545 1112h-10
q-116 0 -172 -29t-56 -92t76 -63q66 0 104.5 43t57.5 141z" />
    <glyph glyph-name="guillemotleft" unicode="&#xab;" horiz-adv-x="1064" 
d="M408 109h-252l-115 432l276 415h271l-289 -434zM821 109h-252l-114 432l276 415h270l-288 -434z" />
    <glyph glyph-name="logicalnot" unicode="&#xac;" horiz-adv-x="1228" 
d="M1092 221h-213v414h-824v213h1037v-627z" />
    <glyph glyph-name="uni00AD" unicode="&#xad;" horiz-adv-x="681" 
d="M543 463h-510l51 250h510z" />
    <glyph glyph-name="registered" unicode="&#xae;" horiz-adv-x="1638" 
d="M1135 324h-189l-176 335h-72v-335h-163v792h292q151 0 223 -57t72 -180q0 -191 -188 -211zM698 795h138q66 0 94 24t28 76q0 86 -155 86h-105v-186zM819 -25q-147 0 -282.5 57t-236 155t-160.5 236t-60 292q0 200 99 370t269 269.5t371 99.5q197 0 367 -98t271.5 -268.5
t101.5 -372.5q0 -117 -36.5 -229t-104.5 -203.5t-158.5 -161t-204.5 -108t-236 -38.5zM819 152q148 0 269 74t189.5 203t68.5 286t-68.5 286t-190 203t-270.5 74q-109 0 -205.5 -42.5t-166.5 -116.5t-111 -179t-41 -225q0 -121 41 -226t111 -179t167.5 -116t206.5 -42z" />
    <glyph glyph-name="macron" unicode="&#xaf;" horiz-adv-x="454" 
d="M631 1251h-602l39 176h602z" />
    <glyph glyph-name="degree" unicode="&#xb0;" horiz-adv-x="819" 
d="M836 1169q0 -152 -114 -264t-269 -112q-132 0 -214.5 78t-82.5 206q0 154 114.5 265.5t268.5 111.5q135 0 216 -77.5t81 -207.5zM463 950q82 0 141.5 61.5t59.5 147.5q0 61 -38.5 99t-103.5 38q-82 0 -138 -63t-56 -148q0 -60 37.5 -97.5t97.5 -37.5z" />
    <glyph glyph-name="plusminus" unicode="&#xb1;" horiz-adv-x="1228" 
d="M1092 553h-412v-270h-213v270h-412v213h412v270h213v-270h412v-213zM1092 0h-1037v213h1037v-213z" />
    <glyph glyph-name="twosuperior" unicode="&#xb2;" horiz-adv-x="692" 
d="M666 877h-568l27 157q213 176 253 212q166 148 180 232q1 9 1 17q0 46 -26.5 64t-75.5 18q-97 0 -199 -66l21 189q119 53 249 53q116 0 188 -64.5t72 -158.5q0 -68 -27.5 -124t-115.5 -142.5t-264 -223.5h317z" />
    <glyph glyph-name="threesuperior" unicode="&#xb3;" horiz-adv-x="692" 
d="M557 1329v-4q80 -23 124 -69t44 -107q0 -130 -105.5 -205.5t-295.5 -75.5q-140 0 -230 35l39 170q108 -43 186 -43q82 0 125 32t43 93q0 42 -35.5 65t-127.5 23h-48l31 152q130 0 190 26t60 86q0 38 -34.5 61t-88.5 23q-108 0 -188 -39l20 164q100 37 221 37
q133 0 210 -55t77 -148q0 -155 -217 -221z" />
    <glyph glyph-name="acute" unicode="&#xb4;" horiz-adv-x="454" 
d="M356 1188h-192l155 299h287z" />
    <glyph glyph-name="mu" unicode="&#xb5;" horiz-adv-x="1198" 
d="M1108 244l-31 -238q-86 -22 -178 -22q-103 0 -163 45.5t-60 124.5h-4q-96 -177 -236 -177q-91 0 -123 43h-6q-20 -208 -35 -296l-26 -154h-309l262 1499h329l-92 -551q-16 -86 -16 -153q0 -59 21 -89t73 -30q72 0 123 92.5t80 257.5l82 473h338l-131 -737
q-18 -101 45 -101q20 0 57 13z" />
    <glyph glyph-name="paragraph" unicode="&#xb6;" horiz-adv-x="1269" 
d="M889 -254h-213l323 1520h-217l-323 -1520h-213l203 952q-131 2 -215 79t-84 198q0 213 133 334t352 121h612z" />
    <glyph glyph-name="periodcentered" unicode="&#xb7;" horiz-adv-x="532" 
d="M217 412q-65 0 -103 37t-38 98q0 77 51 128.5t125 51.5q65 0 103 -37t38 -98q0 -77 -51 -128.5t-125 -51.5z" />
    <glyph glyph-name="cedilla" unicode="&#xb8;" horiz-adv-x="454" 
d="M-227 -412l49 95q59 -35 143 -35q121 0 121 84q0 29 -24 49t-58 20q-40 0 -78 -16l-37 37l152 192h111l-105 -125q10 2 47 2q82 0 124 -41t42 -100q0 -93 -78 -149t-205 -56q-71 0 -117.5 8.5t-86.5 34.5z" />
    <glyph glyph-name="onesuperior" unicode="&#xb9;" horiz-adv-x="692" 
d="M518 877h-227l139 639l-145 -111l-88 135l313 205h195z" />
    <glyph glyph-name="ordmasculine" unicode="&#xba;" horiz-adv-x="757" 
d="M807 1198q0 -168 -111 -281.5t-288 -113.5q-128 0 -207.5 71t-79.5 181q0 172 110 284.5t287 112.5q133 0 211 -71t78 -183zM430 938q71 0 111.5 84t40.5 195q0 45 -21.5 73.5t-62.5 28.5q-46 0 -81.5 -43.5t-53 -106.5t-17.5 -131q0 -45 21.5 -72.5t62.5 -27.5z" />
    <glyph glyph-name="guillemotright" unicode="&#xbb;" horiz-adv-x="1064" 
d="M256 109h-270l288 434l-108 413h252l114 -432zM670 109h-271l289 434l-108 413h251l115 -432z" />
    <glyph glyph-name="onequarter" unicode="&#xbc;" horiz-adv-x="1593" 
d="M449 575h-228l139 639l-145 -110l-88 135l313 205h195zM1276 0h-221l32 156h-339l34 182l428 530h250l-121 -561h86l-28 -151h-88zM1126 307l74 328h-4l-250 -328h180zM387 -68h-184l897 1565h184z" />
    <glyph glyph-name="onehalf" unicode="&#xbd;" horiz-adv-x="1593" 
d="M449 575h-228l139 639l-145 -110l-88 135l313 205h195zM1362 0h-567l26 158q23 19 72.5 59.5t73 60t65.5 55t63 55.5t52 50t46 50.5t32 45t23.5 45t6.5 39.5q0 46 -26.5 64t-75.5 18q-46 0 -100.5 -18t-98.5 -47l21 188q121 54 250 54q116 0 188 -64.5t72 -159.5
q0 -68 -28 -124t-116 -141.5t-264 -223.5h318zM367 -68h-185l897 1565h185z" />
    <glyph glyph-name="threequarters" unicode="&#xbe;" horiz-adv-x="1593" 
d="M1276 0h-221l32 156h-339l34 182l428 530h250l-121 -561h86l-28 -151h-88zM1126 307l74 328h-4l-250 -328h180zM504 1028v-4q80 -23 124 -69t44 -107q0 -130 -106 -205.5t-296 -75.5q-139 0 -229 35l39 170q108 -43 186 -43q82 0 125 32t43 93q0 41 -35.5 64.5
t-128.5 23.5h-47l31 152q130 0 190 26t60 86q0 38 -34.5 61t-88.5 23q-108 0 -188 -39l20 164q100 37 221 37q133 0 210 -55t77 -148q0 -155 -217 -221zM451 -68h-185l897 1565h185z" />
    <glyph glyph-name="questiondown" unicode="&#xbf;" horiz-adv-x="948" 
d="M664 -63l-39 -265q-91 -33 -164 -46t-166 -13q-186 0 -293.5 83t-107.5 226q0 104 55.5 200.5t181.5 209.5q114 102 147 153t41 125h275q-15 -129 -57 -201.5t-179 -205.5q-122 -122 -122 -209q0 -123 174 -123q111 0 254 66zM631 760h-295l63 307h295z" />
    <glyph glyph-name="Agrave" unicode="&#xc0;" horiz-adv-x="1327" 
d="M1167 0h-323l-25 319h-442l-156 -319h-354l764 1430h373zM805 561l-41 594h-4l-281 -594h326zM956 1520h-182l-168 299h277z" />
    <glyph glyph-name="Aacute" unicode="&#xc1;" horiz-adv-x="1327" 
d="M1167 0h-323l-25 319h-442l-156 -319h-354l764 1430h373zM805 561l-41 594h-4l-281 -594h326zM870 1520h-192l156 299h286z" />
    <glyph glyph-name="Acircumflex" unicode="&#xc2;" horiz-adv-x="1327" 
d="M1167 0h-323l-25 319h-442l-156 -319h-354l764 1430h373zM805 561l-41 594h-4l-281 -594h326zM1110 1520h-199l-61 182l-133 -182h-217l219 299h295z" />
    <glyph glyph-name="Atilde" unicode="&#xc3;" horiz-adv-x="1327" 
d="M1167 0h-323l-25 319h-442l-156 -319h-354l764 1430h373zM805 561l-41 594h-4l-281 -594h326zM1040 1798h152q-54 -250 -238 -250q-63 0 -149 45q-64 29 -88 29q-43 0 -70 -74h-151q26 118 88.5 184t148.5 66q57 0 137 -39q9 -4 31.5 -15t36 -15.5t27.5 -4.5q60 0 75 74z
" />
    <glyph glyph-name="Adieresis" unicode="&#xc4;" horiz-adv-x="1327" 
d="M1167 0h-323l-25 319h-442l-156 -319h-354l764 1430h373zM805 561l-41 594h-4l-281 -594h326zM766 1556h-242l56 259h241zM1118 1556h-241l55 259h242z" />
    <glyph glyph-name="Aring" unicode="&#xc5;" horiz-adv-x="1327" 
d="M1167 0h-323l-25 319h-442l-156 -319h-354l764 1430h373zM805 561l-41 594h-4l-281 -594h326zM1083 1749q0 -105 -77 -182.5t-185 -77.5q-90 0 -145 51.5t-55 142.5q0 108 78.5 184.5t185.5 76.5q89 0 143.5 -52t54.5 -143zM831 1595q57 0 96.5 43t39.5 103
q0 42 -26.5 69t-68.5 27q-57 0 -96 -43.5t-39 -103.5q0 -42 26 -68.5t68 -26.5z" />
    <glyph glyph-name="AE" unicode="&#xc6;" horiz-adv-x="1781" 
d="M1536 0h-803l68 319h-359l-192 -319h-375l936 1430h1008l-54 -250h-467l-67 -320h438l-53 -250h-438l-78 -360h487zM852 561l141 668h-4l-409 -668h272z" />
    <glyph glyph-name="Ccedilla" unicode="&#xc7;" 
d="M1030 326l-47 -295q-152 -56 -313 -56q-6 0 -16.5 1t-26 2t-27.5 2l-74 -91q10 2 47 2q82 0 124 -41t42 -100q0 -93 -77.5 -149t-204.5 -56q-71 0 -118 8.5t-87 34.5l49 95q59 -35 143 -35q121 0 121 84q0 29 -24 49t-58 20q-39 0 -77 -16l-37 37l135 172
q-206 47 -319 195.5t-113 369.5q0 253 107.5 457.5t299.5 321t432 116.5q195 0 332 -63l-74 -279q-57 39 -116 57.5t-140 18.5q-147 0 -260.5 -83t-172 -219t-58.5 -298q0 -161 86 -249.5t244 -88.5q140 0 278 76z" />
    <glyph glyph-name="Egrave" unicode="&#xc8;" horiz-adv-x="1062" 
d="M834 0h-850l303 1430h825l-53 -250h-502l-68 -320h478l-54 -250h-477l-78 -360h527zM848 1520h-182l-168 299h276z" />
    <glyph glyph-name="Eacute" unicode="&#xc9;" horiz-adv-x="1062" 
d="M834 0h-850l303 1430h825l-53 -250h-502l-68 -320h478l-54 -250h-477l-78 -360h527zM752 1520h-193l156 299h286z" />
    <glyph glyph-name="Ecircumflex" unicode="&#xca;" horiz-adv-x="1062" 
d="M834 0h-850l303 1430h825l-53 -250h-502l-68 -320h478l-54 -250h-477l-78 -360h527zM995 1520h-198l-62 182l-133 -182h-217l219 299h295z" />
    <glyph glyph-name="Edieresis" unicode="&#xcb;" horiz-adv-x="1062" 
d="M834 0h-850l303 1430h825l-53 -250h-502l-68 -320h478l-54 -250h-477l-78 -360h527zM651 1556h-241l55 259h242zM1004 1556h-242l55 259h242z" />
    <glyph glyph-name="Igrave" unicode="&#xcc;" horiz-adv-x="606" 
d="M319 0h-335l303 1430h336zM629 1520h-183l-167 299h276z" />
    <glyph glyph-name="Iacute" unicode="&#xcd;" horiz-adv-x="606" 
d="M319 0h-335l303 1430h336zM510 1520h-193l156 299h287z" />
    <glyph glyph-name="Icircumflex" unicode="&#xce;" horiz-adv-x="606" 
d="M319 0h-335l303 1430h336zM768 1520h-199l-61 182l-133 -182h-217l219 299h295z" />
    <glyph glyph-name="Idieresis" unicode="&#xcf;" horiz-adv-x="606" 
d="M319 0h-335l303 1430h336zM416 1556h-242l55 259h242zM768 1556h-242l56 259h241z" />
    <glyph glyph-name="Eth" unicode="&#xd0;" horiz-adv-x="1366" 
d="M512 0h-528l131 614h-138l50 234h137l123 582h409q288 0 445 -138t157 -405q0 -190 -58 -355t-161 -282t-249.5 -183.5t-317.5 -66.5zM371 250h135q127 0 228.5 79.5t159.5 222t58 322.5q0 148 -72.5 227t-207.5 79h-103l-71 -332h209l-50 -234h-208z" />
    <glyph glyph-name="Ntilde" unicode="&#xd1;" horiz-adv-x="1366" 
d="M1085 0h-389l-200 1038h-4l-220 -1038h-295l304 1430h385l213 -996h4l211 996h295zM1073 1798h152q-54 -250 -238 -250q-63 0 -149 45q-64 29 -88 29q-43 0 -70 -74h-152q26 117 89 183.5t149 66.5q57 0 137 -39q10 -4 31.5 -15t35 -15.5t27.5 -4.5q61 0 76 74z" />
    <glyph glyph-name="Ograve" unicode="&#xd2;" horiz-adv-x="1402" 
d="M1151 268q-185 -293 -557 -293q-248 0 -388 141t-140 394q0 378 190 659q194 285 553 285q248 0 388 -141t140 -391q0 -358 -186 -654zM608 217q108 0 197.5 108t137.5 273t48 342q0 127 -53.5 199.5t-144.5 72.5q-80 0 -151.5 -63.5t-121.5 -165.5t-79 -232t-29 -262
q0 -126 54 -199t142 -73zM989 1520h-182l-168 299h276z" />
    <glyph glyph-name="Oacute" unicode="&#xd3;" horiz-adv-x="1402" 
d="M1151 268q-185 -293 -557 -293q-248 0 -388 141t-140 394q0 378 190 659q194 285 553 285q248 0 388 -141t140 -391q0 -358 -186 -654zM608 217q108 0 197.5 108t137.5 273t48 342q0 127 -53.5 199.5t-144.5 72.5q-80 0 -151.5 -63.5t-121.5 -165.5t-79 -232t-29 -262
q0 -126 54 -199t142 -73zM909 1520h-192l155 299h287z" />
    <glyph glyph-name="Ocircumflex" unicode="&#xd4;" horiz-adv-x="1402" 
d="M1151 268q-185 -293 -557 -293q-248 0 -388 141t-140 394q0 378 190 659q194 285 553 285q248 0 388 -141t140 -391q0 -358 -186 -654zM608 217q108 0 197.5 108t137.5 273t48 342q0 127 -53.5 199.5t-144.5 72.5q-80 0 -151.5 -63.5t-121.5 -165.5t-79 -232t-29 -262
q0 -126 54 -199t142 -73zM1141 1520h-199l-61 182l-133 -182h-218l220 299h294z" />
    <glyph glyph-name="Otilde" unicode="&#xd5;" horiz-adv-x="1402" 
d="M1151 268q-185 -293 -557 -293q-248 0 -388 141t-140 394q0 378 190 659q194 285 553 285q248 0 388 -141t140 -391q0 -358 -186 -654zM608 217q108 0 197.5 108t137.5 273t48 342q0 127 -53.5 199.5t-144.5 72.5q-80 0 -151.5 -63.5t-121.5 -165.5t-79 -232t-29 -262
q0 -126 54 -199t142 -73zM1065 1798h152q-54 -250 -238 -250q-64 0 -150 45q-64 29 -88 29q-42 0 -69 -74h-152q26 117 89 183.5t149 66.5q57 0 137 -39q10 -4 31.5 -15t35 -15.5t27.5 -4.5q61 0 76 74z" />
    <glyph glyph-name="Odieresis" unicode="&#xd6;" horiz-adv-x="1402" 
d="M1151 268q-185 -293 -557 -293q-248 0 -388 141t-140 394q0 378 190 659q194 285 553 285q248 0 388 -141t140 -391q0 -358 -186 -654zM608 217q108 0 197.5 108t137.5 273t48 342q0 127 -53.5 199.5t-144.5 72.5q-80 0 -151.5 -63.5t-121.5 -165.5t-79 -232t-29 -262
q0 -126 54 -199t142 -73zM791 1556h-242l55 259h242zM1143 1556h-242l55 259h242z" />
    <glyph glyph-name="multiply" unicode="&#xd7;" horiz-adv-x="1228" 
d="M903 37l-330 330l-329 -330l-152 151l330 330l-330 330l150 151l329 -331l332 331l152 -151l-330 -330l330 -330z" />
    <glyph glyph-name="Oslash" unicode="&#xd8;" horiz-adv-x="1402" 
d="M72 -45l-84 76l153 166q-75 126 -75 313q0 85 11.5 173t38 181.5t66 178t99 160.5t133 131t172 87.5t211.5 32.5q244 0 389 -133l145 154l82 -76l-153 -164q77 -127 77 -313q0 -74 -10 -155.5t-35 -174.5t-62 -179.5t-95.5 -167t-131 -140t-173.5 -95t-218 -35.5
q-256 0 -395 136zM412 475l555 619q-45 118 -172 118q-107 0 -196.5 -108.5t-138 -277t-48.5 -351.5zM991 952l-555 -614q49 -121 172 -121q108 -1 197.5 108t137.5 277t48 350z" />
    <glyph glyph-name="Ugrave" unicode="&#xd9;" horiz-adv-x="1290" 
d="M782 473l203 957h338l-201 -945q-54 -257 -204.5 -383.5t-382.5 -126.5q-223 0 -348.5 101t-125.5 286q0 77 23 183l188 885h336l-190 -898q-21 -99 -21 -145q0 -70 40 -112t114 -42q43 0 74.5 9t63 33.5t54.5 74t39 123.5zM942 1520h-182l-168 299h276z" />
    <glyph glyph-name="Uacute" unicode="&#xda;" horiz-adv-x="1290" 
d="M782 473l203 957h338l-201 -945q-54 -257 -204.5 -383.5t-382.5 -126.5q-223 0 -348.5 101t-125.5 286q0 77 23 183l188 885h336l-190 -898q-21 -99 -21 -145q0 -70 40 -112t114 -42q43 0 74.5 9t63 33.5t54.5 74t39 123.5zM864 1520h-192l155 299h287z" />
    <glyph glyph-name="Ucircumflex" unicode="&#xdb;" horiz-adv-x="1290" 
d="M782 473l203 957h338l-201 -945q-54 -257 -204.5 -383.5t-382.5 -126.5q-223 0 -348.5 101t-125.5 286q0 77 23 183l188 885h336l-190 -898q-21 -99 -21 -145q0 -70 40 -112t114 -42q43 0 74.5 9t63 33.5t54.5 74t39 123.5zM1102 1520h-199l-61 182l-133 -182h-217
l219 299h295z" />
    <glyph glyph-name="Udieresis" unicode="&#xdc;" horiz-adv-x="1290" 
d="M782 473l203 957h338l-201 -945q-54 -257 -204.5 -383.5t-382.5 -126.5q-223 0 -348.5 101t-125.5 286q0 77 23 183l188 885h336l-190 -898q-21 -99 -21 -145q0 -70 40 -112t114 -42q43 0 74.5 9t63 33.5t54.5 74t39 123.5zM754 1556h-242l55 259h242zM1106 1556h-242
l56 259h241z" />
    <glyph glyph-name="Yacute" unicode="&#xdd;" horiz-adv-x="1212" 
d="M625 0h-336l114 547l-251 883h366l127 -560l320 560h391l-617 -889zM803 1520h-193l156 299h287z" />
    <glyph glyph-name="Thorn" unicode="&#xde;" horiz-adv-x="1138" 
d="M319 0h-335l303 1430h336l-37 -173h90q206 0 318 -91t112 -275q0 -237 -151.5 -389t-393.5 -152h-168zM434 600h117q104 0 164.5 70.5t60.5 189.5q0 148 -153 148h-103z" />
    <glyph glyph-name="germandbls" unicode="&#xdf;" 
d="M391 -4l49 231q18 -8 72 -8q93 0 152 82.5t59 206.5q0 171 -176 174l49 231q112 0 177 78t65 205q0 65 -37 104t-92 39q-68 0 -110 -52t-64 -157l-240 -1130h-324l230 1079q54 254 185.5 368t348.5 114q178 0 290 -99.5t112 -249.5q0 -157 -81.5 -269t-226.5 -148v-4
q103 -26 160.5 -101t57.5 -176q0 -239 -140 -384.5t-375 -145.5q-82 0 -141 12z" />
    <glyph glyph-name="agrave" unicode="&#xe0;" horiz-adv-x="1099" 
d="M850 0h-285q2 49 21 147h-4q-62 -88 -133 -129t-164 -41q-136 0 -222 82.5t-86 216.5q0 390 549 390h160q10 55 10 86q0 118 -151 118q-83 0 -152 -18t-180 -66l12 234q114 38 191.5 50.5t185.5 12.5q182 0 285.5 -82.5t103.5 -218.5q0 -80 -63 -360q-64 -287 -78 -422z
M637 432l16 82h-63q-316 0 -316 -201q0 -55 35 -90t97 -35q80 0 142 56.5t89 187.5zM780 1188h-182l-168 299h277z" />
    <glyph glyph-name="aacute" unicode="&#xe1;" horiz-adv-x="1099" 
d="M850 0h-285q2 49 21 147h-4q-62 -88 -133 -129t-164 -41q-136 0 -222 82.5t-86 216.5q0 390 549 390h160q10 55 10 86q0 118 -151 118q-83 0 -152 -18t-180 -66l12 234q114 38 191.5 50.5t185.5 12.5q182 0 285.5 -82.5t103.5 -218.5q0 -80 -63 -360q-64 -287 -78 -422z
M637 432l16 82h-63q-316 0 -316 -201q0 -55 35 -90t97 -35q80 0 142 56.5t89 187.5zM702 1188h-192l156 299h286z" />
    <glyph glyph-name="acircumflex" unicode="&#xe2;" horiz-adv-x="1099" 
d="M850 0h-285q2 49 21 147h-4q-62 -88 -133 -129t-164 -41q-136 0 -222 82.5t-86 216.5q0 390 549 390h160q10 55 10 86q0 118 -151 118q-83 0 -152 -18t-180 -66l12 234q114 38 191.5 50.5t185.5 12.5q182 0 285.5 -82.5t103.5 -218.5q0 -80 -63 -360q-64 -287 -78 -422z
M637 432l16 82h-63q-316 0 -316 -201q0 -55 35 -90t97 -35q80 0 142 56.5t89 187.5zM936 1188h-199l-61 182l-133 -182h-217l219 299h295z" />
    <glyph glyph-name="atilde" unicode="&#xe3;" horiz-adv-x="1099" 
d="M850 0h-285q2 49 21 147h-4q-62 -88 -133 -129t-164 -41q-136 0 -222 82.5t-86 216.5q0 390 549 390h160q10 55 10 86q0 118 -151 118q-83 0 -152 -18t-180 -66l12 234q114 38 191.5 50.5t185.5 12.5q182 0 285.5 -82.5t103.5 -218.5q0 -80 -63 -360q-64 -287 -78 -422z
M637 432l16 82h-63q-316 0 -316 -201q0 -55 35 -90t97 -35q80 0 142 56.5t89 187.5zM858 1466h152q-54 -249 -238 -249q-63 0 -149 45q-62 28 -88 28q-44 0 -70 -73h-152q26 117 89 183t149 66q57 0 137 -39q10 -4 25.5 -11.5t24.5 -11.5t21 -7.5t23 -3.5q61 0 76 73z" />
    <glyph glyph-name="adieresis" unicode="&#xe4;" horiz-adv-x="1099" 
d="M850 0h-285q2 49 21 147h-4q-62 -88 -133 -129t-164 -41q-136 0 -222 82.5t-86 216.5q0 390 549 390h160q10 55 10 86q0 118 -151 118q-83 0 -152 -18t-180 -66l12 234q114 38 191.5 50.5t185.5 12.5q182 0 285.5 -82.5t103.5 -218.5q0 -80 -63 -360q-64 -287 -78 -422z
M637 432l16 82h-63q-316 0 -316 -201q0 -55 35 -90t97 -35q80 0 142 56.5t89 187.5zM588 1239h-242l55 258h242zM940 1239h-242l56 258h241z" />
    <glyph glyph-name="aring" unicode="&#xe5;" horiz-adv-x="1099" 
d="M850 0h-285q2 49 21 147h-4q-62 -88 -133 -129t-164 -41q-136 0 -222 82.5t-86 216.5q0 390 549 390h160q10 55 10 86q0 118 -151 118q-83 0 -152 -18t-180 -66l12 234q114 38 191.5 50.5t185.5 12.5q182 0 285.5 -82.5t103.5 -218.5q0 -80 -63 -360q-64 -287 -78 -422z
M637 432l16 82h-63q-316 0 -316 -201q0 -55 35 -90t97 -35q80 0 142 56.5t89 187.5zM901 1417q0 -105 -77 -182.5t-185 -77.5q-90 0 -145.5 52t-55.5 143q0 108 78.5 184t185.5 76q89 0 144 -52t55 -143zM649 1264q57 0 96 42.5t39 102.5q0 42 -26 69t-68 27
q-57 0 -96 -43.5t-39 -103.5q0 -42 26 -68t68 -26z" />
    <glyph glyph-name="ae" unicode="&#xe6;" horiz-adv-x="1669" 
d="M1438 279l-31 -242q-156 -53 -311 -53q-277 0 -375 206q-77 -113 -171.5 -163t-240.5 -50q-147 0 -239.5 82.5t-92.5 216.5q0 193 138 291.5t393 98.5h178q10 38 10 86q0 118 -151 118q-81 0 -150 -18t-182 -66l12 234q113 38 193.5 50.5t183.5 12.5q100 0 176 -37.5
t113 -105.5q124 143 299 143q172 0 277.5 -102t105.5 -268q0 -116 -37 -264h-629l-2 -27q-8 -96 50.5 -156.5t181.5 -60.5q137 0 301 74zM938 625h344q16 50 16 104q0 70 -36 114t-97 44q-78 0 -138.5 -66t-88.5 -196zM631 406l22 108h-55q-324 0 -324 -201
q0 -54 35.5 -89.5t89.5 -35.5q177 0 232 218z" />
    <glyph glyph-name="ccedilla" unicode="&#xe7;" horiz-adv-x="909" 
d="M106 -412l50 95q59 -35 143 -35q121 0 121 84q0 29 -24 49t-58 20q-40 0 -78 -16l-37 37l137 174q-155 32 -246 144.5t-91 273.5q0 185 77 337t220.5 242t324.5 90q162 0 262 -49l-61 -241q-78 41 -195 41q-139 0 -222 -109.5t-83 -273.5q0 -107 57.5 -166.5t157.5 -59.5
q99 0 211 51l-31 -243q-101 -49 -266 -49h-14l-80 -95q10 2 47 2q82 0 124 -41t42 -100q0 -93 -78 -149t-205 -56q-71 0 -118 8.5t-87 34.5z" />
    <glyph glyph-name="egrave" unicode="&#xe8;" horiz-adv-x="1099" 
d="M868 279l-30 -242q-161 -53 -324 -53q-226 0 -353.5 114.5t-127.5 313.5q0 90 23 183t71 180.5t115.5 156t164 110t207.5 41.5q181 0 285.5 -100.5t104.5 -269.5q0 -116 -37 -264h-635l-4 -46q0 -92 64 -145t173 -53q136 0 303 74zM362 625h351q16 54 16 104
q0 70 -36 114t-95 44q-81 0 -143.5 -66t-92.5 -196zM776 1188h-182l-168 299h276z" />
    <glyph glyph-name="eacute" unicode="&#xe9;" horiz-adv-x="1099" 
d="M868 279l-30 -242q-161 -53 -324 -53q-226 0 -353.5 114.5t-127.5 313.5q0 90 23 183t71 180.5t115.5 156t164 110t207.5 41.5q181 0 285.5 -100.5t104.5 -269.5q0 -116 -37 -264h-635l-4 -46q0 -92 64 -145t173 -53q136 0 303 74zM362 625h351q16 54 16 104
q0 70 -36 114t-95 44q-81 0 -143.5 -66t-92.5 -196zM711 1188h-193l156 299h287z" />
    <glyph glyph-name="ecircumflex" unicode="&#xea;" horiz-adv-x="1099" 
d="M868 279l-30 -242q-161 -53 -324 -53q-226 0 -353.5 114.5t-127.5 313.5q0 90 23 183t71 180.5t115.5 156t164 110t207.5 41.5q181 0 285.5 -100.5t104.5 -269.5q0 -116 -37 -264h-635l-4 -46q0 -92 64 -145t173 -53q136 0 303 74zM362 625h351q16 54 16 104
q0 70 -36 114t-95 44q-81 0 -143.5 -66t-92.5 -196zM942 1188h-199l-61 182l-133 -182h-217l219 299h295z" />
    <glyph glyph-name="edieresis" unicode="&#xeb;" horiz-adv-x="1099" 
d="M868 279l-30 -242q-161 -53 -324 -53q-226 0 -353.5 114.5t-127.5 313.5q0 90 23 183t71 180.5t115.5 156t164 110t207.5 41.5q181 0 285.5 -100.5t104.5 -269.5q0 -116 -37 -264h-635l-4 -46q0 -92 64 -145t173 -53q136 0 303 74zM362 625h351q16 54 16 104
q0 70 -36 114t-95 44q-81 0 -143.5 -66t-92.5 -196zM594 1239h-242l56 258h241zM946 1239h-241l55 258h241z" />
    <glyph glyph-name="igrave" unicode="&#xec;" horiz-adv-x="569" 
d="M295 0h-324l226 1067h323zM530 1188h-182l-168 299h277z" />
    <glyph glyph-name="iacute" unicode="&#xed;" horiz-adv-x="569" 
d="M295 0h-324l226 1067h323zM422 1188h-193l156 299h287z" />
    <glyph glyph-name="icircumflex" unicode="&#xee;" horiz-adv-x="569" 
d="M295 0h-324l226 1067h323zM680 1188h-199l-61 182l-133 -182h-217l219 299h295z" />
    <glyph glyph-name="idieresis" unicode="&#xef;" horiz-adv-x="569" 
d="M295 0h-324l226 1067h323zM330 1239h-242l55 258h242zM682 1239h-242l56 258h241z" />
    <glyph glyph-name="eth" unicode="&#xf0;" 
d="M784 973h4q-11 86 -36.5 150t-75.5 128l-225 -110l-56 110l176 88q-47 38 -143 68l129 154q52 -6 128 -37t132 -68l205 105l57 -111l-166 -86q177 -219 177 -528q0 -185 -40.5 -340.5t-116.5 -269.5t-192 -178t-260 -64q-203 0 -325.5 114t-122.5 303q0 132 41 255
t112 215t173.5 147t218.5 55q66 0 123 -27.5t83 -72.5zM487 207q77 0 137.5 66t92 172t31.5 231q0 87 -36 135.5t-102 48.5q-74 0 -134 -67t-92 -174t-32 -228q0 -89 36 -136.5t99 -47.5z" />
    <glyph glyph-name="ntilde" unicode="&#xf1;" horiz-adv-x="1138" 
d="M874 0h-323l139 655q8 47 8 74q0 40 -23.5 68t-64.5 28q-150 0 -194 -204l-131 -621h-324l178 844q26 118 39 223h295q0 -33 -29 -178h5q56 92 141.5 144t183.5 52q116 0 190 -72t74 -184q0 -59 -14 -122zM881 1466h151q-27 -128 -86 -188.5t-151 -60.5q-64 0 -150 45
q-62 28 -88 28q-44 0 -70 -73h-151q26 117 88.5 183t148.5 66q58 0 138 -39q10 -4 25.5 -11.5t24.5 -11.5t21 -7.5t23 -3.5q61 0 76 73z" />
    <glyph glyph-name="ograve" unicode="&#xf2;" 
d="M33 408q2 104 26.5 202t73 184t116.5 150.5t162.5 101.5t204.5 37q202 0 326.5 -115.5t124.5 -301.5q0 -54 -9 -114t-29.5 -127t-51 -129t-78 -119.5t-106 -100t-138.5 -67.5t-172 -25q-204 0 -327 115t-123 309zM489 207q77 0 137 66t91 172t31 231q0 88 -37 136
t-103 48q-75 0 -134 -66.5t-90.5 -173t-31.5 -229.5q0 -87 36.5 -135.5t100.5 -48.5zM805 1188h-182l-168 299h276z" />
    <glyph glyph-name="oacute" unicode="&#xf3;" 
d="M33 408q2 104 26.5 202t73 184t116.5 150.5t162.5 101.5t204.5 37q202 0 326.5 -115.5t124.5 -301.5q0 -54 -9 -114t-29.5 -127t-51 -129t-78 -119.5t-106 -100t-138.5 -67.5t-172 -25q-204 0 -327 115t-123 309zM489 207q77 0 137 66t91 172t31 231q0 88 -37 136
t-103 48q-75 0 -134 -66.5t-90.5 -173t-31.5 -229.5q0 -87 36.5 -135.5t100.5 -48.5zM733 1188h-192l155 299h287z" />
    <glyph glyph-name="ocircumflex" unicode="&#xf4;" 
d="M33 408q2 104 26.5 202t73 184t116.5 150.5t162.5 101.5t204.5 37q202 0 326.5 -115.5t124.5 -301.5q0 -54 -9 -114t-29.5 -127t-51 -129t-78 -119.5t-106 -100t-138.5 -67.5t-172 -25q-204 0 -327 115t-123 309zM489 207q77 0 137 66t91 172t31 231q0 88 -37 136
t-103 48q-75 0 -134 -66.5t-90.5 -173t-31.5 -229.5q0 -87 36.5 -135.5t100.5 -48.5zM961 1188h-199l-62 182l-133 -182h-217l219 299h295z" />
    <glyph glyph-name="otilde" unicode="&#xf5;" 
d="M33 408q2 104 26.5 202t73 184t116.5 150.5t162.5 101.5t204.5 37q202 0 326.5 -115.5t124.5 -301.5q0 -54 -9 -114t-29.5 -127t-51 -129t-78 -119.5t-106 -100t-138.5 -67.5t-172 -25q-204 0 -327 115t-123 309zM489 207q77 0 137 66t91 172t31 231q0 88 -37 136
t-103 48q-75 0 -134 -66.5t-90.5 -173t-31.5 -229.5q0 -87 36.5 -135.5t100.5 -48.5zM887 1466h151q-27 -128 -86 -188.5t-151 -60.5q-64 0 -150 45q-62 28 -88 28q-43 0 -69 -73h-152q26 117 89 183t149 66q57 0 137 -39q10 -4 25.5 -11.5t24.5 -11.5t21 -7.5t23 -3.5
q61 0 76 73z" />
    <glyph glyph-name="odieresis" unicode="&#xf6;" 
d="M33 408q2 104 26.5 202t73 184t116.5 150.5t162.5 101.5t204.5 37q202 0 326.5 -115.5t124.5 -301.5q0 -54 -9 -114t-29.5 -127t-51 -129t-78 -119.5t-106 -100t-138.5 -67.5t-172 -25q-204 0 -327 115t-123 309zM489 207q77 0 137 66t91 172t31 231q0 88 -37 136
t-103 48q-75 0 -134 -66.5t-90.5 -173t-31.5 -229.5q0 -87 36.5 -135.5t100.5 -48.5zM614 1239h-241l55 258h242zM967 1239h-242l55 258h242z" />
    <glyph glyph-name="divide" unicode="&#xf7;" horiz-adv-x="1228" 
d="M573 768q-72 0 -114.5 43t-42.5 115q0 70 43 113.5t114 43.5t114.5 -43.5t43.5 -113.5q0 -71 -44 -114.5t-114 -43.5zM1092 412h-1037v213h1037v-213zM573 -47q-71 0 -114 44t-43 114t43 113.5t114 43.5t114.5 -43.5t43.5 -113.5t-43.5 -114t-114.5 -44z" />
    <glyph glyph-name="oslash" unicode="&#xf8;" 
d="M86 -61l-70 63l115 123q-96 117 -96 276q0 137 39.5 259.5t112 217t184.5 150t247 55.5q163 0 285 -88l103 111l71 -64l-102 -110q90 -114 90 -273q0 -48 -8 -104t-27.5 -122t-48.5 -128.5t-76.5 -121.5t-106 -102.5t-141 -70t-178.5 -26.5q-167 0 -276 79zM350 373
l373 422q-35 65 -115 65q-110 0 -184 -137t-74 -340v-10zM750 680l-369 -416q36 -57 108 -57q112 0 185 135t76 338z" />
    <glyph glyph-name="ugrave" unicode="&#xf9;" horiz-adv-x="1138" 
d="M881 0h-295q2 40 28 178h-4q-57 -95 -141 -144.5t-180 -49.5q-116 0 -190 71.5t-74 182.5q0 64 12 116l151 713h324l-137 -647q-10 -44 -10 -82q0 -41 23 -68.5t65 -27.5q69 0 117.5 46.5t68.5 137.5l135 641h324l-201 -952q-3 -14 -5.5 -32t-5.5 -43t-5 -40zM805 1188
h-182l-168 299h276z" />
    <glyph glyph-name="uacute" unicode="&#xfa;" horiz-adv-x="1138" 
d="M881 0h-295q2 40 28 178h-4q-57 -95 -141 -144.5t-180 -49.5q-116 0 -190 71.5t-74 182.5q0 64 12 116l151 713h324l-137 -647q-10 -44 -10 -82q0 -41 23 -68.5t65 -27.5q69 0 117.5 46.5t68.5 137.5l135 641h324l-201 -952q-3 -14 -5.5 -32t-5.5 -43t-5 -40zM735 1188
h-192l155 299h287z" />
    <glyph glyph-name="ucircumflex" unicode="&#xfb;" horiz-adv-x="1138" 
d="M881 0h-295q2 40 28 178h-4q-57 -95 -141 -144.5t-180 -49.5q-116 0 -190 71.5t-74 182.5q0 64 12 116l151 713h324l-137 -647q-10 -44 -10 -82q0 -41 23 -68.5t65 -27.5q69 0 117.5 46.5t68.5 137.5l135 641h324l-201 -952q-3 -14 -5.5 -32t-5.5 -43t-5 -40zM965 1188
h-199l-61 182l-134 -182h-217l219 299h295z" />
    <glyph glyph-name="udieresis" unicode="&#xfc;" horiz-adv-x="1138" 
d="M881 0h-295q2 40 28 178h-4q-57 -95 -141 -144.5t-180 -49.5q-116 0 -190 71.5t-74 182.5q0 64 12 116l151 713h324l-137 -647q-10 -44 -10 -82q0 -41 23 -68.5t65 -27.5q69 0 117.5 46.5t68.5 137.5l135 641h324l-201 -952q-3 -14 -5.5 -32t-5.5 -43t-5 -40zM614 1239
h-241l55 258h242zM967 1239h-242l55 258h242z" />
    <glyph glyph-name="yacute" unicode="&#xfd;" horiz-adv-x="1062" 
d="M-127 -428l61 240q64 -25 109 -25q126 0 199 215l-162 1065h326l63 -727h4l326 727h323l-618 -1173q-99 -186 -200.5 -267.5t-237.5 -81.5q-107 0 -193 27zM682 1188h-193l156 299h287z" />
    <glyph glyph-name="thorn" unicode="&#xfe;" 
d="M190 -442h-323l420 1978h323l-133 -627h4q64 92 131 133t158 41q138 0 220.5 -102t82.5 -283q0 -190 -70.5 -355.5t-187.5 -262t-248 -96.5q-94 0 -154.5 41.5t-90.5 132.5h-5zM500 207q68 0 124.5 66.5t88.5 177t32 239.5q0 77 -30 123.5t-84 46.5q-71 0 -132.5 -78
t-94.5 -188t-33 -215q0 -80 34.5 -126t94.5 -46z" />
    <glyph glyph-name="ydieresis" unicode="&#xff;" horiz-adv-x="1062" 
d="M-127 -428l61 240q64 -25 109 -25q126 0 199 215l-162 1065h326l63 -727h4l326 727h323l-618 -1173q-99 -186 -200.5 -267.5t-237.5 -81.5q-107 0 -193 27zM578 1239h-242l55 258h242zM930 1239h-242l55 258h242z" />
    <glyph glyph-name="Amacron" unicode="&#x100;" horiz-adv-x="1327" 
d="M1167 0h-323l-25 319h-442l-156 -319h-354l764 1430h373zM805 561l-41 594h-4l-281 -594h326zM1128 1583h-602l37 176h602z" />
    <glyph glyph-name="amacron" unicode="&#x101;" horiz-adv-x="1099" 
d="M850 0h-285q2 49 21 147h-4q-62 -88 -133 -129t-164 -41q-136 0 -222 82.5t-86 216.5q0 390 549 390h160q10 55 10 86q0 118 -151 118q-83 0 -152 -18t-180 -66l12 234q114 38 191.5 50.5t185.5 12.5q182 0 285.5 -82.5t103.5 -218.5q0 -80 -63 -360q-64 -287 -78 -422z
M637 432l16 82h-63q-316 0 -316 -201q0 -55 35 -90t97 -35q80 0 142 56.5t89 187.5zM946 1251h-602l39 176h602z" />
    <glyph glyph-name="Abreve" unicode="&#x102;" horiz-adv-x="1327" 
d="M1167 0h-323l-25 319h-442l-156 -319h-354l764 1430h373zM805 561l-41 594h-4l-281 -594h326zM1032 1819h135q-74 -301 -338 -301q-115 0 -180 59.5t-65 157.5q0 40 10 84h135q-4 -28 -4 -31q0 -52 32.5 -79.5t94.5 -27.5q142 0 180 138z" />
    <glyph glyph-name="abreve" unicode="&#x103;" horiz-adv-x="1099" 
d="M850 0h-285q2 49 21 147h-4q-62 -88 -133 -129t-164 -41q-136 0 -222 82.5t-86 216.5q0 390 549 390h160q10 55 10 86q0 118 -151 118q-83 0 -152 -18t-180 -66l12 234q114 38 191.5 50.5t185.5 12.5q182 0 285.5 -82.5t103.5 -218.5q0 -80 -63 -360q-64 -287 -78 -422z
M637 432l16 82h-63q-316 0 -316 -201q0 -55 35 -90t97 -35q80 0 142 56.5t89 187.5zM844 1491h135q-73 -301 -338 -301q-115 0 -180.5 59.5t-65.5 157.5q0 24 11 84h135q-4 -16 -4 -31q0 -106 127 -106q143 0 180 137z" />
    <glyph glyph-name="Aogonek" unicode="&#x104;" horiz-adv-x="1327" 
d="M1030 -334l10 -94q-67 -27 -163 -27q-84 0 -136.5 39.5t-52.5 100.5q0 80 57 149.5t203 165.5h-104l-25 319h-442l-156 -319h-354l764 1430h373l163 -1430h-127q-106 -96 -143 -156t-37 -108q0 -37 24 -58.5t72 -21.5q36 0 74 10zM805 561l-41 594h-4l-281 -594h326z" />
    <glyph glyph-name="aogonek" unicode="&#x105;" horiz-adv-x="1099" 
d="M766 -334l10 -94q-67 -27 -164 -27q-84 0 -136 39.5t-52 100.5q0 134 176 256l84 59h-119q2 49 21 147h-4q-62 -88 -133 -129t-164 -41q-136 0 -222 82.5t-86 216.5q0 390 549 390h160q10 55 10 86q0 118 -151 118q-83 0 -152 -18t-180 -66l12 234q114 38 191.5 50.5
t185.5 12.5q182 0 285.5 -82.5t103.5 -218.5q0 -80 -63 -360q-64 -287 -78 -422h-72q-182 -157 -182 -264q0 -37 24 -58.5t72 -21.5q36 0 74 10zM637 432l16 82h-63q-316 0 -316 -201q0 -55 35 -90t97 -35q80 0 142 56.5t89 187.5z" />
    <glyph glyph-name="Cacute" unicode="&#x106;" 
d="M1030 326l-47 -295q-152 -56 -309 -56q-268 0 -435 157t-167 427q0 253 107.5 457.5t299.5 321t432 116.5q195 0 332 -63l-74 -279q-57 39 -116 57.5t-140 18.5q-147 0 -260.5 -83t-172 -219t-58.5 -298q0 -161 86 -249.5t244 -88.5q140 0 278 76zM952 1520h-192l155 299
h287z" />
    <glyph glyph-name="cacute" unicode="&#x107;" horiz-adv-x="909" 
d="M772 276l-31 -243q-101 -49 -260 -49q-206 0 -332 118.5t-126 311.5q0 185 77 337t220.5 242t324.5 90q162 0 262 -49l-61 -241q-78 41 -195 41q-139 0 -222 -109.5t-83 -273.5q0 -107 57.5 -166.5t157.5 -59.5q99 0 211 51zM700 1188h-192l156 299h286z" />
    <glyph glyph-name="Ccircumflex" unicode="&#x108;" 
d="M1030 326l-47 -295q-152 -56 -309 -56q-268 0 -435 157t-167 427q0 253 107.5 457.5t299.5 321t432 116.5q195 0 332 -63l-74 -279q-57 39 -116 57.5t-140 18.5q-147 0 -260.5 -83t-172 -219t-58.5 -298q0 -161 86 -249.5t244 -88.5q140 0 278 76zM1186 1520h-199
l-61 182l-133 -182h-218l220 299h295z" />
    <glyph glyph-name="ccircumflex" unicode="&#x109;" horiz-adv-x="909" 
d="M772 276l-31 -243q-101 -49 -260 -49q-206 0 -332 118.5t-126 311.5q0 185 77 337t220.5 242t324.5 90q162 0 262 -49l-61 -241q-78 41 -195 41q-139 0 -222 -109.5t-83 -273.5q0 -107 57.5 -166.5t157.5 -59.5q99 0 211 51zM950 1188h-198l-62 182l-133 -182h-217
l219 299h295z" />
    <glyph glyph-name="Cdotaccent" unicode="&#x10a;" 
d="M1030 326l-47 -295q-152 -56 -309 -56q-268 0 -435 157t-167 427q0 253 107.5 457.5t299.5 321t432 116.5q195 0 332 -63l-74 -279q-57 39 -116 57.5t-140 18.5q-147 0 -260.5 -83t-172 -219t-58.5 -298q0 -161 86 -249.5t244 -88.5q140 0 278 76zM1010 1556h-242l55 259
h242z" />
    <glyph glyph-name="cdotaccent" unicode="&#x10b;" horiz-adv-x="909" 
d="M772 276l-31 -243q-101 -49 -260 -49q-206 0 -332 118.5t-126 311.5q0 185 77 337t220.5 242t324.5 90q162 0 262 -49l-61 -241q-78 41 -195 41q-139 0 -222 -109.5t-83 -273.5q0 -107 57.5 -166.5t157.5 -59.5q99 0 211 51zM776 1239h-241l55 258h241z" />
    <glyph glyph-name="Ccaron" unicode="&#x10c;" 
d="M1030 326l-47 -295q-152 -56 -309 -56q-268 0 -435 157t-167 427q0 253 107.5 457.5t299.5 321t432 116.5q195 0 332 -63l-74 -279q-57 39 -116 57.5t-140 18.5q-147 0 -260.5 -83t-172 -219t-58.5 -298q0 -161 86 -249.5t244 -88.5q140 0 278 76zM1038 1520h-295
l-96 299h199l61 -183l133 183h217z" />
    <glyph glyph-name="ccaron" unicode="&#x10d;" horiz-adv-x="909" 
d="M772 276l-31 -243q-101 -49 -260 -49q-206 0 -332 118.5t-126 311.5q0 185 77 337t220.5 242t324.5 90q162 0 262 -49l-61 -241q-78 41 -195 41q-139 0 -222 -109.5t-83 -273.5q0 -107 57.5 -166.5t157.5 -59.5q99 0 211 51zM803 1188h-295l-96 299h198l62 -182l133 182
h217z" />
    <glyph glyph-name="Dcaron" unicode="&#x10e;" horiz-adv-x="1366" 
d="M512 0h-528l303 1430h409q288 0 445 -138t157 -405q0 -190 -58 -355t-161 -282t-249.5 -183.5t-317.5 -66.5zM371 250h135q127 0 228.5 79.5t159.5 222t58 322.5q0 148 -72.5 227t-207.5 79h-103zM911 1520h-295l-96 299h199l61 -183l133 183h217z" />
    <glyph glyph-name="dcaron" unicode="&#x10f;" 
d="M920 0h-308q3 51 27 164h-4q-113 -180 -305 -180q-138 0 -221.5 105t-83.5 286q0 192 67 355.5t181.5 258t248.5 94.5q196 0 254 -174h4l133 627h324l-276 -1294q-41 -194 -41 -242zM467 207q76 0 138 80.5t92 189t30 211.5q0 80 -34.5 126t-94.5 46q-105 0 -175.5 -142
t-70.5 -341q0 -79 30 -124.5t85 -45.5zM1442 1137h-180l86 350h251z" />
    <glyph glyph-name="Dcroat" unicode="&#x110;" horiz-adv-x="1366" 
d="M512 0h-528l131 614h-138l50 234h137l123 582h409q288 0 445 -138t157 -405q0 -190 -58 -355t-161 -282t-249.5 -183.5t-317.5 -66.5zM371 250h135q127 0 228.5 79.5t159.5 222t58 322.5q0 148 -72.5 227t-207.5 79h-103l-71 -332h209l-50 -234h-208z" />
    <glyph glyph-name="dcroat" unicode="&#x111;" 
d="M920 0h-308q3 51 27 164h-4q-113 -180 -305 -180q-138 0 -221.5 105t-83.5 286q0 192 67 355.5t181.5 258t248.5 94.5q196 0 254 -174h4l68 320h-301l35 160h299l32 147h324l-33 -147h119l-35 -160h-117l-210 -987q-41 -194 -41 -242zM467 207q76 0 138 80.5t92 189
t30 211.5q0 80 -34.5 126t-94.5 46q-105 0 -175.5 -142t-70.5 -341q0 -79 30 -124.5t85 -45.5z" />
    <glyph glyph-name="Emacron" unicode="&#x112;" horiz-adv-x="1062" 
d="M834 0h-850l303 1430h825l-53 -250h-502l-68 -320h478l-54 -250h-477l-78 -360h527zM1014 1583h-602l37 176h602z" />
    <glyph glyph-name="emacron" unicode="&#x113;" horiz-adv-x="1099" 
d="M868 279l-30 -242q-161 -53 -324 -53q-226 0 -353.5 114.5t-127.5 313.5q0 90 23 183t71 180.5t115.5 156t164 110t207.5 41.5q181 0 285.5 -100.5t104.5 -269.5q0 -116 -37 -264h-635l-4 -46q0 -92 64 -145t173 -53q136 0 303 74zM362 625h351q16 54 16 104
q0 70 -36 114t-95 44q-81 0 -143.5 -66t-92.5 -196zM954 1251h-602l39 176h602z" />
    <glyph glyph-name="Ebreve" unicode="&#x114;" horiz-adv-x="1062" 
d="M834 0h-850l303 1430h825l-53 -250h-502l-68 -320h478l-54 -250h-477l-78 -360h527zM905 1819h135q-74 -301 -338 -301q-115 0 -180 59.5t-65 157.5q0 40 10 84h135q-4 -28 -4 -31q0 -52 32.5 -79.5t94.5 -27.5q142 0 180 138z" />
    <glyph glyph-name="ebreve" unicode="&#x115;" horiz-adv-x="1099" 
d="M868 279l-30 -242q-161 -53 -324 -53q-226 0 -353.5 114.5t-127.5 313.5q0 90 23 183t71 180.5t115.5 156t164 110t207.5 41.5q181 0 285.5 -100.5t104.5 -269.5q0 -116 -37 -264h-635l-4 -46q0 -92 64 -145t173 -53q136 0 303 74zM362 625h351q16 54 16 104
q0 70 -36 114t-95 44q-81 0 -143.5 -66t-92.5 -196zM836 1491h135q-73 -301 -338 -301q-115 0 -180.5 59.5t-65.5 157.5q0 29 10 84h135q-4 -16 -4 -31q0 -106 127 -106q144 0 181 137z" />
    <glyph glyph-name="Edotaccent" unicode="&#x116;" horiz-adv-x="1062" 
d="M834 0h-850l303 1430h825l-53 -250h-502l-68 -320h478l-54 -250h-477l-78 -360h527zM836 1556h-242l55 259h242z" />
    <glyph glyph-name="edotaccent" unicode="&#x117;" horiz-adv-x="1099" 
d="M868 279l-30 -242q-161 -53 -324 -53q-226 0 -353.5 114.5t-127.5 313.5q0 90 23 183t71 180.5t115.5 156t164 110t207.5 41.5q181 0 285.5 -100.5t104.5 -269.5q0 -116 -37 -264h-635l-4 -46q0 -92 64 -145t173 -53q136 0 303 74zM362 625h351q16 54 16 104
q0 70 -36 114t-95 44q-81 0 -143.5 -66t-92.5 -196zM766 1239h-242l56 258h241z" />
    <glyph glyph-name="Eogonek" unicode="&#x118;" horiz-adv-x="1062" 
d="M725 -334l10 -94q-67 -27 -164 -27q-84 0 -136 39.5t-52 100.5q0 80 57 149.5t203 165.5h-659l303 1430h825l-53 -250h-502l-68 -320h478l-54 -250h-477l-78 -360h527l-51 -250h-99q-106 -96 -143 -156t-37 -108q0 -37 24 -58.5t72 -21.5q36 0 74 10z" />
    <glyph glyph-name="eogonek" unicode="&#x119;" horiz-adv-x="1099" 
d="M535 -334l10 -94q-67 -27 -164 -27q-84 0 -136 39.5t-52 100.5q0 127 167 249l72 54q-191 20 -295 131.5t-104 292.5q0 90 23 183t71 180.5t115.5 156t164 110t207.5 41.5q181 0 285.5 -100.5t104.5 -269.5q0 -116 -37 -264h-635l-4 -46q0 -92 64 -145t173 -53
q136 0 303 74l-30 -242q-150 -50 -310 -53q-93 -85 -128 -142t-35 -106q0 -37 24 -58.5t72 -21.5q36 0 74 10zM362 625h351q16 54 16 104q0 70 -36 114t-95 44q-81 0 -143.5 -66t-92.5 -196z" />
    <glyph glyph-name="Ecaron" unicode="&#x11a;" horiz-adv-x="1062" 
d="M834 0h-850l303 1430h825l-53 -250h-502l-68 -320h478l-54 -250h-477l-78 -360h527zM862 1520h-295l-96 299h199l61 -183l133 183h217z" />
    <glyph glyph-name="ecaron" unicode="&#x11b;" horiz-adv-x="1099" 
d="M868 279l-30 -242q-161 -53 -324 -53q-226 0 -353.5 114.5t-127.5 313.5q0 90 23 183t71 180.5t115.5 156t164 110t207.5 41.5q181 0 285.5 -100.5t104.5 -269.5q0 -116 -37 -264h-635l-4 -46q0 -92 64 -145t173 -53q136 0 303 74zM362 625h351q16 54 16 104
q0 70 -36 114t-95 44q-81 0 -143.5 -66t-92.5 -196zM799 1188h-295l-96 299h198l62 -182l133 182h217z" />
    <glyph glyph-name="Gcircumflex" unicode="&#x11c;" horiz-adv-x="1366" 
d="M838 254l65 324h-188l49 241h508l-162 -762q-90 -40 -205.5 -61t-224.5 -21q-278 0 -445 160.5t-167 433.5q0 187 64 350.5t178 281.5t278.5 185.5t357.5 67.5q217 0 391 -59l-69 -275q-54 34 -143 55t-173 21q-165 0 -288.5 -81.5t-187.5 -222.5t-64 -321
q0 -156 79 -247t218 -91q81 0 129 21zM1237 1520h-199l-61 182l-133 -182h-217l219 299h295z" />
    <glyph glyph-name="gcircumflex" unicode="&#x11d;" 
d="M635 182h-4q-62 -95 -133.5 -138.5t-167.5 -43.5q-135 0 -220 105t-85 278q0 190 68 352t182.5 255t246.5 93q95 0 164.5 -47.5t104.5 -138.5h4q36 148 43 170h307q-4 -14 -12 -42.5t-15.5 -61t-15 -62t-12.5 -51.5t-5 -23l-157 -751q-57 -270 -215.5 -400.5
t-423.5 -130.5q-191 0 -389 64l65 264q166 -94 318 -94q66 0 110 9.5t82 33.5t65 70.5t50 115.5t45 174zM467 223q76 0 137.5 75.5t92 181t30.5 208.5q0 80 -34.5 126t-94.5 46q-69 0 -126 -65.5t-88.5 -174t-31.5 -233.5q0 -74 32 -119t83 -45zM987 1188h-199l-61 182
l-133 -182h-217l219 299h295z" />
    <glyph glyph-name="Gbreve" unicode="&#x11e;" horiz-adv-x="1366" 
d="M838 254l65 324h-188l49 241h508l-162 -762q-90 -40 -205.5 -61t-224.5 -21q-278 0 -445 160.5t-167 433.5q0 187 64 350.5t178 281.5t278.5 185.5t357.5 67.5q217 0 391 -59l-69 -275q-54 34 -143 55t-173 21q-165 0 -288.5 -81.5t-187.5 -222.5t-64 -321
q0 -156 79 -247t218 -91q81 0 129 21zM1147 1819h135q-74 -301 -338 -301q-115 0 -180.5 59.5t-65.5 157.5q0 36 11 84h135q-4 -28 -4 -31q0 -52 32.5 -79.5t94.5 -27.5q142 0 180 138z" />
    <glyph glyph-name="gbreve" unicode="&#x11f;" 
d="M635 182h-4q-62 -95 -133.5 -138.5t-167.5 -43.5q-135 0 -220 105t-85 278q0 190 68 352t182.5 255t246.5 93q95 0 164.5 -47.5t104.5 -138.5h4q36 148 43 170h307q-4 -14 -12 -42.5t-15.5 -61t-15 -62t-12.5 -51.5t-5 -23l-157 -751q-57 -270 -215.5 -400.5
t-423.5 -130.5q-191 0 -389 64l65 264q166 -94 318 -94q66 0 110 9.5t82 33.5t65 70.5t50 115.5t45 174zM467 223q76 0 137.5 75.5t92 181t30.5 208.5q0 80 -34.5 126t-94.5 46q-69 0 -126 -65.5t-88.5 -174t-31.5 -233.5q0 -74 32 -119t83 -45zM909 1491h135
q-73 -301 -337 -301q-115 0 -180.5 59.5t-65.5 157.5q0 29 10 84h135q-4 -16 -4 -31q0 -106 127 -106q143 0 180 137z" />
    <glyph glyph-name="Gdotaccent" unicode="&#x120;" horiz-adv-x="1366" 
d="M838 254l65 324h-188l49 241h508l-162 -762q-90 -40 -205.5 -61t-224.5 -21q-278 0 -445 160.5t-167 433.5q0 187 64 350.5t178 281.5t278.5 185.5t357.5 67.5q217 0 391 -59l-69 -275q-54 34 -143 55t-173 21q-165 0 -288.5 -81.5t-187.5 -222.5t-64 -321
q0 -156 79 -247t218 -91q81 0 129 21zM1061 1556h-242l55 259h242z" />
    <glyph glyph-name="gdotaccent" unicode="&#x121;" 
d="M635 182h-4q-62 -95 -133.5 -138.5t-167.5 -43.5q-135 0 -220 105t-85 278q0 190 68 352t182.5 255t246.5 93q95 0 164.5 -47.5t104.5 -138.5h4q36 148 43 170h307q-4 -14 -12 -42.5t-15.5 -61t-15 -62t-12.5 -51.5t-5 -23l-157 -751q-57 -270 -215.5 -400.5
t-423.5 -130.5q-191 0 -389 64l65 264q166 -94 318 -94q66 0 110 9.5t82 33.5t65 70.5t50 115.5t45 174zM467 223q76 0 137.5 75.5t92 181t30.5 208.5q0 80 -34.5 126t-94.5 46q-69 0 -126 -65.5t-88.5 -174t-31.5 -233.5q0 -74 32 -119t83 -45zM813 1239h-242l56 258h241z
" />
    <glyph glyph-name="Gcommaaccent" unicode="&#x122;" horiz-adv-x="1366" 
d="M838 254l65 324h-188l49 241h508l-162 -762q-90 -40 -205.5 -61t-224.5 -21q-278 0 -445 160.5t-167 433.5q0 187 64 350.5t178 281.5t278.5 185.5t357.5 67.5q217 0 391 -59l-69 -275q-54 34 -143 55t-173 21q-165 0 -288.5 -81.5t-187.5 -222.5t-64 -321
q0 -156 79 -247t218 -91q81 0 129 21zM629 -475h-236l115 330h287z" />
    <glyph glyph-name="gcommaaccent" unicode="&#x123;" 
d="M635 182h-4q-62 -95 -133.5 -138.5t-167.5 -43.5q-135 0 -220 105t-85 278q0 190 68 352t182.5 255t246.5 93q95 0 164.5 -47.5t104.5 -138.5h4q36 148 43 170h307q-4 -14 -12 -42.5t-15.5 -61t-15 -62t-12.5 -51.5t-5 -23l-157 -751q-57 -270 -215.5 -400.5
t-423.5 -130.5q-191 0 -389 64l65 264q166 -94 318 -94q66 0 110 9.5t82 33.5t65 70.5t50 115.5t45 174zM467 223q76 0 137.5 75.5t92 181t30.5 208.5q0 80 -34.5 126t-94.5 46q-69 0 -126 -65.5t-88.5 -174t-31.5 -233.5q0 -74 32 -119t83 -45zM821 1188h-276l157 299h232z
" />
    <glyph glyph-name="Hcircumflex" unicode="&#x124;" horiz-adv-x="1290" 
d="M1004 0h-336l125 594h-349l-125 -594h-335l303 1430h336l-121 -570h348l121 570h336zM1110 1520h-199l-61 182l-133 -182h-217l219 299h295z" />
    <glyph glyph-name="hcircumflex" unicode="&#x125;" horiz-adv-x="1138" 
d="M874 0h-323l139 655q8 47 8 74q0 40 -23.5 68t-64.5 28q-68 0 -119.5 -48t-74.5 -156l-131 -621h-324l326 1536h323l-131 -610h6q126 159 289 159q116 0 190 -72t74 -184q0 -56 -14 -122zM1053 1612h-199l-61 182l-134 -182h-217l220 299h294z" />
    <glyph glyph-name="Hbar" unicode="&#x126;" horiz-adv-x="1290" 
d="M1004 0h-336l120 569h-348l-121 -569h-335l219 1032h-129l39 185h129l45 213h336l-45 -213h348l45 213h336l-45 -213h127l-39 -185h-127zM840 813l47 219h-348l-47 -219h348z" />
    <glyph glyph-name="hbar" unicode="&#x127;" horiz-adv-x="1138" 
d="M874 0h-323l139 655q8 47 8 74q0 40 -23.5 68t-64.5 28q-68 0 -119.5 -48t-74.5 -156l-131 -621h-324l260 1229h-117l35 160h115l33 147h323l-32 -147h296l-34 -160h-295l-66 -303h6q126 159 289 159q116 0 190 -72t74 -184q0 -56 -14 -122z" />
    <glyph glyph-name="Itilde" unicode="&#x128;" horiz-adv-x="606" 
d="M319 0h-335l303 1430h336zM674 1798h151q-54 -250 -237 -250q-64 0 -150 45q-64 29 -88 29q-42 0 -69 -74h-152q26 117 89 183.5t149 66.5q57 0 137 -39q10 -4 31.5 -15t35 -15.5t27.5 -4.5q61 0 76 74z" />
    <glyph glyph-name="itilde" unicode="&#x129;" horiz-adv-x="569" 
d="M295 0h-324l226 1067h323zM590 1466h151q-27 -128 -86 -188.5t-151 -60.5q-64 0 -150 45q-62 28 -88 28q-43 0 -69 -73h-152q26 117 89 183t149 66q57 0 137 -39q10 -4 25.5 -11.5t24.5 -11.5t21 -7.5t23 -3.5q61 0 76 73z" />
    <glyph glyph-name="Imacron" unicode="&#x12a;" horiz-adv-x="606" 
d="M319 0h-335l303 1430h336zM778 1583h-602l37 176h602z" />
    <glyph glyph-name="imacron" unicode="&#x12b;" horiz-adv-x="569" 
d="M295 0h-324l226 1067h323zM688 1251h-602l39 176h602z" />
    <glyph glyph-name="Iogonek" unicode="&#x12e;" horiz-adv-x="606" 
d="M252 -334l10 -94q-67 -27 -164 -27q-84 0 -136 39.5t-52 100.5q0 80 57 149.5t203 165.5h-186l303 1430h336l-304 -1430h-57q-106 -96 -143 -156t-37 -108q0 -37 24 -58.5t72 -21.5q36 0 74 10z" />
    <glyph glyph-name="iogonek" unicode="&#x12f;" horiz-adv-x="569" 
d="M551 1249h-324l62 287h323zM233 -334l11 -94q-67 -27 -164 -27q-84 0 -136.5 39.5t-52.5 100.5q0 126 168 249l93 66h-181l226 1067h323l-225 -1067h-51q-181 -165 -181 -264q0 -37 24.5 -58.5t72.5 -21.5q35 0 73 10z" />
    <glyph glyph-name="Idotaccent" unicode="&#x130;" horiz-adv-x="606" 
d="M319 0h-335l303 1430h336zM598 1556h-242l56 259h241z" />
    <glyph glyph-name="dotlessi" unicode="&#x131;" horiz-adv-x="569" 
d="M295 0h-324l226 1067h323z" />
    <glyph glyph-name="IJ" unicode="&#x132;" horiz-adv-x="1378" 
d="M319 0h-335l303 1430h336zM467 16l70 273q66 -27 122 -27q81 0 125 44.5t66 144.5l209 979h336l-213 -1004q-49 -233 -171 -342t-327 -109q-52 0 -114.5 11.5t-102.5 29.5z" />
    <glyph glyph-name="ij" unicode="&#x133;" horiz-adv-x="1122" 
d="M551 1249h-324l62 287h323zM295 0h-324l226 1067h323zM1104 1249h-324l62 287h323zM262 -426l51 217q36 -12 68 -12q58 0 83.5 34t41.5 105l244 1149h323l-239 -1130q-45 -217 -138 -304.5t-250 -87.5q-120 0 -184 29z" />
    <glyph glyph-name="Jcircumflex" unicode="&#x134;" horiz-adv-x="796" 
d="M-115 16l70 273q66 -27 123 -27q81 0 124.5 44.5t65.5 144.5l209 979h336l-213 -1004q-49 -233 -171 -342t-327 -109q-52 0 -114.5 11.5t-102.5 29.5zM950 1520h-198l-62 182l-133 -182h-217l219 299h295z" />
    <glyph glyph-name="jcircumflex" unicode="&#x135;" horiz-adv-x="569" 
d="M-291 -426l51 217q36 -12 68 -12q58 0 83.5 34t41.5 105l244 1149h323l-239 -1130q-31 -148 -85 -235.5t-126 -122t-176 -34.5q-121 0 -185 29zM678 1188h-199l-61 182l-133 -182h-217l219 299h295z" />
    <glyph glyph-name="Kcommaaccent" unicode="&#x136;" horiz-adv-x="1251" 
d="M1096 0h-375l-258 657h-4l-140 -657h-335l303 1430h336l-125 -592h4l456 592h388l-592 -697zM463 -475h-236l115 330h287z" />
    <glyph glyph-name="kcommaaccent" unicode="&#x137;" horiz-adv-x="1099" 
d="M934 0h-340l-188 508h-5l-106 -508h-324l326 1536h324l-193 -895h4l338 426h350l-444 -500zM393 -475h-235l114 330h287z" />
    <glyph glyph-name="Lacute" unicode="&#x139;" horiz-adv-x="985" 
d="M793 0h-809l303 1430h336l-250 -1172h473zM545 1520h-193l156 299h287z" />
    <glyph glyph-name="lacute" unicode="&#x13a;" horiz-adv-x="569" 
d="M295 0h-324l326 1536h324zM526 1612h-192l155 299h287z" />
    <glyph glyph-name="Lcommaaccent" unicode="&#x13b;" horiz-adv-x="985" 
d="M793 0h-809l303 1430h336l-250 -1172h473zM350 -475h-235l114 330h287z" />
    <glyph glyph-name="lcommaaccent" unicode="&#x13c;" horiz-adv-x="569" 
d="M295 0h-324l326 1536h324zM96 -475h-235l114 330h287z" />
    <glyph glyph-name="Lcaron" unicode="&#x13d;" horiz-adv-x="985" 
d="M793 0h-809l303 1430h336l-250 -1172h473zM868 1137h-180l86 350h252z" />
    <glyph glyph-name="lcaron" unicode="&#x13e;" horiz-adv-x="569" 
d="M295 0h-324l326 1536h324zM823 1137h-180l86 350h252z" />
    <glyph glyph-name="Ldot" unicode="&#x13f;" horiz-adv-x="985" 
d="M793 0h-809l303 1430h336l-250 -1172h473zM827 616h-241l55 258h242z" />
    <glyph glyph-name="ldot" unicode="&#x140;" horiz-adv-x="829" 
d="M295 0h-324l326 1536h324zM780 616h-241l55 258h242z" />
    <glyph glyph-name="Lslash" unicode="&#x141;" horiz-adv-x="985" 
d="M793 0h-807l98 479l-150 -102v186l195 129l158 738h336l-113 -533l299 205v-184l-346 -236l-90 -424h473z" />
    <glyph glyph-name="lslash" unicode="&#x142;" horiz-adv-x="569" 
d="M295 0h-324l115 547l-141 -105v185l190 139l162 770h324l-117 -553l158 109v-187l-203 -137z" />
    <glyph glyph-name="Nacute" unicode="&#x143;" horiz-adv-x="1366" 
d="M1085 0h-389l-200 1038h-4l-220 -1038h-295l304 1430h385l213 -996h4l211 996h295zM932 1520h-193l156 299h287z" />
    <glyph glyph-name="nacute" unicode="&#x144;" horiz-adv-x="1138" 
d="M874 0h-323l139 655q8 47 8 74q0 40 -23.5 68t-64.5 28q-150 0 -194 -204l-131 -621h-324l178 844q26 118 39 223h295q0 -33 -29 -178h5q56 92 141.5 144t183.5 52q116 0 190 -72t74 -184q0 -59 -14 -122zM731 1188h-192l155 299h287z" />
    <glyph glyph-name="Ncommaaccent" unicode="&#x145;" horiz-adv-x="1366" 
d="M1085 0h-389l-200 1038h-4l-220 -1038h-295l304 1430h385l213 -996h4l211 996h295zM537 -475h-236l115 330h286z" />
    <glyph glyph-name="ncommaaccent" unicode="&#x146;" horiz-adv-x="1138" 
d="M874 0h-323l139 655q8 47 8 74q0 40 -23.5 68t-64.5 28q-150 0 -194 -204l-131 -621h-324l178 844q26 118 39 223h295q0 -33 -29 -178h5q56 92 141.5 144t183.5 52q116 0 190 -72t74 -184q0 -59 -14 -122zM373 -475h-236l115 330h287z" />
    <glyph glyph-name="Ncaron" unicode="&#x147;" horiz-adv-x="1366" 
d="M1085 0h-389l-200 1038h-4l-220 -1038h-295l304 1430h385l213 -996h4l211 996h295zM1018 1520h-295l-96 299h198l62 -183l133 183h217z" />
    <glyph glyph-name="ncaron" unicode="&#x148;" horiz-adv-x="1138" 
d="M874 0h-323l139 655q8 47 8 74q0 40 -23.5 68t-64.5 28q-150 0 -194 -204l-131 -621h-324l178 844q26 118 39 223h295q0 -33 -29 -178h5q56 92 141.5 144t183.5 52q116 0 190 -72t74 -184q0 -59 -14 -122zM807 1188h-295l-96 299h198l62 -182l133 182h217z" />
    <glyph glyph-name="napostrophe" unicode="&#x149;" horiz-adv-x="1374" 
d="M37 1004l174 532h287l-230 -532h-231zM1110 0h-324l140 655q8 47 8 74q0 40 -23.5 68t-64.5 28q-151 0 -195 -204l-131 -621h-323l178 844q26 118 39 223h295q0 -33 -29 -178h4q56 92 142 144t184 52q116 0 190 -72t74 -184q0 -59 -14 -122z" />
    <glyph glyph-name="Omacron" unicode="&#x14c;" horiz-adv-x="1402" 
d="M1151 268q-185 -293 -557 -293q-248 0 -388 141t-140 394q0 378 190 659q194 285 553 285q248 0 388 -141t140 -391q0 -358 -186 -654zM608 217q108 0 197.5 108t137.5 273t48 342q0 127 -53.5 199.5t-144.5 72.5q-80 0 -151.5 -63.5t-121.5 -165.5t-79 -232t-29 -262
q0 -126 54 -199t142 -73zM1153 1583h-602l37 176h602z" />
    <glyph glyph-name="omacron" unicode="&#x14d;" 
d="M33 408q2 104 26.5 202t73 184t116.5 150.5t162.5 101.5t204.5 37q202 0 326.5 -115.5t124.5 -301.5q0 -54 -9 -114t-29.5 -127t-51 -129t-78 -119.5t-106 -100t-138.5 -67.5t-172 -25q-204 0 -327 115t-123 309zM489 207q77 0 137 66t91 172t31 231q0 88 -37 136
t-103 48q-75 0 -134 -66.5t-90.5 -173t-31.5 -229.5q0 -87 36.5 -135.5t100.5 -48.5zM973 1251h-602l39 176h602z" />
    <glyph glyph-name="Obreve" unicode="&#x14e;" horiz-adv-x="1402" 
d="M1151 268q-185 -293 -557 -293q-248 0 -388 141t-140 394q0 378 190 659q194 285 553 285q248 0 388 -141t140 -391q0 -358 -186 -654zM608 217q108 0 197.5 108t137.5 273t48 342q0 127 -53.5 199.5t-144.5 72.5q-80 0 -151.5 -63.5t-121.5 -165.5t-79 -232t-29 -262
q0 -126 54 -199t142 -73zM1077 1819h135q-74 -301 -338 -301q-115 0 -180 59.5t-65 157.5q0 40 10 84h135q-4 -28 -4 -31q0 -52 32.5 -79.5t94.5 -27.5q142 0 180 138z" />
    <glyph glyph-name="obreve" unicode="&#x14f;" 
d="M33 408q2 104 26.5 202t73 184t116.5 150.5t162.5 101.5t204.5 37q202 0 326.5 -115.5t124.5 -301.5q0 -54 -9 -114t-29.5 -127t-51 -129t-78 -119.5t-106 -100t-138.5 -67.5t-172 -25q-204 0 -327 115t-123 309zM489 207q77 0 137 66t91 172t31 231q0 88 -37 136
t-103 48q-75 0 -134 -66.5t-90.5 -173t-31.5 -229.5q0 -87 36.5 -135.5t100.5 -48.5zM872 1491h136q-73 -301 -338 -301q-115 0 -180.5 59.5t-65.5 157.5q0 29 10 84h135q-4 -16 -4 -31q0 -106 127 -106q143 0 180 137z" />
    <glyph glyph-name="Ohungarumlaut" unicode="&#x150;" horiz-adv-x="1402" 
d="M1151 268q-185 -293 -557 -293q-248 0 -388 141t-140 394q0 378 190 659q194 285 553 285q248 0 388 -141t140 -391q0 -358 -186 -654zM608 217q108 0 197.5 108t137.5 273t48 342q0 127 -53.5 199.5t-144.5 72.5q-80 0 -151.5 -63.5t-121.5 -165.5t-79 -232t-29 -262
q0 -126 54 -199t142 -73zM717 1520h-185l154 299h281zM1104 1520h-186l155 299h279z" />
    <glyph glyph-name="ohungarumlaut" unicode="&#x151;" 
d="M33 408q2 104 26.5 202t73 184t116.5 150.5t162.5 101.5t204.5 37q202 0 326.5 -115.5t124.5 -301.5q0 -54 -9 -114t-29.5 -127t-51 -129t-78 -119.5t-106 -100t-138.5 -67.5t-172 -25q-204 0 -327 115t-123 309zM489 207q77 0 137 66t91 172t31 231q0 88 -37 136
t-103 48q-75 0 -134 -66.5t-90.5 -173t-31.5 -229.5q0 -87 36.5 -135.5t100.5 -48.5zM539 1188h-185l154 299h280zM926 1188h-187l156 299h279z" />
    <glyph glyph-name="OE" unicode="&#x152;" horiz-adv-x="1781" 
d="M1565 0h-674q-25 0 -150 -9t-153 -9q-252 0 -394.5 140t-142.5 390q0 87 11.5 176t38 181.5t65.5 176t98 157t131 127.5t169 85t208 31q97 0 265 -8t186 -8h618l-53 -250h-479l-68 -320h453l-54 -250h-452l-78 -360h506zM776 258l195 913q-103 23 -193 23
q-81 0 -148.5 -50.5t-110.5 -128t-73 -173.5t-42.5 -184t-12.5 -164q0 -119 55.5 -188.5t151.5 -69.5q110 0 178 22z" />
    <glyph glyph-name="oe" unicode="&#x153;" horiz-adv-x="1781" 
d="M1550 279l-30 -242q-161 -53 -324 -53q-133 0 -232 50t-147 138q-155 -188 -346 -188q-198 0 -318 114t-120 303q0 97 21.5 192t69 184t114.5 156.5t166 108.5t217 41q235 0 329 -159q146 159 346 159q180 0 285 -101t105 -269q0 -116 -37 -264h-635q-4 -36 -4 -46
q0 -92 64 -145t173 -53q136 0 303 74zM1044 625h351q16 62 16 104q0 72 -36.5 115t-96.5 43q-79 0 -142.5 -66.5t-91.5 -195.5zM489 207q77 0 137 65.5t91 171.5t31 232q0 88 -37 136t-103 48q-75 0 -134.5 -66.5t-90.5 -173t-31 -229.5q0 -87 36.5 -135.5t100.5 -48.5z" />
    <glyph glyph-name="Racute" unicode="&#x154;" horiz-adv-x="1214" 
d="M1010 0h-346l-39 422q-14 156 -125 156h-60l-121 -578h-335l303 1430h483q179 0 285 -90t106 -248q0 -160 -87 -262.5t-253 -139.5l2 -8q57 -21 84.5 -74t40.5 -147zM481 819h109q110 0 172.5 63.5t62.5 174.5q0 58 -43.5 94.5t-117.5 36.5h-105zM795 1520h-193l156 299
h286z" />
    <glyph glyph-name="racute" unicode="&#x155;" horiz-adv-x="796" 
d="M285 0h-324l178 844q21 96 39 223h295q0 -33 -33 -193h4q83 128 149.5 168.5t184.5 40.5h56l-64 -299q-56 13 -96 13q-117 0 -185 -70.5t-104 -245.5zM594 1188h-193l156 299h287z" />
    <glyph glyph-name="Rcommaaccent" unicode="&#x156;" horiz-adv-x="1214" 
d="M1010 0h-346l-39 422q-14 156 -125 156h-60l-121 -578h-335l303 1430h483q179 0 285 -90t106 -248q0 -160 -87 -262.5t-253 -139.5l2 -8q57 -21 84.5 -74t40.5 -147zM481 819h109q110 0 172.5 63.5t62.5 174.5q0 58 -43.5 94.5t-117.5 36.5h-105zM446 -475h-235l115 330
h286z" />
    <glyph glyph-name="rcommaaccent" unicode="&#x157;" horiz-adv-x="796" 
d="M285 0h-324l178 844q21 96 39 223h295q0 -33 -33 -193h4q83 128 149.5 168.5t184.5 40.5h56l-64 -299q-56 13 -96 13q-117 0 -185 -70.5t-104 -245.5zM88 -475h-235l114 330h287z" />
    <glyph glyph-name="Rcaron" unicode="&#x158;" horiz-adv-x="1214" 
d="M1010 0h-346l-39 422q-14 156 -125 156h-60l-121 -578h-335l303 1430h483q179 0 285 -90t106 -248q0 -160 -87 -262.5t-253 -139.5l2 -8q57 -21 84.5 -74t40.5 -147zM481 819h109q110 0 172.5 63.5t62.5 174.5q0 58 -43.5 94.5t-117.5 36.5h-105zM883 1520h-295l-96 299
h198l62 -183l133 183h217z" />
    <glyph glyph-name="rcaron" unicode="&#x159;" horiz-adv-x="796" 
d="M285 0h-324l178 844q21 96 39 223h295q0 -33 -33 -193h4q83 128 149.5 168.5t184.5 40.5h56l-64 -299q-56 13 -96 13q-117 0 -185 -70.5t-104 -245.5zM682 1188h-295l-96 299h198l62 -182l133 182h217z" />
    <glyph glyph-name="Sacute" unicode="&#x15a;" horiz-adv-x="1099" 
d="M0 39l80 272q51 -38 129 -62t156 -24q117 0 177 41t60 135q0 59 -42.5 111.5t-139.5 108.5q-149 85 -205.5 175.5t-56.5 190.5q0 220 148.5 343.5t412.5 123.5q165 0 319 -55l-65 -256q-120 69 -258 69q-102 0 -159 -38t-60 -111q-1 -20 2.5 -39t13 -36.5t17.5 -31
t26 -30.5t28.5 -27t36 -27t36.5 -24t41 -25.5t40 -25.5q58 -37 99 -74.5t62.5 -67.5t33 -67t14 -62t2.5 -63q0 -233 -154.5 -360.5t-437.5 -127.5q-197 0 -356 64zM768 1520h-193l156 299h287z" />
    <glyph glyph-name="sacute" unicode="&#x15b;" horiz-adv-x="872" 
d="M801 1038l-60 -237q-103 61 -239 61q-65 0 -103.5 -25t-38.5 -67q0 -19 8 -36.5t18.5 -29t34 -26.5t39 -23.5t50.5 -25.5t53 -27q56 -29 92 -62.5t52 -69t21 -63.5t5 -65q0 -176 -119.5 -270.5t-349.5 -94.5q-77 0 -172 17.5t-143 38.5l65 250q76 -38 132.5 -57
t121.5 -19q84 0 122 22.5t40 67.5q0 18 -9.5 36t-22 31t-38 29.5t-42 25t-48.5 25t-45 23.5q-50 27 -83 60t-49 68t-21.5 65t-5.5 65q0 165 122.5 262.5t325.5 97.5q141 0 287 -47zM584 1188h-193l156 299h287z" />
    <glyph glyph-name="Scircumflex" unicode="&#x15c;" horiz-adv-x="1099" 
d="M0 39l80 272q51 -38 129 -62t156 -24q117 0 177 41t60 135q0 59 -42.5 111.5t-139.5 108.5q-149 85 -205.5 175.5t-56.5 190.5q0 220 148.5 343.5t412.5 123.5q165 0 319 -55l-65 -256q-120 69 -258 69q-102 0 -159 -38t-60 -111q-1 -20 2.5 -39t13 -36.5t17.5 -31
t26 -30.5t28.5 -27t36 -27t36.5 -24t41 -25.5t40 -25.5q58 -37 99 -74.5t62.5 -67.5t33 -67t14 -62t2.5 -63q0 -233 -154.5 -360.5t-437.5 -127.5q-197 0 -356 64zM987 1520h-199l-61 182l-133 -182h-217l219 299h295z" />
    <glyph glyph-name="scircumflex" unicode="&#x15d;" horiz-adv-x="872" 
d="M801 1038l-60 -237q-103 61 -239 61q-65 0 -103.5 -25t-38.5 -67q0 -19 8 -36.5t18.5 -29t34 -26.5t39 -23.5t50.5 -25.5t53 -27q56 -29 92 -62.5t52 -69t21 -63.5t5 -65q0 -176 -119.5 -270.5t-349.5 -94.5q-77 0 -172 17.5t-143 38.5l65 250q76 -38 132.5 -57
t121.5 -19q84 0 122 22.5t40 67.5q0 18 -9.5 36t-22 31t-38 29.5t-42 25t-48.5 25t-45 23.5q-50 27 -83 60t-49 68t-21.5 65t-5.5 65q0 165 122.5 262.5t325.5 97.5q141 0 287 -47zM827 1188h-198l-62 182l-133 -182h-217l219 299h295z" />
    <glyph glyph-name="Scedilla" unicode="&#x15e;" horiz-adv-x="1099" 
d="M117 -412l49 95q59 -35 143 -35q121 0 121 84q0 29 -24 49t-58 20q-40 0 -78 -16l-37 37l121 153q-183 0 -354 64l80 272q51 -38 129 -62t156 -24q117 0 177 41t60 135q0 59 -42.5 111.5t-139.5 108.5q-149 85 -205.5 175.5t-56.5 190.5q0 220 148.5 343.5t412.5 123.5
q165 0 319 -55l-65 -256q-120 69 -258 69q-102 0 -159 -38t-60 -111q-1 -20 2.5 -39t13 -36.5t17.5 -31t26 -30.5t28.5 -27t36 -27t36.5 -24t41 -25.5t40 -25.5q71 -45 117 -91.5t64.5 -92t24 -77t5.5 -73.5q0 -208 -121.5 -331.5t-357.5 -149.5l-78 -93q10 2 47 2
q82 0 124 -41t42 -100q0 -93 -77.5 -149t-204.5 -56q-71 0 -118 8.5t-87 34.5z" />
    <glyph glyph-name="scedilla" unicode="&#x15f;" horiz-adv-x="872" 
d="M-6 -412l49 95q59 -35 143 -35q121 0 121 84q0 29 -24 49t-58 20q-40 0 -78 -16l-36 37l122 155q-166 11 -284 56l65 250q76 -38 132.5 -57t121.5 -19q84 0 122 22.5t40 67.5q0 16 -5 30.5t-19 29t-25.5 24.5t-36 24t-36.5 21t-42.5 22.5t-40.5 20.5q-52 27 -86 60
t-48.5 68.5t-19.5 64t-5 63.5q0 165 122.5 262.5t325.5 97.5q141 0 287 -47l-60 -237q-103 61 -239 61q-66 0 -104 -23.5t-38 -64.5q0 -29 13 -51.5t38.5 -40t51 -30.5t63.5 -31.5t62 -32.5q48 -29 79.5 -62t44.5 -67.5t17 -58.5t4 -54q0 -330 -389 -364l-76 -93q10 2 47 2
q82 0 124 -41t42 -100q0 -93 -77.5 -149t-204.5 -56q-71 0 -118 8.5t-87 34.5z" />
    <glyph glyph-name="Scaron" unicode="&#x160;" horiz-adv-x="1099" 
d="M0 39l80 272q51 -38 129 -62t156 -24q117 0 177 41t60 135q0 59 -42.5 111.5t-139.5 108.5q-149 85 -205.5 175.5t-56.5 190.5q0 220 148.5 343.5t412.5 123.5q165 0 319 -55l-65 -256q-120 69 -258 69q-102 0 -159 -38t-60 -111q-1 -20 2.5 -39t13 -36.5t17.5 -31
t26 -30.5t28.5 -27t36 -27t36.5 -24t41 -25.5t40 -25.5q58 -37 99 -74.5t62.5 -67.5t33 -67t14 -62t2.5 -63q0 -233 -154.5 -360.5t-437.5 -127.5q-197 0 -356 64zM840 1520h-295l-96 299h198l62 -183l133 183h217z" />
    <glyph glyph-name="scaron" unicode="&#x161;" horiz-adv-x="872" 
d="M801 1038l-60 -237q-103 61 -239 61q-65 0 -103.5 -25t-38.5 -67q0 -19 8 -36.5t18.5 -29t34 -26.5t39 -23.5t50.5 -25.5t53 -27q56 -29 92 -62.5t52 -69t21 -63.5t5 -65q0 -176 -119.5 -270.5t-349.5 -94.5q-77 0 -172 17.5t-143 38.5l65 250q76 -38 132.5 -57
t121.5 -19q84 0 122 22.5t40 67.5q0 18 -9.5 36t-22 31t-38 29.5t-42 25t-48.5 25t-45 23.5q-50 27 -83 60t-49 68t-21.5 65t-5.5 65q0 165 122.5 262.5t325.5 97.5q141 0 287 -47zM666 1188h-295l-97 299h199l62 -182l133 182h217z" />
    <glyph glyph-name="Tcommaaccent" unicode="&#x162;" horiz-adv-x="1024" 
d="M528 0h-335l247 1171h-311l55 259h959l-56 -259h-311zM322 -475h-236l115 330h286z" />
    <glyph glyph-name="tcommaaccent" unicode="&#x163;" horiz-adv-x="796" 
d="M641 240l-47 -228q-58 -28 -207 -28q-130 0 -204 59.5t-74 167.5q0 40 14 115l108 514h-174l47 227h183l47 219l336 100l-68 -319h211l-47 -227h-211l-106 -502q-5 -25 -5 -41q0 -40 23 -60t63 -20t111 23zM260 -475h-235l114 330h287z" />
    <glyph glyph-name="Tcaron" unicode="&#x164;" horiz-adv-x="1024" 
d="M528 0h-335l247 1171h-311l55 259h959l-56 -259h-311zM813 1520h-295l-96 299h199l61 -183l133 183h217z" />
    <glyph glyph-name="tcaron" unicode="&#x165;" horiz-adv-x="796" 
d="M641 240l-47 -228q-58 -28 -207 -28q-130 0 -204 59.5t-74 167.5q0 40 14 115l108 514h-174l47 227h183l47 219l336 100l-68 -319h211l-47 -227h-211l-106 -502q-5 -25 -5 -41q0 -40 23 -60t63 -20t111 23zM889 1137h-180l86 350h252z" />
    <glyph glyph-name="Tbar" unicode="&#x166;" horiz-adv-x="1024" 
d="M528 0h-335l149 713h-236l41 192h236l57 266h-311l55 259h959l-56 -259h-311l-57 -266h233l-41 -192h-233z" />
    <glyph glyph-name="tbar" unicode="&#x167;" horiz-adv-x="796" 
d="M641 240l-47 -228q-58 -28 -207 -28q-130 0 -204 59.5t-74 167.5q0 40 14 115l39 186h-148l33 158h148l36 170h-174l47 227h183l47 219l336 100l-68 -319h211l-47 -227h-211l-37 -170h180l-32 -158h-181l-36 -174q-5 -25 -5 -41q0 -40 23 -60t63 -20t111 23z" />
    <glyph glyph-name="Utilde" unicode="&#x168;" horiz-adv-x="1290" 
d="M782 473l203 957h338l-201 -945q-54 -257 -204.5 -383.5t-382.5 -126.5q-223 0 -348.5 101t-125.5 286q0 77 23 183l188 885h336l-190 -898q-21 -99 -21 -145q0 -70 40 -112t114 -42q43 0 74.5 9t63 33.5t54.5 74t39 123.5zM1034 1798h152q-54 -250 -238 -250
q-63 0 -149 45q-64 29 -88 29q-43 0 -70 -74h-152q26 117 89 183.5t149 66.5q57 0 137 -39q10 -4 31.5 -15t35 -15.5t27.5 -4.5q61 0 76 74z" />
    <glyph glyph-name="utilde" unicode="&#x169;" horiz-adv-x="1138" 
d="M881 0h-295q2 40 28 178h-4q-57 -95 -141 -144.5t-180 -49.5q-116 0 -190 71.5t-74 182.5q0 64 12 116l151 713h324l-137 -647q-10 -44 -10 -82q0 -41 23 -68.5t65 -27.5q69 0 117.5 46.5t68.5 137.5l135 641h324l-201 -952q-3 -14 -5.5 -32t-5.5 -43t-5 -40zM866 1466
h152q-54 -249 -238 -249q-63 0 -149 45q-62 28 -88 28q-44 0 -70 -73h-151q26 117 88.5 183t148.5 66q57 0 137 -39q9 -4 25.5 -11.5t25 -11.5t21 -7.5t23.5 -3.5q60 0 75 73z" />
    <glyph glyph-name="Umacron" unicode="&#x16a;" horiz-adv-x="1290" 
d="M782 473l203 957h338l-201 -945q-54 -257 -204.5 -383.5t-382.5 -126.5q-223 0 -348.5 101t-125.5 286q0 77 23 183l188 885h336l-190 -898q-21 -99 -21 -145q0 -70 40 -112t114 -42q43 0 74.5 9t63 33.5t54.5 74t39 123.5zM1116 1583h-602l37 176h602z" />
    <glyph glyph-name="umacron" unicode="&#x16b;" horiz-adv-x="1138" 
d="M881 0h-295q2 40 28 178h-4q-57 -95 -141 -144.5t-180 -49.5q-116 0 -190 71.5t-74 182.5q0 64 12 116l151 713h324l-137 -647q-10 -44 -10 -82q0 -41 23 -68.5t65 -27.5q69 0 117.5 46.5t68.5 137.5l135 641h324l-201 -952q-3 -14 -5.5 -32t-5.5 -43t-5 -40zM975 1251
h-602l39 176h602z" />
    <glyph glyph-name="Ubreve" unicode="&#x16c;" horiz-adv-x="1290" 
d="M782 473l203 957h338l-201 -945q-54 -257 -204.5 -383.5t-382.5 -126.5q-223 0 -348.5 101t-125.5 286q0 77 23 183l188 885h336l-190 -898q-21 -99 -21 -145q0 -70 40 -112t114 -42q43 0 74.5 9t63 33.5t54.5 74t39 123.5zM1001 1819h136q-74 -301 -338 -301
q-115 0 -180.5 59.5t-65.5 157.5q0 40 10 84h135q-4 -28 -4 -31q0 -52 32.5 -79.5t94.5 -27.5q142 0 180 138z" />
    <glyph glyph-name="ubreve" unicode="&#x16d;" horiz-adv-x="1138" 
d="M881 0h-295q2 40 28 178h-4q-57 -95 -141 -144.5t-180 -49.5q-116 0 -190 71.5t-74 182.5q0 64 12 116l151 713h324l-137 -647q-10 -44 -10 -82q0 -41 23 -68.5t65 -27.5q69 0 117.5 46.5t68.5 137.5l135 641h324l-201 -952q-3 -14 -5.5 -32t-5.5 -43t-5 -40zM852 1491
h135q-73 -301 -338 -301q-115 0 -180.5 59.5t-65.5 157.5q0 24 11 84h135q-4 -16 -4 -31q0 -106 127 -106q143 0 180 137z" />
    <glyph glyph-name="Uring" unicode="&#x16e;" horiz-adv-x="1290" 
d="M782 473l203 957h338l-201 -945q-54 -257 -204.5 -383.5t-382.5 -126.5q-223 0 -348.5 101t-125.5 286q0 77 23 183l188 885h336l-190 -898q-21 -99 -21 -145q0 -70 40 -112t114 -42q43 0 74.5 9t63 33.5t54.5 74t39 123.5zM1073 1749q0 -105 -77 -182.5t-185 -77.5
q-90 0 -145.5 52t-55.5 142q0 108 78.5 184.5t185.5 76.5q89 0 144 -52t55 -143zM821 1595q57 0 96 43t39 103q0 42 -26 69t-68 27q-57 0 -96 -43.5t-39 -103.5q0 -42 26 -68.5t68 -26.5z" />
    <glyph glyph-name="uring" unicode="&#x16f;" horiz-adv-x="1138" 
d="M881 0h-295q2 40 28 178h-4q-57 -95 -141 -144.5t-180 -49.5q-116 0 -190 71.5t-74 182.5q0 64 12 116l151 713h324l-137 -647q-10 -44 -10 -82q0 -41 23 -68.5t65 -27.5q69 0 117.5 46.5t68.5 137.5l135 641h324l-201 -952q-3 -14 -5.5 -32t-5.5 -43t-5 -40zM926 1417
q0 -105 -77 -182.5t-185 -77.5q-90 0 -145.5 52t-55.5 143q0 108 78.5 184t185.5 76q89 0 144 -52t55 -143zM674 1264q57 0 96 42.5t39 102.5q0 42 -26 69t-68 27q-57 0 -96 -43.5t-39 -103.5q0 -42 26 -68t68 -26z" />
    <glyph glyph-name="Uhungarumlaut" unicode="&#x170;" horiz-adv-x="1290" 
d="M782 473l203 957h338l-201 -945q-54 -257 -204.5 -383.5t-382.5 -126.5q-223 0 -348.5 101t-125.5 286q0 77 23 183l188 885h336l-190 -898q-21 -99 -21 -145q0 -70 40 -112t114 -42q43 0 74.5 9t63 33.5t54.5 74t39 123.5zM672 1520h-185l154 299h281zM1059 1520h-187
l156 299h279z" />
    <glyph glyph-name="uhungarumlaut" unicode="&#x171;" horiz-adv-x="1138" 
d="M881 0h-295q2 40 28 178h-4q-57 -95 -141 -144.5t-180 -49.5q-116 0 -190 71.5t-74 182.5q0 64 12 116l151 713h324l-137 -647q-10 -44 -10 -82q0 -41 23 -68.5t65 -27.5q69 0 117.5 46.5t68.5 137.5l135 641h324l-201 -952q-3 -14 -5.5 -32t-5.5 -43t-5 -40zM530 1188
h-184l154 299h280zM918 1188h-187l156 299h278z" />
    <glyph glyph-name="Uogonek" unicode="&#x172;" horiz-adv-x="1290" 
d="M602 -334l10 -94q-67 -27 -163 -27q-84 0 -136.5 39.5t-52.5 100.5q0 68 41 128.5t133 127.5l51 36q-203 10 -313.5 112t-110.5 273q0 77 23 183l188 885h336l-190 -898q-21 -99 -21 -145q0 -70 40 -112t114 -42q89 0 145 49.5t80 161.5l209 986h338l-201 -945
q-50 -234 -184.5 -364.5t-349.5 -143.5q-88 -84 -122 -139t-34 -102q0 -37 24 -58.5t72 -21.5q36 0 74 10z" />
    <glyph glyph-name="uogonek" unicode="&#x173;" horiz-adv-x="1138" 
d="M795 -334l10 -94q-67 -27 -164 -27q-84 0 -136 39.5t-52 100.5q0 131 168 249l92 66h-127q2 40 28 178h-4q-59 -96 -142 -145t-179 -49q-116 0 -190 71.5t-74 182.5q0 64 12 116l151 713h324l-137 -649q-10 -44 -10 -80q0 -41 23 -68.5t65 -27.5q68 0 117 46.5t69 137.5
l135 641h324l-201 -952q-3 -14 -5.5 -32t-5.5 -43t-5 -40h-76q-180 -164 -180 -264q0 -37 24 -58.5t72 -21.5q36 0 74 10z" />
    <glyph glyph-name="Wcircumflex" unicode="&#x174;" horiz-adv-x="1744" 
d="M1305 0h-394l45 1110h-4l-407 -1110h-393l8 1430h315l-37 -1016h4l377 1016h393l-32 -1016h4l395 1016h301zM1323 1520h-199l-61 182l-133 -182h-217l219 299h295z" />
    <glyph glyph-name="wcircumflex" unicode="&#x175;" horiz-adv-x="1630" 
d="M1188 0h-342l-17 780h-4l-321 -780h-354l-70 1067h317l6 -760h5l297 760h362l8 -760h4l297 760h314zM1198 1188h-199l-61 182l-133 -182h-217l219 299h295z" />
    <glyph glyph-name="Ycircumflex" unicode="&#x176;" horiz-adv-x="1212" 
d="M625 0h-336l114 547l-251 883h366l127 -560l320 560h391l-617 -889zM1042 1520h-198l-62 182l-133 -182h-217l219 299h295z" />
    <glyph glyph-name="ycircumflex" unicode="&#x177;" horiz-adv-x="1062" 
d="M-127 -428l61 240q64 -25 109 -25q126 0 199 215l-162 1065h326l63 -727h4l326 727h323l-618 -1173q-99 -186 -200.5 -267.5t-237.5 -81.5q-107 0 -193 27zM934 1188h-199l-61 182l-133 -182h-217l219 299h295z" />
    <glyph glyph-name="Ydieresis" unicode="&#x178;" horiz-adv-x="1212" 
d="M625 0h-336l114 547l-251 883h366l127 -560l320 560h391l-617 -889zM698 1556h-241l55 259h242zM1051 1556h-242l55 259h242z" />
    <glyph glyph-name="Zacute" unicode="&#x179;" horiz-adv-x="1062" 
d="M850 0h-940l57 274l738 897h-533l55 259h918l-55 -263l-742 -909h555zM764 1520h-193l156 299h287z" />
    <glyph glyph-name="zacute" unicode="&#x17a;" horiz-adv-x="872" 
d="M666 0h-762l55 266l520 559h-389l51 242h740l-56 -264l-512 -561h404zM604 1188h-192l155 299h287z" />
    <glyph glyph-name="Zdotaccent" unicode="&#x17b;" horiz-adv-x="1062" 
d="M850 0h-940l57 274l738 897h-533l55 259h918l-55 -263l-742 -909h555zM821 1556h-241l55 259h242z" />
    <glyph glyph-name="zdotaccent" unicode="&#x17c;" horiz-adv-x="872" 
d="M666 0h-762l55 266l520 559h-389l51 242h740l-56 -264l-512 -561h404zM657 1239h-241l55 258h242z" />
    <glyph glyph-name="Zcaron" unicode="&#x17d;" horiz-adv-x="1062" 
d="M850 0h-940l57 274l738 897h-533l55 259h918l-55 -263l-742 -909h555zM840 1520h-295l-96 299h198l62 -183l133 183h217z" />
    <glyph glyph-name="zcaron" unicode="&#x17e;" horiz-adv-x="872" 
d="M666 0h-762l55 266l520 559h-389l51 242h740l-56 -264l-512 -561h404zM690 1188h-295l-96 299h199l61 -182l133 182h217z" />
    <glyph glyph-name="florin" unicode="&#x192;" horiz-adv-x="1064" 
d="M-125 -414l39 217q53 -30 115 -30q55 0 82.5 44t46.5 138l139 666h-172v227h219l62 280q72 326 370 326q104 0 195 -39l-41 -207q-49 25 -105 25q-92 0 -123 -152l-47 -233h176v-227h-221l-151 -707q-80 -369 -373 -369q-124 0 -211 41z" />
    <glyph glyph-name="Scommaaccent" unicode="&#x218;" horiz-adv-x="1099" 
d="M0 39l80 272q51 -38 129 -62t156 -24q117 0 177 41t60 135q0 59 -42.5 111.5t-139.5 108.5q-149 85 -205.5 175.5t-56.5 190.5q0 220 148.5 343.5t412.5 123.5q165 0 319 -55l-65 -256q-120 69 -258 69q-102 0 -159 -38t-60 -111q-1 -20 2.5 -39t13 -36.5t17.5 -31
t26 -30.5t28.5 -27t36 -27t36.5 -24t41 -25.5t40 -25.5q58 -37 99 -74.5t62.5 -67.5t33 -67t14 -62t2.5 -63q0 -233 -154.5 -360.5t-437.5 -127.5q-197 0 -356 64zM379 -475h-236l115 330h287z" />
    <glyph glyph-name="scommaaccent" unicode="&#x219;" horiz-adv-x="872" 
d="M801 1038l-60 -237q-103 61 -239 61q-65 0 -103.5 -25t-38.5 -67q0 -19 8 -36.5t18.5 -29t34 -26.5t39 -23.5t50.5 -25.5t53 -27q56 -29 92 -62.5t52 -69t21 -63.5t5 -65q0 -176 -119.5 -270.5t-349.5 -94.5q-77 0 -172 17.5t-143 38.5l65 250q76 -38 132.5 -57
t121.5 -19q84 0 122 22.5t40 67.5q0 18 -9.5 36t-22 31t-38 29.5t-42 25t-48.5 25t-45 23.5q-50 27 -83 60t-49 68t-21.5 65t-5.5 65q0 165 122.5 262.5t325.5 97.5q141 0 287 -47zM262 -475h-235l114 330h287z" />
    <glyph glyph-name="uni021A" unicode="&#x21a;" horiz-adv-x="1024" 
d="M528 0h-335l247 1171h-311l55 259h959l-56 -259h-311zM322 -475h-236l115 330h286z" />
    <glyph glyph-name="uni021B" unicode="&#x21b;" horiz-adv-x="796" 
d="M641 240l-47 -228q-58 -28 -207 -28q-130 0 -204 59.5t-74 167.5q0 40 14 115l108 514h-174l47 227h183l47 219l336 100l-68 -319h211l-47 -227h-211l-106 -502q-5 -25 -5 -41q0 -40 23 -60t63 -20t111 23zM260 -475h-235l114 330h287z" />
    <glyph glyph-name="dotlessj" unicode="&#x237;" horiz-adv-x="569" 
d="M-291 -426l51 217q36 -12 68 -12q58 0 83.5 34t41.5 105l244 1149h323l-239 -1130q-31 -148 -85 -235.5t-126 -122t-176 -34.5q-121 0 -185 29z" />
    <glyph glyph-name="circumflex" unicode="&#x2c6;" horiz-adv-x="454" 
d="M623 1188h-199l-62 182l-133 -182h-217l219 299h295z" />
    <glyph glyph-name="caron" unicode="&#x2c7;" horiz-adv-x="454" 
d="M467 1188h-295l-96 299h198l62 -182l133 182h217z" />
    <glyph glyph-name="uni02C9" unicode="&#x2c9;" horiz-adv-x="454" 
d="M631 1251h-602l39 176h602z" />
    <glyph glyph-name="breve" unicode="&#x2d8;" horiz-adv-x="454" 
d="M532 1491h136q-73 -301 -338 -301q-115 0 -180.5 59.5t-65.5 157.5q0 29 10 84h135q-4 -16 -4 -31q0 -106 127 -106q143 0 180 137z" />
    <glyph glyph-name="dotaccent" unicode="&#x2d9;" horiz-adv-x="454" 
d="M449 1239h-242l55 258h242z" />
    <glyph glyph-name="ring" unicode="&#x2da;" horiz-adv-x="454" 
d="M590 1417q0 -105 -77 -182.5t-185 -77.5q-90 0 -145.5 52t-55.5 143q0 108 78.5 184t185.5 76q89 0 144 -52t55 -143zM338 1264q57 0 96 42.5t39 102.5q0 42 -26 69t-68 27q-57 0 -96 -43.5t-39 -103.5q0 -42 26 -68t68 -26z" />
    <glyph glyph-name="ogonek" unicode="&#x2db;" horiz-adv-x="454" 
d="M164 -334l10 -94q-67 -27 -164 -27q-84 0 -136 39.5t-52 100.5q0 77 47.5 138.5t128.5 117.5l102 71h88q-105 -96 -149.5 -156.5t-44.5 -119.5q0 -37 24 -58.5t72 -21.5q36 0 74 10z" />
    <glyph glyph-name="tilde" unicode="&#x2dc;" horiz-adv-x="454" 
d="M547 1466h151q-27 -128 -86 -188.5t-151 -60.5q-64 0 -150 45q-62 28 -88 28q-43 0 -69 -73h-152q26 117 89 183t149 66q57 0 137 -39q10 -4 25.5 -11.5t24.5 -11.5t21 -7.5t23 -3.5q61 0 76 73z" />
    <glyph glyph-name="hungarumlaut" unicode="&#x2dd;" horiz-adv-x="454" 
d="M172 1188h-184l153 299h281zM559 1188h-186l155 299h279z" />
    <glyph glyph-name="uni0394" unicode="&#x394;" horiz-adv-x="1327" 
d="M1225 0h-1301l686 1430h426zM840 301l-56 832h-4l-346 -832h406z" />
    <glyph glyph-name="uni03A9" unicode="&#x3a9;" horiz-adv-x="1378" 
d="M1233 0h-557l47 281q130 117 201 286t71 344q0 58 -10.5 106t-33.5 90.5t-67 66.5t-104 24q-79 0 -142 -48t-100 -126t-56 -168t-19 -182q0 -224 90 -395l-49 -279h-527l50 270h239q-133 195 -133 453q0 220 76.5 384t230.5 257.5t369 93.5q248 0 393.5 -140t145.5 -386
q0 -198 -90.5 -372.5t-260.5 -289.5h285z" />
    <glyph glyph-name="uni03BC" unicode="&#x3bc;" horiz-adv-x="1198" 
d="M1108 244l-31 -238q-86 -22 -178 -22q-103 0 -163 45.5t-60 124.5h-4q-96 -177 -236 -177q-91 0 -123 43h-6q-20 -208 -35 -296l-26 -154h-309l262 1499h329l-92 -551q-16 -86 -16 -153q0 -59 21 -89t73 -30q72 0 123 92.5t80 257.5l82 473h338l-131 -737
q-18 -101 45 -101q20 0 57 13z" />
    <glyph glyph-name="pi" unicode="&#x3c0;" horiz-adv-x="1191" 
d="M1124 240l-47 -238q-72 -14 -139 -14q-63 0 -112 11.5t-91 39t-65 79t-23 124.5q0 41 19 143l75 428h-206l-144 -813h-340l139 823h-131l45 246h1139l-43 -246h-119l-86 -497q-17 -97 56 -97q47 0 73 11z" />
    <glyph glyph-name="uni1E9E" unicode="&#x1e9e;" horiz-adv-x="1398" 
d="M442 39l80 272q39 -39 105.5 -62.5t115.5 -23.5q73 0 118.5 46t45.5 120q0 11 -1 21t-4.5 22t-5 19.5t-8.5 21.5t-9.5 20t-12 23t-12 22t-14.5 25l-15 25q-7 12 -41.5 68t-47.5 81t-28.5 69t-15.5 81q0 106 72.5 189.5t193.5 127.5q-41 6 -112 6q-136 0 -219 -79.5
t-113 -223.5l-192 -909h-336l194 920q33 155 93 259t154 164t209.5 84.5t276.5 24.5q181 0 437 -27l-56 -254q-60 -3 -119 -28t-102 -73.5t-43 -108.5q0 -81 92 -234q7 -11 29 -47.5t31 -52.5t26 -48.5t24.5 -54.5t14 -51t6.5 -55q0 -129 -63.5 -231t-173 -157t-244.5 -55
q-169 0 -330 64z" />
    <glyph glyph-name="uni2010" unicode="&#x2010;" horiz-adv-x="681" 
d="M543 463h-510l51 250h510z" />
    <glyph glyph-name="endash" unicode="&#x2013;" horiz-adv-x="1024" 
d="M973 479h-1024l47 221h1024z" />
    <glyph glyph-name="emdash" unicode="&#x2014;" horiz-adv-x="2048" 
d="M1997 479h-2048l47 221h2048z" />
    <glyph glyph-name="quoteleft" unicode="&#x2018;" horiz-adv-x="532" 
d="M430 1004h-287l230 532h231z" />
    <glyph glyph-name="quoteright" unicode="&#x2019;" horiz-adv-x="532" 
d="M397 1004h-231l174 532h287z" />
    <glyph glyph-name="quotesinglbase" unicode="&#x201a;" horiz-adv-x="532" 
d="M135 -225h-231l174 532h287z" />
    <glyph glyph-name="quotedblleft" unicode="&#x201c;" horiz-adv-x="1064" 
d="M496 1004h-287l229 532h232zM893 1004h-287l230 532h231z" />
    <glyph glyph-name="quotedblright" unicode="&#x201d;" horiz-adv-x="1064" 
d="M465 1004h-232l175 532h286zM862 1004h-231l174 532h287z" />
    <glyph glyph-name="quotedblbase" unicode="&#x201e;" horiz-adv-x="1064" 
d="M203 -225h-232l174 532h287zM600 -225h-231l174 532h286z" />
    <glyph glyph-name="dagger" unicode="&#x2020;" horiz-adv-x="1062" 
d="M514 0h-266l178 842h-293l51 241h293l74 347h266l-74 -347h291l-51 -241h-291z" />
    <glyph glyph-name="daggerdbl" unicode="&#x2021;" horiz-adv-x="1062" 
d="M864 291h-295l-61 -291h-258l61 291h-295l47 227h295l84 393h-295l50 228h295l61 291h258l-61 -291h297l-50 -228h-297l-84 -393h297z" />
    <glyph glyph-name="bullet" unicode="&#x2022;" horiz-adv-x="1024" 
d="M872 754q0 -103 -55.5 -195t-149 -147.5t-198.5 -55.5q-138 0 -226.5 93t-88.5 227q0 160 121.5 277.5t277.5 117.5q135 0 227 -91t92 -226z" />
    <glyph glyph-name="ellipsis" unicode="&#x2026;" horiz-adv-x="2048" 
d="M338 0h-295l63 307h295zM1020 0h-295l63 307h295zM1702 0h-295l63 307h295z" />
    <glyph glyph-name="perthousand" unicode="&#x2030;" horiz-adv-x="1933" 
d="M328 -68h-144l822 1565h145zM334 676q-94 0 -153.5 67t-59.5 181q0 132 43 253t123 199t176 78q94 0 153.5 -67t59.5 -181q0 -99 -25.5 -194.5t-69.5 -170t-109 -120t-138 -45.5zM354 838q36 0 71.5 61t56 145t20.5 156q0 41 -15.5 66.5t-44.5 25.5q-36 0 -71 -60.5
t-55.5 -144.5t-20.5 -157q0 -92 59 -92zM885 -25q-94 0 -153.5 67t-59.5 181q0 132 43 253t123 199.5t176 78.5q94 0 153.5 -67t59.5 -181q0 -133 -42.5 -254t-122.5 -199t-177 -78zM905 137q36 0 71.5 61t56 145.5t20.5 156.5q0 41 -15.5 66.5t-44.5 25.5q-36 0 -71 -60.5
t-55.5 -145t-20.5 -157.5q0 -92 59 -92zM1473 -25q-94 0 -153.5 67t-59.5 181q0 132 43 253t123 199.5t176 78.5q94 0 153.5 -67t59.5 -181q0 -133 -42.5 -254t-122.5 -199t-177 -78zM1493 137q36 0 71 61t55.5 145.5t20.5 156.5q0 41 -15 66.5t-44 25.5q-36 0 -71 -60.5
t-55.5 -145t-20.5 -157.5q0 -92 59 -92z" />
    <glyph glyph-name="guilsinglleft" unicode="&#x2039;" horiz-adv-x="645" 
d="M408 109h-252l-115 432l276 415h271l-289 -434z" />
    <glyph glyph-name="guilsinglright" unicode="&#x203a;" horiz-adv-x="645" 
d="M252 109h-270l288 434l-108 413h252l114 -432z" />
    <glyph glyph-name="fraction" unicode="&#x2044;" horiz-adv-x="342" 
d="M-186 -68h-185l897 1565h185z" />
    <glyph glyph-name="Euro" unicode="&#x20ac;" horiz-adv-x="1064" 
d="M932 303v-291q-65 -23 -116 -30t-130 -7q-241 0 -384 140.5t-152 384.5h-173l50 145h127l12 80q1 13 4 32.5t4 26.5h-166l49 146h148q67 243 238 383.5t395 140.5q95 0 164 -15t141 -48l-96 -267q-97 56 -203 56q-210 0 -297 -250h434l-53 -146h-418q-16 -95 -18 -139
h397l-47 -145h-348q5 -109 70.5 -174.5t170.5 -65.5q119 0 197 43z" />
    <glyph glyph-name="uni20B9" unicode="&#x20b9;" horiz-adv-x="1064" 
d="M731 0h-366l-285 612l39 179h164q65 0 111.5 9.5t88.5 41.5t62 88h-398l39 180h392q-5 139 -205 139h-156l39 181h922l-39 -181h-297q21 -24 31.5 -62.5t7.5 -76.5h229l-39 -180h-223q-80 -314 -432 -314z" />
    <glyph glyph-name="uni20BA" unicode="&#x20ba;" horiz-adv-x="1064" 
d="M35 0l104 502l-166 -74l45 213l166 72l35 164l-164 -72l45 213l164 72l74 340h324l-39 -177l335 156l-43 -213l-335 -154l-37 -165l336 155l-45 -213l-336 -153l-97 -457q61 0 108 24.5t76.5 61.5t54 98.5t38 115t31.5 131.5q7 31 10 46h303q-18 -118 -42 -210.5
t-60.5 -175t-87 -140.5t-118.5 -101t-158 -63.5t-202 -20.5q-140 0 -319 25z" />
    <glyph glyph-name="uni20BC" unicode="&#x20bc;" horiz-adv-x="1536" 
d="M1356 0h-318l31 123q24 94 44 232.5t20 219.5q0 77 -5 130t-19.5 108.5t-46.5 89t-81 45.5l-170 -805h-317l178 805q-44 -12 -85 -41.5t-73.5 -65t-64 -91t-54.5 -102.5t-47 -117t-38.5 -117.5t-32.5 -120.5t-26 -109t-22 -100l-18 -84h-317l28 129q34 151 78 285
t114 271.5t154 239.5t201.5 174t253.5 89l51 242h311l-51 -242q90 -15 159.5 -58.5t113 -103.5t71 -140t38.5 -161.5t11 -173.5q0 -218 -49 -447z" />
    <glyph glyph-name="ruble" unicode="&#x20bd;" horiz-adv-x="1046" 
d="M694 266h-286l-58 -266h-323l55 266h-148l39 185h148l24 118h-147l37 185h149l146 676h342q197 0 313.5 -88.5t116.5 -262.5q0 -234 -141 -372t-377 -138h-113l-25 -118h287zM510 754h70q111 0 165 81t54 209q0 74 -37.5 114t-106.5 40h-51z" />
    <glyph glyph-name="afii61289" unicode="&#x2113;" horiz-adv-x="1024" 
d="M723 262l70 -170q-90 -65 -176 -93t-185 -28q-134 0 -209.5 65.5t-75.5 180.5q0 27 21 139l-127 -92l-76 166l254 168l94 455q44 213 162.5 318.5t276.5 105.5q114 0 191 -76.5t77 -186.5q0 -169 -132 -332.5t-401 -338.5l-36 -148q-19 -77 -19 -127q0 -45 24.5 -67.5
t63.5 -22.5q72 0 203 84zM621 1155l-80 -362q114 95 177.5 204t63.5 201q0 39 -17 64.5t-46 25.5q-68 0 -98 -133z" />
    <glyph glyph-name="trademark" unicode="&#x2122;" horiz-adv-x="2048" 
d="M520 578h-213l148 688h-240l35 164h692l-35 -164h-239zM1919 578h-197l129 602h-4l-350 -602h-151l-93 602h-4l-129 -602h-196l182 852h289l90 -539l315 539h301z" />
    <glyph glyph-name="Omega" unicode="&#x2126;" horiz-adv-x="1378" 
d="M1233 0h-557l47 281q130 117 201 286t71 344q0 58 -10.5 106t-33.5 90.5t-67 66.5t-104 24q-79 0 -142 -48t-100 -126t-56 -168t-19 -182q0 -224 90 -395l-49 -279h-527l50 270h239q-133 195 -133 453q0 220 76.5 384t230.5 257.5t369 93.5q248 0 393.5 -140t145.5 -386
q0 -198 -90.5 -372.5t-260.5 -289.5h285z" />
    <glyph glyph-name="estimated" unicode="&#x212e;" horiz-adv-x="1228" 
d="M993 285l72 -43q-93 -149 -200 -213t-267 -64q-233 0 -380.5 161.5t-147.5 403.5q0 161 66.5 290t187.5 202.5t274 73.5q233 0 380 -154.5t150 -411.5h-827v-370q121 -121 297 -121q129 0 223 58.5t172 187.5zM897 604v297q-129 123 -303 123q-170 0 -293 -123v-297h596z
" />
    <glyph glyph-name="partialdiff" unicode="&#x2202;" horiz-adv-x="1171" 
d="M811 809v16q0 210 -75 327.5t-206 117.5q-70 0 -127 -28t-120 -81l-144 164q94 79 184.5 115.5t194.5 36.5q183 0 311.5 -93t191 -258.5t62.5 -392.5q0 -371 -133.5 -565.5t-394.5 -194.5q-207 0 -338 133.5t-131 342.5q0 200 129 329t322 129q143 0 274 -98zM809 524v74
q-104 111 -231 111q-104 0 -168 -76.5t-64 -198.5q0 -116 58.5 -189t154.5 -73q108 0 176.5 98.5t73.5 253.5z" />
    <glyph glyph-name="Delta" unicode="&#x2206;" horiz-adv-x="1327" 
d="M1225 0h-1301l686 1430h426zM840 301l-56 832h-4l-346 -832h406z" />
    <glyph glyph-name="product" unicode="&#x220f;" horiz-adv-x="1533" 
d="M1419 -438h-270v1790h-764v-1790h-272v2048h1306v-2048z" />
    <glyph glyph-name="summation" unicode="&#x2211;" horiz-adv-x="1378" 
d="M1323 -438h-1268v225l604 811l-579 786v226h1218v-258h-856l539 -752l-575 -780h917v-258z" />
    <glyph glyph-name="minus" unicode="&#x2212;" horiz-adv-x="1228" 
d="M1092 412h-1037v213h1037v-213z" />
    <glyph glyph-name="uni2215" unicode="&#x2215;" horiz-adv-x="342" 
d="M-186 -68h-185l897 1565h185z" />
    <glyph glyph-name="uni2219" unicode="&#x2219;" horiz-adv-x="532" 
d="M217 412q-65 0 -103 37t-38 98q0 77 51 128.5t125 51.5q65 0 103 -37t38 -98q0 -77 -51 -128.5t-125 -51.5z" />
    <glyph glyph-name="radical" unicode="&#x221a;" horiz-adv-x="1167" 
d="M741 -438h-249l-302 620l-108 -53l-100 215l350 160l239 -522l332 1628h285z" />
    <glyph glyph-name="infinity" unicode="&#x221e;" horiz-adv-x="1736" 
d="M827 379q-108 -131 -197 -182.5t-196 -51.5q-171 0 -277 112.5t-106 291.5q0 177 102.5 288t272.5 111q108 0 200.5 -56t200.5 -194q103 135 197.5 192.5t204.5 57.5q167 0 271 -110t104 -287q0 -181 -104 -295.5t-273 -114.5q-105 0 -202.5 58t-197.5 180zM965 541
q74 -87 136 -125.5t126 -38.5q69 0 111 47t42 121q0 75 -43.5 122.5t-115.5 47.5q-115 0 -256 -174zM688 541q-146 172 -262 172q-66 0 -109 -47.5t-43 -120.5q0 -74 43 -120t115 -46q126 0 256 162z" />
    <glyph glyph-name="integral" unicode="&#x222b;" horiz-adv-x="1286" 
d="M467 39v1028q0 62 2.5 110.5t11 107t23 102t41 87t63 71t90 44.5t121.5 17q96 0 170 -47.5t74 -120.5q0 -57 -34.5 -94t-90.5 -37q-40 0 -67 21t-46 81q-17 59 -34 71q-7 5 -15 5q-39 0 -39 -82q0 -52 6.5 -160.5t6.5 -148.5v-1014q0 -271 -85.5 -393.5t-254.5 -122.5
q-102 0 -177 51.5t-75 130.5q0 50 37 83.5t92 33.5q19 0 32.5 -3.5t30 -15.5t29.5 -38.5t22 -67.5q12 -53 39 -53q20 0 29.5 15t9.5 60q0 44 -6 143.5t-6 135.5z" />
    <glyph glyph-name="approxequal" unicode="&#x2248;" horiz-adv-x="1214" 
d="M952 508h176q-19 -190 -101.5 -291.5t-217.5 -101.5q-86 0 -291 73q-164 58 -221 58q-47 0 -79 -32.5t-42 -92.5h-174q12 178 99 283.5t221 105.5q36 0 81.5 -10t71 -18.5t90.5 -30.5t98.5 -33t84.5 -22t88 -11q93 0 116 123zM952 971h176q-19 -190 -101.5 -291.5
t-217.5 -101.5q-86 0 -291 73q-164 58 -221 58q-47 0 -79 -32.5t-42 -92.5h-174q12 178 99 283.5t221 105.5q12 0 24.5 -1t27 -3.5t24.5 -4t28 -6.5t25 -7t28.5 -9t26.5 -8.5t30 -10.5t29 -10q189 -65 271 -65q93 0 116 123z" />
    <glyph glyph-name="notequal" unicode="&#x2260;" horiz-adv-x="1214" 
d="M1092 188h-627l-180 -294l-152 75l135 219h-213v213h344l146 234h-490v213h621l215 348l149 -76l-168 -272h220v-213h-351l-145 -234h496v-213z" />
    <glyph glyph-name="lessequal" unicode="&#x2264;" horiz-adv-x="1214" 
d="M1112 233l-1092 345v264l1092 338v-277l-725 -192l725 -201v-277zM1112 -88h-1092v264h1092v-264z" />
    <glyph glyph-name="greaterequal" unicode="&#x2265;" horiz-adv-x="1214" 
d="M1153 578l-1092 -345v277l725 201l-725 192v277l1092 -338v-264zM1153 -88h-1092v264h1092v-264z" />
    <glyph glyph-name="lozenge" unicode="&#x25ca;" horiz-adv-x="1214" 
d="M727 -72h-244l-377 801l379 801h242l381 -801zM606 193l230 536l-230 535l-229 -535z" />
    <glyph glyph-name="grave.cap" unicode="&#xe300;" horiz-adv-x="606" 
d="M633 1520h-182l-168 299h276z" />
    <glyph glyph-name="acute.cap" unicode="&#xe301;" horiz-adv-x="606" 
d="M500 1520h-193l156 299h287z" />
    <glyph glyph-name="circumflex.cap" unicode="&#xe302;" horiz-adv-x="606" 
d="M768 1520h-199l-61 182l-133 -182h-217l219 299h295z" />
    <glyph glyph-name="caron.cap" unicode="&#xe303;" horiz-adv-x="606" 
d="M612 1520h-295l-96 299h199l61 -183l133 183h217z" />
    <glyph glyph-name="tilde.cap" unicode="&#xe304;" horiz-adv-x="454" 
d="M692 1798h152q-54 -250 -238 -250q-63 0 -149 45q-64 29 -88 29q-43 0 -70 -74h-152q26 117 89 183.5t149 66.5q57 0 137 -39q10 -4 31.5 -15t35 -15.5t27.5 -4.5q61 0 76 74z" />
    <glyph glyph-name="dieresis.cap" unicode="&#xe305;" horiz-adv-x="606" 
d="M416 1556h-242l55 259h242zM768 1556h-242l56 259h241z" />
    <glyph glyph-name="macron.cap" unicode="&#xe306;" horiz-adv-x="606" 
d="M778 1583h-602l37 176h602z" />
    <glyph glyph-name="breve.cap" unicode="&#xe307;" horiz-adv-x="606" 
d="M678 1819h135q-74 -301 -338 -301q-115 0 -180.5 59.5t-65.5 157.5q0 36 11 84h135q-4 -28 -4 -31q0 -52 32.5 -79.5t94.5 -27.5q142 0 180 138z" />
    <glyph glyph-name="ring.cap" unicode="&#xe308;" horiz-adv-x="454" 
d="M737 1749q0 -105 -77 -182.5t-185 -77.5q-90 0 -145.5 52t-55.5 142q0 108 79 184.5t186 76.5q89 0 143.5 -52t54.5 -143zM485 1595q57 0 96.5 43t39.5 103q0 42 -26.5 69t-68.5 27q-57 0 -96 -43.5t-39 -103.5q0 -42 26 -68.5t68 -26.5z" />
    <glyph glyph-name="hungarumlaut.cap" unicode="&#xe309;" horiz-adv-x="606" 
d="M317 1520h-184l154 299h280zM705 1520h-187l156 299h278z" />
    <glyph glyph-name="dotaccent.cap" unicode="&#xe30a;" horiz-adv-x="606" 
d="M592 1556h-242l56 259h241z" />
    <glyph glyph-name="caron.alt" unicode="&#xe30b;" horiz-adv-x="569" 
d="M293 1137h-180l86 350h252z" />
    <glyph glyph-name="commaaccent" unicode="&#xe30c;" horiz-adv-x="569" 
d="M135 -475h-235l114 330h287z" />
    <glyph glyph-name="commaaccent.alt" unicode="&#xe30d;" horiz-adv-x="569" 
d="M471 1188h-276l157 299h232z" />
    <glyph glyph-name="uniF8FF" unicode="&#xf8ff;" horiz-adv-x="1048" 
d="M1049 1470v-1470h-1049v1470h1049zM102 102h844v1264h-844v-1264zM555 528v-49h-94v51q0 95 23.5 147t103.5 134q35 35 50 52.5t28.5 46.5t13.5 61q0 72 -46.5 123t-109.5 51q-70 0 -113 -49.5t-55 -145.5l-102 17q12 136 83 208t193 72q111 0 182.5 -74t71.5 -194
q0 -70 -28.5 -126t-102.5 -122q-62 -55 -80 -93t-18 -110zM569 377v-137h-114v137h114z" />
    </font>
</defs>
</svg>
