<?xml version="1.0" standalone="no"?>
<!DOCTYPE svg PUBLIC "-//W3C//DTD SVG 1.1//EN" "http://www.w3.org/Graphics/SVG/1.1/DTD/svg11.dtd" >
<svg xmlns="http://www.w3.org/2000/svg" xmlns:xlink="http://www.w3.org/1999/xlink" version="1.1">
<metadata>
Created by FontForge 20201107 at Sat Aug  3 09:41:43 2024
 By 
Copyright (c) 2014 - 2016 Monotype Imaging Inc. All rights reserved.
</metadata>
<defs>
<font id="FrutigerLTPro-LightCnIta" horiz-adv-x="948" >
  <font-face 
    font-family="Frutiger LT Pro 47 Light Cn"
    font-weight="300"
    font-style="italic"
    font-stretch="condensed"
    units-per-em="2048"
    panose-1="2 11 4 6 2 2 4 9 2 4"
    ascent="1536"
    descent="-512"
    x-height="1044"
    cap-height="1430"
    bbox="-330 -512 2030 1882"
    underline-thickness="102"
    underline-position="-255"
    slope="-12"
    unicode-range="U+000D-FB02"
  />
<missing-glyph horiz-adv-x="1048" 
d="M1049 0h-1049v1470h1049v-1470zM946 102v1264h-844v-1264h844zM555 479h-94l-4 39q0 108 25.5 163.5t105.5 129.5q46 42 69 78.5t23 81.5q0 72 -46.5 123t-109.5 51q-70 0 -113 -49.5t-55 -145.5l-102 17q12 136 83 208t193 72q111 0 182.5 -74t71.5 -194
q0 -75 -29.5 -128.5t-103.5 -119.5q-72 -64 -84 -98t-12 -154zM569 240h-114v137h114v-137z" />
    <glyph glyph-name="fi" unicode="fi" 
d="M160 0h-119l197 934h-162l24 110h162l49 244q54 273 293 273q50 0 111 -11l-25 -118q-44 18 -96 18q-87 0 -131 -72q-9 -14 -18 -40t-17 -60.5t-13.5 -61t-12 -60.5t-7.5 -40l-14 -72h184l-24 -110h-185zM924 1276h-144l39 184h144zM647 0h-119l222 1044h118z" />
    <glyph glyph-name="fl" unicode="fl" 
d="M160 0h-119l197 934h-162l24 110h162l49 244q54 273 293 273q50 0 111 -11l-25 -118q-44 18 -96 18q-87 0 -131 -72q-9 -14 -18 -40t-17 -60.5t-13.5 -61t-12 -60.5t-7.5 -40l-14 -72h184l-24 -110h-185zM645 0h-119l326 1536h119z" />
    <glyph glyph-name=".notdef" horiz-adv-x="1048" 
d="M1049 0h-1049v1470h1049v-1470zM946 102v1264h-844v-1264h844zM555 479h-94l-4 39q0 108 25.5 163.5t105.5 129.5q46 42 69 78.5t23 81.5q0 72 -46.5 123t-109.5 51q-70 0 -113 -49.5t-55 -145.5l-102 17q12 136 83 208t193 72q111 0 182.5 -74t71.5 -194
q0 -75 -29.5 -128.5t-103.5 -119.5q-72 -64 -84 -98t-12 -154zM569 240h-114v137h114v-137z" />
    <glyph glyph-name=".null" horiz-adv-x="0" 
 />
    <glyph glyph-name="nonmarkingreturn" horiz-adv-x="682" 
 />
    <glyph glyph-name="NULL" horiz-adv-x="0" 
 />
    <glyph glyph-name="NULL" horiz-adv-x="0" 
 />
    <glyph glyph-name="CR" unicode="&#xd;" horiz-adv-x="491" 
 />
    <glyph glyph-name="space" unicode=" " horiz-adv-x="491" 
 />
    <glyph glyph-name="exclam" unicode="!" horiz-adv-x="720" 
d="M338 352h-111l209 1078h152zM285 0h-152l39 184h152z" />
    <glyph glyph-name="quotedbl" unicode="&#x22;" horiz-adv-x="983" 
d="M483 1081h-118l96 455h119zM774 1081h-119l97 455h118z" />
    <glyph glyph-name="numbersign" unicode="#" horiz-adv-x="983" 
d="M573 0h-102l94 455h-256l-94 -455h-102l94 455h-166v102h186l68 315h-178v103h198l95 455h102l-94 -455h256l94 455h102l-94 -455h166v-103h-186l-68 -315h186v-102h-206zM586 557l67 315h-256l-67 -315h256z" />
    <glyph glyph-name="dollar" unicode="$" horiz-adv-x="983" 
d="M334 -190h-74l37 176h-8q-170 0 -260 67l39 148q93 -97 241 -97h13l127 588q-122 95 -170 177.5t-48 172.5q0 167 102.5 275.5t272.5 122.5l35 164h74l-35 -160q128 0 223 -45l-37 -139q-53 38 -101 51.5t-110 13.5l-112 -528q114 -95 166.5 -180t52.5 -179
q0 -173 -105 -295.5t-286 -154.5zM481 844l99 477q-98 -19 -155.5 -90.5t-57.5 -171.5q0 -116 114 -215zM510 647l-113 -532q96 15 163 108.5t67 202.5q0 114 -117 221z" />
    <glyph glyph-name="percent" unicode="%" horiz-adv-x="1669" 
d="M444 -68h-110l887 1565h110zM426 670q-102 0 -161.5 67t-59.5 183q0 91 24 182t67 168t113 125.5t154 48.5q96 0 155.5 -68.5t59.5 -181.5q0 -124 -41.5 -242.5t-124.5 -200t-186 -81.5zM430 776q59 0 106.5 42t74.5 106.5t41 132t14 127.5q0 74 -30 113.5t-85 39.5
q-73 0 -128 -67.5t-80.5 -161t-25.5 -190.5q0 -68 32.5 -105t80.5 -37zM1110 -14q-102 0 -161.5 67t-59.5 183q0 91 24 182t67 168t113 125.5t154 48.5q96 0 155.5 -68.5t59.5 -181.5q0 -124 -41.5 -242.5t-124.5 -200t-186 -81.5zM1114 92q59 0 106.5 42t74.5 106.5t41 132
t14 127.5q0 74 -30 113.5t-85 39.5q-73 0 -128 -68t-80.5 -161.5t-25.5 -190.5q0 -68 32.5 -104.5t80.5 -36.5z" />
    <glyph glyph-name="ampersand" unicode="&#x26;" horiz-adv-x="1175" 
d="M985 0h-154l-79 172q-96 -99 -185 -142.5t-192 -43.5q-157 0 -249.5 89.5t-92.5 229.5q0 179 93 302t294 208q-92 148 -92 287q0 156 93 249t251 93q112 0 189 -80.5t77 -175.5q0 -123 -82 -220t-278 -200l204 -408q53 68 108 199t87 248h119q-47 -172 -113.5 -316
t-140.5 -237zM528 862q147 74 212 150t65 170q0 60 -41.5 101.5t-104.5 41.5q-90 0 -147 -64t-57 -163q0 -93 73 -236zM698 266l-231 455q-160 -78 -231.5 -172.5t-71.5 -216.5q0 -102 58 -165t163 -63q78 0 159.5 42t153.5 120z" />
    <glyph glyph-name="quotesingle" unicode="'" horiz-adv-x="491" 
d="M383 1081h-119l96 455h119z" />
    <glyph glyph-name="parenleft" unicode="(" horiz-adv-x="530" 
d="M262 -274l-96 -13q-121 319 -121 627q0 563 500 1208l102 -12q-85 -129 -141.5 -220.5t-126.5 -223.5t-111 -243.5t-69.5 -248.5t-28.5 -270q0 -144 24 -284.5t68 -319.5z" />
    <glyph glyph-name="parenright" unicode=")" horiz-adv-x="530" 
d="M-51 -287l-103 13q61 92 101.5 156t95.5 157.5t91 167t75.5 168.5t62 180t37.5 183t15 194q0 241 -93 604l97 12q121 -311 121 -626q0 -281 -121.5 -578.5t-378.5 -630.5z" />
    <glyph glyph-name="asterisk" unicode="*" horiz-adv-x="983" 
d="M799 954l-113 -59l-98 227l-152 -225l-100 59l180 228l-235 80l55 118l219 -108l12 262h127l-45 -262l244 108l27 -118l-248 -80z" />
    <glyph glyph-name="plus" unicode="+" horiz-adv-x="1228" 
d="M637 0h-102v467h-467v102h467v467h102v-467h467v-102h-467v-467z" />
    <glyph glyph-name="comma" unicode="," horiz-adv-x="491" 
d="M23 -270h-113l153 454h146z" />
    <glyph glyph-name="hyphen" unicode="-" horiz-adv-x="606" 
d="M469 512h-418l25 119h418z" />
    <glyph glyph-name="period" unicode="." horiz-adv-x="491" 
d="M174 0h-160l41 201h160z" />
    <glyph glyph-name="slash" unicode="/" horiz-adv-x="530" 
d="M-27 -14h-106l688 1458h107z" />
    <glyph glyph-name="zero" unicode="0" horiz-adv-x="983" 
d="M356 -14q-141 0 -220 104t-79 293q0 96 15.5 208.5t45 232t78.5 230t110 198t145 140t178 52.5q142 0 220.5 -105t78.5 -292q0 -227 -76 -492q-76 -268 -206 -418.5t-290 -150.5zM360 104q73 0 139 52.5t112.5 137.5t84.5 188t60.5 210t34.5 197.5t12 154.5
q0 130 -48 205.5t-132 75.5q-85 0 -160 -73t-125 -184t-86.5 -241.5t-53 -245t-16.5 -196.5q0 -130 47.5 -205.5t130.5 -75.5z" />
    <glyph glyph-name="one" unicode="1" horiz-adv-x="983" 
d="M475 0h-127l266 1270l-215 -197l-69 90l317 267h131z" />
    <glyph glyph-name="two" unicode="2" horiz-adv-x="983" 
d="M694 0h-704l16 125l182 182q226 226 330 344q62 70 103 123t79.5 116.5t57 126.5t18.5 128q0 85 -49 132.5t-141 47.5q-126 0 -283 -113l8 142q72 49 139 69.5t148 20.5q142 0 226.5 -82.5t86.5 -212.5q1 -63 -16 -127.5t-50.5 -126.5t-69 -114.5t-86 -110.5t-85.5 -95
t-83 -85l-19 -19l-348 -352h565z" />
    <glyph glyph-name="three" unicode="3" horiz-adv-x="983" 
d="M-41 43l35 139q37 -28 114 -53t136 -25q174 0 281.5 96t107.5 255q0 102 -76 164.5t-195 62.5h-110l20 119q247 1 370.5 86t123.5 246q0 87 -58.5 139.5t-156.5 52.5q-147 0 -277 -84l15 135q127 68 270 68q159 0 249.5 -82.5t90.5 -222.5q0 -142 -86.5 -247t-243.5 -149
v-4q91 -26 145 -100.5t54 -173.5q0 -221 -146 -350t-389 -129q-86 0 -162 16t-112 41z" />
    <glyph glyph-name="four" unicode="4" horiz-adv-x="983" 
d="M606 0h-127l72 342h-563l20 129l733 959h168l-207 -969h162l-24 -119h-162zM575 461l179 833h-4l-627 -833h452z" />
    <glyph glyph-name="five" unicode="5" horiz-adv-x="983" 
d="M35 41l35 137q48 -31 116 -52.5t123 -21.5q175 0 282 119.5t107 313.5q0 110 -65 170.5t-182 60.5q-113 0 -248 -51h-10l151 713h608l-24 -119h-490l-96 -445q52 21 127 21q169 0 268 -96t99 -252q0 -249 -144 -401t-389 -152q-152 0 -268 55z" />
    <glyph glyph-name="six" unicode="6" horiz-adv-x="983" 
d="M975 1405l-41 -143q-88 63 -209 63q-177 0 -311.5 -162.5t-202.5 -457.5h4q63 97 147.5 148.5t178.5 51.5q140 0 221.5 -90.5t81.5 -241.5q0 -150 -62 -284.5t-174 -218.5t-246 -84q-151 0 -235 96.5t-84 263.5q0 81 12.5 177t39.5 202t65 208t95 195t124 163
t155.5 111.5t186.5 41.5q144 0 254 -39zM367 104q96 0 176 67t123 171t43 217q0 112 -50 169.5t-147 57.5q-96 0 -175 -67t-121 -168.5t-42 -210.5q0 -107 54 -171.5t139 -64.5z" />
    <glyph glyph-name="seven" unicode="7" horiz-adv-x="983" 
d="M254 0h-148l740 1311h-586l25 119h712l-22 -125z" />
    <glyph glyph-name="eight" unicode="8" horiz-adv-x="983" 
d="M618 741q213 -116 213 -307q0 -192 -135 -320t-334 -128q-165 0 -260.5 90t-95.5 243q0 154 97 269.5t270 169.5q-172 109 -172 293q0 164 121 278.5t296 114.5q149 0 239.5 -84t90.5 -207q0 -258 -330 -412zM524 799q140 66 212.5 155t72.5 187q0 79 -55.5 131.5
t-143.5 52.5q-114 0 -195 -79.5t-81 -196.5q0 -79 46.5 -144t143.5 -106zM479 696q-154 -46 -244 -146.5t-90 -225.5q0 -94 63.5 -157t164.5 -63q142 0 230.5 89.5t88.5 230.5q0 165 -213 272z" />
    <glyph glyph-name="nine" unicode="9" horiz-adv-x="983" 
d="M774 725h-4q-136 -201 -326 -201q-140 0 -221.5 91t-81.5 245q0 150 63 284t175 217t244 83q153 0 236 -97.5t83 -271.5q0 -225 -90 -500q-93 -281 -244 -435t-350 -154q-138 0 -248 39l41 143q86 -64 209 -64q177 0 311.5 163t202.5 458zM471 643q75 0 140.5 41t108 106
t67 143.5t24.5 156.5q0 110 -55 172.5t-138 62.5q-92 0 -172 -65.5t-125 -170t-45 -219.5q0 -109 50 -168t145 -59z" />
    <glyph glyph-name="colon" unicode=":" horiz-adv-x="491" 
d="M352 844h-159l43 200h159zM174 0h-160l41 201h160z" />
    <glyph glyph-name="semicolon" unicode=";" horiz-adv-x="491" 
d="M352 844h-159l43 200h159zM23 -270h-113l153 454h146z" />
    <glyph glyph-name="less" unicode="&#x3c;" horiz-adv-x="1228" 
d="M1092 -14l-1037 477v110l1037 478v-111l-910 -422l910 -422v-110z" />
    <glyph glyph-name="equal" unicode="=" horiz-adv-x="1228" 
d="M1092 666h-1037v102h1037v-102zM1092 268h-1037v103h1037v-103z" />
    <glyph glyph-name="greater" unicode="&#x3e;" horiz-adv-x="1228" 
d="M1133 463l-1037 -477v110l910 422l-910 422v111l1037 -478v-110z" />
    <glyph glyph-name="question" unicode="?" horiz-adv-x="909" 
d="M397 350h-118l10 62q8 38 18.5 69.5t28.5 64t29.5 52.5t41 56t42.5 50.5t54.5 59.5t57.5 63q93 100 124.5 167t31.5 151q0 81 -47 130.5t-131 49.5q-64 0 -113 -15t-123 -53l14 140q103 47 228 47q141 0 226 -80.5t85 -210.5q0 -105 -44.5 -190t-145.5 -189
q-47 -48 -65.5 -67.5t-56 -62t-55 -69.5t-40.5 -66.5t-34.5 -78t-17.5 -80.5zM340 0h-152l39 184h152z" />
    <glyph glyph-name="at" unicode="@" horiz-adv-x="1638" 
d="M1362 342h111q-128 -181 -305.5 -268.5t-430.5 -87.5q-186 0 -334 81t-232.5 229t-84.5 337q0 156 64.5 304.5t172.5 259.5t259 179t313 68q191 0 342 -66.5t237.5 -190.5t86.5 -284q0 -69 -24 -150.5t-69.5 -160t-103.5 -143t-134.5 -104.5t-154.5 -40q-74 0 -119 31.5
t-45 87.5v10q-79 -73 -136.5 -101t-127.5 -28q-113 0 -177 64.5t-64 179.5q0 76 24.5 159t72 159.5t109 138t142.5 98.5t166 37q80 0 138 -44t70 -116h7l59 127h102l-219 -483q-6 -13 -14.5 -31.5t-13 -28.5t-11 -23.5t-9.5 -21.5t-7.5 -17.5t-6.5 -15.5t-4 -13t-2.5 -12
t-0.5 -9q0 -54 82 -54q72 0 142 51.5t118 128t78 164t30 160.5q0 137 -73.5 239.5t-200 155t-289.5 52.5q-183 0 -346 -97t-262 -262.5t-99 -353.5q0 -250 153 -403.5t402 -153.5q207 0 358 65t261 197zM653 399q73 0 148.5 50.5t131 125.5t91 163t35.5 161q0 62 -42 105
t-102 43q-75 0 -150.5 -47t-131 -119t-90.5 -161t-35 -169q0 -71 36.5 -111.5t108.5 -40.5z" />
    <glyph glyph-name="A" unicode="A" horiz-adv-x="1138" 
d="M961 0h-127l-46 393h-569l-207 -393h-137l772 1430h135zM776 512l-82 782h-4l-407 -782h493z" />
    <glyph glyph-name="B" unicode="B" horiz-adv-x="1024" 
d="M354 0h-342l303 1430h271q158 0 254 -85.5t96 -222.5q0 -140 -73 -240.5t-216 -140.5l-2 -4q93 -29 146 -100.5t53 -169.5q0 -217 -137.5 -342t-352.5 -125zM309 801h180q141 0 227.5 85t86.5 226q0 96 -60.5 147.5t-158.5 51.5h-166zM164 119h194q159 0 255 90t96 252
q0 101 -65 161t-167 60h-194z" />
    <glyph glyph-name="C" unicode="C" horiz-adv-x="1089" 
d="M842 168l-23 -137q-113 -45 -237 -45q-234 0 -366 136.5t-132 385.5q0 134 31.5 267.5t95.5 254t153 213t213 147t265 54.5q72 0 144 -13.5t110 -33.5l-35 -144q-83 70 -230 70q-134 0 -250 -68.5t-194 -182t-122 -260.5t-44 -304q0 -193 98 -298.5t263 -105.5
q129 0 260 64z" />
    <glyph glyph-name="D" unicode="D" horiz-adv-x="1155" 
d="M334 0h-322l303 1430h228q255 0 395.5 -132t140.5 -380q0 -213 -56.5 -387.5t-156.5 -290t-236 -178t-296 -62.5zM164 119h166q133 0 244.5 52t193.5 151t128 251t46 342q0 396 -420 396h-104z" />
    <glyph glyph-name="E" unicode="E" horiz-adv-x="909" 
d="M641 0h-629l303 1430h607l-25 -119h-479l-109 -508h457l-27 -119h-456l-119 -565h502z" />
    <glyph glyph-name="F" unicode="F" horiz-adv-x="833" 
d="M139 0h-127l303 1430h584l-25 -119h-456l-109 -508h434l-26 -119h-434z" />
    <glyph glyph-name="G" unicode="G" horiz-adv-x="1214" 
d="M811 147l107 502h-254l24 119h381l-149 -705q-153 -77 -320 -77q-245 0 -380.5 144.5t-135.5 399.5q0 173 58 338t157 292.5t244 205.5t307 78q80 0 165 -19t148 -51l-35 -139q-43 37 -124.5 63.5t-157.5 26.5q-113 0 -214 -47.5t-175 -127t-128.5 -181.5t-82 -214.5
t-27.5 -222.5q0 -206 99 -317t288 -111q131 0 205 43z" />
    <glyph glyph-name="H" unicode="H" horiz-adv-x="1138" 
d="M823 0h-127l144 684h-557l-144 -684h-127l303 1430h127l-133 -627h557l133 627h127z" />
    <glyph glyph-name="I" unicode="I" horiz-adv-x="454" 
d="M139 0h-127l303 1430h127z" />
    <glyph glyph-name="J" unicode="J" horiz-adv-x="606" 
d="M-109 0l27 133q39 -20 88 -20q107 0 157.5 59t84.5 221l219 1037h127l-229 -1080q-42 -196 -129 -280t-232 -84q-59 0 -113 14z" />
    <glyph glyph-name="K" unicode="K" horiz-adv-x="1024" 
d="M868 0h-157l-420 700h-4l-148 -700h-127l303 1430h127l-133 -627h4l633 627h166l-713 -691z" />
    <glyph glyph-name="L" unicode="L" horiz-adv-x="796" 
d="M604 0h-592l303 1430h127l-278 -1311h465z" />
    <glyph glyph-name="M" unicode="M" horiz-adv-x="1515" 
d="M1200 0h-119l279 1311h-4l-701 -1311h-98l-143 1311h-4l-279 -1311h-119l303 1430h193l133 -1242h4l658 1242h200z" />
    <glyph glyph-name="N" unicode="N" horiz-adv-x="1214" 
d="M899 0h-162l-336 1262h-4l-266 -1262h-119l303 1430h160l334 -1270h4l270 1270h119z" />
    <glyph glyph-name="O" unicode="O" horiz-adv-x="1216" 
d="M469 -14q-185 0 -289 119t-104 327q0 150 29.5 296.5t88 275t138.5 227.5t187.5 156t228.5 57q187 0 290 -120t103 -331q0 -142 -28 -284.5t-85 -272.5t-135.5 -230.5t-188.5 -160t-235 -59.5zM473 104q83 0 158 38t132.5 103t104 152t76.5 186.5t46 204t16 205.5
q0 155 -70.5 243.5t-194.5 88.5q-99 0 -186 -55t-149 -145.5t-106.5 -206.5t-66.5 -239.5t-22 -242.5q0 -155 69.5 -243.5t192.5 -88.5z" />
    <glyph glyph-name="P" unicode="P" 
d="M139 0h-127l303 1430h244q181 0 284 -90t103 -248q0 -216 -136 -342.5t-359 -126.5h-181zM295 741h145q181 0 276 87.5t95 256.5q0 108 -69 167t-187 59h-137z" />
    <glyph glyph-name="Q" unicode="Q" horiz-adv-x="1216" 
d="M866 -262h-153l-172 252q-32 -4 -64 -4q-195 0 -298 118.5t-103 356.5q0 67 10.5 148.5t35 177t60.5 187t91.5 177.5t123 150.5t159.5 103.5t196 39q184 0 286.5 -120.5t102.5 -330.5q0 -208 -59 -408t-169 -351t-249 -207zM473 104q110 0 202 61.5t151.5 158t101.5 217
t60 235.5t18 217q0 155 -70.5 243.5t-194.5 88.5q-107 0 -198 -61t-150.5 -156.5t-102 -215.5t-61 -236t-18.5 -220q0 -155 69.5 -243.5t192.5 -88.5z" />
    <glyph glyph-name="R" unicode="R" horiz-adv-x="1024" 
d="M805 0h-133l-86 502q-14 84 -46.5 124t-93.5 40h-165l-142 -666h-127l303 1430h267q160 0 258 -81.5t98 -220.5q0 -160 -88.5 -269t-253.5 -142v-4q43 -18 68 -50t36 -92zM305 784h180q134 0 226 95.5t92 240.5q0 94 -63.5 142.5t-170.5 48.5h-151z" />
    <glyph glyph-name="S" unicode="S" horiz-adv-x="872" 
d="M-20 53l38 148q102 -97 252 -97q136 0 216.5 84.5t80.5 225.5q0 78 -45 147t-149 152q-195 155 -195 331q0 185 110 292.5t304 107.5q105 0 250 -45l-37 -144q-107 70 -221 70q-126 0 -198.5 -69.5t-72.5 -192.5q0 -67 35 -122t115 -124q127 -109 183 -195.5t56 -191.5
q0 -200 -117.5 -322t-318.5 -122q-181 0 -286 67z" />
    <glyph glyph-name="T" unicode="T" horiz-adv-x="872" 
d="M348 0h-127l279 1311h-332l25 119h790l-25 -119h-331z" />
    <glyph glyph-name="U" unicode="U" horiz-adv-x="1175" 
d="M850 557l186 873h127l-190 -900q-60 -279 -177 -411.5t-323 -132.5q-179 0 -274 95t-95 273q0 82 13 146l198 930h127l-198 -932q-13 -60 -13 -136q0 -124 63.5 -191t182.5 -67q76 0 134 25t94.5 62.5t66 102t45 121t33.5 142.5z" />
    <glyph glyph-name="V" unicode="V" horiz-adv-x="1062" 
d="M434 0h-123l-139 1430h129l102 -1254h5l628 1254h133z" />
    <glyph glyph-name="W" unicode="W" horiz-adv-x="1593" 
d="M1092 0h-162l-23 1284h-4l-555 -1284h-155l-29 1430h131l4 -1278h4l549 1278h174l16 -1278h5l530 1278h131z" />
    <glyph glyph-name="X" unicode="X" horiz-adv-x="1062" 
d="M895 0h-137l-226 653l-493 -653h-164l606 762l-256 668h137l207 -574l449 574h147l-544 -676z" />
    <glyph glyph-name="Y" unicode="Y" horiz-adv-x="1024" 
d="M420 0h-127l131 618l-197 812h129l154 -691l424 691h141l-524 -812z" />
    <glyph glyph-name="Z" unicode="Z" horiz-adv-x="909" 
d="M680 0h-758l23 127l854 1184h-582l25 119h723l-23 -123l-856 -1188h619z" />
    <glyph glyph-name="bracketleft" unicode="[" horiz-adv-x="530" 
d="M213 -287h-266l389 1835h256l-21 -94h-145l-348 -1647h153z" />
    <glyph glyph-name="backslash" unicode="\" horiz-adv-x="530" 
d="M432 -14h-102l-232 1458h103z" />
    <glyph glyph-name="bracketright" unicode="]" horiz-adv-x="530" 
d="M158 -287h-256l20 94h146l348 1647h-154l19 94h266z" />
    <glyph glyph-name="asciicircum" unicode="^" horiz-adv-x="1228" 
d="M1094 502h-113l-236 801l-575 -801h-125l670 928h102z" />
    <glyph glyph-name="underscore" unicode="_" horiz-adv-x="1024" 
d="M1024 -256h-1024v102h1024v-102z" />
    <glyph glyph-name="grave" unicode="`" horiz-adv-x="380" 
d="M393 1200h-96l-154 291h138z" />
    <glyph glyph-name="a" unicode="a" horiz-adv-x="909" 
d="M635 0h-107l23 147h-4q-118 -161 -285 -161q-130 0 -203 70.5t-73 197.5q0 185 143.5 280t405.5 95h110q21 95 21 153q0 166 -170 166q-136 0 -291 -104v127q82 47 150 67.5t145 20.5q131 0 205.5 -72t74.5 -184q0 -54 -12 -113l-92 -438q-24 -112 -41 -252zM590 375
l33 151h-29q-118 0 -204 -13t-139.5 -35.5t-85 -58t-43 -74t-11.5 -89.5q0 -74 44 -117t121 -43q107 0 198.5 84t115.5 195z" />
    <glyph glyph-name="b" unicode="b" 
d="M82 0h-111q26 101 39 158l295 1378h119l-133 -627h4q57 76 117.5 113t142.5 37q137 0 215 -92.5t78 -253.5q0 -124 -32.5 -251.5t-90.5 -234t-148.5 -174t-195.5 -67.5q-194 0 -264 168h-4zM377 96q68 0 126.5 39.5t97.5 103.5t67 145t40.5 163t12.5 160q0 241 -184 241
q-111 0 -196 -93t-126 -233t-41 -298q0 -111 53.5 -169.5t149.5 -58.5z" />
    <glyph glyph-name="c" unicode="c" horiz-adv-x="757" 
d="M598 160l-18 -135q-93 -39 -189 -39q-164 0 -265 105.5t-101 293.5q0 90 21.5 183.5t66 181.5t106 156.5t150 110.5t190.5 42q130 0 211 -37l-35 -135q-63 53 -176 53q-93 0 -171.5 -47.5t-128.5 -125.5t-77.5 -176t-27.5 -202q0 -136 68 -210.5t175 -74.5q113 0 201 56z
" />
    <glyph glyph-name="d" unicode="d" 
d="M674 0h-111l29 143h-4q-119 -157 -275 -157q-136 0 -213 93t-77 259q0 67 12.5 143.5t36 158t63 156t89 133.5t118 94.5t145.5 35.5q92 0 155 -39.5t93 -110.5h4l133 627h119l-252 -1182q-52 -253 -65 -354zM330 96q88 0 159.5 57t115.5 148.5t67.5 200t23.5 219.5
q0 110 -53 168.5t-151 58.5q-66 0 -122.5 -38t-96 -100t-68 -142.5t-42 -166t-13.5 -169.5q0 -116 46.5 -176t133.5 -60z" />
    <glyph glyph-name="e" unicode="e" horiz-adv-x="872" 
d="M633 182l-23 -137q-112 -59 -252 -59q-162 0 -250 95.5t-88 274.5q0 87 20 183t60.5 188.5t96 166.5t133 119.5t164.5 45.5q133 0 206.5 -82t73.5 -225q0 -129 -35 -269h-581q-13 -85 -13 -125q0 -132 58.5 -197t165.5 -65q68 0 141.5 24t122.5 62zM180 594h457
q14 86 14 158q0 96 -44 146t-122 50q-98 0 -180 -95t-125 -259z" />
    <glyph glyph-name="f" unicode="f" horiz-adv-x="530" 
d="M160 0h-119l197 934h-162l24 110h162l49 244q54 273 293 273q50 0 111 -11l-25 -118q-44 18 -96 18q-87 0 -131 -72q-9 -14 -18 -40t-17 -60.5t-13.5 -61t-12 -60.5t-7.5 -40l-14 -72h184l-24 -110h-185z" />
    <glyph glyph-name="g" unicode="g" 
d="M575 143h-4q-52 -78 -113.5 -117.5t-144.5 -39.5q-136 0 -213 93t-77 259q0 123 33.5 251.5t97.5 239.5q131 230 335 230q93 0 161.5 -43.5t97.5 -124.5h4l32 153h111q-30 -106 -82 -348l-149 -704q-52 -244 -152.5 -345.5t-288.5 -101.5q-96 0 -157.5 12t-157.5 46
l37 133q129 -80 282 -80q158 0 232 108t116 379zM328 96q87 0 158.5 54.5t116 144t69 199t24.5 223.5q0 109 -53.5 170t-150.5 61q-81 0 -148.5 -56.5t-108.5 -147.5t-63 -197.5t-22 -214.5q0 -116 46 -176t132 -60z" />
    <glyph glyph-name="h" unicode="h" 
d="M657 0h-118q19 92 40 190t34 157.5t26.5 124.5t21.5 101t15.5 75t11.5 59.5t7 41.5t4 33.5t1 24.5q0 67 -40.5 104t-114.5 37q-103 0 -188 -83t-115 -226l-136 -639h-118l325 1536h119l-135 -635h4q60 88 124 123t153 35q112 0 176.5 -62.5t64.5 -171.5q0 -47 -16 -135z
" />
    <glyph glyph-name="i" unicode="i" horiz-adv-x="417" 
d="M393 1276h-143l39 184h143zM117 0h-119l221 1044h119z" />
    <glyph glyph-name="j" unicode="j" horiz-adv-x="417" 
d="M393 1276h-143l39 184h143zM-262 -442l24 118q16 -12 60 -12q60 0 89 31t44 106l264 1243h119l-264 -1247q-27 -128 -88.5 -190t-167.5 -62q-45 0 -80 13z" />
    <glyph glyph-name="k" unicode="k" horiz-adv-x="872" 
d="M707 0h-148l-332 532h-4l-112 -532h-119l325 1536h119l-194 -911l477 419h158l-541 -471z" />
    <glyph glyph-name="l" unicode="l" horiz-adv-x="417" 
d="M117 0h-119l326 1536h118z" />
    <glyph glyph-name="m" unicode="m" horiz-adv-x="1404" 
d="M1114 0h-119l150 705q14 74 12 102q0 64 -37 102.5t-102 38.5q-96 0 -166.5 -72t-95.5 -190l-146 -686h-118l151 723q10 55 10 88q0 67 -34 102t-95 35q-95 0 -173.5 -81.5t-108.5 -225.5l-136 -641h-118l151 723q16 78 39 198.5t23 122.5h110q-2 -28 -16 -106l-8 -47h4
q106 168 258 168q83 0 139.5 -43t77.5 -127q116 170 278 170q108 0 170 -63.5t62 -170.5q0 -47 -16 -135z" />
    <glyph glyph-name="n" unicode="n" 
d="M657 0h-118l120 571l15 70t13.5 65t8.5 51.5t4 49.5q0 67 -40.5 104t-114.5 37q-100 0 -186 -80.5t-117 -228.5l-136 -639h-118l151 723q12 59 36 185.5t26 135.5h110q-3 -29 -18 -118l-6 -35h4q107 168 287 168q112 0 176.5 -62.5t64.5 -171.5q0 -47 -16 -135z" />
    <glyph glyph-name="o" unicode="o" horiz-adv-x="950" 
d="M338 -14q-152 0 -232.5 95t-80.5 265q0 130 35.5 256.5t98 228.5t159.5 165t210 63q152 0 234 -96.5t82 -270.5q0 -88 -19 -182.5t-60 -188.5t-99 -168t-143 -120.5t-185 -46.5zM350 96q81 0 151 53t116.5 139t73 193t26.5 217q0 122 -50.5 186t-144.5 64q-85 0 -157 -55
t-117.5 -143t-70.5 -193.5t-25 -210.5q0 -250 198 -250z" />
    <glyph glyph-name="p" unicode="p" 
d="M4 -442h-119l246 1163q18 77 62 323h110l-33 -153h4q84 99 143 133.5t136 34.5q138 0 216.5 -92.5t78.5 -247.5q0 -90 -18 -188t-56.5 -195.5t-91.5 -175t-131.5 -126t-169.5 -48.5q-94 0 -159.5 40t-90.5 115h-4zM381 96q81 0 147.5 57t107.5 149t63 200t22 217
q0 110 -47 169.5t-137 59.5q-111 0 -195.5 -92.5t-126 -234t-41.5 -302.5q0 -114 54 -168.5t153 -54.5z" />
    <glyph glyph-name="q" unicode="q" 
d="M571 -442h-118l122 585h-4q-52 -78 -113.5 -117.5t-144.5 -39.5q-136 0 -213 93t-77 259q0 66 12 142.5t36 158t63 156t88.5 134t118 95t146.5 35.5q95 0 163.5 -43.5t97.5 -124.5h4l32 153h111l-49 -196zM328 96q87 0 159 55t116.5 144.5t68.5 198.5t24 223
q0 109 -53 170t-151 61q-81 0 -148 -56.5t-108 -147t-63.5 -197.5t-22.5 -215q0 -116 46 -176t132 -60z" />
    <glyph glyph-name="r" unicode="r" horiz-adv-x="569" 
d="M106 0h-118l151 719q8 37 62 325h110l-26 -165h4q74 108 132.5 144t170.5 36h6l-25 -127q-138 0 -216.5 -62.5t-106.5 -193.5z" />
    <glyph glyph-name="s" unicode="s" horiz-adv-x="720" 
d="M-66 35l46 133q31 -29 97.5 -50.5t129.5 -21.5q95 0 156 53.5t61 139.5q0 61 -33.5 105.5t-114.5 94.5q-86 53 -129 115.5t-43 145.5q0 141 91 225t243 84q66 0 126.5 -10t82.5 -21l-43 -123q-91 43 -170 43q-92 0 -147.5 -52t-55.5 -134q0 -54 31 -94.5t96 -83.5
q108 -71 150.5 -132t42.5 -147q0 -147 -95.5 -233t-256.5 -86q-78 0 -136 11t-129 38z" />
    <glyph glyph-name="t" unicode="t" horiz-adv-x="569" 
d="M397 119l-24 -119q-43 -14 -111 -14q-84 0 -133 46.5t-49 125.5q0 27 8 73l150 703h-156l24 110h156l45 209l125 37l-51 -246h213l-25 -110h-213l-139 -662q-12 -59 -12 -102q0 -29 20.5 -51.5t69.5 -22.5q60 0 102 23z" />
    <glyph glyph-name="u" unicode="u" 
d="M664 0h-111q2 37 25 154h-5q-51 -85 -118 -126.5t-164 -41.5q-117 0 -179.5 60t-62.5 173q0 48 17 135l145 690h119l-150 -702q-12 -66 -12 -102q0 -68 40.5 -106t113.5 -38q106 0 187 83.5t105 191.5l144 673h119l-152 -720q-4 -19 -10.5 -53.5t-20 -107.5t-30.5 -163z
" />
    <glyph glyph-name="v" unicode="v" horiz-adv-x="798" 
d="M319 0h-145l-94 1044h123l69 -909h4l433 909h125z" />
    <glyph glyph-name="w" unicode="w" horiz-adv-x="1327" 
d="M881 0h-150l-43 909h-4l-391 -909h-143l-70 1044h123l39 -917h4l389 917h153l48 -917h4l399 917h123z" />
    <glyph glyph-name="x" unicode="x" horiz-adv-x="796" 
d="M623 0h-131l-152 455l-322 -455h-145l416 567l-174 477h131l133 -389l291 389h145l-389 -497z" />
    <glyph glyph-name="y" unicode="y" horiz-adv-x="757" 
d="M59 -240l103 213l-86 1071h123l59 -868h4l408 868h123l-586 -1220q-78 -161 -137.5 -220t-143.5 -59q-54 0 -98 13l29 120q28 -22 80 -22q71 0 122 104z" />
    <glyph glyph-name="z" unicode="z" horiz-adv-x="757" 
d="M541 0h-633l22 119l662 815h-473l24 110h609l-23 -118l-663 -815h497z" />
    <glyph glyph-name="braceleft" unicode="{" horiz-adv-x="530" 
d="M287 -287h-101q-166 0 -166 158q0 43 11 90l75 346q25 113 25 176q0 57 -20 79t-70 22l20 94q70 0 108.5 55.5t70.5 206.5l73 344q18 84 43.5 137.5t63 80.5t78 36.5t102.5 9.5h59l-20 -94h-47q-78 0 -113.5 -36.5t-50.5 -108.5l-90 -424q-24 -115 -69 -176t-115 -80v-4
q90 -28 90 -131q0 -50 -13 -109l-94 -451q-4 -20 -4 -45q0 -46 25 -64t78 -18h71z" />
    <glyph glyph-name="bar" unicode="|" horiz-adv-x="454" 
d="M279 -512h-103v2048h103v-2048z" />
    <glyph glyph-name="braceright" unicode="}" horiz-adv-x="530" 
d="M-106 -287h-60l21 94h47q78 0 113.5 37t50.5 109l90 424q24 115 69 176t115 80v4q-90 28 -90 131q0 55 12 109l94 450q4 20 4 45q0 46 -24.5 64t-77.5 18h-72l21 94h100q166 0 166 -157q0 -48 -10 -91l-76 -346q-25 -113 -25 -176q0 -56 20.5 -78t70.5 -22l-21 -94
q-70 0 -108 -55.5t-70 -206.5l-74 -345q-18 -84 -43.5 -137.5t-62.5 -80.5t-78 -36.5t-102 -9.5z" />
    <glyph glyph-name="asciitilde" unicode="~" horiz-adv-x="1228" 
d="M999 647l58 -74q-84 -98 -147.5 -137t-135.5 -39q-52 0 -103.5 20.5t-119.5 59.5q-59 33 -97 46.5t-87 13.5q-62 0 -108.5 -31t-113.5 -117l-57 74q57 86 130 131t153 45q107 0 223 -70q112 -69 192 -69q46 0 88.5 27.5t124.5 119.5z" />
    <glyph glyph-name="uni00A0" unicode="&#xa0;" horiz-adv-x="491" 
 />
    <glyph glyph-name="exclamdown" unicode="&#xa1;" horiz-adv-x="720" 
d="M465 860h-152l39 184h152zM205 -385h-152l250 1077h111z" />
    <glyph glyph-name="cent" unicode="&#xa2;" horiz-adv-x="983" 
d="M406 -262h-87l56 256q-134 31 -207.5 133.5t-73.5 257.5q0 163 63 313t181 250.5t262 110.5l49 229h86l-49 -231q77 -3 154 -35l-35 -135q-51 48 -143 51l-179 -834q107 3 185 56l-19 -133q-93 -41 -190 -41zM401 113l174 823q-101 -16 -183 -98t-125.5 -201t-43.5 -248
q0 -109 46.5 -181t131.5 -95z" />
    <glyph glyph-name="sterling" unicode="&#xa3;" horiz-adv-x="983" 
d="M731 0h-754l25 119h145l125 588h-145l23 110h145q32 164 70 295q41 143 160.5 237.5t271.5 94.5q139 0 237 -53l-49 -129q-70 63 -188 63q-124 0 -213 -84t-121 -235l-41 -189h328l-23 -110h-328l-125 -588h482z" />
    <glyph glyph-name="currency" unicode="&#xa4;" horiz-adv-x="983" 
d="M866 272l-98 99q-120 -99 -276 -99q-154 0 -277 99l-98 -99l-68 68l96 100q-96 116 -96 275q0 158 96 274l-96 101l68 67l98 -98q119 98 277 98q157 0 276 -98l98 98l68 -67l-96 -101q96 -116 96 -274q0 -159 -96 -275l96 -100zM831 715q0 138 -99.5 239t-242.5 101
q-138 0 -237.5 -101t-99.5 -239t101 -239t239 -101q139 0 239 100t100 240z" />
    <glyph glyph-name="yen" unicode="&#xa5;" horiz-adv-x="983" 
d="M733 315h-264l-66 -315h-127l66 315h-264l18 86h264l41 187h-264l17 86h239l-174 756h129l144 -695l436 695h139l-498 -756h240l-16 -86h-265l-41 -187h265z" />
    <glyph glyph-name="brokenbar" unicode="&#xa6;" horiz-adv-x="454" 
d="M279 666h-103v716h103v-716zM279 -358h-103v716h103v-716z" />
    <glyph glyph-name="section" unicode="&#xa7;" horiz-adv-x="983" 
d="M-31 -193l51 136q124 -90 261 -90q113 0 185.5 63.5t72.5 161.5q0 54 -36.5 102.5t-127.5 108.5q-211 135 -211 286q0 104 57 185t189 162q-45 37 -72 89.5t-27 110.5q0 143 104.5 232.5t262.5 89.5q63 0 137.5 -16t118.5 -39l-49 -127q-93 45 -125 54t-80 9
q-105 0 -170.5 -54.5t-65.5 -144.5q0 -53 35 -96.5t137 -116.5q99 -73 143 -139t44 -139q0 -185 -230 -346q95 -95 95 -209q0 -158 -107 -252t-285 -94q-158 0 -307 73zM473 872q-95 -69 -138.5 -133.5t-43.5 -140.5q0 -79 49 -134t166 -128q170 150 170 274
q0 70 -48.5 131.5t-154.5 130.5z" />
    <glyph glyph-name="dieresis" unicode="&#xa8;" horiz-adv-x="380" 
d="M201 1257h-119l43 201h119zM508 1257h-119l43 201h119z" />
    <glyph glyph-name="copyright" unicode="&#xa9;" horiz-adv-x="1638" 
d="M819 -14q-196 0 -364 98.5t-266.5 266.5t-98.5 364q0 145 59 280t157 233t233 157t280 59q147 0 282 -59t232.5 -157.5t156 -233t58.5 -279.5q0 -146 -58 -280.5t-155.5 -232.5t-233 -157t-282.5 -59zM819 80q168 0 312.5 86t229.5 232.5t85 316.5q0 169 -84.5 315
t-229.5 233t-315 87q-166 0 -309.5 -85t-229 -232t-85.5 -318q0 -128 49.5 -245.5t133.5 -203t200 -136t243 -50.5zM1087 569h103q-35 -142 -132 -222.5t-231 -80.5q-183 0 -301 127t-118 322q0 199 115 323.5t304 124.5q147 0 245 -79.5t118 -215.5h-103q-20 93 -89 147
t-171 54q-146 0 -231.5 -98t-85.5 -254q0 -150 89 -253.5t228 -103.5q103 0 171.5 55t88.5 154z" />
    <glyph glyph-name="ordfeminine" unicode="&#xaa;" horiz-adv-x="591" 
d="M547 811h-84l12 90h-4q-85 -98 -192 -98q-79 0 -129 45.5t-50 118.5q0 110 91.5 165.5t285.5 55.5h55q13 54 13 84q0 94 -117 94q-91 0 -190 -61l8 88q90 51 188 51q90 0 143.5 -44t53.5 -114q0 -34 -8 -67l-64 -304q-6 -39 -12 -104zM512 1092l6 26l-119 -4
q-95 -3 -148.5 -38t-53.5 -101q0 -43 27.5 -68.5t74.5 -25.5q176 0 213 211z" />
    <glyph glyph-name="guillemotleft" unicode="&#xab;" horiz-adv-x="983" 
d="M401 111h-106l-156 430l312 413h114l-301 -417zM686 111h-106l-156 430l311 413h115l-301 -417z" />
    <glyph glyph-name="logicalnot" unicode="&#xac;" horiz-adv-x="1228" 
d="M1133 221h-103v445h-934v102h1037v-547z" />
    <glyph glyph-name="uni00AD" unicode="&#xad;" horiz-adv-x="606" 
d="M469 512h-418l25 119h418z" />
    <glyph glyph-name="registered" unicode="&#xae;" horiz-adv-x="1638" 
d="M819 -14q-196 0 -364 98.5t-266.5 266.5t-98.5 364q0 145 59 280t157 233t233 157t280 59q147 0 282 -59t232.5 -157.5t156 -233t58.5 -279.5q0 -146 -58 -280.5t-155.5 -232.5t-233 -157t-282.5 -59zM819 80q168 0 312.5 86t229.5 232.5t85 316.5q0 169 -84.5 315
t-229.5 233t-315 87q-166 0 -309.5 -85t-229 -232t-85.5 -318q0 -128 49.5 -245.5t133.5 -203t200 -136t243 -50.5zM1163 297h-110l-246 371h-178v-371h-94v836h329q262 0 262 -232q0 -97 -54 -158.5t-152 -74.5zM629 754h215q188 0 188 147q0 72 -49.5 109t-138.5 37h-215
v-293z" />
    <glyph glyph-name="macron" unicode="&#xaf;" horiz-adv-x="380" 
d="M547 1298h-488l21 95h487z" />
    <glyph glyph-name="degree" unicode="&#xb0;" horiz-adv-x="819" 
d="M803 1192q0 -139 -102.5 -240.5t-241.5 -101.5q-118 0 -189 68.5t-71 183.5q0 137 104 239.5t240 102.5q121 0 190.5 -68t69.5 -184zM463 942q98 0 170 74t72 174q0 70 -46.5 116t-119.5 46q-100 0 -171 -73.5t-71 -174.5q0 -68 49 -115t117 -47z" />
    <glyph glyph-name="plusminus" unicode="&#xb1;" horiz-adv-x="1228" 
d="M1092 561h-467v-373h-103v373h-467v103h467v372h103v-372h467v-103zM1092 0h-1037v102h1037v-102z" />
    <glyph glyph-name="twosuperior" unicode="&#xb2;" horiz-adv-x="638" 
d="M590 877h-463l8 75q307 275 395 383t88 199q0 59 -31 91t-91 32q-47 0 -98.5 -19.5t-88.5 -50.5v99q88 57 193 57q99 0 158 -53t59 -140q0 -96 -72 -200.5t-244 -259.5l-141 -127h344z" />
    <glyph glyph-name="threesuperior" unicode="&#xb3;" horiz-adv-x="638" 
d="M133 903l12 96q74 -45 166 -45q111 0 172.5 49.5t61.5 145.5q0 57 -46.5 94t-123.5 37h-70l17 86q294 0 294 172q0 52 -36.5 85.5t-102.5 33.5q-92 0 -176 -37v90q97 33 184 33q107 0 171.5 -57t64.5 -140q0 -161 -207 -217l-2 -4q62 -17 99.5 -63.5t37.5 -108.5
q0 -130 -91.5 -207.5t-244.5 -77.5q-118 0 -180 35z" />
    <glyph glyph-name="acute" unicode="&#xb4;" horiz-adv-x="380" 
d="M303 1200h-108l198 291h150z" />
    <glyph glyph-name="mu" unicode="&#xb5;" horiz-adv-x="980" 
d="M840 109l-19 -109q-30 -12 -80 -12q-54 0 -80 34.5t-26 110.5q0 33 6 76h-4q-60 -110 -126.5 -165.5t-150.5 -55.5q-149 0 -176 139h-6q-3 -79 -26 -223l-56 -334h-121q22 137 250 1470h117l-88 -514q-25 -144 -25 -217q0 -213 152 -213q79 0 138.5 60.5t109.5 177.5
q13 31 24 73.5t16.5 74.5t15.5 93.5t15 92.5l64 372h121l-129 -757q-8 -53 -8 -109q0 -40 12 -57t41 -17q12 0 39 9z" />
    <glyph glyph-name="paragraph" unicode="&#xb6;" horiz-adv-x="983" 
d="M674 -252h-103l338 1587h-204l-338 -1587h-103l197 920q-153 6 -245.5 95t-92.5 224q0 202 136.5 322.5t352.5 120.5h420z" />
    <glyph glyph-name="periodcentered" unicode="&#xb7;" horiz-adv-x="491" 
d="M211 518q-43 0 -70.5 26t-27.5 68q0 54 38.5 92.5t92.5 38.5q43 0 70.5 -26.5t27.5 -67.5q0 -52 -39 -91.5t-92 -39.5z" />
    <glyph glyph-name="cedilla" unicode="&#xb8;" horiz-adv-x="380" 
d="M-213 -377l33 58q89 -29 121 -29q139 0 139 102q0 35 -24 56.5t-58 21.5q-41 0 -100 -27l-21 29l146 166h73l-104 -113l2 -4q19 8 53 8q64 0 105 -34.5t41 -89.5q0 -81 -69 -129t-179 -48q-112 0 -158 33z" />
    <glyph glyph-name="onesuperior" unicode="&#xb9;" horiz-adv-x="638" 
d="M414 877h-95l162 759l-143 -120l-49 57l211 170h98z" />
    <glyph glyph-name="ordmasculine" unicode="&#xba;" horiz-adv-x="638" 
d="M352 805q-104 0 -160.5 62t-56.5 173q0 108 38.5 199t113.5 148t172 57q99 0 158 -65t59 -171q0 -107 -37.5 -198t-112.5 -148t-174 -57zM356 883q102 0 163 95t61 232q0 71 -34 113.5t-89 42.5q-101 0 -162.5 -95.5t-61.5 -236.5q0 -68 34 -109.5t89 -41.5z" />
    <glyph glyph-name="guillemotright" unicode="&#xbb;" horiz-adv-x="983" 
d="M170 111h-115l301 417l-137 426h107l155 -430zM455 111h-115l301 417l-137 426h106l156 -430z" />
    <glyph glyph-name="onequarter" unicode="&#xbc;" horiz-adv-x="1476" 
d="M1108 0h-94l41 197h-365l15 86l466 575h119l-123 -575h95l-15 -86h-98zM1073 283l98 458h-4l-370 -458h276zM352 578h-94l162 759l-144 -120l-49 57l211 170h99zM276 -68h-106l895 1565h106z" />
    <glyph glyph-name="onehalf" unicode="&#xbd;" horiz-adv-x="1476" 
d="M1208 0h-463l9 76q307 275 395 383t88 198q0 59 -31.5 91t-91.5 32q-47 0 -98 -19t-88 -50v98q88 57 192 57q99 0 158 -52.5t59 -139.5q0 -96 -72 -201.5t-243 -259.5l-141 -127h344zM352 578h-94l162 759l-144 -120l-49 57l211 170h99zM307 -68h-106l895 1565h106z" />
    <glyph glyph-name="threequarters" unicode="&#xbe;" horiz-adv-x="1476" 
d="M1151 0h-94l41 197h-365l15 86l466 575h119l-123 -575h95l-15 -86h-98zM1116 283l98 458h-4l-370 -458h276zM72 604l12 96q74 -45 166 -45q111 0 172 49.5t61 145.5q0 57 -46.5 94t-123.5 37h-69l16 86q295 0 295 172q0 52 -36.5 85.5t-102.5 33.5q-92 0 -176 -37v90
q97 33 184 33q107 0 171 -57t64 -140q0 -162 -206 -217l-2 -4q62 -17 99.5 -63.5t37.5 -108.5q0 -130 -91.5 -207.5t-244.5 -77.5q-118 0 -180 35zM379 -68h-107l895 1565h107z" />
    <glyph glyph-name="questiondown" unicode="&#xbf;" horiz-adv-x="909" 
d="M604 860h-151l39 184h151zM528 -213l-14 -139q-103 -47 -225 -47q-142 0 -228 80t-86 210q0 100 45.5 188.5t141.5 186.5q54 55 75 77t63 72t62 85t41 87t31 107h119q-38 -194 -107 -278q-114 -133 -194 -221q-76 -86 -106.5 -150.5t-30.5 -142.5q0 -85 47 -134t133 -49
q60 0 112.5 15.5t120.5 52.5z" />
    <glyph glyph-name="Agrave" unicode="&#xc0;" horiz-adv-x="1138" 
d="M961 0h-127l-46 393h-569l-207 -393h-137l772 1430h135zM776 512l-82 782h-4l-407 -782h493zM811 1489h-96l-154 291h137z" />
    <glyph glyph-name="Aacute" unicode="&#xc1;" horiz-adv-x="1138" 
d="M961 0h-127l-46 393h-569l-207 -393h-137l772 1430h135zM776 512l-82 782h-4l-407 -782h493zM748 1489h-109l199 291h149z" />
    <glyph glyph-name="Acircumflex" unicode="&#xc2;" horiz-adv-x="1138" 
d="M961 0h-127l-46 393h-569l-207 -393h-137l772 1430h135zM776 512l-82 782h-4l-407 -782h493zM975 1489h-111l-94 209l-184 -209h-127l260 291h119z" />
    <glyph glyph-name="Atilde" unicode="&#xc3;" horiz-adv-x="1138" 
d="M961 0h-127l-46 393h-569l-207 -393h-137l772 1430h135zM776 512l-82 782h-4l-407 -782h493zM952 1741h86q-50 -203 -180 -203q-36 0 -80 22.5t-82.5 45t-60.5 22.5q-35 0 -58.5 -21.5t-39.5 -78.5h-86q27 101 71.5 152t114.5 51q43 0 121.5 -45.5t101.5 -45.5
q71 0 92 101z" />
    <glyph glyph-name="Adieresis" unicode="&#xc4;" horiz-adv-x="1138" 
d="M961 0h-127l-46 393h-569l-207 -393h-137l772 1430h135zM776 512l-82 782h-4l-407 -782h493zM629 1546h-119l43 201h119zM936 1546h-119l43 201h119z" />
    <glyph glyph-name="Aring" unicode="&#xc5;" horiz-adv-x="1138" 
d="M961 0h-127l-46 393h-569l-207 -393h-137l772 1430h135zM776 512l-82 782h-4l-407 -782h493zM729 1473q-78 0 -128 48.5t-50 123.5q0 98 63.5 161.5t161.5 63.5q78 0 128 -48.5t50 -123.5q0 -97 -63.5 -161t-161.5 -64zM731 1540q62 0 105 45t43 109q0 44 -30.5 76
t-76.5 32q-61 0 -103 -44t-42 -109q0 -45 30 -77t74 -32z" />
    <glyph glyph-name="AE" unicode="&#xc6;" horiz-adv-x="1554" 
d="M1286 0h-604l82 393h-455l-278 -393h-156l1026 1430h666l-25 -119h-455l-108 -508h432l-27 -119h-432l-118 -565h477zM791 512l172 815h-5l-571 -815h404z" />
    <glyph glyph-name="Ccedilla" unicode="&#xc7;" horiz-adv-x="1099" 
d="M842 168l-23 -137q-113 -45 -244 -45q-12 0 -26 2l-90 -101l2 -4q19 8 51 8q67 0 107 -34.5t40 -89.5q0 -81 -68.5 -129t-178.5 -48q-114 0 -158 33l33 58q77 -29 121 -29q139 0 139 102q0 35 -24 56.5t-58 21.5q-33 0 -100 -27l-21 29l139 160q-193 29 -296 161
t-103 345q0 135 31.5 269t95.5 255.5t153 215t213 149t265 55.5q72 0 144 -13.5t110 -33.5l-35 -144q-83 70 -230 70q-134 0 -250 -68.5t-194 -182t-122 -260.5t-44 -304q0 -193 98 -298.5t263 -105.5q129 0 260 64z" />
    <glyph glyph-name="Egrave" unicode="&#xc8;" horiz-adv-x="909" 
d="M641 0h-629l303 1430h607l-25 -119h-479l-109 -508h457l-27 -119h-456l-119 -565h502zM715 1489h-97l-153 291h137z" />
    <glyph glyph-name="Eacute" unicode="&#xc9;" horiz-adv-x="909" 
d="M641 0h-629l303 1430h607l-25 -119h-479l-109 -508h457l-27 -119h-456l-119 -565h502zM662 1489h-109l199 291h149z" />
    <glyph glyph-name="Ecircumflex" unicode="&#xca;" horiz-adv-x="909" 
d="M641 0h-629l303 1430h607l-25 -119h-479l-109 -508h457l-27 -119h-456l-119 -565h502zM881 1489h-111l-94 209l-184 -209h-127l260 291h118z" />
    <glyph glyph-name="Edieresis" unicode="&#xcb;" horiz-adv-x="909" 
d="M641 0h-629l303 1430h607l-25 -119h-479l-109 -508h457l-27 -119h-456l-119 -565h502zM541 1546h-119l43 201h119zM848 1546h-119l43 201h119z" />
    <glyph glyph-name="Igrave" unicode="&#xcc;" horiz-adv-x="454" 
d="M139 0h-127l303 1430h127zM489 1489h-96l-153 291h137z" />
    <glyph glyph-name="Iacute" unicode="&#xcd;" horiz-adv-x="454" 
d="M139 0h-127l303 1430h127zM403 1489h-108l199 291h149z" />
    <glyph glyph-name="Icircumflex" unicode="&#xce;" horiz-adv-x="454" 
d="M139 0h-127l303 1430h127zM639 1489h-111l-94 209l-184 -209h-127l260 291h119z" />
    <glyph glyph-name="Idieresis" unicode="&#xcf;" horiz-adv-x="454" 
d="M139 0h-127l303 1430h127zM303 1546h-119l43 201h119zM610 1546h-118l43 201h118z" />
    <glyph glyph-name="Eth" unicode="&#xd0;" horiz-adv-x="1155" 
d="M334 0h-322l148 698h-140l19 86h139l137 646h228q255 0 395.5 -132t140.5 -380q0 -213 -56.5 -387.5t-156.5 -290t-236 -178t-296 -62.5zM164 119h166q133 0 244.5 52t193.5 151t128 251t46 342q0 396 -420 396h-104l-113 -527h365l-19 -86h-364z" />
    <glyph glyph-name="Ntilde" unicode="&#xd1;" horiz-adv-x="1214" 
d="M899 0h-162l-336 1262h-4l-266 -1262h-119l303 1430h160l334 -1270h4l270 1270h119zM1001 1741h86q-50 -203 -180 -203q-36 0 -80 22.5t-82.5 45t-60.5 22.5q-35 0 -58.5 -21.5t-39.5 -78.5h-86q27 101 71.5 152t114.5 51q43 0 121.5 -45.5t101.5 -45.5q71 0 92 101z" />
    <glyph glyph-name="Ograve" unicode="&#xd2;" horiz-adv-x="1216" 
d="M469 -14q-185 0 -289 119t-104 327q0 150 29.5 296.5t88 275t138.5 227.5t187.5 156t228.5 57q187 0 290 -120t103 -331q0 -142 -28 -284.5t-85 -272.5t-135.5 -230.5t-188.5 -160t-235 -59.5zM473 104q83 0 158 38t132.5 103t104 152t76.5 186.5t46 204t16 205.5
q0 155 -70.5 243.5t-194.5 88.5q-99 0 -186 -55t-149 -145.5t-106.5 -206.5t-66.5 -239.5t-22 -242.5q0 -155 69.5 -243.5t192.5 -88.5zM872 1489h-96l-153 291h137z" />
    <glyph glyph-name="Oacute" unicode="&#xd3;" horiz-adv-x="1216" 
d="M469 -14q-185 0 -289 119t-104 327q0 150 29.5 296.5t88 275t138.5 227.5t187.5 156t228.5 57q187 0 290 -120t103 -331q0 -142 -28 -284.5t-85 -272.5t-135.5 -230.5t-188.5 -160t-235 -59.5zM473 104q83 0 158 38t132.5 103t104 152t76.5 186.5t46 204t16 205.5
q0 155 -70.5 243.5t-194.5 88.5q-99 0 -186 -55t-149 -145.5t-106.5 -206.5t-66.5 -239.5t-22 -242.5q0 -155 69.5 -243.5t192.5 -88.5zM799 1489h-109l199 291h149z" />
    <glyph glyph-name="Ocircumflex" unicode="&#xd4;" horiz-adv-x="1216" 
d="M469 -14q-185 0 -289 119t-104 327q0 150 29.5 296.5t88 275t138.5 227.5t187.5 156t228.5 57q187 0 290 -120t103 -331q0 -142 -28 -284.5t-85 -272.5t-135.5 -230.5t-188.5 -160t-235 -59.5zM473 104q83 0 158 38t132.5 103t104 152t76.5 186.5t46 204t16 205.5
q0 155 -70.5 243.5t-194.5 88.5q-99 0 -186 -55t-149 -145.5t-106.5 -206.5t-66.5 -239.5t-22 -242.5q0 -155 69.5 -243.5t192.5 -88.5zM1024 1489h-111l-94 209l-184 -209h-127l260 291h119z" />
    <glyph glyph-name="Otilde" unicode="&#xd5;" horiz-adv-x="1216" 
d="M469 -14q-185 0 -289 119t-104 327q0 150 29.5 296.5t88 275t138.5 227.5t187.5 156t228.5 57q187 0 290 -120t103 -331q0 -142 -28 -284.5t-85 -272.5t-135.5 -230.5t-188.5 -160t-235 -59.5zM473 104q83 0 158 38t132.5 103t104 152t76.5 186.5t46 204t16 205.5
q0 155 -70.5 243.5t-194.5 88.5q-99 0 -186 -55t-149 -145.5t-106.5 -206.5t-66.5 -239.5t-22 -242.5q0 -155 69.5 -243.5t192.5 -88.5zM1004 1741h86q-50 -203 -181 -203q-36 0 -80 22.5t-82.5 45t-60.5 22.5q-35 0 -58.5 -21.5t-39.5 -78.5h-86q27 101 71.5 152t114.5 51
q43 0 121.5 -45.5t101.5 -45.5q72 0 93 101z" />
    <glyph glyph-name="Odieresis" unicode="&#xd6;" horiz-adv-x="1216" 
d="M469 -14q-185 0 -289 119t-104 327q0 150 29.5 296.5t88 275t138.5 227.5t187.5 156t228.5 57q187 0 290 -120t103 -331q0 -142 -28 -284.5t-85 -272.5t-135.5 -230.5t-188.5 -160t-235 -59.5zM473 104q83 0 158 38t132.5 103t104 152t76.5 186.5t46 204t16 205.5
q0 155 -70.5 243.5t-194.5 88.5q-99 0 -186 -55t-149 -145.5t-106.5 -206.5t-66.5 -239.5t-22 -242.5q0 -155 69.5 -243.5t192.5 -88.5zM690 1546h-119l43 201h119zM997 1546h-118l43 201h118z" />
    <glyph glyph-name="multiply" unicode="&#xd7;" horiz-adv-x="1228" 
d="M979 55l-389 391l-389 -391l-74 74l389 389l-389 389l74 74l389 -391l389 391l74 -74l-391 -389l391 -389z" />
    <glyph glyph-name="Oslash" unicode="&#xd8;" horiz-adv-x="1216" 
d="M-12 -14l-51 49l174 194q-35 100 -35 197q0 87 12 181.5t38 194t64 192t94 175t124 143.5t157.5 96.5t190.5 35.5q205 0 313 -170l162 182l51 -51l-178 -199q37 -98 37 -221q0 -86 -12.5 -178.5t-39.5 -190.5t-65.5 -188.5t-94.5 -171t-122.5 -140.5t-153 -95t-182.5 -35
q-116 0 -193.5 42.5t-134.5 131.5zM217 338l756 842q-61 145 -230 145q-118 0 -219 -76t-169 -203.5t-106 -293t-38 -344.5q0 -49 6 -70zM997 1098l-757 -842q32 -76 89 -114t148 -38q152 0 275 129.5t188.5 336.5t65.5 444q0 34 -9 84z" />
    <glyph glyph-name="Ugrave" unicode="&#xd9;" horiz-adv-x="1175" 
d="M850 557l186 873h127l-190 -900q-60 -279 -177 -411.5t-323 -132.5q-179 0 -274 95t-95 273q0 82 13 146l198 930h127l-198 -932q-13 -60 -13 -136q0 -124 63.5 -191t182.5 -67q76 0 134 25t94.5 62.5t66 102t45 121t33.5 142.5zM840 1489h-97l-153 291h137z" />
    <glyph glyph-name="Uacute" unicode="&#xda;" horiz-adv-x="1175" 
d="M850 557l186 873h127l-190 -900q-60 -279 -177 -411.5t-323 -132.5q-179 0 -274 95t-95 273q0 82 13 146l198 930h127l-198 -932q-13 -60 -13 -136q0 -124 63.5 -191t182.5 -67q76 0 134 25t94.5 62.5t66 102t45 121t33.5 142.5zM764 1489h-109l199 291h150z" />
    <glyph glyph-name="Ucircumflex" unicode="&#xdb;" horiz-adv-x="1175" 
d="M850 557l186 873h127l-190 -900q-60 -279 -177 -411.5t-323 -132.5q-179 0 -274 95t-95 273q0 82 13 146l198 930h127l-198 -932q-13 -60 -13 -136q0 -124 63.5 -191t182.5 -67q76 0 134 25t94.5 62.5t66 102t45 121t33.5 142.5zM1001 1489h-110l-94 209l-185 -209h-127
l260 291h119z" />
    <glyph glyph-name="Udieresis" unicode="&#xdc;" horiz-adv-x="1175" 
d="M850 557l186 873h127l-190 -900q-60 -279 -177 -411.5t-323 -132.5q-179 0 -274 95t-95 273q0 82 13 146l198 930h127l-198 -932q-13 -60 -13 -136q0 -124 63.5 -191t182.5 -67q76 0 134 25t94.5 62.5t66 102t45 121t33.5 142.5zM659 1546h-118l43 201h118zM967 1546
h-119l43 201h119z" />
    <glyph glyph-name="Yacute" unicode="&#xdd;" horiz-adv-x="1024" 
d="M420 0h-127l131 618l-197 812h129l154 -691l424 691h141l-524 -812zM684 1489h-109l199 291h150z" />
    <glyph glyph-name="Thorn" unicode="&#xde;" 
d="M139 0h-127l303 1430h127l-65 -308h149q162 0 259.5 -84t97.5 -233q0 -144 -67 -257.5t-178 -173t-243 -59.5h-190zM231 432h144q169 0 268.5 96t99.5 271q0 207 -237 207h-154z" />
    <glyph glyph-name="germandbls" unicode="&#xdf;" 
d="M221 0l29 127q36 -23 123 -23q138 0 227.5 119t89.5 287q0 107 -72.5 173t-207.5 73l24 118q161 0 255.5 103.5t94.5 277.5q0 82 -45 134.5t-118 52.5q-126 0 -195 -90.5t-117 -309.5l-219 -1042h-119l232 1098q51 238 154.5 350.5t269.5 112.5q124 0 204 -83t80 -212
q0 -165 -90 -292.5t-243 -154.5l-3 -4q114 -24 178 -102t64 -199q0 -229 -124 -378.5t-326 -149.5q-28 0 -80.5 4.5t-65.5 9.5z" />
    <glyph glyph-name="agrave" unicode="&#xe0;" horiz-adv-x="909" 
d="M635 0h-107l23 147h-4q-118 -161 -285 -161q-130 0 -203 70.5t-73 197.5q0 185 143.5 280t405.5 95h110q21 95 21 153q0 166 -170 166q-136 0 -291 -104v127q82 47 150 67.5t145 20.5q131 0 205.5 -72t74.5 -184q0 -54 -12 -113l-92 -438q-24 -112 -41 -252zM590 375
l33 151h-29q-118 0 -204 -13t-139.5 -35.5t-85 -58t-43 -74t-11.5 -89.5q0 -74 44 -117t121 -43q107 0 198.5 84t115.5 195zM633 1200h-96l-154 291h137z" />
    <glyph glyph-name="aacute" unicode="&#xe1;" horiz-adv-x="909" 
d="M635 0h-107l23 147h-4q-118 -161 -285 -161q-130 0 -203 70.5t-73 197.5q0 185 143.5 280t405.5 95h110q21 95 21 153q0 166 -170 166q-136 0 -291 -104v127q82 47 150 67.5t145 20.5q131 0 205.5 -72t74.5 -184q0 -54 -12 -113l-92 -438q-24 -112 -41 -252zM590 375
l33 151h-29q-118 0 -204 -13t-139.5 -35.5t-85 -58t-43 -74t-11.5 -89.5q0 -74 44 -117t121 -43q107 0 198.5 84t115.5 195zM567 1200h-108l198 291h150z" />
    <glyph glyph-name="acircumflex" unicode="&#xe2;" horiz-adv-x="909" 
d="M635 0h-107l23 147h-4q-118 -161 -285 -161q-130 0 -203 70.5t-73 197.5q0 185 143.5 280t405.5 95h110q21 95 21 153q0 166 -170 166q-136 0 -291 -104v127q82 47 150 67.5t145 20.5q131 0 205.5 -72t74.5 -184q0 -54 -12 -113l-92 -438q-24 -112 -41 -252zM590 375
l33 151h-29q-118 0 -204 -13t-139.5 -35.5t-85 -58t-43 -74t-11.5 -89.5q0 -74 44 -117t121 -43q107 0 198.5 84t115.5 195zM797 1200h-111l-94 209l-184 -209h-127l260 291h118z" />
    <glyph glyph-name="atilde" unicode="&#xe3;" horiz-adv-x="909" 
d="M635 0h-107l23 147h-4q-118 -161 -285 -161q-130 0 -203 70.5t-73 197.5q0 185 143.5 280t405.5 95h110q21 95 21 153q0 166 -170 166q-136 0 -291 -104v127q82 47 150 67.5t145 20.5q131 0 205.5 -72t74.5 -184q0 -54 -12 -113l-92 -438q-24 -112 -41 -252zM590 375
l33 151h-29q-118 0 -204 -13t-139.5 -35.5t-85 -58t-43 -74t-11.5 -89.5q0 -74 44 -117t121 -43q107 0 198.5 84t115.5 195zM772 1452h86q-51 -203 -180 -203q-36 0 -80 22.5t-82.5 45t-60.5 22.5q-35 0 -58 -21.5t-41 -78.5h-86q27 100 72 151.5t115 51.5q46 0 123 -45
t100 -45q71 0 92 100z" />
    <glyph glyph-name="adieresis" unicode="&#xe4;" horiz-adv-x="909" 
d="M635 0h-107l23 147h-4q-118 -161 -285 -161q-130 0 -203 70.5t-73 197.5q0 185 143.5 280t405.5 95h110q21 95 21 153q0 166 -170 166q-136 0 -291 -104v127q82 47 150 67.5t145 20.5q131 0 205.5 -72t74.5 -184q0 -54 -12 -113l-92 -438q-24 -112 -41 -252zM590 375
l33 151h-29q-118 0 -204 -13t-139.5 -35.5t-85 -58t-43 -74t-11.5 -89.5q0 -74 44 -117t121 -43q107 0 198.5 84t115.5 195zM453 1257h-119l43 201h119zM760 1257h-119l43 201h119z" />
    <glyph glyph-name="aring" unicode="&#xe5;" horiz-adv-x="909" 
d="M635 0h-107l23 147h-4q-118 -161 -285 -161q-130 0 -203 70.5t-73 197.5q0 185 143.5 280t405.5 95h110q21 95 21 153q0 166 -170 166q-136 0 -291 -104v127q82 47 150 67.5t145 20.5q131 0 205.5 -72t74.5 -184q0 -54 -12 -113l-92 -438q-24 -112 -41 -252zM590 375
l33 151h-29q-118 0 -204 -13t-139.5 -35.5t-85 -58t-43 -74t-11.5 -89.5q0 -74 44 -117t121 -43q107 0 198.5 84t115.5 195zM549 1163q-78 0 -128 48.5t-50 123.5q0 97 64 161.5t161 64.5q79 0 128.5 -49t49.5 -123q0 -98 -63.5 -162t-161.5 -64zM551 1231q61 0 104 45
t43 108q0 44 -30.5 76.5t-73.5 32.5q-62 0 -105 -44t-43 -110q0 -47 30 -77.5t75 -30.5z" />
    <glyph glyph-name="ae" unicode="&#xe6;" horiz-adv-x="1402" 
d="M1143 172l-21 -135q-122 -51 -225 -51q-124 0 -205 60.5t-104 174.5h-4q-51 -109 -143.5 -172t-215.5 -63q-115 0 -181.5 67t-66.5 185q0 82 28 148.5t76.5 111t116 74.5t144.5 43.5t164 13.5h96q23 90 23 162t-41.5 114.5t-114.5 42.5q-62 0 -115 -19t-139 -73l14 117
q130 86 256 86q98 0 162 -51t78 -138q55 88 136 138.5t173 50.5q130 0 203.5 -83.5t73.5 -230.5q0 -128 -25 -219h-579q-23 -108 -23 -166q0 -122 60 -193t165 -71q48 0 99.5 16.5t134.5 59.5zM729 629h453q12 49 12 110q0 103 -42 156t-124 53q-80 0 -146.5 -52.5
t-102.5 -122.5t-50 -144zM567 467l13 59h-17q-459 0 -459 -286q0 -67 36.5 -105.5t101.5 -38.5q66 0 121 28.5t94 80.5t66 117t44 145z" />
    <glyph glyph-name="ccedilla" unicode="&#xe7;" horiz-adv-x="757" 
d="M72 -377l32 58q79 -29 121 -29q140 0 140 102q0 35 -24 56.5t-58 21.5q-37 0 -101 -27l-20 29l141 162q-134 31 -206 132.5t-72 254.5q0 90 21 183.5t66 182t106.5 157.5t150 111t190.5 42q130 0 211 -37l-35 -135q-63 53 -176 53q-93 0 -171.5 -47.5t-128.5 -125.5
t-77.5 -176t-27.5 -202q0 -136 68 -210.5t175 -74.5q113 0 201 56l-18 -135q-93 -39 -193 -39q-10 0 -18 2l-93 -101l3 -4q21 8 53 8q65 0 105 -34.5t40 -89.5q0 -82 -68.5 -129.5t-179.5 -47.5q-107 0 -157 33z" />
    <glyph glyph-name="egrave" unicode="&#xe8;" horiz-adv-x="872" 
d="M633 182l-23 -137q-112 -59 -252 -59q-162 0 -250 95.5t-88 274.5q0 87 20 183t60.5 188.5t96 166.5t133 119.5t164.5 45.5q133 0 206.5 -82t73.5 -225q0 -129 -35 -269h-581q-13 -85 -13 -125q0 -132 58.5 -197t165.5 -65q68 0 141.5 24t122.5 62zM180 594h457
q14 86 14 158q0 96 -44 146t-122 50q-98 0 -180 -95t-125 -259zM614 1200h-96l-153 291h137z" />
    <glyph glyph-name="eacute" unicode="&#xe9;" horiz-adv-x="872" 
d="M633 182l-23 -137q-112 -59 -252 -59q-162 0 -250 95.5t-88 274.5q0 87 20 183t60.5 188.5t96 166.5t133 119.5t164.5 45.5q133 0 206.5 -82t73.5 -225q0 -129 -35 -269h-581q-13 -85 -13 -125q0 -132 58.5 -197t165.5 -65q68 0 141.5 24t122.5 62zM180 594h457
q14 86 14 158q0 96 -44 146t-122 50q-98 0 -180 -95t-125 -259zM541 1200h-109l199 291h149z" />
    <glyph glyph-name="ecircumflex" unicode="&#xea;" horiz-adv-x="872" 
d="M633 182l-23 -137q-112 -59 -252 -59q-162 0 -250 95.5t-88 274.5q0 87 20 183t60.5 188.5t96 166.5t133 119.5t164.5 45.5q133 0 206.5 -82t73.5 -225q0 -129 -35 -269h-581q-13 -85 -13 -125q0 -132 58.5 -197t165.5 -65q68 0 141.5 24t122.5 62zM180 594h457
q14 86 14 158q0 96 -44 146t-122 50q-98 0 -180 -95t-125 -259zM778 1200h-110l-95 209l-184 -209h-127l260 291h119z" />
    <glyph glyph-name="edieresis" unicode="&#xeb;" horiz-adv-x="872" 
d="M633 182l-23 -137q-112 -59 -252 -59q-162 0 -250 95.5t-88 274.5q0 87 20 183t60.5 188.5t96 166.5t133 119.5t164.5 45.5q133 0 206.5 -82t73.5 -225q0 -129 -35 -269h-581q-13 -85 -13 -125q0 -132 58.5 -197t165.5 -65q68 0 141.5 24t122.5 62zM180 594h457
q14 86 14 158q0 96 -44 146t-122 50q-98 0 -180 -95t-125 -259zM438 1257h-119l43 201h119zM745 1257h-118l43 201h118z" />
    <glyph glyph-name="igrave" unicode="&#xec;" horiz-adv-x="417" 
d="M117 0h-119l221 1044h119zM395 1200h-96l-154 291h138z" />
    <glyph glyph-name="iacute" unicode="&#xed;" horiz-adv-x="417" 
d="M117 0h-119l221 1044h119zM328 1200h-109l199 291h149z" />
    <glyph glyph-name="icircumflex" unicode="&#xee;" horiz-adv-x="417" 
d="M117 0h-119l221 1044h119zM559 1200h-110l-95 209l-184 -209h-127l260 291h119z" />
    <glyph glyph-name="idieresis" unicode="&#xef;" horiz-adv-x="417" 
d="M117 0h-119l221 1044h119zM219 1257h-119l43 201h119zM526 1257h-118l43 201h118z" />
    <glyph glyph-name="eth" unicode="&#xf0;" horiz-adv-x="950" 
d="M748 918l6 4q-16 258 -170 417l-230 -125l-39 66l207 113q-67 54 -186 100l53 68q126 -40 227 -121l215 121l39 -66l-198 -111q96 -93 142 -225t46 -332q0 -111 -17 -223.5t-57 -225t-98.5 -198.5t-148.5 -140t-199 -54q-153 0 -236.5 95.5t-83.5 266.5q0 86 19 178
t59.5 182.5t98 162t141.5 115.5t182 44q77 0 132.5 -26t95.5 -86zM338 96q78 0 144 41t108 104.5t72 143t42.5 154.5t12.5 141q0 240 -203 240q-72 0 -133.5 -39.5t-103 -102.5t-71 -141t-43 -154t-13.5 -143q0 -244 188 -244z" />
    <glyph glyph-name="ntilde" unicode="&#xf1;" 
d="M657 0h-118l120 571l15 70t13.5 65t8.5 51.5t4 49.5q0 67 -40.5 104t-114.5 37q-100 0 -186 -80.5t-117 -228.5l-136 -639h-118l151 723q12 59 36 185.5t26 135.5h110q-3 -29 -18 -118l-6 -35h4q107 168 287 168q112 0 176.5 -62.5t64.5 -171.5q0 -47 -16 -135zM803 1452
h86q-51 -203 -180 -203q-46 0 -123 45t-101 45q-34 0 -57 -21.5t-41 -78.5h-86q27 101 71.5 152t114.5 51q46 0 123.5 -45t100.5 -45q71 0 92 100z" />
    <glyph glyph-name="ograve" unicode="&#xf2;" horiz-adv-x="950" 
d="M338 -14q-152 0 -232.5 95t-80.5 265q0 130 35.5 256.5t98 228.5t159.5 165t210 63q152 0 234 -96.5t82 -270.5q0 -88 -19 -182.5t-60 -188.5t-99 -168t-143 -120.5t-185 -46.5zM350 96q81 0 151 53t116.5 139t73 193t26.5 217q0 122 -50.5 186t-144.5 64q-85 0 -157 -55
t-117.5 -143t-70.5 -193.5t-25 -210.5q0 -250 198 -250zM657 1200h-96l-153 291h137z" />
    <glyph glyph-name="oacute" unicode="&#xf3;" horiz-adv-x="950" 
d="M338 -14q-152 0 -232.5 95t-80.5 265q0 130 35.5 256.5t98 228.5t159.5 165t210 63q152 0 234 -96.5t82 -270.5q0 -88 -19 -182.5t-60 -188.5t-99 -168t-143 -120.5t-185 -46.5zM350 96q81 0 151 53t116.5 139t73 193t26.5 217q0 122 -50.5 186t-144.5 64q-85 0 -157 -55
t-117.5 -143t-70.5 -193.5t-25 -210.5q0 -250 198 -250zM588 1200h-109l199 291h149z" />
    <glyph glyph-name="ocircumflex" unicode="&#xf4;" horiz-adv-x="950" 
d="M338 -14q-152 0 -232.5 95t-80.5 265q0 130 35.5 256.5t98 228.5t159.5 165t210 63q152 0 234 -96.5t82 -270.5q0 -88 -19 -182.5t-60 -188.5t-99 -168t-143 -120.5t-185 -46.5zM350 96q81 0 151 53t116.5 139t73 193t26.5 217q0 122 -50.5 186t-144.5 64q-85 0 -157 -55
t-117.5 -143t-70.5 -193.5t-25 -210.5q0 -250 198 -250zM817 1200h-110l-95 209l-184 -209h-127l260 291h119z" />
    <glyph glyph-name="otilde" unicode="&#xf5;" horiz-adv-x="950" 
d="M338 -14q-152 0 -232.5 95t-80.5 265q0 130 35.5 256.5t98 228.5t159.5 165t210 63q152 0 234 -96.5t82 -270.5q0 -88 -19 -182.5t-60 -188.5t-99 -168t-143 -120.5t-185 -46.5zM350 96q81 0 151 53t116.5 139t73 193t26.5 217q0 122 -50.5 186t-144.5 64q-85 0 -157 -55
t-117.5 -143t-70.5 -193.5t-25 -210.5q0 -250 198 -250zM801 1452h86q-51 -203 -180 -203q-46 0 -123 45t-101 45q-34 0 -57 -21.5t-41 -78.5h-86q27 101 71.5 152t114.5 51q46 0 123.5 -45t100.5 -45q71 0 92 100z" />
    <glyph glyph-name="odieresis" unicode="&#xf6;" horiz-adv-x="950" 
d="M338 -14q-152 0 -232.5 95t-80.5 265q0 130 35.5 256.5t98 228.5t159.5 165t210 63q152 0 234 -96.5t82 -270.5q0 -88 -19 -182.5t-60 -188.5t-99 -168t-143 -120.5t-185 -46.5zM350 96q81 0 151 53t116.5 139t73 193t26.5 217q0 122 -50.5 186t-144.5 64q-85 0 -157 -55
t-117.5 -143t-70.5 -193.5t-25 -210.5q0 -250 198 -250zM479 1257h-119l43 201h119zM786 1257h-118l43 201h118z" />
    <glyph glyph-name="divide" unicode="&#xf7;" horiz-adv-x="1228" 
d="M573 825q-47 0 -79.5 33t-32.5 80t32.5 80t79.5 33q45 0 79 -32.5t34 -80.5q0 -47 -33 -80t-80 -33zM1092 467h-1037v102h1037v-102zM573 -14q-49 0 -80.5 31t-31.5 81q0 47 32.5 80t79.5 33t80 -33t33 -80t-33 -79.5t-80 -32.5z" />
    <glyph glyph-name="oslash" unicode="&#xf8;" 
d="M-25 -14l-49 45l129 141q-30 82 -30 176q0 102 22 204t65.5 193t103 161.5t140.5 111.5t172 41q156 0 244 -111l98 111l50 -47l-113 -125q37 -84 37 -195q0 -98 -21.5 -198.5t-65 -191t-101.5 -161.5t-138 -113t-168 -42q-96 0 -157.5 29t-106.5 94zM156 276l528 584
q-48 88 -164 88q-85 0 -157 -56.5t-117 -145.5t-69.5 -193.5t-24.5 -206.5q0 -38 4 -70zM709 786l-533 -585q48 -105 166 -105q77 0 141.5 41t106.5 105t71.5 145.5t42.5 160t13 150.5q0 59 -8 88z" />
    <glyph glyph-name="ugrave" unicode="&#xf9;" 
d="M664 0h-111q2 37 25 154h-5q-51 -85 -118 -126.5t-164 -41.5q-117 0 -179.5 60t-62.5 173q0 48 17 135l145 690h119l-150 -702q-12 -66 -12 -102q0 -68 40.5 -106t113.5 -38q106 0 187 83.5t105 191.5l144 673h119l-152 -720q-4 -19 -10.5 -53.5t-20 -107.5t-30.5 -163z
M653 1200h-96l-154 291h138z" />
    <glyph glyph-name="uacute" unicode="&#xfa;" 
d="M664 0h-111q2 37 25 154h-5q-51 -85 -118 -126.5t-164 -41.5q-117 0 -179.5 60t-62.5 173q0 48 17 135l145 690h119l-150 -702q-12 -66 -12 -102q0 -68 40.5 -106t113.5 -38q106 0 187 83.5t105 191.5l144 673h119l-152 -720q-4 -19 -10.5 -53.5t-20 -107.5t-30.5 -163z
M592 1200h-109l199 291h149z" />
    <glyph glyph-name="ucircumflex" unicode="&#xfb;" 
d="M664 0h-111q2 37 25 154h-5q-51 -85 -118 -126.5t-164 -41.5q-117 0 -179.5 60t-62.5 173q0 48 17 135l145 690h119l-150 -702q-12 -66 -12 -102q0 -68 40.5 -106t113.5 -38q106 0 187 83.5t105 191.5l144 673h119l-152 -720q-4 -19 -10.5 -53.5t-20 -107.5t-30.5 -163z
M821 1200h-110l-95 209l-184 -209h-127l260 291h119z" />
    <glyph glyph-name="udieresis" unicode="&#xfc;" 
d="M664 0h-111q2 37 25 154h-5q-51 -85 -118 -126.5t-164 -41.5q-117 0 -179.5 60t-62.5 173q0 48 17 135l145 690h119l-150 -702q-12 -66 -12 -102q0 -68 40.5 -106t113.5 -38q106 0 187 83.5t105 191.5l144 673h119l-152 -720q-4 -19 -10.5 -53.5t-20 -107.5t-30.5 -163z
M485 1257h-118l43 201h118zM793 1257h-119l43 201h119z" />
    <glyph glyph-name="yacute" unicode="&#xfd;" horiz-adv-x="757" 
d="M59 -240l103 213l-86 1071h123l59 -868h4l408 868h123l-586 -1220q-78 -161 -137.5 -220t-143.5 -59q-54 0 -98 13l29 120q28 -22 80 -22q71 0 122 104zM485 1200h-108l198 291h150z" />
    <glyph glyph-name="thorn" unicode="&#xfe;" 
d="M4 -442h-119l326 1540q16 75 33.5 158t23 109t12.5 62.5t10 56t7 52.5h127l-133 -627h4q128 150 262 150q136 0 213.5 -91.5t77.5 -254.5q0 -267 -135 -498q-134 -229 -336 -229q-94 0 -158.5 40t-87.5 115h-4zM373 96q101 0 182.5 93t123.5 235t42 299q0 107 -45 166
t-129 59q-112 0 -199 -93.5t-130.5 -234.5t-43.5 -298q0 -111 50.5 -168.5t148.5 -57.5z" />
    <glyph glyph-name="ydieresis" unicode="&#xff;" horiz-adv-x="757" 
d="M59 -240l103 213l-86 1071h123l59 -868h4l408 868h123l-586 -1220q-78 -161 -137.5 -220t-143.5 -59q-54 0 -98 13l29 120q28 -22 80 -22q71 0 122 104zM379 1257h-119l43 201h119zM686 1257h-119l43 201h119z" />
    <glyph glyph-name="Amacron" unicode="&#x100;" horiz-adv-x="1138" 
d="M961 0h-127l-46 393h-569l-207 -393h-137l772 1430h135zM776 512l-82 782h-4l-407 -782h493zM977 1587h-488l21 94h487z" />
    <glyph glyph-name="amacron" unicode="&#x101;" horiz-adv-x="909" 
d="M635 0h-107l23 147h-4q-118 -161 -285 -161q-130 0 -203 70.5t-73 197.5q0 185 143.5 280t405.5 95h110q21 95 21 153q0 166 -170 166q-136 0 -291 -104v127q82 47 150 67.5t145 20.5q131 0 205.5 -72t74.5 -184q0 -54 -12 -113l-92 -438q-24 -112 -41 -252zM590 375
l33 151h-29q-118 0 -204 -13t-139.5 -35.5t-85 -58t-43 -74t-11.5 -89.5q0 -74 44 -117t121 -43q107 0 198.5 84t115.5 195zM801 1298h-488l21 95h487z" />
    <glyph glyph-name="Abreve" unicode="&#x102;" horiz-adv-x="1138" 
d="M961 0h-127l-46 393h-569l-207 -393h-137l772 1430h135zM776 512l-82 782h-4l-407 -782h493zM934 1757h82q-62 -250 -279 -250q-99 0 -156 58t-57 143q0 17 4 49h82v-14q0 -68 35.5 -104.5t99.5 -36.5q67 0 115.5 40t73.5 115z" />
    <glyph glyph-name="abreve" unicode="&#x103;" horiz-adv-x="909" 
d="M635 0h-107l23 147h-4q-118 -161 -285 -161q-130 0 -203 70.5t-73 197.5q0 185 143.5 280t405.5 95h110q21 95 21 153q0 166 -170 166q-136 0 -291 -104v127q82 47 150 67.5t145 20.5q131 0 205.5 -72t74.5 -184q0 -54 -12 -113l-92 -438q-24 -112 -41 -252zM590 375
l33 151h-29q-118 0 -204 -13t-139.5 -35.5t-85 -58t-43 -74t-11.5 -89.5q0 -74 44 -117t121 -43q107 0 198.5 84t115.5 195zM756 1468h82q-31 -123 -102 -186t-177 -63q-97 0 -155 57t-58 149q0 19 4 43h82v-12q0 -68 35 -105.5t100 -37.5q67 0 116.5 40.5t72.5 114.5z" />
    <glyph glyph-name="Aogonek" unicode="&#x104;" horiz-adv-x="1138" 
d="M899 -324l16 -51q-79 -35 -131 -35q-88 0 -139 37.5t-51 108.5q0 80 60.5 144.5t189.5 119.5h-10l-46 393h-569l-207 -393h-137l772 1430h135l179 -1430h-33q-103 -56 -158 -121.5t-55 -134.5q0 -41 26 -66.5t66 -25.5q48 0 92 24zM776 512l-82 782h-4l-407 -782h493z
" />
    <glyph glyph-name="aogonek" unicode="&#x105;" horiz-adv-x="909" 
d="M602 -324l16 -51q-71 -35 -131 -35q-88 0 -139 37.5t-51 108.5q0 80 60.5 144.5t189.5 119.5h-19l23 147h-4q-118 -161 -285 -161q-130 0 -203 70.5t-73 197.5q0 185 143.5 280t405.5 95h110q21 95 21 153q0 166 -170 166q-136 0 -291 -104v127q82 47 150 67.5t145 20.5
q131 0 205.5 -72t74.5 -184q0 -54 -12 -113l-92 -438q-24 -112 -41 -252h-4q-103 -54 -158 -120.5t-55 -135.5q0 -42 25 -67t63 -25q41 0 96 24zM590 375l33 151h-29q-118 0 -204 -13t-139.5 -35.5t-85 -58t-43 -74t-11.5 -89.5q0 -74 44 -117t121 -43q107 0 198.5 84
t115.5 195z" />
    <glyph glyph-name="Cacute" unicode="&#x106;" horiz-adv-x="1089" 
d="M842 168l-23 -137q-113 -45 -237 -45q-234 0 -366 136.5t-132 385.5q0 134 31.5 267.5t95.5 254t153 213t213 147t265 54.5q72 0 144 -13.5t110 -33.5l-35 -144q-83 70 -230 70q-134 0 -250 -68.5t-194 -182t-122 -260.5t-44 -304q0 -193 98 -298.5t263 -105.5
q129 0 260 64zM838 1489h-109l199 291h149z" />
    <glyph glyph-name="cacute" unicode="&#x107;" horiz-adv-x="757" 
d="M598 160l-18 -135q-93 -39 -189 -39q-164 0 -265 105.5t-101 293.5q0 90 21.5 183.5t66 181.5t106 156.5t150 110.5t190.5 42q130 0 211 -37l-35 -135q-63 53 -176 53q-93 0 -171.5 -47.5t-128.5 -125.5t-77.5 -176t-27.5 -202q0 -136 68 -210.5t175 -74.5q113 0 201 56z
M592 1200h-109l199 291h149z" />
    <glyph glyph-name="Ccircumflex" unicode="&#x108;" horiz-adv-x="1089" 
d="M842 168l-23 -137q-113 -45 -237 -45q-234 0 -366 136.5t-132 385.5q0 134 31.5 267.5t95.5 254t153 213t213 147t265 54.5q72 0 144 -13.5t110 -33.5l-35 -144q-83 70 -230 70q-134 0 -250 -68.5t-194 -182t-122 -260.5t-44 -304q0 -193 98 -298.5t263 -105.5
q129 0 260 64zM1079 1489h-110l-95 209l-184 -209h-127l260 291h119z" />
    <glyph glyph-name="ccircumflex" unicode="&#x109;" horiz-adv-x="757" 
d="M598 160l-18 -135q-93 -39 -189 -39q-164 0 -265 105.5t-101 293.5q0 90 21.5 183.5t66 181.5t106 156.5t150 110.5t190.5 42q130 0 211 -37l-35 -135q-63 53 -176 53q-93 0 -171.5 -47.5t-128.5 -125.5t-77.5 -176t-27.5 -202q0 -136 68 -210.5t175 -74.5q113 0 201 56z
M821 1200h-110l-95 209l-184 -209h-127l260 291h119z" />
    <glyph glyph-name="Cdotaccent" unicode="&#x10a;" horiz-adv-x="1089" 
d="M842 168l-23 -137q-113 -45 -237 -45q-234 0 -366 136.5t-132 385.5q0 134 31.5 267.5t95.5 254t153 213t213 147t265 54.5q72 0 144 -13.5t110 -33.5l-35 -144q-83 70 -230 70q-134 0 -250 -68.5t-194 -182t-122 -260.5t-44 -304q0 -193 98 -298.5t263 -105.5
q129 0 260 64zM893 1546h-119l43 201h119z" />
    <glyph glyph-name="cdotaccent" unicode="&#x10b;" horiz-adv-x="757" 
d="M598 160l-18 -135q-93 -39 -189 -39q-164 0 -265 105.5t-101 293.5q0 90 21.5 183.5t66 181.5t106 156.5t150 110.5t190.5 42q130 0 211 -37l-35 -135q-63 53 -176 53q-93 0 -171.5 -47.5t-128.5 -125.5t-77.5 -176t-27.5 -202q0 -136 68 -210.5t175 -74.5q113 0 201 56z
M635 1257h-119l43 201h119z" />
    <glyph glyph-name="Ccaron" unicode="&#x10c;" horiz-adv-x="1089" 
d="M842 168l-23 -137q-113 -45 -237 -45q-234 0 -366 136.5t-132 385.5q0 134 31.5 267.5t95.5 254t153 213t213 147t265 54.5q72 0 144 -13.5t110 -33.5l-35 -144q-83 70 -230 70q-134 0 -250 -68.5t-194 -182t-122 -260.5t-44 -304q0 -193 98 -298.5t263 -105.5
q129 0 260 64zM881 1489h-119l-137 291h112l97 -209l182 209h125z" />
    <glyph glyph-name="ccaron" unicode="&#x10d;" horiz-adv-x="757" 
d="M598 160l-18 -135q-93 -39 -189 -39q-164 0 -265 105.5t-101 293.5q0 90 21.5 183.5t66 181.5t106 156.5t150 110.5t190.5 42q130 0 211 -37l-35 -135q-63 53 -176 53q-93 0 -171.5 -47.5t-128.5 -125.5t-77.5 -176t-27.5 -202q0 -136 68 -210.5t175 -74.5q113 0 201 56z
M623 1200h-119l-137 291h112l96 -209l183 209h125z" />
    <glyph glyph-name="Dcaron" unicode="&#x10e;" horiz-adv-x="1155" 
d="M334 0h-322l303 1430h228q255 0 395.5 -132t140.5 -380q0 -213 -56.5 -387.5t-156.5 -290t-236 -178t-296 -62.5zM164 119h166q133 0 244.5 52t193.5 151t128 251t46 342q0 396 -420 396h-104zM725 1489h-119l-137 291h113l96 -209l182 209h125z" />
    <glyph glyph-name="dcaron" unicode="&#x10f;" 
d="M674 0h-111l29 143h-4q-119 -157 -275 -157q-136 0 -213 93t-77 259q0 67 12.5 143.5t36 158t63 156t89 133.5t118 94.5t145.5 35.5q92 0 155 -39.5t93 -110.5h4l133 627h119l-252 -1182q-52 -253 -65 -354zM330 96q88 0 159.5 57t115.5 148.5t67.5 200t23.5 219.5
q0 110 -53 168.5t-151 58.5q-66 0 -122.5 -38t-96 -100t-68 -142.5t-42 -166t-13.5 -169.5q0 -116 46.5 -176t133.5 -60zM1112 1155h-88l82 336h123z" />
    <glyph glyph-name="Dcroat" unicode="&#x110;" horiz-adv-x="1155" 
d="M334 0h-322l148 698h-140l19 86h139l137 646h228q255 0 395.5 -132t140.5 -380q0 -213 -56.5 -387.5t-156.5 -290t-236 -178t-296 -62.5zM164 119h166q133 0 244.5 52t193.5 151t128 251t46 342q0 396 -420 396h-104l-113 -527h365l-19 -86h-364z" />
    <glyph glyph-name="dcroat" unicode="&#x111;" 
d="M674 0h-111l29 143h-4q-119 -157 -275 -157q-136 0 -213 93t-77 259q0 67 12.5 143.5t36 158t63 156t89 133.5t118 94.5t145.5 35.5q92 0 155 -39.5t93 -110.5h4l74 348h-276l18 89h276l41 190h119l-41 -190h123l-18 -89h-123l-193 -903q-52 -253 -65 -354zM330 96
q88 0 159.5 57t115.5 148.5t67.5 200t23.5 219.5q0 110 -53 168.5t-151 58.5q-66 0 -122.5 -38t-96 -100t-68 -142.5t-42 -166t-13.5 -169.5q0 -116 46.5 -176t133.5 -60z" />
    <glyph glyph-name="Emacron" unicode="&#x112;" horiz-adv-x="909" 
d="M641 0h-629l303 1430h607l-25 -119h-479l-109 -508h457l-27 -119h-456l-119 -565h502zM889 1587h-488l21 94h487z" />
    <glyph glyph-name="emacron" unicode="&#x113;" horiz-adv-x="872" 
d="M633 182l-23 -137q-112 -59 -252 -59q-162 0 -250 95.5t-88 274.5q0 87 20 183t60.5 188.5t96 166.5t133 119.5t164.5 45.5q133 0 206.5 -82t73.5 -225q0 -129 -35 -269h-581q-13 -85 -13 -125q0 -132 58.5 -197t165.5 -65q68 0 141.5 24t122.5 62zM180 594h457
q14 86 14 158q0 96 -44 146t-122 50q-98 0 -180 -95t-125 -259zM784 1298h-487l20 95h488z" />
    <glyph glyph-name="Ebreve" unicode="&#x114;" horiz-adv-x="909" 
d="M641 0h-629l303 1430h607l-25 -119h-479l-109 -508h457l-27 -119h-456l-119 -565h502zM844 1757h82q-62 -250 -279 -250q-99 0 -156 58t-57 143q0 17 4 49h82v-14q0 -68 35.5 -104.5t99.5 -36.5q67 0 115.5 40t73.5 115z" />
    <glyph glyph-name="ebreve" unicode="&#x115;" horiz-adv-x="872" 
d="M633 182l-23 -137q-112 -59 -252 -59q-162 0 -250 95.5t-88 274.5q0 87 20 183t60.5 188.5t96 166.5t133 119.5t164.5 45.5q133 0 206.5 -82t73.5 -225q0 -129 -35 -269h-581q-13 -85 -13 -125q0 -132 58.5 -197t165.5 -65q68 0 141.5 24t122.5 62zM180 594h457
q14 86 14 158q0 96 -44 146t-122 50q-98 0 -180 -95t-125 -259zM723 1468h82q-31 -123 -102 -186t-177 -63q-97 0 -155 57t-58 149q0 19 4 43h82v-12q0 -68 35 -105.5t101 -37.5q67 0 116 40.5t72 114.5z" />
    <glyph glyph-name="Edotaccent" unicode="&#x116;" horiz-adv-x="909" 
d="M641 0h-629l303 1430h607l-25 -119h-479l-109 -508h457l-27 -119h-456l-119 -565h502zM696 1546h-118l43 201h118z" />
    <glyph glyph-name="edotaccent" unicode="&#x117;" horiz-adv-x="872" 
d="M633 182l-23 -137q-112 -59 -252 -59q-162 0 -250 95.5t-88 274.5q0 87 20 183t60.5 188.5t96 166.5t133 119.5t164.5 45.5q133 0 206.5 -82t73.5 -225q0 -129 -35 -269h-581q-13 -85 -13 -125q0 -132 58.5 -197t165.5 -65q68 0 141.5 24t122.5 62zM180 594h457
q14 86 14 158q0 96 -44 146t-122 50q-98 0 -180 -95t-125 -259zM594 1257h-119l43 201h119z" />
    <glyph glyph-name="Eogonek" unicode="&#x118;" horiz-adv-x="909" 
d="M553 -324l16 -51q-74 -35 -131 -35q-88 0 -139 37.5t-51 108.5q0 80 60.5 144.5t189.5 119.5h-486l303 1430h607l-25 -119h-479l-109 -508h457l-27 -119h-456l-119 -565h502l-25 -119h-59q-103 -54 -158 -120.5t-55 -135.5q0 -40 24.5 -66t69.5 -26q46 0 90 24z" />
    <glyph glyph-name="eogonek" unicode="&#x119;" horiz-adv-x="872" 
d="M408 -324l16 -51q-71 -35 -131 -35q-88 0 -139.5 37.5t-51.5 108.5q0 74 56 138.5t164 113.5q-144 11 -223 104.5t-79 263.5q0 87 20 183t60.5 188.5t96 166.5t133 119.5t164.5 45.5q133 0 206.5 -82t73.5 -225q0 -129 -35 -269h-581q-13 -85 -13 -125q0 -132 58.5 -197
t165.5 -65q68 0 141.5 24t122.5 62l-23 -137q-73 -44 -192 -57q-94 -49 -144.5 -112.5t-50.5 -131.5q0 -42 26 -67t60 -25q47 0 99 24zM180 594h457q14 86 14 158q0 96 -44 146t-122 50q-98 0 -180 -95t-125 -259z" />
    <glyph glyph-name="Ecaron" unicode="&#x11a;" horiz-adv-x="909" 
d="M641 0h-629l303 1430h607l-25 -119h-479l-109 -508h457l-27 -119h-456l-119 -565h502zM694 1489h-119l-137 291h113l96 -209l182 209h125z" />
    <glyph glyph-name="ecaron" unicode="&#x11b;" horiz-adv-x="872" 
d="M633 182l-23 -137q-112 -59 -252 -59q-162 0 -250 95.5t-88 274.5q0 87 20 183t60.5 188.5t96 166.5t133 119.5t164.5 45.5q133 0 206.5 -82t73.5 -225q0 -129 -35 -269h-581q-13 -85 -13 -125q0 -132 58.5 -197t165.5 -65q68 0 141.5 24t122.5 62zM180 594h457
q14 86 14 158q0 96 -44 146t-122 50q-98 0 -180 -95t-125 -259zM592 1200h-119l-137 291h113l96 -209l182 209h125z" />
    <glyph glyph-name="Gcircumflex" unicode="&#x11c;" horiz-adv-x="1214" 
d="M811 147l107 502h-254l24 119h381l-149 -705q-153 -77 -320 -77q-245 0 -380.5 144.5t-135.5 399.5q0 173 58 338t157 292.5t244 205.5t307 78q80 0 165 -19t148 -51l-35 -139q-43 37 -124.5 63.5t-157.5 26.5q-113 0 -214 -47.5t-175 -127t-128.5 -181.5t-82 -214.5
t-27.5 -222.5q0 -206 99 -317t288 -111q131 0 205 43zM1098 1489h-111l-94 209l-184 -209h-127l260 291h119z" />
    <glyph glyph-name="gcircumflex" unicode="&#x11d;" 
d="M575 143h-4q-52 -78 -113.5 -117.5t-144.5 -39.5q-136 0 -213 93t-77 259q0 123 33.5 251.5t97.5 239.5q131 230 335 230q93 0 161.5 -43.5t97.5 -124.5h4l32 153h111q-30 -106 -82 -348l-149 -704q-52 -244 -152.5 -345.5t-288.5 -101.5q-96 0 -157.5 12t-157.5 46
l37 133q129 -80 282 -80q158 0 232 108t116 379zM328 96q87 0 158.5 54.5t116 144t69 199t24.5 223.5q0 109 -53.5 170t-150.5 61q-81 0 -148.5 -56.5t-108.5 -147.5t-63 -197.5t-22 -214.5q0 -116 46 -176t132 -60zM825 1200h-110l-94 209l-185 -209h-127l260 291h119z" />
    <glyph glyph-name="Gbreve" unicode="&#x11e;" horiz-adv-x="1214" 
d="M811 147l107 502h-254l24 119h381l-149 -705q-153 -77 -320 -77q-245 0 -380.5 144.5t-135.5 399.5q0 173 58 338t157 292.5t244 205.5t307 78q80 0 165 -19t148 -51l-35 -139q-43 37 -124.5 63.5t-157.5 26.5q-113 0 -214 -47.5t-175 -127t-128.5 -181.5t-82 -214.5
t-27.5 -222.5q0 -206 99 -317t288 -111q131 0 205 43zM1059 1757h82q-62 -250 -279 -250q-99 0 -156 58t-57 143q0 17 4 49h82v-14q0 -68 35.5 -104.5t99.5 -36.5q67 0 115.5 40t73.5 115z" />
    <glyph glyph-name="gbreve" unicode="&#x11f;" 
d="M575 143h-4q-52 -78 -113.5 -117.5t-144.5 -39.5q-136 0 -213 93t-77 259q0 123 33.5 251.5t97.5 239.5q131 230 335 230q93 0 161.5 -43.5t97.5 -124.5h4l32 153h111q-30 -106 -82 -348l-149 -704q-52 -244 -152.5 -345.5t-288.5 -101.5q-96 0 -157.5 12t-157.5 46
l37 133q129 -80 282 -80q158 0 232 108t116 379zM328 96q87 0 158.5 54.5t116 144t69 199t24.5 223.5q0 109 -53.5 170t-150.5 61q-81 0 -148.5 -56.5t-108.5 -147.5t-63 -197.5t-22 -214.5q0 -116 46 -176t132 -60zM786 1468h82q-31 -123 -101.5 -186t-176.5 -63
q-97 0 -155 57t-58 149q0 19 4 43h82v-12q0 -68 35 -105.5t100 -37.5q67 0 116 40.5t72 114.5z" />
    <glyph glyph-name="Gdotaccent" unicode="&#x120;" horiz-adv-x="1214" 
d="M811 147l107 502h-254l24 119h381l-149 -705q-153 -77 -320 -77q-245 0 -380.5 144.5t-135.5 399.5q0 173 58 338t157 292.5t244 205.5t307 78q80 0 165 -19t148 -51l-35 -139q-43 37 -124.5 63.5t-157.5 26.5q-113 0 -214 -47.5t-175 -127t-128.5 -181.5t-82 -214.5
t-27.5 -222.5q0 -206 99 -317t288 -111q131 0 205 43zM911 1546h-118l43 201h118z" />
    <glyph glyph-name="gdotaccent" unicode="&#x121;" 
d="M575 143h-4q-52 -78 -113.5 -117.5t-144.5 -39.5q-136 0 -213 93t-77 259q0 123 33.5 251.5t97.5 239.5q131 230 335 230q93 0 161.5 -43.5t97.5 -124.5h4l32 153h111q-30 -106 -82 -348l-149 -704q-52 -244 -152.5 -345.5t-288.5 -101.5q-96 0 -157.5 12t-157.5 46
l37 133q129 -80 282 -80q158 0 232 108t116 379zM328 96q87 0 158.5 54.5t116 144t69 199t24.5 223.5q0 109 -53.5 170t-150.5 61q-81 0 -148.5 -56.5t-108.5 -147.5t-63 -197.5t-22 -214.5q0 -116 46 -176t132 -60zM639 1257h-119l43 201h119z" />
    <glyph glyph-name="Gcommaaccent" unicode="&#x122;" horiz-adv-x="1214" 
d="M811 147l107 502h-254l24 119h381l-149 -705q-153 -77 -320 -77q-245 0 -380.5 144.5t-135.5 399.5q0 173 58 338t157 292.5t244 205.5t307 78q80 0 165 -19t148 -51l-35 -139q-43 37 -124.5 63.5t-157.5 26.5q-113 0 -214 -47.5t-175 -127t-128.5 -181.5t-82 -214.5
t-27.5 -222.5q0 -206 99 -317t288 -111q131 0 205 43zM432 -455h-106l104 291h141z" />
    <glyph glyph-name="gcommaaccent" unicode="&#x123;" 
d="M575 143h-4q-52 -78 -113.5 -117.5t-144.5 -39.5q-136 0 -213 93t-77 259q0 123 33.5 251.5t97.5 239.5q131 230 335 230q93 0 161.5 -43.5t97.5 -124.5h4l32 153h111q-30 -106 -82 -348l-149 -704q-52 -244 -152.5 -345.5t-288.5 -101.5q-96 0 -157.5 12t-157.5 46
l37 133q129 -80 282 -80q158 0 232 108t116 379zM328 96q87 0 158.5 54.5t116 144t69 199t24.5 223.5q0 109 -53.5 170t-150.5 61q-81 0 -148.5 -56.5t-108.5 -147.5t-63 -197.5t-22 -214.5q0 -116 46 -176t132 -60zM625 1200h-138l140 291h104z" />
    <glyph glyph-name="Hcircumflex" unicode="&#x124;" horiz-adv-x="1138" 
d="M823 0h-127l144 684h-557l-144 -684h-127l303 1430h127l-133 -627h557l133 627h127zM987 1489h-110l-95 209l-184 -209h-127l260 291h119z" />
    <glyph glyph-name="hcircumflex" unicode="&#x125;" 
d="M657 0h-118q19 92 40 190t34 157.5t26.5 124.5t21.5 101t15.5 75t11.5 59.5t7 41.5t4 33.5t1 24.5q0 67 -40.5 104t-114.5 37q-103 0 -188 -83t-115 -226l-136 -639h-118l325 1536h119l-135 -635h4q60 88 124 123t153 35q112 0 176.5 -62.5t64.5 -171.5q0 -47 -16 -135z
M899 1591h-111l-94 209l-184 -209h-127l260 291h119z" />
    <glyph glyph-name="Hbar" unicode="&#x126;" horiz-adv-x="1138" 
d="M823 0h-127l131 625h-557l-131 -625h-127l207 973h-162l19 90h162l77 367h127l-77 -367h557l77 367h127l-77 -367h157l-18 -90h-158zM852 739l49 234h-557l-49 -234h557z" />
    <glyph glyph-name="hbar" unicode="&#x127;" 
d="M657 0h-118q19 92 40 190t34 157.5t26.5 124.5t21.5 101t15.5 75t11.5 59.5t7 41.5t4 33.5t1 24.5q0 67 -40.5 104t-114.5 37q-103 0 -188 -83t-115 -226l-136 -639h-118l266 1257h-123l19 89h122l41 190h119l-41 -190h273l-19 -89h-272l-76 -356h4q60 88 124 123t153 35
q112 0 176.5 -62.5t64.5 -171.5q0 -47 -16 -135z" />
    <glyph glyph-name="Itilde" unicode="&#x128;" horiz-adv-x="454" 
d="M139 0h-127l303 1430h127zM616 1741h86q-50 -203 -180 -203q-36 0 -80 22.5t-82.5 45t-60.5 22.5q-35 0 -58.5 -21.5t-39.5 -78.5h-86q27 101 71.5 152t114.5 51q43 0 121.5 -45.5t101.5 -45.5q71 0 92 101z" />
    <glyph glyph-name="itilde" unicode="&#x129;" horiz-adv-x="417" 
d="M117 0h-119l221 1044h119zM541 1452h86q-51 -203 -181 -203q-36 0 -80 22.5t-82.5 45t-60.5 22.5q-34 0 -57 -21.5t-41 -78.5h-86q27 101 71.5 152t114.5 51q46 0 123.5 -45t100.5 -45q71 0 92 100z" />
    <glyph glyph-name="Imacron" unicode="&#x12a;" horiz-adv-x="454" 
d="M139 0h-127l303 1430h127zM649 1587h-487l20 94h488z" />
    <glyph glyph-name="imacron" unicode="&#x12b;" horiz-adv-x="417" 
d="M117 0h-119l221 1044h119zM567 1298h-487l20 95h488z" />
    <glyph glyph-name="Iogonek" unicode="&#x12e;" horiz-adv-x="454" 
d="M123 -324l16 -51q-71 -35 -131 -35q-88 0 -136 37.5t-48 108.5q0 165 231 264h-43l303 1430h127l-303 -1430q-92 -50 -143 -117.5t-51 -140.5q0 -41 24 -65.5t58 -24.5q54 0 96 24z" />
    <glyph glyph-name="iogonek" unicode="&#x12f;" horiz-adv-x="417" 
d="M393 1276h-143l39 184h143zM98 -324l17 -51q-71 -35 -131 -35q-89 0 -137 37.5t-48 108.5q0 164 232 264h-33l221 1044h119l-221 -1044q-88 -45 -142.5 -113t-54.5 -145q0 -40 23 -65t61 -25q53 0 94 24z" />
    <glyph glyph-name="Idotaccent" unicode="&#x130;" horiz-adv-x="454" 
d="M139 0h-127l303 1430h127zM461 1546h-119l43 201h119z" />
    <glyph glyph-name="dotlessi" unicode="&#x131;" horiz-adv-x="417" 
d="M117 0h-119l221 1044h119z" />
    <glyph glyph-name="IJ" unicode="&#x132;" horiz-adv-x="1028" 
d="M139 0h-127l303 1430h127zM313 0l27 133q39 -20 88 -20q107 0 157.5 59t84.5 221l219 1037h127l-230 -1080q-42 -196 -128.5 -280t-231.5 -84q-59 0 -113 14z" />
    <glyph glyph-name="ij" unicode="&#x133;" horiz-adv-x="827" 
d="M393 1276h-143l39 184h143zM117 0h-119l221 1044h119zM803 1276h-144l39 184h144zM147 -442l25 118q16 -12 59 -12q60 0 89.5 31t44.5 106l264 1243h119l-265 -1247q-27 -128 -88.5 -190t-167.5 -62q-45 0 -80 13z" />
    <glyph glyph-name="Jcircumflex" unicode="&#x134;" horiz-adv-x="606" 
d="M-109 0l27 133q39 -20 88 -20q107 0 157.5 59t84.5 221l219 1037h127l-229 -1080q-42 -196 -129 -280t-232 -84q-59 0 -113 14zM782 1489h-110l-94 209l-185 -209h-127l260 291h119z" />
    <glyph glyph-name="jcircumflex" unicode="&#x135;" horiz-adv-x="417" 
d="M-262 -442l24 118q16 -12 60 -12q60 0 89 31t44 106l264 1243h119l-264 -1247q-27 -128 -88.5 -190t-167.5 -62q-45 0 -80 13zM549 1200h-111l-94 209l-184 -209h-127l260 291h119z" />
    <glyph glyph-name="Kcommaaccent" unicode="&#x136;" horiz-adv-x="1024" 
d="M868 0h-157l-420 700h-4l-148 -700h-127l303 1430h127l-133 -627h4l633 627h166l-713 -691zM322 -455h-107l104 291h142z" />
    <glyph glyph-name="kcommaaccent" unicode="&#x137;" horiz-adv-x="872" 
d="M707 0h-148l-332 532h-4l-112 -532h-119l325 1536h119l-194 -911l477 419h158l-541 -471zM254 -455h-107l105 291h141z" />
    <glyph glyph-name="Lacute" unicode="&#x139;" horiz-adv-x="796" 
d="M604 0h-592l303 1430h127l-278 -1311h465zM451 1489h-109l199 291h149z" />
    <glyph glyph-name="lacute" unicode="&#x13a;" horiz-adv-x="417" 
d="M117 0h-119l326 1536h118zM426 1591h-109l199 291h150z" />
    <glyph glyph-name="Lcommaaccent" unicode="&#x13b;" horiz-adv-x="796" 
d="M604 0h-592l303 1430h127l-278 -1311h465zM217 -455h-106l104 291h141z" />
    <glyph glyph-name="lcommaaccent" unicode="&#x13c;" horiz-adv-x="417" 
d="M117 0h-119l326 1536h118zM-43 -455h-107l105 291h141z" />
    <glyph glyph-name="Lcaron" unicode="&#x13d;" horiz-adv-x="796" 
d="M604 0h-592l303 1430h127l-278 -1311h465zM621 1155h-89l82 336h123z" />
    <glyph glyph-name="lcaron" unicode="&#x13e;" horiz-adv-x="417" 
d="M117 0h-119l326 1536h118zM563 1155h-88l82 336h123z" />
    <glyph glyph-name="Ldot" unicode="&#x13f;" horiz-adv-x="796" 
d="M604 0h-592l303 1430h127l-278 -1311h465zM559 635h-119l43 201h119z" />
    <glyph glyph-name="ldot" unicode="&#x140;" horiz-adv-x="614" 
d="M117 0h-119l326 1536h118zM524 635h-118l43 201h118z" />
    <glyph glyph-name="Lslash" unicode="&#x141;" horiz-adv-x="796" 
d="M604 0h-592l109 510l-184 -150v111l210 172l168 787h127l-141 -666l389 307v-110l-418 -330l-108 -512h465z" />
    <glyph glyph-name="lslash" unicode="&#x142;" horiz-adv-x="417" 
d="M117 0h-119l135 647h-4l-168 -170v111l205 205l158 743h118l-127 -594h4l170 166v-111l-204 -200z" />
    <glyph glyph-name="Nacute" unicode="&#x143;" horiz-adv-x="1214" 
d="M899 0h-162l-336 1262h-4l-266 -1262h-119l303 1430h160l334 -1270h4l270 1270h119zM791 1489h-109l199 291h149z" />
    <glyph glyph-name="nacute" unicode="&#x144;" 
d="M657 0h-118l120 571l15 70t13.5 65t8.5 51.5t4 49.5q0 67 -40.5 104t-114.5 37q-100 0 -186 -80.5t-117 -228.5l-136 -639h-118l151 723q12 59 36 185.5t26 135.5h110q-3 -29 -18 -118l-6 -35h4q107 168 287 168q112 0 176.5 -62.5t64.5 -171.5q0 -47 -16 -135zM596 1200
h-109l199 291h150z" />
    <glyph glyph-name="Ncommaaccent" unicode="&#x145;" horiz-adv-x="1214" 
d="M899 0h-162l-336 1262h-4l-266 -1262h-119l303 1430h160l334 -1270h4l270 1270h119zM381 -455h-107l105 291h141z" />
    <glyph glyph-name="ncommaaccent" unicode="&#x146;" 
d="M657 0h-118l120 571l15 70t13.5 65t8.5 51.5t4 49.5q0 67 -40.5 104t-114.5 37q-100 0 -186 -80.5t-117 -228.5l-136 -639h-118l151 723q12 59 36 185.5t26 135.5h110q-3 -29 -18 -118l-6 -35h4q107 168 287 168q112 0 176.5 -62.5t64.5 -171.5q0 -47 -16 -135zM225 -455
h-106l104 291h142z" />
    <glyph glyph-name="Ncaron" unicode="&#x147;" horiz-adv-x="1214" 
d="M899 0h-162l-336 1262h-4l-266 -1262h-119l303 1430h160l334 -1270h4l270 1270h119zM840 1489h-119l-137 291h112l97 -209l182 209h125z" />
    <glyph glyph-name="ncaron" unicode="&#x148;" 
d="M657 0h-118l120 571l15 70t13.5 65t8.5 51.5t4 49.5q0 67 -40.5 104t-114.5 37q-100 0 -186 -80.5t-117 -228.5l-136 -639h-118l151 723q12 59 36 185.5t26 135.5h110q-3 -29 -18 -118l-6 -35h4q107 168 287 168q112 0 176.5 -62.5t64.5 -171.5q0 -47 -16 -135zM629 1200
h-119l-137 291h112l97 -209l182 209h125z" />
    <glyph glyph-name="napostrophe" unicode="&#x149;" horiz-adv-x="1030" 
d="M739 0h-118l120 571l15 70t13.5 65t8.5 51.5t4 49.5q0 67 -40.5 104t-114.5 37q-100 0 -186 -80.5t-117 -228.5l-136 -639h-118l151 723q12 59 36 185.5t26 135.5h110q-3 -29 -18 -118l-6 -35h4q107 168 286 168q112 0 177 -62.5t65 -171.5q0 -47 -16 -135zM164 1081
h-113l154 455h145z" />
    <glyph glyph-name="Omacron" unicode="&#x14c;" horiz-adv-x="1216" 
d="M469 -14q-185 0 -289 119t-104 327q0 150 29.5 296.5t88 275t138.5 227.5t187.5 156t228.5 57q187 0 290 -120t103 -331q0 -142 -28 -284.5t-85 -272.5t-135.5 -230.5t-188.5 -160t-235 -59.5zM473 104q83 0 158 38t132.5 103t104 152t76.5 186.5t46 204t16 205.5
q0 155 -70.5 243.5t-194.5 88.5q-99 0 -186 -55t-149 -145.5t-106.5 -206.5t-66.5 -239.5t-22 -242.5q0 -155 69.5 -243.5t192.5 -88.5zM1032 1587h-487l20 94h488z" />
    <glyph glyph-name="omacron" unicode="&#x14d;" horiz-adv-x="950" 
d="M338 -14q-152 0 -232.5 95t-80.5 265q0 130 35.5 256.5t98 228.5t159.5 165t210 63q152 0 234 -96.5t82 -270.5q0 -88 -19 -182.5t-60 -188.5t-99 -168t-143 -120.5t-185 -46.5zM350 96q81 0 151 53t116.5 139t73 193t26.5 217q0 122 -50.5 186t-144.5 64q-85 0 -157 -55
t-117.5 -143t-70.5 -193.5t-25 -210.5q0 -250 198 -250zM825 1298h-487l20 95h488z" />
    <glyph glyph-name="Obreve" unicode="&#x14e;" horiz-adv-x="1216" 
d="M469 -14q-185 0 -289 119t-104 327q0 150 29.5 296.5t88 275t138.5 227.5t187.5 156t228.5 57q187 0 290 -120t103 -331q0 -142 -28 -284.5t-85 -272.5t-135.5 -230.5t-188.5 -160t-235 -59.5zM473 104q83 0 158 38t132.5 103t104 152t76.5 186.5t46 204t16 205.5
q0 155 -70.5 243.5t-194.5 88.5q-99 0 -186 -55t-149 -145.5t-106.5 -206.5t-66.5 -239.5t-22 -242.5q0 -155 69.5 -243.5t192.5 -88.5zM987 1757h82q-62 -250 -278 -250q-99 0 -156 58t-57 143q0 17 4 49h82v-14q0 -68 35.5 -104.5t99.5 -36.5q137 0 188 155z" />
    <glyph glyph-name="obreve" unicode="&#x14f;" horiz-adv-x="950" 
d="M338 -14q-152 0 -232.5 95t-80.5 265q0 130 35.5 256.5t98 228.5t159.5 165t210 63q152 0 234 -96.5t82 -270.5q0 -88 -19 -182.5t-60 -188.5t-99 -168t-143 -120.5t-185 -46.5zM350 96q81 0 151 53t116.5 139t73 193t26.5 217q0 122 -50.5 186t-144.5 64q-85 0 -157 -55
t-117.5 -143t-70.5 -193.5t-25 -210.5q0 -250 198 -250zM782 1468h82q-31 -123 -101.5 -186t-176.5 -63q-97 0 -155 57t-58 149q0 19 4 43h82v-12q0 -68 35 -105.5t100 -37.5q67 0 116 40.5t72 114.5z" />
    <glyph glyph-name="Ohungarumlaut" unicode="&#x150;" horiz-adv-x="1216" 
d="M469 -14q-185 0 -289 119t-104 327q0 150 29.5 296.5t88 275t138.5 227.5t187.5 156t228.5 57q187 0 290 -120t103 -331q0 -142 -28 -284.5t-85 -272.5t-135.5 -230.5t-188.5 -160t-235 -59.5zM473 104q83 0 158 38t132.5 103t104 152t76.5 186.5t46 204t16 205.5
q0 155 -70.5 243.5t-194.5 88.5q-99 0 -186 -55t-149 -145.5t-106.5 -206.5t-66.5 -239.5t-22 -242.5q0 -155 69.5 -243.5t192.5 -88.5zM639 1489h-100l178 291h141zM926 1489h-101l179 291h141z" />
    <glyph glyph-name="ohungarumlaut" unicode="&#x151;" horiz-adv-x="950" 
d="M338 -14q-152 0 -232.5 95t-80.5 265q0 130 35.5 256.5t98 228.5t159.5 165t210 63q152 0 234 -96.5t82 -270.5q0 -88 -19 -182.5t-60 -188.5t-99 -168t-143 -120.5t-185 -46.5zM350 96q81 0 151 53t116.5 139t73 193t26.5 217q0 122 -50.5 186t-144.5 64q-85 0 -157 -55
t-117.5 -143t-70.5 -193.5t-25 -210.5q0 -250 198 -250zM455 1200h-101l178 291h142zM741 1200h-100l178 291h142z" />
    <glyph glyph-name="OE" unicode="&#x152;" horiz-adv-x="1517" 
d="M1249 0h-569q-16 0 -75 -7t-85 -7q-210 0 -329 129.5t-119 355.5q0 91 12.5 184.5t39.5 189.5t67 183t99.5 163.5t131.5 132t167 88t204 32.5q24 0 94.5 -7t95.5 -7h547l-25 -119h-446l-109 -508h424l-26 -119h-424l-119 -565h469zM678 119l254 1192q-61 14 -164 14
q-133 0 -243 -73.5t-179.5 -194t-107 -270t-37.5 -308.5q0 -174 85.5 -274.5t237.5 -100.5q84 0 154 15z" />
    <glyph glyph-name="oe" unicode="&#x153;" horiz-adv-x="1517" 
d="M1296 182l-22 -137q-109 -59 -250 -59q-258 0 -319 223q-152 -223 -363 -223q-156 0 -236.5 95t-80.5 271q0 174 63 335.5t180 266.5t258 105q114 0 189.5 -61t105.5 -169q146 230 336 230q130 0 205.5 -81t75.5 -226q0 -129 -35 -269h-586q-12 -53 -12 -125
q0 -128 57.5 -195t169.5 -67q68 0 141.5 24t122.5 62zM346 96q81 0 152.5 54.5t119 141.5t74.5 193.5t27 212.5q0 250 -199 250q-105 0 -191 -90t-131.5 -227t-45.5 -285q0 -124 50 -187t144 -63zM840 594h460q15 92 15 158q0 96 -43.5 146t-120.5 50q-100 0 -182 -92.5
t-129 -261.5z" />
    <glyph glyph-name="Racute" unicode="&#x154;" horiz-adv-x="1024" 
d="M805 0h-133l-86 502q-14 84 -46.5 124t-93.5 40h-165l-142 -666h-127l303 1430h267q160 0 258 -81.5t98 -220.5q0 -160 -88.5 -269t-253.5 -142v-4q43 -18 68 -50t36 -92zM305 784h180q134 0 226 95.5t92 240.5q0 94 -63.5 142.5t-170.5 48.5h-151zM633 1489h-109
l199 291h149z" />
    <glyph glyph-name="racute" unicode="&#x155;" horiz-adv-x="569" 
d="M106 0h-118l151 719q8 37 62 325h110l-26 -165h4q74 108 132.5 144t170.5 36h6l-25 -127q-138 0 -216.5 -62.5t-106.5 -193.5zM461 1200h-109l199 291h149z" />
    <glyph glyph-name="Rcommaaccent" unicode="&#x156;" horiz-adv-x="1024" 
d="M805 0h-133l-86 502q-14 84 -46.5 124t-93.5 40h-165l-142 -666h-127l303 1430h267q160 0 258 -81.5t98 -220.5q0 -160 -88.5 -269t-253.5 -142v-4q43 -18 68 -50t36 -92zM305 784h180q134 0 226 95.5t92 240.5q0 94 -63.5 142.5t-170.5 48.5h-151zM313 -455h-106
l104 291h142z" />
    <glyph glyph-name="rcommaaccent" unicode="&#x157;" horiz-adv-x="569" 
d="M106 0h-118l151 719q8 37 62 325h110l-26 -165h4q74 108 132.5 144t170.5 36h6l-25 -127q-138 0 -216.5 -62.5t-106.5 -193.5zM-49 -455h-107l105 291h141z" />
    <glyph glyph-name="Rcaron" unicode="&#x158;" horiz-adv-x="1024" 
d="M805 0h-133l-86 502q-14 84 -46.5 124t-93.5 40h-165l-142 -666h-127l303 1430h267q160 0 258 -81.5t98 -220.5q0 -160 -88.5 -269t-253.5 -142v-4q43 -18 68 -50t36 -92zM305 784h180q134 0 226 95.5t92 240.5q0 94 -63.5 142.5t-170.5 48.5h-151zM676 1489h-119
l-137 291h112l97 -209l182 209h125z" />
    <glyph glyph-name="rcaron" unicode="&#x159;" horiz-adv-x="569" 
d="M106 0h-118l151 719q8 37 62 325h110l-26 -165h4q74 108 132.5 144t170.5 36h6l-25 -127q-138 0 -216.5 -62.5t-106.5 -193.5zM496 1200h-119l-137 291h112l97 -209l182 209h125z" />
    <glyph glyph-name="Sacute" unicode="&#x15a;" horiz-adv-x="872" 
d="M-20 53l38 148q102 -97 252 -97q136 0 216.5 84.5t80.5 225.5q0 78 -45 147t-149 152q-195 155 -195 331q0 185 110 292.5t304 107.5q105 0 250 -45l-37 -144q-107 70 -221 70q-126 0 -198.5 -69.5t-72.5 -192.5q0 -67 35 -122t115 -124q127 -109 183 -195.5t56 -191.5
q0 -200 -117.5 -322t-318.5 -122q-181 0 -286 67zM604 1489h-108l198 291h150z" />
    <glyph glyph-name="sacute" unicode="&#x15b;" horiz-adv-x="720" 
d="M-66 35l46 133q31 -29 97.5 -50.5t129.5 -21.5q95 0 156 53.5t61 139.5q0 61 -33.5 105.5t-114.5 94.5q-86 53 -129 115.5t-43 145.5q0 141 91 225t243 84q66 0 126.5 -10t82.5 -21l-43 -123q-91 43 -170 43q-92 0 -147.5 -52t-55.5 -134q0 -54 31 -94.5t96 -83.5
q108 -71 150.5 -132t42.5 -147q0 -147 -95.5 -233t-256.5 -86q-78 0 -136 11t-129 38zM469 1200h-109l199 291h150z" />
    <glyph glyph-name="Scircumflex" unicode="&#x15c;" horiz-adv-x="872" 
d="M-20 53l38 148q102 -97 252 -97q136 0 216.5 84.5t80.5 225.5q0 78 -45 147t-149 152q-195 155 -195 331q0 185 110 292.5t304 107.5q105 0 250 -45l-37 -144q-107 70 -221 70q-126 0 -198.5 -69.5t-72.5 -192.5q0 -67 35 -122t115 -124q127 -109 183 -195.5t56 -191.5
q0 -200 -117.5 -322t-318.5 -122q-181 0 -286 67zM842 1489h-111l-94 209l-184 -209h-127l260 291h119z" />
    <glyph glyph-name="scircumflex" unicode="&#x15d;" horiz-adv-x="720" 
d="M-66 35l46 133q31 -29 97.5 -50.5t129.5 -21.5q95 0 156 53.5t61 139.5q0 61 -33.5 105.5t-114.5 94.5q-86 53 -129 115.5t-43 145.5q0 141 91 225t243 84q66 0 126.5 -10t82.5 -21l-43 -123q-91 43 -170 43q-92 0 -147.5 -52t-55.5 -134q0 -54 31 -94.5t96 -83.5
q108 -71 150.5 -132t42.5 -147q0 -147 -95.5 -233t-256.5 -86q-78 0 -136 11t-129 38zM702 1200h-110l-94 209l-185 -209h-127l260 291h119z" />
    <glyph glyph-name="Scedilla" unicode="&#x15e;" horiz-adv-x="872" 
d="M14 -377l33 58q82 -29 121 -29q139 0 139 102q0 35 -24.5 56.5t-57.5 21.5q-38 0 -100 -27l-21 29l134 152q-173 13 -258 67l38 148q102 -97 252 -97q136 0 216.5 84.5t80.5 225.5q0 78 -45 147t-149 152q-195 155 -195 331q0 185 110 292.5t304 107.5q105 0 250 -45
l-37 -144q-107 70 -221 70q-126 0 -198.5 -69.5t-72.5 -192.5q0 -67 35 -122t115 -124q127 -109 183 -195.5t56 -191.5q0 -183 -104.5 -305t-286.5 -137l-92 -101l2 -4q21 8 51 8q66 0 107 -35t41 -89q0 -83 -69 -130t-179 -47t-158 33z" />
    <glyph glyph-name="scedilla" unicode="&#x15f;" horiz-adv-x="720" 
d="M-57 -377l32 58q79 -29 119 -29q142 0 142 102q0 35 -24 56.5t-58 21.5q-42 0 -101 -27l-20 29l133 152q-139 9 -232 49l46 133q31 -29 96.5 -50.5t126.5 -21.5q98 0 159.5 53.5t61.5 139.5q0 61 -33.5 105.5t-114.5 94.5q-86 53 -129 115.5t-43 145.5q0 141 91 225
t243 84q47 0 117.5 -11t91.5 -20l-43 -123q-91 43 -170 43q-92 0 -147.5 -52t-55.5 -134q0 -54 31.5 -94.5t97.5 -83.5q108 -70 149.5 -131.5t41.5 -147.5q0 -132 -82.5 -218.5t-228.5 -98.5l-93 -101l3 -4q21 8 53 8q65 0 105 -34.5t40 -89.5q0 -81 -69 -129t-179 -48
q-107 0 -157 33z" />
    <glyph glyph-name="Scaron" unicode="&#x160;" horiz-adv-x="872" 
d="M-20 53l38 148q102 -97 252 -97q136 0 216.5 84.5t80.5 225.5q0 78 -45 147t-149 152q-195 155 -195 331q0 185 110 292.5t304 107.5q105 0 250 -45l-37 -144q-107 70 -221 70q-126 0 -198.5 -69.5t-72.5 -192.5q0 -67 35 -122t115 -124q127 -109 183 -195.5t56 -191.5
q0 -200 -117.5 -322t-318.5 -122q-181 0 -286 67zM643 1489h-119l-137 291h113l96 -209l182 209h125z" />
    <glyph glyph-name="scaron" unicode="&#x161;" horiz-adv-x="720" 
d="M-66 35l46 133q31 -29 97.5 -50.5t129.5 -21.5q95 0 156 53.5t61 139.5q0 61 -33.5 105.5t-114.5 94.5q-86 53 -129 115.5t-43 145.5q0 141 91 225t243 84q66 0 126.5 -10t82.5 -21l-43 -123q-91 43 -170 43q-92 0 -147.5 -52t-55.5 -134q0 -54 31 -94.5t96 -83.5
q108 -71 150.5 -132t42.5 -147q0 -147 -95.5 -233t-256.5 -86q-78 0 -136 11t-129 38zM504 1200h-119l-137 291h112l97 -209l182 209h125z" />
    <glyph glyph-name="Tcommaaccent" unicode="&#x162;" horiz-adv-x="872" 
d="M348 0h-127l279 1311h-332l25 119h790l-25 -119h-331zM178 -455h-106l104 291h141z" />
    <glyph glyph-name="tcommaaccent" unicode="&#x163;" horiz-adv-x="569" 
d="M397 119l-24 -119q-43 -14 -111 -14q-84 0 -133 46.5t-49 125.5q0 27 8 73l150 703h-156l24 110h156l45 209l125 37l-51 -246h213l-25 -110h-213l-139 -662q-12 -59 -12 -102q0 -29 20.5 -51.5t69.5 -22.5q60 0 102 23zM84 -455h-107l105 291h141z" />
    <glyph glyph-name="Tcaron" unicode="&#x164;" horiz-adv-x="872" 
d="M348 0h-127l279 1311h-332l25 119h790l-25 -119h-331zM653 1489h-118l-138 291h113l96 -209l182 209h125z" />
    <glyph glyph-name="tcaron" unicode="&#x165;" horiz-adv-x="569" 
d="M397 119l-24 -119q-43 -14 -111 -14q-84 0 -133 46.5t-49 125.5q0 27 8 73l150 703h-156l24 110h156l45 209l125 37l-51 -246h213l-25 -110h-213l-139 -662q-12 -59 -12 -102q0 -29 20.5 -51.5t69.5 -22.5q60 0 102 23zM625 1155h-88l81 336h123z" />
    <glyph glyph-name="Tbar" unicode="&#x166;" horiz-adv-x="872" 
d="M348 0h-127l191 905h-252l20 94h252l68 312h-332l25 119h790l-25 -119h-331l-68 -312h250l-21 -94h-249z" />
    <glyph glyph-name="tbar" unicode="&#x167;" horiz-adv-x="569" 
d="M397 119l-24 -119q-43 -14 -111 -14q-84 0 -133 46.5t-49 125.5q0 27 8 73l86 406h-129l18 86h130l45 211h-156l24 110h156l45 209l125 37l-51 -246h213l-25 -110h-213l-45 -211h191l-19 -86h-190l-76 -365q-12 -59 -12 -102q0 -29 20.5 -51.5t69.5 -22.5q60 0 102 23z
" />
    <glyph glyph-name="Utilde" unicode="&#x168;" horiz-adv-x="1175" 
d="M850 557l186 873h127l-190 -900q-60 -279 -177 -411.5t-323 -132.5q-179 0 -274 95t-95 273q0 82 13 146l198 930h127l-198 -932q-13 -60 -13 -136q0 -124 63.5 -191t182.5 -67q76 0 134 25t94.5 62.5t66 102t45 121t33.5 142.5zM979 1741h86q-50 -203 -180 -203
q-36 0 -80 22.5t-82.5 45t-60.5 22.5q-35 0 -59 -21.5t-40 -78.5h-86q27 100 72 151.5t115 51.5q43 0 121.5 -45.5t101.5 -45.5q71 0 92 101z" />
    <glyph glyph-name="utilde" unicode="&#x169;" 
d="M664 0h-111q2 37 25 154h-5q-51 -85 -118 -126.5t-164 -41.5q-117 0 -179.5 60t-62.5 173q0 48 17 135l145 690h119l-150 -702q-12 -66 -12 -102q0 -68 40.5 -106t113.5 -38q106 0 187 83.5t105 191.5l144 673h119l-152 -720q-4 -19 -10.5 -53.5t-20 -107.5t-30.5 -163z
M784 1452h86q-51 -203 -180 -203q-36 0 -80 22.5t-82.5 45t-60.5 22.5q-34 0 -57 -21.5t-41 -78.5h-86q27 101 71.5 152t114.5 51q46 0 123 -45t100 -45q71 0 92 100z" />
    <glyph glyph-name="Umacron" unicode="&#x16a;" horiz-adv-x="1175" 
d="M850 557l186 873h127l-190 -900q-60 -279 -177 -411.5t-323 -132.5q-179 0 -274 95t-95 273q0 82 13 146l198 930h127l-198 -932q-13 -60 -13 -136q0 -124 63.5 -191t182.5 -67q76 0 134 25t94.5 62.5t66 102t45 121t33.5 142.5zM1008 1587h-488l21 94h487z" />
    <glyph glyph-name="umacron" unicode="&#x16b;" 
d="M664 0h-111q2 37 25 154h-5q-51 -85 -118 -126.5t-164 -41.5q-117 0 -179.5 60t-62.5 173q0 48 17 135l145 690h119l-150 -702q-12 -66 -12 -102q0 -68 40.5 -106t113.5 -38q106 0 187 83.5t105 191.5l144 673h119l-152 -720q-4 -19 -10.5 -53.5t-20 -107.5t-30.5 -163z
M831 1298h-487l21 95h487z" />
    <glyph glyph-name="Ubreve" unicode="&#x16c;" horiz-adv-x="1175" 
d="M850 557l186 873h127l-190 -900q-60 -279 -177 -411.5t-323 -132.5q-179 0 -274 95t-95 273q0 82 13 146l198 930h127l-198 -932q-13 -60 -13 -136q0 -124 63.5 -191t182.5 -67q76 0 134 25t94.5 62.5t66 102t45 121t33.5 142.5zM961 1757h81q-62 -250 -278 -250
q-99 0 -156 58t-57 143q0 17 4 49h82v-14q0 -68 35.5 -104.5t99.5 -36.5q67 0 115.5 40t73.5 115z" />
    <glyph glyph-name="ubreve" unicode="&#x16d;" 
d="M664 0h-111q2 37 25 154h-5q-51 -85 -118 -126.5t-164 -41.5q-117 0 -179.5 60t-62.5 173q0 48 17 135l145 690h119l-150 -702q-12 -66 -12 -102q0 -68 40.5 -106t113.5 -38q106 0 187 83.5t105 191.5l144 673h119l-152 -720q-4 -19 -10.5 -53.5t-20 -107.5t-30.5 -163z
M762 1468h82q-31 -123 -102 -186t-177 -63q-97 0 -155 57t-58 149q0 19 4 43h82v-12q0 -68 35 -105.5t100 -37.5q67 0 116.5 40.5t72.5 114.5z" />
    <glyph glyph-name="Uring" unicode="&#x16e;" horiz-adv-x="1175" 
d="M850 557l186 873h127l-190 -900q-60 -279 -177 -411.5t-323 -132.5q-179 0 -274 95t-95 273q0 82 13 146l198 930h127l-198 -932q-13 -60 -13 -136q0 -124 63.5 -191t182.5 -67q76 0 134 25t94.5 62.5t66 102t45 121t33.5 142.5zM758 1473q-78 0 -128 48.5t-50 123.5
q0 98 63.5 161.5t161.5 63.5q78 0 128 -48.5t50 -123.5q0 -97 -63.5 -161t-161.5 -64zM760 1540q62 0 104.5 45t42.5 109q0 44 -30 76t-76 32q-61 0 -103.5 -44t-42.5 -109q0 -45 30.5 -77t74.5 -32z" />
    <glyph glyph-name="uring" unicode="&#x16f;" 
d="M664 0h-111q2 37 25 154h-5q-51 -85 -118 -126.5t-164 -41.5q-117 0 -179.5 60t-62.5 173q0 48 17 135l145 690h119l-150 -702q-12 -66 -12 -102q0 -68 40.5 -106t113.5 -38q106 0 187 83.5t105 191.5l144 673h119l-152 -720q-4 -19 -10.5 -53.5t-20 -107.5t-30.5 -163z
M573 1163q-78 0 -128 48.5t-50 123.5q0 97 64.5 161.5t161.5 64.5q79 0 128.5 -49t49.5 -123q0 -98 -64 -162t-162 -64zM575 1231q61 0 104.5 45t43.5 108q0 43 -30.5 76t-74.5 33q-62 0 -104.5 -44t-42.5 -110q0 -47 29.5 -77.5t74.5 -30.5z" />
    <glyph glyph-name="Uhungarumlaut" unicode="&#x170;" horiz-adv-x="1175" 
d="M850 557l186 873h127l-190 -900q-60 -279 -177 -411.5t-323 -132.5q-179 0 -274 95t-95 273q0 82 13 146l198 930h127l-198 -932q-13 -60 -13 -136q0 -124 63.5 -191t182.5 -67q76 0 134 25t94.5 62.5t66 102t45 121t33.5 142.5zM633 1489h-101l179 291h141zM920 1489
h-101l178 291h142z" />
    <glyph glyph-name="uhungarumlaut" unicode="&#x171;" 
d="M664 0h-111q2 37 25 154h-5q-51 -85 -118 -126.5t-164 -41.5q-117 0 -179.5 60t-62.5 173q0 48 17 135l145 690h119l-150 -702q-12 -66 -12 -102q0 -68 40.5 -106t113.5 -38q106 0 187 83.5t105 191.5l144 673h119l-152 -720q-4 -19 -10.5 -53.5t-20 -107.5t-30.5 -163z
M471 1200h-100l178 291h141zM758 1200h-101l179 291h141z" />
    <glyph glyph-name="Uogonek" unicode="&#x172;" horiz-adv-x="1175" 
d="M537 -324l16 -51q-69 -35 -131 -35q-88 0 -139.5 37.5t-51.5 108.5q0 146 218 250q-167 8 -256 102t-89 270q0 78 13 138l198 934h127l-198 -930q-13 -60 -13 -138q0 -123 64 -190.5t182 -67.5q141 0 227.5 87t131.5 303l200 936h127l-190 -898q-57 -272 -161.5 -395.5
t-262.5 -144.5q-197 -115 -197 -248q0 -42 26 -67t60 -25q47 0 99 24z" />
    <glyph glyph-name="uogonek" unicode="&#x173;" 
d="M633 -324l16 -51q-71 -35 -131 -35q-89 0 -139.5 37.5t-50.5 108.5q0 80 60.5 144.5t189.5 119.5h-25q2 35 25 154h-5q-51 -85 -118 -126.5t-164 -41.5q-117 0 -179.5 60t-62.5 173q0 48 17 135l145 690h119l-150 -698q-12 -50 -12 -106q0 -68 40.5 -106t115.5 -38
q102 0 184.5 83.5t105.5 191.5l144 673h119l-152 -720q-21 -98 -31 -158l-30 -166q-97 -49 -156 -117t-59 -139q0 -41 25.5 -66.5t62.5 -25.5q41 0 96 24z" />
    <glyph glyph-name="Wcircumflex" unicode="&#x174;" horiz-adv-x="1593" 
d="M1092 0h-162l-23 1284h-4l-555 -1284h-155l-29 1430h131l4 -1278h4l549 1278h174l16 -1278h5l530 1278h131zM1188 1489h-111l-94 209l-184 -209h-127l260 291h119z" />
    <glyph glyph-name="wcircumflex" unicode="&#x175;" horiz-adv-x="1327" 
d="M881 0h-150l-43 909h-4l-391 -909h-143l-70 1044h123l39 -917h4l389 917h153l48 -917h4l399 917h123zM991 1200h-110l-95 209l-184 -209h-127l260 291h119z" />
    <glyph glyph-name="Ycircumflex" unicode="&#x176;" horiz-adv-x="1024" 
d="M420 0h-127l131 618l-197 812h129l154 -691l424 691h141l-524 -812zM924 1489h-111l-94 209l-184 -209h-127l260 291h118z" />
    <glyph glyph-name="ycircumflex" unicode="&#x177;" horiz-adv-x="757" 
d="M59 -240l103 213l-86 1071h123l59 -868h4l408 868h123l-586 -1220q-78 -161 -137.5 -220t-143.5 -59q-54 0 -98 13l29 120q28 -22 80 -22q71 0 122 104zM719 1200h-111l-94 209l-184 -209h-127l260 291h119z" />
    <glyph glyph-name="Ydieresis" unicode="&#x178;" horiz-adv-x="1024" 
d="M420 0h-127l131 618l-197 812h129l154 -691l424 691h141l-524 -812zM582 1546h-119l43 201h119zM889 1546h-119l43 201h119z" />
    <glyph glyph-name="Zacute" unicode="&#x179;" horiz-adv-x="909" 
d="M680 0h-758l23 127l854 1184h-582l25 119h723l-23 -123l-856 -1188h619zM629 1489h-109l199 291h149z" />
    <glyph glyph-name="zacute" unicode="&#x17a;" horiz-adv-x="757" 
d="M541 0h-633l22 119l662 815h-473l24 110h609l-23 -118l-663 -815h497zM502 1200h-109l199 291h149z" />
    <glyph glyph-name="Zdotaccent" unicode="&#x17b;" horiz-adv-x="909" 
d="M680 0h-758l23 127l854 1184h-582l25 119h723l-23 -123l-856 -1188h619zM678 1546h-119l43 201h119z" />
    <glyph glyph-name="zdotaccent" unicode="&#x17c;" horiz-adv-x="757" 
d="M541 0h-633l22 119l662 815h-473l24 110h609l-23 -118l-663 -815h497zM553 1257h-119l43 201h119z" />
    <glyph glyph-name="Zcaron" unicode="&#x17d;" horiz-adv-x="909" 
d="M680 0h-758l23 127l854 1184h-582l25 119h723l-23 -123l-856 -1188h619zM662 1489h-119l-137 291h112l96 -209l183 209h125z" />
    <glyph glyph-name="zcaron" unicode="&#x17e;" horiz-adv-x="757" 
d="M541 0h-633l22 119l662 815h-473l24 110h609l-23 -118l-663 -815h497zM545 1200h-119l-137 291h112l97 -209l182 209h125z" />
    <glyph glyph-name="florin" unicode="&#x192;" horiz-adv-x="983" 
d="M-39 -434l23 123q7 -2 18.5 -6t17.5 -6t16 -3.5t19 -1.5q86 0 128 71.5t75 244.5l160 753h-178v103h200l43 205q44 211 118 303t194 92q34 0 55.5 -4.5t60.5 -22.5l-24 -117q-39 33 -94 33q-114 0 -164 -219l-62 -270h185v-103h-207l-160 -761q-51 -244 -126 -339.5
t-204 -95.5q-45 0 -94 21z" />
    <glyph glyph-name="Scommaaccent" unicode="&#x218;" horiz-adv-x="872" 
d="M-20 53l38 148q102 -97 252 -97q136 0 216.5 84.5t80.5 225.5q0 78 -45 147t-149 152q-195 155 -195 331q0 185 110 292.5t304 107.5q105 0 250 -45l-37 -144q-107 70 -221 70q-126 0 -198.5 -69.5t-72.5 -192.5q0 -67 35 -122t115 -124q127 -109 183 -195.5t56 -191.5
q0 -200 -117.5 -322t-318.5 -122q-181 0 -286 67zM203 -455h-107l105 291h141z" />
    <glyph glyph-name="scommaaccent" unicode="&#x219;" horiz-adv-x="720" 
d="M-66 35l46 133q31 -29 97.5 -50.5t129.5 -21.5q95 0 156 53.5t61 139.5q0 61 -33.5 105.5t-114.5 94.5q-86 53 -129 115.5t-43 145.5q0 141 91 225t243 84q66 0 126.5 -10t82.5 -21l-43 -123q-91 43 -170 43q-92 0 -147.5 -52t-55.5 -134q0 -54 31 -94.5t96 -83.5
q108 -71 150.5 -132t42.5 -147q0 -147 -95.5 -233t-256.5 -86q-78 0 -136 11t-129 38zM133 -455h-106l104 291h141z" />
    <glyph glyph-name="uni021A" unicode="&#x21a;" horiz-adv-x="872" 
d="M348 0h-127l279 1311h-332l25 119h790l-25 -119h-331zM178 -455h-106l104 291h141z" />
    <glyph glyph-name="uni021B" unicode="&#x21b;" horiz-adv-x="569" 
d="M397 119l-24 -119q-43 -14 -111 -14q-84 0 -133 46.5t-49 125.5q0 27 8 73l150 703h-156l24 110h156l45 209l125 37l-51 -246h213l-25 -110h-213l-139 -662q-12 -59 -12 -102q0 -29 20.5 -51.5t69.5 -22.5q60 0 102 23zM84 -455h-107l105 291h141z" />
    <glyph glyph-name="dotlessj" unicode="&#x237;" horiz-adv-x="417" 
d="M-262 -442l24 118q16 -12 60 -12q60 0 89 31t44 106l264 1243h119l-264 -1247q-27 -128 -88.5 -190t-167.5 -62q-45 0 -80 13z" />
    <glyph glyph-name="circumflex" unicode="&#x2c6;" horiz-adv-x="380" 
d="M541 1200h-111l-94 209l-184 -209h-127l260 291h118z" />
    <glyph glyph-name="caron" unicode="&#x2c7;" horiz-adv-x="380" 
d="M342 1200h-119l-137 291h113l96 -209l182 209h125z" />
    <glyph glyph-name="uni02C9" unicode="&#x2c9;" horiz-adv-x="380" 
d="M547 1298h-488l21 95h487z" />
    <glyph glyph-name="breve" unicode="&#x2d8;" horiz-adv-x="380" 
d="M502 1468h82q-31 -123 -102 -186t-177 -63q-97 0 -155 57t-58 149q0 19 4 43h82v-12q0 -68 35 -105.5t100 -37.5q67 0 116.5 40.5t72.5 114.5z" />
    <glyph glyph-name="dotaccent" unicode="&#x2d9;" horiz-adv-x="380" 
d="M354 1257h-118l43 201h118z" />
    <glyph glyph-name="ring" unicode="&#x2da;" horiz-adv-x="380" 
d="M295 1163q-78 0 -128 48.5t-50 123.5q0 97 64 161.5t161 64.5q79 0 128.5 -49t49.5 -123q0 -98 -63.5 -162t-161.5 -64zM297 1231q61 0 104 45t43 108q0 44 -30.5 76.5t-73.5 32.5q-62 0 -104.5 -44t-42.5 -110q0 -47 29.5 -77.5t74.5 -30.5z" />
    <glyph glyph-name="ogonek" unicode="&#x2db;" horiz-adv-x="380" 
d="M121 -324l16 -51q-71 -35 -131 -35q-89 0 -139.5 37.5t-50.5 108.5q0 80 60.5 144.5t189.5 119.5h84q-103 -56 -158 -121.5t-55 -134.5q0 -41 25.5 -66.5t62.5 -25.5q41 0 96 24z" />
    <glyph glyph-name="tilde" unicode="&#x2dc;" horiz-adv-x="380" 
d="M524 1452h86q-51 -203 -180 -203q-36 0 -80 22.5t-82.5 45t-60.5 22.5q-34 0 -57 -21.5t-41 -78.5h-86q27 101 71.5 152t114.5 51q46 0 123 -45t100 -45q71 0 92 100z" />
    <glyph glyph-name="hungarumlaut" unicode="&#x2dd;" horiz-adv-x="380" 
d="M166 1200h-100l178 291h141zM453 1200h-101l178 291h142z" />
    <glyph glyph-name="uni0394" unicode="&#x394;" horiz-adv-x="1120" 
d="M942 0h-1067l723 1430h129zM799 113l-158 1185h-4l-569 -1185h731z" />
    <glyph glyph-name="uni03A9" unicode="&#x3a9;" horiz-adv-x="1234" 
d="M1008 0h-396l25 119q183 154 286 370t103 437q0 193 -72 303t-209 110q-133 0 -246 -96.5t-179 -264.5t-66 -368q0 -137 41.5 -265.5t118.5 -225.5l-15 -119h-389l21 113h233q-141 185 -141 491q0 190 54 353t142 270t199 167t227 60q202 0 307 -139.5t105 -386.5
q0 -232 -99.5 -446t-271.5 -369h242z" />
    <glyph glyph-name="uni03BC" unicode="&#x3bc;" horiz-adv-x="980" 
d="M840 109l-19 -109q-30 -12 -80 -12q-54 0 -80 34.5t-26 110.5q0 33 6 76h-4q-60 -110 -126.5 -165.5t-150.5 -55.5q-149 0 -176 139h-6q-3 -79 -26 -223l-56 -334h-121q22 137 250 1470h117l-88 -514q-25 -144 -25 -217q0 -213 152 -213q79 0 138.5 60.5t109.5 177.5
q13 31 24 73.5t16.5 74.5t15.5 93.5t15 92.5l64 372h121l-129 -757q-8 -53 -8 -109q0 -40 12 -57t41 -17q12 0 39 9z" />
    <glyph glyph-name="pi" unicode="&#x3c0;" horiz-adv-x="997" 
d="M842 119l-17 -109q-12 -8 -49.5 -16t-64.5 -8q-131 0 -131 131q0 19 8 73l131 746h-381l-164 -936h-119l164 936h-147l18 104h914l-19 -104h-147l-125 -709q-8 -54 -8 -63q0 -70 57 -70q38 0 80 25z" />
    <glyph glyph-name="uni1E9E" unicode="&#x1e9e;" horiz-adv-x="1079" 
d="M274 41l37 147q37 -40 95 -62t108 -22q124 0 198 82.5t74 214.5q0 115 -112 281q-2 3 -20 29t-21 31t-18 28t-19 30.5t-15.5 28.5t-15 31.5t-11 29.5t-10 33t-5 31.5t-2.5 34.5q0 118 70.5 207t195.5 137q-31 4 -82 4q-158 0 -255.5 -83t-129.5 -244l-209 -1010h-127
l217 1022q44 210 178 316t346 106q109 0 267 -21l-25 -114q-128 -13 -219.5 -93.5t-91.5 -199.5q0 -21 5.5 -44.5t12.5 -41.5t22.5 -45.5t25 -42t31 -47.5t30.5 -47q59 -89 91 -164.5t32 -155.5q0 -201 -115 -321.5t-307 -120.5q-122 0 -226 55z" />
    <glyph glyph-name="uni2010" unicode="&#x2010;" horiz-adv-x="606" 
d="M469 512h-418l25 119h418z" />
    <glyph glyph-name="endash" unicode="&#x2013;" horiz-adv-x="1024" 
d="M981 516h-1024l25 111h1024z" />
    <glyph glyph-name="emdash" unicode="&#x2014;" horiz-adv-x="2048" 
d="M2005 516h-2048l25 111h2048z" />
    <glyph glyph-name="quoteleft" unicode="&#x2018;" horiz-adv-x="491" 
d="M362 1081h-145l186 455h113z" />
    <glyph glyph-name="quoteright" unicode="&#x2019;" horiz-adv-x="491" 
d="M330 1081h-113l154 455h145z" />
    <glyph glyph-name="quotesinglbase" unicode="&#x201a;" horiz-adv-x="491" 
d="M57 -270h-112l153 454h146z" />
    <glyph glyph-name="quotedblleft" unicode="&#x201c;" horiz-adv-x="983" 
d="M463 1081h-146l187 455h112zM758 1081h-146l187 455h112z" />
    <glyph glyph-name="quotedblright" unicode="&#x201d;" horiz-adv-x="983" 
d="M430 1081h-113l154 455h145zM725 1081h-109l150 455h145z" />
    <glyph glyph-name="quotedblbase" unicode="&#x201e;" horiz-adv-x="983" 
d="M150 -270h-113l153 454h146zM444 -270h-108l149 454h146z" />
    <glyph glyph-name="dagger" unicode="&#x2020;" horiz-adv-x="983" 
d="M395 0h-110l202 956h-286l20 103h287l80 371h110l-80 -371h287l-20 -103h-287z" />
    <glyph glyph-name="daggerdbl" unicode="&#x2021;" horiz-adv-x="983" 
d="M756 356h-287l-74 -356h-110l73 356h-286l22 103h287l108 512h-286l22 102h287l76 357h110l-75 -357h286l-22 -102h-287l-108 -512h286z" />
    <glyph glyph-name="bullet" unicode="&#x2022;" horiz-adv-x="1024" 
d="M874 766q0 -162 -126 -286t-289 -124q-131 0 -220 88t-89 220q0 105 58.5 200t154 152t200.5 57q131 0 221 -88.5t90 -218.5z" />
    <glyph glyph-name="ellipsis" unicode="&#x2026;" horiz-adv-x="2048" 
d="M270 0h-159l41 201h159zM952 0h-159l41 201h159zM1634 0h-159l41 201h159z" />
    <glyph glyph-name="perthousand" unicode="&#x2030;" horiz-adv-x="1781" 
d="M266 -68h-88l774 1563h88zM317 688q-91 0 -139.5 60.5t-48.5 175.5q0 127 38 245t111 196.5t162 78.5t139 -61t50 -175q0 -126 -38.5 -244.5t-112 -197t-161.5 -78.5zM332 788q52 0 97.5 71.5t69 166.5t23.5 178q0 139 -96 139q-50 0 -95 -70t-69 -165.5t-24 -179.5
q0 -73 23 -106.5t71 -33.5zM782 -14q-91 0 -139.5 60.5t-48.5 172.5q0 128 38.5 247t111 197t159.5 78q91 0 141 -61.5t50 -171.5q0 -128 -39 -247t-112 -197t-161 -78zM1341 -14q-91 0 -139.5 60.5t-48.5 172.5q0 128 38.5 247t111 197t159.5 78q91 0 141 -61.5t50 -171.5
q0 -128 -39 -247t-112 -197t-161 -78zM795 86q52 0 97.5 71.5t69 166.5t23.5 178q0 139 -96 139q-49 0 -94 -70t-70 -165.5t-25 -180.5q0 -74 23.5 -106.5t71.5 -32.5zM1354 86q52 0 97.5 71.5t69 166.5t23.5 178q0 139 -96 139q-49 0 -94 -70t-69.5 -165.5t-24.5 -180.5
q0 -73 23 -106t71 -33z" />
    <glyph glyph-name="guilsinglleft" unicode="&#x2039;" horiz-adv-x="530" 
d="M317 111h-106l-156 430l312 413h114l-301 -417z" />
    <glyph glyph-name="guilsinglright" unicode="&#x203a;" horiz-adv-x="530" 
d="M86 111h-115l301 417l-137 426h107l155 -430z" />
    <glyph glyph-name="fraction" unicode="&#x2044;" horiz-adv-x="342" 
d="M-223 -68h-107l895 1565h107z" />
    <glyph glyph-name="Euro" unicode="&#x20ac;" horiz-adv-x="983" 
d="M836 156l2 -133q-79 -22 -120 -29.5t-89 -7.5q-235 0 -358.5 140t-125.5 406h-141l33 86h110q8 100 29 193h-129l33 86h119q82 253 260.5 400t392.5 147q128 0 252 -47l-49 -133q-29 26 -91.5 44.5t-117.5 18.5q-171 0 -307 -114t-203 -316h600l-31 -86h-594
q-14 -49 -26 -193h559l-29 -86h-532q0 -208 90 -319t262 -111q53 0 87.5 9.5t113.5 44.5z" />
    <glyph glyph-name="uni20B9" unicode="&#x20b9;" horiz-adv-x="983" 
d="M637 0h-145l-332 696l20 95h195q135 0 226 58.5t116 180.5h-486l19 90h477v10q0 99 -60 154t-163 55h-207l20 91h762l-18 -91h-291q82 -59 82 -209v-10h162l-19 -90h-153q-29 -161 -149 -252.5t-290 -91.5h-110z" />
    <glyph glyph-name="uni20BA" unicode="&#x20ba;" horiz-adv-x="983" 
d="M94 0l127 608l-174 -78l25 109l174 78l45 219l-174 -78l24 109l174 77l82 386h127l-67 -322l377 170l-25 -109l-377 -170l-47 -219l379 170l-25 -108l-377 -170l-120 -572q96 0 171 26.5t129.5 74.5t97.5 126t72 168.5t56 215.5h125q-27 -138 -59 -240.5t-83.5 -198
t-118.5 -155.5t-165 -95.5t-223 -35.5q-90 0 -150 14z" />
    <glyph glyph-name="uni20BC" unicode="&#x20bc;" horiz-adv-x="1347" 
d="M1153 0h-125l23 106q43 208 43 410q0 80 -5 145.5t-22.5 139.5t-46 125t-80 87t-121.5 42l-194 -912h-123l194 912q-98 -9 -189.5 -78t-159 -168.5t-126 -227.5t-95 -245t-60.5 -230l-23 -106h-125l27 131q27 136 71 270t114 272t154 244.5t198 177.5t239 79l55 256h123
l-55 -256q375 -46 375 -648q0 -180 -43 -409z" />
    <glyph glyph-name="ruble" unicode="&#x20bd;" horiz-adv-x="983" 
d="M541 358h-289l-76 -358h-127l76 358h-141l22 111h141l35 162h-141l22 110h144l145 689h244q176 0 281.5 -86.5t105.5 -251.5q0 -218 -134.5 -339.5t-359.5 -121.5h-180l-35 -162h289zM332 741h155q178 0 274.5 86t96.5 258q0 108 -69 167t-187 59h-147z" />
    <glyph glyph-name="afii61289" unicode="&#x2113;" horiz-adv-x="1024" 
d="M662 141l28 -65q-73 -55 -134.5 -80t-127.5 -25q-94 0 -146.5 49.5t-52.5 137.5q0 69 64 334l-152 -132l-35 64l207 170l111 518q36 189 109 273t192 92q78 0 126 -52.5t48 -138.5q0 -149 -123.5 -333t-363.5 -386l-39 -184q-39 -176 -37 -207q0 -57 31 -90t86 -33
q86 0 209 88zM524 1100l-92 -428q170 157 273.5 321.5t103.5 286.5q0 55 -25.5 88t-68.5 33q-32 0 -64 -19q-26 -16 -43 -37t-39.5 -81.5t-44.5 -163.5z" />
    <glyph glyph-name="trademark" unicode="&#x2122;" horiz-adv-x="2048" 
d="M455 578h-103l162 757h-276l20 95h655l-20 -95h-277zM1767 578h-102l162 755h-4l-467 -755h-62l-143 757h-4l-162 -757h-102l182 852h170l125 -685l407 685h183z" />
    <glyph glyph-name="Omega" unicode="&#x2126;" horiz-adv-x="1234" 
d="M1008 0h-396l25 119q183 154 286 370t103 437q0 193 -72 303t-209 110q-133 0 -246 -96.5t-179 -264.5t-66 -368q0 -137 41.5 -265.5t118.5 -225.5l-15 -119h-389l21 113h233q-141 185 -141 491q0 190 54 353t142 270t199 167t227 60q202 0 307 -139.5t105 -386.5
q0 -232 -99.5 -446t-271.5 -369h242z" />
    <glyph glyph-name="estimated" unicode="&#x212e;" horiz-adv-x="1228" 
d="M973 285l71 -43q-94 -150 -199.5 -213.5t-264.5 -63.5q-154 0 -276 74.5t-188.5 203t-66.5 287.5q0 118 39.5 222.5t108 180t168 119.5t213.5 44q231 0 379 -156t151 -410h-827v-370q121 -121 297 -121q131 0 225 59.5t170 186.5zM877 604v297q-129 123 -304 123
q-169 0 -292 -123v-297h596z" />
    <glyph glyph-name="partialdiff" unicode="&#x2202;" horiz-adv-x="1001" 
d="M764 686l2 113q0 160 -42 287.5t-128 205.5t-203 78q-59 0 -109.5 -20t-117.5 -72l-68 82q130 117 289 117q234 0 364 -200.5t130 -533.5q0 -369 -116 -568.5t-337 -199.5q-175 0 -288 131.5t-113 325.5q0 189 108.5 311.5t284.5 122.5q102 0 190.5 -48t153.5 -132z
M754 565q-70 91 -155 143t-173 52q-125 0 -204 -94.5t-79 -235.5q0 -146 80 -250t205 -104q136 0 222.5 130t103.5 359z" />
    <glyph glyph-name="Delta" unicode="&#x2206;" horiz-adv-x="1120" 
d="M942 0h-1067l723 1430h129zM799 113l-158 1185h-4l-569 -1185h731z" />
    <glyph glyph-name="product" unicode="&#x220f;" horiz-adv-x="1449" 
d="M1303 -438h-123v1931h-910v-1931h-123v2048h1156v-2048z" />
    <glyph glyph-name="summation" unicode="&#x2211;" horiz-adv-x="1224" 
d="M1174 -438h-1121v104l678 926l-649 911v107h1067v-117h-911l643 -901l-680 -916h973v-114z" />
    <glyph glyph-name="minus" unicode="&#x2212;" horiz-adv-x="1228" 
d="M1098 467h-1037v102h1037v-102z" />
    <glyph glyph-name="uni2215" unicode="&#x2215;" horiz-adv-x="342" 
d="M-223 -68h-107l895 1565h107z" />
    <glyph glyph-name="uni2219" unicode="&#x2219;" horiz-adv-x="491" 
d="M211 518q-43 0 -70.5 26t-27.5 68q0 54 38.5 92.5t92.5 38.5q43 0 70.5 -26.5t27.5 -67.5q0 -52 -39 -91.5t-92 -39.5z" />
    <glyph glyph-name="radical" unicode="&#x221a;" horiz-adv-x="997" 
d="M522 -438h-123l-342 702l-92 -45l-45 92l195 95l331 -697l392 1901h114z" />
    <glyph glyph-name="infinity" unicode="&#x221e;" horiz-adv-x="1554" 
d="M733 436q-110 -98 -179 -145t-111 -59.5t-101 -12.5q-121 0 -198.5 82t-77.5 207t78.5 210t195.5 85q44 0 85.5 -12t86.5 -41.5t71.5 -49.5t79 -66t70.5 -61q131 138 214 185t167 47q121 0 202 -84t81 -207q0 -128 -77.5 -211.5t-201.5 -83.5q-89 0 -181.5 51.5
t-203.5 165.5zM805 506q126 -112 189 -145t130 -33q75 0 120.5 50t45.5 130q0 87 -47 137.5t-129 50.5q-41 0 -66.5 -8.5t-82 -49t-160.5 -132.5zM659 506q-20 14 -96.5 75t-126 87t-98.5 26q-72 0 -119 -53t-47 -133t47.5 -130t126.5 -50q123 0 313 178z" />
    <glyph glyph-name="integral" unicode="&#x222b;" horiz-adv-x="1105" 
d="M449 -31v1078l-3 147q-3 217 57.5 316.5t180.5 99.5q60 0 97.5 -26.5t37.5 -70.5q0 -31 -19 -49t-50 -18q-23 0 -40 13t-24.5 28t-18 28t-22.5 13q-36 0 -57.5 -72.5t-18.5 -208.5l2 -117v-1120q0 -448 -241 -448q-54 0 -87.5 25.5t-33.5 68.5q0 29 18.5 46t48.5 17
q21 0 37 -11.5t23 -26t17.5 -26t21.5 -11.5q35 0 54.5 84t19.5 241z" />
    <glyph glyph-name="approxequal" unicode="&#x2248;" horiz-adv-x="1214" 
d="M1014 811h82q-17 -130 -80.5 -201t-165.5 -71q-109 0 -299 75q-195 74 -277 74q-65 0 -108.5 -45t-54.5 -121h-86q40 277 247 277q104 0 299 -76q192 -76 279 -76q66 0 108 43t56 121zM1014 471h82q-17 -130 -80.5 -201t-165.5 -71q-107 0 -297 75q-192 76 -279 76
q-63 0 -107.5 -45t-57.5 -123h-84q23 141 83.5 209t163.5 68q64 0 178.5 -37.5t227 -75t170.5 -37.5q62 0 104.5 41.5t61.5 120.5z" />
    <glyph glyph-name="notequal" unicode="&#x2260;" horiz-adv-x="1214" 
d="M1092 268h-600l-191 -327l-106 59l155 268h-295v103h355l172 295h-527v102h586l184 315l107 -59l-150 -256h310v-102h-369l-172 -295h541v-103z" />
    <glyph glyph-name="lessequal" unicode="&#x2264;" horiz-adv-x="1214" 
d="M1063 145l-1024 392v120l1024 392v-121l-870 -330l870 -330v-123zM1063 -53h-1024v110h1024v-110z" />
    <glyph glyph-name="greaterequal" unicode="&#x2265;" horiz-adv-x="1214" 
d="M1063 537l-1024 -392v123l870 330l-870 330v121l1024 -392v-120zM1063 -53h-1024v110h1024v-110z" />
    <glyph glyph-name="lozenge" unicode="&#x25ca;" horiz-adv-x="1214" 
d="M666 -72h-119l-344 799l344 803h119l346 -801zM606 53l285 676l-285 676l-282 -676z" />
    <glyph glyph-name="grave.cap" unicode="&#xe300;" horiz-adv-x="454" 
d="M481 1489h-96l-154 291h138z" />
    <glyph glyph-name="acute.cap" unicode="&#xe301;" horiz-adv-x="454" 
d="M406 1489h-109l199 291h149z" />
    <glyph glyph-name="circumflex.cap" unicode="&#xe302;" horiz-adv-x="454" 
d="M639 1489h-111l-94 209l-184 -209h-127l260 291h119z" />
    <glyph glyph-name="caron.cap" unicode="&#xe303;" horiz-adv-x="454" 
d="M440 1489h-118l-138 291h113l96 -209l182 209h125z" />
    <glyph glyph-name="tilde.cap" unicode="&#xe304;" horiz-adv-x="454" 
d="M618 1741h87q-50 -203 -181 -203q-36 0 -80 22.5t-82.5 45t-60.5 22.5q-35 0 -58.5 -21.5t-39.5 -78.5h-86q27 101 71.5 152t114.5 51q43 0 121.5 -45.5t101.5 -45.5q71 0 92 101z" />
    <glyph glyph-name="dieresis.cap" unicode="&#xe305;" horiz-adv-x="454" 
d="M299 1546h-119l43 201h119zM606 1546h-119l43 201h119z" />
    <glyph glyph-name="macron.cap" unicode="&#xe306;" horiz-adv-x="454" 
d="M645 1587h-487l20 94h488z" />
    <glyph glyph-name="breve.cap" unicode="&#xe307;" horiz-adv-x="454" 
d="M600 1757h82q-62 -250 -279 -250q-99 0 -156 58t-57 143q0 9 5 49h81v-14q0 -68 36 -104.5t100 -36.5q137 0 188 155z" />
    <glyph glyph-name="ring.cap" unicode="&#xe308;" horiz-adv-x="454" 
d="M397 1473q-78 0 -128 48.5t-50 123.5q0 98 63.5 161.5t161.5 63.5q78 0 128.5 -48.5t50.5 -123.5q0 -97 -64 -161t-162 -64zM399 1540q62 0 105 45t43 109q0 44 -30.5 76t-76.5 32q-61 0 -103 -44t-42 -109q0 -45 30 -77t74 -32z" />
    <glyph glyph-name="hungarumlaut.cap" unicode="&#xe309;" horiz-adv-x="454" 
d="M256 1489h-100l178 291h141zM543 1489h-101l179 291h141z" />
    <glyph glyph-name="dotaccent.cap" unicode="&#xe30a;" horiz-adv-x="454" 
d="M453 1546h-119l43 201h119z" />
    <glyph glyph-name="caron.alt" unicode="&#xe30b;" horiz-adv-x="417" 
d="M219 1155h-88l82 336h123z" />
    <glyph glyph-name="commaaccent" unicode="&#xe30c;" horiz-adv-x="417" 
d="M-45 -455h-107l105 291h141z" />
    <glyph glyph-name="commaaccent.alt" unicode="&#xe30d;" horiz-adv-x="417" 
d="M352 1200h-137l139 291h105z" />
    <glyph glyph-name="uniF8FF" unicode="&#xf8ff;" horiz-adv-x="1048" 
d="M1049 0h-1049v1470h1049v-1470zM946 102v1264h-844v-1264h844zM555 479h-94l-4 39q0 108 25.5 163.5t105.5 129.5q46 42 69 78.5t23 81.5q0 72 -46.5 123t-109.5 51q-70 0 -113 -49.5t-55 -145.5l-102 17q12 136 83 208t193 72q111 0 182.5 -74t71.5 -194
q0 -75 -29.5 -128.5t-103.5 -119.5q-72 -64 -84 -98t-12 -154zM569 240h-114v137h114v-137z" />
    </font>
</defs>
</svg>
