<?xml version="1.0" standalone="no"?>
<!DOCTYPE svg PUBLIC "-//W3C//DTD SVG 1.1//EN" "http://www.w3.org/Graphics/SVG/1.1/DTD/svg11.dtd" >
<svg xmlns="http://www.w3.org/2000/svg" xmlns:xlink="http://www.w3.org/1999/xlink" version="1.1">
<metadata>
Created by FontForge 20201107 at Sat Aug  3 09:41:42 2024
 By 
Copyright (c) 2014 - 2016 Monotype Imaging Inc. All rights reserved.
</metadata>
<defs>
<font id="FrutigerLTPro-BoldCnIta" horiz-adv-x="1024" >
  <font-face 
    font-family="Frutiger LT Pro 47 Light Cn"
    font-weight="700"
    font-style="italic"
    font-stretch="condensed"
    units-per-em="2048"
    panose-1="2 11 7 6 3 5 4 9 2 4"
    ascent="1536"
    descent="-512"
    x-height="1055"
    cap-height="1430"
    bbox="-354 -512 2073 1925"
    underline-thickness="102"
    underline-position="-255"
    slope="-12"
    unicode-range="U+000D-FB02"
  />
<missing-glyph horiz-adv-x="1048" 
d="M1049 1470v-1470h-1049v1470h1049zM102 102h844v1264h-844v-1264zM555 528v-49h-94v51q0 95 23.5 147t103.5 134q35 35 50 52.5t28.5 46.5t13.5 61q0 72 -46.5 123t-109.5 51q-70 0 -113 -49.5t-55 -145.5l-102 17q12 136 83 208t193 72q111 0 182.5 -74t71.5 -194
q0 -70 -28.5 -126t-102.5 -122q-62 -55 -80 -93t-18 -110zM569 377v-137h-114v137h114z" />
    <glyph glyph-name="fi" unicode="fi" horiz-adv-x="1175" 
d="M299 0h-254l184 868h-176l39 187h176l45 219q32 153 124 220t222 67q126 0 197 -25l-49 -184q-62 16 -113 16q-105 0 -135 -139l-37 -174h193l-39 -187h-193zM1153 1253h-262l53 250h262zM889 0h-254l223 1055h254z" />
    <glyph glyph-name="fl" unicode="fl" horiz-adv-x="1175" 
d="M299 0h-254l184 868h-176l39 187h176l45 219q32 153 124 220t222 67q126 0 197 -25l-49 -184q-62 16 -113 16q-105 0 -135 -139l-37 -174h193l-39 -187h-193zM887 0h-254l325 1536h254z" />
    <glyph glyph-name=".notdef" horiz-adv-x="1048" 
d="M1049 1470v-1470h-1049v1470h1049zM102 102h844v1264h-844v-1264zM555 528v-49h-94v51q0 95 23.5 147t103.5 134q35 35 50 52.5t28.5 46.5t13.5 61q0 72 -46.5 123t-109.5 51q-70 0 -113 -49.5t-55 -145.5l-102 17q12 136 83 208t193 72q111 0 182.5 -74t71.5 -194
q0 -70 -28.5 -126t-102.5 -122q-62 -55 -80 -93t-18 -110zM569 377v-137h-114v137h114z" />
    <glyph glyph-name=".null" horiz-adv-x="0" 
 />
    <glyph glyph-name="nonmarkingreturn" horiz-adv-x="682" 
 />
    <glyph glyph-name="NULL" horiz-adv-x="0" 
 />
    <glyph glyph-name="NULL" horiz-adv-x="0" 
 />
    <glyph glyph-name="CR" unicode="&#xd;" horiz-adv-x="532" 
 />
    <glyph glyph-name="space" unicode=" " horiz-adv-x="532" 
 />
    <glyph glyph-name="exclam" unicode="!" horiz-adv-x="757" 
d="M414 422h-197l182 1008h263zM350 0h-246l56 258h243z" />
    <glyph glyph-name="quotedbl" unicode="&#x22;" horiz-adv-x="1062" 
d="M532 1028h-204l108 508h205zM866 1028h-204l108 508h205z" />
    <glyph glyph-name="numbersign" unicode="#" horiz-adv-x="1064" 
d="M662 0h-160l88 422h-242l-88 -422h-160l88 422h-172v160h207l56 266h-187v160h221l90 422h160l-90 -422h242l90 422h160l-91 -422h177v-160h-211l-56 -266h189v-160h-223zM625 582l55 266h-242l-55 -266h242z" />
    <glyph glyph-name="dollar" unicode="$" horiz-adv-x="1064" 
d="M367 -199h-95l37 179q-184 0 -325 63l63 221q57 -40 141.5 -66.5t161.5 -27.5l109 469q-158 80 -228.5 167t-70.5 204q0 184 133 305t356 133l37 170h96l-37 -168q162 -3 275 -55l-57 -209q-108 80 -256 80l-99 -428q163 -85 233 -172t70 -215q0 -193 -136.5 -321
t-368.5 -148zM522 872l88 388q-97 -13 -153 -71.5t-56 -141.5q0 -54 28.5 -94t92.5 -81zM543 604l-97 -434q101 17 161.5 88t60.5 166q0 54 -34 102t-91 78z" />
    <glyph glyph-name="percent" unicode="%" horiz-adv-x="1705" 
d="M477 -70h-149l901 1569h151zM397 639q-103 0 -170 75.5t-67 190.5q0 101 27 197.5t75.5 174.5t124 125.5t164.5 47.5q101 0 169 -74.5t68 -191.5q0 -103 -27.5 -200t-76 -174t-124 -124t-163.5 -47zM422 782q54 0 98.5 69t66 161t21.5 178q0 117 -84 117q-52 0 -96.5 -68
t-67 -161t-22.5 -179q0 -55 21.5 -86t62.5 -31zM1153 -20q-103 0 -170.5 75.5t-67.5 190.5q0 136 45.5 259t137 204.5t209.5 81.5q101 0 169 -75t68 -192q0 -103 -27.5 -200t-76 -174t-124 -123.5t-163.5 -46.5zM1178 123q54 0 98.5 68.5t66 160.5t21.5 178q0 117 -84 117
q-52 0 -96.5 -68t-67 -160.5t-22.5 -178.5q0 -55 21.5 -86t62.5 -31z" />
    <glyph glyph-name="ampersand" unicode="&#x26;" horiz-adv-x="1327" 
d="M1135 0h-279l-70 121q-100 -76 -190 -108.5t-190 -32.5q-180 0 -285 100.5t-105 259.5q0 294 369 469q-92 165 -92 281q0 163 113 261.5t294 98.5q147 0 244.5 -83.5t97.5 -205.5q0 -129 -81 -226.5t-265 -191.5l168 -305q90 90 154 357h229q-36 -155 -108.5 -294.5
t-167.5 -230.5zM604 897q118 60 167.5 118t49.5 138q0 60 -38.5 98.5t-98.5 38.5q-70 0 -116 -46t-46 -118q0 -92 82 -229zM696 274l-211 383q-111 -62 -162 -132t-51 -156q0 -91 51 -144t134 -53q125 0 239 102z" />
    <glyph glyph-name="quotesingle" unicode="'" horiz-adv-x="532" 
d="M434 1028h-205l109 508h205z" />
    <glyph glyph-name="parenleft" unicode="(" horiz-adv-x="606" 
d="M344 -344h-176q-141 367 -141 631q0 194 42.5 369t157.5 388t310 447h196q-253 -340 -370 -642.5t-117 -596.5t98 -596z" />
    <glyph glyph-name="parenright" unicode=")" horiz-adv-x="606" 
d="M8 -344h-196q253 340 370 642.5t117 596.5t-98 596h176q141 -367 141 -631q0 -194 -42.5 -369t-157.5 -388t-310 -447z" />
    <glyph glyph-name="asterisk" unicode="*" horiz-adv-x="1062" 
d="M866 825l-172 -108l-96 241l-149 -241l-148 108l199 211l-252 62l82 182l225 -119l-4 269h197l-64 -269l246 119l43 -182l-262 -62z" />
    <glyph glyph-name="plus" unicode="+" horiz-adv-x="1228" 
d="M664 0h-181v428h-428v180h428v428h181v-428h428v-180h-428v-428z" />
    <glyph glyph-name="comma" unicode="," horiz-adv-x="532" 
d="M72 -246h-191l162 508h244z" />
    <glyph glyph-name="hyphen" unicode="-" horiz-adv-x="645" 
d="M508 477h-473l45 209h473z" />
    <glyph glyph-name="period" unicode="." horiz-adv-x="532" 
d="M238 0h-246l55 266h246z" />
    <glyph glyph-name="slash" unicode="/" horiz-adv-x="569" 
d="M37 -20h-178l671 1470h179z" />
    <glyph glyph-name="zero" unicode="0" horiz-adv-x="1064" 
d="M401 -20q-168 0 -263 110t-95 297q0 81 11 174.5t35 196.5t58.5 201.5t86 188t113 156.5t143.5 106.5t174 39.5q167 0 262.5 -108t95.5 -300q0 -83 -10.5 -177t-34 -197.5t-58 -201t-86 -186.5t-113 -155t-144 -105.5t-175.5 -39.5zM420 172q79 0 149 100t113.5 243
t68.5 287.5t25 246.5q0 208 -133 208q-60 0 -117 -65t-98.5 -166t-73.5 -220t-48.5 -231.5t-16.5 -195.5q0 -103 34 -155t97 -52z" />
    <glyph glyph-name="one" unicode="1" horiz-adv-x="1064" 
d="M582 0h-256l241 1128l-215 -172l-112 160l424 314h221z" />
    <glyph glyph-name="two" unicode="2" horiz-adv-x="1064" 
d="M793 0h-813l34 207l164 149q225 207 295 278q215 220 253 370q9 37 9 71q0 79 -43.5 122.5t-128.5 43.5q-69 0 -148 -28.5t-149 -79.5l25 231q168 86 354 86q162 0 261.5 -91t99.5 -241q0 -58 -14.5 -116.5t-35 -106.5t-62 -106t-74.5 -98.5t-94.5 -102t-100.5 -98
t-113 -103.5l-197 -178h519z" />
    <glyph glyph-name="three" unicode="3" horiz-adv-x="1064" 
d="M-37 41l57 219q57 -33 131 -53.5t144 -20.5q142 0 228.5 76t86.5 203q0 83 -61 128.5t-166 45.5h-113l33 192q224 0 326 64.5t102 194.5q0 72 -51 111.5t-143 39.5q-158 0 -285 -70l27 213q159 66 315 66q186 0 293.5 -86.5t107.5 -233.5q0 -144 -87 -244.5t-255 -144.5
v-4q105 -26 165.5 -100.5t60.5 -173.5q0 -222 -159 -352.5t-427 -130.5q-217 0 -330 61z" />
    <glyph glyph-name="four" unicode="4" horiz-adv-x="1064" 
d="M692 0h-237l61 297h-543l50 238l686 895h286l-200 -941h159l-41 -192h-159zM557 489l145 668h-4l-489 -668h348z" />
    <glyph glyph-name="five" unicode="5" horiz-adv-x="1064" 
d="M-4 39l55 215q122 -68 262 -68q150 0 241 91t91 241q0 99 -67 156t-189 57q-50 0 -121 -13.5t-114 -31.5l157 744h719l-39 -201h-489l-72 -330q60 14 117 14q167 0 270 -98t103 -254q0 -256 -168.5 -418.5t-440.5 -162.5q-209 0 -315 59z" />
    <glyph glyph-name="six" unicode="6" horiz-adv-x="1064" 
d="M1047 1399l-60 -211q-77 59 -215 59q-161 0 -271 -123t-161 -360h4q119 147 281 147q142 0 224.5 -91.5t82.5 -244.5q0 -117 -38 -225t-104.5 -190t-163 -131t-206.5 -49q-173 0 -273 106t-100 281q0 73 10 160.5t35 193t61.5 206t94.5 196.5t129 168t170.5 115.5
t214.5 43.5q145 0 285 -51zM426 170q72 0 130.5 58t89 144t30.5 177q0 80 -35 122t-104 42q-72 0 -130.5 -55t-89 -139.5t-30.5 -176.5q0 -80 38 -126t101 -46z" />
    <glyph glyph-name="seven" unicode="7" horiz-adv-x="1064" 
d="M367 0h-291l715 1221h-558l48 209h804l-45 -230z" />
    <glyph glyph-name="eight" unicode="8" horiz-adv-x="1064" 
d="M709 737q215 -115 215 -303q0 -199 -145.5 -326.5t-375.5 -127.5q-184 0 -291.5 93.5t-107.5 252.5q0 149 92 261t260 163q-76 49 -119.5 122t-43.5 164q0 179 133.5 296.5t335.5 117.5q165 0 266.5 -88.5t101.5 -220.5q0 -130 -77 -229.5t-244 -174.5zM561 817
q104 47 164.5 127t60.5 168q0 67 -41 110.5t-106 43.5q-88 0 -150.5 -71.5t-62.5 -166.5q0 -72 34.5 -127t100.5 -84zM516 664q-121 -41 -191.5 -131.5t-70.5 -196.5q0 -75 47.5 -123.5t120.5 -48.5q105 0 175.5 77.5t70.5 190.5q0 74 -42 136.5t-110 95.5z" />
    <glyph glyph-name="nine" unicode="9" horiz-adv-x="1064" 
d="M725 666h-4q-119 -148 -281 -148q-141 0 -224 91.5t-83 244.5q0 158 65 294t183.5 219t263.5 83q174 0 273.5 -107t99.5 -282q0 -76 -10.5 -165.5t-35.5 -195.5t-62.5 -206t-95.5 -194t-129.5 -164.5t-170.5 -113t-213 -42.5q-143 0 -283 51l60 211q78 -60 215 -60
q161 0 271 123t161 361zM528 717q70 0 128.5 54t90 138.5t31.5 177.5q0 79 -39 126t-102 47q-101 0 -174.5 -116.5t-73.5 -260.5q0 -81 35.5 -123.5t103.5 -42.5z" />
    <glyph glyph-name="colon" unicode=":" horiz-adv-x="532" 
d="M403 788h-245l57 267h246zM238 0h-246l55 266h246z" />
    <glyph glyph-name="semicolon" unicode=";" horiz-adv-x="532" 
d="M403 788h-245l57 267h246zM72 -246h-191l162 508h244z" />
    <glyph glyph-name="less" unicode="&#x3c;" horiz-adv-x="1228" 
d="M1071 -16l-1036 454v160l1036 457v-181l-807 -356l807 -354v-180z" />
    <glyph glyph-name="equal" unicode="=" horiz-adv-x="1228" 
d="M1092 643h-1037v180h1037v-180zM1092 213h-1037v180h1037v-180z" />
    <glyph glyph-name="greater" unicode="&#x3e;" horiz-adv-x="1228" 
d="M1133 438l-1037 -454v180l807 354l-807 356v181l1037 -457v-160z" />
    <glyph glyph-name="question" unicode="?" horiz-adv-x="948" 
d="M508 418h-221q8 66 18 106t33.5 87.5t63.5 94.5t108 113q100 97 134 153t34 126q0 67 -47 105t-127 38q-115 0 -252 -70l24 224q157 55 320 55q158 0 255 -81.5t97 -215.5q0 -99 -46.5 -187t-156.5 -196q-131 -128 -178 -196t-59 -156zM436 0h-246l54 258h245z" />
    <glyph glyph-name="at" unicode="@" horiz-adv-x="1638" 
d="M1233 299h186q-128 -166 -287 -242.5t-370 -76.5q-152 0 -280.5 50.5t-216 137.5t-136.5 205t-49 252q0 228 110.5 418t300.5 298.5t416 108.5q297 0 479.5 -159.5t182.5 -416.5q0 -134 -66 -263.5t-180 -213.5t-242 -84q-63 0 -103 32.5t-40 86.5h-4q-64 -71 -121.5 -98
t-132.5 -27q-114 0 -188 80t-74 193q0 141 60.5 264.5t165.5 197.5t228 74q168 0 218 -137h4l43 113h149l-182 -486q-33 -84 -33 -108q0 -41 55 -41q78 0 147 65t107.5 161t38.5 191q0 199 -142 316t-380 117q-137 0 -259 -53t-209 -144t-138 -218t-51 -269
q0 -221 143 -360.5t387 -139.5q160 0 268 41.5t195 134.5zM721 446q75 0 144.5 60t110 147t40.5 168q0 69 -36 111.5t-101 42.5q-75 0 -145.5 -55.5t-112 -141t-41.5 -170.5q0 -75 36.5 -118.5t104.5 -43.5z" />
    <glyph glyph-name="A" unicode="A" horiz-adv-x="1251" 
d="M1090 0h-254l-27 344h-485l-172 -344h-289l776 1430h287zM795 545l-52 667h-4l-325 -667h381z" />
    <glyph glyph-name="B" unicode="B" horiz-adv-x="1138" 
d="M461 0h-461l303 1430h406q157 0 259.5 -85t102.5 -225t-80 -240t-227 -143v-4q104 -27 162.5 -96t58.5 -172q0 -145 -68.5 -251.5t-186 -160t-269.5 -53.5zM430 831h135q117 0 183.5 67t66.5 183q0 71 -47 113.5t-121 42.5h-131zM295 201h156q125 0 197.5 70.5
t72.5 197.5q0 78 -48.5 124t-125.5 46h-158z" />
    <glyph glyph-name="C" unicode="C" horiz-adv-x="1138" 
d="M958 270l-38 -239q-138 -51 -289 -51q-258 0 -409.5 149t-151.5 410q0 141 36 275.5t106.5 249t167.5 201t227.5 136t277.5 49.5q180 0 301 -57l-62 -232q-104 74 -243 74q-161 0 -284.5 -94t-187 -245.5t-63.5 -332.5q0 -172 88.5 -269t243.5 -97q127 0 280 73z" />
    <glyph glyph-name="D" unicode="D" horiz-adv-x="1290" 
d="M424 0h-436l303 1430h344q277 0 431.5 -135.5t154.5 -399.5q0 -140 -30.5 -269.5t-95.5 -244t-157.5 -199t-224.5 -133.5t-289 -49zM291 201h147q226 0 368 192t142 494q0 164 -85.5 253t-241.5 89h-111z" />
    <glyph glyph-name="E" unicode="E" 
d="M772 0h-772l303 1430h752l-45 -209h-490l-80 -381h463l-45 -209h-463l-90 -422h510z" />
    <glyph glyph-name="F" unicode="F" horiz-adv-x="948" 
d="M262 0h-262l303 1430h723l-45 -209h-461l-82 -390h441l-45 -208h-441z" />
    <glyph glyph-name="G" unicode="G" horiz-adv-x="1327" 
d="M831 221l80 379h-217l41 201h465l-158 -742q-175 -79 -389 -79q-268 0 -424.5 156t-156.5 419q0 182 63 346t173 285t270 192.5t344 71.5q219 0 354 -64l-59 -225q-54 37 -135.5 58.5t-163.5 21.5q-170 0 -303 -94t-203 -248.5t-70 -339.5q0 -173 86.5 -271t243.5 -98
q98 0 159 31z" />
    <glyph glyph-name="H" unicode="H" horiz-adv-x="1251" 
d="M948 0h-262l133 631h-424l-133 -631h-262l303 1430h262l-125 -582h424l125 582h262z" />
    <glyph glyph-name="I" unicode="I" horiz-adv-x="569" 
d="M264 0h-262l303 1430h262z" />
    <glyph glyph-name="J" unicode="J" horiz-adv-x="720" 
d="M-111 10l50 228q49 -27 112 -27q95 0 139.5 50.5t71.5 174.5l213 994h262l-217 -1031q-44 -214 -154.5 -316.5t-295.5 -102.5q-89 0 -181 30z" />
    <glyph glyph-name="K" unicode="K" horiz-adv-x="1175" 
d="M1018 0h-295l-313 678h-7l-141 -678h-262l303 1430h262l-131 -599h6l525 599h307l-635 -691z" />
    <glyph glyph-name="L" unicode="L" horiz-adv-x="909" 
d="M721 0h-733l303 1430h262l-260 -1221h471z" />
    <glyph glyph-name="M" unicode="M" horiz-adv-x="1669" 
d="M1368 0h-238l252 1192h-4l-612 -1192h-182l-97 1192h-4l-252 -1192h-233l303 1430h383l66 -1065h4l522 1065h395z" />
    <glyph glyph-name="N" unicode="N" horiz-adv-x="1327" 
d="M1026 0h-321l-230 1114h-4l-235 -1114h-238l303 1430h320l227 -1123h4l240 1123h237z" />
    <glyph glyph-name="O" unicode="O" horiz-adv-x="1327" 
d="M545 -20q-223 0 -352.5 132.5t-129.5 368.5q0 129 26.5 261.5t84.5 260t140 226.5t203.5 160t264.5 61q224 0 353 -133t129 -371q0 -105 -19 -214.5t-56 -218.5t-98 -204.5t-138 -169.5t-182.5 -116.5t-225.5 -42.5zM551 180q91 0 167.5 55.5t125.5 141t83.5 192
t49 204.5t14.5 183q0 136 -58.5 214.5t-158.5 78.5q-122 0 -224 -111.5t-158 -289.5t-56 -375q0 -134 59 -213.5t156 -79.5z" />
    <glyph glyph-name="P" unicode="P" horiz-adv-x="1062" 
d="M250 0h-262l303 1430h371q188 0 299.5 -95.5t111.5 -267.5q0 -230 -147.5 -369t-378.5 -139h-176zM408 760h114q137 0 209 77t72 216q0 85 -53 130.5t-150 45.5h-90z" />
    <glyph glyph-name="Q" unicode="Q" horiz-adv-x="1327" 
d="M991 -272h-286l-152 252q-233 0 -361.5 131.5t-128.5 369.5q0 91 13.5 185t42.5 189t70.5 182t101.5 162.5t131.5 131t164 87.5t195.5 32q224 0 353 -133t129 -371q0 -199 -59 -385t-168 -327.5t-249 -202.5zM551 180q91 0 167.5 55.5t125.5 141.5t83.5 192.5t49 204.5
t14.5 182q0 135 -58.5 214t-158.5 79q-94 0 -177.5 -67.5t-139.5 -177.5t-88.5 -249t-32.5 -282q0 -134 59 -213.5t156 -79.5z" />
    <glyph glyph-name="R" unicode="R" horiz-adv-x="1138" 
d="M934 0h-275l-55 449q-11 89 -39.5 127t-89.5 38h-98l-127 -614h-262l303 1430h403q177 0 281 -85.5t104 -236.5q0 -161 -87.5 -268t-252.5 -144v-4q26 -11 40 -20.5t32 -33t30 -67.5t21 -112zM420 807h133q111 0 184.5 74.5t73.5 195.5q0 72 -51 112t-142 40h-108z" />
    <glyph glyph-name="S" unicode="S" horiz-adv-x="1021" 
d="M-8 41l65 235q116 -90 275 -90q124 0 195 60.5t71 163.5q0 62 -41.5 115.5t-136.5 117.5q-77 52 -128.5 101.5t-77 96t-35 85.5t-9.5 84q0 203 136 321t372 119q146 0 303 -53l-55 -217q-119 61 -250 61q-106 0 -172 -50.5t-66 -133.5q0 -35 10 -64t33.5 -56t41 -42.5
t55.5 -44.5t53 -41q10 -8 41 -30.5t52.5 -39t50.5 -47.5t47.5 -62.5t32 -78.5t13.5 -100q0 -212 -146.5 -341.5t-395.5 -129.5q-208 0 -334 61z" />
    <glyph glyph-name="T" unicode="T" horiz-adv-x="985" 
d="M473 0h-262l258 1221h-319l45 209h899l-45 -209h-318z" />
    <glyph glyph-name="U" unicode="U" horiz-adv-x="1251" 
d="M799 467l202 963h263l-205 -967q-50 -231 -193 -357t-356 -126q-200 0 -315 101t-115 281q0 77 20 175l191 893h262l-205 -977q-8 -44 -8 -93q0 -75 51 -123.5t129 -48.5q122 0 184 60.5t95 218.5z" />
    <glyph glyph-name="V" unicode="V" horiz-adv-x="1175" 
d="M578 0h-277l-139 1430h272l68 -1102h4l518 1102h281z" />
    <glyph glyph-name="W" unicode="W" horiz-adv-x="1705" 
d="M1227 0h-314l25 1171h-4l-463 -1171h-309l4 1430h240l-21 -1102h4l434 1102h326l-16 -1102h4l434 1102h244z" />
    <glyph glyph-name="X" unicode="X" horiz-adv-x="1175" 
d="M1012 0h-279l-174 553l-391 -553h-307l585 770l-239 660h280l154 -474l340 474h297l-528 -680z" />
    <glyph glyph-name="Y" unicode="Y" horiz-adv-x="1138" 
d="M551 0h-262l123 578l-248 852h274l164 -572l377 572h291l-600 -865z" />
    <glyph glyph-name="Z" unicode="Z" 
d="M799 0h-875l45 229l760 992h-532l45 209h850l-45 -218l-773 -1003h568z" />
    <glyph glyph-name="bracketleft" unicode="[" horiz-adv-x="606" 
d="M305 -344h-379l389 1835h369l-33 -160h-172l-323 -1515h180z" />
    <glyph glyph-name="backslash" unicode="\" horiz-adv-x="569" 
d="M473 -20h-172l-207 1470h180z" />
    <glyph glyph-name="bracketright" unicode="]" horiz-adv-x="606" 
d="M229 -344h-368l33 160h172l323 1515h-180l31 160h378z" />
    <glyph glyph-name="asciicircum" unicode="^" horiz-adv-x="1228" 
d="M1081 602h-174l-174 641l-448 -641h-187l582 828h172z" />
    <glyph glyph-name="underscore" unicode="_" 
d="M1024 -256h-1024v102h1024v-102z" />
    <glyph glyph-name="grave" unicode="`" horiz-adv-x="454" 
d="M451 1171h-154l-162 295h227z" />
    <glyph glyph-name="a" unicode="a" 
d="M764 0h-229q0 26 4 66l10 79h-4q-78 -92 -140.5 -128.5t-144.5 -36.5q-133 0 -213 77t-80 205q0 389 551 389h135q15 77 15 109q0 131 -156 131q-153 0 -315 -90l12 200q158 70 346 70q162 0 257 -77t95 -203q0 -49 -20 -152l-101 -475q-8 -40 -22 -164zM600 410l25 106
q-221 0 -320.5 -48t-99.5 -175q0 -61 39 -99t102 -38q88 0 156.5 63t97.5 191z" />
    <glyph glyph-name="b" unicode="b" horiz-adv-x="1099" 
d="M197 0h-238q24 81 43 170l291 1366h254l-135 -633h4q95 168 278 168q140 0 218.5 -98.5t78.5 -276.5q0 -132 -36.5 -260.5t-99.5 -228.5t-156 -161.5t-197 -61.5q-99 0 -166 46.5t-92 133.5h-4q-30 -128 -43 -164zM459 170q85 0 150 81.5t96.5 198.5t31.5 242
q0 90 -35.5 141.5t-103.5 51.5q-87 0 -157.5 -83t-106 -201.5t-35.5 -240.5q0 -88 41.5 -139t118.5 -51z" />
    <glyph glyph-name="c" unicode="c" horiz-adv-x="872" 
d="M717 231l-29 -200q-103 -47 -231 -47q-189 0 -307.5 113t-118.5 302q0 134 43 256t118 214.5t186 147t240 54.5q167 0 252 -43l-53 -199q-86 50 -188 50q-78 0 -143.5 -38t-108.5 -101.5t-66.5 -144.5t-23.5 -169q0 -116 62.5 -183t162.5 -67q109 0 205 55z" />
    <glyph glyph-name="d" unicode="d" horiz-adv-x="1099" 
d="M838 0h-240q0 37 27 164h-4q-88 -180 -297 -180q-139 0 -218 100t-79 272q0 185 64.5 349.5t178 265t246.5 100.5q201 0 246 -168h4l135 633h254l-287 -1348q-30 -143 -30 -188zM418 170q69 0 128 50t95.5 128.5t57 168.5t20.5 175q0 90 -41 141.5t-119 51.5
q-80 0 -145 -80t-99 -200t-34 -249q0 -88 35 -137t102 -49z" />
    <glyph glyph-name="e" unicode="e" 
d="M784 246l-28 -199q-158 -63 -303 -63q-205 0 -314.5 105t-109.5 302q0 133 41.5 257t112 217.5t172 149.5t214.5 56q164 0 258.5 -93t94.5 -253q0 -91 -35 -266h-615q-6 -27 -6 -74q0 -108 58 -163.5t165 -55.5q69 0 149 21.5t146 58.5zM303 618h377q14 60 14 115
q0 76 -33.5 121t-97.5 45q-83 0 -158 -79t-102 -202z" />
    <glyph glyph-name="f" unicode="f" horiz-adv-x="681" 
d="M299 0h-254l184 868h-176l39 187h176l45 219q32 153 124 220t222 67q126 0 197 -25l-49 -184q-62 16 -113 16q-105 0 -135 -139l-37 -174h193l-39 -187h-193z" />
    <glyph glyph-name="g" unicode="g" horiz-adv-x="1099" 
d="M604 82l19 96h-5q-113 -174 -290 -174q-141 0 -219 93t-78 270q0 178 64 339.5t179.5 263t251.5 101.5q102 0 165.5 -42.5t88.5 -137.5h6q21 101 43 164h234q-28 -97 -35 -129l-178 -838q-33 -154 -84.5 -260t-124 -168t-158.5 -88.5t-198 -26.5q-222 0 -371 58l61 225
q65 -43 133 -62.5t162 -19.5q147 0 223.5 77.5t110.5 258.5zM426 186q66 0 124 49.5t95 126t58.5 165.5t21.5 171q0 85 -39.5 136t-116.5 51q-82 0 -148.5 -78t-101 -195t-34.5 -243q0 -85 35 -134t106 -49z" />
    <glyph glyph-name="h" unicode="h" horiz-adv-x="1062" 
d="M795 0h-252l143 670q8 46 8 78q0 54 -30 84t-86 30q-82 0 -144 -60.5t-84 -164.5l-133 -637h-254l326 1536h254l-131 -614h6q110 149 280 149q117 0 186.5 -68.5t69.5 -181.5q0 -75 -20 -168z" />
    <glyph glyph-name="i" unicode="i" horiz-adv-x="532" 
d="M506 1253h-262l53 250h262zM242 0h-254l223 1055h254z" />
    <glyph glyph-name="j" unicode="j" horiz-adv-x="532" 
d="M506 1253h-262l53 250h262zM-281 -442l50 192q35 -12 69 -12q52 0 80 35.5t43 103.5l250 1178h254l-242 -1139q-43 -200 -123.5 -285.5t-230.5 -85.5q-80 0 -150 13z" />
    <glyph glyph-name="k" unicode="k" 
d="M842 0h-264l-246 528h-6l-109 -528h-254l326 1536h254l-193 -897h6l371 416h285l-459 -484z" />
    <glyph glyph-name="l" unicode="l" horiz-adv-x="532" 
d="M242 0h-254l325 1536h254z" />
    <glyph glyph-name="m" unicode="m" horiz-adv-x="1593" 
d="M1333 0h-252l140 649q12 52 12 99q0 55 -30.5 84.5t-86.5 29.5q-75 0 -132 -62.5t-81 -178.5l-131 -621h-254l135 633q17 76 17 115q0 55 -30.5 84.5t-86.5 29.5q-70 0 -128.5 -60t-82.5 -171l-131 -631h-254l197 932q15 70 18 123h254l-27 -166h7q63 97 131.5 139.5
t162.5 42.5q173 0 224 -178q62 93 138 135.5t175 42.5q117 0 186.5 -68.5t69.5 -181.5q0 -71 -14 -137z" />
    <glyph glyph-name="n" unicode="n" horiz-adv-x="1062" 
d="M795 0h-252l137 643q14 65 14 105q0 54 -30 84t-86 30q-82 0 -143.5 -60.5t-82.5 -154.5l-135 -647h-254l199 940q12 64 16 115h238l-27 -162h4q61 94 134 136t171 42q117 0 186.5 -68.5t69.5 -181.5q0 -74 -16 -147z" />
    <glyph glyph-name="o" unicode="o" horiz-adv-x="1099" 
d="M430 -16q-186 0 -293.5 106.5t-107.5 292.5q0 131 39.5 254.5t109.5 220t176.5 155t231.5 58.5q185 0 293 -106t108 -289q0 -181 -67.5 -338t-197 -255.5t-292.5 -98.5zM436 164q89 0 159 76.5t105 194t35 249.5q0 98 -41 152.5t-116 54.5q-86 0 -155 -74t-105.5 -191.5
t-36.5 -252.5q0 -100 40.5 -154.5t114.5 -54.5z" />
    <glyph glyph-name="p" unicode="p" horiz-adv-x="1099" 
d="M127 -442h-254l291 1372q12 62 18 125h238q0 -25 -27 -164h4q88 180 297 180q140 0 218.5 -98.5t78.5 -276.5q0 -183 -64 -346.5t-177.5 -264.5t-247.5 -101q-201 0 -246 168h-4zM457 170q81 0 147 83t99.5 203t33.5 244q0 88 -35.5 136.5t-103.5 48.5
q-66 0 -123.5 -48.5t-95 -125t-59 -169t-21.5 -182.5q0 -88 40.5 -139t117.5 -51z" />
    <glyph glyph-name="q" unicode="q" horiz-adv-x="1099" 
d="M735 -442h-254l125 594h-4q-79 -168 -278 -168q-139 0 -218 99t-79 273q0 181 63 344.5t177 267t249 103.5q104 0 168.5 -42.5t89.5 -137.5h6q26 120 43 164h238q-20 -51 -43 -164zM418 170q89 0 160 84t106 201.5t35 236.5q0 90 -41 141.5t-119 51.5q-80 0 -144.5 -75
t-99 -194.5t-34.5 -257.5q0 -86 37 -137t100 -51z" />
    <glyph glyph-name="r" unicode="r" horiz-adv-x="720" 
d="M225 0h-254l199 942q3 13 16 113h230l-15 -97l-18 -96h4q54 113 119.5 161t169.5 48q7 0 17.5 -1t25 -2.5t22.5 -2.5l-51 -238q-46 11 -69 11q-101 0 -174.5 -68t-98.5 -184z" />
    <glyph glyph-name="s" unicode="s" horiz-adv-x="833" 
d="M-55 29l57 213q39 -28 110.5 -48t143.5 -20q88 0 131 32.5t43 86.5q0 49 -34 83t-126 97q-16 10 -24 16q-89 60 -127.5 120t-38.5 132q0 155 110.5 244.5t301.5 89.5q67 0 142 -11t120 -28l-54 -209q-115 54 -219 54q-73 0 -115 -29.5t-42 -85.5q0 -46 35 -83.5
t120 -90.5q110 -70 153.5 -127.5t43.5 -138.5q0 -159 -115.5 -252.5t-310.5 -93.5q-79 0 -167 14.5t-138 34.5z" />
    <glyph glyph-name="t" unicode="t" horiz-adv-x="720" 
d="M563 197l-39 -183q-68 -30 -162 -30q-119 0 -185 54.5t-66 156.5q0 64 16 135l115 538h-168l41 187h166l45 217l272 78l-63 -295h210l-38 -187h-211l-113 -528q-12 -50 -12 -86q0 -43 22.5 -60.5t71.5 -17.5q51 0 98 21z" />
    <glyph glyph-name="u" unicode="u" horiz-adv-x="1062" 
d="M803 0h-238l27 162h-4q-61 -95 -130 -136.5t-171 -41.5q-117 0 -187.5 68t-70.5 179q0 71 12 127l149 697h252l-141 -660q-10 -57 -10 -88q0 -54 30 -84t87 -30q85 0 142 57.5t79 161.5l135 643h254l-195 -922q-5 -23 -12 -76.5t-8 -56.5z" />
    <glyph glyph-name="v" unicode="v" horiz-adv-x="985" 
d="M485 0h-299l-106 1055h256l51 -813h4l381 813h252z" />
    <glyph glyph-name="w" unicode="w" horiz-adv-x="1517" 
d="M1079 0h-276l-25 821h-4l-346 -821h-281l-73 1055h254l10 -822h4l336 822h285l20 -822h4l334 822h250z" />
    <glyph glyph-name="x" unicode="x" horiz-adv-x="948" 
d="M797 0h-262l-123 383l-275 -383h-280l442 567l-201 490h271l108 -332l238 332h276l-405 -508z" />
    <glyph glyph-name="y" unicode="y" horiz-adv-x="948" 
d="M-145 -428l53 195q41 -21 88 -21q62 0 104.5 38t77.5 136l25 70l-127 1065h256l55 -795h4l361 795h252l-654 -1274q-122 -236 -342 -236q-89 0 -153 27z" />
    <glyph glyph-name="z" unicode="z" horiz-adv-x="833" 
d="M625 0h-717l43 219l579 643h-428l41 193h688l-45 -217l-571 -645h449z" />
    <glyph glyph-name="braceleft" unicode="{" horiz-adv-x="681" 
d="M424 -344h-143q-90 0 -147.5 53.5t-57.5 147.5q0 29 10 84l72 344q6 30 6 59q0 71 -38.5 113.5t-100.5 44.5l28 143q77 2 143 61.5t83 143.5l79 385q24 118 105 187t182 69h146l-31 -143h-72q-62 0 -95 -44.5t-48 -121.5l-76 -361q-20 -96 -84 -165t-152 -91v-4
q136 -49 136 -176q0 -31 -7 -63l-79 -377q-7 -40 -7 -58q0 -88 78 -88h101z" />
    <glyph glyph-name="bar" unicode="|" horiz-adv-x="454" 
d="M317 -512h-180v2048h180v-2048z" />
    <glyph glyph-name="braceright" unicode="}" horiz-adv-x="681" 
d="M-25 -344h-145l31 143h71q111 0 144 166l76 361q20 96 83.5 165t151.5 91v4q-135 48 -135 176q0 36 6 63l80 377q6 34 6 58q0 88 -78 88h-100l31 143h143q90 0 147.5 -53.5t57.5 -147.5q0 -29 -10 -84l-72 -344q-6 -30 -6 -59q0 -71 38.5 -113.5t100.5 -44.5l-29 -143
q-77 -2 -142.5 -61t-82.5 -144l-80 -385q-24 -118 -105 -187t-182 -69z" />
    <glyph glyph-name="asciitilde" unicode="~" horiz-adv-x="1228" 
d="M999 682l50 -143q-79 -104 -143 -139t-134 -35q-53 0 -105 18.5t-124 54.5q-118 62 -189 62q-51 0 -95.5 -30t-115.5 -116l-49 144q77 97 140.5 135.5t142.5 38.5q74 0 196 -60q10 -5 40 -19.5t39.5 -19t32.5 -14t36 -12.5t31.5 -6.5t35.5 -3.5q50 0 97 32t114 113z" />
    <glyph glyph-name="uni00A0" unicode="&#xa0;" horiz-adv-x="532" 
 />
    <glyph glyph-name="exclamdown" unicode="&#xa1;" horiz-adv-x="757" 
d="M520 797h-246l56 258h243zM279 -375h-263l248 1008h197z" />
    <glyph glyph-name="cent" unicode="&#xa2;" horiz-adv-x="1064" 
d="M510 -262h-102l53 250q-166 25 -261.5 135.5t-95.5 275.5q0 132 42 253t117 213t186 147.5t241 58.5l49 234h103l-49 -238q84 -8 151 -39l-53 -199q-68 39 -139 48l-150 -701q123 9 189 55l-29 -200q-87 -38 -201 -47zM504 190l145 684q-85 -14 -151.5 -78t-102 -161
t-35.5 -209q0 -179 144 -236z" />
    <glyph glyph-name="sterling" unicode="&#xa3;" horiz-adv-x="1064" 
d="M815 0h-856l41 201h145l103 479h-146l35 160h146l36 176q43 211 171 322.5t335 111.5q128 0 260 -37l-59 -203q-62 27 -106 37t-99 10q-214 0 -266 -245l-35 -172h318l-35 -160h-318l-102 -479h471z" />
    <glyph glyph-name="currency" unicode="&#xa4;" horiz-adv-x="1064" 
d="M922 223l-107 107q-131 -94 -283 -94q-155 0 -282 94l-107 -107l-102 103l106 106q-94 131 -94 283q0 161 94 282l-106 107l102 102l107 -106q127 94 282 94q156 0 283 -94l107 106l102 -102l-106 -107q94 -127 94 -282q0 -157 -94 -283l106 -106zM532 387q134 0 227 96
t93 232t-93 231.5t-229 95.5q-132 0 -224.5 -96t-92.5 -231q0 -137 93 -232.5t226 -95.5z" />
    <glyph glyph-name="yen" unicode="&#xa5;" horiz-adv-x="1064" 
d="M883 299h-316l-63 -299h-246l64 299h-308l31 152h307l33 155h-311l32 152h242l-178 672h256l133 -572l369 572h270l-461 -672h238l-33 -152h-311l-33 -155h315z" />
    <glyph glyph-name="brokenbar" unicode="&#xa6;" horiz-adv-x="454" 
d="M317 666h-180v716h180v-716zM317 -358h-180v716h180v-716z" />
    <glyph glyph-name="section" unicode="&#xa7;" horiz-adv-x="1062" 
d="M-41 -197l66 203q58 -39 135 -64.5t139 -25.5q98 0 156.5 45.5t58.5 120.5q0 52 -46 99t-149 110q-102 60 -151 125.5t-49 156.5q0 100 56 176.5t185 147.5q-43 37 -68.5 92.5t-25.5 116.5q0 155 119 249.5t303 94.5q77 0 162 -15.5t141 -39.5l-65 -197q-122 66 -232 66
q-88 0 -140 -39t-52 -107q0 -47 45 -94.5t149 -114.5t150.5 -131t46.5 -143q0 -95 -53.5 -176t-173.5 -162q90 -86 90 -205q0 -166 -125 -265t-336 -99q-205 0 -336 75zM469 823q-65 -56 -96 -102.5t-31 -104.5q0 -69 45.5 -116.5t163.5 -120.5q119 106 119 211
q0 60 -44.5 112t-156.5 121z" />
    <glyph glyph-name="dieresis" unicode="&#xa8;" horiz-adv-x="454" 
d="M254 1235h-197l47 225h197zM598 1235h-197l48 225h196z" />
    <glyph glyph-name="copyright" unicode="&#xa9;" horiz-adv-x="1638" 
d="M819 -20q-147 0 -282.5 57t-235 154.5t-158.5 234.5t-59 289q0 195 96 363.5t266 270t373 101.5q148 0 283.5 -58t234.5 -156.5t158 -235t59 -285.5q0 -196 -96.5 -365t-266 -269.5t-372.5 -100.5zM819 131q159 0 289.5 81.5t202 215t71.5 287.5q0 157 -74 290.5
t-204.5 213t-286.5 79.5q-152 0 -281 -78t-204.5 -212.5t-75.5 -292.5q0 -159 74 -293t203.5 -212.5t285.5 -78.5zM1040 584h152q-17 -146 -115 -232t-239 -86q-192 0 -305 124t-113 325q0 200 112 322t299 122q150 0 248 -82.5t113 -222.5h-152q-17 74 -72 118t-134 44
q-119 0 -186.5 -81t-67.5 -216q0 -141 70 -225t188 -84q86 0 138.5 46t63.5 128z" />
    <glyph glyph-name="ordfeminine" unicode="&#xaa;" horiz-adv-x="720" 
d="M674 811h-154q0 61 10 88h-4q-57 -52 -101.5 -74t-102.5 -22q-85 0 -140 47t-55 123q0 119 103 175.5t348 55.5q10 22 10 56q0 43 -24 59t-81 16q-109 0 -204 -53l18 125q94 43 225 43q113 0 173.5 -48t60.5 -128q0 -27 -4 -47l-56 -266q-8 -39 -12.5 -68.5t-6.5 -52.5
t-3 -29zM559 1110h-18q-125 0 -181.5 -28.5t-56.5 -96.5q0 -72 84 -72q61 0 110 51t62 146z" />
    <glyph glyph-name="guillemotleft" unicode="&#xab;" horiz-adv-x="1062" 
d="M424 106h-197l-133 439l293 409h213l-295 -419zM778 106h-196l-133 439l294 409h211l-295 -419z" />
    <glyph glyph-name="logicalnot" unicode="&#xac;" horiz-adv-x="1228" 
d="M1092 213h-181v430h-856v180h1037v-610z" />
    <glyph glyph-name="uni00AD" unicode="&#xad;" horiz-adv-x="645" 
d="M508 477h-473l45 209h473z" />
    <glyph glyph-name="registered" unicode="&#xae;" horiz-adv-x="1638" 
d="M1167 301h-180l-211 334h-86v-334h-160v838h301q176 0 252 -55t76 -195q0 -212 -215 -248zM690 770h166q76 0 109.5 29t33.5 96q0 59 -34.5 84t-110.5 25h-164v-234zM819 -20q-147 0 -282.5 57t-235 154.5t-158.5 234.5t-59 289q0 195 96 363.5t266 270t373 101.5
q148 0 283.5 -58t234.5 -156.5t158 -235t59 -285.5q0 -196 -96.5 -365t-266 -269.5t-372.5 -100.5zM819 131q159 0 289.5 81.5t202 215t71.5 287.5q0 157 -74 290.5t-204.5 213t-286.5 79.5q-152 0 -281 -78t-204.5 -212.5t-75.5 -292.5q0 -159 74 -293t203.5 -212.5
t285.5 -78.5z" />
    <glyph glyph-name="macron" unicode="&#xaf;" horiz-adv-x="454" 
d="M614 1247h-569l33 152h569z" />
    <glyph glyph-name="degree" unicode="&#xb0;" horiz-adv-x="819" 
d="M467 862q-117 0 -190.5 69t-73.5 181q0 141 100 239.5t238 98.5q122 0 193 -67.5t71 -182.5q0 -137 -97.5 -237.5t-240.5 -100.5zM475 1001q75 0 126.5 56.5t51.5 132.5q0 54 -33.5 87.5t-89.5 33.5q-73 0 -124.5 -56t-51.5 -133q0 -55 33.5 -88t87.5 -33z" />
    <glyph glyph-name="plusminus" unicode="&#xb1;" horiz-adv-x="1228" 
d="M1092 555h-428v-301h-181v301h-428v180h428v301h181v-301h428v-180zM1092 0h-1037v180h1037v-180z" />
    <glyph glyph-name="twosuperior" unicode="&#xb2;" horiz-adv-x="692" 
d="M676 877h-535l23 137q268 219 357 318.5t89 180.5q0 93 -108 93q-44 0 -96.5 -16.5t-94.5 -45.5l13 150q110 55 229 55q109 0 176.5 -60t67.5 -153q0 -51 -14.5 -94.5t-56.5 -103t-127.5 -136t-219.5 -174.5h326z" />
    <glyph glyph-name="threesuperior" unicode="&#xb3;" horiz-adv-x="692" 
d="M578 1327v-4q64 -12 108.5 -61t44.5 -111q0 -129 -104 -206t-279 -77q-119 0 -213 35l31 144q97 -46 178 -46q93 0 144 39.5t51 112.5q0 47 -42 77t-124 30h-54l25 120q270 0 270 140q0 43 -35 68.5t-96 25.5q-100 0 -182 -41l12 137q86 39 209 39t197 -56t74 -145
q0 -160 -215 -221z" />
    <glyph glyph-name="acute" unicode="&#xb4;" horiz-adv-x="454" 
d="M365 1171h-164l170 295h239z" />
    <glyph glyph-name="mu" unicode="&#xb5;" horiz-adv-x="1103" 
d="M973 188l-33 -184q-58 -16 -123 -16q-147 0 -147 151q0 27 2 41q-130 -203 -287 -203q-99 0 -129 64h-6q-18 -172 -70 -471h-227l256 1483h235l-88 -529q-22 -134 -22 -207q0 -70 22.5 -109.5t79.5 -39.5q93 0 172 118.5t109 293.5l80 473h241l-118 -684
q-19 -102 -19 -140q0 -49 37 -49q15 0 35 8z" />
    <glyph glyph-name="paragraph" unicode="&#xb6;" horiz-adv-x="1228" 
d="M844 -244h-197l324 1522h-217l-324 -1522h-197l197 926q-125 6 -204 87t-79 208q0 195 134 324t358 129h561z" />
    <glyph glyph-name="periodcentered" unicode="&#xb7;" horiz-adv-x="530" 
d="M221 424q-62 0 -101.5 39.5t-39.5 97.5q0 73 52 125.5t122 52.5q61 0 101 -39.5t40 -99.5q0 -72 -51 -124t-123 -52z" />
    <glyph glyph-name="cedilla" unicode="&#xb8;" horiz-adv-x="454" 
d="M-225 -414l49 82q75 -28 139 -28q55 0 88 24.5t33 67.5q0 30 -21.5 48.5t-58.5 18.5q-36 0 -82 -14l-28 35l114 180h90l-82 -127q33 8 82 8q69 0 109.5 -35.5t40.5 -95.5q0 -87 -77.5 -146t-190.5 -59q-143 0 -205 41z" />
    <glyph glyph-name="onesuperior" unicode="&#xb9;" horiz-adv-x="692" 
d="M522 877h-176l143 671l-147 -114l-76 108l279 193h160z" />
    <glyph glyph-name="ordmasculine" unicode="&#xba;" horiz-adv-x="720" 
d="M389 803q-121 0 -192.5 68.5t-71.5 179.5q0 76 25 147t71 127.5t118.5 90.5t160.5 34q122 0 194 -69t72 -181q0 -167 -107.5 -282t-269.5 -115zM406 922q81 0 130.5 88t49.5 202q0 56 -27 87.5t-76 31.5q-78 0 -128 -89t-50 -204q0 -55 26.5 -85.5t74.5 -30.5z" />
    <glyph glyph-name="guillemotright" unicode="&#xbb;" horiz-adv-x="1062" 
d="M244 106h-211l295 420l-119 428h197l133 -438zM600 106h-213l295 420l-119 428h197l133 -438z" />
    <glyph glyph-name="onequarter" unicode="&#xbc;" horiz-adv-x="1593" 
d="M424 575h-176l143 672l-147 -114l-76 108l278 193h160zM1276 0h-172l35 170h-367l33 152l432 536h221l-119 -553h105l-29 -135h-104zM1167 305l82 383h-4l-301 -383h223zM389 -70h-162l889 1569h162z" />
    <glyph glyph-name="onehalf" unicode="&#xbd;" horiz-adv-x="1593" 
d="M424 575h-176l143 672l-147 -114l-76 108l278 193h160zM1384 0h-534l22 137q268 219 357.5 319t89.5 181q0 92 -109 92q-102 0 -190 -61l12 149q110 55 230 55q109 0 176 -60t67 -153q0 -51 -14.5 -94t-56.5 -103t-127.5 -136t-219.5 -174h326zM389 -70h-162l889 1569
h162z" />
    <glyph glyph-name="threequarters" unicode="&#xbe;" horiz-adv-x="1593" 
d="M1276 0h-172l35 170h-367l33 152l432 536h221l-119 -553h105l-29 -135h-104zM1167 305l82 383h-4l-301 -383h223zM496 1026v-4q64 -12 108.5 -61t44.5 -111q0 -129 -104 -206t-279 -77q-119 0 -213 35l31 143q95 -45 178 -45q93 0 144 39.5t51 112.5q0 47 -42 76.5
t-124 29.5h-53l24 121q270 0 270 140q0 43 -35 68.5t-96 25.5q-100 0 -182 -41l12 137q86 39 209 39t197 -56t74 -145q0 -160 -215 -221zM444 -70h-161l888 1569h162z" />
    <glyph glyph-name="questiondown" unicode="&#xbf;" horiz-adv-x="948" 
d="M616 -117l-24 -223q-157 -55 -320 -55q-158 0 -255 81.5t-97 215.5q0 99 46.5 187t156.5 196q131 128 178 196t59 156h222q-11 -87 -28 -138.5t-62 -114t-134 -148.5q-100 -97 -134 -153t-34 -126q0 -67 47.5 -105t127.5 -38q116 0 251 69zM625 797h-246l53 258h246z" />
    <glyph glyph-name="Agrave" unicode="&#xc0;" horiz-adv-x="1251" 
d="M1090 0h-254l-27 344h-485l-172 -344h-289l776 1430h287zM795 545l-52 667h-4l-325 -667h381zM911 1497h-153l-164 295h229z" />
    <glyph glyph-name="Aacute" unicode="&#xc1;" horiz-adv-x="1251" 
d="M1090 0h-254l-27 344h-485l-172 -344h-289l776 1430h287zM795 545l-52 667h-4l-325 -667h381zM831 1497h-163l170 295h239z" />
    <glyph glyph-name="Acircumflex" unicode="&#xc2;" horiz-adv-x="1251" 
d="M1090 0h-254l-27 344h-485l-172 -344h-289l776 1430h287zM795 545l-52 667h-4l-325 -667h381zM1079 1497h-178l-74 178l-143 -178h-197l246 295h221z" />
    <glyph glyph-name="Atilde" unicode="&#xc3;" horiz-adv-x="1251" 
d="M1090 0h-254l-27 344h-485l-172 -344h-289l776 1430h287zM795 545l-52 667h-4l-325 -667h381zM1010 1769h133q-26 -108 -87 -173.5t-145 -65.5q-17 0 -34.5 4.5t-26 7.5t-31 14t-26.5 13q-65 30 -99 30q-35 0 -60.5 -22.5t-33.5 -56.5h-125q24 112 85 175.5t151 63.5
q49 0 125 -35q70 -34 98 -34t49 22.5t27 56.5z" />
    <glyph glyph-name="Adieresis" unicode="&#xc4;" horiz-adv-x="1251" 
d="M1090 0h-254l-27 344h-485l-172 -344h-289l776 1430h287zM795 545l-52 667h-4l-325 -667h381zM721 1561h-197l49 225h197zM1065 1561h-197l50 225h196z" />
    <glyph glyph-name="Aring" unicode="&#xc5;" horiz-adv-x="1251" 
d="M1090 0h-254l-27 344h-485l-172 -344h-289l776 1430h287zM795 545l-52 667h-4l-325 -667h381zM1051 1737q0 -106 -75 -178t-181 -72q-88 0 -142.5 51t-54.5 137q0 103 76 176.5t180 73.5q88 0 142.5 -51t54.5 -137zM803 1583q60 0 99.5 43.5t39.5 102.5q0 43 -26.5 70.5
t-69.5 27.5q-57 0 -98 -43.5t-41 -102.5q0 -43 26.5 -70.5t69.5 -27.5z" />
    <glyph glyph-name="AE" unicode="&#xc6;" horiz-adv-x="1705" 
d="M1444 0h-725l72 344h-392l-223 -344h-297l959 1430h891l-46 -209h-460l-80 -381h434l-45 -209h-434l-90 -422h479zM834 545l151 710h-6l-465 -710h320z" />
    <glyph glyph-name="Ccedilla" unicode="&#xc7;" horiz-adv-x="1138" 
d="M958 270l-38 -239q-138 -51 -289 -51q-18 0 -43 2t-27 2l-69 -111q33 8 81 8q69 0 109.5 -35.5t40.5 -95.5q0 -86 -77.5 -145.5t-190.5 -59.5q-141 0 -205 41l49 82q75 -28 139 -28q55 0 88 24.5t33 67.5q0 30 -21.5 48.5t-58.5 18.5q-36 0 -82 -14l-28 35l110 174
q-196 43 -302.5 183.5t-106.5 352.5q0 142 36 277.5t106.5 251.5t167.5 203.5t227.5 137.5t277.5 50q180 0 301 -57l-62 -232q-104 74 -243 74q-161 0 -284.5 -94t-187 -245.5t-63.5 -332.5q0 -172 88.5 -269t243.5 -97q127 0 280 73z" />
    <glyph glyph-name="Egrave" unicode="&#xc8;" 
d="M772 0h-772l303 1430h752l-45 -209h-490l-80 -381h463l-45 -209h-463l-90 -422h510zM813 1497h-154l-163 295h229z" />
    <glyph glyph-name="Eacute" unicode="&#xc9;" 
d="M772 0h-772l303 1430h752l-45 -209h-490l-80 -381h463l-45 -209h-463l-90 -422h510zM739 1497h-164l170 295h240z" />
    <glyph glyph-name="Ecircumflex" unicode="&#xca;" 
d="M772 0h-772l303 1430h752l-45 -209h-490l-80 -381h463l-45 -209h-463l-90 -422h510zM975 1497h-178l-74 178l-143 -178h-197l246 295h221z" />
    <glyph glyph-name="Edieresis" unicode="&#xcb;" 
d="M772 0h-772l303 1430h752l-45 -209h-490l-80 -381h463l-45 -209h-463l-90 -422h510zM621 1561h-197l49 225h197zM965 1561h-197l49 225h197z" />
    <glyph glyph-name="Igrave" unicode="&#xcc;" horiz-adv-x="569" 
d="M264 0h-262l303 1430h262zM573 1497h-153l-164 295h229z" />
    <glyph glyph-name="Iacute" unicode="&#xcd;" horiz-adv-x="569" 
d="M264 0h-262l303 1430h262zM494 1497h-164l170 295h239z" />
    <glyph glyph-name="Icircumflex" unicode="&#xce;" horiz-adv-x="569" 
d="M264 0h-262l303 1430h262zM739 1497h-178l-74 178l-143 -178h-197l246 295h221z" />
    <glyph glyph-name="Idieresis" unicode="&#xcf;" horiz-adv-x="569" 
d="M264 0h-262l303 1430h262zM383 1561h-197l50 225h196zM727 1561h-197l50 225h196z" />
    <glyph glyph-name="Eth" unicode="&#xd0;" horiz-adv-x="1290" 
d="M424 0h-436l137 651h-139l37 172h139l129 607h344q277 0 431.5 -135.5t154.5 -399.5q0 -140 -30.5 -269.5t-95.5 -244t-157.5 -199t-224.5 -133.5t-289 -49zM291 201h147q226 0 368 192t142 494q0 164 -85.5 253t-241.5 89h-111l-86 -406h266l-37 -172h-266z" />
    <glyph glyph-name="Ntilde" unicode="&#xd1;" horiz-adv-x="1327" 
d="M1026 0h-321l-230 1114h-4l-235 -1114h-238l303 1430h320l227 -1123h4l240 1123h237zM1047 1769h133q-26 -108 -87 -173.5t-145 -65.5q-13 0 -25.5 2t-26 7t-21.5 8.5t-23.5 11t-22.5 10.5q-65 30 -98 30q-35 0 -60.5 -22.5t-33.5 -56.5h-125q24 112 85 175.5t151 63.5
q48 0 124 -35q70 -34 99 -34q28 0 49 22.5t27 56.5z" />
    <glyph glyph-name="Ograve" unicode="&#xd2;" horiz-adv-x="1327" 
d="M545 -20q-223 0 -352.5 132.5t-129.5 368.5q0 129 26.5 261.5t84.5 260t140 226.5t203.5 160t264.5 61q224 0 353 -133t129 -371q0 -105 -19 -214.5t-56 -218.5t-98 -204.5t-138 -169.5t-182.5 -116.5t-225.5 -42.5zM551 180q91 0 167.5 55.5t125.5 141t83.5 192
t49 204.5t14.5 183q0 136 -58.5 214.5t-158.5 78.5q-122 0 -224 -111.5t-158 -289.5t-56 -375q0 -134 59 -213.5t156 -79.5zM963 1497h-154l-164 295h229z" />
    <glyph glyph-name="Oacute" unicode="&#xd3;" horiz-adv-x="1327" 
d="M545 -20q-223 0 -352.5 132.5t-129.5 368.5q0 129 26.5 261.5t84.5 260t140 226.5t203.5 160t264.5 61q224 0 353 -133t129 -371q0 -105 -19 -214.5t-56 -218.5t-98 -204.5t-138 -169.5t-182.5 -116.5t-225.5 -42.5zM551 180q91 0 167.5 55.5t125.5 141t83.5 192
t49 204.5t14.5 183q0 136 -58.5 214.5t-158.5 78.5q-122 0 -224 -111.5t-158 -289.5t-56 -375q0 -134 59 -213.5t156 -79.5zM860 1497h-164l170 295h240z" />
    <glyph glyph-name="Ocircumflex" unicode="&#xd4;" horiz-adv-x="1327" 
d="M545 -20q-223 0 -352.5 132.5t-129.5 368.5q0 129 26.5 261.5t84.5 260t140 226.5t203.5 160t264.5 61q224 0 353 -133t129 -371q0 -105 -19 -214.5t-56 -218.5t-98 -204.5t-138 -169.5t-182.5 -116.5t-225.5 -42.5zM551 180q91 0 167.5 55.5t125.5 141t83.5 192
t49 204.5t14.5 183q0 136 -58.5 214.5t-158.5 78.5q-122 0 -224 -111.5t-158 -289.5t-56 -375q0 -134 59 -213.5t156 -79.5zM1104 1497h-178l-74 178l-143 -178h-197l246 295h221z" />
    <glyph glyph-name="Otilde" unicode="&#xd5;" horiz-adv-x="1327" 
d="M545 -20q-223 0 -352.5 132.5t-129.5 368.5q0 129 26.5 261.5t84.5 260t140 226.5t203.5 160t264.5 61q224 0 353 -133t129 -371q0 -105 -19 -214.5t-56 -218.5t-98 -204.5t-138 -169.5t-182.5 -116.5t-225.5 -42.5zM551 180q91 0 167.5 55.5t125.5 141t83.5 192
t49 204.5t14.5 183q0 136 -58.5 214.5t-158.5 78.5q-122 0 -224 -111.5t-158 -289.5t-56 -375q0 -134 59 -213.5t156 -79.5zM1040 1769h134q-26 -108 -87 -173.5t-145 -65.5q-13 0 -25.5 2t-26 7t-21.5 8.5t-23.5 11t-22.5 10.5q-65 30 -98 30q-35 0 -60.5 -22.5
t-33.5 -56.5h-125q24 112 85 175.5t150 63.5q49 0 125 -35q70 -34 99 -34q28 0 48.5 22.5t26.5 56.5z" />
    <glyph glyph-name="Odieresis" unicode="&#xd6;" horiz-adv-x="1327" 
d="M545 -20q-223 0 -352.5 132.5t-129.5 368.5q0 129 26.5 261.5t84.5 260t140 226.5t203.5 160t264.5 61q224 0 353 -133t129 -371q0 -105 -19 -214.5t-56 -218.5t-98 -204.5t-138 -169.5t-182.5 -116.5t-225.5 -42.5zM551 180q91 0 167.5 55.5t125.5 141t83.5 192
t49 204.5t14.5 183q0 136 -58.5 214.5t-158.5 78.5q-122 0 -224 -111.5t-158 -289.5t-56 -375q0 -134 59 -213.5t156 -79.5zM750 1561h-197l49 225h197zM1094 1561h-197l49 225h197z" />
    <glyph glyph-name="multiply" unicode="&#xd7;" horiz-adv-x="1228" 
d="M922 43l-349 350l-348 -350l-127 127l348 348l-348 348l127 127l348 -348l349 348l127 -127l-349 -348l349 -348z" />
    <glyph glyph-name="Oslash" unicode="&#xd8;" horiz-adv-x="1327" 
d="M45 -37l-74 68l156 170q-64 113 -64 280q0 384 199 676q200 293 520 293q230 0 357 -139l143 155l72 -67l-154 -170q64 -113 64 -283q0 -104 -19 -212.5t-55.5 -218t-97 -205t-137.5 -170t-183 -117.5t-227 -43q-224 0 -357 139zM338 426l625 696q-50 127 -189 127
q-93 0 -175.5 -66t-139.5 -175t-90 -253.5t-33 -299.5q0 -21 2 -29zM989 1006l-624 -699q53 -127 186 -127q125 0 227.5 111.5t158 294.5t54.5 393q0 21 -2 27z" />
    <glyph glyph-name="Ugrave" unicode="&#xd9;" horiz-adv-x="1251" 
d="M799 467l202 963h263l-205 -967q-50 -231 -193 -357t-356 -126q-200 0 -315 101t-115 281q0 77 20 175l191 893h262l-205 -977q-8 -44 -8 -93q0 -75 51 -123.5t129 -48.5q122 0 184 60.5t95 218.5zM920 1497h-154l-164 295h229z" />
    <glyph glyph-name="Uacute" unicode="&#xda;" horiz-adv-x="1251" 
d="M799 467l202 963h263l-205 -967q-50 -231 -193 -357t-356 -126q-200 0 -315 101t-115 281q0 77 20 175l191 893h262l-205 -977q-8 -44 -8 -93q0 -75 51 -123.5t129 -48.5q122 0 184 60.5t95 218.5zM823 1497h-164l170 295h240z" />
    <glyph glyph-name="Ucircumflex" unicode="&#xdb;" horiz-adv-x="1251" 
d="M799 467l202 963h263l-205 -967q-50 -231 -193 -357t-356 -126q-200 0 -315 101t-115 281q0 77 20 175l191 893h262l-205 -977q-8 -44 -8 -93q0 -75 51 -123.5t129 -48.5q122 0 184 60.5t95 218.5zM1077 1497h-178l-74 178l-143 -178h-197l246 295h221z" />
    <glyph glyph-name="Udieresis" unicode="&#xdc;" horiz-adv-x="1251" 
d="M799 467l202 963h263l-205 -967q-50 -231 -193 -357t-356 -126q-200 0 -315 101t-115 281q0 77 20 175l191 893h262l-205 -977q-8 -44 -8 -93q0 -75 51 -123.5t129 -48.5q122 0 184 60.5t95 218.5zM719 1561h-197l49 225h197zM1063 1561h-197l49 225h197z" />
    <glyph glyph-name="Yacute" unicode="&#xdd;" horiz-adv-x="1138" 
d="M551 0h-262l123 578l-248 852h274l164 -572l377 572h291l-600 -865zM782 1497h-164l170 295h240z" />
    <glyph glyph-name="Thorn" unicode="&#xde;" horiz-adv-x="1062" 
d="M250 0h-262l303 1430h262l-49 -228h121q180 0 286.5 -96t106.5 -262q0 -221 -147 -366.5t-365 -145.5h-187zM362 532h121q123 0 198 79.5t75 213.5q0 83 -47.5 128.5t-139.5 45.5h-108z" />
    <glyph glyph-name="germandbls" unicode="&#xdf;" horiz-adv-x="1099" 
d="M326 -2l41 197q21 -13 86 -13q76 0 134 47t86.5 120t28.5 159q0 184 -210 199l38 192q128 0 204.5 88t76.5 232q0 68 -39 110.5t-100 42.5q-27 0 -47 -3t-49 -18t-51 -41.5t-45 -78t-38 -123.5l-233 -1108h-248l238 1122q50 223 169 331t320 108q164 0 263.5 -94.5
t99.5 -233.5q0 -157 -86.5 -278.5t-229.5 -151.5v-6q103 -26 163 -107t60 -188q0 -232 -132 -375t-357 -143q-33 0 -143 14z" />
    <glyph glyph-name="agrave" unicode="&#xe0;" 
d="M764 0h-229q0 26 4 66l10 79h-4q-78 -92 -140.5 -128.5t-144.5 -36.5q-133 0 -213 77t-80 205q0 389 551 389h135q15 77 15 109q0 131 -156 131q-153 0 -315 -90l12 200q158 70 346 70q162 0 257 -77t95 -203q0 -49 -20 -152l-101 -475q-8 -40 -22 -164zM600 410l25 106
q-221 0 -320.5 -48t-99.5 -175q0 -61 39 -99t102 -38q88 0 156.5 63t97.5 191zM707 1171h-154l-162 295h227z" />
    <glyph glyph-name="aacute" unicode="&#xe1;" 
d="M764 0h-229q0 26 4 66l10 79h-4q-78 -92 -140.5 -128.5t-144.5 -36.5q-133 0 -213 77t-80 205q0 389 551 389h135q15 77 15 109q0 131 -156 131q-153 0 -315 -90l12 200q158 70 346 70q162 0 257 -77t95 -203q0 -49 -20 -152l-101 -475q-8 -40 -22 -164zM600 410l25 106
q-221 0 -320.5 -48t-99.5 -175q0 -61 39 -99t102 -38q88 0 156.5 63t97.5 191zM649 1171h-164l170 295h240z" />
    <glyph glyph-name="acircumflex" unicode="&#xe2;" 
d="M764 0h-229q0 26 4 66l10 79h-4q-78 -92 -140.5 -128.5t-144.5 -36.5q-133 0 -213 77t-80 205q0 389 551 389h135q15 77 15 109q0 131 -156 131q-153 0 -315 -90l12 200q158 70 346 70q162 0 257 -77t95 -203q0 -49 -20 -152l-101 -475q-8 -40 -22 -164zM600 410l25 106
q-221 0 -320.5 -48t-99.5 -175q0 -61 39 -99t102 -38q88 0 156.5 63t97.5 191zM874 1171h-178l-73 179l-144 -179h-196l245 295h222z" />
    <glyph glyph-name="atilde" unicode="&#xe3;" 
d="M764 0h-229q0 26 4 66l10 79h-4q-78 -92 -140.5 -128.5t-144.5 -36.5q-133 0 -213 77t-80 205q0 389 551 389h135q15 77 15 109q0 131 -156 131q-153 0 -315 -90l12 200q158 70 346 70q162 0 257 -77t95 -203q0 -49 -20 -152l-101 -475q-8 -40 -22 -164zM600 410l25 106
q-221 0 -320.5 -48t-99.5 -175q0 -61 39 -99t102 -38q88 0 156.5 63t97.5 191zM819 1444h133q-26 -108 -86.5 -174t-144.5 -66q-13 0 -25.5 2t-26 7t-21.5 8.5t-23.5 11t-22.5 10.5q-3 1 -13.5 6t-13.5 6.5t-11.5 5t-12 4.5t-11 3.5t-12.5 3.5t-11.5 1.5t-12.5 0.5
q-35 0 -60.5 -23t-33.5 -57h-125q24 112 85 176t150 64q49 0 125 -35q72 -35 98 -35q28 0 49 23t27 57z" />
    <glyph glyph-name="adieresis" unicode="&#xe4;" 
d="M764 0h-229q0 26 4 66l10 79h-4q-78 -92 -140.5 -128.5t-144.5 -36.5q-133 0 -213 77t-80 205q0 389 551 389h135q15 77 15 109q0 131 -156 131q-153 0 -315 -90l12 200q158 70 346 70q162 0 257 -77t95 -203q0 -49 -20 -152l-101 -475q-8 -40 -22 -164zM600 410l25 106
q-221 0 -320.5 -48t-99.5 -175q0 -61 39 -99t102 -38q88 0 156.5 63t97.5 191zM524 1235h-196l47 225h196zM868 1235h-196l47 225h196z" />
    <glyph glyph-name="aring" unicode="&#xe5;" 
d="M764 0h-229q0 26 4 66l10 79h-4q-78 -92 -140.5 -128.5t-144.5 -36.5q-133 0 -213 77t-80 205q0 389 551 389h135q15 77 15 109q0 131 -156 131q-153 0 -315 -90l12 200q158 70 346 70q162 0 257 -77t95 -203q0 -49 -20 -152l-101 -475q-8 -40 -22 -164zM600 410l25 106
q-221 0 -320.5 -48t-99.5 -175q0 -61 39 -99t102 -38q88 0 156.5 63t97.5 191zM850 1391q0 -104 -75.5 -177t-180.5 -73q-88 0 -142.5 51t-54.5 137q0 103 76 176.5t180 73.5q88 0 142.5 -51t54.5 -137zM602 1237q59 0 99 43.5t40 101.5q0 42 -27 70.5t-69 28.5
q-58 0 -98.5 -43.5t-40.5 -102.5q0 -43 26.5 -70.5t69.5 -27.5z" />
    <glyph glyph-name="ae" unicode="&#xe6;" horiz-adv-x="1589" 
d="M1354 246l-29 -199q-158 -63 -303 -63q-290 0 -365 215q-89 -111 -182 -165t-215 -54q-133 0 -213 77t-80 205q0 195 141 292t410 97h135q15 77 15 109q0 131 -156 131q-153 0 -315 -90l12 200q161 70 346 70q217 0 287 -141q127 141 299 141q161 0 255.5 -93t94.5 -253
q0 -91 -35 -266h-612q-8 -24 -8 -74q0 -107 58.5 -163t164.5 -56q148 0 295 80zM872 618h377q15 73 15 115q0 75 -33.5 120.5t-95.5 45.5q-87 0 -162 -80t-101 -201zM598 401l27 115h-21q-206 0 -302.5 -49.5t-96.5 -173.5q0 -61 39 -99t102 -38q88 0 155.5 61t96.5 184z
" />
    <glyph glyph-name="ccedilla" unicode="&#xe7;" horiz-adv-x="872" 
d="M102 -414l50 82q75 -28 141 -28q55 0 87 24t32 68q0 30 -21 48.5t-57 18.5q-38 0 -84 -14l-29 35l113 178q-142 32 -222.5 139.5t-80.5 263.5q0 134 43 256t118 213.5t186 146t240 54.5q167 0 252 -43l-53 -199q-86 50 -188 50q-78 0 -143.5 -38t-108.5 -101.5
t-66.5 -144.5t-23.5 -169q0 -116 62.5 -183t162.5 -67q109 0 205 55l-29 -200q-106 -47 -239 -47q-19 0 -33 2l-72 -113q33 8 82 8q69 0 109 -35.5t40 -95.5q0 -87 -77.5 -146t-190.5 -59q-143 0 -205 41z" />
    <glyph glyph-name="egrave" unicode="&#xe8;" 
d="M784 246l-28 -199q-158 -63 -303 -63q-205 0 -314.5 105t-109.5 302q0 133 41.5 257t112 217.5t172 149.5t214.5 56q164 0 258.5 -93t94.5 -253q0 -91 -35 -266h-615q-6 -27 -6 -74q0 -108 58 -163.5t165 -55.5q69 0 149 21.5t146 58.5zM303 618h377q14 60 14 115
q0 76 -33.5 121t-97.5 45q-83 0 -158 -79t-102 -202zM709 1171h-154l-162 295h228z" />
    <glyph glyph-name="eacute" unicode="&#xe9;" 
d="M784 246l-28 -199q-158 -63 -303 -63q-205 0 -314.5 105t-109.5 302q0 133 41.5 257t112 217.5t172 149.5t214.5 56q164 0 258.5 -93t94.5 -253q0 -91 -35 -266h-615q-6 -27 -6 -74q0 -108 58 -163.5t165 -55.5q69 0 149 21.5t146 58.5zM303 618h377q14 60 14 115
q0 76 -33.5 121t-97.5 45q-83 0 -158 -79t-102 -202zM649 1171h-164l170 295h240z" />
    <glyph glyph-name="ecircumflex" unicode="&#xea;" 
d="M784 246l-28 -199q-158 -63 -303 -63q-205 0 -314.5 105t-109.5 302q0 133 41.5 257t112 217.5t172 149.5t214.5 56q164 0 258.5 -93t94.5 -253q0 -91 -35 -266h-615q-6 -27 -6 -74q0 -108 58 -163.5t165 -55.5q69 0 149 21.5t146 58.5zM303 618h377q14 60 14 115
q0 76 -33.5 121t-97.5 45q-83 0 -158 -79t-102 -202zM889 1171h-178l-74 179l-143 -179h-197l246 295h221z" />
    <glyph glyph-name="edieresis" unicode="&#xeb;" 
d="M784 246l-28 -199q-158 -63 -303 -63q-205 0 -314.5 105t-109.5 302q0 133 41.5 257t112 217.5t172 149.5t214.5 56q164 0 258.5 -93t94.5 -253q0 -91 -35 -266h-615q-6 -27 -6 -74q0 -108 58 -163.5t165 -55.5q69 0 149 21.5t146 58.5zM303 618h377q14 60 14 115
q0 76 -33.5 121t-97.5 45q-83 0 -158 -79t-102 -202zM530 1235h-196l47 225h197zM874 1235h-196l47 225h197z" />
    <glyph glyph-name="igrave" unicode="&#xec;" horiz-adv-x="532" 
d="M242 0h-254l223 1055h254zM489 1171h-153l-162 295h227z" />
    <glyph glyph-name="iacute" unicode="&#xed;" horiz-adv-x="532" 
d="M242 0h-254l223 1055h254zM403 1171h-163l170 295h239z" />
    <glyph glyph-name="icircumflex" unicode="&#xee;" horiz-adv-x="532" 
d="M242 0h-254l223 1055h254zM649 1171h-178l-74 179l-143 -179h-197l246 295h221z" />
    <glyph glyph-name="idieresis" unicode="&#xef;" horiz-adv-x="532" 
d="M242 0h-254l223 1055h254zM293 1235h-197l47 225h197zM637 1235h-197l47 225h197z" />
    <glyph glyph-name="eth" unicode="&#xf0;" horiz-adv-x="1099" 
d="M1008 1477l-168 -82q102 -145 136 -265.5t34 -269.5q0 -179 -37.5 -336t-108 -278t-181.5 -191.5t-249 -70.5q-190 0 -297.5 106.5t-107.5 292.5q0 180 68.5 336.5t197 254t289.5 97.5q63 0 125.5 -36.5t95.5 -96.5q-3 81 -44 191t-93 169l-201 -98l-45 84l172 84
q-85 71 -139 86l141 107q76 -23 168 -99l199 99zM436 164q89 0 159 76.5t105 194t35 249.5q0 98 -41 152.5t-116 54.5q-88 0 -157 -76t-104.5 -193t-35.5 -249q0 -100 40.5 -154.5t114.5 -54.5z" />
    <glyph glyph-name="ntilde" unicode="&#xf1;" horiz-adv-x="1062" 
d="M795 0h-252l137 643q14 65 14 105q0 54 -30 84t-86 30q-82 0 -143.5 -60.5t-82.5 -154.5l-135 -647h-254l199 940q12 64 16 115h238l-27 -162h4q61 94 134 136t171 42q117 0 186.5 -68.5t69.5 -181.5q0 -74 -16 -147zM840 1444h133q-26 -108 -87 -174t-145 -66
q-17 0 -34.5 4.5t-26 7.5t-31 14t-26.5 13q-67 31 -99 31q-35 0 -60.5 -23t-33.5 -57h-125q24 112 85.5 176t150.5 64q49 0 125 -35q72 -35 98 -35q28 0 49 23t27 57z" />
    <glyph glyph-name="ograve" unicode="&#xf2;" horiz-adv-x="1099" 
d="M430 -16q-186 0 -293.5 106.5t-107.5 292.5q0 131 39.5 254.5t109.5 220t176.5 155t231.5 58.5q185 0 293 -106t108 -289q0 -181 -67.5 -338t-197 -255.5t-292.5 -98.5zM436 164q89 0 159 76.5t105 194t35 249.5q0 98 -41 152.5t-116 54.5q-86 0 -155 -74t-105.5 -191.5
t-36.5 -252.5q0 -100 40.5 -154.5t114.5 -54.5zM758 1171h-154l-162 295h228z" />
    <glyph glyph-name="oacute" unicode="&#xf3;" horiz-adv-x="1099" 
d="M430 -16q-186 0 -293.5 106.5t-107.5 292.5q0 131 39.5 254.5t109.5 220t176.5 155t231.5 58.5q185 0 293 -106t108 -289q0 -181 -67.5 -338t-197 -255.5t-292.5 -98.5zM436 164q89 0 159 76.5t105 194t35 249.5q0 98 -41 152.5t-116 54.5q-86 0 -155 -74t-105.5 -191.5
t-36.5 -252.5q0 -100 40.5 -154.5t114.5 -54.5zM688 1171h-164l170 295h240z" />
    <glyph glyph-name="ocircumflex" unicode="&#xf4;" horiz-adv-x="1099" 
d="M430 -16q-186 0 -293.5 106.5t-107.5 292.5q0 131 39.5 254.5t109.5 220t176.5 155t231.5 58.5q185 0 293 -106t108 -289q0 -181 -67.5 -338t-197 -255.5t-292.5 -98.5zM436 164q89 0 159 76.5t105 194t35 249.5q0 98 -41 152.5t-116 54.5q-86 0 -155 -74t-105.5 -191.5
t-36.5 -252.5q0 -100 40.5 -154.5t114.5 -54.5zM915 1171h-178l-73 179l-144 -179h-196l245 295h222z" />
    <glyph glyph-name="otilde" unicode="&#xf5;" horiz-adv-x="1099" 
d="M430 -16q-186 0 -293.5 106.5t-107.5 292.5q0 131 39.5 254.5t109.5 220t176.5 155t231.5 58.5q185 0 293 -106t108 -289q0 -181 -67.5 -338t-197 -255.5t-292.5 -98.5zM436 164q89 0 159 76.5t105 194t35 249.5q0 98 -41 152.5t-116 54.5q-86 0 -155 -74t-105.5 -191.5
t-36.5 -252.5q0 -100 40.5 -154.5t114.5 -54.5zM854 1444h133q-26 -108 -86.5 -174t-144.5 -66q-13 0 -25.5 2t-26 7t-21.5 8.5t-23.5 11t-22.5 10.5q-3 1 -13.5 6t-13.5 6.5t-11.5 5t-12 4.5t-11 3.5t-12.5 3.5t-11.5 1.5t-12.5 0.5q-35 0 -61 -23t-34 -57h-125
q24 112 85.5 176t150.5 64q49 0 125 -35q72 -35 98 -35q28 0 49 23t27 57z" />
    <glyph glyph-name="odieresis" unicode="&#xf6;" horiz-adv-x="1099" 
d="M430 -16q-186 0 -293.5 106.5t-107.5 292.5q0 131 39.5 254.5t109.5 220t176.5 155t231.5 58.5q185 0 293 -106t108 -289q0 -181 -67.5 -338t-197 -255.5t-292.5 -98.5zM436 164q89 0 159 76.5t105 194t35 249.5q0 98 -41 152.5t-116 54.5q-86 0 -155 -74t-105.5 -191.5
t-36.5 -252.5q0 -100 40.5 -154.5t114.5 -54.5zM561 1235h-196l47 225h196zM905 1235h-196l47 225h196z" />
    <glyph glyph-name="divide" unicode="&#xf7;" horiz-adv-x="1228" 
d="M573 784q-64 0 -110.5 45.5t-46.5 112.5t46.5 112.5t110.5 45.5t111 -46t47 -112t-47 -112t-111 -46zM1092 428h-1037v180h1037v-180zM573 -63q-66 0 -111.5 45.5t-45.5 111.5q0 67 46.5 112.5t110.5 45.5t111 -46t47 -112t-46 -111.5t-112 -45.5z" />
    <glyph glyph-name="oslash" unicode="&#xf8;" horiz-adv-x="1099" 
d="M55 -41l-63 61l104 117q-67 98 -67 246q0 106 25 207.5t74 188t115.5 152t155 103t187.5 37.5q158 0 272 -90l105 115l63 -62l-106 -119q67 -103 67 -235q0 -135 -39.5 -260t-110 -222t-177 -155.5t-230.5 -58.5q-171 0 -272 88zM281 338l428 481q-37 72 -131 72
q-86 0 -154.5 -73t-105.5 -194t-37 -264v-22zM735 700v15l-428 -479q38 -72 129 -72q87 0 156 72t106 194t37 270z" />
    <glyph glyph-name="ugrave" unicode="&#xf9;" horiz-adv-x="1062" 
d="M803 0h-238l27 162h-4q-61 -95 -130 -136.5t-171 -41.5q-117 0 -187.5 68t-70.5 179q0 71 12 127l149 697h252l-141 -660q-10 -57 -10 -88q0 -54 30 -84t87 -30q85 0 142 57.5t79 161.5l135 643h254l-195 -922q-5 -23 -12 -76.5t-8 -56.5zM745 1171h-153l-162 295h227z
" />
    <glyph glyph-name="uacute" unicode="&#xfa;" horiz-adv-x="1062" 
d="M803 0h-238l27 162h-4q-61 -95 -130 -136.5t-171 -41.5q-117 0 -187.5 68t-70.5 179q0 71 12 127l149 697h252l-141 -660q-10 -57 -10 -88q0 -54 30 -84t87 -30q85 0 142 57.5t79 161.5l135 643h254l-195 -922q-5 -23 -12 -76.5t-8 -56.5zM670 1171h-164l170 295h239z
" />
    <glyph glyph-name="ucircumflex" unicode="&#xfb;" horiz-adv-x="1062" 
d="M803 0h-238l27 162h-4q-61 -95 -130 -136.5t-171 -41.5q-117 0 -187.5 68t-70.5 179q0 71 12 127l149 697h252l-141 -660q-10 -57 -10 -88q0 -54 30 -84t87 -30q85 0 142 57.5t79 161.5l135 643h254l-195 -922q-5 -23 -12 -76.5t-8 -56.5zM907 1171h-178l-74 179
l-143 -179h-197l246 295h221z" />
    <glyph glyph-name="udieresis" unicode="&#xfc;" horiz-adv-x="1062" 
d="M803 0h-238l27 162h-4q-61 -95 -130 -136.5t-171 -41.5q-117 0 -187.5 68t-70.5 179q0 71 12 127l149 697h252l-141 -660q-10 -57 -10 -88q0 -54 30 -84t87 -30q85 0 142 57.5t79 161.5l135 643h254l-195 -922q-5 -23 -12 -76.5t-8 -56.5zM559 1235h-197l48 225h196z
M903 1235h-196l47 225h196z" />
    <glyph glyph-name="yacute" unicode="&#xfd;" horiz-adv-x="948" 
d="M-145 -428l53 195q41 -21 88 -21q62 0 104.5 38t77.5 136l25 70l-127 1065h256l55 -795h4l361 795h252l-654 -1274q-122 -236 -342 -236q-89 0 -153 27zM606 1171h-164l170 295h240z" />
    <glyph glyph-name="thorn" unicode="&#xfe;" horiz-adv-x="1099" 
d="M127 -442h-254l420 1978h254l-137 -643h4q107 178 284 178q140 0 218.5 -98.5t78.5 -276.5q0 -135 -37.5 -264t-102 -228t-157 -159.5t-194.5 -60.5q-190 0 -248 168h-4zM459 164q62 0 116 48t89.5 125.5t56 172.5t20.5 190q0 88 -35.5 139.5t-103.5 51.5q-59 0 -110 -39
t-85 -99t-58 -133t-35 -140.5t-11 -121.5q0 -92 41 -143t115 -51z" />
    <glyph glyph-name="ydieresis" unicode="&#xff;" horiz-adv-x="948" 
d="M-145 -428l53 195q41 -21 88 -21q62 0 104.5 38t77.5 136l25 70l-127 1065h256l55 -795h4l361 795h252l-654 -1274q-122 -236 -342 -236q-89 0 -153 27zM496 1235h-197l47 225h197zM840 1235h-197l47 225h197z" />
    <glyph glyph-name="Amacron" unicode="&#x100;" horiz-adv-x="1251" 
d="M1090 0h-254l-27 344h-485l-172 -344h-289l776 1430h287zM795 545l-52 667h-4l-325 -667h381zM1081 1573h-569l31 151h569z" />
    <glyph glyph-name="amacron" unicode="&#x101;" 
d="M764 0h-229q0 26 4 66l10 79h-4q-78 -92 -140.5 -128.5t-144.5 -36.5q-133 0 -213 77t-80 205q0 389 551 389h135q15 77 15 109q0 131 -156 131q-153 0 -315 -90l12 200q158 70 346 70q162 0 257 -77t95 -203q0 -49 -20 -152l-101 -475q-8 -40 -22 -164zM600 410l25 106
q-221 0 -320.5 -48t-99.5 -175q0 -61 39 -99t102 -38q88 0 156.5 63t97.5 191zM885 1247h-570l33 152h570z" />
    <glyph glyph-name="Abreve" unicode="&#x102;" horiz-adv-x="1251" 
d="M1090 0h-254l-27 344h-485l-172 -344h-289l776 1430h287zM795 545l-52 667h-4l-325 -667h381zM997 1776h119q-29 -131 -110 -203t-201 -72q-110 0 -172 58t-62 151q0 40 9 66h118q-2 -4 -2 -25q0 -56 33 -85.5t90 -29.5q63 0 110.5 37t67.5 103z" />
    <glyph glyph-name="abreve" unicode="&#x103;" 
d="M764 0h-229q0 26 4 66l10 79h-4q-78 -92 -140.5 -128.5t-144.5 -36.5q-133 0 -213 77t-80 205q0 389 551 389h135q15 77 15 109q0 131 -156 131q-153 0 -315 -90l12 200q158 70 346 70q162 0 257 -77t95 -203q0 -49 -20 -152l-101 -475q-8 -40 -22 -164zM600 410l25 106
q-221 0 -320.5 -48t-99.5 -175q0 -61 39 -99t102 -38q88 0 156.5 63t97.5 191zM791 1450h118q-29 -131 -109.5 -202.5t-201.5 -71.5q-111 0 -172 58t-61 152q0 41 8 64h119q-3 -12 -3 -23q0 -61 33.5 -88.5t89.5 -27.5q62 0 110.5 37.5t68.5 101.5z" />
    <glyph glyph-name="Aogonek" unicode="&#x104;" horiz-adv-x="1251" 
d="M985 -346v-80q-79 -29 -141 -29q-86 0 -138.5 41.5t-52.5 112.5q0 167 254 301h-71l-27 344h-485l-172 -344h-289l776 1430h287l164 -1430h-97q-98 -86 -141 -150t-43 -126q0 -40 24 -62t62 -22q52 0 90 14zM795 545l-52 667h-4l-325 -667h381z" />
    <glyph glyph-name="aogonek" unicode="&#x105;" 
d="M709 -346l4 -80q-58 -19 -84.5 -24t-61.5 -5q-85 0 -136.5 42.5t-51.5 111.5q0 167 254 301h-98q0 26 4 66l10 79h-4q-78 -92 -140.5 -128.5t-144.5 -36.5q-133 0 -213 77t-80 205q0 389 551 389h135q15 77 15 109q0 131 -156 131q-153 0 -315 -90l12 200q158 70 346 70
q162 0 257 -77t95 -203q0 -49 -20 -152l-101 -475q-8 -40 -22 -164h-43q-101 -85 -143.5 -149t-42.5 -127q0 -40 24.5 -62t63.5 -22q48 0 86 14zM600 410l25 106q-221 0 -320.5 -48t-99.5 -175q0 -61 39 -99t102 -38q88 0 156.5 63t97.5 191z" />
    <glyph glyph-name="Cacute" unicode="&#x106;" horiz-adv-x="1138" 
d="M958 270l-38 -239q-138 -51 -289 -51q-258 0 -409.5 149t-151.5 410q0 141 36 275.5t106.5 249t167.5 201t227.5 136t277.5 49.5q180 0 301 -57l-62 -232q-104 74 -243 74q-161 0 -284.5 -94t-187 -245.5t-63.5 -332.5q0 -172 88.5 -269t243.5 -97q127 0 280 73z
M901 1497h-164l170 295h240z" />
    <glyph glyph-name="cacute" unicode="&#x107;" horiz-adv-x="872" 
d="M717 231l-29 -200q-103 -47 -231 -47q-189 0 -307.5 113t-118.5 302q0 134 43 256t118 214.5t186 147t240 54.5q167 0 252 -43l-53 -199q-86 50 -188 50q-78 0 -143.5 -38t-108.5 -101.5t-66.5 -144.5t-23.5 -169q0 -116 62.5 -183t162.5 -67q109 0 205 55zM666 1171
h-164l170 295h239z" />
    <glyph glyph-name="Ccircumflex" unicode="&#x108;" horiz-adv-x="1138" 
d="M958 270l-38 -239q-138 -51 -289 -51q-258 0 -409.5 149t-151.5 410q0 141 36 275.5t106.5 249t167.5 201t227.5 136t277.5 49.5q180 0 301 -57l-62 -232q-104 74 -243 74q-161 0 -284.5 -94t-187 -245.5t-63.5 -332.5q0 -172 88.5 -269t243.5 -97q127 0 280 73z
M1130 1497h-178l-73 178l-144 -178h-196l245 295h222z" />
    <glyph glyph-name="ccircumflex" unicode="&#x109;" horiz-adv-x="872" 
d="M717 231l-29 -200q-103 -47 -231 -47q-189 0 -307.5 113t-118.5 302q0 134 43 256t118 214.5t186 147t240 54.5q167 0 252 -43l-53 -199q-86 50 -188 50q-78 0 -143.5 -38t-108.5 -101.5t-66.5 -144.5t-23.5 -169q0 -116 62.5 -183t162.5 -67q109 0 205 55zM913 1171
h-178l-73 179l-144 -179h-196l245 295h221z" />
    <glyph glyph-name="Cdotaccent" unicode="&#x10a;" horiz-adv-x="1138" 
d="M958 270l-38 -239q-138 -51 -289 -51q-258 0 -409.5 149t-151.5 410q0 141 36 275.5t106.5 249t167.5 201t227.5 136t277.5 49.5q180 0 301 -57l-62 -232q-104 74 -243 74q-161 0 -284.5 -94t-187 -245.5t-63.5 -332.5q0 -172 88.5 -269t243.5 -97q127 0 280 73z
M938 1561h-197l50 225h196z" />
    <glyph glyph-name="cdotaccent" unicode="&#x10b;" horiz-adv-x="872" 
d="M717 231l-29 -200q-103 -47 -231 -47q-189 0 -307.5 113t-118.5 302q0 134 43 256t118 214.5t186 147t240 54.5q167 0 252 -43l-53 -199q-86 50 -188 50q-78 0 -143.5 -38t-108.5 -101.5t-66.5 -144.5t-23.5 -169q0 -116 62.5 -183t162.5 -67q109 0 205 55zM729 1235
h-197l48 225h196z" />
    <glyph glyph-name="Ccaron" unicode="&#x10c;" horiz-adv-x="1138" 
d="M958 270l-38 -239q-138 -51 -289 -51q-258 0 -409.5 149t-151.5 410q0 141 36 275.5t106.5 249t167.5 201t227.5 136t277.5 49.5q180 0 301 -57l-62 -232q-104 74 -243 74q-161 0 -284.5 -94t-187 -245.5t-63.5 -332.5q0 -172 88.5 -269t243.5 -97q127 0 280 73z
M971 1497h-221l-125 295h178l74 -176l143 176h197z" />
    <glyph glyph-name="ccaron" unicode="&#x10d;" horiz-adv-x="872" 
d="M717 231l-29 -200q-103 -47 -231 -47q-189 0 -307.5 113t-118.5 302q0 134 43 256t118 214.5t186 147t240 54.5q167 0 252 -43l-53 -199q-86 50 -188 50q-78 0 -143.5 -38t-108.5 -101.5t-66.5 -144.5t-23.5 -169q0 -116 62.5 -183t162.5 -67q109 0 205 55zM735 1171
h-221l-125 295h178l74 -178l143 178h197z" />
    <glyph glyph-name="Dcaron" unicode="&#x10e;" horiz-adv-x="1290" 
d="M424 0h-436l303 1430h344q277 0 431.5 -135.5t154.5 -399.5q0 -140 -30.5 -269.5t-95.5 -244t-157.5 -199t-224.5 -133.5t-289 -49zM291 201h147q226 0 368 192t142 494q0 164 -85.5 253t-241.5 89h-111zM836 1497h-222l-125 295h179l73 -176l144 176h196z" />
    <glyph glyph-name="dcaron" unicode="&#x10f;" horiz-adv-x="1099" 
d="M838 0h-240q0 37 27 164h-4q-88 -180 -297 -180q-139 0 -218 100t-79 272q0 185 64.5 349.5t178 265t246.5 100.5q201 0 246 -168h4l135 633h254l-287 -1348q-30 -143 -30 -188zM418 170q69 0 128 50t95.5 128.5t57 168.5t20.5 175q0 90 -41 141.5t-119 51.5
q-80 0 -145 -80t-99 -200t-34 -249q0 -88 35 -137t102 -49zM1323 1120h-147l100 346h211z" />
    <glyph glyph-name="Dcroat" unicode="&#x110;" horiz-adv-x="1290" 
d="M424 0h-436l137 651h-139l37 172h139l129 607h344q277 0 431.5 -135.5t154.5 -399.5q0 -140 -30.5 -269.5t-95.5 -244t-157.5 -199t-224.5 -133.5t-289 -49zM291 201h147q226 0 368 192t142 494q0 164 -85.5 253t-241.5 89h-111l-86 -406h266l-37 -172h-266z" />
    <glyph glyph-name="dcroat" unicode="&#x111;" horiz-adv-x="1099" 
d="M838 0h-240q0 37 27 164h-4q-88 -180 -297 -180q-139 0 -218 100t-79 272q0 185 64.5 349.5t178 265t246.5 100.5q201 0 246 -168h4l68 318h-291l32 149h289l37 166h254l-37 -166h142l-33 -149h-140l-221 -1043q-28 -133 -28 -178zM418 170q69 0 128 50t95.5 128.5
t57 168.5t20.5 175q0 90 -41 141.5t-119 51.5q-80 0 -145 -80t-99 -200t-34 -249q0 -88 35 -137t102 -49z" />
    <glyph glyph-name="Emacron" unicode="&#x112;" 
d="M772 0h-772l303 1430h752l-45 -209h-490l-80 -381h463l-45 -209h-463l-90 -422h510zM983 1573h-569l30 151h570z" />
    <glyph glyph-name="emacron" unicode="&#x113;" 
d="M784 246l-28 -199q-158 -63 -303 -63q-205 0 -314.5 105t-109.5 302q0 133 41.5 257t112 217.5t172 149.5t214.5 56q164 0 258.5 -93t94.5 -253q0 -91 -35 -266h-615q-6 -27 -6 -74q0 -108 58 -163.5t165 -55.5q69 0 149 21.5t146 58.5zM303 618h377q14 60 14 115
q0 76 -33.5 121t-97.5 45q-83 0 -158 -79t-102 -202zM891 1247h-569l32 152h570z" />
    <glyph glyph-name="Ebreve" unicode="&#x114;" 
d="M772 0h-772l303 1430h752l-45 -209h-490l-80 -381h463l-45 -209h-463l-90 -422h510zM883 1776h118q-29 -131 -110 -203t-201 -72q-110 0 -171.5 58t-61.5 151q0 43 8 66h119q-2 -4 -2 -25q0 -56 33 -85.5t90 -29.5q63 0 110.5 37t67.5 103z" />
    <glyph glyph-name="ebreve" unicode="&#x115;" 
d="M784 246l-28 -199q-158 -63 -303 -63q-205 0 -314.5 105t-109.5 302q0 133 41.5 257t112 217.5t172 149.5t214.5 56q164 0 258.5 -93t94.5 -253q0 -91 -35 -266h-615q-6 -27 -6 -74q0 -108 58 -163.5t165 -55.5q69 0 149 21.5t146 58.5zM303 618h377q14 60 14 115
q0 76 -33.5 121t-97.5 45q-83 0 -158 -79t-102 -202zM803 1450h119q-29 -131 -110 -202.5t-202 -71.5q-111 0 -172 58t-61 152q0 41 8 64h119q-2 -8 -2 -23q0 -61 33.5 -88.5t89.5 -27.5q62 0 110 37.5t68 101.5z" />
    <glyph glyph-name="Edotaccent" unicode="&#x116;" 
d="M772 0h-772l303 1430h752l-45 -209h-490l-80 -381h463l-45 -209h-463l-90 -422h510zM795 1561h-197l49 225h197z" />
    <glyph glyph-name="edotaccent" unicode="&#x117;" 
d="M784 246l-28 -199q-158 -63 -303 -63q-205 0 -314.5 105t-109.5 302q0 133 41.5 257t112 217.5t172 149.5t214.5 56q164 0 258.5 -93t94.5 -253q0 -91 -35 -266h-615q-6 -27 -6 -74q0 -108 58 -163.5t165 -55.5q69 0 149 21.5t146 58.5zM303 618h377q14 60 14 115
q0 76 -33.5 121t-97.5 45q-83 0 -158 -79t-102 -202zM705 1235h-197l47 225h197z" />
    <glyph glyph-name="Eogonek" unicode="&#x118;" 
d="M680 -346l4 -80q-36 -12 -50.5 -16.5t-40 -8.5t-52.5 -4q-86 0 -138.5 41.5t-52.5 112.5q0 167 254 301h-604l303 1430h752l-45 -209h-490l-80 -381h463l-45 -209h-463l-90 -422h510l-43 -209h-82q-98 -86 -141 -150t-43 -126q0 -40 24.5 -62t63.5 -22q48 0 86 14z" />
    <glyph glyph-name="eogonek" unicode="&#x119;" 
d="M483 -346l4 -80q-79 -29 -145 -29q-85 0 -136.5 42.5t-51.5 111.5q0 82 55.5 152t173.5 137q-173 17 -263.5 120t-90.5 283q0 133 41.5 257t112 217.5t172 149.5t214.5 56q164 0 258.5 -93t94.5 -253q0 -91 -35 -266h-615q-6 -27 -6 -74q0 -108 58 -163.5t165 -55.5
q69 0 149 21.5t146 58.5l-28 -201q-156 -53 -283 -61q-164 -142 -164 -260q0 -40 24 -62t62 -22q50 0 88 14zM303 618h377q14 60 14 115q0 76 -33.5 121t-97.5 45q-83 0 -158 -79t-102 -202z" />
    <glyph glyph-name="Ecaron" unicode="&#x11a;" 
d="M772 0h-772l303 1430h752l-45 -209h-490l-80 -381h463l-45 -209h-463l-90 -422h510zM807 1497h-221l-125 295h178l74 -176l143 176h197z" />
    <glyph glyph-name="ecaron" unicode="&#x11b;" 
d="M784 246l-28 -199q-158 -63 -303 -63q-205 0 -314.5 105t-109.5 302q0 133 41.5 257t112 217.5t172 149.5t214.5 56q164 0 258.5 -93t94.5 -253q0 -91 -35 -266h-615q-6 -27 -6 -74q0 -108 58 -163.5t165 -55.5q69 0 149 21.5t146 58.5zM303 618h377q14 60 14 115
q0 76 -33.5 121t-97.5 45q-83 0 -158 -79t-102 -202zM709 1171h-222l-125 295h179l73 -178l144 178h196z" />
    <glyph glyph-name="Gcircumflex" unicode="&#x11c;" horiz-adv-x="1327" 
d="M831 221l80 379h-217l41 201h465l-158 -742q-175 -79 -389 -79q-268 0 -424.5 156t-156.5 419q0 182 63 346t173 285t270 192.5t344 71.5q219 0 354 -64l-59 -225q-54 37 -135.5 58.5t-163.5 21.5q-170 0 -303 -94t-203 -248.5t-70 -339.5q0 -173 86.5 -271t243.5 -98
q98 0 159 31zM1204 1497h-178l-74 178l-143 -178h-197l246 295h221z" />
    <glyph glyph-name="gcircumflex" unicode="&#x11d;" horiz-adv-x="1099" 
d="M604 82l19 96h-5q-113 -174 -290 -174q-141 0 -219 93t-78 270q0 178 64 339.5t179.5 263t251.5 101.5q102 0 165.5 -42.5t88.5 -137.5h6q21 101 43 164h234q-28 -97 -35 -129l-178 -838q-33 -154 -84.5 -260t-124 -168t-158.5 -88.5t-198 -26.5q-222 0 -371 58l61 225
q65 -43 133 -62.5t162 -19.5q147 0 223.5 77.5t110.5 258.5zM426 186q66 0 124 49.5t95 126t58.5 165.5t21.5 171q0 85 -39.5 136t-116.5 51q-82 0 -148.5 -78t-101 -195t-34.5 -243q0 -85 35 -134t106 -49zM934 1171h-178l-74 179l-143 -179h-197l246 295h221z" />
    <glyph glyph-name="Gbreve" unicode="&#x11e;" horiz-adv-x="1327" 
d="M831 221l80 379h-217l41 201h465l-158 -742q-175 -79 -389 -79q-268 0 -424.5 156t-156.5 419q0 182 63 346t173 285t270 192.5t344 71.5q219 0 354 -64l-59 -225q-54 37 -135.5 58.5t-163.5 21.5q-170 0 -303 -94t-203 -248.5t-70 -339.5q0 -173 86.5 -271t243.5 -98
q98 0 159 31zM1112 1776h119q-29 -131 -110 -203t-201 -72q-110 0 -172 58t-62 151q0 43 8 66h119q-2 -4 -2 -25q0 -56 33 -85.5t90 -29.5q63 0 110.5 37t67.5 103z" />
    <glyph glyph-name="gbreve" unicode="&#x11f;" horiz-adv-x="1099" 
d="M604 82l19 96h-5q-113 -174 -290 -174q-141 0 -219 93t-78 270q0 178 64 339.5t179.5 263t251.5 101.5q102 0 165.5 -42.5t88.5 -137.5h6q21 101 43 164h234q-28 -97 -35 -129l-178 -838q-33 -154 -84.5 -260t-124 -168t-158.5 -88.5t-198 -26.5q-222 0 -371 58l61 225
q65 -43 133 -62.5t162 -19.5q147 0 223.5 77.5t110.5 258.5zM426 186q66 0 124 49.5t95 126t58.5 165.5t21.5 171q0 85 -39.5 136t-116.5 51q-82 0 -148.5 -78t-101 -195t-34.5 -243q0 -85 35 -134t106 -49zM858 1450h119q-29 -131 -109.5 -202.5t-201.5 -71.5
q-111 0 -172.5 58t-61.5 152q0 41 8 64h119q-2 -8 -2 -23q0 -61 33.5 -88.5t89.5 -27.5q62 0 110 37.5t68 101.5z" />
    <glyph glyph-name="Gdotaccent" unicode="&#x120;" horiz-adv-x="1327" 
d="M831 221l80 379h-217l41 201h465l-158 -742q-175 -79 -389 -79q-268 0 -424.5 156t-156.5 419q0 182 63 346t173 285t270 192.5t344 71.5q219 0 354 -64l-59 -225q-54 37 -135.5 58.5t-163.5 21.5q-170 0 -303 -94t-203 -248.5t-70 -339.5q0 -173 86.5 -271t243.5 -98
q98 0 159 31zM1016 1561h-197l49 225h197z" />
    <glyph glyph-name="gdotaccent" unicode="&#x121;" horiz-adv-x="1099" 
d="M604 82l19 96h-5q-113 -174 -290 -174q-141 0 -219 93t-78 270q0 178 64 339.5t179.5 263t251.5 101.5q102 0 165.5 -42.5t88.5 -137.5h6q21 101 43 164h234q-28 -97 -35 -129l-178 -838q-33 -154 -84.5 -260t-124 -168t-158.5 -88.5t-198 -26.5q-222 0 -371 58l61 225
q65 -43 133 -62.5t162 -19.5q147 0 223.5 77.5t110.5 258.5zM426 186q66 0 124 49.5t95 126t58.5 165.5t21.5 171q0 85 -39.5 136t-116.5 51q-82 0 -148.5 -78t-101 -195t-34.5 -243q0 -85 35 -134t106 -49zM750 1235h-197l47 225h197z" />
    <glyph glyph-name="Gcommaaccent" unicode="&#x122;" horiz-adv-x="1327" 
d="M831 219l80 379h-217l41 201h465l-158 -742q-177 -80 -389 -80q-268 0 -424.5 156.5t-156.5 419.5q0 182 63 346t173 285t270 192.5t344 71.5q219 0 354 -64l-59 -225q-54 37 -135.5 58.5t-163.5 21.5q-170 0 -303 -94t-203 -248.5t-70 -339.5q0 -173 86.5 -271
t243.5 -98q98 0 159 31zM543 -457h-168l123 316h219z" />
    <glyph glyph-name="gcommaaccent" unicode="&#x123;" horiz-adv-x="1099" 
d="M604 82l19 96h-5q-113 -174 -290 -174q-141 0 -219 93t-78 270q0 178 64 339.5t179.5 263t251.5 101.5q102 0 165.5 -42.5t88.5 -137.5h6q21 101 43 164h234q-28 -97 -35 -129l-178 -838q-33 -154 -84.5 -260t-124 -168t-158.5 -88.5t-198 -26.5q-222 0 -371 58l61 225
q65 -43 133 -62.5t162 -19.5q147 0 223.5 77.5t110.5 258.5zM426 186q66 0 124 49.5t95 126t58.5 165.5t21.5 171q0 85 -39.5 136t-116.5 51q-82 0 -148.5 -78t-101 -195t-34.5 -243q0 -85 35 -134t106 -49zM739 1171h-215l166 295h162z" />
    <glyph glyph-name="Hcircumflex" unicode="&#x124;" horiz-adv-x="1251" 
d="M948 0h-262l133 631h-424l-133 -631h-262l303 1430h262l-125 -582h424l125 582h262zM1083 1497h-178l-74 178l-143 -178h-196l245 295h221z" />
    <glyph glyph-name="hcircumflex" unicode="&#x125;" horiz-adv-x="1062" 
d="M795 0h-252l143 670q8 46 8 78q0 54 -30 84t-86 30q-82 0 -144 -60.5t-84 -164.5l-133 -637h-254l326 1536h254l-131 -614h6q110 149 280 149q117 0 186.5 -68.5t69.5 -181.5q0 -75 -20 -168zM1001 1599h-178l-73 179l-144 -179h-196l245 295h222z" />
    <glyph glyph-name="Hbar" unicode="&#x126;" horiz-adv-x="1251" 
d="M948 0h-262l119 563h-424l-119 -563h-262l213 1008h-141l34 159h142l55 263h262l-55 -263h424l55 263h262l-55 -263h133l-33 -159h-135zM848 768l51 240h-424l-51 -240h424z" />
    <glyph glyph-name="hbar" unicode="&#x127;" horiz-adv-x="1062" 
d="M795 0h-252l143 670q8 46 8 78q0 54 -30 84t-86 30q-82 0 -144 -60.5t-84 -164.5l-133 -637h-254l258 1221h-149l32 149h150l35 166h254l-35 -166h295l-33 -149h-295l-63 -299h6q110 149 280 149q117 0 186.5 -68.5t69.5 -181.5q0 -75 -20 -168z" />
    <glyph glyph-name="Itilde" unicode="&#x128;" horiz-adv-x="569" 
d="M264 0h-262l303 1430h262zM664 1769h133q-26 -108 -87 -173.5t-145 -65.5q-13 0 -25.5 2t-26 7t-21.5 8.5t-23.5 11t-22.5 10.5q-65 30 -98 30q-35 0 -60.5 -22.5t-33.5 -56.5h-125q24 112 85 175.5t151 63.5q48 0 124 -35q70 -34 99 -34q28 0 49 22.5t27 56.5z" />
    <glyph glyph-name="itilde" unicode="&#x129;" horiz-adv-x="532" 
d="M563 1444h133q-26 -108 -86.5 -174t-144.5 -66q-13 0 -25.5 2t-26 7t-21.5 8.5t-23.5 11t-22.5 10.5q-3 1 -13.5 6t-13.5 6.5t-11.5 5t-12 4.5t-11 3.5t-12.5 3.5t-11.5 1.5t-12.5 0.5q-35 0 -60.5 -23t-33.5 -57h-125q24 112 85 176t150 64q49 0 125 -35q72 -35 98 -35
q28 0 49 23t27 57zM242 0h-254l223 1055h254z" />
    <glyph glyph-name="Imacron" unicode="&#x12a;" horiz-adv-x="569" 
d="M264 0h-262l303 1430h262zM743 1573h-569l31 151h569z" />
    <glyph glyph-name="imacron" unicode="&#x12b;" horiz-adv-x="532" 
d="M242 0h-254l223 1055h254zM655 1247h-569l33 152h569z" />
    <glyph glyph-name="Iogonek" unicode="&#x12e;" horiz-adv-x="569" 
d="M233 -346l5 -80q-53 -18 -79.5 -23.5t-66.5 -5.5q-85 0 -136.5 42t-51.5 112q0 84 60.5 157t193.5 144h-156l303 1430h262l-303 -1430h-20q-99 -86 -142 -150t-43 -126q0 -40 24 -62t62 -22q50 0 88 14z" />
    <glyph glyph-name="iogonek" unicode="&#x12f;" horiz-adv-x="532" 
d="M506 1253h-262l53 250h262zM215 -346l4 -80q-36 -12 -50.5 -16.5t-40 -8.5t-52.5 -4q-86 0 -138.5 41.5t-52.5 112.5q0 167 254 301h-151l223 1055h254l-223 -1055h-17q-98 -84 -141 -149t-43 -127q0 -40 24 -62t62 -22q50 0 88 14z" />
    <glyph glyph-name="Idotaccent" unicode="&#x130;" horiz-adv-x="569" 
d="M264 0h-262l303 1430h262zM557 1561h-197l50 225h196z" />
    <glyph glyph-name="dotlessi" unicode="&#x131;" horiz-adv-x="532" 
d="M242 0h-254l223 1055h254z" />
    <glyph glyph-name="IJ" unicode="&#x132;" horiz-adv-x="1263" 
d="M264 0h-262l303 1430h262zM432 10l49 228q49 -27 113 -27q95 0 139.5 50.5t71.5 174.5l213 994h262l-217 -1031q-44 -213 -155 -316t-296 -103q-88 0 -180 30z" />
    <glyph glyph-name="ij" unicode="&#x133;" horiz-adv-x="1044" 
d="M506 1253h-262l53 250h262zM242 0h-254l223 1055h254zM1018 1253h-262l53 250h262zM231 -442l50 192q35 -12 69 -12q52 0 80 35.5t43 103.5l250 1178h254l-242 -1139q-43 -200 -123.5 -285.5t-230.5 -85.5q-80 0 -150 13z" />
    <glyph glyph-name="Jcircumflex" unicode="&#x134;" horiz-adv-x="720" 
d="M-111 10l50 228q49 -27 112 -27q95 0 139.5 50.5t71.5 174.5l213 994h262l-217 -1031q-44 -214 -154.5 -316.5t-295.5 -102.5q-89 0 -181 30zM903 1497h-178l-74 178l-143 -178h-197l246 295h221z" />
    <glyph glyph-name="jcircumflex" unicode="&#x135;" horiz-adv-x="532" 
d="M-281 -442l50 192q35 -12 69 -12q52 0 80 35.5t43 103.5l250 1178h254l-242 -1139q-43 -200 -123.5 -285.5t-230.5 -85.5q-80 0 -150 13zM649 1171h-178l-74 179l-143 -179h-197l246 295h221z" />
    <glyph glyph-name="Kcommaaccent" unicode="&#x136;" horiz-adv-x="1175" 
d="M1018 0h-295l-313 678h-7l-141 -678h-262l303 1430h262l-131 -599h6l525 599h307l-635 -691zM395 -457h-168l123 316h219z" />
    <glyph glyph-name="kcommaaccent" unicode="&#x137;" 
d="M842 0h-264l-246 528h-6l-109 -528h-254l326 1536h254l-193 -897h6l371 416h285l-459 -484zM299 -457h-168l123 316h219z" />
    <glyph glyph-name="Lacute" unicode="&#x139;" horiz-adv-x="909" 
d="M721 0h-733l303 1430h262l-260 -1221h471zM506 1497h-164l170 295h240z" />
    <glyph glyph-name="lacute" unicode="&#x13a;" horiz-adv-x="532" 
d="M242 0h-254l325 1536h254zM496 1599h-164l170 295h239z" />
    <glyph glyph-name="Lcommaaccent" unicode="&#x13b;" horiz-adv-x="909" 
d="M721 0h-733l303 1430h262l-260 -1221h471zM291 -457h-168l123 316h219z" />
    <glyph glyph-name="lcommaaccent" unicode="&#x13c;" horiz-adv-x="532" 
d="M242 0h-254l325 1536h254zM33 -457h-168l123 316h219z" />
    <glyph glyph-name="Lcaron" unicode="&#x13d;" horiz-adv-x="909" 
d="M721 0h-733l303 1430h262l-260 -1221h471zM764 1120h-148l101 346h211z" />
    <glyph glyph-name="lcaron" unicode="&#x13e;" horiz-adv-x="532" 
d="M242 0h-254l325 1536h254zM735 1120h-147l100 346h211z" />
    <glyph glyph-name="Ldot" unicode="&#x13f;" horiz-adv-x="909" 
d="M721 0h-733l303 1430h262l-260 -1221h471zM733 635h-196l49 225h196z" />
    <glyph glyph-name="ldot" unicode="&#x140;" horiz-adv-x="774" 
d="M242 0h-254l325 1536h254zM705 635h-197l47 225h197z" />
    <glyph glyph-name="Lslash" unicode="&#x141;" horiz-adv-x="909" 
d="M721 0h-733l102 481l-156 -110v159l195 140l162 760h262l-123 -580l330 242v-160l-371 -270l-96 -453h471z" />
    <glyph glyph-name="lslash" unicode="&#x142;" horiz-adv-x="569" 
d="M260 0h-254l123 578l-147 -123v159l186 154l164 768h254l-121 -571l168 133v-160l-209 -164z" />
    <glyph glyph-name="Nacute" unicode="&#x143;" horiz-adv-x="1327" 
d="M1026 0h-321l-230 1114h-4l-235 -1114h-238l303 1430h320l227 -1123h4l240 1123h237zM893 1497h-164l170 295h240z" />
    <glyph glyph-name="nacute" unicode="&#x144;" horiz-adv-x="1062" 
d="M795 0h-252l137 643q14 65 14 105q0 54 -30 84t-86 30q-82 0 -143.5 -60.5t-82.5 -154.5l-135 -647h-254l199 940q12 64 16 115h238l-27 -162h4q61 94 134 136t171 42q117 0 186.5 -68.5t69.5 -181.5q0 -74 -16 -147zM676 1171h-164l170 295h240z" />
    <glyph glyph-name="Ncommaaccent" unicode="&#x145;" horiz-adv-x="1327" 
d="M1026 0h-321l-230 1114h-4l-235 -1114h-238l303 1430h320l227 -1123h4l240 1123h237zM457 -457h-168l123 316h219z" />
    <glyph glyph-name="ncommaaccent" unicode="&#x146;" horiz-adv-x="1062" 
d="M795 0h-252l137 643q14 65 14 105q0 54 -30 84t-86 30q-82 0 -143.5 -60.5t-82.5 -154.5l-135 -647h-254l199 940q12 64 16 115h238l-27 -162h4q61 94 134 136t171 42q117 0 186.5 -68.5t69.5 -181.5q0 -74 -16 -147zM293 -457h-168l123 316h219z" />
    <glyph glyph-name="Ncaron" unicode="&#x147;" horiz-adv-x="1327" 
d="M1026 0h-321l-230 1114h-4l-235 -1114h-238l303 1430h320l227 -1123h4l240 1123h237zM948 1497h-221l-125 295h178l74 -176l143 176h197z" />
    <glyph glyph-name="ncaron" unicode="&#x148;" horiz-adv-x="1062" 
d="M795 0h-252l137 643q14 65 14 105q0 54 -30 84t-86 30q-82 0 -143.5 -60.5t-82.5 -154.5l-135 -647h-254l199 940q12 64 16 115h238l-27 -162h4q61 94 134 136t171 42q117 0 186.5 -68.5t69.5 -181.5q0 -74 -16 -147zM729 1171h-221l-125 295h178l74 -178l143 178h197z
" />
    <glyph glyph-name="napostrophe" unicode="&#x149;" horiz-adv-x="1226" 
d="M958 0h-251l137 643q14 65 14 105q0 54 -30 84t-87 30q-82 0 -143 -60.5t-82 -154.5l-135 -647h-254l199 940q12 64 16 115h238l-27 -162h4q61 94 134 136t171 42q117 0 186.5 -68.5t69.5 -181.5q0 -74 -16 -147zM217 1028h-190l161 508h244z" />
    <glyph glyph-name="Omacron" unicode="&#x14c;" horiz-adv-x="1327" 
d="M545 -20q-223 0 -352.5 132.5t-129.5 368.5q0 129 26.5 261.5t84.5 260t140 226.5t203.5 160t264.5 61q224 0 353 -133t129 -371q0 -105 -19 -214.5t-56 -218.5t-98 -204.5t-138 -169.5t-182.5 -116.5t-225.5 -42.5zM551 180q91 0 167.5 55.5t125.5 141t83.5 192
t49 204.5t14.5 183q0 136 -58.5 214.5t-158.5 78.5q-122 0 -224 -111.5t-158 -289.5t-56 -375q0 -134 59 -213.5t156 -79.5zM1114 1573h-569l30 151h570z" />
    <glyph glyph-name="omacron" unicode="&#x14d;" horiz-adv-x="1099" 
d="M430 -16q-186 0 -293.5 106.5t-107.5 292.5q0 131 39.5 254.5t109.5 220t176.5 155t231.5 58.5q185 0 293 -106t108 -289q0 -181 -67.5 -338t-197 -255.5t-292.5 -98.5zM436 164q89 0 159 76.5t105 194t35 249.5q0 98 -41 152.5t-116 54.5q-86 0 -155 -74t-105.5 -191.5
t-36.5 -252.5q0 -100 40.5 -154.5t114.5 -54.5zM922 1247h-570l33 152h569z" />
    <glyph glyph-name="Obreve" unicode="&#x14e;" horiz-adv-x="1327" 
d="M545 -20q-223 0 -352.5 132.5t-129.5 368.5q0 129 26.5 261.5t84.5 260t140 226.5t203.5 160t264.5 61q224 0 353 -133t129 -371q0 -105 -19 -214.5t-56 -218.5t-98 -204.5t-138 -169.5t-182.5 -116.5t-225.5 -42.5zM551 180q91 0 167.5 55.5t125.5 141t83.5 192
t49 204.5t14.5 183q0 136 -58.5 214.5t-158.5 78.5q-122 0 -224 -111.5t-158 -289.5t-56 -375q0 -134 59 -213.5t156 -79.5zM1042 1776h119q-29 -131 -110 -203t-201 -72q-110 0 -172 58t-62 151q0 40 9 66h118q-2 -4 -2 -25q0 -56 33 -85.5t90 -29.5q63 0 110.5 37
t67.5 103z" />
    <glyph glyph-name="obreve" unicode="&#x14f;" horiz-adv-x="1099" 
d="M430 -16q-186 0 -293.5 106.5t-107.5 292.5q0 131 39.5 254.5t109.5 220t176.5 155t231.5 58.5q185 0 293 -106t108 -289q0 -181 -67.5 -338t-197 -255.5t-292.5 -98.5zM436 164q89 0 159 76.5t105 194t35 249.5q0 98 -41 152.5t-116 54.5q-86 0 -155 -74t-105.5 -191.5
t-36.5 -252.5q0 -100 40.5 -154.5t114.5 -54.5zM840 1450h118q-29 -131 -109.5 -202.5t-201.5 -71.5q-111 0 -172 58t-61 152q0 41 8 64h119q-2 -8 -2 -23q0 -61 33.5 -88.5t89.5 -27.5q62 0 110 37.5t68 101.5z" />
    <glyph glyph-name="Ohungarumlaut" unicode="&#x150;" horiz-adv-x="1327" 
d="M545 -20q-223 0 -352.5 132.5t-129.5 368.5q0 129 26.5 261.5t84.5 260t140 226.5t203.5 160t264.5 61q224 0 353 -133t129 -371q0 -105 -19 -214.5t-56 -218.5t-98 -204.5t-138 -169.5t-182.5 -116.5t-225.5 -42.5zM551 180q91 0 167.5 55.5t125.5 141t83.5 192
t49 204.5t14.5 183q0 136 -58.5 214.5t-158.5 78.5q-122 0 -224 -111.5t-158 -289.5t-56 -375q0 -134 59 -213.5t156 -79.5zM686 1497h-162l181 295h235zM1030 1497h-162l181 295h235z" />
    <glyph glyph-name="ohungarumlaut" unicode="&#x151;" horiz-adv-x="1099" 
d="M430 -16q-186 0 -293.5 106.5t-107.5 292.5q0 131 39.5 254.5t109.5 220t176.5 155t231.5 58.5q185 0 293 -106t108 -289q0 -181 -67.5 -338t-197 -255.5t-292.5 -98.5zM436 164q89 0 159 76.5t105 194t35 249.5q0 98 -41 152.5t-116 54.5q-86 0 -155 -74t-105.5 -191.5
t-36.5 -252.5q0 -100 40.5 -154.5t114.5 -54.5zM508 1171h-162l180 295h236zM852 1171h-162l180 295h236z" />
    <glyph glyph-name="OE" unicode="&#x152;" horiz-adv-x="1705" 
d="M1464 0h-630q-37 0 -131.5 -10t-131.5 -10q-230 0 -363.5 139.5t-133.5 382.5q0 142 29.5 277.5t92.5 257.5t152 213.5t217 145.5t279 54q50 0 159 -10t152 -10h592l-45 -209h-465l-80 -381h438l-45 -209h-438l-90 -422h485zM754 199l219 1032q-45 16 -152 16
q-90 0 -168 -42t-134 -114t-96 -166t-59.5 -200t-19.5 -215q0 -161 65 -244.5t193 -83.5q47 0 93.5 6t58.5 11z" />
    <glyph glyph-name="oe" unicode="&#x153;" horiz-adv-x="1669" 
d="M1434 246l-29 -199q-162 -63 -303 -63q-233 0 -334 170q-139 -170 -338 -170q-187 0 -294 106.5t-107 292.5q0 104 24.5 204.5t73 187.5t114.5 153.5t155.5 104.5t189.5 38q105 0 175.5 -41t119.5 -131q144 172 338 172q164 0 258 -93t94 -253q0 -91 -35 -266h-610
q-8 -33 -8 -74q0 -108 57 -163.5t164 -55.5q69 0 149 21.5t146 58.5zM954 618h375q14 60 14 115q0 78 -34 122t-97 44q-84 0 -159.5 -83t-98.5 -198zM436 164q90 0 158.5 77.5t101.5 194t33 248.5q0 103 -40 155t-111 52q-88 0 -157.5 -77t-104.5 -194t-35 -247
q0 -100 40.5 -154.5t114.5 -54.5z" />
    <glyph glyph-name="Racute" unicode="&#x154;" horiz-adv-x="1138" 
d="M934 0h-275l-55 449q-11 89 -39.5 127t-89.5 38h-98l-127 -614h-262l303 1430h403q177 0 281 -85.5t104 -236.5q0 -161 -87.5 -268t-252.5 -144v-4q26 -11 40 -20.5t32 -33t30 -67.5t21 -112zM420 807h133q111 0 184.5 74.5t73.5 195.5q0 72 -51 112t-142 40h-108z
M733 1497h-164l170 295h240z" />
    <glyph glyph-name="racute" unicode="&#x155;" horiz-adv-x="720" 
d="M225 0h-254l199 942q3 13 16 113h230l-15 -97l-18 -96h4q54 113 119.5 161t169.5 48q7 0 17.5 -1t25 -2.5t22.5 -2.5l-51 -238q-46 11 -69 11q-101 0 -174.5 -68t-98.5 -184zM541 1171h-164l170 295h239z" />
    <glyph glyph-name="Rcommaaccent" unicode="&#x156;" horiz-adv-x="1138" 
d="M934 0h-275l-55 449q-11 89 -39.5 127t-89.5 38h-98l-127 -614h-262l303 1430h403q177 0 281 -85.5t104 -236.5q0 -161 -87.5 -268t-252.5 -144v-4q26 -11 40 -20.5t32 -33t30 -67.5t21 -112zM420 807h133q111 0 184.5 74.5t73.5 195.5q0 72 -51 112t-142 40h-108z
M371 -457h-168l123 316h219z" />
    <glyph glyph-name="rcommaaccent" unicode="&#x157;" horiz-adv-x="720" 
d="M225 0h-254l199 942q3 13 16 113h230l-15 -97l-18 -96h4q54 113 119.5 161t169.5 48q7 0 17.5 -1t25 -2.5t22.5 -2.5l-51 -238q-46 11 -69 11q-101 0 -174.5 -68t-98.5 -184zM16 -457h-168l123 316h219z" />
    <glyph glyph-name="Rcaron" unicode="&#x158;" horiz-adv-x="1138" 
d="M934 0h-275l-55 449q-11 89 -39.5 127t-89.5 38h-98l-127 -614h-262l303 1430h403q177 0 281 -85.5t104 -236.5q0 -161 -87.5 -268t-252.5 -144v-4q26 -11 40 -20.5t32 -33t30 -67.5t21 -112zM420 807h133q111 0 184.5 74.5t73.5 195.5q0 72 -51 112t-142 40h-108z
M786 1497h-221l-125 295h178l74 -176l144 176h196z" />
    <glyph glyph-name="rcaron" unicode="&#x159;" horiz-adv-x="720" 
d="M225 0h-254l199 942q3 13 16 113h230l-15 -97l-18 -96h4q54 113 119.5 161t169.5 48q7 0 17.5 -1t25 -2.5t22.5 -2.5l-51 -238q-46 11 -69 11q-101 0 -174.5 -68t-98.5 -184zM602 1171h-221l-125 295h178l74 -178l143 178h197z" />
    <glyph glyph-name="Sacute" unicode="&#x15a;" horiz-adv-x="1021" 
d="M-8 41l65 235q116 -90 275 -90q124 0 195 60.5t71 163.5q0 62 -41.5 115.5t-136.5 117.5q-77 52 -128.5 101.5t-77 96t-35 85.5t-9.5 84q0 203 136 321t372 119q146 0 303 -53l-55 -217q-119 61 -250 61q-106 0 -172 -50.5t-66 -133.5q0 -35 10 -64t33.5 -56t41 -42.5
t55.5 -44.5t53 -41q10 -8 41 -30.5t52.5 -39t50.5 -47.5t47.5 -62.5t32 -78.5t13.5 -100q0 -212 -146.5 -341.5t-395.5 -129.5q-208 0 -334 61zM719 1497h-164l170 295h240z" />
    <glyph glyph-name="sacute" unicode="&#x15b;" horiz-adv-x="833" 
d="M-55 29l57 213q39 -28 110.5 -48t143.5 -20q88 0 131 32.5t43 86.5q0 49 -34 83t-126 97q-16 10 -24 16q-89 60 -127.5 120t-38.5 132q0 155 110.5 244.5t301.5 89.5q67 0 142 -11t120 -28l-54 -209q-115 54 -219 54q-73 0 -115 -29.5t-42 -85.5q0 -46 35 -83.5
t120 -90.5q110 -70 153.5 -127.5t43.5 -138.5q0 -159 -115.5 -252.5t-310.5 -93.5q-79 0 -167 14.5t-138 34.5zM541 1171h-164l170 295h239z" />
    <glyph glyph-name="Scircumflex" unicode="&#x15c;" horiz-adv-x="1021" 
d="M-8 41l65 235q116 -90 275 -90q124 0 195 60.5t71 163.5q0 62 -41.5 115.5t-136.5 117.5q-77 52 -128.5 101.5t-77 96t-35 85.5t-9.5 84q0 203 136 321t372 119q146 0 303 -53l-55 -217q-119 61 -250 61q-106 0 -172 -50.5t-66 -133.5q0 -35 10 -64t33.5 -56t41 -42.5
t55.5 -44.5t53 -41q10 -8 41 -30.5t52.5 -39t50.5 -47.5t47.5 -62.5t32 -78.5t13.5 -100q0 -212 -146.5 -341.5t-395.5 -129.5q-208 0 -334 61zM950 1497h-178l-74 178l-143 -178h-197l246 295h221z" />
    <glyph glyph-name="scircumflex" unicode="&#x15d;" horiz-adv-x="833" 
d="M-55 29l57 213q39 -28 110.5 -48t143.5 -20q88 0 131 32.5t43 86.5q0 49 -34 83t-126 97q-16 10 -24 16q-89 60 -127.5 120t-38.5 132q0 155 110.5 244.5t301.5 89.5q67 0 142 -11t120 -28l-54 -209q-115 54 -219 54q-73 0 -115 -29.5t-42 -85.5q0 -46 35 -83.5
t120 -90.5q110 -70 153.5 -127.5t43.5 -138.5q0 -159 -115.5 -252.5t-310.5 -93.5q-79 0 -167 14.5t-138 34.5zM797 1171h-179l-73 179l-144 -179h-196l246 295h221z" />
    <glyph glyph-name="Scedilla" unicode="&#x15e;" 
d="M66 -414l49 82q75 -28 141 -28q54 0 86.5 24.5t32.5 67.5q0 30 -21 48.5t-57 18.5q-38 0 -84 -14l-29 35l101 160q-180 8 -293 61l65 235q116 -90 275 -90q124 0 195 60.5t71 163.5q0 62 -41.5 115.5t-136.5 117.5q-77 52 -128.5 101.5t-77 96t-35 85.5t-9.5 84
q0 203 136 321t372 119q146 0 303 -53l-55 -217q-119 61 -250 61q-106 0 -172 -50.5t-66 -133.5q0 -35 10 -64t33.5 -56t41 -42.5t55.5 -44.5t53 -41q10 -8 41 -30.5t52.5 -39t50.5 -47.5t47.5 -62.5t32 -78.5t13.5 -100q0 -200 -132 -328t-359 -141l-70 -109q33 8 82 8
q69 0 109.5 -36.5t40.5 -94.5q0 -86 -78 -145.5t-191 -59.5q-138 0 -204 41z" />
    <glyph glyph-name="scedilla" unicode="&#x15f;" horiz-adv-x="833" 
d="M-45 -414l49 82q75 -28 139 -28q55 0 88 24.5t33 67.5q0 30 -21.5 48.5t-58.5 18.5q-36 0 -82 -14l-28 35l102 164q-143 11 -231 45l57 213q39 -28 110.5 -48t143.5 -20q88 0 131 32.5t43 86.5q0 49 -34 83t-126 97q-16 10 -24 16q-89 60 -127.5 120t-38.5 132
q0 155 110.5 244.5t301.5 89.5q67 0 142 -11t120 -28l-54 -209q-115 54 -219 54q-73 0 -115 -29.5t-42 -85.5q0 -46 35 -83.5t120 -90.5q110 -70 153.5 -127.5t43.5 -138.5q0 -155 -110 -247.5t-302 -98.5l-67 -107q33 8 82 8q69 0 109 -35.5t40 -95.5q0 -86 -77.5 -145.5
t-190.5 -59.5q-143 0 -205 41z" />
    <glyph glyph-name="Scaron" unicode="&#x160;" horiz-adv-x="1021" 
d="M-8 41l65 235q116 -90 275 -90q124 0 195 60.5t71 163.5q0 62 -41.5 115.5t-136.5 117.5q-77 52 -128.5 101.5t-77 96t-35 85.5t-9.5 84q0 203 136 321t372 119q146 0 303 -53l-55 -217q-119 61 -250 61q-106 0 -172 -50.5t-66 -133.5q0 -35 10 -64t33.5 -56t41 -42.5
t55.5 -44.5t53 -41q10 -8 41 -30.5t52.5 -39t50.5 -47.5t47.5 -62.5t32 -78.5t13.5 -100q0 -212 -146.5 -341.5t-395.5 -129.5q-208 0 -334 61zM774 1497h-221l-125 295h178l74 -176l143 176h197z" />
    <glyph glyph-name="scaron" unicode="&#x161;" horiz-adv-x="833" 
d="M-55 29l57 213q39 -28 110.5 -48t143.5 -20q88 0 131 32.5t43 86.5q0 49 -34 83t-126 97q-16 10 -24 16q-89 60 -127.5 120t-38.5 132q0 155 110.5 244.5t301.5 89.5q67 0 142 -11t120 -28l-54 -209q-115 54 -219 54q-73 0 -115 -29.5t-42 -85.5q0 -46 35 -83.5
t120 -90.5q110 -70 153.5 -127.5t43.5 -138.5q0 -159 -115.5 -252.5t-310.5 -93.5q-79 0 -167 14.5t-138 34.5zM612 1171h-221l-125 295h178l74 -178l144 178h196z" />
    <glyph glyph-name="Tcommaaccent" unicode="&#x162;" horiz-adv-x="985" 
d="M473 0h-262l258 1221h-319l45 209h899l-45 -209h-318zM252 -457h-168l123 316h219z" />
    <glyph glyph-name="tcommaaccent" unicode="&#x163;" horiz-adv-x="720" 
d="M563 197l-39 -183q-68 -30 -162 -30q-119 0 -185 54.5t-66 156.5q0 64 16 135l115 538h-168l41 187h166l45 217l272 78l-63 -295h210l-38 -187h-211l-113 -528q-12 -50 -12 -86q0 -43 22.5 -60.5t71.5 -17.5q51 0 98 21zM172 -457h-168l123 316h219z" />
    <glyph glyph-name="Tcaron" unicode="&#x164;" horiz-adv-x="985" 
d="M473 0h-262l258 1221h-319l45 209h899l-45 -209h-318zM762 1497h-221l-125 295h178l74 -176l143 176h197z" />
    <glyph glyph-name="tcaron" unicode="&#x165;" horiz-adv-x="720" 
d="M563 197l-39 -183q-68 -30 -162 -30q-119 0 -185 54.5t-66 156.5q0 64 16 135l115 538h-168l41 187h166l45 217l272 78l-63 -295h210l-38 -187h-211l-113 -528q-12 -50 -12 -86q0 -43 22.5 -60.5t71.5 -17.5q51 0 98 21zM778 1120h-147l100 346h211z" />
    <glyph glyph-name="Tbar" unicode="&#x166;" horiz-adv-x="985" 
d="M473 0h-262l164 772h-246l37 174h246l57 275h-319l45 209h899l-45 -209h-318l-57 -275h244l-37 -174h-244z" />
    <glyph glyph-name="tbar" unicode="&#x167;" horiz-adv-x="720" 
d="M563 197l-39 -183q-68 -30 -162 -30q-119 0 -185 54.5t-66 156.5q0 64 16 135l41 196h-152l33 152h152l41 190h-168l41 187h166l45 217l272 78l-63 -295h210l-38 -187h-211l-41 -190h176l-33 -152h-176l-39 -186q-12 -50 -12 -86q0 -43 22.5 -60.5t71.5 -17.5q51 0 98 21
z" />
    <glyph glyph-name="Utilde" unicode="&#x168;" horiz-adv-x="1251" 
d="M799 467l202 963h263l-205 -967q-50 -231 -193 -357t-356 -126q-200 0 -315 101t-115 281q0 77 20 175l191 893h262l-205 -977q-8 -44 -8 -93q0 -75 51 -123.5t129 -48.5q122 0 184 60.5t95 218.5zM1024 1769h133q-26 -108 -86.5 -173.5t-144.5 -65.5q-13 0 -25.5 2
t-26 7t-21.5 8.5t-23.5 11t-22.5 10.5q-65 30 -98 30q-35 0 -61 -22.5t-34 -56.5h-125q24 112 85 175.5t151 63.5q49 0 125 -35q70 -34 98 -34t49 22.5t27 56.5z" />
    <glyph glyph-name="utilde" unicode="&#x169;" horiz-adv-x="1062" 
d="M803 0h-238l27 162h-4q-61 -95 -130 -136.5t-171 -41.5q-117 0 -187.5 68t-70.5 179q0 71 12 127l149 697h252l-141 -660q-10 -57 -10 -88q0 -54 30 -84t87 -30q85 0 142 57.5t79 161.5l135 643h254l-195 -922q-5 -23 -12 -76.5t-8 -56.5zM852 1444h133
q-26 -108 -86.5 -174t-144.5 -66q-13 0 -25.5 2t-26 7t-21.5 8.5t-23.5 11t-22.5 10.5q-3 1 -13.5 6t-13.5 6.5t-11.5 5t-12 4.5t-11 3.5t-12.5 3.5t-11.5 1.5t-12.5 0.5q-35 0 -61 -23t-34 -57h-125q24 112 85.5 176t150.5 64q49 0 125 -35q72 -35 98 -35q28 0 49 23t27 57
z" />
    <glyph glyph-name="Umacron" unicode="&#x16a;" horiz-adv-x="1251" 
d="M799 467l202 963h263l-205 -967q-50 -231 -193 -357t-356 -126q-200 0 -315 101t-115 281q0 77 20 175l191 893h262l-205 -977q-8 -44 -8 -93q0 -75 51 -123.5t129 -48.5q122 0 184 60.5t95 218.5zM1079 1573h-569l31 151h569z" />
    <glyph glyph-name="umacron" unicode="&#x16b;" horiz-adv-x="1062" 
d="M803 0h-238l27 162h-4q-61 -95 -130 -136.5t-171 -41.5q-117 0 -187.5 68t-70.5 179q0 71 12 127l149 697h252l-141 -660q-10 -57 -10 -88q0 -54 30 -84t87 -30q85 0 142 57.5t79 161.5l135 643h254l-195 -922q-5 -23 -12 -76.5t-8 -56.5zM920 1247h-570l33 152h569z" />
    <glyph glyph-name="Ubreve" unicode="&#x16c;" horiz-adv-x="1251" 
d="M799 467l202 963h263l-205 -967q-50 -231 -193 -357t-356 -126q-200 0 -315 101t-115 281q0 77 20 175l191 893h262l-205 -977q-8 -44 -8 -93q0 -75 51 -123.5t129 -48.5q122 0 184 60.5t95 218.5zM989 1776h119q-29 -131 -110 -203t-201 -72q-110 0 -172 58t-62 151
q0 43 8 66h119q-2 -4 -2 -25q0 -56 33 -85.5t90 -29.5q63 0 110.5 37t67.5 103z" />
    <glyph glyph-name="ubreve" unicode="&#x16d;" horiz-adv-x="1062" 
d="M803 0h-238l27 162h-4q-61 -95 -130 -136.5t-171 -41.5q-117 0 -187.5 68t-70.5 179q0 71 12 127l149 697h252l-141 -660q-10 -57 -10 -88q0 -54 30 -84t87 -30q85 0 142 57.5t79 161.5l135 643h254l-195 -922q-5 -23 -12 -76.5t-8 -56.5zM809 1450h119
q-29 -131 -110 -202.5t-202 -71.5q-111 0 -172 58t-61 152q0 41 8 64h119q-2 -8 -2 -23q0 -61 33.5 -88.5t89.5 -27.5q62 0 110 37.5t68 101.5z" />
    <glyph glyph-name="Uring" unicode="&#x16e;" horiz-adv-x="1251" 
d="M799 467l202 963h263l-205 -967q-50 -231 -193 -357t-356 -126q-200 0 -315 101t-115 281q0 77 20 175l191 893h262l-205 -977q-8 -44 -8 -93q0 -75 51 -123.5t129 -48.5q122 0 184 60.5t95 218.5zM1055 1737q0 -106 -75 -178t-181 -72q-88 0 -142.5 51t-54.5 137
q0 103 76 176.5t180 73.5q88 0 142.5 -51t54.5 -137zM807 1583q60 0 99.5 43.5t39.5 102.5q0 43 -26.5 70.5t-69.5 27.5q-57 0 -98 -43.5t-41 -102.5q0 -43 26.5 -70.5t69.5 -27.5z" />
    <glyph glyph-name="uring" unicode="&#x16f;" horiz-adv-x="1062" 
d="M803 0h-238l27 162h-4q-61 -95 -130 -136.5t-171 -41.5q-117 0 -187.5 68t-70.5 179q0 71 12 127l149 697h252l-141 -660q-10 -57 -10 -88q0 -54 30 -84t87 -30q85 0 142 57.5t79 161.5l135 643h254l-195 -922q-5 -23 -12 -76.5t-8 -56.5zM881 1391q0 -104 -75.5 -177
t-180.5 -73q-88 0 -142.5 51t-54.5 137q0 103 76 176.5t180 73.5q88 0 142.5 -51t54.5 -137zM633 1237q59 0 99 43.5t40 101.5q0 42 -27 70.5t-69 28.5q-58 0 -98.5 -43.5t-40.5 -102.5q0 -43 26.5 -70.5t69.5 -27.5z" />
    <glyph glyph-name="Uhungarumlaut" unicode="&#x170;" horiz-adv-x="1251" 
d="M799 467l202 963h263l-205 -967q-50 -231 -193 -357t-356 -126q-200 0 -315 101t-115 281q0 77 20 175l191 893h262l-205 -977q-8 -44 -8 -93q0 -75 51 -123.5t129 -48.5q122 0 184 60.5t95 218.5zM682 1497h-162l180 295h236zM1026 1497h-162l180 295h236z" />
    <glyph glyph-name="uhungarumlaut" unicode="&#x171;" horiz-adv-x="1062" 
d="M803 0h-238l27 162h-4q-61 -95 -130 -136.5t-171 -41.5q-117 0 -187.5 68t-70.5 179q0 71 12 127l149 697h252l-141 -660q-10 -57 -10 -88q0 -54 30 -84t87 -30q85 0 142 57.5t79 161.5l135 643h254l-195 -922q-5 -23 -12 -76.5t-8 -56.5zM502 1171h-162l180 295h236z
M846 1171h-162l180 295h236z" />
    <glyph glyph-name="Uogonek" unicode="&#x172;" horiz-adv-x="1251" 
d="M563 -346l4 -80q-36 -12 -50.5 -16.5t-40 -8.5t-52.5 -4q-86 0 -138.5 41.5t-52.5 112.5q0 80 53.5 148.5t168.5 134.5q-182 17 -278.5 116t-96.5 264q0 77 20 175l191 893h262l-203 -971q-10 -45 -10 -101q0 -75 51 -122.5t129 -47.5q120 0 182 60.5t93 204.5l206 977
h263l-205 -967q-45 -214 -176.5 -341.5t-331.5 -139.5q-85 -74 -123.5 -135.5t-38.5 -122.5q0 -40 24 -62t62 -22q50 0 88 14z" />
    <glyph glyph-name="uogonek" unicode="&#x173;" horiz-adv-x="1062" 
d="M745 -346l5 -80q-53 -18 -79.5 -23.5t-66.5 -5.5q-85 0 -136.5 42.5t-51.5 111.5q0 87 60 158t194 143h-105l27 162h-4q-61 -95 -130 -136.5t-171 -41.5q-117 0 -187.5 68t-70.5 179q0 71 12 127l149 697h252l-141 -660q-10 -57 -10 -88q0 -54 30 -84t87 -30
q85 0 142 57.5t79 161.5l135 643h254l-195 -922q-5 -23 -12 -76.5t-8 -56.5h-45q-101 -85 -144 -149t-43 -127q0 -40 24 -62t62 -22q50 0 88 14z" />
    <glyph glyph-name="Wcircumflex" unicode="&#x174;" horiz-adv-x="1705" 
d="M1227 0h-314l25 1171h-4l-463 -1171h-309l4 1430h240l-21 -1102h4l434 1102h326l-16 -1102h4l434 1102h244zM1290 1497h-178l-74 178l-143 -178h-197l246 295h221z" />
    <glyph glyph-name="wcircumflex" unicode="&#x175;" horiz-adv-x="1517" 
d="M1079 0h-276l-25 821h-4l-346 -821h-281l-73 1055h254l10 -822h4l336 822h285l20 -822h4l334 822h250zM1130 1171h-178l-73 179l-144 -179h-196l245 295h222z" />
    <glyph glyph-name="Ycircumflex" unicode="&#x176;" horiz-adv-x="1138" 
d="M551 0h-262l123 578l-248 852h274l164 -572l377 572h291l-600 -865zM1018 1497h-178l-74 178l-143 -178h-197l246 295h221z" />
    <glyph glyph-name="ycircumflex" unicode="&#x177;" horiz-adv-x="948" 
d="M-145 -428l53 195q41 -21 88 -21q62 0 104.5 38t77.5 136l25 70l-127 1065h256l55 -795h4l361 795h252l-654 -1274q-122 -236 -342 -236q-89 0 -153 27zM860 1171h-178l-74 179l-143 -179h-197l246 295h221z" />
    <glyph glyph-name="Ydieresis" unicode="&#x178;" horiz-adv-x="1138" 
d="M551 0h-262l123 578l-248 852h274l164 -572l377 572h291l-600 -865zM666 1561h-197l49 225h197zM1010 1561h-197l49 225h197z" />
    <glyph glyph-name="Zacute" unicode="&#x179;" 
d="M799 0h-875l45 229l760 992h-532l45 209h850l-45 -218l-773 -1003h568zM723 1497h-164l170 295h240z" />
    <glyph glyph-name="zacute" unicode="&#x17a;" horiz-adv-x="833" 
d="M625 0h-717l43 219l579 643h-428l41 193h688l-45 -217l-571 -645h449zM575 1171h-163l170 295h239z" />
    <glyph glyph-name="Zdotaccent" unicode="&#x17b;" 
d="M799 0h-875l45 229l760 992h-532l45 209h850l-45 -218l-773 -1003h568zM782 1561h-196l49 225h196z" />
    <glyph glyph-name="zdotaccent" unicode="&#x17c;" horiz-adv-x="833" 
d="M625 0h-717l43 219l579 643h-428l41 193h688l-45 -217l-571 -645h449zM625 1235h-197l47 225h197z" />
    <glyph glyph-name="Zcaron" unicode="&#x17d;" 
d="M799 0h-875l45 229l760 992h-532l45 209h850l-45 -218l-773 -1003h568zM780 1497h-221l-125 295h178l74 -176l143 176h197z" />
    <glyph glyph-name="zcaron" unicode="&#x17e;" horiz-adv-x="833" 
d="M625 0h-717l43 219l579 643h-428l41 193h688l-45 -217l-571 -645h449zM627 1171h-221l-125 295h178l73 -178l144 178h196z" />
    <glyph glyph-name="florin" unicode="&#x192;" horiz-adv-x="1064" 
d="M-55 -418l32 180q59 -24 109 -24q27 0 48.5 14t36.5 35t28.5 59t22 72t20.5 88l139 672h-166v160h203l57 264q39 178 119.5 263t216.5 85q51 0 87.5 -7.5t94.5 -27.5l-37 -176q-44 31 -100 31q-55 0 -85 -40t-48 -126l-57 -266h188v-160h-225l-156 -750
q-41 -197 -128.5 -290t-229.5 -93q-94 0 -170 37z" />
    <glyph glyph-name="Scommaaccent" unicode="&#x218;" horiz-adv-x="1021" 
d="M-8 41l65 235q116 -90 275 -90q124 0 195 60.5t71 163.5q0 62 -41.5 115.5t-136.5 117.5q-77 52 -128.5 101.5t-77 96t-35 85.5t-9.5 84q0 203 136 321t372 119q146 0 303 -53l-55 -217q-119 61 -250 61q-106 0 -172 -50.5t-66 -133.5q0 -35 10 -64t33.5 -56t41 -42.5
t55.5 -44.5t53 -41q10 -8 41 -30.5t52.5 -39t50.5 -47.5t47.5 -62.5t32 -78.5t13.5 -100q0 -212 -146.5 -341.5t-395.5 -129.5q-208 0 -334 61zM311 -457h-168l123 316h219z" />
    <glyph glyph-name="scommaaccent" unicode="&#x219;" horiz-adv-x="833" 
d="M-55 29l57 213q39 -28 110.5 -48t143.5 -20q88 0 131 32.5t43 86.5q0 49 -34 83t-126 97q-16 10 -24 16q-89 60 -127.5 120t-38.5 132q0 155 110.5 244.5t301.5 89.5q67 0 142 -11t120 -28l-54 -209q-115 54 -219 54q-73 0 -115 -29.5t-42 -85.5q0 -46 35 -83.5
t120 -90.5q110 -70 153.5 -127.5t43.5 -138.5q0 -159 -115.5 -252.5t-310.5 -93.5q-79 0 -167 14.5t-138 34.5zM225 -457h-168l123 316h219z" />
    <glyph glyph-name="uni021A" unicode="&#x21a;" horiz-adv-x="985" 
d="M473 0h-262l258 1221h-319l45 209h899l-45 -209h-318zM252 -457h-168l123 316h219z" />
    <glyph glyph-name="uni021B" unicode="&#x21b;" horiz-adv-x="720" 
d="M563 197l-39 -183q-68 -30 -162 -30q-119 0 -185 54.5t-66 156.5q0 64 16 135l115 538h-168l41 187h166l45 217l272 78l-63 -295h210l-38 -187h-211l-113 -528q-12 -50 -12 -86q0 -43 22.5 -60.5t71.5 -17.5q51 0 98 21zM172 -457h-168l123 316h219z" />
    <glyph glyph-name="dotlessj" unicode="&#x237;" horiz-adv-x="532" 
d="M-281 -442l50 192q35 -12 69 -12q52 0 80 35.5t43 103.5l250 1178h254l-242 -1139q-43 -200 -123.5 -285.5t-230.5 -85.5q-80 0 -150 13z" />
    <glyph glyph-name="circumflex" unicode="&#x2c6;" horiz-adv-x="454" 
d="M610 1171h-178l-74 179l-143 -179h-197l246 295h221z" />
    <glyph glyph-name="caron" unicode="&#x2c7;" horiz-adv-x="454" 
d="M422 1171h-221l-125 295h178l74 -178l143 178h197z" />
    <glyph glyph-name="uni02C9" unicode="&#x2c9;" horiz-adv-x="454" 
d="M614 1247h-569l33 152h569z" />
    <glyph glyph-name="breve" unicode="&#x2d8;" horiz-adv-x="454" 
d="M522 1450h119q-29 -131 -109.5 -202.5t-201.5 -71.5q-111 0 -172.5 58t-61.5 152q0 41 8 64h119q-2 -8 -2 -23q0 -61 33.5 -88.5t89.5 -27.5q62 0 110 37.5t68 101.5z" />
    <glyph glyph-name="dotaccent" unicode="&#x2d9;" horiz-adv-x="454" 
d="M426 1235h-197l47 225h197z" />
    <glyph glyph-name="ring" unicode="&#x2da;" horiz-adv-x="454" 
d="M584 1391q0 -104 -75.5 -177t-180.5 -73q-88 0 -142.5 51t-54.5 137q0 103 76 176.5t180 73.5q88 0 142.5 -51t54.5 -137zM336 1237q59 0 99 43.5t40 101.5q0 42 -27 70.5t-69 28.5q-58 0 -98.5 -43.5t-40.5 -102.5q0 -43 26.5 -70.5t69.5 -27.5z" />
    <glyph glyph-name="ogonek" unicode="&#x2db;" horiz-adv-x="454" 
d="M260 -346l4 -80q-36 -12 -50.5 -16.5t-40 -8.5t-52.5 -4q-86 0 -138.5 41.5t-52.5 112.5q0 85 61.5 159t192.5 142h86q-99 -87 -141.5 -150t-42.5 -126q0 -40 24 -62t62 -22q50 0 88 14z" />
    <glyph glyph-name="tilde" unicode="&#x2dc;" horiz-adv-x="454" 
d="M545 1444h133q-26 -108 -87 -174t-145 -66q-17 0 -34.5 4.5t-26 7.5t-31 14t-26.5 13q-67 31 -99 31q-35 0 -60.5 -23t-33.5 -57h-125q24 112 85.5 176t150.5 64q49 0 125 -35q72 -35 98 -35q28 0 49 23t27 57z" />
    <glyph glyph-name="hungarumlaut" unicode="&#x2dd;" horiz-adv-x="454" 
d="M156 1171h-162l180 295h236zM500 1171h-162l180 295h236z" />
    <glyph glyph-name="uni0394" unicode="&#x394;" horiz-adv-x="1226" 
d="M1120 0h-1208l704 1430h293zM850 211l-121 977h-4l-449 -977h574z" />
    <glyph glyph-name="uni03A9" unicode="&#x3a9;" horiz-adv-x="1284" 
d="M1128 0h-516l33 195q158 131 248 309t90 387q0 162 -64 264t-192 102q-115 0 -200 -88.5t-125 -222t-40 -287.5q0 -272 119 -464l-32 -195h-480l35 205h260q-145 204 -145 491q0 156 42 293.5t120 241.5t199 164.5t270 60.5q221 0 355 -138.5t134 -387.5q0 -218 -99 -408
t-274 -317h297z" />
    <glyph glyph-name="uni03BC" unicode="&#x3bc;" horiz-adv-x="1103" 
d="M973 188l-33 -184q-58 -16 -123 -16q-147 0 -147 151q0 27 2 41q-130 -203 -287 -203q-99 0 -129 64h-6q-18 -172 -70 -471h-227l256 1483h235l-88 -529q-22 -134 -22 -207q0 -70 22.5 -109.5t79.5 -39.5q93 0 172 118.5t109 293.5l80 473h241l-118 -684
q-19 -102 -19 -140q0 -49 37 -49q15 0 35 8z" />
    <glyph glyph-name="pi" unicode="&#x3c0;" horiz-adv-x="1114" 
d="M639 313l92 545h-280l-148 -858h-246l148 858h-129l33 195h1034l-33 -195h-131l-72 -412q-28 -154 -28 -194q0 -76 71 -76q30 0 68 14q-7 -37 -31 -188q-78 -16 -139 -16q-120 0 -172.5 49.5t-52.5 157.5q0 11 5 53t11 67z" />
    <glyph glyph-name="uni1E9E" unicode="&#x1e9e;" horiz-adv-x="1290" 
d="M381 41l65 235q124 -90 238 -90q91 0 146 50t55 143q0 63 -29.5 122t-91.5 134q-143 170 -143 274q0 117 73.5 204t196.5 126q-55 6 -117 6q-273 0 -336 -291l-202 -954h-263l201 948q56 264 216.5 383t432.5 119q173 0 418 -37l-45 -213q-64 -2 -116 -14t-96.5 -36
t-69.5 -65.5t-25 -97.5q0 -50 32 -103.5t95 -131.5q139 -172 139 -326q0 -221 -129 -333.5t-356 -112.5q-167 0 -289 61z" />
    <glyph glyph-name="uni2010" unicode="&#x2010;" horiz-adv-x="645" 
d="M508 477h-473l45 209h473z" />
    <glyph glyph-name="endash" unicode="&#x2013;" 
d="M977 492h-1024l37 180h1024z" />
    <glyph glyph-name="emdash" unicode="&#x2014;" horiz-adv-x="2048" 
d="M2001 492h-2048l37 180h2048z" />
    <glyph glyph-name="quoteleft" unicode="&#x2018;" horiz-adv-x="532" 
d="M418 1028h-244l215 508h191z" />
    <glyph glyph-name="quoteright" unicode="&#x2019;" horiz-adv-x="532" 
d="M375 1028h-191l162 508h244z" />
    <glyph glyph-name="quotesinglbase" unicode="&#x201a;" horiz-adv-x="532" 
d="M98 -246h-190l162 508h243z" />
    <glyph glyph-name="quotedblleft" unicode="&#x201c;" horiz-adv-x="1062" 
d="M502 1028h-244l215 508h191zM864 1028h-243l215 508h190z" />
    <glyph glyph-name="quotedblright" unicode="&#x201d;" horiz-adv-x="1062" 
d="M459 1028h-191l162 508h244zM821 1028h-190l162 508h243z" />
    <glyph glyph-name="quotedblbase" unicode="&#x201e;" horiz-adv-x="1062" 
d="M180 -246h-190l162 508h243zM543 -246h-191l162 508h244z" />
    <glyph glyph-name="dagger" unicode="&#x2020;" horiz-adv-x="1064" 
d="M492 0h-222l187 879h-285l41 192h285l75 359h222l-76 -359h285l-41 -192h-285z" />
    <glyph glyph-name="daggerdbl" unicode="&#x2021;" horiz-adv-x="1064" 
d="M842 317h-291l-66 -317h-209l66 317h-291l39 181h291l92 434h-291l39 180h291l68 318h208l-67 -318h291l-39 -180h-291l-92 -434h291z" />
    <glyph glyph-name="bullet" unicode="&#x2022;" 
d="M872 758q0 -103 -57 -196t-151.5 -149.5t-198.5 -56.5q-133 0 -223 91.5t-90 224.5q0 103 57 196t150.5 148t197.5 55q133 0 224 -90.5t91 -222.5z" />
    <glyph glyph-name="ellipsis" unicode="&#x2026;" horiz-adv-x="2048" 
d="M313 0h-245l55 266h246zM995 0h-245l55 266h246zM1677 0h-245l55 266h246z" />
    <glyph glyph-name="perthousand" unicode="&#x2030;" horiz-adv-x="1896" 
d="M305 -45h-121l813 1520h121zM330 680q-94 0 -149.5 66t-55.5 176q0 88 23.5 180t64.5 170t105.5 128t138.5 50q92 0 148.5 -65t56.5 -179q0 -93 -23.5 -186t-65 -169t-105.5 -123.5t-138 -47.5zM346 819q42 0 82 66.5t62 154t22 158.5q0 113 -74 113q-41 0 -80 -67.5
t-60.5 -155.5t-21.5 -160q0 -109 70 -109zM846 -20q-94 0 -149.5 65.5t-55.5 175.5q0 88 23.5 180.5t64.5 170.5t105.5 128t138.5 50q92 0 148.5 -65t56.5 -179q0 -93 -23.5 -186t-65 -169t-105.5 -123.5t-138 -47.5zM862 119q42 0 82 66.5t62 154t22 158.5q0 112 -74 112
q-41 0 -79.5 -67.5t-60 -155.5t-21.5 -160q0 -108 69 -108zM1442 -20q-94 0 -149.5 65.5t-55.5 175.5q0 88 23.5 180.5t64.5 170.5t105.5 128t138.5 50q92 0 148.5 -65t56.5 -179q0 -93 -23.5 -186t-65 -169t-105.5 -123.5t-138 -47.5zM1458 119q42 0 82 66.5t62 154
t22 158.5q0 112 -74 112q-41 0 -79.5 -67.5t-60 -155.5t-21.5 -160q0 -108 69 -108z" />
    <glyph glyph-name="guilsinglleft" unicode="&#x2039;" horiz-adv-x="606" 
d="M369 106h-197l-133 439l293 409h213l-295 -419z" />
    <glyph glyph-name="guilsinglright" unicode="&#x203a;" horiz-adv-x="606" 
d="M197 106h-213l295 420l-119 428h196l133 -438z" />
    <glyph glyph-name="fraction" unicode="&#x2044;" horiz-adv-x="342" 
d="M-193 -70h-161l889 1569h161z" />
    <glyph glyph-name="Euro" unicode="&#x20ac;" horiz-adv-x="1064" 
d="M952 260v-235q-104 -45 -266 -45q-234 0 -378 141t-150 391h-164l47 123h121l10 84l12 76h-147l49 123h131q87 252 269.5 392t418.5 140q170 0 287 -57l-92 -226q-54 32 -98.5 46t-104.5 14q-132 0 -236 -78t-169 -231h516l-47 -123h-506q-16 -58 -27 -160h485l-41 -123
h-444q10 -146 87.5 -225.5t205.5 -79.5q108 0 231 53z" />
    <glyph glyph-name="uni20B9" unicode="&#x20b9;" horiz-adv-x="1064" 
d="M721 0h-285l-317 635l33 158h180q243 0 301 178h-443l33 151h428q-4 79 -60 117.5t-145 38.5h-192l33 152h913l-35 -152h-325q51 -65 57 -156h238l-33 -151h-221q-37 -158 -156 -247t-297 -89h-45z" />
    <glyph glyph-name="uni20BA" unicode="&#x20ba;" horiz-adv-x="1064" 
d="M82 0l113 541l-179 -78l39 184l178 76l39 176l-178 -76l39 183l178 77l74 347h254l-45 -216l338 154l-39 -184l-340 -154l-37 -176l338 154l-39 -183l-340 -155l-104 -500q46 0 85.5 9.5t70.5 24t59 41t48 51t40 65.5t32.5 72t28 82.5t24.5 86t24 91.5l3 12h246
q-28 -139 -64 -245.5t-92 -200t-129 -153.5t-176 -94.5t-233 -34.5q-72 0 -256 23z" />
    <glyph glyph-name="uni20BC" unicode="&#x20bc;" horiz-adv-x="1474" 
d="M1292 0h-260l27 113q23 96 40 226.5t17 217.5q0 50 -0.5 81t-4.5 78t-11 77.5t-20.5 67.5t-33 59.5t-49 41t-67.5 25.5l-178 -844h-254l182 844q-61 -13 -117.5 -54.5t-99.5 -96.5t-83 -134.5t-67.5 -151t-55 -163t-43 -154.5t-32.5 -141l-20 -92h-260l26 129
q30 146 74 281.5t114 272t154.5 239.5t201 173.5t249.5 84.5l55 250h250l-55 -250q391 -60 391 -639q0 -195 -47 -430z" />
    <glyph glyph-name="ruble" unicode="&#x20bd;" horiz-adv-x="1064" 
d="M668 297h-299l-64 -297h-254l62 297h-146l35 160h145l27 133h-145l32 160h148l145 680h316q189 0 302 -87t113 -260q0 -227 -140.5 -360t-371.5 -133h-143l-29 -133h301zM463 750h102q131 0 198.5 84.5t67.5 226.5q0 88 -49 132t-141 44h-74z" />
    <glyph glyph-name="afii61289" unicode="&#x2113;" 
d="M707 225l57 -135q-167 -119 -330 -119q-123 0 -190.5 61t-67.5 167q0 66 35 200l-133 -104l-66 133l240 168l102 496q37 181 140.5 283t250.5 102q105 0 172.5 -68.5t67.5 -171.5q0 -324 -518 -686q-5 -23 -13 -56.5t-11.5 -49t-9 -40t-8 -36t-6.5 -29t-5.5 -26t-3.5 -21
t-2.5 -20t-1 -16.5t-0.5 -17q0 -48 26 -74.5t70 -26.5q43 0 89 19t116 67zM596 1155l-86 -399q129 110 207 238t78 231q0 43 -21 70.5t-53 27.5q-88 0 -125 -168z" />
    <glyph glyph-name="trademark" unicode="&#x2122;" horiz-adv-x="2048" 
d="M496 578h-160l149 700h-260l33 152h680l-33 -152h-260zM1890 578h-159l139 651h-4l-379 -651h-127l-100 651h-5l-139 -651h-160l183 852h241l97 -594l340 594h256z" />
    <glyph glyph-name="Omega" unicode="&#x2126;" horiz-adv-x="1284" 
d="M1128 0h-516l33 195q158 131 248 309t90 387q0 162 -64 264t-192 102q-115 0 -200 -88.5t-125 -222t-40 -287.5q0 -272 119 -464l-32 -195h-480l35 205h260q-145 204 -145 491q0 156 42 293.5t120 241.5t199 164.5t270 60.5q221 0 355 -138.5t134 -387.5q0 -218 -99 -408
t-274 -317h297z" />
    <glyph glyph-name="estimated" unicode="&#x212e;" horiz-adv-x="1228" 
d="M973 285l71 -43q-95 -151 -199.5 -214t-264.5 -63q-156 0 -278 74.5t-187.5 203t-65.5 287.5q0 243 147.5 404.5t381.5 161.5q231 0 380.5 -156t149.5 -410h-827v-370q121 -121 297 -121q131 0 225 59.5t170 186.5zM877 604v297q-129 123 -304 123q-169 0 -292 -123v-297
h596z" />
    <glyph glyph-name="partialdiff" unicode="&#x2202;" horiz-adv-x="1122" 
d="M815 770l2 72q2 85 -16.5 166t-56 149t-102 109t-146.5 41q-112 0 -242 -99l-117 135q96 75 174.5 104.5t175.5 29.5q264 0 407.5 -200t143.5 -544q0 -369 -131 -563.5t-385 -194.5q-194 0 -318 131.5t-124 333.5q0 197 122 323t312 126q160 0 301 -119zM811 588
q-59 68 -120.5 102.5t-143.5 34.5q-116 0 -186 -83t-70 -214q0 -130 65.5 -209.5t173.5 -79.5q84 0 150 56.5t99.5 145.5t33.5 191q0 38 -2 56z" />
    <glyph glyph-name="Delta" unicode="&#x2206;" horiz-adv-x="1226" 
d="M1120 0h-1208l704 1430h293zM850 211l-121 977h-4l-449 -977h574z" />
    <glyph glyph-name="product" unicode="&#x220f;" horiz-adv-x="1509" 
d="M1380 -438h-221v1847h-811v-1847h-219v2048h1251v-2048z" />
    <glyph glyph-name="summation" unicode="&#x2211;" horiz-adv-x="1316" 
d="M1266 -438h-1215v176l627 858l-600 842v172h1161v-201h-868l571 -811l-608 -838h932v-198z" />
    <glyph glyph-name="minus" unicode="&#x2212;" horiz-adv-x="1228" 
d="M1092 428h-1037v180h1037v-180z" />
    <glyph glyph-name="uni2215" unicode="&#x2215;" horiz-adv-x="342" 
d="M-193 -70h-161l889 1569h161z" />
    <glyph glyph-name="uni2219" unicode="&#x2219;" horiz-adv-x="530" 
d="M221 424q-62 0 -101.5 39.5t-39.5 97.5q0 73 52 125.5t122 52.5q61 0 101 -39.5t40 -99.5q0 -72 -51 -124t-123 -52z" />
    <glyph glyph-name="radical" unicode="&#x221a;" horiz-adv-x="1087" 
d="M680 -438h-207l-311 653l-105 -47l-82 174l293 133l275 -575l346 1710h223z" />
    <glyph glyph-name="infinity" unicode="&#x221e;" horiz-adv-x="1650" 
d="M784 399q-89 -97 -163.5 -148.5t-122.5 -64t-111 -12.5q-150 0 -244 100.5t-94 257.5q0 160 94 260.5t242 100.5q96 0 185 -50.5t214 -191.5q112 130 205 187t193 57q151 0 243.5 -101.5t92.5 -256.5q0 -161 -93 -264t-245 -103q-99 0 -193 53.5t-203 175.5zM897 526
q155 -168 287 -168q71 0 114 48t43 124q0 79 -44.5 128t-118.5 49q-52 0 -112 -35t-169 -146zM672 528q-93 94 -160.5 135.5t-128.5 41.5q-66 0 -112 -51t-46 -124q0 -76 44.5 -123t121.5 -47q62 0 135 43.5t146 124.5z" />
    <glyph glyph-name="integral" unicode="&#x222b;" horiz-adv-x="1228" 
d="M471 -244l-6 201v1239q0 212 69.5 313t221.5 101q85 0 150 -41t65 -109q0 -41 -30.5 -70.5t-74.5 -29.5q-62 0 -92 55q-8 13 -16.5 35.5t-16 32.5t-20.5 10q-11 0 -18.5 -3.5t-14 -20.5t-6.5 -48q0 -22 2 -113.5t2 -136.5l2 -1208q-5 -204 -74 -302.5t-215 -98.5
q-86 0 -147.5 41t-61.5 106q0 43 27.5 72t71.5 29q15 0 26.5 -2.5t27.5 -11.5t30 -31t26 -56q11 -37 37 -37q37 0 35 84z" />
    <glyph glyph-name="approxequal" unicode="&#x2248;" horiz-adv-x="1214" 
d="M977 909h139q-17 -166 -94 -254t-203 -88q-57 0 -134.5 22t-209.5 73q-127 47 -182 47q-51 0 -85 -37t-48 -105h-140q17 164 93.5 254t199.5 90q81 0 269 -67q8 -3 35.5 -13t37 -13t33 -11t35 -11.5t31.5 -8.5t33.5 -7t29.5 -4t31 -2q104 0 129 135zM977 494h139
q-17 -166 -94 -254t-203 -88q-102 0 -344 94q-127 47 -182 47q-51 0 -85 -36.5t-48 -104.5h-140q17 164 93.5 254t199.5 90q36 0 85.5 -11t84.5 -22.5t99 -34.5q8 -3 35.5 -13t37 -13t33 -11t35 -11.5t31.5 -8.5t33.5 -7t29.5 -4t31 -2q104 0 129 136z" />
    <glyph glyph-name="notequal" unicode="&#x2260;" horiz-adv-x="1214" 
d="M1092 213h-615l-174 -311l-143 73l133 238h-238v180h340l142 250h-482v180h582l190 336l144 -72l-150 -264h271v-180h-373l-139 -250h512v-180z" />
    <glyph glyph-name="lessequal" unicode="&#x2264;" horiz-adv-x="1214" 
d="M1077 205l-1063 352v211l1063 367v-220l-778 -251l778 -240v-219zM1077 -72h-1063v207h1063v-207z" />
    <glyph glyph-name="greaterequal" unicode="&#x2265;" horiz-adv-x="1214" 
d="M1139 557l-1063 -352v219l778 240l-778 251v220l1063 -367v-211zM1139 -72h-1063v207h1063v-207z" />
    <glyph glyph-name="lozenge" unicode="&#x25ca;" horiz-adv-x="1214" 
d="M702 -72h-194l-361 799l361 803h194l363 -801zM604 133l250 596l-250 594l-244 -594z" />
    <glyph glyph-name="grave.cap" unicode="&#xe300;" horiz-adv-x="569" 
d="M563 1497h-153l-164 295h229z" />
    <glyph glyph-name="acute.cap" unicode="&#xe301;" horiz-adv-x="569" 
d="M494 1497h-164l170 295h239z" />
    <glyph glyph-name="circumflex.cap" unicode="&#xe302;" horiz-adv-x="569" 
d="M739 1497h-178l-74 178l-143 -178h-197l246 295h221z" />
    <glyph glyph-name="caron.cap" unicode="&#xe303;" horiz-adv-x="569" 
d="M553 1497h-221l-125 295h178l74 -176l143 176h197z" />
    <glyph glyph-name="tilde.cap" unicode="&#xe304;" horiz-adv-x="454" 
d="M674 1769h133q-26 -108 -87 -173.5t-145 -65.5q-17 0 -34.5 4.5t-26 7.5t-31 14t-26.5 13q-65 30 -99 30q-35 0 -60.5 -22.5t-33.5 -56.5h-125q24 112 85 175.5t151 63.5q49 0 125 -35q70 -34 98 -34t49 22.5t27 56.5z" />
    <glyph glyph-name="dieresis.cap" unicode="&#xe305;" horiz-adv-x="569" 
d="M379 1561h-197l49 225h197zM723 1561h-197l49 225h197z" />
    <glyph glyph-name="macron.cap" unicode="&#xe306;" horiz-adv-x="569" 
d="M741 1573h-569l31 151h569z" />
    <glyph glyph-name="breve.cap" unicode="&#xe307;" horiz-adv-x="569" 
d="M649 1776h119q-29 -131 -110 -203t-201 -72q-110 0 -172 58t-62 151q0 43 8 66h119q-2 -4 -2 -25q0 -56 33 -85.5t90 -29.5q63 0 110.5 37t67.5 103z" />
    <glyph glyph-name="ring.cap" unicode="&#xe308;" horiz-adv-x="569" 
d="M717 1737q0 -106 -75 -178t-181 -72q-88 0 -142.5 51t-54.5 137q0 103 76 176.5t180 73.5q88 0 142.5 -51t54.5 -137zM469 1583q60 0 99.5 43.5t39.5 102.5q0 43 -26.5 70.5t-69.5 27.5q-57 0 -98 -43.5t-41 -102.5q0 -43 26.5 -70.5t69.5 -27.5z" />
    <glyph glyph-name="hungarumlaut.cap" unicode="&#xe309;" horiz-adv-x="569" 
d="M283 1497h-162l180 295h236zM627 1497h-162l180 295h236z" />
    <glyph glyph-name="dotaccent.cap" unicode="&#xe30a;" horiz-adv-x="569" 
d="M551 1561h-197l49 225h197z" />
    <glyph glyph-name="caron.alt" unicode="&#xe30b;" horiz-adv-x="532" 
d="M272 1120h-147l100 346h211z" />
    <glyph glyph-name="commaaccent" unicode="&#xe30c;" horiz-adv-x="532" 
d="M55 -457h-168l123 316h219z" />
    <glyph glyph-name="commaaccent.alt" unicode="&#xe30d;" horiz-adv-x="532" 
d="M432 1171h-215l166 295h162z" />
    <glyph glyph-name="uniF8FF" unicode="&#xf8ff;" horiz-adv-x="1048" 
d="M1049 1470v-1470h-1049v1470h1049zM102 102h844v1264h-844v-1264zM555 528v-49h-94v51q0 95 23.5 147t103.5 134q35 35 50 52.5t28.5 46.5t13.5 61q0 72 -46.5 123t-109.5 51q-70 0 -113 -49.5t-55 -145.5l-102 17q12 136 83 208t193 72q111 0 182.5 -74t71.5 -194
q0 -70 -28.5 -126t-102.5 -122q-62 -55 -80 -93t-18 -110zM569 377v-137h-114v137h114z" />
    </font>
</defs>
</svg>
