<?xml version="1.0" standalone="no"?>
<!DOCTYPE svg PUBLIC "-//W3C//DTD SVG 1.1//EN" "http://www.w3.org/Graphics/SVG/1.1/DTD/svg11.dtd" >
<svg xmlns="http://www.w3.org/2000/svg" xmlns:xlink="http://www.w3.org/1999/xlink" version="1.1">
<metadata>
Created by FontForge 20201107 at Sat Aug  3 09:41:43 2024
 By 
Copyright (c) 2014 - 2016 Monotype Imaging Inc. All rights reserved.
</metadata>
<defs>
<font id="FrutigerLTPro-LightCn" horiz-adv-x="948" >
  <font-face 
    font-family="Frutiger LT Pro 47 Light Cn"
    font-weight="300"
    font-stretch="condensed"
    units-per-em="2048"
    panose-1="2 11 4 6 2 2 4 2 2 4"
    ascent="1536"
    descent="-512"
    x-height="1044"
    cap-height="1430"
    bbox="-195 -512 2048 1882"
    underline-thickness="102"
    underline-position="-255"
    unicode-range="U+000D-FB02"
  />
<missing-glyph horiz-adv-x="1048" 
d="M1049 0h-1049v1470h1049v-1470zM946 102v1264h-844v-1264h844zM555 479h-94l-4 39q0 111 26 164q23 51 103 127q47 44 70.5 80t23.5 82q0 72 -46.5 123t-109.5 51q-70 0 -113 -49.5t-55 -145.5l-102 17q12 135 84 207.5t192 72.5q111 0 182.5 -74t71.5 -194
q0 -75 -29.5 -130t-103.5 -118q-73 -66 -84 -102q-12 -38 -12 -150zM569 240h-114v137h114v-137z" />
    <glyph glyph-name="fi" unicode="fi" 
d="M311 0h-118v934h-162v110h162v232q0 146 62.5 215.5t193.5 69.5q47 0 90 -11v-118q-47 18 -95 18q-66 0 -99.5 -41.5t-33.5 -112.5v-252h185v-110h-185v-934zM811 1276h-143v184h143v-184zM799 0h-119v1044h119v-1044z" />
    <glyph glyph-name="fl" unicode="fl" 
d="M311 0h-118v934h-162v110h162v232q0 146 62.5 215.5t193.5 69.5q47 0 90 -11v-118q-47 18 -95 18q-66 0 -99.5 -41.5t-33.5 -112.5v-252h185v-110h-185v-934zM797 0h-119v1536h119v-1536z" />
    <glyph glyph-name=".notdef" horiz-adv-x="1048" 
d="M1049 0h-1049v1470h1049v-1470zM946 102v1264h-844v-1264h844zM555 479h-94l-4 39q0 111 26 164q23 51 103 127q47 44 70.5 80t23.5 82q0 72 -46.5 123t-109.5 51q-70 0 -113 -49.5t-55 -145.5l-102 17q12 135 84 207.5t192 72.5q111 0 182.5 -74t71.5 -194
q0 -75 -29.5 -130t-103.5 -118q-73 -66 -84 -102q-12 -38 -12 -150zM569 240h-114v137h114v-137z" />
    <glyph glyph-name=".null" horiz-adv-x="0" 
 />
    <glyph glyph-name="nonmarkingreturn" horiz-adv-x="682" 
 />
    <glyph glyph-name="NULL" horiz-adv-x="0" 
 />
    <glyph glyph-name="NULL" horiz-adv-x="0" 
 />
    <glyph glyph-name="CR" unicode="&#xd;" horiz-adv-x="491" 
 />
    <glyph glyph-name="space" unicode=" " horiz-adv-x="491" 
 />
    <glyph glyph-name="exclam" unicode="!" horiz-adv-x="720" 
d="M416 352h-111l-20 1078h151zM436 0h-151v184h151v-184z" />
    <glyph glyph-name="quotedbl" unicode="&#x22;" horiz-adv-x="983" 
d="M406 1081h-119v455h119v-455zM696 1081h-118v455h118v-455z" />
    <glyph glyph-name="numbersign" unicode="#" horiz-adv-x="983" 
d="M637 0h-102l53 455h-256l-53 -455h-103l53 455h-180v102h193l39 315h-181v103h193l53 455h103l-54 -455h256l54 455h102l-53 -455h180v-103h-193l-39 -315h181v-102h-193zM600 557l39 315h-256l-39 -315h256z" />
    <glyph glyph-name="dollar" unicode="$" horiz-adv-x="983" 
d="M526 -190h-73v176q-177 0 -283 67l8 148q114 -97 275 -97v582q-95 64 -153.5 115.5t-89 101t-40.5 92.5t-10 103q0 142 76.5 230t216.5 108v168h73v-160q114 0 232 -45l-6 -144q-67 40 -117 55t-109 15v-522q127 -92 186 -150t85 -119.5t26 -152.5q0 -148 -80.5 -254
t-216.5 -135v-182zM453 860v457q-158 -49 -158 -201q0 -79 33.5 -135t124.5 -121zM526 635v-516q73 23 117.5 94t44.5 152t-36.5 143t-125.5 127z" />
    <glyph glyph-name="percent" unicode="%" horiz-adv-x="1669" 
d="M567 -68h-110l641 1565h110zM420 670q-133 0 -203 100.5t-70 286.5t70 286.5t203 100.5q131 0 201.5 -99.5t70.5 -287.5t-70.5 -287.5t-201.5 -99.5zM420 780q74 0 113.5 63t39.5 214q0 148 -38.5 212t-114.5 64t-115 -63.5t-39 -212.5q0 -151 40 -214t114 -63zM1249 -14
q-131 0 -201.5 99.5t-70.5 287.5t70.5 287.5t201.5 99.5q133 0 203 -100.5t70 -286.5t-70 -286.5t-203 -100.5zM1249 96q74 0 114 63t40 214q0 149 -40 212.5t-116 63.5q-73 0 -112 -62.5t-39 -213.5t38.5 -214t114.5 -63z" />
    <glyph glyph-name="ampersand" unicode="&#x26;" horiz-adv-x="1175" 
d="M1143 0h-162l-119 172q-47 -82 -143.5 -134t-216.5 -52q-188 0 -287.5 106.5t-99.5 302.5q0 264 282 418q-83 98 -118 176.5t-35 159.5q0 35 9.5 72.5t33.5 78t59 72t91.5 52t125.5 20.5q126 0 204.5 -81t78.5 -194q0 -115 -63.5 -206.5t-215.5 -186.5l295 -411
q78 158 96 442h119q-26 -341 -143 -545zM500 864q219 131 219 289q0 76 -44 124t-120 48q-82 0 -133 -54t-51 -130q0 -50 23.5 -106.5t105.5 -170.5zM797 262l-334 467q-131 -93 -176 -168.5t-45 -183.5q0 -27 6.5 -58.5t25 -71t47 -70.5t78 -52t111.5 -21q80 0 158 42.5
t129 115.5z" />
    <glyph glyph-name="quotesingle" unicode="'" horiz-adv-x="491" 
d="M305 1081h-119v455h119v-455z" />
    <glyph glyph-name="parenleft" unicode="(" horiz-adv-x="530" 
d="M473 -274l-98 -13q-281 487 -281 918q0 436 281 917l98 -12q-139 -300 -195.5 -503t-56.5 -402t57.5 -406t194.5 -499z" />
    <glyph glyph-name="parenright" unicode=")" horiz-adv-x="530" 
d="M156 -287l-99 13q135 291 193.5 500t58.5 405t-56.5 400t-195.5 505l99 12q280 -480 280 -917q0 -436 -280 -918z" />
    <glyph glyph-name="asterisk" unicode="*" horiz-adv-x="983" 
d="M719 942l-107 -59l-120 235l-121 -235l-107 59l150 238l-242 80l41 118l231 -108l-16 266h127l-16 -266l231 108l41 -118l-242 -80z" />
    <glyph glyph-name="plus" unicode="+" horiz-adv-x="1228" 
d="M666 0h-103v467h-467v102h467v467h103v-467h467v-102h-467v-467z" />
    <glyph glyph-name="comma" unicode="," horiz-adv-x="491" 
d="M195 -270h-119l98 454h152z" />
    <glyph glyph-name="hyphen" unicode="-" horiz-adv-x="606" 
d="M512 512h-418v119h418v-119z" />
    <glyph glyph-name="period" unicode="." horiz-adv-x="491" 
d="M326 0h-160v201h160v-201z" />
    <glyph glyph-name="slash" unicode="/" horiz-adv-x="530" 
d="M125 -14h-102l385 1458h100z" />
    <glyph glyph-name="zero" unicode="0" horiz-adv-x="983" 
d="M492 -14q-190 0 -294 193.5t-104 535.5q0 343 104 536t294 193q192 0 294.5 -193t102.5 -536q0 -342 -103.5 -535.5t-293.5 -193.5zM492 104q131 0 200.5 155t69.5 456t-68.5 455.5t-201.5 154.5q-131 0 -201 -154t-70 -456q0 -299 70.5 -455t200.5 -156z" />
    <glyph glyph-name="one" unicode="1" horiz-adv-x="983" 
d="M627 0h-127v1286l-185 -213l-69 94l254 263h127v-1430z" />
    <glyph glyph-name="two" unicode="2" horiz-adv-x="983" 
d="M846 0h-709v125l221 274q334 415 334 670q0 123 -57.5 189.5t-165.5 66.5q-64 0 -138.5 -32t-133.5 -81l-19 142q140 90 301 90q159 0 253.5 -103.5t94.5 -271.5q0 -141 -82 -308.5t-284 -418.5l-180 -223h565v-119z" />
    <glyph glyph-name="three" unicode="3" horiz-adv-x="983" 
d="M100 43l11 139q49 -30 128.5 -54t139.5 -24q143 0 228 82t85 226q0 127 -87.5 198.5t-237.5 71.5h-109v119q222 0 323 66t101 200q0 113 -74.5 185.5t-210.5 72.5q-119 0 -235 -84l-10 135q37 25 120 46.5t144 21.5q182 0 291.5 -103t109.5 -262q0 -244 -256 -319v-4
q114 -22 190 -122.5t76 -238.5q0 -197 -118.5 -303t-343.5 -106q-154 0 -265 57z" />
    <glyph glyph-name="four" unicode="4" horiz-adv-x="983" 
d="M758 0h-127v342h-568v129l527 959h168v-969h162v-119h-162v-342zM631 461v842h-4l-453 -842h457z" />
    <glyph glyph-name="five" unicode="5" horiz-adv-x="983" 
d="M178 41l6 137q115 -74 246 -74q145 0 228 95t83 256q0 149 -80 232t-231 83q-119 0 -237 -51v711h608v-119h-490v-451q81 29 158 29q201 0 304.5 -110t103.5 -324q0 -218 -119.5 -343.5t-333.5 -125.5q-68 0 -122.5 12t-123.5 43z" />
    <glyph glyph-name="six" unicode="6" horiz-adv-x="983" 
d="M213 705h4q39 91 118.5 145.5t178.5 54.5q117 0 203.5 -65.5t129 -170.5t42.5 -233q0 -192 -106.5 -321t-290.5 -129q-192 0 -295 164t-103 471q0 413 127.5 618t372.5 205q113 0 235 -39l-10 -143q-66 37 -112.5 50t-100.5 13q-179 0 -280.5 -162.5t-112.5 -457.5z
M492 104q118 0 190 93.5t72 257.5q0 87 -29 161t-89.5 122t-143.5 48q-106 0 -176 -91.5t-70 -241.5q0 -164 67.5 -256.5t178.5 -92.5z" />
    <glyph glyph-name="seven" unicode="7" horiz-adv-x="983" 
d="M401 0h-143l465 1311h-590v119h717v-125z" />
    <glyph glyph-name="eight" unicode="8" horiz-adv-x="983" 
d="M612 750q158 -81 219.5 -168t61.5 -203q0 -59 -14.5 -114t-46 -106t-77.5 -89.5t-114.5 -61t-151.5 -22.5q-177 0 -288 108.5t-111 278.5q0 125 72 221t200 151q-237 128 -237 365q0 103 52 180.5t135.5 115.5t183.5 38q169 0 264.5 -92t95.5 -236q0 -102 -54.5 -187
t-189.5 -179zM516 799q104 75 154.5 155t50.5 156q0 92 -67.5 153.5t-166.5 61.5q-90 0 -158.5 -66.5t-68.5 -162.5q0 -94 67.5 -173.5t188.5 -123.5zM473 692q-138 -73 -193 -147t-55 -176q0 -114 76.5 -189.5t196.5 -75.5q108 0 184 71.5t76 201.5q0 97 -68 172.5
t-217 142.5z" />
    <glyph glyph-name="nine" unicode="9" horiz-adv-x="983" 
d="M154 25l10 143q61 -36 107.5 -50t105.5 -14q178 0 281.5 164t111.5 457h-4q-39 -92 -118.5 -146.5t-178.5 -54.5q-117 0 -203.5 65.5t-129 170.5t-42.5 233q0 195 108 323t290 128q194 0 295.5 -164t101.5 -471q0 -413 -127.5 -618t-372.5 -205q-113 0 -235 39zM492 643
q107 0 176 92t69 244q0 163 -67 254.5t-178 91.5q-118 0 -190.5 -93.5t-72.5 -256.5q0 -88 28.5 -162t90 -122t144.5 -48z" />
    <glyph glyph-name="colon" unicode=":" horiz-adv-x="491" 
d="M326 844h-160v200h160v-200zM326 0h-160v201h160v-201z" />
    <glyph glyph-name="semicolon" unicode=";" horiz-adv-x="491" 
d="M326 844h-160v200h160v-200zM195 -270h-119l98 454h152z" />
    <glyph glyph-name="less" unicode="&#x3c;" horiz-adv-x="1228" 
d="M1133 -14l-1037 477v110l1037 478v-111l-912 -422l912 -422v-110z" />
    <glyph glyph-name="equal" unicode="=" horiz-adv-x="1228" 
d="M1133 666h-1037v102h1037v-102zM1133 268h-1037v103h1037v-103z" />
    <glyph glyph-name="greater" unicode="&#x3e;" horiz-adv-x="1228" 
d="M1133 463l-1037 -477v110l910 422l-910 422v111l1037 -478v-110z" />
    <glyph glyph-name="question" unicode="?" horiz-adv-x="909" 
d="M479 350h-119q5 143 24 207.5t95 171.5q81 115 118.5 198t37.5 158q0 109 -62 174.5t-165 65.5q-106 0 -215 -68l-11 140q129 47 221 47q175 0 271 -91.5t96 -252.5q0 -102 -34.5 -181.5t-147.5 -238.5q-66 -92 -87.5 -157.5t-21.5 -172.5zM487 0h-151v184h151v-184z" />
    <glyph glyph-name="at" unicode="@" horiz-adv-x="1638" 
d="M1403 342h110q-97 -170 -280.5 -263t-413.5 -93q-150 0 -285.5 58.5t-232.5 157t-154 232.5t-57 281q0 198 96.5 365.5t264.5 265.5t368 98q204 0 369.5 -74t262.5 -213.5t97 -318.5q0 -125 -62.5 -249.5t-162.5 -204t-203 -79.5q-77 0 -127.5 35t-50.5 94
q-129 -129 -264 -129q-118 0 -189 78t-71 203q0 102 37 202t99 178t151 126.5t186 48.5q154 0 211 -160h6l45 127h102l-208 -598q-11 -37 -11 -45q0 -66 88 -66q78 0 154 67.5t122 171.5t46 206q0 154 -86.5 270.5t-227.5 176t-313 59.5q-171 0 -314.5 -84t-227.5 -230
t-84 -321q0 -174 84 -320.5t228 -230.5t314 -84q197 0 350 68t234 194zM690 399q91 0 174.5 79t129.5 185.5t46 198.5q0 185 -159 185q-72 0 -140 -42.5t-115.5 -108t-76.5 -146t-29 -156.5q0 -195 170 -195z" />
    <glyph glyph-name="A" unicode="A" horiz-adv-x="1138" 
d="M1112 0h-135l-125 393h-569l-129 -393h-127l475 1430h135zM813 512l-242 782h-4l-248 -782h494z" />
    <glyph glyph-name="B" unicode="B" horiz-adv-x="1024" 
d="M418 0h-254v1430h342q157 0 257.5 -97t100.5 -252q0 -118 -57.5 -202t-167.5 -127v-4q125 -37 190.5 -126.5t65.5 -222.5q0 -194 -120.5 -296.5t-356.5 -102.5zM291 801h180q112 0 185 72.5t73 193.5q0 116 -68 180t-186 64h-184v-510zM291 119h188q129 0 205 76t76 200
q0 129 -75 208t-193 79h-201v-563z" />
    <glyph glyph-name="C" unicode="C" horiz-adv-x="1099" 
d="M961 168l6 -137q-113 -45 -244 -45q-189 0 -327 94t-208.5 259.5t-70.5 383.5q0 152 37.5 281t111 228t192.5 155.5t271 56.5q139 0 242 -47l-6 -144q-43 31 -111.5 51.5t-130.5 20.5q-40 0 -81 -7t-88.5 -26t-89.5 -48t-81.5 -77.5t-68 -110t-45.5 -149.5t-17 -192
q0 -143 37.5 -260t102 -193t149 -117t180.5 -41q115 0 240 64z" />
    <glyph glyph-name="D" unicode="D" horiz-adv-x="1138" 
d="M385 0h-221v1430h186q346 0 522.5 -168.5t176.5 -526.5q0 -353 -178 -544t-486 -191zM291 119h129q223 0 358 157.5t135 440.5q0 140 -27 245.5t-86 185.5t-159.5 121.5t-241.5 41.5h-108v-1192z" />
    <glyph glyph-name="E" unicode="E" horiz-adv-x="909" 
d="M793 0h-629v1430h606v-119h-479v-508h457v-119h-457v-565h502v-119z" />
    <glyph glyph-name="F" unicode="F" horiz-adv-x="833" 
d="M291 0h-127v1430h584v-119h-457v-508h434v-119h-434v-684z" />
    <glyph glyph-name="G" unicode="G" horiz-adv-x="1214" 
d="M932 147v502h-256v119h383v-705q-140 -77 -330 -77q-136 0 -246 47t-179 121.5t-115.5 174t-65.5 199t-19 201.5q0 140 41.5 267.5t118 228t196 160t265.5 59.5q63 0 155.5 -22t143.5 -48l-6 -139q-53 36 -139.5 63t-159.5 27q-67 0 -132.5 -20t-129 -66t-111 -114
t-77 -173t-29.5 -233q0 -91 16.5 -176t54 -166t93.5 -140.5t141 -96t190 -36.5q116 0 197 43z" />
    <glyph glyph-name="H" unicode="H" horiz-adv-x="1138" 
d="M975 0h-127v684h-557v-684h-127v1430h127v-627h557v627h127v-1430z" />
    <glyph glyph-name="I" unicode="I" horiz-adv-x="454" 
d="M291 0h-127v1430h127v-1430z" />
    <glyph glyph-name="J" unicode="J" horiz-adv-x="606" 
d="M43 0v135q35 -14 51.5 -18t44.5 -4q62 0 99 23t57 83t20 166v1045h127v-1047q0 -215 -73.5 -306t-225.5 -91q-42 0 -100 14z" />
    <glyph glyph-name="K" unicode="K" horiz-adv-x="1024" 
d="M1014 0h-168l-551 700h-4v-700h-127v1430h127v-627h4l516 627h156l-572 -680z" />
    <glyph glyph-name="L" unicode="L" horiz-adv-x="796" 
d="M756 0h-592v1430h127v-1311h465v-119z" />
    <glyph glyph-name="M" unicode="M" horiz-adv-x="1515" 
d="M1352 0h-119v1311h-4l-422 -1311h-96l-424 1311h-4v-1311h-119v1430h194l398 -1242h4l397 1242h195v-1430z" />
    <glyph glyph-name="N" unicode="N" horiz-adv-x="1214" 
d="M1051 0h-164l-600 1262h-4v-1262h-119v1430h164l600 -1270h4v1270h119v-1430z" />
    <glyph glyph-name="O" unicode="O" horiz-adv-x="1216" 
d="M608 -14q-245 0 -374.5 188.5t-129.5 540.5q0 353 129.5 541t374.5 188t374.5 -188t129.5 -541t-129.5 -541t-374.5 -188zM608 104q178 0 273.5 155.5t95.5 455.5t-94 455t-277 155q-178 0 -272 -155.5t-94 -454.5q0 -300 94.5 -455.5t273.5 -155.5z" />
    <glyph glyph-name="P" unicode="P" 
d="M291 0h-127v1430h270q207 0 320.5 -98t113.5 -306q0 -104 -32.5 -183.5t-89.5 -126.5t-127 -70t-152 -23h-176v-623zM291 741h129q156 0 234.5 66t78.5 223q0 56 -11.5 100.5t-29 73.5t-46 50t-54.5 31.5t-63.5 16.5t-63.5 7.5t-64 1.5h-110v-570z" />
    <glyph glyph-name="Q" unicode="Q" horiz-adv-x="1216" 
d="M1075 -262h-162l-229 256q-41 -8 -78 -8q-244 0 -373 188t-129 541t129.5 541t374.5 188t374.5 -188t129.5 -541q0 -274 -78 -449t-225 -237zM608 104q178 0 273.5 155.5t95.5 455.5t-94 455t-277 155q-178 0 -272 -155.5t-94 -454.5q0 -300 94.5 -455.5t273.5 -155.5z
" />
    <glyph glyph-name="R" unicode="R" horiz-adv-x="1024" 
d="M950 0h-135l-174 489q-36 101 -74.5 139t-113.5 38h-162v-666h-127v1430h338q166 0 267 -99t101 -266q0 -142 -72.5 -231t-207.5 -115v-4q109 -21 145 -123zM291 784h180q124 0 194 77.5t70 199.5t-70.5 186t-201.5 64h-172v-527z" />
    <glyph glyph-name="S" unicode="S" horiz-adv-x="872" 
d="M115 53l8 148q53 -48 120.5 -72.5t131.5 -24.5q122 0 190 76t68 182q0 96 -47 164t-162 144q-196 128 -258 210.5t-62 217.5q0 164 103.5 255t271.5 91q108 0 223 -45l-6 -144q-64 40 -115.5 55t-111.5 15q-95 0 -162 -56.5t-67 -152.5q0 -34 6 -64t20.5 -55.5t26 -43.5
t35.5 -39.5t35 -31t39 -29t34 -24.5q57 -42 89 -66t71 -56t59 -52t43 -47t33.5 -49t20.5 -51t13 -59t3 -68q0 -173 -108 -284t-275 -111q-74 0 -148.5 18.5t-121.5 48.5z" />
    <glyph glyph-name="T" unicode="T" horiz-adv-x="872" 
d="M500 0h-127v1311h-332v119h790v-119h-331v-1311z" />
    <glyph glyph-name="U" unicode="U" horiz-adv-x="1175" 
d="M885 516v914h127v-916q0 -256 -107.5 -392t-316.5 -136q-214 0 -319 131.5t-105 396.5v916h127v-914q0 -214 72 -313t225 -99t225 99t72 313z" />
    <glyph glyph-name="V" unicode="V" horiz-adv-x="1062" 
d="M580 0h-119l-428 1430h135l350 -1254h4l381 1254h127z" />
    <glyph glyph-name="W" unicode="W" horiz-adv-x="1593" 
d="M1239 0h-160l-280 1286h-4l-303 -1286h-150l-317 1430h135l256 -1278h4l297 1278h174l268 -1278h4l279 1278h127z" />
    <glyph glyph-name="X" unicode="X" horiz-adv-x="1062" 
d="M1042 0h-151l-348 649l-371 -649h-152l449 758l-393 672h151l326 -570l332 570h135l-399 -672z" />
    <glyph glyph-name="Y" unicode="Y" horiz-adv-x="1024" 
d="M575 0h-126v621l-361 809h135l291 -693l287 693h135l-361 -809v-621z" />
    <glyph glyph-name="Z" unicode="Z" horiz-adv-x="909" 
d="M836 0h-762v127l612 1184h-592v119h727v-123l-614 -1188h629v-119z" />
    <glyph glyph-name="bracketleft" unicode="[" horiz-adv-x="530" 
d="M420 -287h-260v1835h260v-94h-150v-1647h150v-94z" />
    <glyph glyph-name="backslash" unicode="\" horiz-adv-x="530" 
d="M508 -14h-102l-383 1458h102z" />
    <glyph glyph-name="bracketright" unicode="]" horiz-adv-x="530" 
d="M371 -287h-260v94h149v1647h-149v94h260v-1835z" />
    <glyph glyph-name="asciicircum" unicode="^" horiz-adv-x="1228" 
d="M1139 502h-119l-406 801l-405 -801h-119l473 928h103z" />
    <glyph glyph-name="underscore" unicode="_" horiz-adv-x="1024" 
d="M1024 -256h-1024v102h1024v-102z" />
    <glyph glyph-name="grave" unicode="`" horiz-adv-x="380" 
d="M285 1200h-103l-196 291h143z" />
    <glyph glyph-name="a" unicode="a" horiz-adv-x="909" 
d="M786 0h-106l-8 150h-4q-54 -86 -123.5 -125t-167.5 -39q-123 0 -208 88t-85 217q0 68 20.5 122t51.5 88.5t78.5 60t89.5 38t97.5 19.5t89 8.5t77.5 1.5h76v24q0 161 -53 228t-165 67q-130 0 -262 -106l-18 125q93 54 156 73t131 19q156 0 238.5 -86t82.5 -252v-502
q0 -64 12 -219zM664 395v131q-97 0 -148 -2t-119.5 -14t-102 -36t-58.5 -70t-25 -113q0 -81 54.5 -138t137.5 -57q115 0 188 80.5t73 218.5z" />
    <glyph glyph-name="b" unicode="b" 
d="M233 0h-110q0 3 2 46t4 105.5t2 112.5v1272h119v-627h4q50 75 112 112.5t152 37.5q109 0 189.5 -71t118.5 -182.5t38 -246.5q0 -281 -90.5 -427t-261.5 -146q-87 0 -149.5 36t-124.5 121h-5v-143zM500 96q115 0 176 106.5t61 319.5q0 426 -241 426q-52 0 -93.5 -18
t-67.5 -44t-44.5 -68t-28 -76.5t-14.5 -85t-5.5 -77t-0.5 -67.5q0 -204 65 -310t193 -106z" />
    <glyph glyph-name="c" unicode="c" horiz-adv-x="757" 
d="M711 160l10 -135q-86 -39 -203 -39q-190 0 -312 144.5t-122 387.5q0 257 114 399t318 142q103 0 195 -37l-6 -135q-29 25 -82 39t-107 14q-140 0 -222.5 -101t-82.5 -286q0 -216 89 -332.5t235 -116.5q50 0 101 15.5t75 40.5z" />
    <glyph glyph-name="d" unicode="d" 
d="M825 0h-110v143h-4q-66 -87 -127.5 -122t-147.5 -35q-171 0 -261.5 146t-90.5 427q0 136 38.5 247.5t118.5 182t189 70.5q96 0 159 -37t105 -113h4v627h119v-1190q0 -156 8 -346zM449 96q128 0 193 106t65 310q0 44 -1.5 77.5t-7 81.5t-15.5 83.5t-29 74t-45.5 63
t-66.5 40.5t-91 16q-240 0 -240 -426q0 -213 61.5 -319.5t176.5 -106.5z" />
    <glyph glyph-name="e" unicode="e" horiz-adv-x="872" 
d="M731 182l6 -137q-104 -59 -243 -59q-199 0 -304.5 136t-105.5 402q0 110 21 200t56 151.5t83 103.5t101 61t110 19q73 0 129 -23.5t91.5 -68.5t59 -97t34.5 -122.5t15 -130t4 -134.5h-577q0 -188 77 -287.5t218 -99.5q52 0 117.5 24.5t107.5 61.5zM211 594h451
q0 165 -57 259.5t-156 94.5t-167 -104t-71 -250z" />
    <glyph glyph-name="f" unicode="f" horiz-adv-x="530" 
d="M311 0h-118v934h-162v110h162v232q0 146 62.5 215.5t193.5 69.5q47 0 90 -11v-118q-47 18 -95 18q-66 0 -99.5 -41.5t-33.5 -112.5v-252h185v-110h-185v-934z" />
    <glyph glyph-name="g" unicode="g" 
d="M698 -8v151h-4q-48 -81 -110.5 -119t-153.5 -38q-107 0 -187 69.5t-119.5 181t-39.5 246.5q0 283 90.5 429.5t261.5 146.5q95 0 160.5 -41.5t114.5 -126.5h4v153h110q0 -1 -2 -56t-4 -129.5t-2 -121.5v-723q0 -229 -97.5 -349t-293.5 -120q-72 0 -119 10t-178 48l8 133
q62 -36 143 -58t146 -22q133 0 202.5 87t69.5 249zM451 96q131 0 193.5 105t62.5 334q0 202 -65 307.5t-193 105.5q-238 0 -238 -428q0 -208 61 -316t179 -108z" />
    <glyph glyph-name="h" unicode="h" 
d="M809 0h-119v713q0 122 -48 178.5t-144 56.5q-109 0 -174.5 -87t-65.5 -212v-649h-119v1536h119v-645h4q37 80 104.5 124t153.5 44q143 0 216 -91t73 -261v-707z" />
    <glyph glyph-name="i" unicode="i" horiz-adv-x="417" 
d="M281 1276h-144v184h144v-184zM268 0h-118v1044h118v-1044z" />
    <glyph glyph-name="j" unicode="j" horiz-adv-x="417" 
d="M281 1276h-144v184h144v-184zM-18 -442v118q24 -12 55 -12q27 0 44 4t34.5 17t26 42.5t8.5 75.5v1241h118v-1224q0 -44 -3 -76.5t-15.5 -72.5t-33.5 -65.5t-60.5 -43t-94.5 -17.5q-38 0 -79 13z" />
    <glyph glyph-name="k" unicode="k" horiz-adv-x="872" 
d="M850 0h-160l-424 530h-4v-530h-119v1536h119v-911l395 419h152l-442 -462z" />
    <glyph glyph-name="l" unicode="l" horiz-adv-x="417" 
d="M268 0h-118v1536h118v-1536z" />
    <glyph glyph-name="m" unicode="m" horiz-adv-x="1404" 
d="M1266 0h-119v713q0 235 -166 235q-103 0 -161 -76.5t-58 -197.5v-674h-119v733q0 96 -42 155.5t-116 59.5q-98 0 -162.5 -87t-64.5 -212v-649h-119v721q1 51 -3.5 175t-4.5 148h111q4 -26 8 -153h4q35 80 99 124t145 44q88 0 146 -39.5t91 -128.5q105 168 260 168
q131 0 201 -89.5t70 -242.5v-727z" />
    <glyph glyph-name="n" unicode="n" 
d="M809 0h-119v713q0 235 -194 235q-105 0 -171.5 -87t-66.5 -206v-655h-119v723q0 53 -4 175t-4 146h111q4 -35 8 -153h4q85 168 266 168q60 0 107.5 -17.5t77 -42t51 -62t31.5 -67t15.5 -69.5t6 -56t0.5 -38v-707z" />
    <glyph glyph-name="o" unicode="o" horiz-adv-x="950" 
d="M475 -14q-190 0 -290.5 139t-100.5 397q0 254 100.5 395.5t290.5 141.5t290.5 -141.5t100.5 -395.5q0 -258 -100.5 -397t-290.5 -139zM475 96q129 0 196.5 108t67.5 318t-68 318t-198 108q-126 0 -194 -107.5t-68 -318.5q0 -213 67.5 -319.5t196.5 -106.5z" />
    <glyph glyph-name="p" unicode="p" 
d="M250 -442h-119v1179q0 117 -8 307h110v-153h5q56 85 121 126.5t153 41.5q70 0 127.5 -25t93 -62.5t62 -90.5t39.5 -99t20.5 -99t8.5 -78.5t1 -49.5q0 -118 -20 -218t-60.5 -180t-108.5 -125.5t-157 -45.5q-184 0 -264 145h-4v-573zM498 96q239 0 239 424q0 428 -239 428
q-124 0 -190 -104t-66 -312q0 -124 17.5 -210t52 -135t79.5 -70t107 -21z" />
    <glyph glyph-name="q" unicode="q" 
d="M817 -442h-119v585h-4q-48 -81 -110.5 -119t-153.5 -38q-75 0 -135.5 32.5t-99 84t-64.5 119t-36.5 132.5t-10.5 129q0 44 1.5 83t9.5 100.5t21.5 111t40 104.5t62.5 91.5t92 61t125 24.5q95 0 160.5 -41.5t114.5 -126.5h4v153h110l-4 -114q-4 -136 -4 -193v-1179z
M451 96q131 0 193.5 105t62.5 334q0 202 -65 307.5t-193 105.5q-238 0 -238 -428q0 -208 61 -316t179 -108z" />
    <glyph glyph-name="r" unicode="r" horiz-adv-x="569" 
d="M258 0h-119v741q0 15 -1 53t-3 110t-4 140h111l8 -165h4q44 91 108 135.5t164 44.5h6v-127q-143 0 -208.5 -66.5t-65.5 -199.5v-666z" />
    <glyph glyph-name="s" unicode="s" horiz-adv-x="720" 
d="M74 35l16 133q48 -31 115 -51.5t123 -20.5q80 0 136 52t56 128q0 66 -39.5 108t-161.5 103q-130 64 -180.5 123t-50.5 160q0 132 91 210.5t216 78.5q88 0 193 -31l-17 -123q-107 43 -178 43q-78 0 -128 -49t-50 -119q0 -61 28 -94.5t115 -79.5q137 -74 171 -98
q91 -64 111 -150q7 -31 7 -69q0 -138 -86.5 -220.5t-224.5 -82.5q-136 0 -262 49z" />
    <glyph glyph-name="t" unicode="t" horiz-adv-x="569" 
d="M524 119v-119q-46 -14 -135 -14q-97 0 -146.5 60.5t-49.5 172.5v715h-156v110h156v209l118 37v-246h213v-110h-213v-686q0 -79 27 -115.5t88 -36.5q53 0 98 23z" />
    <glyph glyph-name="u" unicode="u" 
d="M817 0h-110q-9 82 -9 154h-4q-27 -73 -100.5 -120.5t-165.5 -47.5q-141 0 -215 85t-74 236v737h119v-712q0 -122 48.5 -179t146.5 -57q106 0 171.5 87.5t65.5 203.5v657h119v-741q0 -17 8 -303z" />
    <glyph glyph-name="v" unicode="v" horiz-adv-x="798" 
d="M471 0h-143l-305 1044h127l247 -909h4l256 909h119z" />
    <glyph glyph-name="w" unicode="w" horiz-adv-x="1327" 
d="M1032 0h-147l-226 909h-4l-213 -909h-139l-280 1044h127l219 -917h4l211 917h151l230 -917h4l217 917h119z" />
    <glyph glyph-name="x" unicode="x" horiz-adv-x="796" 
d="M774 0h-143l-242 459l-231 -459h-135l294 563l-270 481h143l207 -389l215 389h136l-283 -489z" />
    <glyph glyph-name="y" unicode="y" horiz-adv-x="757" 
d="M78 -442l6 120q32 -22 84 -22q73 0 106 121l54 198l-308 1069h127l234 -868h4l233 868h119l-342 -1239q-10 -35 -13.5 -48t-13.5 -42.5t-16 -42t-18 -35t-22.5 -32.5t-27 -24.5t-34.5 -20t-41.5 -10.5t-50.5 -5q-40 0 -80 13z" />
    <glyph glyph-name="z" unicode="z" horiz-adv-x="757" 
d="M696 0h-635v119l500 815h-483v110h610v-118l-500 -815h508v-111z" />
    <glyph glyph-name="braceleft" unicode="{" horiz-adv-x="530" 
d="M494 -287h-99q-202 0 -202 230v391q0 139 -26 194.5t-97 55.5v94q72 0 97.5 55.5t25.5 194.5v391q0 117 50 173t154 56h97v-94h-68q-123 0 -123 -139v-447q0 -199 -131 -235v-4q131 -38 131 -236v-446q0 -140 125 -140h66v-94z" />
    <glyph glyph-name="bar" unicode="|" horiz-adv-x="454" 
d="M279 -512h-103v2048h103v-2048z" />
    <glyph glyph-name="braceright" unicode="}" horiz-adv-x="530" 
d="M135 -287h-98v94h59q68 0 99.5 35t31.5 105v446q0 199 131 236v4q-131 34 -131 235v447q0 139 -127 139h-63v94h96q205 0 205 -229v-391q0 -139 25 -194.5t98 -55.5v-94q-71 0 -97 -55t-26 -187v-399q0 -230 -203 -230z" />
    <glyph glyph-name="asciitilde" unicode="~" horiz-adv-x="1228" 
d="M1014 647l73 -74q-67 -97 -126 -136.5t-130 -39.5q-52 0 -110.5 22t-103.5 48t-103.5 48t-110.5 22q-57 0 -101 -35t-87 -113l-74 74q49 91 111 133.5t145 42.5q96 0 236 -70q135 -69 201 -69q46 0 87 32.5t93 114.5z" />
    <glyph glyph-name="uni00A0" unicode="&#xa0;" horiz-adv-x="491" 
 />
    <glyph glyph-name="exclamdown" unicode="&#xa1;" horiz-adv-x="720" 
d="M436 860h-151v184h151v-184zM436 -385h-151l20 1077h111z" />
    <glyph glyph-name="cent" unicode="&#xa2;" horiz-adv-x="983" 
d="M506 -262h-86l41 268q-148 44 -229.5 179t-81.5 333q0 256 111.5 398.5t326.5 142.5h30l35 229h86l-37 -239q45 -9 74 -27l-8 -135q-42 30 -86 41l-119 -819q5 -1 18 -3t19 -2q49 0 103 15.5t73 40.5l10 -135q-23 -18 -83 -28.5t-119 -10.5l-41 2zM479 131l121 809h-10
q-148 0 -231 -102t-83 -285q0 -164 52.5 -272.5t150.5 -149.5z" />
    <glyph glyph-name="sterling" unicode="&#xa3;" horiz-adv-x="983" 
d="M877 0h-748v119h145v588h-145v110h145v115q0 125 14.5 197t47.5 131q40 72 124 128t202 56q67 0 133 -15.5t102 -37.5l-20 -129q-36 29 -94.5 46t-114.5 17q-125 0 -196 -88t-71 -252v-168h328v-110h-328v-588h476v-119z" />
    <glyph glyph-name="currency" unicode="&#xa4;" horiz-adv-x="983" 
d="M866 272l-98 99q-123 -99 -276 -99q-158 0 -277 99l-98 -99l-68 68l96 100q-96 116 -96 275q0 158 96 274l-96 101l68 67l98 -98q119 98 277 98q157 0 276 -98l98 98l68 -67l-96 -101q96 -116 96 -274q0 -159 -96 -275l96 -100zM831 715q0 142 -99 241t-243 99
q-139 0 -238 -98.5t-99 -241.5t100 -241.5t240 -98.5q139 0 239 100t100 240z" />
    <glyph glyph-name="yen" unicode="&#xa5;" horiz-adv-x="983" 
d="M555 0h-127v315h-264v86h264v187h-264v86h239l-335 756h135l289 -695l288 695h135l-335 -756h239v-86h-264v-187h264v-86h-264v-315z" />
    <glyph glyph-name="brokenbar" unicode="&#xa6;" horiz-adv-x="454" 
d="M279 666h-103v716h103v-716zM279 -358h-103v716h103v-716z" />
    <glyph glyph-name="section" unicode="&#xa7;" horiz-adv-x="983" 
d="M162 -193l22 136q56 -39 129 -64.5t129 -25.5q100 0 167 54.5t67 145.5q0 68 -40.5 117t-154.5 109q-79 42 -135.5 83.5t-85.5 73t-45 68t-19 58.5t-3 54q0 169 172 295q-75 45 -106.5 102.5t-31.5 131.5q0 123 91 211t237 88q119 0 236 -55l-21 -127q-96 44 -127.5 53.5
t-81.5 9.5q-95 0 -151 -46.5t-56 -119.5q0 -70 43.5 -116t182.5 -134q142 -91 191.5 -154t49.5 -165q0 -167 -151 -287q133 -105 133 -250q0 -134 -98.5 -226.5t-262.5 -92.5q-118 0 -280 73zM438 856q-67 -54 -97 -104.5t-30 -110.5q0 -83 68.5 -147.5t218.5 -137.5
q61 73 82.5 119.5t21.5 102.5q0 145 -264 278z" />
    <glyph glyph-name="dieresis" unicode="&#xa8;" horiz-adv-x="380" 
d="M96 1257h-119v201h119v-201zM403 1257h-118v201h118v-201z" />
    <glyph glyph-name="copyright" unicode="&#xa9;" horiz-adv-x="1638" 
d="M819 -14q-200 0 -368 98.5t-264.5 266t-96.5 364.5q0 198 98 366t266 265.5t365 97.5q200 0 368 -98.5t264.5 -266t96.5 -364.5q0 -198 -98 -366t-266 -265.5t-365 -97.5zM819 80q126 0 242 50t200.5 134.5t134.5 202.5t50 248q0 173 -83 319t-228 231t-318 85
q-127 0 -242.5 -50t-199 -135t-133 -202.5t-49.5 -247.5q0 -129 48.5 -246t131.5 -202.5t199.5 -136t246.5 -50.5zM1087 569h103q-35 -140 -133.5 -221.5t-229.5 -81.5q-184 0 -301.5 127.5t-117.5 321.5q0 205 114 326.5t305 121.5q144 0 243.5 -80t119.5 -215h-103
q-20 93 -89 147t-171 54q-146 0 -231.5 -98t-85.5 -254q0 -150 89 -253.5t228 -103.5q100 0 170 55.5t90 153.5z" />
    <glyph glyph-name="ordfeminine" unicode="&#xaa;" horiz-adv-x="591" 
d="M526 811h-84l-6 90h-4q-64 -98 -176 -98q-89 0 -151 50.5t-62 127.5q0 103 78.5 155t265.5 52h45v12q0 90 -35 128t-106 38q-45 0 -93.5 -20t-76.5 -46l-12 89q65 33 102 44t90 11q104 0 160.5 -51t56.5 -150v-334zM432 1067v51q-139 0 -185 -9q-109 -24 -110 -114
q0 -46 35 -80t88 -34q78 0 125 45.5t47 140.5z" />
    <glyph glyph-name="guillemotleft" unicode="&#xab;" horiz-adv-x="983" 
d="M522 111h-110l-236 430l238 413h108l-219 -413zM807 111h-111l-235 430l235 413h111l-219 -413z" />
    <glyph glyph-name="logicalnot" unicode="&#xac;" horiz-adv-x="1228" 
d="M1133 221h-103v445h-934v102h1037v-547z" />
    <glyph glyph-name="uni00AD" unicode="&#xad;" horiz-adv-x="606" 
d="M512 512h-418v119h418v-119z" />
    <glyph glyph-name="registered" unicode="&#xae;" horiz-adv-x="1638" 
d="M819 -14q-197 0 -364.5 96.5t-266 264.5t-98.5 368q0 202 99.5 370t267 263.5t362.5 95.5q197 0 364.5 -96.5t266 -264.5t98.5 -368q0 -199 -98 -367t-265.5 -265t-365.5 -97zM819 80q169 0 313 83.5t229 230t85 321.5q0 130 -50 248t-134.5 202.5t-200.5 134.5t-244 50
q-124 0 -239 -49t-199.5 -133t-135 -202.5t-50.5 -250.5q0 -174 84 -320.5t228 -230.5t314 -84zM1163 297h-110l-246 371h-178v-371h-94v836h329q262 0 262 -232q0 -95 -52.5 -154.5t-155.5 -78.5zM629 754h223q87 0 133.5 36.5t46.5 110.5q0 72 -49.5 109t-138.5 37h-215
v-293z" />
    <glyph glyph-name="macron" unicode="&#xaf;" horiz-adv-x="380" 
d="M434 1298h-487v95h487v-95z" />
    <glyph glyph-name="degree" unicode="&#xb0;" horiz-adv-x="819" 
d="M410 850q-122 0 -209.5 86.5t-87.5 210.5t87.5 210.5t209.5 86.5q120 0 208.5 -85.5t88.5 -211.5q0 -124 -87.5 -210.5t-209.5 -86.5zM612 1147q0 86 -59.5 144.5t-142.5 58.5t-143 -58.5t-60 -144.5t60 -144.5t143 -58.5q85 0 143.5 59t58.5 144z" />
    <glyph glyph-name="plusminus" unicode="&#xb1;" horiz-adv-x="1228" 
d="M1133 561h-467v-373h-103v373h-467v103h467v372h103v-372h467v-103zM1133 0h-1037v102h1037v-102z" />
    <glyph glyph-name="twosuperior" unicode="&#xb2;" horiz-adv-x="638" 
d="M553 877h-467v75l70 80q7 9 39 44.5t52.5 59.5t53.5 65.5t55.5 76.5t44.5 76t33.5 81t11.5 76q0 146 -139 146q-40 0 -90.5 -18.5t-85.5 -49.5l-12 99q72 55 196 55q108 0 171 -62.5t63 -162.5q0 -90 -66.5 -206.5t-169.5 -228.5l-108 -120h348v-86z" />
    <glyph glyph-name="threesuperior" unicode="&#xb3;" horiz-adv-x="638" 
d="M80 903l6 96q88 -45 164 -45q93 0 150 46.5t57 123.5q0 71 -56 113.5t-145 42.5h-76v86q269 0 269 150q0 63 -47 102t-132 39q-78 0 -153 -49l-6 94q24 17 80 29t92 12q124 0 196 -62.5t72 -154.5q0 -150 -166 -193v-4q78 -13 126 -73t48 -142q0 -122 -79 -184t-230 -62
q-102 0 -170 35z" />
    <glyph glyph-name="acute" unicode="&#xb4;" horiz-adv-x="380" 
d="M199 1200h-103l156 291h143z" />
    <glyph glyph-name="mu" unicode="&#xb5;" horiz-adv-x="1003" 
d="M938 102l4 -102q-36 -12 -74 -12q-80 0 -108.5 51.5t-34.5 181.5h-4q-80 -233 -270 -233q-122 0 -181 94h-4q8 -228 8 -258v-250h-127v1466h127v-538q0 -64 2 -108t8.5 -95t20 -83.5t34.5 -61.5t54.5 -42.5t77.5 -13.5q80 0 135 61.5t78 156t23 214.5v510h127v-815
q0 -70 12.5 -100.5t50.5 -30.5q17 0 41 8z" />
    <glyph glyph-name="paragraph" unicode="&#xb6;" horiz-adv-x="983" 
d="M881 -252h-103v1587h-205v-1587h-102v920q-179 6 -294.5 112t-115.5 262q0 184 116.5 286t316.5 102h387v-1682z" />
    <glyph glyph-name="periodcentered" unicode="&#xb7;" horiz-adv-x="491" 
d="M246 518q-45 0 -79 33t-34 80q0 46 34 79t79 33q47 0 79.5 -33.5t32.5 -78.5t-33 -79t-79 -34z" />
    <glyph glyph-name="cedilla" unicode="&#xb8;" horiz-adv-x="380" 
d="M0 -377l20 58q79 -29 136 -29q129 0 129 94q0 38 -29.5 62t-71.5 24q-34 0 -94 -27l-27 29l117 166h74l-88 -113l4 -4q42 11 61 11q72 0 118 -38.5t46 -99.5q0 -77 -60 -121.5t-161 -44.5q-117 0 -174 33z" />
    <glyph glyph-name="onesuperior" unicode="&#xb9;" horiz-adv-x="638" 
d="M383 877h-94v763l-121 -129l-45 74l166 158h94v-866z" />
    <glyph glyph-name="ordmasculine" unicode="&#xba;" horiz-adv-x="638" 
d="M319 803q-130 0 -198 82.5t-68 238.5q0 155 68 237.5t198 82.5t198.5 -83t68.5 -237q0 -155 -68.5 -238t-198.5 -83zM319 881q82 0 127.5 63.5t45.5 179.5t-44.5 179t-130.5 63q-80 0 -125 -63t-45 -179q0 -119 43.5 -181t128.5 -62z" />
    <glyph glyph-name="guillemotright" unicode="&#xbb;" horiz-adv-x="983" 
d="M287 111h-111l219 413l-219 430h111l235 -430zM571 111h-110l219 413l-219 430h110l236 -430z" />
    <glyph glyph-name="onequarter" unicode="&#xbc;" horiz-adv-x="1476" 
d="M383 575h-94v764l-121 -129l-45 74l166 158h94v-867zM1260 0h-95v197h-368v86l344 575h119v-575h94v-86h-94v-197zM1165 283v465h-4l-278 -465h282zM401 -68h-90l641 1565h90z" />
    <glyph glyph-name="onehalf" unicode="&#xbd;" horiz-adv-x="1476" 
d="M383 575h-94v764l-121 -129l-45 74l166 158h94v-867zM1354 0h-467v76l69 80q4 5 46 52.5t64.5 73.5t62 79.5t61.5 93t39.5 89.5t17.5 91q0 145 -139 145q-41 0 -91 -18t-85 -49l-12 98q72 55 196 55q108 0 171 -62.5t63 -162.5q0 -89 -66.5 -205t-169.5 -229l-108 -121
h348v-86zM426 -68h-90l641 1565h90z" />
    <glyph glyph-name="threequarters" unicode="&#xbe;" horiz-adv-x="1476" 
d="M1303 0h-95v197h-368v86l344 575h119v-575h94v-86h-94v-197zM1208 283v465h-4l-278 -465h282zM80 602l6 96q88 -45 164 -45q93 0 150 46.5t57 123.5q0 71 -56 113.5t-145 42.5h-76v86q139 0 204 37t65 112q0 64 -47 103t-132 39q-78 0 -153 -49l-6 94q24 17 80 29t92 12
q124 0 196 -62.5t72 -154.5q0 -150 -166 -193v-4q78 -13 126 -73t48 -142q0 -122 -79 -184t-230 -62q-102 0 -170 35zM475 -68h-90l641 1565h90z" />
    <glyph glyph-name="questiondown" unicode="&#xbf;" horiz-adv-x="909" 
d="M717 -213l10 -139q-112 -47 -221 -47q-175 0 -271 92.5t-96 253.5q0 94 34.5 173t143.5 236q65 93 89 160t24 178h119q-5 -142 -24.5 -208t-94.5 -171q-81 -115 -118.5 -195.5t-37.5 -160.5q0 -108 63.5 -174t166.5 -66q113 0 213 68zM573 860h-151v184h151v-184z" />
    <glyph glyph-name="Agrave" unicode="&#xc0;" horiz-adv-x="1138" 
d="M1112 0h-135l-125 393h-569l-129 -393h-127l475 1430h135zM813 512l-242 782h-4l-248 -782h494zM664 1489h-103l-196 291h143z" />
    <glyph glyph-name="Aacute" unicode="&#xc1;" horiz-adv-x="1138" 
d="M1112 0h-135l-125 393h-569l-129 -393h-127l475 1430h135zM813 512l-242 782h-4l-248 -782h494zM578 1489h-103l156 291h143z" />
    <glyph glyph-name="Acircumflex" unicode="&#xc2;" horiz-adv-x="1138" 
d="M1112 0h-135l-125 393h-569l-129 -393h-127l475 1430h135zM813 512l-242 782h-4l-248 -782h494zM827 1489h-118l-140 209l-139 -209h-119l199 291h119z" />
    <glyph glyph-name="Atilde" unicode="&#xc3;" horiz-adv-x="1138" 
d="M1112 0h-135l-125 393h-569l-129 -393h-127l475 1430h135zM813 512l-242 782h-4l-248 -782h494zM758 1741h86q-5 -86 -47.5 -144.5t-110.5 -58.5q-43 0 -84 22.5t-75.5 45t-61.5 22.5q-33 0 -56 -30t-28 -70h-86q6 93 51 148t119 55q37 0 81 -22.5t81.5 -45.5t58.5 -23
q27 0 49.5 27.5t22.5 73.5z" />
    <glyph glyph-name="Adieresis" unicode="&#xc4;" horiz-adv-x="1138" 
d="M1112 0h-135l-125 393h-569l-129 -393h-127l475 1430h135zM813 512l-242 782h-4l-248 -782h494zM475 1546h-119v201h119v-201zM782 1546h-118v201h118v-201z" />
    <glyph glyph-name="Aring" unicode="&#xc5;" horiz-adv-x="1138" 
d="M1112 0h-135l-125 393h-569l-129 -393h-127l475 1430h135zM813 512l-242 782h-4l-248 -782h494zM569 1473q-85 0 -141.5 56.5t-56.5 141.5t56.5 142t141.5 57t142 -57t57 -142t-57 -141.5t-142 -56.5zM698 1671q0 54 -38 91.5t-93 37.5q-51 0 -89 -38t-38 -91
q0 -54 37 -91.5t92 -37.5q54 0 91.5 37.5t37.5 91.5z" />
    <glyph glyph-name="AE" unicode="&#xc6;" horiz-adv-x="1554" 
d="M1438 0h-604v393h-463l-201 -393h-143l731 1430h657v-119h-454v-508h432v-119h-432v-565h477v-119zM834 512v815h-5l-401 -815h406z" />
    <glyph glyph-name="Ccedilla" unicode="&#xc7;" horiz-adv-x="1099" 
d="M459 -377l20 58q84 -29 135 -29q129 0 129 94q0 39 -29.5 62.5t-70.5 23.5q-34 0 -94 -27l-27 29l111 158q-130 16 -231.5 82.5t-162 168.5t-91.5 223.5t-31 256.5q0 113 21 215.5t68.5 195.5t117.5 161.5t174 108.5t231 40q139 0 242 -47l-6 -144q-38 31 -108.5 51.5
t-133.5 20.5q-32 0 -66 -4.5t-81.5 -20.5t-90.5 -42t-86.5 -73t-75 -108t-51.5 -153.5t-20 -204.5q0 -136 31 -245t79 -176.5t111.5 -112.5t124.5 -63t121 -18q63 0 116.5 13.5t125.5 50.5l6 -137q-112 -45 -265 -45l-77 -99l4 -4q42 11 61 11q72 0 118 -38.5t46 -99.5
q0 -77 -60.5 -121.5t-160.5 -44.5q-117 0 -174 33z" />
    <glyph glyph-name="Egrave" unicode="&#xc8;" horiz-adv-x="909" 
d="M793 0h-629v1430h606v-119h-479v-508h457v-119h-457v-565h502v-119zM590 1489h-103l-196 291h143z" />
    <glyph glyph-name="Eacute" unicode="&#xc9;" horiz-adv-x="909" 
d="M793 0h-629v1430h606v-119h-479v-508h457v-119h-457v-565h502v-119zM504 1489h-103l156 291h143z" />
    <glyph glyph-name="Ecircumflex" unicode="&#xca;" horiz-adv-x="909" 
d="M793 0h-629v1430h606v-119h-479v-508h457v-119h-457v-565h502v-119zM754 1489h-119l-139 209l-140 -209h-118l198 291h119z" />
    <glyph glyph-name="Edieresis" unicode="&#xcb;" horiz-adv-x="909" 
d="M793 0h-629v1430h606v-119h-479v-508h457v-119h-457v-565h502v-119zM401 1546h-118v201h118v-201zM709 1546h-119v201h119v-201z" />
    <glyph glyph-name="Igrave" unicode="&#xcc;" horiz-adv-x="454" 
d="M291 0h-127v1430h127v-1430zM322 1489h-103l-196 291h143z" />
    <glyph glyph-name="Iacute" unicode="&#xcd;" horiz-adv-x="454" 
d="M291 0h-127v1430h127v-1430zM236 1489h-103l156 291h143z" />
    <glyph glyph-name="Icircumflex" unicode="&#xce;" horiz-adv-x="454" 
d="M291 0h-127v1430h127v-1430zM485 1489h-118l-140 209l-139 -209h-119l199 291h119z" />
    <glyph glyph-name="Idieresis" unicode="&#xcf;" horiz-adv-x="454" 
d="M291 0h-127v1430h127v-1430zM133 1546h-119v201h119v-201zM440 1546h-118v201h118v-201z" />
    <glyph glyph-name="Eth" unicode="&#xd0;" horiz-adv-x="1138" 
d="M395 0h-231v698h-139v86h139v646h192q693 0 693 -695q0 -345 -175 -540t-479 -195zM291 119h139q222 0 352.5 159.5t130.5 446.5q0 297 -126.5 441.5t-391.5 144.5h-104v-527h364v-86h-364v-579z" />
    <glyph glyph-name="Ntilde" unicode="&#xd1;" horiz-adv-x="1214" 
d="M1051 0h-164l-600 1262h-4v-1262h-119v1430h164l600 -1270h4v1270h119v-1430zM797 1741h86q-5 -86 -47.5 -144.5t-110.5 -58.5q-43 0 -84 22.5t-75.5 45t-61.5 22.5q-33 0 -56 -30t-28 -70h-86q6 93 51 148t119 55q37 0 81 -22.5t81.5 -45.5t58.5 -23q27 0 49.5 27.5
t22.5 73.5z" />
    <glyph glyph-name="Ograve" unicode="&#xd2;" horiz-adv-x="1216" 
d="M608 -14q-245 0 -374.5 188.5t-129.5 540.5q0 353 129.5 541t374.5 188t374.5 -188t129.5 -541t-129.5 -541t-374.5 -188zM608 104q178 0 273.5 155.5t95.5 455.5t-94 455t-277 155q-178 0 -272 -155.5t-94 -454.5q0 -300 94.5 -455.5t273.5 -155.5zM702 1489h-102
l-197 291h144z" />
    <glyph glyph-name="Oacute" unicode="&#xd3;" horiz-adv-x="1216" 
d="M608 -14q-245 0 -374.5 188.5t-129.5 540.5q0 353 129.5 541t374.5 188t374.5 -188t129.5 -541t-129.5 -541t-374.5 -188zM608 104q178 0 273.5 155.5t95.5 455.5t-94 455t-277 155q-178 0 -272 -155.5t-94 -454.5q0 -300 94.5 -455.5t273.5 -155.5zM616 1489h-102
l156 291h143z" />
    <glyph glyph-name="Ocircumflex" unicode="&#xd4;" horiz-adv-x="1216" 
d="M608 -14q-245 0 -374.5 188.5t-129.5 540.5q0 353 129.5 541t374.5 188t374.5 -188t129.5 -541t-129.5 -541t-374.5 -188zM608 104q178 0 273.5 155.5t95.5 455.5t-94 455t-277 155q-178 0 -272 -155.5t-94 -454.5q0 -300 94.5 -455.5t273.5 -155.5zM866 1489h-118
l-140 209l-139 -209h-119l199 291h119z" />
    <glyph glyph-name="Otilde" unicode="&#xd5;" horiz-adv-x="1216" 
d="M608 -14q-245 0 -374.5 188.5t-129.5 540.5q0 353 129.5 541t374.5 188t374.5 -188t129.5 -541t-129.5 -541t-374.5 -188zM608 104q178 0 273.5 155.5t95.5 455.5t-94 455t-277 155q-178 0 -272 -155.5t-94 -454.5q0 -300 94.5 -455.5t273.5 -155.5zM797 1741h86
q-5 -86 -47.5 -144.5t-110.5 -58.5q-43 0 -84 22.5t-75.5 45t-61.5 22.5q-33 0 -56 -30t-28 -70h-86q6 93 51 148t119 55q37 0 81 -22.5t81.5 -45.5t58.5 -23q27 0 49.5 27.5t22.5 73.5z" />
    <glyph glyph-name="Odieresis" unicode="&#xd6;" horiz-adv-x="1216" 
d="M608 -14q-245 0 -374.5 188.5t-129.5 540.5q0 353 129.5 541t374.5 188t374.5 -188t129.5 -541t-129.5 -541t-374.5 -188zM608 104q178 0 273.5 155.5t95.5 455.5t-94 455t-277 155q-178 0 -272 -155.5t-94 -454.5q0 -300 94.5 -455.5t273.5 -155.5zM514 1546h-119v201
h119v-201zM821 1546h-119v201h119v-201z" />
    <glyph glyph-name="multiply" unicode="&#xd7;" horiz-adv-x="1228" 
d="M1004 55l-390 391l-389 -391l-73 74l391 389l-389 389l71 74l389 -391l390 391l73 -74l-391 -389l391 -389z" />
    <glyph glyph-name="Oslash" unicode="&#xd8;" horiz-adv-x="1216" 
d="M76 -14l-58 47l172 217q-86 170 -86 467q0 351 129.5 539t374.5 188q242 0 375 -189l158 201l57 -49l-174 -219q88 -181 88 -473q0 -353 -129.5 -541t-374.5 -188q-249 0 -379 194zM285 371l610 774q-92 180 -289 180q-175 0 -270.5 -156.5t-95.5 -455.5q0 -220 45 -342z
M930 1067l-613 -776q96 -187 291 -187q179 0 274 155t95 458q0 223 -47 350z" />
    <glyph glyph-name="Ugrave" unicode="&#xd9;" horiz-adv-x="1175" 
d="M885 516v914h127v-916q0 -256 -107.5 -392t-316.5 -136q-214 0 -319 131.5t-105 396.5v916h127v-914q0 -214 72 -313t225 -99t225 99t72 313zM682 1489h-102l-197 291h143z" />
    <glyph glyph-name="Uacute" unicode="&#xda;" horiz-adv-x="1175" 
d="M885 516v914h127v-916q0 -256 -107.5 -392t-316.5 -136q-214 0 -319 131.5t-105 396.5v916h127v-914q0 -214 72 -313t225 -99t225 99t72 313zM596 1489h-102l155 291h144z" />
    <glyph glyph-name="Ucircumflex" unicode="&#xdb;" horiz-adv-x="1175" 
d="M885 516v914h127v-916q0 -256 -107.5 -392t-316.5 -136q-214 0 -319 131.5t-105 396.5v916h127v-914q0 -214 72 -313t225 -99t225 99t72 313zM846 1489h-119l-139 209l-139 -209h-119l198 291h119z" />
    <glyph glyph-name="Udieresis" unicode="&#xdc;" horiz-adv-x="1175" 
d="M885 516v914h127v-916q0 -256 -107.5 -392t-316.5 -136q-214 0 -319 131.5t-105 396.5v916h127v-914q0 -214 72 -313t225 -99t225 99t72 313zM494 1546h-119v201h119v-201zM801 1546h-119v201h119v-201z" />
    <glyph glyph-name="Yacute" unicode="&#xdd;" horiz-adv-x="1024" 
d="M575 0h-126v621l-361 809h135l291 -693l287 693h135l-361 -809v-621zM520 1489h-102l155 291h144z" />
    <glyph glyph-name="Thorn" unicode="&#xde;" 
d="M291 0h-127v1430h127v-308h149q209 0 318.5 -101t109.5 -302q0 -190 -109 -297t-282 -107h-186v-315zM291 434h137q156 0 230.5 69t74.5 216q0 67 -14 115.5t-48.5 88.5t-99 60.5t-159.5 20.5h-121v-570z" />
    <glyph glyph-name="germandbls" unicode="&#xdf;" 
d="M367 0l14 127q45 -23 100 -23q119 0 187.5 93.5t68.5 259.5q0 284 -336 299v118q129 0 202 81t73 219q0 133 -52 200.5t-151 67.5q-117 0 -174 -92t-57 -283v-1067h-119v1108q0 210 100 331.5t258 121.5q142 0 232 -103t90 -272q0 -139 -64.5 -235t-185.5 -122v-4
q152 -19 231.5 -121.5t79.5 -279.5q0 -199 -93.5 -318.5t-262.5 -119.5q-78 0 -141 14z" />
    <glyph glyph-name="agrave" unicode="&#xe0;" horiz-adv-x="909" 
d="M786 0h-106l-8 150h-4q-54 -86 -123.5 -125t-167.5 -39q-123 0 -208 88t-85 217q0 68 20.5 122t51.5 88.5t78.5 60t89.5 38t97.5 19.5t89 8.5t77.5 1.5h76v24q0 161 -53 228t-165 67q-130 0 -262 -106l-18 125q93 54 156 73t131 19q156 0 238.5 -86t82.5 -252v-502
q0 -64 12 -219zM664 395v131q-97 0 -148 -2t-119.5 -14t-102 -36t-58.5 -70t-25 -113q0 -81 54.5 -138t137.5 -57q115 0 188 80.5t73 218.5zM549 1200h-103l-196 291h143z" />
    <glyph glyph-name="aacute" unicode="&#xe1;" horiz-adv-x="909" 
d="M786 0h-106l-8 150h-4q-54 -86 -123.5 -125t-167.5 -39q-123 0 -208 88t-85 217q0 68 20.5 122t51.5 88.5t78.5 60t89.5 38t97.5 19.5t89 8.5t77.5 1.5h76v24q0 161 -53 228t-165 67q-130 0 -262 -106l-18 125q93 54 156 73t131 19q156 0 238.5 -86t82.5 -252v-502
q0 -64 12 -219zM664 395v131q-97 0 -148 -2t-119.5 -14t-102 -36t-58.5 -70t-25 -113q0 -81 54.5 -138t137.5 -57q115 0 188 80.5t73 218.5zM463 1200h-103l156 291h143z" />
    <glyph glyph-name="acircumflex" unicode="&#xe2;" horiz-adv-x="909" 
d="M786 0h-106l-8 150h-4q-54 -86 -123.5 -125t-167.5 -39q-123 0 -208 88t-85 217q0 68 20.5 122t51.5 88.5t78.5 60t89.5 38t97.5 19.5t89 8.5t77.5 1.5h76v24q0 161 -53 228t-165 67q-130 0 -262 -106l-18 125q93 54 156 73t131 19q156 0 238.5 -86t82.5 -252v-502
q0 -64 12 -219zM664 395v131q-97 0 -148 -2t-119.5 -14t-102 -36t-58.5 -70t-25 -113q0 -81 54.5 -138t137.5 -57q115 0 188 80.5t73 218.5zM713 1200h-119l-139 209l-140 -209h-118l198 291h119z" />
    <glyph glyph-name="atilde" unicode="&#xe3;" horiz-adv-x="909" 
d="M786 0h-106l-8 150h-4q-54 -86 -123.5 -125t-167.5 -39q-123 0 -208 88t-85 217q0 68 20.5 122t51.5 88.5t78.5 60t89.5 38t97.5 19.5t89 8.5t77.5 1.5h76v24q0 161 -53 228t-165 67q-130 0 -262 -106l-18 125q93 54 156 73t131 19q156 0 238.5 -86t82.5 -252v-502
q0 -64 12 -219zM664 395v131q-97 0 -148 -2t-119.5 -14t-102 -36t-58.5 -70t-25 -113q0 -81 54.5 -138t137.5 -57q115 0 188 80.5t73 218.5zM643 1452h86q-2 -81 -46.5 -142t-111.5 -61q-41 0 -83 22.5t-77.5 45t-60.5 22.5q-32 0 -55.5 -29t-28.5 -71h-86q6 92 51 147.5
t119 55.5q44 0 122 -45t99 -45q28 0 50 28.5t22 71.5z" />
    <glyph glyph-name="adieresis" unicode="&#xe4;" horiz-adv-x="909" 
d="M786 0h-106l-8 150h-4q-54 -86 -123.5 -125t-167.5 -39q-123 0 -208 88t-85 217q0 68 20.5 122t51.5 88.5t78.5 60t89.5 38t97.5 19.5t89 8.5t77.5 1.5h76v24q0 161 -53 228t-165 67q-130 0 -262 -106l-18 125q93 54 156 73t131 19q156 0 238.5 -86t82.5 -252v-502
q0 -64 12 -219zM664 395v131q-97 0 -148 -2t-119.5 -14t-102 -36t-58.5 -70t-25 -113q0 -81 54.5 -138t137.5 -57q115 0 188 80.5t73 218.5zM360 1257h-118v201h118v-201zM668 1257h-119v201h119v-201z" />
    <glyph glyph-name="aring" unicode="&#xe5;" horiz-adv-x="909" 
d="M786 0h-106l-8 150h-4q-54 -86 -123.5 -125t-167.5 -39q-123 0 -208 88t-85 217q0 68 20.5 122t51.5 88.5t78.5 60t89.5 38t97.5 19.5t89 8.5t77.5 1.5h76v24q0 161 -53 228t-165 67q-130 0 -262 -106l-18 125q93 54 156 73t131 19q156 0 238.5 -86t82.5 -252v-502
q0 -64 12 -219zM664 395v131q-97 0 -148 -2t-119.5 -14t-102 -36t-58.5 -70t-25 -113q0 -81 54.5 -138t137.5 -57q115 0 188 80.5t73 218.5zM455 1163q-84 0 -141.5 58.5t-57.5 140.5q0 84 58.5 141.5t140.5 57.5q84 0 141 -58t57 -141t-57 -141t-141 -58zM584 1362
q0 54 -38 91.5t-93 37.5q-51 0 -89 -37.5t-38 -91.5t37.5 -91.5t91.5 -37.5t91.5 37.5t37.5 91.5z" />
    <glyph glyph-name="ae" unicode="&#xe6;" horiz-adv-x="1402" 
d="M1249 172l8 -135q-31 -18 -109 -34.5t-132 -16.5q-253 0 -336 235h-4q-38 -116 -120 -175.5t-200 -59.5q-136 0 -208 89.5t-72 215.5q0 160 111.5 249t308.5 89h125q0 39 -0.5 61.5t-4.5 60.5t-11.5 61.5t-22 52t-35.5 45t-53.5 27.5t-73.5 11q-57 0 -107.5 -20.5
t-119.5 -71.5l-11 117q49 36 120 61t132 25q98 0 167.5 -51.5t96.5 -137.5q46 94 113 141.5t168 47.5q166 0 256.5 -135t91.5 -398h-579v-20q0 -188 74.5 -299t203.5 -111q43 0 90 15t133 61zM748 629h452q-2 150 -58.5 234.5t-160.5 84.5q-103 0 -164.5 -83t-68.5 -236z
M621 426v100q-157 0 -233 -20q-185 -48 -185 -219q0 -86 49 -138.5t127 -52.5q113 0 177.5 96.5t64.5 233.5z" />
    <glyph glyph-name="ccedilla" unicode="&#xe7;" horiz-adv-x="757" 
d="M258 -377l21 58q77 -29 135 -29q129 0 129 94q0 38 -29.5 62t-71.5 24q-30 0 -94 -27l-26 29l114 160q-167 37 -259.5 175.5t-92.5 348.5q0 255 113 398t319 143q103 0 195 -37l-6 -135q-29 25 -82 39t-107 14q-139 0 -222 -102.5t-83 -284.5q0 -216 89 -332.5
t235 -116.5q50 0 101 15.5t75 40.5l10 -135q-86 -39 -219 -39l-78 -99l4 -4q46 11 61 11q72 0 118 -38.5t46 -99.5q0 -77 -60 -121.5t-161 -44.5q-117 0 -174 33z" />
    <glyph glyph-name="egrave" unicode="&#xe8;" horiz-adv-x="872" 
d="M731 182l6 -137q-104 -59 -243 -59q-199 0 -304.5 136t-105.5 402q0 110 21 200t56 151.5t83 103.5t101 61t110 19q73 0 129 -23.5t91.5 -68.5t59 -97t34.5 -122.5t15 -130t4 -134.5h-577q0 -188 77 -287.5t218 -99.5q52 0 117.5 24.5t107.5 61.5zM211 594h451
q0 165 -57 259.5t-156 94.5t-167 -104t-71 -250zM530 1200h-102l-197 291h144z" />
    <glyph glyph-name="eacute" unicode="&#xe9;" horiz-adv-x="872" 
d="M731 182l6 -137q-104 -59 -243 -59q-199 0 -304.5 136t-105.5 402q0 110 21 200t56 151.5t83 103.5t101 61t110 19q73 0 129 -23.5t91.5 -68.5t59 -97t34.5 -122.5t15 -130t4 -134.5h-577q0 -188 77 -287.5t218 -99.5q52 0 117.5 24.5t107.5 61.5zM211 594h451
q0 165 -57 259.5t-156 94.5t-167 -104t-71 -250zM444 1200h-102l156 291h143z" />
    <glyph glyph-name="ecircumflex" unicode="&#xea;" horiz-adv-x="872" 
d="M731 182l6 -137q-104 -59 -243 -59q-199 0 -304.5 136t-105.5 402q0 110 21 200t56 151.5t83 103.5t101 61t110 19q73 0 129 -23.5t91.5 -68.5t59 -97t34.5 -122.5t15 -130t4 -134.5h-577q0 -188 77 -287.5t218 -99.5q52 0 117.5 24.5t107.5 61.5zM211 594h451
q0 165 -57 259.5t-156 94.5t-167 -104t-71 -250zM694 1200h-119l-139 209l-139 -209h-119l199 291h119z" />
    <glyph glyph-name="edieresis" unicode="&#xeb;" horiz-adv-x="872" 
d="M731 182l6 -137q-104 -59 -243 -59q-199 0 -304.5 136t-105.5 402q0 110 21 200t56 151.5t83 103.5t101 61t110 19q73 0 129 -23.5t91.5 -68.5t59 -97t34.5 -122.5t15 -130t4 -134.5h-577q0 -188 77 -287.5t218 -99.5q52 0 117.5 24.5t107.5 61.5zM211 594h451
q0 165 -57 259.5t-156 94.5t-167 -104t-71 -250zM342 1257h-119v201h119v-201zM649 1257h-119v201h119v-201z" />
    <glyph glyph-name="igrave" unicode="&#xec;" horiz-adv-x="417" 
d="M268 0h-118v1044h118v-1044zM303 1200h-102l-197 291h143z" />
    <glyph glyph-name="iacute" unicode="&#xed;" horiz-adv-x="417" 
d="M268 0h-118v1044h118v-1044zM217 1200h-102l155 291h144z" />
    <glyph glyph-name="icircumflex" unicode="&#xee;" horiz-adv-x="417" 
d="M268 0h-118v1044h118v-1044zM467 1200h-119l-139 209l-139 -209h-119l199 291h118z" />
    <glyph glyph-name="idieresis" unicode="&#xef;" horiz-adv-x="417" 
d="M268 0h-118v1044h118v-1044zM115 1257h-119v201h119v-201zM422 1257h-119v201h119v-201z" />
    <glyph glyph-name="eth" unicode="&#xf0;" horiz-adv-x="950" 
d="M709 922l4 4q-60 235 -271 409l-200 -129l-62 54l195 124q-108 75 -223 107l69 70q139 -51 242 -121l188 121l62 -54l-187 -118q163 -130 251.5 -329.5t88.5 -443.5q0 -316 -96 -473t-295 -157q-188 0 -289.5 136t-101.5 372q0 258 100.5 397t290.5 139q144 0 234 -108z
M475 96q127 0 195.5 104.5t68.5 295.5q0 207 -68 315.5t-198 108.5q-126 0 -194 -108t-68 -316q0 -190 68.5 -295t195.5 -105z" />
    <glyph glyph-name="ntilde" unicode="&#xf1;" 
d="M809 0h-119v713q0 235 -194 235q-105 0 -171.5 -87t-66.5 -206v-655h-119v723q0 53 -4 175t-4 146h111q4 -35 8 -153h4q85 168 266 168q60 0 107.5 -17.5t77 -42t51 -62t31.5 -67t15.5 -69.5t6 -56t0.5 -38v-707zM664 1452h86q-2 -81 -46.5 -142t-111.5 -61
q-41 0 -83 22.5t-77.5 45t-60.5 22.5q-32 0 -55.5 -29t-28.5 -71h-86q6 92 51 147.5t119 55.5q44 0 122 -45t99 -45q28 0 50 28.5t22 71.5z" />
    <glyph glyph-name="ograve" unicode="&#xf2;" horiz-adv-x="950" 
d="M475 -14q-190 0 -290.5 139t-100.5 397q0 254 100.5 395.5t290.5 141.5t290.5 -141.5t100.5 -395.5q0 -258 -100.5 -397t-290.5 -139zM475 96q129 0 196.5 108t67.5 318t-68 318t-198 108q-126 0 -194 -107.5t-68 -318.5q0 -213 67.5 -319.5t196.5 -106.5zM569 1200h-102
l-197 291h144z" />
    <glyph glyph-name="oacute" unicode="&#xf3;" horiz-adv-x="950" 
d="M475 -14q-190 0 -290.5 139t-100.5 397q0 254 100.5 395.5t290.5 141.5t290.5 -141.5t100.5 -395.5q0 -258 -100.5 -397t-290.5 -139zM475 96q129 0 196.5 108t67.5 318t-68 318t-198 108q-126 0 -194 -107.5t-68 -318.5q0 -213 67.5 -319.5t196.5 -106.5zM483 1200h-102
l156 291h143z" />
    <glyph glyph-name="ocircumflex" unicode="&#xf4;" horiz-adv-x="950" 
d="M475 -14q-190 0 -290.5 139t-100.5 397q0 254 100.5 395.5t290.5 141.5t290.5 -141.5t100.5 -395.5q0 -258 -100.5 -397t-290.5 -139zM475 96q129 0 196.5 108t67.5 318t-68 318t-198 108q-126 0 -194 -107.5t-68 -318.5q0 -213 67.5 -319.5t196.5 -106.5zM733 1200h-119
l-139 209l-139 -209h-119l199 291h119z" />
    <glyph glyph-name="otilde" unicode="&#xf5;" horiz-adv-x="950" 
d="M475 -14q-190 0 -290.5 139t-100.5 397q0 254 100.5 395.5t290.5 141.5t290.5 -141.5t100.5 -395.5q0 -258 -100.5 -397t-290.5 -139zM475 96q129 0 196.5 108t67.5 318t-68 318t-198 108q-126 0 -194 -107.5t-68 -318.5q0 -213 67.5 -319.5t196.5 -106.5zM664 1452h86
q-2 -81 -46.5 -142t-111.5 -61q-41 0 -83 22.5t-77.5 45t-60.5 22.5q-32 0 -55.5 -29t-28.5 -71h-86q6 92 51 147.5t119 55.5q44 0 122 -45t99 -45q28 0 50 28.5t22 71.5z" />
    <glyph glyph-name="odieresis" unicode="&#xf6;" horiz-adv-x="950" 
d="M475 -14q-190 0 -290.5 139t-100.5 397q0 254 100.5 395.5t290.5 141.5t290.5 -141.5t100.5 -395.5q0 -258 -100.5 -397t-290.5 -139zM475 96q129 0 196.5 108t67.5 318t-68 318t-198 108q-126 0 -194 -107.5t-68 -318.5q0 -213 67.5 -319.5t196.5 -106.5zM381 1257h-119
v201h119v-201zM688 1257h-119v201h119v-201z" />
    <glyph glyph-name="divide" unicode="&#xf7;" horiz-adv-x="1228" 
d="M614 825q-46 0 -79 34t-33 79t33 79t79 34q44 0 78.5 -34.5t34.5 -78.5t-34.5 -78.5t-78.5 -34.5zM1133 467h-1037v102h1037v-102zM614 -14q-47 0 -79.5 32.5t-32.5 79.5q0 45 33 79t79 34q44 0 78.5 -34.5t34.5 -78.5q0 -46 -34 -79t-79 -33z" />
    <glyph glyph-name="oslash" unicode="&#xf8;" 
d="M86 -14l-53 43l121 153q-70 135 -70 340q0 253 101 395t290 142q179 0 275 -121l94 121l53 -45l-106 -135q75 -132 75 -357q0 -258 -100.5 -397t-290.5 -139q-180 0 -282 133zM240 293l432 547q-67 108 -199 108q-126 0 -194 -107.5t-68 -318.5q0 -129 29 -229zM705 770
l-435 -551q67 -123 205 -123q129 0 196.5 106.5t67.5 319.5q0 161 -34 248z" />
    <glyph glyph-name="ugrave" unicode="&#xf9;" 
d="M817 0h-110q-9 82 -9 154h-4q-27 -73 -100.5 -120.5t-165.5 -47.5q-141 0 -215 85t-74 236v737h119v-712q0 -122 48.5 -179t146.5 -57q106 0 171.5 87.5t65.5 203.5v657h119v-741q0 -17 8 -303zM569 1200h-102l-197 291h144z" />
    <glyph glyph-name="uacute" unicode="&#xfa;" 
d="M817 0h-110q-9 82 -9 154h-4q-27 -73 -100.5 -120.5t-165.5 -47.5q-141 0 -215 85t-74 236v737h119v-712q0 -122 48.5 -179t146.5 -57q106 0 171.5 87.5t65.5 203.5v657h119v-741q0 -17 8 -303zM483 1200h-102l156 291h143z" />
    <glyph glyph-name="ucircumflex" unicode="&#xfb;" 
d="M817 0h-110q-9 82 -9 154h-4q-27 -73 -100.5 -120.5t-165.5 -47.5q-141 0 -215 85t-74 236v737h119v-712q0 -122 48.5 -179t146.5 -57q106 0 171.5 87.5t65.5 203.5v657h119v-741q0 -17 8 -303zM733 1200h-119l-139 209l-139 -209h-119l199 291h119z" />
    <glyph glyph-name="udieresis" unicode="&#xfc;" 
d="M817 0h-110q-9 82 -9 154h-4q-27 -73 -100.5 -120.5t-165.5 -47.5q-141 0 -215 85t-74 236v737h119v-712q0 -122 48.5 -179t146.5 -57q106 0 171.5 87.5t65.5 203.5v657h119v-741q0 -17 8 -303zM381 1257h-119v201h119v-201zM688 1257h-119v201h119v-201z" />
    <glyph glyph-name="yacute" unicode="&#xfd;" horiz-adv-x="757" 
d="M78 -442l6 120q32 -22 84 -22q73 0 106 121l54 198l-308 1069h127l234 -868h4l233 868h119l-342 -1239q-10 -35 -13.5 -48t-13.5 -42.5t-16 -42t-18 -35t-22.5 -32.5t-27 -24.5t-34.5 -20t-41.5 -10.5t-50.5 -5q-40 0 -80 13zM387 1200h-102l155 291h144z" />
    <glyph glyph-name="thorn" unicode="&#xfe;" 
d="M250 -442h-119v1671q0 119 -8 307h127v-627h4q92 150 258 150q114 0 195 -68t119 -179.5t38 -256.5q0 -260 -90 -414.5t-256 -154.5q-184 0 -264 145h-4v-573zM498 96q239 0 239 424q0 428 -239 428q-124 0 -190 -104t-66 -312q0 -123 17 -208.5t51 -135t79.5 -71
t108.5 -21.5z" />
    <glyph glyph-name="ydieresis" unicode="&#xff;" horiz-adv-x="757" 
d="M78 -442l6 120q32 -22 84 -22q73 0 106 121l54 198l-308 1069h127l234 -868h4l233 868h119l-342 -1239q-10 -35 -13.5 -48t-13.5 -42.5t-16 -42t-18 -35t-22.5 -32.5t-27 -24.5t-34.5 -20t-41.5 -10.5t-50.5 -5q-40 0 -80 13zM285 1257h-119v201h119v-201zM592 1257h-119
v201h119v-201z" />
    <glyph glyph-name="Amacron" unicode="&#x100;" horiz-adv-x="1138" 
d="M1112 0h-135l-125 393h-569l-129 -393h-127l475 1430h135zM813 512l-242 782h-4l-248 -782h494zM813 1587h-487v94h487v-94z" />
    <glyph glyph-name="amacron" unicode="&#x101;" horiz-adv-x="909" 
d="M786 0h-106l-8 150h-4q-54 -86 -123.5 -125t-167.5 -39q-123 0 -208 88t-85 217q0 68 20.5 122t51.5 88.5t78.5 60t89.5 38t97.5 19.5t89 8.5t77.5 1.5h76v24q0 161 -53 228t-165 67q-130 0 -262 -106l-18 125q93 54 156 73t131 19q156 0 238.5 -86t82.5 -252v-502
q0 -64 12 -219zM664 395v131q-97 0 -148 -2t-119.5 -14t-102 -36t-58.5 -70t-25 -113q0 -81 54.5 -138t137.5 -57q115 0 188 80.5t73 218.5zM700 1298h-487v95h487v-95z" />
    <glyph glyph-name="Abreve" unicode="&#x102;" horiz-adv-x="1138" 
d="M1112 0h-135l-125 393h-569l-129 -393h-127l475 1430h135zM813 512l-242 782h-4l-248 -782h494zM733 1739h82q-8 -114 -72.5 -182t-171.5 -68q-104 0 -170 67.5t-73 182.5h82q7 -73 51.5 -114.5t109.5 -41.5t108.5 40t53.5 116z" />
    <glyph glyph-name="abreve" unicode="&#x103;" horiz-adv-x="909" 
d="M786 0h-106l-8 150h-4q-54 -86 -123.5 -125t-167.5 -39q-123 0 -208 88t-85 217q0 68 20.5 122t51.5 88.5t78.5 60t89.5 38t97.5 19.5t89 8.5t77.5 1.5h76v24q0 161 -53 228t-165 67q-130 0 -262 -106l-18 125q93 54 156 73t131 19q156 0 238.5 -86t82.5 -252v-502
q0 -64 12 -219zM664 395v131q-97 0 -148 -2t-119.5 -14t-102 -36t-58.5 -70t-25 -113q0 -81 54.5 -138t137.5 -57q115 0 188 80.5t73 218.5zM618 1450h82q-8 -112 -72.5 -181t-170.5 -69t-171 69.5t-73 180.5h82q9 -73 53.5 -114.5t108.5 -41.5t109 42t52 114z" />
    <glyph glyph-name="Aogonek" unicode="&#x104;" horiz-adv-x="1138" 
d="M1090 -324l26 -51q-87 -35 -143 -35q-94 0 -147.5 43t-53.5 121q0 70 53 134.5t152 111.5l-125 393h-569l-129 -393h-127l475 1430h135l475 -1430h-49q-172 -102 -172 -229q0 -53 29 -86t71 -33q65 0 99 24zM813 512l-242 782h-4l-248 -782h494z" />
    <glyph glyph-name="aogonek" unicode="&#x105;" horiz-adv-x="909" 
d="M803 -324l26 -51q-87 -35 -143 -35q-94 0 -147.5 43t-53.5 121q0 70 54.5 136t152.5 110h-12l-8 150h-4q-54 -86 -122.5 -125t-168.5 -39q-123 0 -208 88t-85 217q0 338 494 338h86q0 117 -12 167q-38 152 -206 152q-66 0 -135 -29t-127 -79l-18 127q88 53 152 72.5
t135 19.5q156 0 238.5 -86t82.5 -252v-502q0 -59 12 -219h-10q-172 -104 -172 -229q0 -54 30 -86.5t73 -32.5q58 0 96 24zM664 395v131q-81 0 -122 -1.5t-104.5 -7.5t-95.5 -21t-67 -40.5t-49.5 -67t-14.5 -99.5q0 -80 54.5 -136.5t135.5 -56.5q118 0 190.5 80t72.5 219z
" />
    <glyph glyph-name="Cacute" unicode="&#x106;" horiz-adv-x="1099" 
d="M961 168l6 -137q-113 -45 -244 -45q-189 0 -327 94t-208.5 259.5t-70.5 383.5q0 152 37.5 281t111 228t192.5 155.5t271 56.5q139 0 242 -47l-6 -144q-43 31 -111.5 51.5t-130.5 20.5q-40 0 -81 -7t-88.5 -26t-89.5 -48t-81.5 -77.5t-68 -110t-45.5 -149.5t-17 -192
q0 -143 37.5 -260t102 -193t149 -117t180.5 -41q115 0 240 64zM684 1489h-102l155 291h144z" />
    <glyph glyph-name="cacute" unicode="&#x107;" horiz-adv-x="757" 
d="M711 160l10 -135q-86 -39 -203 -39q-190 0 -312 144.5t-122 387.5q0 257 114 399t318 142q103 0 195 -37l-6 -135q-29 25 -82 39t-107 14q-140 0 -222.5 -101t-82.5 -286q0 -216 89 -332.5t235 -116.5q50 0 101 15.5t75 40.5zM494 1200h-103l156 291h143z" />
    <glyph glyph-name="Ccircumflex" unicode="&#x108;" horiz-adv-x="1099" 
d="M961 168l6 -137q-113 -45 -244 -45q-189 0 -327 94t-208.5 259.5t-70.5 383.5q0 152 37.5 281t111 228t192.5 155.5t271 56.5q139 0 242 -47l-6 -144q-43 31 -111.5 51.5t-130.5 20.5q-40 0 -81 -7t-88.5 -26t-89.5 -48t-81.5 -77.5t-68 -110t-45.5 -149.5t-17 -192
q0 -143 37.5 -260t102 -193t149 -117t180.5 -41q115 0 240 64zM936 1489h-119l-139 209l-139 -209h-119l198 291h119z" />
    <glyph glyph-name="ccircumflex" unicode="&#x109;" horiz-adv-x="757" 
d="M711 160l10 -135q-86 -39 -203 -39q-190 0 -312 144.5t-122 387.5q0 257 114 399t318 142q103 0 195 -37l-6 -135q-29 25 -82 39t-107 14q-140 0 -222.5 -101t-82.5 -286q0 -216 89 -332.5t235 -116.5q50 0 101 15.5t75 40.5zM735 1200h-119l-139 209l-139 -209h-119
l199 291h119z" />
    <glyph glyph-name="Cdotaccent" unicode="&#x10a;" horiz-adv-x="1099" 
d="M961 168l6 -137q-113 -45 -244 -45q-189 0 -327 94t-208.5 259.5t-70.5 383.5q0 152 37.5 281t111 228t192.5 155.5t271 56.5q139 0 242 -47l-6 -144q-43 31 -111.5 51.5t-130.5 20.5q-40 0 -81 -7t-88.5 -26t-89.5 -48t-81.5 -77.5t-68 -110t-45.5 -149.5t-17 -192
q0 -143 37.5 -260t102 -193t149 -117t180.5 -41q115 0 240 64zM737 1546h-119v201h119v-201z" />
    <glyph glyph-name="cdotaccent" unicode="&#x10b;" horiz-adv-x="757" 
d="M711 160l10 -135q-86 -39 -203 -39q-190 0 -312 144.5t-122 387.5q0 257 114 399t318 142q103 0 195 -37l-6 -135q-29 25 -82 39t-107 14q-140 0 -222.5 -101t-82.5 -286q0 -216 89 -332.5t235 -116.5q50 0 101 15.5t75 40.5zM537 1257h-119v201h119v-201z" />
    <glyph glyph-name="Ccaron" unicode="&#x10c;" horiz-adv-x="1099" 
d="M961 168l6 -137q-113 -45 -244 -45q-189 0 -327 94t-208.5 259.5t-70.5 383.5q0 152 37.5 281t111 228t192.5 155.5t271 56.5q139 0 242 -47l-6 -144q-43 31 -111.5 51.5t-130.5 20.5q-40 0 -81 -7t-88.5 -26t-89.5 -48t-81.5 -77.5t-68 -110t-45.5 -149.5t-17 -192
q0 -143 37.5 -260t102 -193t149 -117t180.5 -41q115 0 240 64zM737 1489h-119l-198 291h119l139 -209l139 209h119z" />
    <glyph glyph-name="ccaron" unicode="&#x10d;" horiz-adv-x="757" 
d="M711 160l10 -135q-86 -39 -203 -39q-190 0 -312 144.5t-122 387.5q0 257 114 399t318 142q103 0 195 -37l-6 -135q-29 25 -82 39t-107 14q-140 0 -222.5 -101t-82.5 -286q0 -216 89 -332.5t235 -116.5q50 0 101 15.5t75 40.5zM537 1200h-119l-199 291h119l139 -209
l139 209h119z" />
    <glyph glyph-name="Dcaron" unicode="&#x10e;" horiz-adv-x="1138" 
d="M385 0h-221v1430h186q346 0 522.5 -168.5t176.5 -526.5q0 -353 -178 -544t-486 -191zM291 119h129q223 0 358 157.5t135 440.5q0 140 -27 245.5t-86 185.5t-159.5 121.5t-241.5 41.5h-108v-1192zM582 1489h-119l-199 291h119l139 -209l140 209h118z" />
    <glyph glyph-name="dcaron" unicode="&#x10f;" horiz-adv-x="1013" 
d="M825 0h-110v143h-4q-66 -87 -127.5 -122t-147.5 -35q-171 0 -261.5 146t-90.5 427q0 136 38.5 247.5t118.5 182t189 70.5q96 0 159 -37t105 -113h4v627h119v-1190q0 -156 8 -346zM449 96q128 0 193 106t65 310q0 44 -1.5 77.5t-7 81.5t-15.5 83.5t-29 74t-45.5 63
t-66.5 40.5t-91 16q-240 0 -240 -426q0 -213 61.5 -319.5t176.5 -106.5zM1014 1155h-88l22 336h123z" />
    <glyph glyph-name="Dcroat" unicode="&#x110;" horiz-adv-x="1138" 
d="M395 0h-231v698h-139v86h139v646h192q693 0 693 -695q0 -345 -175 -540t-479 -195zM291 119h139q222 0 352.5 159.5t130.5 446.5q0 297 -126.5 441.5t-391.5 144.5h-104v-527h364v-86h-364v-579z" />
    <glyph glyph-name="dcroat" unicode="&#x111;" 
d="M825 0h-110v143h-4q-68 -87 -129.5 -122t-145.5 -35q-171 0 -261.5 146.5t-90.5 426.5q0 136 38.5 247.5t118.5 182t189 70.5q91 0 154 -35.5t110 -114.5h4v348h-276v89h276v190h119v-190h123v-89h-123v-950q0 -192 8 -307zM449 96q258 0 258 424q0 230 -63.5 329
t-192.5 99q-115 0 -177.5 -106.5t-62.5 -321.5q0 -212 61.5 -318t176.5 -106z" />
    <glyph glyph-name="Emacron" unicode="&#x112;" horiz-adv-x="909" 
d="M793 0h-629v1430h606v-119h-479v-508h457v-119h-457v-565h502v-119zM719 1587h-488v94h488v-94z" />
    <glyph glyph-name="emacron" unicode="&#x113;" horiz-adv-x="872" 
d="M731 182l6 -137q-104 -59 -243 -59q-199 0 -304.5 136t-105.5 402q0 110 21 200t56 151.5t83 103.5t101 61t110 19q73 0 129 -23.5t91.5 -68.5t59 -97t34.5 -122.5t15 -130t4 -134.5h-577q0 -188 77 -287.5t218 -99.5q52 0 117.5 24.5t107.5 61.5zM211 594h451
q0 165 -57 259.5t-156 94.5t-167 -104t-71 -250zM696 1298h-487v95h487v-95z" />
    <glyph glyph-name="Ebreve" unicode="&#x114;" horiz-adv-x="909" 
d="M793 0h-629v1430h606v-119h-479v-508h457v-119h-457v-565h502v-119zM647 1739h82q-8 -114 -72.5 -182t-171.5 -68q-104 0 -170 67.5t-73 182.5h82q7 -73 51.5 -114.5t109.5 -41.5t108.5 40t53.5 116z" />
    <glyph glyph-name="ebreve" unicode="&#x115;" horiz-adv-x="872" 
d="M731 182l6 -137q-104 -59 -243 -59q-199 0 -304.5 136t-105.5 402q0 110 21 200t56 151.5t83 103.5t101 61t110 19q73 0 129 -23.5t91.5 -68.5t59 -97t34.5 -122.5t15 -130t4 -134.5h-577q0 -188 77 -287.5t218 -99.5q52 0 117.5 24.5t107.5 61.5zM211 594h451
q0 165 -57 259.5t-156 94.5t-167 -104t-71 -250zM598 1450h82q-8 -111 -73 -180.5t-171 -69.5t-170.5 69t-72.5 181h81q9 -73 53.5 -114.5t108.5 -41.5t109.5 42t52.5 114z" />
    <glyph glyph-name="Edotaccent" unicode="&#x116;" horiz-adv-x="909" 
d="M793 0h-629v1430h606v-119h-479v-508h457v-119h-457v-565h502v-119zM549 1546h-119v201h119v-201z" />
    <glyph glyph-name="edotaccent" unicode="&#x117;" horiz-adv-x="872" 
d="M731 182l6 -137q-104 -59 -243 -59q-199 0 -304.5 136t-105.5 402q0 110 21 200t56 151.5t83 103.5t101 61t110 19q73 0 129 -23.5t91.5 -68.5t59 -97t34.5 -122.5t15 -130t4 -134.5h-577q0 -188 77 -287.5t218 -99.5q52 0 117.5 24.5t107.5 61.5zM211 594h451
q0 165 -57 259.5t-156 94.5t-167 -104t-71 -250zM514 1257h-119v201h119v-201z" />
    <glyph glyph-name="Eogonek" unicode="&#x118;" horiz-adv-x="909" 
d="M754 -324l26 -51q-87 -35 -143 -35q-94 0 -147.5 43t-53.5 121q0 70 54.5 136t152.5 110h-479v1430h606v-119h-479v-508h457v-119h-457v-565h502v-119h-66q-172 -104 -172 -229q0 -53 29 -86t71 -33q61 0 99 24z" />
    <glyph glyph-name="eogonek" unicode="&#x119;" horiz-adv-x="872" 
d="M608 -324l27 -51q-87 -35 -143 -35q-94 0 -147.5 43.5t-53.5 122.5q0 137 176 230q-383 21 -383 536q0 252 102.5 394.5t270.5 142.5t249.5 -135t81.5 -426v-15h-577q0 -188 77 -287.5t218 -99.5q57 0 122.5 24.5t102.5 61.5l6 -137q-85 -47 -174 -55
q-80 -54 -116.5 -106.5t-36.5 -112.5q0 -53 29 -86t73 -33q58 0 96 24zM662 594v6q0 164 -57 256t-156 92q-98 0 -166.5 -105t-71.5 -249h451z" />
    <glyph glyph-name="Ecaron" unicode="&#x11a;" horiz-adv-x="909" 
d="M793 0h-629v1430h606v-119h-479v-508h457v-119h-457v-565h502v-119zM545 1489h-119l-199 291h119l139 -209l140 209h118z" />
    <glyph glyph-name="ecaron" unicode="&#x11b;" horiz-adv-x="872" 
d="M731 182l6 -137q-104 -59 -243 -59q-199 0 -304.5 136t-105.5 402q0 110 21 200t56 151.5t83 103.5t101 61t110 19q73 0 129 -23.5t91.5 -68.5t59 -97t34.5 -122.5t15 -130t4 -134.5h-577q0 -188 77 -287.5t218 -99.5q52 0 117.5 24.5t107.5 61.5zM211 594h451
q0 165 -57 259.5t-156 94.5t-167 -104t-71 -250zM508 1200h-119l-199 291h119l140 -209l139 209h119z" />
    <glyph glyph-name="Gcircumflex" unicode="&#x11c;" horiz-adv-x="1214" 
d="M932 147v502h-256v119h383v-705q-140 -77 -330 -77q-136 0 -246 47t-179 121.5t-115.5 174t-65.5 199t-19 201.5q0 140 41.5 267.5t118 228t196 160t265.5 59.5q63 0 155.5 -22t143.5 -48l-6 -139q-53 36 -139.5 63t-159.5 27q-67 0 -132.5 -20t-129 -66t-111 -114
t-77 -173t-29.5 -233q0 -91 16.5 -176t54 -166t93.5 -140.5t141 -96t190 -36.5q116 0 197 43zM954 1489h-118l-140 209l-139 -209h-119l199 291h119z" />
    <glyph glyph-name="gcircumflex" unicode="&#x11d;" 
d="M698 -8v151h-4q-48 -81 -110.5 -119t-153.5 -38q-107 0 -187 69.5t-119.5 181t-39.5 246.5q0 283 90.5 429.5t261.5 146.5q95 0 160.5 -41.5t114.5 -126.5h4v153h110q0 -1 -2 -56t-4 -129.5t-2 -121.5v-723q0 -229 -97.5 -349t-293.5 -120q-72 0 -119 10t-178 48l8 133
q62 -36 143 -58t146 -22q133 0 202.5 87t69.5 249zM451 96q131 0 193.5 105t62.5 334q0 202 -65 307.5t-193 105.5q-238 0 -238 -428q0 -208 61 -316t179 -108zM733 1200h-119l-139 209l-139 -209h-119l199 291h119z" />
    <glyph glyph-name="Gbreve" unicode="&#x11e;" horiz-adv-x="1214" 
d="M932 147v502h-256v119h383v-705q-140 -77 -330 -77q-136 0 -246 47t-179 121.5t-115.5 174t-65.5 199t-19 201.5q0 140 41.5 267.5t118 228t196 160t265.5 59.5q63 0 155.5 -22t143.5 -48l-6 -139q-53 36 -139.5 63t-159.5 27q-67 0 -132.5 -20t-129 -66t-111 -114
t-77 -173t-29.5 -233q0 -91 16.5 -176t54 -166t93.5 -140.5t141 -96t190 -36.5q116 0 197 43zM858 1739h82q-8 -114 -72.5 -182t-171.5 -68q-104 0 -170 67.5t-73 182.5h82q7 -73 51.5 -114.5t109.5 -41.5t108.5 40t53.5 116z" />
    <glyph glyph-name="gbreve" unicode="&#x11f;" 
d="M698 -8v151h-4q-48 -81 -110.5 -119t-153.5 -38q-107 0 -187 69.5t-119.5 181t-39.5 246.5q0 283 90.5 429.5t261.5 146.5q95 0 160.5 -41.5t114.5 -126.5h4v153h110q0 -1 -2 -56t-4 -129.5t-2 -121.5v-723q0 -229 -97.5 -349t-293.5 -120q-72 0 -119 10t-178 48l8 133
q62 -36 143 -58t146 -22q133 0 202.5 87t69.5 249zM451 96q131 0 193.5 105t62.5 334q0 202 -65 307.5t-193 105.5q-238 0 -238 -428q0 -208 61 -316t179 -108zM637 1450h82q-8 -111 -73 -180.5t-171 -69.5t-171 69.5t-73 180.5h82q9 -73 53.5 -114.5t108.5 -41.5t109.5 42
t52.5 114z" />
    <glyph glyph-name="Gdotaccent" unicode="&#x120;" horiz-adv-x="1214" 
d="M932 147v502h-256v119h383v-705q-140 -77 -330 -77q-136 0 -246 47t-179 121.5t-115.5 174t-65.5 199t-19 201.5q0 140 41.5 267.5t118 228t196 160t265.5 59.5q63 0 155.5 -22t143.5 -48l-6 -139q-53 36 -139.5 63t-159.5 27q-67 0 -132.5 -20t-129 -66t-111 -114
t-77 -173t-29.5 -233q0 -91 16.5 -176t54 -166t93.5 -140.5t141 -96t190 -36.5q116 0 197 43zM756 1546h-119v201h119v-201z" />
    <glyph glyph-name="gdotaccent" unicode="&#x121;" 
d="M698 -8v151h-4q-48 -81 -110.5 -119t-153.5 -38q-107 0 -187 69.5t-119.5 181t-39.5 246.5q0 283 90.5 429.5t261.5 146.5q95 0 160.5 -41.5t114.5 -126.5h4v153h110q0 -1 -2 -56t-4 -129.5t-2 -121.5v-723q0 -229 -97.5 -349t-293.5 -120q-72 0 -119 10t-178 48l8 133
q62 -36 143 -58t146 -22q133 0 202.5 87t69.5 249zM451 96q131 0 193.5 105t62.5 334q0 202 -65 307.5t-193 105.5q-238 0 -238 -428q0 -208 61 -316t179 -108zM535 1257h-119v201h119v-201z" />
    <glyph glyph-name="Gcommaaccent" unicode="&#x122;" horiz-adv-x="1214" 
d="M932 147v502h-256v119h383v-705q-140 -77 -330 -77q-136 0 -246 47t-179 121.5t-115.5 174t-65.5 199t-19 201.5q0 140 41.5 267.5t118 228t196 160t265.5 59.5q63 0 155.5 -22t143.5 -48l-6 -139q-53 36 -139.5 63t-159.5 27q-67 0 -132.5 -20t-129 -66t-111 -114
t-77 -173t-29.5 -233q0 -91 16.5 -176t54 -166t93.5 -140.5t141 -96t190 -36.5q116 0 197 43zM676 -455h-109l58 291h141z" />
    <glyph glyph-name="gcommaaccent" unicode="&#x123;" 
d="M698 -8v151h-4q-48 -81 -110.5 -119t-153.5 -38q-107 0 -187 69.5t-119.5 181t-39.5 246.5q0 283 90.5 429.5t261.5 146.5q95 0 160.5 -41.5t114.5 -126.5h4v153h110q0 -1 -2 -56t-4 -129.5t-2 -121.5v-723q0 -229 -97.5 -349t-293.5 -120q-72 0 -119 10t-178 48l8 133
q62 -36 143 -58t146 -22q133 0 202.5 87t69.5 249zM451 96q131 0 193.5 105t62.5 334q0 202 -65 307.5t-193 105.5q-238 0 -238 -428q0 -208 61 -316t179 -108zM541 1200h-138l91 291h104z" />
    <glyph glyph-name="Hcircumflex" unicode="&#x124;" horiz-adv-x="1138" 
d="M975 0h-127v684h-557v-684h-127v1430h127v-627h557v627h127v-1430zM827 1489h-118l-140 209l-139 -209h-119l199 291h119z" />
    <glyph glyph-name="hcircumflex" unicode="&#x125;" 
d="M809 0h-119v713q0 122 -48 178.5t-144 56.5q-109 0 -174.5 -87t-65.5 -212v-649h-119v1536h119v-645h4q37 80 104.5 124t153.5 44q143 0 216 -91t73 -261v-707zM766 1591h-119l-139 209l-139 -209h-119l199 291h118z" />
    <glyph glyph-name="Hbar" unicode="&#x126;" horiz-adv-x="1138" 
d="M975 0h-127v625h-557v-625h-127v973h-160v90h160v367h127v-367h557v367h127v-367h160v-90h-160v-973zM848 739v234h-557v-234h557z" />
    <glyph glyph-name="hbar" unicode="&#x127;" 
d="M809 0h-119v713q0 122 -48 178.5t-144 56.5q-55 0 -98.5 -21.5t-69.5 -53.5t-43 -74t-23 -78.5t-6 -71.5v-649h-119v1257h-123v89h123v190h119v-190h277v-89h-277v-366h4q37 80 104.5 124t153.5 44q143 0 216 -91t73 -261v-707z" />
    <glyph glyph-name="Itilde" unicode="&#x128;" horiz-adv-x="454" 
d="M291 0h-127v1430h127v-1430zM416 1741h86q-5 -86 -47.5 -144.5t-110.5 -58.5q-43 0 -84 22.5t-75.5 45t-61.5 22.5q-33 0 -56 -30t-28 -70h-86q6 93 51 148t119 55q37 0 81 -22.5t81.5 -45.5t58.5 -23q27 0 49.5 27.5t22.5 73.5z" />
    <glyph glyph-name="itilde" unicode="&#x129;" horiz-adv-x="417" 
d="M268 0h-118v1044h118v-1044zM397 1452h86q-2 -81 -46 -142t-111 -61q-41 0 -83 22.5t-78 45t-61 22.5q-32 0 -55.5 -29t-28.5 -71h-86q6 92 51 147.5t119 55.5q44 0 122.5 -45t99.5 -45q27 0 49 28.5t22 71.5z" />
    <glyph glyph-name="Imacron" unicode="&#x12a;" horiz-adv-x="454" 
d="M291 0h-127v1430h127v-1430zM471 1587h-487v94h487v-94z" />
    <glyph glyph-name="imacron" unicode="&#x12b;" horiz-adv-x="417" 
d="M268 0h-118v1044h118v-1044zM455 1298h-488v95h488v-95z" />
    <glyph glyph-name="Iogonek" unicode="&#x12e;" horiz-adv-x="454" 
d="M342 -324l27 -51q-87 -35 -144 -35q-94 0 -147 43.5t-53 122.5q0 130 182 244h-43v1430h127v-1430q-148 -122 -148 -229q0 -53 29.5 -86t73.5 -33q58 0 96 24z" />
    <glyph glyph-name="iogonek" unicode="&#x12f;" horiz-adv-x="417" 
d="M281 1276h-144v184h144v-184zM324 -324l26 -51q-87 -35 -143 -35q-94 0 -147.5 43.5t-53.5 122.5q0 127 180 244h-36v1044h118v-1044q-143 -123 -143 -229q0 -53 29 -86t71 -33q61 0 99 24z" />
    <glyph glyph-name="Idotaccent" unicode="&#x130;" horiz-adv-x="454" 
d="M291 0h-127v1430h127v-1430zM287 1546h-119v201h119v-201z" />
    <glyph glyph-name="dotlessi" unicode="&#x131;" horiz-adv-x="417" 
d="M268 0h-118v1044h118v-1044z" />
    <glyph glyph-name="IJ" unicode="&#x132;" horiz-adv-x="987" 
d="M291 0h-127v1430h127v-1430zM424 0v135q35 -14 51.5 -18t44.5 -4q62 0 99 23t57 83t20 166v1045h127v-1047q0 -215 -73.5 -306t-225.5 -91q-42 0 -100 14z" />
    <glyph glyph-name="ij" unicode="&#x133;" horiz-adv-x="806" 
d="M281 1276h-144v184h144v-184zM268 0h-118v1044h118v-1044zM668 1276h-144v184h144v-184zM369 -442v118q24 -12 55 -12q27 0 44 4t34.5 17t26 42.5t8.5 75.5v1241h118v-1224q0 -44 -3 -76.5t-15 -72.5t-33 -65.5t-60.5 -43t-94.5 -17.5q-39 0 -80 13z" />
    <glyph glyph-name="Jcircumflex" unicode="&#x134;" horiz-adv-x="606" 
d="M43 0v135q35 -14 51.5 -18t44.5 -4q62 0 99 23t57 83t20 166v1045h127v-1047q0 -215 -73.5 -306t-225.5 -91q-42 0 -100 14zM637 1489h-119l-139 209l-139 -209h-119l198 291h119z" />
    <glyph glyph-name="jcircumflex" unicode="&#x135;" horiz-adv-x="417" 
d="M-18 -442v118q24 -12 55 -12q27 0 44 4t34.5 17t26 42.5t8.5 75.5v1241h118v-1224q0 -44 -3 -76.5t-15.5 -72.5t-33.5 -65.5t-60.5 -43t-94.5 -17.5q-38 0 -79 13zM467 1200h-119l-139 209l-139 -209h-119l199 291h118z" />
    <glyph glyph-name="Kcommaaccent" unicode="&#x136;" horiz-adv-x="1024" 
d="M1014 0h-168l-551 700h-4v-700h-127v1430h127v-627h4l516 627h156l-572 -680zM535 -455h-109l57 291h142z" />
    <glyph glyph-name="kcommaaccent" unicode="&#x137;" horiz-adv-x="872" 
d="M850 0h-160l-424 530h-4v-530h-119v1536h119v-911l395 419h152l-442 -462zM467 -455h-109l58 291h141z" />
    <glyph glyph-name="Lacute" unicode="&#x139;" horiz-adv-x="796" 
d="M756 0h-592v1430h127v-1311h465v-119zM285 1489h-103l156 291h143z" />
    <glyph glyph-name="lacute" unicode="&#x13a;" horiz-adv-x="417" 
d="M268 0h-118v1536h118v-1536zM240 1591h-103l156 291h143z" />
    <glyph glyph-name="Lcommaaccent" unicode="&#x13b;" horiz-adv-x="796" 
d="M756 0h-592v1430h127v-1311h465v-119zM440 -455h-108l57 291h141z" />
    <glyph glyph-name="lcommaaccent" unicode="&#x13c;" horiz-adv-x="417" 
d="M268 0h-118v1536h118v-1536zM186 -455h-108l57 291h141z" />
    <glyph glyph-name="Lcaron" unicode="&#x13d;" horiz-adv-x="796" 
d="M756 0h-592v1430h127v-1311h465v-119zM522 1155h-88l23 336h123z" />
    <glyph glyph-name="lcaron" unicode="&#x13e;" horiz-adv-x="464" 
d="M268 0h-118v1536h118v-1536zM465 1155h-88l22 336h123z" />
    <glyph glyph-name="Ldot" unicode="&#x13f;" horiz-adv-x="796" 
d="M756 0h-592v1430h127v-1311h465v-119zM578 637h-119v201h119v-201z" />
    <glyph glyph-name="ldot" unicode="&#x140;" horiz-adv-x="614" 
d="M268 0h-118v1536h118v-1536zM553 637h-119v201h119v-201z" />
    <glyph glyph-name="Lslash" unicode="&#x141;" horiz-adv-x="796" 
d="M756 0h-592v522l-164 -157v118l164 158v789h127v-668l336 321v-118l-336 -322v-524h465v-119z" />
    <glyph glyph-name="lslash" unicode="&#x142;" horiz-adv-x="417" 
d="M268 0h-118v670l-150 -189v123l150 189v743h118v-598l150 186v-123l-150 -188v-813z" />
    <glyph glyph-name="Nacute" unicode="&#x143;" horiz-adv-x="1214" 
d="M1051 0h-164l-600 1262h-4v-1262h-119v1430h164l600 -1270h4v1270h119v-1430zM657 1489h-102l156 291h143z" />
    <glyph glyph-name="nacute" unicode="&#x144;" 
d="M809 0h-119v713q0 235 -194 235q-105 0 -171.5 -87t-66.5 -206v-655h-119v723q0 53 -4 175t-4 146h111q4 -35 8 -153h4q85 168 266 168q60 0 107.5 -17.5t77 -42t51 -62t31.5 -67t15.5 -69.5t6 -56t0.5 -38v-707zM512 1200h-102l155 291h144z" />
    <glyph glyph-name="Ncommaaccent" unicode="&#x145;" horiz-adv-x="1214" 
d="M1051 0h-164l-600 1262h-4v-1262h-119v1430h164l600 -1270h4v1270h119v-1430zM616 -455h-108l57 291h142z" />
    <glyph glyph-name="ncommaaccent" unicode="&#x146;" 
d="M809 0h-119v713q0 235 -194 235q-105 0 -171.5 -87t-66.5 -206v-655h-119v723q0 53 -4 175t-4 146h111q4 -35 8 -153h4q85 168 266 168q60 0 107.5 -17.5t77 -42t51 -62t31.5 -67t15.5 -69.5t6 -56t0.5 -38v-707zM469 -455h-109l58 291h141z" />
    <glyph glyph-name="Ncaron" unicode="&#x147;" horiz-adv-x="1214" 
d="M1051 0h-164l-600 1262h-4v-1262h-119v1430h164l600 -1270h4v1270h119v-1430zM686 1489h-119l-198 291h118l140 -209l139 209h119z" />
    <glyph glyph-name="ncaron" unicode="&#x148;" 
d="M809 0h-119v713q0 235 -194 235q-105 0 -171.5 -87t-66.5 -206v-655h-119v723q0 53 -4 175t-4 146h111q4 -35 8 -153h4q85 168 266 168q60 0 107.5 -17.5t77 -42t51 -62t31.5 -67t15.5 -69.5t6 -56t0.5 -38v-707zM537 1200h-119l-199 291h119l139 -209l139 209h119z" />
    <glyph glyph-name="napostrophe" unicode="&#x149;" horiz-adv-x="999" 
d="M860 0h-119v713q0 235 -194 235q-105 0 -171.5 -87t-66.5 -206v-655h-119v723q0 53 -4 175t-4 146h111q4 -35 8 -153h4q85 168 266 168q60 0 107.5 -17.5t77 -42t51 -62t31.5 -67t15.5 -69.5t6 -56t0.5 -38v-707zM74 1081h-119l98 455h152z" />
    <glyph glyph-name="Omacron" unicode="&#x14c;" horiz-adv-x="1216" 
d="M608 -14q-245 0 -374.5 188.5t-129.5 540.5q0 353 129.5 541t374.5 188t374.5 -188t129.5 -541t-129.5 -541t-374.5 -188zM608 104q178 0 273.5 155.5t95.5 455.5t-94 455t-277 155q-178 0 -272 -155.5t-94 -454.5q0 -300 94.5 -455.5t273.5 -155.5zM852 1587h-487v94
h487v-94z" />
    <glyph glyph-name="omacron" unicode="&#x14d;" horiz-adv-x="950" 
d="M475 -14q-190 0 -290.5 139t-100.5 397q0 254 100.5 395.5t290.5 141.5t290.5 -141.5t100.5 -395.5q0 -258 -100.5 -397t-290.5 -139zM475 96q129 0 196.5 108t67.5 318t-68 318t-198 108q-126 0 -194 -107.5t-68 -318.5q0 -213 67.5 -319.5t196.5 -106.5zM721 1298h-488
v95h488v-95z" />
    <glyph glyph-name="Obreve" unicode="&#x14e;" horiz-adv-x="1216" 
d="M608 -14q-245 0 -374.5 188.5t-129.5 540.5q0 353 129.5 541t374.5 188t374.5 -188t129.5 -541t-129.5 -541t-374.5 -188zM608 104q178 0 273.5 155.5t95.5 455.5t-94 455t-277 155q-178 0 -272 -155.5t-94 -454.5q0 -300 94.5 -455.5t273.5 -155.5zM770 1739h82
q-8 -114 -72.5 -182t-171.5 -68q-104 0 -170 67.5t-73 182.5h81q7 -73 52 -114.5t110 -41.5t108.5 40t53.5 116z" />
    <glyph glyph-name="obreve" unicode="&#x14f;" horiz-adv-x="950" 
d="M475 -14q-190 0 -290.5 139t-100.5 397q0 254 100.5 395.5t290.5 141.5t290.5 -141.5t100.5 -395.5q0 -258 -100.5 -397t-290.5 -139zM475 96q129 0 196.5 108t67.5 318t-68 318t-198 108q-126 0 -194 -107.5t-68 -318.5q0 -213 67.5 -319.5t196.5 -106.5zM637 1450h82
q-8 -111 -73 -180.5t-171 -69.5t-171 69.5t-73 180.5h82q9 -73 53.5 -114.5t108.5 -41.5t109.5 42t52.5 114z" />
    <glyph glyph-name="Ohungarumlaut" unicode="&#x150;" horiz-adv-x="1216" 
d="M608 -14q-245 0 -374.5 188.5t-129.5 540.5q0 353 129.5 541t374.5 188t374.5 -188t129.5 -541t-129.5 -541t-374.5 -188zM608 104q178 0 273.5 155.5t95.5 455.5t-94 455t-277 155q-178 0 -272 -155.5t-94 -454.5q0 -300 94.5 -455.5t273.5 -155.5zM494 1489h-103
l156 291h143zM780 1489h-102l156 291h143z" />
    <glyph glyph-name="ohungarumlaut" unicode="&#x151;" horiz-adv-x="950" 
d="M475 -14q-190 0 -290.5 139t-100.5 397q0 254 100.5 395.5t290.5 141.5t290.5 -141.5t100.5 -395.5q0 -258 -100.5 -397t-290.5 -139zM475 96q129 0 196.5 108t67.5 318t-68 318t-198 108q-126 0 -194 -107.5t-68 -318.5q0 -213 67.5 -319.5t196.5 -106.5zM356 1200h-102
l156 291h143zM643 1200h-102l155 291h144z" />
    <glyph glyph-name="OE" unicode="&#x152;" horiz-adv-x="1517" 
d="M1401 0h-567q-25 0 -96.5 -7t-92.5 -7q-264 0 -402.5 186.5t-138.5 542.5t138 542.5t405 186.5q25 0 101.5 -7t85.5 -7h544v-119h-446v-508h424v-119h-424v-565h469v-119zM805 119v1192q-44 14 -166 14q-200 0 -304 -153t-104 -457q0 -303 105 -457t305 -154q91 0 164 15
z" />
    <glyph glyph-name="oe" unicode="&#x153;" horiz-adv-x="1517" 
d="M1395 182l6 -137q-106 -59 -244 -59q-251 0 -352 215q-93 -215 -330 -215q-190 0 -290.5 139t-100.5 397q0 86 11.5 161t40 145.5t72 120.5t112 80t155.5 30q119 0 204.5 -55.5t129.5 -163.5q42 102 126 160.5t183 58.5q170 0 252 -135.5t82 -440.5h-586q0 -187 80 -287
t223 -100q53 0 117 23t109 63zM475 96q129 0 196.5 107.5t67.5 316.5q0 212 -68 320t-198 108q-126 0 -194 -107.5t-68 -318.5q0 -213 67.5 -319.5t196.5 -106.5zM866 594h459q0 168 -57.5 261t-155.5 93q-101 0 -172 -103t-74 -251z" />
    <glyph glyph-name="Racute" unicode="&#x154;" horiz-adv-x="1024" 
d="M950 0h-135l-174 489q-36 101 -74.5 139t-113.5 38h-162v-666h-127v1430h338q166 0 267 -99t101 -266q0 -142 -72.5 -231t-207.5 -115v-4q109 -21 145 -123zM291 784h180q124 0 194 77.5t70 199.5t-70.5 186t-201.5 64h-172v-527zM487 1489h-102l156 291h143z" />
    <glyph glyph-name="racute" unicode="&#x155;" horiz-adv-x="569" 
d="M258 0h-119v741q0 15 -1 53t-3 110t-4 140h111l8 -165h4q44 91 108 135.5t164 44.5h6v-127q-143 0 -208.5 -66.5t-65.5 -199.5v-666zM365 1200h-103l156 291h143z" />
    <glyph glyph-name="Rcommaaccent" unicode="&#x156;" horiz-adv-x="1024" 
d="M950 0h-135l-174 489q-36 101 -74.5 139t-113.5 38h-162v-666h-127v1430h338q166 0 267 -99t101 -266q0 -142 -72.5 -231t-207.5 -115v-4q109 -21 145 -123zM291 784h180q124 0 194 77.5t70 199.5t-70.5 186t-201.5 64h-172v-527zM526 -455h-108l57 291h141z" />
    <glyph glyph-name="rcommaaccent" unicode="&#x157;" horiz-adv-x="569" 
d="M258 0h-119v741q0 15 -1 53t-3 110t-4 140h111l8 -165h4q44 91 108 135.5t164 44.5h6v-127q-143 0 -208.5 -66.5t-65.5 -199.5v-666zM180 -455h-108l57 291h141z" />
    <glyph glyph-name="Rcaron" unicode="&#x158;" horiz-adv-x="1024" 
d="M950 0h-135l-174 489q-36 101 -74.5 139t-113.5 38h-162v-666h-127v1430h338q166 0 267 -99t101 -266q0 -142 -72.5 -231t-207.5 -115v-4q109 -21 145 -123zM291 784h180q124 0 194 77.5t70 199.5t-70.5 186t-201.5 64h-172v-527zM522 1489h-119l-198 291h119l139 -209
l139 209h119z" />
    <glyph glyph-name="rcaron" unicode="&#x159;" horiz-adv-x="569" 
d="M258 0h-119v741q0 15 -1 53t-3 110t-4 140h111l8 -165h4q44 91 108 135.5t164 44.5h6v-127q-143 0 -208.5 -66.5t-65.5 -199.5v-666zM399 1200h-118l-199 291h119l139 -209l139 209h119z" />
    <glyph glyph-name="Sacute" unicode="&#x15a;" horiz-adv-x="872" 
d="M115 53l8 148q53 -48 120.5 -72.5t131.5 -24.5q122 0 190 76t68 182q0 96 -47 164t-162 144q-196 128 -258 210.5t-62 217.5q0 164 103.5 255t271.5 91q108 0 223 -45l-6 -144q-64 40 -115.5 55t-111.5 15q-95 0 -162 -56.5t-67 -152.5q0 -34 6 -64t20.5 -55.5t26 -43.5
t35.5 -39.5t35 -31t39 -29t34 -24.5q57 -42 89 -66t71 -56t59 -52t43 -47t33.5 -49t20.5 -51t13 -59t3 -68q0 -173 -108 -284t-275 -111q-74 0 -148.5 18.5t-121.5 48.5zM463 1489h-103l156 291h143z" />
    <glyph glyph-name="sacute" unicode="&#x15b;" horiz-adv-x="720" 
d="M74 35l16 133q48 -31 115 -51.5t123 -20.5q80 0 136 52t56 128q0 66 -39.5 108t-161.5 103q-130 64 -180.5 123t-50.5 160q0 132 91 210.5t216 78.5q88 0 193 -31l-17 -123q-107 43 -178 43q-78 0 -128 -49t-50 -119q0 -61 28 -94.5t115 -79.5q137 -74 171 -98
q91 -64 111 -150q7 -31 7 -69q0 -138 -86.5 -220.5t-224.5 -82.5q-136 0 -262 49zM387 1200h-102l155 291h144z" />
    <glyph glyph-name="Scircumflex" unicode="&#x15c;" horiz-adv-x="872" 
d="M115 53l8 148q53 -48 120.5 -72.5t131.5 -24.5q122 0 190 76t68 182q0 96 -47 164t-162 144q-196 128 -258 210.5t-62 217.5q0 164 103.5 255t271.5 91q108 0 223 -45l-6 -144q-64 40 -115.5 55t-111.5 15q-95 0 -162 -56.5t-67 -152.5q0 -34 6 -64t20.5 -55.5t26 -43.5
t35.5 -39.5t35 -31t39 -29t34 -24.5q57 -42 89 -66t71 -56t59 -52t43 -47t33.5 -49t20.5 -51t13 -59t3 -68q0 -173 -108 -284t-275 -111q-74 0 -148.5 18.5t-121.5 48.5zM694 1489h-119l-139 209l-139 -209h-119l199 291h119z" />
    <glyph glyph-name="scircumflex" unicode="&#x15d;" horiz-adv-x="720" 
d="M74 35l16 133q48 -31 115 -51.5t123 -20.5q80 0 136 52t56 128q0 66 -39.5 108t-161.5 103q-130 64 -180.5 123t-50.5 160q0 132 91 210.5t216 78.5q88 0 193 -31l-17 -123q-107 43 -178 43q-78 0 -128 -49t-50 -119q0 -61 28 -94.5t115 -79.5q137 -74 171 -98
q91 -64 111 -150q7 -31 7 -69q0 -138 -86.5 -220.5t-224.5 -82.5q-136 0 -262 49zM618 1200h-118l-140 209l-139 -209h-119l199 291h119z" />
    <glyph glyph-name="Scedilla" unicode="&#x15e;" horiz-adv-x="872" 
d="M211 -377l20 58q79 -29 136 -29q129 0 129 94q0 38 -29.5 62t-71.5 24q-30 0 -94 -27l-27 29l107 152q-163 4 -266 67l8 148q109 -97 254 -97q81 0 141 38t87.5 95.5t27.5 124.5q0 93 -44.5 160t-156.5 142q-144 96 -214.5 164.5t-92 125t-21.5 144.5q0 165 104 255.5
t271 90.5q118 0 223 -45l-6 -144q-65 40 -117 55t-110 15q-96 0 -162.5 -55.5t-66.5 -153.5q0 -42 8.5 -75t20 -57t40.5 -52t53 -47.5t74 -55.5q77 -57 118 -89t85 -71t63.5 -66t37.5 -63.5t23 -73t5 -85.5q0 -159 -89.5 -266.5t-221.5 -122.5l-80 -105l4 -4q34 11 61 11
q72 0 118 -38.5t46 -99.5q0 -77 -60.5 -121.5t-160.5 -44.5q-130 0 -174 33z" />
    <glyph glyph-name="scedilla" unicode="&#x15f;" horiz-adv-x="720" 
d="M139 -377l21 58q82 -29 135 -29q129 0 129 94q0 40 -28.5 63t-71.5 23q-36 0 -95 -27l-26 29l106 152q-71 3 -103 9.5t-132 39.5l16 133q37 -27 108 -49.5t130 -22.5q83 0 137.5 52.5t54.5 127.5q0 64 -39.5 108t-161.5 103q-129 62 -180 122t-51 161q0 131 91 210
t218 79q93 0 191 -31l-17 -123q-107 43 -178 43q-78 0 -128 -49t-50 -119q0 -61 28 -95.5t115 -78.5q137 -73 179 -104q93 -69 107 -169q3 -21 3 -44q0 -126 -73 -207t-191 -92l-78 -103l4 -4q37 11 62 11q72 0 118 -38.5t46 -99.5q0 -77 -61 -121.5t-161 -44.5
q-130 0 -174 33z" />
    <glyph glyph-name="Scaron" unicode="&#x160;" horiz-adv-x="872" 
d="M115 53l8 148q53 -48 120.5 -72.5t131.5 -24.5q122 0 190 76t68 182q0 96 -47 164t-162 144q-196 128 -258 210.5t-62 217.5q0 164 103.5 255t271.5 91q108 0 223 -45l-6 -144q-64 40 -115.5 55t-111.5 15q-95 0 -162 -56.5t-67 -152.5q0 -34 6 -64t20.5 -55.5t26 -43.5
t35.5 -39.5t35 -31t39 -29t34 -24.5q57 -42 89 -66t71 -56t59 -52t43 -47t33.5 -49t20.5 -51t13 -59t3 -68q0 -173 -108 -284t-275 -111q-74 0 -148.5 18.5t-121.5 48.5zM496 1489h-119l-199 291h119l139 -209l139 209h119z" />
    <glyph glyph-name="scaron" unicode="&#x161;" horiz-adv-x="720" 
d="M74 35l16 133q48 -31 115 -51.5t123 -20.5q80 0 136 52t56 128q0 66 -39.5 108t-161.5 103q-130 64 -180.5 123t-50.5 160q0 132 91 210.5t216 78.5q88 0 193 -31l-17 -123q-107 43 -178 43q-78 0 -128 -49t-50 -119q0 -61 28 -94.5t115 -79.5q137 -74 171 -98
q91 -64 111 -150q7 -31 7 -69q0 -138 -86.5 -220.5t-224.5 -82.5q-136 0 -262 49zM420 1200h-119l-199 291h119l139 -209l140 209h118z" />
    <glyph glyph-name="Tcommaaccent" unicode="&#x162;" horiz-adv-x="872" 
d="M500 0h-127v1311h-332v119h790v-119h-331v-1311zM412 -455h-109l57 291h142z" />
    <glyph glyph-name="tcommaaccent" unicode="&#x163;" horiz-adv-x="569" 
d="M524 119v-119q-46 -14 -135 -14q-97 0 -146.5 60.5t-49.5 172.5v715h-156v110h156v209l118 37v-246h213v-110h-213v-686q0 -79 27 -115.5t88 -36.5q53 0 98 23zM303 -455h-108l57 291h141z" />
    <glyph glyph-name="Tcaron" unicode="&#x164;" horiz-adv-x="872" 
d="M500 0h-127v1311h-332v119h790v-119h-331v-1311zM500 1489h-119l-199 291h119l139 -209l140 209h118z" />
    <glyph glyph-name="tcaron" unicode="&#x165;" horiz-adv-x="569" 
d="M524 119v-119q-46 -14 -135 -14q-97 0 -146.5 60.5t-49.5 172.5v715h-156v110h156v209l118 37v-246h213v-110h-213v-686q0 -79 27 -115.5t88 -36.5q53 0 98 23zM526 1155h-88l23 336h123z" />
    <glyph glyph-name="Tbar" unicode="&#x166;" horiz-adv-x="872" 
d="M500 0h-127v905h-252v94h252v312h-332v119h790v-119h-331v-312h250v-94h-250v-905z" />
    <glyph glyph-name="tbar" unicode="&#x167;" horiz-adv-x="569" 
d="M524 119v-119q-46 -14 -135 -14q-97 0 -146.5 60.5t-49.5 172.5v418h-138v86h138v211h-156v110h156v209l118 37v-246h213v-110h-213v-211h183v-86h-183v-389q0 -79 27 -115.5t88 -36.5q53 0 98 23z" />
    <glyph glyph-name="Utilde" unicode="&#x168;" horiz-adv-x="1175" 
d="M885 516v914h127v-916q0 -256 -107.5 -392t-316.5 -136q-214 0 -319 131.5t-105 396.5v916h127v-914q0 -214 72 -313t225 -99t225 99t72 313zM776 1741h86q-5 -86 -47 -144.5t-110 -58.5q-34 0 -68 14t-56 31t-49 31t-49 14q-33 0 -56 -30t-28 -70h-86q6 93 51 148
t119 55q37 0 81 -22.5t82 -45.5t59 -23q27 0 49 27.5t22 73.5z" />
    <glyph glyph-name="utilde" unicode="&#x169;" 
d="M817 0h-110q-9 82 -9 154h-4q-27 -73 -100.5 -120.5t-165.5 -47.5q-141 0 -215 85t-74 236v737h119v-712q0 -122 48.5 -179t146.5 -57q106 0 171.5 87.5t65.5 203.5v657h119v-741q0 -17 8 -303zM662 1452h86q-2 -81 -46.5 -142t-111.5 -61q-41 0 -83 22.5t-77.5 45
t-60.5 22.5q-32 0 -55.5 -29t-28.5 -71h-86q6 92 51 147.5t119 55.5q44 0 122 -45t99 -45q28 0 50 28.5t22 71.5z" />
    <glyph glyph-name="Umacron" unicode="&#x16a;" horiz-adv-x="1175" 
d="M885 516v914h127v-916q0 -256 -107.5 -392t-316.5 -136q-214 0 -319 131.5t-105 396.5v916h127v-914q0 -214 72 -313t225 -99t225 99t72 313zM829 1587h-487v94h487v-94z" />
    <glyph glyph-name="umacron" unicode="&#x16b;" 
d="M817 0h-110q-9 82 -9 154h-4q-27 -73 -100.5 -120.5t-165.5 -47.5q-141 0 -215 85t-74 236v737h119v-712q0 -122 48.5 -179t146.5 -57q106 0 171.5 87.5t65.5 203.5v657h119v-741q0 -17 8 -303zM719 1298h-488v95h488v-95z" />
    <glyph glyph-name="Ubreve" unicode="&#x16c;" horiz-adv-x="1175" 
d="M885 516v914h127v-916q0 -256 -107.5 -392t-316.5 -136q-214 0 -319 131.5t-105 396.5v916h127v-914q0 -214 72 -313t225 -99t225 99t72 313zM750 1739h81q-8 -114 -72 -182t-171 -68q-104 0 -170.5 67.5t-73.5 182.5h82q7 -73 52 -114.5t110 -41.5t108.5 40t53.5 116z
" />
    <glyph glyph-name="ubreve" unicode="&#x16d;" 
d="M817 0h-110q-9 82 -9 154h-4q-27 -73 -100.5 -120.5t-165.5 -47.5q-141 0 -215 85t-74 236v737h119v-712q0 -122 48.5 -179t146.5 -57q106 0 171.5 87.5t65.5 203.5v657h119v-741q0 -17 8 -303zM635 1450h82q-8 -111 -73 -180.5t-171 -69.5t-171 69.5t-73 180.5h82
q9 -73 53.5 -114.5t108.5 -41.5t109.5 42t52.5 114z" />
    <glyph glyph-name="Uring" unicode="&#x16e;" horiz-adv-x="1175" 
d="M885 516v914h127v-916q0 -256 -107.5 -392t-316.5 -136q-214 0 -319 131.5t-105 396.5v916h127v-914q0 -214 72 -313t225 -99t225 99t72 313zM592 1473q-85 0 -142 56.5t-57 141.5t57 142t142 57t142 -57t57 -142t-57 -141.5t-142 -56.5zM721 1671q0 54 -38 91.5
t-93 37.5q-52 0 -89.5 -38t-37.5 -91q0 -54 37 -91.5t92 -37.5q54 0 91.5 37.5t37.5 91.5z" />
    <glyph glyph-name="uring" unicode="&#x16f;" 
d="M817 0h-110q-9 82 -9 154h-4q-27 -73 -100.5 -120.5t-165.5 -47.5q-141 0 -215 85t-74 236v737h119v-712q0 -122 48.5 -179t146.5 -57q106 0 171.5 87.5t65.5 203.5v657h119v-741q0 -17 8 -303zM479 1163q-84 0 -141 58t-57 141q0 84 58 141.5t140 57.5q84 0 141.5 -58.5
t57.5 -140.5t-57.5 -140.5t-141.5 -58.5zM608 1362q0 54 -38 91.5t-93 37.5q-51 0 -89 -37.5t-38 -91.5t37.5 -91.5t91.5 -37.5t91.5 37.5t37.5 91.5z" />
    <glyph glyph-name="Uhungarumlaut" unicode="&#x170;" horiz-adv-x="1175" 
d="M885 516v914h127v-916q0 -256 -107.5 -392t-316.5 -136q-214 0 -319 131.5t-105 396.5v916h127v-914q0 -214 72 -313t225 -99t225 99t72 313zM477 1489h-102l155 291h144zM764 1489h-102l155 291h144z" />
    <glyph glyph-name="uhungarumlaut" unicode="&#x171;" 
d="M817 0h-110q-9 82 -9 154h-4q-27 -73 -100.5 -120.5t-165.5 -47.5q-141 0 -215 85t-74 236v737h119v-712q0 -122 48.5 -179t146.5 -57q106 0 171.5 87.5t65.5 203.5v657h119v-741q0 -17 8 -303zM367 1200h-103l156 291h143zM653 1200h-102l156 291h143z" />
    <glyph glyph-name="Uogonek" unicode="&#x172;" horiz-adv-x="1175" 
d="M752 -324l26 -51q-87 -35 -143 -35q-94 0 -147.5 43.5t-53.5 122.5q0 59 39.5 119t126.5 111h-14q-215 0 -318.5 131.5t-103.5 396.5v916h127v-914q0 -214 72 -313t225 -99q152 0 224.5 97t72.5 315v914h127v-916q0 -219 -80 -350.5t-215 -163.5q-164 -104 -164 -229
q0 -53 29 -86t71 -33q61 0 99 24z" />
    <glyph glyph-name="uogonek" unicode="&#x173;" 
d="M819 -324l27 -51q-80 -35 -144 -35q-94 0 -147 43t-53 121q0 70 55 136t152 110h-2q-9 61 -9 154h-4q-27 -73 -100.5 -120.5t-165.5 -47.5q-139 0 -214 85t-75 236v737h119v-712q0 -123 48.5 -179.5t146.5 -56.5q106 0 171.5 86.5t65.5 204.5v657h119v-741q0 -78 8 -303
h-24q-172 -104 -172 -229q0 -53 30 -86t72 -33q58 0 96 24z" />
    <glyph glyph-name="Wcircumflex" unicode="&#x174;" horiz-adv-x="1593" 
d="M1239 0h-160l-280 1286h-4l-303 -1286h-150l-317 1430h135l256 -1278h4l297 1278h174l268 -1278h4l279 1278h127zM1055 1489h-119l-139 209l-140 -209h-118l198 291h119z" />
    <glyph glyph-name="wcircumflex" unicode="&#x175;" horiz-adv-x="1327" 
d="M1032 0h-147l-226 909h-4l-213 -909h-139l-280 1044h127l219 -917h4l211 917h151l230 -917h4l217 917h119zM922 1200h-119l-139 209l-140 -209h-118l198 291h119z" />
    <glyph glyph-name="Ycircumflex" unicode="&#x176;" horiz-adv-x="1024" 
d="M575 0h-126v621l-361 809h135l291 -693l287 693h135l-361 -809v-621zM770 1489h-119l-139 209l-139 -209h-119l199 291h118z" />
    <glyph glyph-name="ycircumflex" unicode="&#x177;" horiz-adv-x="757" 
d="M78 -442l6 120q32 -22 84 -22q73 0 106 121l54 198l-308 1069h127l234 -868h4l233 868h119l-342 -1239q-10 -35 -13.5 -48t-13.5 -42.5t-16 -42t-18 -35t-22.5 -32.5t-27 -24.5t-34.5 -20t-41.5 -10.5t-50.5 -5q-40 0 -80 13zM637 1200h-119l-139 209l-139 -209h-119
l198 291h119z" />
    <glyph glyph-name="Ydieresis" unicode="&#x178;" horiz-adv-x="1024" 
d="M575 0h-126v621l-361 809h135l291 -693l287 693h135l-361 -809v-621zM418 1546h-119v201h119v-201zM725 1546h-119v201h119v-201z" />
    <glyph glyph-name="Zacute" unicode="&#x179;" horiz-adv-x="909" 
d="M836 0h-762v127l612 1184h-592v119h727v-123l-614 -1188h629v-119zM500 1489h-103l156 291h143z" />
    <glyph glyph-name="zacute" unicode="&#x17a;" horiz-adv-x="757" 
d="M696 0h-635v119l500 815h-483v110h610v-118l-500 -815h508v-111zM414 1200h-103l156 291h143z" />
    <glyph glyph-name="Zdotaccent" unicode="&#x17b;" horiz-adv-x="909" 
d="M836 0h-762v127l612 1184h-592v119h727v-123l-614 -1188h629v-119zM537 1546h-119v201h119v-201z" />
    <glyph glyph-name="zdotaccent" unicode="&#x17c;" horiz-adv-x="757" 
d="M696 0h-635v119l500 815h-483v110h610v-118l-500 -815h508v-111zM455 1257h-119v201h119v-201z" />
    <glyph glyph-name="Zcaron" unicode="&#x17d;" horiz-adv-x="909" 
d="M836 0h-762v127l612 1184h-592v119h727v-123l-614 -1188h629v-119zM514 1489h-119l-198 291h118l140 -209l139 209h119z" />
    <glyph glyph-name="zcaron" unicode="&#x17e;" horiz-adv-x="757" 
d="M696 0h-635v119l500 815h-483v110h610v-118l-500 -815h508v-111zM438 1200h-119l-198 291h119l139 -209l139 209h119z" />
    <glyph glyph-name="florin" unicode="&#x192;" horiz-adv-x="983" 
d="M66 -434l16 123q53 -17 72 -17q87 0 125 78.5t73 306.5l109 684h-185v103h201l23 145q13 82 27 142.5t38 123t54 101.5t76 63.5t104 24.5q64 0 119 -27l-19 -117q-44 33 -96 33q-116 0 -156 -239l-43 -250h184v-103h-200l-115 -727q-73 -469 -313 -469q-24 0 -53 6.5
t-41 14.5z" />
    <glyph glyph-name="Scommaaccent" unicode="&#x218;" horiz-adv-x="872" 
d="M115 53l8 148q53 -48 120.5 -72.5t131.5 -24.5q122 0 190 76t68 182q0 96 -47 164t-162 144q-196 128 -258 210.5t-62 217.5q0 164 103.5 255t271.5 91q108 0 223 -45l-6 -144q-64 40 -115.5 55t-111.5 15q-95 0 -162 -56.5t-67 -152.5q0 -34 6 -64t20.5 -55.5t26 -43.5
t35.5 -39.5t35 -31t39 -29t34 -24.5q57 -42 89 -66t71 -56t59 -52t43 -47t33.5 -49t20.5 -51t13 -59t3 -68q0 -173 -108 -284t-275 -111q-74 0 -148.5 18.5t-121.5 48.5zM418 -455h-109l58 291h141z" />
    <glyph glyph-name="scommaaccent" unicode="&#x219;" horiz-adv-x="720" 
d="M74 35l16 133q48 -31 115 -51.5t123 -20.5q80 0 136 52t56 128q0 66 -39.5 108t-161.5 103q-130 64 -180.5 123t-50.5 160q0 132 91 210.5t216 78.5q88 0 193 -31l-17 -123q-107 43 -178 43q-78 0 -128 -49t-50 -119q0 -61 28 -94.5t115 -79.5q137 -74 171 -98
q91 -64 111 -150q7 -31 7 -69q0 -138 -86.5 -220.5t-224.5 -82.5q-136 0 -262 49zM344 -455h-108l57 291h141z" />
    <glyph glyph-name="uni021A" unicode="&#x21a;" horiz-adv-x="872" 
d="M500 0h-127v1311h-332v119h790v-119h-331v-1311zM412 -455h-109l57 291h142z" />
    <glyph glyph-name="uni021B" unicode="&#x21b;" horiz-adv-x="569" 
d="M524 119v-119q-46 -14 -135 -14q-97 0 -146.5 60.5t-49.5 172.5v715h-156v110h156v209l118 37v-246h213v-110h-213v-686q0 -79 27 -115.5t88 -36.5q53 0 98 23zM303 -455h-108l57 291h141z" />
    <glyph glyph-name="dotlessj" unicode="&#x237;" horiz-adv-x="417" 
d="M-18 -442v118q24 -12 55 -12q27 0 44 4t34.5 17t26 42.5t8.5 75.5v1241h118v-1224q0 -44 -3 -76.5t-15.5 -72.5t-33.5 -65.5t-60.5 -43t-94.5 -17.5q-38 0 -79 13z" />
    <glyph glyph-name="circumflex" unicode="&#x2c6;" horiz-adv-x="380" 
d="M449 1200h-119l-140 209l-139 -209h-119l199 291h119z" />
    <glyph glyph-name="caron" unicode="&#x2c7;" horiz-adv-x="380" 
d="M250 1200h-119l-199 291h119l139 -209l140 209h119z" />
    <glyph glyph-name="uni02C9" unicode="&#x2c9;" horiz-adv-x="380" 
d="M434 1298h-487v95h487v-95z" />
    <glyph glyph-name="breve" unicode="&#x2d8;" horiz-adv-x="380" 
d="M352 1450h82q-8 -111 -73 -180.5t-171 -69.5t-170.5 69t-72.5 181h82q9 -74 53 -115t108 -41t109.5 42t52.5 114z" />
    <glyph glyph-name="dotaccent" unicode="&#x2d9;" horiz-adv-x="380" 
d="M250 1257h-119v201h119v-201z" />
    <glyph glyph-name="ring" unicode="&#x2da;" horiz-adv-x="380" 
d="M190 1163q-84 0 -141 58t-57 141q0 84 58 141.5t140 57.5q84 0 141.5 -58.5t57.5 -140.5t-57.5 -140.5t-141.5 -58.5zM319 1362q0 54 -38 91.5t-93 37.5q-52 0 -89.5 -37.5t-37.5 -91.5t37.5 -91.5t91.5 -37.5t91.5 37.5t37.5 91.5z" />
    <glyph glyph-name="ogonek" unicode="&#x2db;" horiz-adv-x="380" 
d="M336 -324l26 -51q-84 -35 -143 -35q-93 0 -147 44t-54 122q0 69 55 135.5t152 108.5h84q-172 -104 -172 -229q0 -50 30.5 -84.5t72.5 -34.5q58 0 96 24z" />
    <glyph glyph-name="tilde" unicode="&#x2dc;" horiz-adv-x="380" 
d="M379 1452h86q-2 -81 -46.5 -142t-111.5 -61q-41 0 -83 22.5t-77.5 45t-60.5 22.5q-32 0 -55.5 -29t-28.5 -71h-86q6 92 51 147.5t119 55.5q44 0 122 -45t99 -45q28 0 50 28.5t22 71.5z" />
    <glyph glyph-name="hungarumlaut" unicode="&#x2dd;" horiz-adv-x="380" 
d="M55 1200h-102l156 291h143zM342 1200h-102l155 291h144z" />
    <glyph glyph-name="uni0394" unicode="&#x394;" horiz-adv-x="1097" 
d="M1071 0h-1044l454 1430h135zM903 119l-352 1175h-4l-357 -1175h713z" />
    <glyph glyph-name="uni03A9" unicode="&#x3a9;" horiz-adv-x="1271" 
d="M1153 0h-391l4 119q124 122 191 287.5t67 341.5q0 258 -107.5 417.5t-277.5 159.5q-121 0 -211 -74.5t-136 -203.5t-46 -297t69.5 -338.5t188.5 -292.5l6 -119h-387v119h231q-243 261 -243 629q0 316 146 506t382 190q160 0 279.5 -88t181 -240t61.5 -346
q0 -181 -67 -356.5t-181 -294.5h240v-119z" />
    <glyph glyph-name="uni03BC" unicode="&#x3bc;" horiz-adv-x="1003" 
d="M938 102l4 -102q-36 -12 -74 -12q-80 0 -108.5 51.5t-34.5 181.5h-4q-80 -233 -270 -233q-122 0 -181 94h-4q8 -228 8 -258v-250h-127v1466h127v-538q0 -64 2 -108t8.5 -95t20 -83.5t34.5 -61.5t54.5 -42.5t77.5 -13.5q80 0 135 61.5t78 156t23 214.5v510h127v-815
q0 -70 12.5 -100.5t50.5 -30.5q17 0 41 8z" />
    <glyph glyph-name="pi" unicode="&#x3c0;" horiz-adv-x="1040" 
d="M961 119l4 -109q-9 -5 -50 -16q-46 -8 -61 -8q-83 0 -121.5 50t-38.5 154v744h-381v-934h-118v934h-148v110h914v-110h-148v-707q0 -73 17 -103t55 -30q40 0 76 25z" />
    <glyph glyph-name="uni1E9E" unicode="&#x1e9e;" horiz-adv-x="1120" 
d="M430 41l8 152q49 -41 114.5 -65t119.5 -24q109 0 167 70.5t58 187.5q0 86 -43.5 156t-140.5 158q-113 106 -159 186t-46 189q0 90 50.5 161t141.5 109q-68 6 -108 6q-155 0 -228 -78.5t-73 -238.5v-1010h-127v1020q0 211 111 317.5t325 106.5q123 0 307 -23v-116
q-113 -6 -187.5 -74t-74.5 -178q0 -77 41.5 -139t132.5 -146q46 -44 78 -79.5t67.5 -87t53.5 -110.5t18 -124q0 -166 -101 -274.5t-263 -108.5q-116 0 -242 57z" />
    <glyph glyph-name="uni2010" unicode="&#x2010;" horiz-adv-x="606" 
d="M512 512h-418v119h418v-119z" />
    <glyph glyph-name="endash" unicode="&#x2013;" horiz-adv-x="1024" 
d="M1024 516h-1024v111h1024v-111z" />
    <glyph glyph-name="emdash" unicode="&#x2014;" horiz-adv-x="2048" 
d="M2048 516h-2048v111h2048v-111z" />
    <glyph glyph-name="quoteleft" unicode="&#x2018;" horiz-adv-x="491" 
d="M272 1081h-151l131 455h119z" />
    <glyph glyph-name="quoteright" unicode="&#x2019;" horiz-adv-x="491" 
d="M240 1081h-119l98 455h152z" />
    <glyph glyph-name="quotesinglbase" unicode="&#x201a;" horiz-adv-x="491" 
d="M240 -270h-119l98 454h152z" />
    <glyph glyph-name="quotedblleft" unicode="&#x201c;" horiz-adv-x="983" 
d="M371 1081h-152l131 455h119zM666 1081h-152l131 455h119z" />
    <glyph glyph-name="quotedblright" unicode="&#x201d;" horiz-adv-x="983" 
d="M338 1081h-119l98 455h152zM633 1081h-119l98 455h152z" />
    <glyph glyph-name="quotedblbase" unicode="&#x201e;" horiz-adv-x="983" 
d="M338 -270h-119l98 454h152zM633 -270h-119l98 454h152z" />
    <glyph glyph-name="dagger" unicode="&#x2020;" horiz-adv-x="983" 
d="M547 0h-111v956h-286v103h286v371h111v-371h287v-103h-287v-956z" />
    <glyph glyph-name="daggerdbl" unicode="&#x2021;" horiz-adv-x="983" 
d="M547 0h-111v356h-286v103h286v512h-286v102h286v357h111v-357h287v-102h-287v-512h287v-103h-287v-356z" />
    <glyph glyph-name="bullet" unicode="&#x2022;" horiz-adv-x="1024" 
d="M512 356q-150 0 -254 106t-104 253q0 149 105 253.5t253 104.5q151 0 254.5 -105t103.5 -253q0 -147 -104 -253t-254 -106z" />
    <glyph glyph-name="ellipsis" unicode="&#x2026;" horiz-adv-x="2048" 
d="M422 0h-160v201h160v-201zM1104 0h-160v201h160v-201zM1786 0h-160v201h160v-201z" />
    <glyph glyph-name="perthousand" unicode="&#x2030;" horiz-adv-x="1781" 
d="M391 -68h-86l524 1563h86zM305 686q-112 0 -170.5 96.5t-58.5 282.5t58.5 282.5t170.5 96.5q230 0 230 -379t-230 -379zM305 788q63 0 91 59.5t28 217.5q0 156 -28 216t-93 60q-62 0 -89.5 -60t-27.5 -216q0 -157 27.5 -217t91.5 -60zM920 -14q-113 0 -171.5 96.5
t-58.5 282.5t58.5 282t171.5 96t171 -96t58 -282q0 -379 -229 -379zM1477 -14q-113 0 -171.5 96.5t-58.5 282.5t58.5 282t171.5 96t171 -96t58 -282q0 -379 -229 -379zM920 88q63 0 90.5 59.5t27.5 217.5t-27.5 217t-90.5 59q-64 0 -91.5 -58.5t-27.5 -217.5
q0 -156 28 -216.5t91 -60.5zM1477 88q63 0 90.5 59.5t27.5 217.5t-27.5 217t-90.5 59q-64 0 -91.5 -58.5t-27.5 -217.5q0 -156 28 -216.5t91 -60.5z" />
    <glyph glyph-name="guilsinglleft" unicode="&#x2039;" horiz-adv-x="530" 
d="M438 111h-110l-236 430l236 413h110l-219 -413z" />
    <glyph glyph-name="guilsinglright" unicode="&#x203a;" horiz-adv-x="530" 
d="M203 111h-111l219 413l-219 430h111l235 -430z" />
    <glyph glyph-name="fraction" unicode="&#x2044;" horiz-adv-x="342" 
d="M-104 -68h-91l641 1565h91z" />
    <glyph glyph-name="Euro" unicode="&#x20ac;" horiz-adv-x="983" 
d="M954 158l13 -135q-122 -37 -217 -37q-226 0 -374.5 143.5t-191.5 402.5h-149l16 86h125q-4 31 -4 95q0 65 4 98h-141l16 86h135q44 261 196 404t376 143q118 0 221 -47l-25 -133q-21 25 -93 44t-116 19q-160 0 -271 -111t-152 -319h575l-16 -86h-572l-1 -5
q0 -4 -0.5 -11.5t-1 -17.5t-1 -24.5t-0.5 -29.5q0 -55 4 -105h543l-14 -86h-516q43 -208 152.5 -319t270.5 -111q55 0 99.5 13t109.5 43z" />
    <glyph glyph-name="uni20B9" unicode="&#x20b9;" horiz-adv-x="983" 
d="M776 0h-158l-444 698v93h180q270 0 293 239h-473v90h473q-10 107 -77.5 163t-184.5 56h-211v91h752v-91h-260q92 -71 108 -219h152v-90h-152q-15 -157 -120.5 -249.5t-268.5 -92.5h-66z" />
    <glyph glyph-name="uni20BA" unicode="&#x20ba;" horiz-adv-x="983" 
d="M238 0v614l-158 -77v102l158 78v207l-158 -78v102l158 78v404h127v-340l346 174v-103l-346 -174v-207l346 174v-102l-346 -174v-576q97 0 167.5 26.5t115.5 74t71.5 125t36.5 168.5t10 215h127q0 -132 -13 -235.5t-48 -198t-91.5 -156.5t-147.5 -98.5t-212 -36.5
q-75 0 -143 14z" />
    <glyph glyph-name="uni20BC" unicode="&#x20bc;" horiz-adv-x="1347" 
d="M1290 0h-123v106q0 108 -12.5 225t-45 245t-79.5 229.5t-124 171.5t-171 78v-912h-123v912q-94 -8 -171 -78t-124 -171.5t-79.5 -229.5t-45 -245t-12.5 -225v-106h-123v131q0 131 17.5 265t59.5 272t103.5 246t158.5 180t216 80v256h123v-256q119 -8 216 -82
t158.5 -183.5t103.5 -248.5t59.5 -271t17.5 -258v-131z" />
    <glyph glyph-name="ruble" unicode="&#x20bd;" horiz-adv-x="983" 
d="M344 0h-127v391h-145v111h145v129h-145v110h145v689h270q435 0 435 -398q0 -193 -104 -297t-298 -104h-176v-129h305v-111h-305v-391zM344 741h129q161 0 237 67.5t76 223.5q0 151 -82.5 215t-248.5 64h-111v-570z" />
    <glyph glyph-name="afii61289" unicode="&#x2113;" horiz-adv-x="1024" 
d="M788 135l43 -57q-110 -107 -245 -107q-115 0 -179.5 67t-64.5 179v275l-123 -134l-45 58l168 172v549q0 150 67 245t175 95q94 0 148 -67.5t54 -184.5q0 -289 -340 -658v-331q0 -82 43.5 -132.5t116.5 -50.5q94 0 182 82zM446 1151v-485q122 141 187 282.5t65 265.5
q0 79 -33 133t-83 54q-61 0 -98.5 -67.5t-37.5 -182.5z" />
    <glyph glyph-name="trademark" unicode="&#x2122;" horiz-adv-x="2048" 
d="M485 578h-102v757h-277v95h656v-95h-277v-757zM1798 578h-102v757h-4l-306 -757h-61l-305 757h-4v-757h-103v852h177l270 -685l262 685h176v-852z" />
    <glyph glyph-name="Omega" unicode="&#x2126;" horiz-adv-x="1271" 
d="M1153 0h-391l4 119q124 122 191 287.5t67 341.5q0 258 -107.5 417.5t-277.5 159.5q-121 0 -211 -74.5t-136 -203.5t-46 -297t69.5 -338.5t188.5 -292.5l6 -119h-387v119h231q-243 261 -243 629q0 316 146 506t382 190q160 0 279.5 -88t181 -240t61.5 -346
q0 -181 -67 -356.5t-181 -294.5h240v-119z" />
    <glyph glyph-name="estimated" unicode="&#x212e;" horiz-adv-x="1228" 
d="M1014 285l71 -43q-92 -150 -201.5 -213.5t-265.5 -63.5q-233 0 -380.5 158.5t-147.5 406.5q0 249 148 407.5t380 158.5t380 -154.5t151 -411.5h-827v-370q121 -121 296 -121q131 0 225.5 59.5t170.5 186.5zM918 604v297q-129 123 -304 123q-169 0 -292 -123v-297h596z
" />
    <glyph glyph-name="partialdiff" unicode="&#x2202;" horiz-adv-x="970" 
d="M184 1389l-43 90q121 106 289 106q70 0 134 -27t122 -86.5t100.5 -146t67.5 -213.5t25 -281q0 -390 -123 -612.5t-338 -222.5q-158 0 -248 126t-90 331q0 221 112 368.5t275 147.5q93 0 173 -50.5t122 -130.5q2 14 2 68q0 284 -100 455.5t-244 171.5q-128 0 -236 -94z
M748 651q-35 97 -108.5 156t-160.5 59q-111 0 -195.5 -122t-84.5 -289q0 -160 62.5 -258.5t166.5 -98.5q125 0 211.5 153.5t108.5 399.5z" />
    <glyph glyph-name="Delta" unicode="&#x2206;" horiz-adv-x="1097" 
d="M1071 0h-1044l454 1430h135zM903 119l-352 1175h-4l-357 -1175h713z" />
    <glyph glyph-name="product" unicode="&#x220f;" horiz-adv-x="1472" 
d="M1331 -438h-160v1900h-872v-1900h-160v2048h1192v-2048z" />
    <glyph glyph-name="summation" unicode="&#x2211;" horiz-adv-x="1259" 
d="M1206 -438h-1155v131l660 901l-631 885v131h1102v-148h-895l616 -868l-653 -885h956v-147z" />
    <glyph glyph-name="minus" unicode="&#x2212;" horiz-adv-x="1228" 
d="M1133 467h-1037v102h1037v-102z" />
    <glyph glyph-name="uni2215" unicode="&#x2215;" horiz-adv-x="342" 
d="M-104 -68h-91l641 1565h91z" />
    <glyph glyph-name="uni2219" unicode="&#x2219;" horiz-adv-x="491" 
d="M246 518q-45 0 -79 33t-34 80q0 46 34 79t79 33q47 0 79.5 -33.5t32.5 -78.5t-33 -79t-79 -34z" />
    <glyph glyph-name="radical" unicode="&#x221a;" horiz-adv-x="1032" 
d="M621 -438h-154l-332 684l-96 -45l-57 123l229 106l309 -649l377 1829h156z" />
    <glyph glyph-name="infinity" unicode="&#x221e;" horiz-adv-x="1554" 
d="M778 424q-14 -13 -50 -45t-52.5 -46t-49 -39.5t-55.5 -37.5t-54 -26.5t-63 -20.5t-67 -6q-133 0 -217 88t-84 225q0 139 82.5 229.5t214.5 90.5q93 0 183.5 -53.5t211.5 -180.5q133 141 215.5 189.5t182.5 48.5q126 0 209 -93.5t83 -224.5q0 -142 -83.5 -231.5
t-217.5 -89.5q-93 0 -186 53.5t-203 169.5zM866 514q98 -96 168 -135t140 -39q73 0 117 48t44 128q0 83 -45.5 133.5t-124.5 50.5q-20 0 -39 -4.5t-55 -20.5t-88.5 -57t-116.5 -104zM690 514q-104 98 -175.5 141t-131.5 43q-72 0 -118 -52t-46 -130q0 -81 47 -128.5
t123 -47.5q127 0 301 174z" />
    <glyph glyph-name="integral" unicode="&#x222b;" horiz-adv-x="1134" 
d="M440 -33v1059q0 21 -1 70.5t-1 82.5t1.5 84.5t8.5 87t18 79.5t30.5 73t46.5 55t66.5 39t88.5 13q73 0 117.5 -31t44.5 -84q0 -36 -24.5 -57t-61.5 -21q-22 0 -41 13.5t-29 30.5t-22 30.5t-23 13.5q-63 0 -63 -200q0 -98 4 -168v-1088v-22q1 -42 0.5 -68.5t-5 -80
t-13.5 -90t-28 -82.5t-45.5 -74t-69.5 -48t-97 -20q-57 0 -99 30t-42 76q0 29 23 51.5t52 22.5q21 0 38.5 -13.5t27 -29.5t21 -29.5t20.5 -13.5q14 0 24 10t16 35t9.5 47t5 65.5t2 70.5t0.5 81z" />
    <glyph glyph-name="approxequal" unicode="&#x2248;" horiz-adv-x="1214" 
d="M1047 850h102q-17 -143 -86.5 -221t-179.5 -78q-62 0 -143.5 22.5t-148 50t-140.5 50t-123 22.5q-60 0 -102 -44t-54 -113h-104q19 146 87 224.5t177 78.5q66 0 176 -36.5t217.5 -73t167.5 -36.5q58 0 99.5 40t54.5 114zM1044 479h103q-17 -142 -86 -219.5t-178 -77.5
q-67 0 -181.5 37t-221 74t-154.5 37q-58 0 -101 -43.5t-53 -116.5h-106q23 149 90.5 226t173.5 77q56 0 137 -22.5t149.5 -50t146 -50t128.5 -22.5q118 0 153 151z" />
    <glyph glyph-name="notequal" unicode="&#x2260;" horiz-adv-x="1214" 
d="M1126 233h-587l-156 -299l-127 66l121 233h-289v148h365l137 260h-502v145h580l157 304l127 -66l-125 -238h299v-145h-374l-138 -260h512v-148z" />
    <glyph glyph-name="lessequal" unicode="&#x2264;" horiz-adv-x="1214" 
d="M1126 168l-1038 377v153l1038 383v-159l-835 -299l835 -297v-158zM1126 -61h-1038v147h1038v-147z" />
    <glyph glyph-name="greaterequal" unicode="&#x2265;" horiz-adv-x="1214" 
d="M1126 545l-1038 -377v158l836 297l-836 299v159l1038 -383v-153zM1126 -61h-1038v147h1038v-147z" />
    <glyph glyph-name="lozenge" unicode="&#x25ca;" horiz-adv-x="1214" 
d="M680 -72h-148l-350 801l350 801h148l352 -801zM606 84l271 645l-271 645l-268 -645z" />
    <glyph glyph-name="grave.cap" unicode="&#xe300;" horiz-adv-x="454" 
d="M322 1489h-103l-196 291h143z" />
    <glyph glyph-name="acute.cap" unicode="&#xe301;" horiz-adv-x="454" 
d="M240 1489h-103l156 291h143z" />
    <glyph glyph-name="circumflex.cap" unicode="&#xe302;" horiz-adv-x="454" 
d="M485 1489h-118l-140 209l-139 -209h-119l199 291h119z" />
    <glyph glyph-name="caron.cap" unicode="&#xe303;" horiz-adv-x="454" 
d="M287 1489h-119l-199 291h119l139 -209l140 209h118z" />
    <glyph glyph-name="tilde.cap" unicode="&#xe304;" horiz-adv-x="454" 
d="M416 1741h86q-5 -86 -47.5 -144.5t-110.5 -58.5q-43 0 -84 22.5t-75.5 45t-61.5 22.5q-33 0 -56 -30t-28 -70h-86q6 93 51 148t119 55q37 0 81 -22.5t81.5 -45.5t58.5 -23q27 0 49.5 27.5t22.5 73.5z" />
    <glyph glyph-name="dieresis.cap" unicode="&#xe305;" horiz-adv-x="454" 
d="M133 1546h-119v201h119v-201zM440 1546h-118v201h118v-201z" />
    <glyph glyph-name="macron.cap" unicode="&#xe306;" horiz-adv-x="454" 
d="M471 1587h-487v94h487v-94z" />
    <glyph glyph-name="breve.cap" unicode="&#xe307;" horiz-adv-x="454" 
d="M389 1739h82q-8 -114 -72.5 -182t-171.5 -68q-104 0 -170 67.5t-73 182.5h82q7 -73 51.5 -114.5t109.5 -41.5t108.5 40t53.5 116z" />
    <glyph glyph-name="ring.cap" unicode="&#xe308;" horiz-adv-x="454" 
d="M227 1473q-85 0 -141.5 56.5t-56.5 141.5t56.5 142t141.5 57t142 -57t57 -142t-57 -141.5t-142 -56.5zM356 1671q0 54 -38 91.5t-93 37.5q-51 0 -89 -38t-38 -91q0 -54 37 -91.5t92 -37.5q54 0 91.5 37.5t37.5 91.5z" />
    <glyph glyph-name="hungarumlaut.cap" unicode="&#xe309;" horiz-adv-x="454" 
d="M92 1489h-102l155 291h144zM379 1489h-103l156 291h143z" />
    <glyph glyph-name="dotaccent.cap" unicode="&#xe30a;" horiz-adv-x="454" 
d="M287 1546h-119v201h119v-201z" />
    <glyph glyph-name="caron.alt" unicode="&#xe30b;" horiz-adv-x="417" 
d="M121 1155h-88l22 336h123z" />
    <glyph glyph-name="commaaccent" unicode="&#xe30c;" horiz-adv-x="417" 
d="M199 -455h-109l57 291h142z" />
    <glyph glyph-name="commaaccent.alt" unicode="&#xe30d;" horiz-adv-x="417" 
d="M244 1200h-138l91 291h104z" />
    <glyph glyph-name="uniF8FF" unicode="&#xf8ff;" horiz-adv-x="1048" 
d="M1049 0h-1049v1470h1049v-1470zM946 102v1264h-844v-1264h844zM555 479h-94l-4 39q0 111 26 164q23 51 103 127q47 44 70.5 80t23.5 82q0 72 -46.5 123t-109.5 51q-70 0 -113 -49.5t-55 -145.5l-102 17q12 135 84 207.5t192 72.5q111 0 182.5 -74t71.5 -194
q0 -75 -29.5 -130t-103.5 -118q-73 -66 -84 -102q-12 -38 -12 -150zM569 240h-114v137h114v-137z" />
    </font>
</defs>
</svg>
