<svg width="22" height="22" viewBox="0 0 22 22" fill="none" xmlns="http://www.w3.org/2000/svg">
<mask id="mask0_2164_12250" style="mask-type:alpha" maskUnits="userSpaceOnUse" x="0" y="0" width="22" height="22">
<rect x="0.866699" y="0.759766" width="20.48" height="20.48" fill="#D9D9D9"/>
</mask>
<g mask="url(#mask0_2164_12250)">
<path d="M11.1086 18.8768L10.3209 16.5143H4.80707C4.37385 16.5143 4.00298 16.36 3.69447 16.0516C3.38595 15.7432 3.23169 15.3724 3.23169 14.9392V4.70156C3.23169 4.26844 3.38595 3.89708 3.69447 3.58747C4.00298 3.27786 4.37385 3.12305 4.80707 3.12305H9.53319L10.2224 5.48561H17.4101C17.8696 5.48561 18.247 5.63326 18.5424 5.92857C18.8378 6.2239 18.9855 6.60125 18.9855 7.06062V17.2983C18.9855 17.7314 18.8378 18.1028 18.5424 18.4124C18.247 18.722 17.8696 18.8768 17.4101 18.8768H11.1086ZM7.29356 13.0463C8.20136 13.0463 8.94572 12.7542 9.52664 12.17C10.1076 11.5858 10.398 10.8276 10.398 9.89553C10.398 9.77627 10.3958 9.6759 10.3915 9.59441C10.3871 9.5129 10.3717 9.43057 10.3454 9.34743H7.22593V10.5634H8.9851C8.8768 10.9343 8.67632 11.2217 8.38367 11.4258C8.09102 11.6298 7.73437 11.7318 7.31372 11.7318C6.80105 11.7318 6.36068 11.5464 5.99261 11.1755C5.62454 10.8047 5.4405 10.3523 5.4405 9.81841C5.4405 9.28453 5.62402 8.83216 5.99107 8.46129C6.35812 8.09041 6.79726 7.90498 7.30851 7.90498C7.54447 7.90498 7.76665 7.9471 7.97505 8.03133C8.18346 8.11557 8.37464 8.24467 8.5486 8.41862L9.51186 7.498C9.23508 7.21246 8.90316 6.98983 8.51608 6.83012C8.129 6.67039 7.71896 6.59052 7.28596 6.59052C6.40683 6.59052 5.65548 6.90368 5.0319 7.53C4.40832 8.15632 4.09652 8.91912 4.09652 9.81841C4.09652 10.7177 4.40898 11.4805 5.03391 12.1068C5.65885 12.7331 6.41206 13.0463 7.29356 13.0463ZM12.5641 13.4401L13.0007 13.0249C12.818 12.7996 12.6489 12.5827 12.4936 12.3743C12.3382 12.1659 12.1906 11.9446 12.0505 11.7105L12.5641 13.4401ZM13.5488 12.4342C13.9174 12.0017 14.1972 11.5889 14.3881 11.1958C14.579 10.8027 14.7073 10.4934 14.773 10.268H11.6435L11.8782 11.0975H12.6604C12.7647 11.295 12.8894 11.5083 13.0345 11.7373C13.1795 11.9663 13.3509 12.1986 13.5488 12.4342ZM11.8963 18.0891H17.4101C17.6464 18.0891 17.8367 18.0137 17.9811 17.8627C18.1256 17.7118 18.1978 17.5248 18.1978 17.3017V7.06468C18.1978 6.82843 18.1256 6.63756 17.9812 6.49207C17.8369 6.34656 17.6466 6.27381 17.4104 6.27381H10.462L11.3862 9.46722H12.9395V8.63929H13.7457V9.46722H16.6224V10.268H15.6167C15.4853 10.7647 15.2896 11.2499 15.0298 11.7236C14.7699 12.1973 14.4617 12.6382 14.1051 13.0463L16.2499 15.1566L15.6804 15.7261L13.5488 13.6026L12.8382 14.3263L13.4716 16.5137L11.8963 18.0891Z" fill="white"/>
</g>
</svg>
