<svg width="31" height="29" viewBox="0 0 31 29" fill="none" xmlns="http://www.w3.org/2000/svg">
<path d="M10.1361 12.7822L17.887 12.7822L11.6267 20.5331C8.1156 20.5331 6.42511 16.2282 8.99799 13.8391L10.1361 12.7822Z" fill="#FBC010"/>
<path d="M6.45703 14.8291C3.58189 14.8291 1.24341 17.1676 1.24316 20.043C1.24316 22.9185 3.58174 25.2578 6.45703 25.2578C9.33224 25.2577 11.6689 22.9184 11.6689 20.043V19.9434L11.6162 19.9512C11.4066 19.9818 11.1923 19.9971 10.9775 19.9971H7.74316C7.02339 19.997 6.37427 19.5962 6.05273 18.9521C5.73116 18.3077 5.79798 17.5483 6.23047 16.9707L7.67871 15.041L7.72168 14.9834L7.65234 14.9678C7.26274 14.8766 6.86359 14.8291 6.45703 14.8291ZM24.54 14.8291C24.2142 14.8291 23.895 14.8607 23.585 14.918L23.5332 14.9277L23.5488 14.9775L25.1123 19.8613C25.2128 20.1765 25.0388 20.5136 24.7236 20.6143C24.6635 20.6335 24.602 20.6426 24.541 20.6426C24.287 20.6424 24.0512 20.4795 23.9697 20.2256L22.4082 15.3438L22.3916 15.293L22.3438 15.3154C20.5636 16.1456 19.3283 17.9522 19.3281 20.043C19.3281 22.9184 21.6659 25.2576 24.541 25.2578C27.4163 25.2578 29.7539 22.9185 29.7539 20.043C29.7537 17.1676 27.4152 14.8291 24.54 14.8291ZM10.8652 12.2832C10.7723 12.7349 10.5799 13.17 10.291 13.5557L7.19043 17.6904C7.03031 17.9046 7.00515 18.1769 7.12402 18.416C7.24425 18.6551 7.47633 18.7978 7.74316 18.7979H10.9775C12.0023 18.7979 12.9824 18.3077 13.5996 17.4873L17.4736 12.3203L17.5293 12.2461H10.873L10.8652 12.2832ZM27.7705 7.07812C26.6766 7.07823 25.7861 7.9685 25.7861 9.0625C25.7861 10.1565 26.6766 11.0468 27.7705 11.0469C28.1513 11.0469 28.4628 10.7367 28.4629 10.3545V7.77051C28.4628 7.38825 28.1513 7.07812 27.7705 7.07812ZM9.73145 11.5723C9.7235 11.3656 9.68117 11.1591 9.60547 10.958L9.51855 10.7588C9.17482 10.0726 8.50999 9.66211 7.74316 9.66211H3.22754C2.89671 9.66211 2.62795 9.39336 2.62793 9.0625C2.62793 8.73162 2.8967 8.46289 3.22754 8.46289H7.74219C8.87958 8.46292 9.90828 9.05476 10.4805 10.0225L10.5889 10.2217C10.7149 10.4764 10.8053 10.7411 10.8613 11.0098L10.8691 11.0469H18.4609L18.4746 11.0312C19.0535 10.3894 19.7353 9.86444 20.4873 9.47559L20.5225 9.45801L20.5098 9.41992L19.6631 6.77246C19.2281 5.40961 17.9735 4.49414 16.5439 4.49414H13.5586C13.2279 4.494 12.96 4.22532 12.96 3.89453C12.9602 3.56394 13.228 3.29604 13.5586 3.2959H16.5439C18.4962 3.2959 20.2099 4.54454 20.8057 6.40625L21.623 8.96191L21.6367 9.00488L21.6807 8.99219C21.9131 8.92283 22.148 8.86322 22.3877 8.81836C23.2563 8.65289 23.961 8.51935 24.6045 8.47949L24.6406 8.47754L24.6475 8.44238C24.9365 6.98321 26.2266 5.87891 27.7695 5.87891C28.812 5.87897 29.6601 6.72788 29.6602 7.77051V10.3545C29.6601 11.3971 28.812 12.246 27.7695 12.2461C26.2393 12.2461 24.9583 11.1592 24.6553 9.71777L24.6465 9.67871L24.6064 9.68164C24.0619 9.72064 23.4116 9.84384 22.6104 9.99609C22.4203 10.0326 22.2336 10.0781 22.0488 10.1328L22.0039 10.1465L22.0186 10.1914L23.1533 13.7393L23.166 13.7793L23.208 13.7705C23.6387 13.6795 24.0834 13.6309 24.541 13.6309H24.5605L24.5615 13.6289C28.0885 13.6391 30.955 16.5123 30.9551 20.042C30.9551 23.5779 28.0785 26.4549 24.543 26.4551C21.0073 26.4551 18.1299 23.578 18.1299 20.042C18.1299 17.4143 19.719 15.1501 21.9863 14.1611L22.0254 14.1445L22.0127 14.1045L20.9131 10.6709L20.8955 10.6162L20.8457 10.6445C20.2468 10.9831 19.7068 11.4313 19.25 11.9688L19.2852 11.999L19.249 11.9688L19.2461 11.9746C19.2466 11.9738 19.243 11.9789 19.2324 11.9932L19.0391 12.251C18.9091 12.4243 18.7252 12.6698 18.5049 12.9629C18.0641 13.5493 17.4781 14.3268 16.8936 15.1035C16.309 15.8803 15.7257 16.656 15.2881 17.2373C15.0694 17.5279 14.8873 17.77 14.7598 17.9395C14.696 18.0241 14.6455 18.0904 14.6113 18.1357C14.5943 18.1583 14.5811 18.1758 14.5723 18.1875C14.5679 18.1934 14.5647 18.1982 14.5625 18.2012C14.5614 18.2026 14.5601 18.2034 14.5596 18.2041V18.2051H14.5586C14.115 18.7944 13.5364 19.2592 12.8818 19.5674L12.8525 19.5811L12.8545 19.6123C12.8635 19.7548 12.8691 19.8972 12.8691 20.042C12.8691 23.5779 9.9926 26.455 6.45703 26.4551C2.92136 26.4551 0.0449219 23.578 0.0449219 20.042C0.0449995 16.506 2.92141 13.6289 6.45703 13.6289C7.14298 13.6289 7.8148 13.7368 8.45703 13.9482L8.48926 13.959L8.50879 13.9326L9.33105 12.8369C9.58342 12.5007 9.73136 11.957 9.73145 11.5742V11.5723Z" fill="#231F20" stroke="#FFF8E5" stroke-width="0.09301"/>
</svg>
