<svg width="28" height="29" viewBox="0 0 28 29" fill="none" xmlns="http://www.w3.org/2000/svg">
<g clip-path="url(#clip0_2164_11269)">
<path d="M12.3675 17.0149C9.44383 18.2164 10.6063 21.8808 10.2363 23.862H16.5764V19.0331C15.7345 16.2077 13.3496 16.6113 12.3675 17.0149Z" fill="#F9C623"/>
<path d="M7.22527 11.7367C7.91494 11.7367 8.58911 11.5322 9.16254 11.1491C9.73598 10.7659 10.1829 10.2213 10.4468 9.58413C10.7108 8.94696 10.7798 8.24584 10.6453 7.56943C10.5107 6.89301 10.1786 6.27169 9.69095 5.78402C9.20329 5.29635 8.58196 4.96425 7.90555 4.8297C7.22914 4.69515 6.52802 4.76421 5.89086 5.02813C5.2537 5.29205 4.7091 5.73899 4.32595 6.31243C3.94279 6.88586 3.73828 7.56004 3.73828 8.24971C3.73828 9.17452 4.10566 10.0615 4.7596 10.7154C5.41354 11.3693 6.30047 11.7367 7.22527 11.7367ZM7.27066 5.62753C7.7969 5.62581 8.31181 5.78028 8.7502 6.07139C9.18859 6.36249 9.53073 6.77714 9.73331 7.26283C9.93589 7.74851 9.98979 8.28339 9.88818 8.79973C9.78658 9.31607 9.53404 9.79065 9.16254 10.1634C8.79105 10.5361 8.31731 10.7902 7.80131 10.8935C7.28531 10.9968 6.75026 10.9446 6.26391 10.7437C5.77757 10.5427 5.3618 10.2019 5.06926 9.76446C4.77671 9.32703 4.62055 8.81262 4.62055 8.28638C4.62169 7.58307 4.90099 6.90876 5.39749 6.41063C5.89398 5.9125 6.56736 5.63099 7.27066 5.62753Z" fill="#231F20"/>
<path d="M6.31783 8.43991V8.06744H6.60709C6.79729 8.06744 7.01126 8.00404 7.05881 7.80591H6.31783V7.44928H7.05485C7.0073 7.26701 6.8488 7.18776 6.63086 7.18776H6.31783V6.83113H8.18416V7.18776H7.60564C7.673 7.25512 7.72055 7.35418 7.7364 7.44928H8.18416V7.80591H7.74036C7.69281 8.1982 7.42336 8.3884 7.03107 8.3884L7.90282 9.59697H7.10636L6.31783 8.43991Z" fill="#231F20"/>
<path d="M18.319 7.77383C19.0087 7.77383 19.6829 7.56932 20.2563 7.18616C20.8297 6.803 21.2767 6.25841 21.5406 5.62124C21.8045 4.98407 21.8736 4.28295 21.739 3.60654C21.6045 2.93012 21.2724 2.3088 20.7847 1.82113C20.297 1.33346 19.6757 1.00136 18.9993 0.866808C18.3229 0.732261 17.6218 0.801316 16.9846 1.06524C16.3474 1.32916 15.8029 1.7761 15.4197 2.34954C15.0365 2.92297 14.832 3.59715 14.832 4.28682C14.832 5.21163 15.1994 6.09857 15.8533 6.75251C16.5073 7.40645 17.3942 7.77383 18.319 7.77383ZM18.3644 1.66464C18.8906 1.66292 19.4056 1.81739 19.8439 2.1085C20.2823 2.3996 20.6245 2.81425 20.8271 3.29994C21.0296 3.78562 21.0835 4.3205 20.9819 4.83684C20.8803 5.35318 20.6278 5.82775 20.2563 6.20047C19.8848 6.57319 19.4111 6.82729 18.8951 6.93059C18.3791 7.03389 17.844 6.98175 17.3577 6.78077C16.8713 6.57978 16.4555 6.239 16.163 5.80157C15.8705 5.36414 15.7143 4.84973 15.7143 4.32349C15.7154 3.62018 15.9947 2.94587 16.4912 2.44774C16.9877 1.94961 17.6611 1.6681 18.3644 1.66464Z" fill="#231F20"/>
<path d="M17.4116 4.47702V4.10455H17.7008C17.891 4.10455 18.105 4.04115 18.1526 3.84302H17.4116V3.48639H18.1486C18.101 3.30412 17.9425 3.22487 17.7246 3.22487H17.4116V2.86824H19.2779V3.22487H18.6994C18.7667 3.29223 18.8143 3.39129 18.8301 3.48639H19.2779V3.84302H18.8341C18.7866 4.23531 18.5171 4.42551 18.1248 4.42551L18.9966 5.63408H18.2001L17.4116 4.47702Z" fill="#231F20"/>
<path d="M14.2987 10.084L5.00628 17.8143C4.88025 17.9211 4.77949 18.0552 4.71145 18.2067C4.64341 18.3582 4.60982 18.5233 4.61315 18.6897C4.61366 18.9863 4.71772 19.2732 4.90692 19.4995C5.09779 19.7434 5.37452 19.903 5.679 19.9446C5.98348 19.9862 6.29204 19.9067 6.53989 19.7227L7.1231 19.2412V25.8071H5.91348C5.74595 25.7971 5.57816 25.8218 5.42041 25.8798C5.26266 25.9379 5.11829 26.028 4.99616 26.1446C4.87402 26.2612 4.77671 26.4019 4.7102 26.558C4.64369 26.7142 4.60938 26.8824 4.60938 27.0525C4.60938 27.2225 4.64369 27.3908 4.7102 27.5469C4.77671 27.703 4.87402 27.8437 4.99616 27.9603C5.11829 28.077 5.26266 28.167 5.42041 28.2251C5.57816 28.2831 5.74595 28.3079 5.91348 28.2978H23.4485C23.7619 28.279 24.0563 28.1395 24.2716 27.9081C24.4869 27.6766 24.6068 27.3705 24.6068 27.0525C24.6068 26.7344 24.4869 26.4283 24.2716 26.1968C24.0563 25.9654 23.7619 25.826 23.4485 25.8071H22.1525V19.2938L22.7357 19.7709C22.9273 19.9285 23.1671 20.0136 23.414 20.0116C23.5985 20.0104 23.7805 19.9673 23.9464 19.8855C24.1124 19.8037 24.2582 19.6853 24.373 19.5389C24.4778 19.4106 24.5566 19.2625 24.6047 19.1033C24.6529 18.944 24.6696 18.7767 24.6538 18.6109C24.6422 18.4671 24.6022 18.3271 24.5361 18.1993C24.4701 18.0715 24.3794 17.9584 24.2693 17.8668L21.7335 15.7745V12.9117H22.0575C22.172 12.9117 22.2819 12.8656 22.3629 12.7835C22.444 12.7014 22.4895 12.5901 22.4895 12.474V10.942C22.4895 10.8259 22.444 10.7145 22.3629 10.6325C22.2819 10.5504 22.172 10.5043 22.0575 10.5043H19.0334C18.9189 10.5043 18.809 10.5504 18.728 10.6325C18.647 10.7145 18.6014 10.8259 18.6014 10.942V12.4915C18.6014 12.6076 18.647 12.719 18.728 12.801C18.809 12.8831 18.9189 12.9292 19.0334 12.9292H19.3618V13.8485L14.8257 10.084C14.7502 10.0251 14.6575 9.99316 14.5622 9.99316C14.4669 9.99316 14.3742 10.0251 14.2987 10.084ZM21.6427 11.3622V12.0669H19.4827V11.3622H21.6427ZM23.8373 27.0196C23.8373 27.1257 23.7961 27.2274 23.7225 27.3028C23.6488 27.3782 23.5489 27.4212 23.4442 27.4223H5.91348C5.8581 27.4282 5.80212 27.4222 5.74917 27.4048C5.69622 27.3873 5.64747 27.3588 5.6061 27.321C5.56473 27.2833 5.53165 27.2371 5.50901 27.1856C5.48636 27.134 5.47466 27.0782 5.47466 27.0218C5.47466 26.9654 5.48636 26.9096 5.50901 26.8581C5.53165 26.8065 5.56473 26.7604 5.6061 26.7226C5.64747 26.6848 5.69622 26.6563 5.74917 26.6389C5.80212 26.6214 5.8581 26.6154 5.91348 26.6213H23.4485C23.552 26.6224 23.6509 26.6649 23.7237 26.7395C23.7965 26.8141 23.8373 26.9147 23.8373 27.0196ZM18.0442 25.7765H11.2444V22.1171C11.2456 21.2259 11.5955 20.3715 12.2174 19.7413C12.8394 19.1111 13.6826 18.7565 14.5622 18.7554H14.7264C15.6059 18.7565 16.4492 19.1111 17.0711 19.7413C17.6931 20.3715 18.043 21.2259 18.0442 22.1171V25.7765ZM21.3317 25.7765H18.8779V22.1171C18.8756 21.0022 18.4375 19.9336 17.6594 19.1452C16.8814 18.3568 15.8267 17.9129 14.7264 17.9106H14.5622C13.4618 17.9129 12.4072 18.3568 11.6291 19.1452C10.8511 19.9336 10.4129 21.0022 10.4106 22.1171V25.7765H7.95254V18.5234L8.53575 18.0375L14.5838 13.0343L21.3317 18.6065V25.7765ZM20.2085 12.9117H20.904V15.1004L20.2085 14.5138V12.9117ZM21.7378 16.8513L23.7509 18.5234C23.7767 18.5457 23.7978 18.5731 23.8126 18.604C23.8275 18.6349 23.8359 18.6685 23.8373 18.7028C23.842 18.7581 23.8356 18.8137 23.8185 18.8663C23.8014 18.919 23.774 18.9676 23.738 19.0093C23.6878 19.0833 23.6124 19.1359 23.5262 19.1569C23.4401 19.1779 23.3493 19.1659 23.2714 19.1231L14.9078 12.1195C14.818 12.0573 14.7103 12.027 14.6017 12.0333C14.493 12.0396 14.3895 12.0822 14.3073 12.1545L7.9655 17.4378C7.9655 17.4378 7.2743 18.0069 7.26998 18.0156L6.01285 19.0574C5.93717 19.103 5.84747 19.1183 5.76121 19.1005C5.67496 19.0827 5.59834 19.033 5.54628 18.9611C5.48375 18.8847 5.44871 18.789 5.44692 18.6897C5.44627 18.6506 5.45361 18.6117 5.46848 18.5755C5.48335 18.5394 5.50542 18.5067 5.53332 18.4796L14.5665 10.9551L19.3747 14.8946L21.7378 16.8513Z" fill="#231F20"/>
</g>
<defs>
<clipPath id="clip0_2164_11269">
<rect y="0.5" width="28" height="28" rx="3" fill="white"/>
</clipPath>
</defs>
</svg>
