<svg width="38" height="38" viewBox="0 0 38 38" fill="none" xmlns="http://www.w3.org/2000/svg">
<g clip-path="url(#clip0_2164_12056)">
<path d="M3.19141 0.5H34.8086C36.1956 0.500003 37.5 1.95576 37.5 4V34C37.5 36.0442 36.1956 37.5 34.8086 37.5H3.19141C1.80442 37.5 0.5 36.0442 0.5 34V4C0.5 1.95575 1.80442 0.5 3.19141 0.5Z" fill="white" stroke="#A6A6A6"/>
<path d="M18.4041 18.5503L10.0769 27.3425C10.3349 28.2996 11.2107 28.9998 12.2506 28.9998C12.665 28.9998 13.0559 28.8909 13.3921 28.6886L13.4156 28.673L22.7827 23.2965L18.3963 18.5425L18.4041 18.5503Z" fill="#EA4335"/>
<path d="M26.8272 17.0583H26.8194L22.777 14.7163L18.2185 18.7545L22.7926 23.3063L26.8194 20.9954C27.5231 20.6141 28 19.875 28 19.0269C28 18.1787 27.5309 17.4396 26.8272 17.0661V17.0583Z" fill="#FBBC04"/>
<path d="M10.0782 10.6616C10.0313 10.8484 10 11.0351 10 11.2374V26.7756C10 26.9779 10.0235 27.1646 10.0782 27.3514L18.6869 18.7847L10.0782 10.6616Z" fill="#4285F4"/>
<path d="M18.4667 19.0061L22.7749 14.7189L13.4156 9.31901C13.0794 9.11671 12.6806 9 12.2506 9C11.2107 9 10.3349 9.70805 10.0769 10.6573L18.4667 18.9983V19.0061Z" fill="#34A853"/>
</g>
<defs>
<clipPath id="clip0_2164_12056">
<rect width="38" height="38" fill="white"/>
</clipPath>
</defs>
</svg>
