<svg width="40" height="40" viewBox="0 0 40 40" fill="none" xmlns="http://www.w3.org/2000/svg">
<circle cx="20" cy="20.5" r="14.5" fill="#FFE582"/>
<mask id="mask0_2164_8988" style="mask-type:alpha" maskUnits="userSpaceOnUse" x="0" y="0" width="40" height="40">
<rect width="40" height="40" fill="#D9D9D9"/>
</mask>
<g mask="url(#mask0_2164_8988)">
<path d="M20.3254 30.1384L24.3842 18.7396C24.4657 18.5051 24.4426 18.2986 24.315 18.1202C24.1873 17.9418 24.0065 17.8525 23.7725 17.8525H20.5V9.7925C20.5 9.58681 20.4065 9.4738 20.2195 9.4535C20.0326 9.43322 19.9065 9.50561 19.8413 9.67067L15.7825 21.1303C15.701 21.3661 15.7241 21.5732 15.8517 21.7516C15.9793 21.93 16.1602 22.0193 16.3942 22.0193H19.6667V30.0176C19.6667 30.2217 19.7602 30.3339 19.9471 30.3542C20.1341 30.3745 20.2602 30.3025 20.3254 30.1384ZM20.0056 35C17.9313 35 15.9812 34.6064 14.1552 33.8192C12.3291 33.032 10.7407 31.9636 9.38996 30.6141C8.03921 29.2646 6.96986 27.6777 6.18192 25.8534C5.39397 24.0291 5 22.0798 5 20.0056C5 17.9313 5.3936 15.9812 6.18079 14.1552C6.96801 12.3291 8.03638 10.7407 9.38587 9.38996C10.7354 8.03921 12.3223 6.96986 14.1466 6.18192C15.9709 5.39397 17.9202 5 19.9944 5C22.0687 5 24.0188 5.3936 25.8448 6.18079C27.6709 6.96801 29.2593 8.03637 30.61 9.38587C31.9608 10.7354 33.0301 12.3223 33.8181 14.1466C34.606 15.9709 35 17.9202 35 19.9944C35 22.0687 34.6064 24.0188 33.8192 25.8448C33.032 27.6709 31.9636 29.2593 30.6141 30.61C29.2646 31.9608 27.6777 33.0301 25.8534 33.8181C24.0291 34.606 22.0798 35 20.0056 35ZM20 33.3333C23.6944 33.3333 26.8403 32.0347 29.4375 29.4375C32.0347 26.8403 33.3333 23.6944 33.3333 20C33.3333 16.3056 32.0347 13.1597 29.4375 10.5625C26.8403 7.96528 23.6944 6.66667 20 6.66667C16.3056 6.66667 13.1597 7.96528 10.5625 10.5625C7.96528 13.1597 6.66667 16.3056 6.66667 20C6.66667 23.6944 7.96528 26.8403 10.5625 29.4375C13.1597 32.0347 16.3056 33.3333 20 33.3333Z" fill="#1C1B1F"/>
</g>
</svg>
