<svg width="28" height="28" viewBox="0 0 28 28" fill="none" xmlns="http://www.w3.org/2000/svg">
<path d="M12.3591 13.2283C15.1519 13.2283 17.416 15.4923 17.416 18.2852L17.416 24.8819L12.3073 24.8819L12.3073 13.2283L12.3591 13.2283Z" fill="#FBC010"/>
<path fill-rule="evenodd" clip-rule="evenodd" d="M20.7905 25.5289H4.18486C3.95355 25.5395 3.75586 25.3294 3.74903 25.1061C3.74872 25.1017 3.74847 25.0973 3.74827 25.0929C3.74775 25.0811 3.7478 25.0694 3.74839 25.0579C3.73848 24.7419 3.74192 24.4246 3.74536 24.1077C3.74711 23.947 3.74885 23.7863 3.74885 23.626V13.6387H1.62527C1.61223 13.6387 1.59927 13.6388 1.58638 13.6389C1.4582 13.6396 1.33679 13.6403 1.21778 13.569C0.953207 13.411 0.926429 13.0368 1.14356 12.8288C1.18337 12.7907 1.22632 12.7551 1.26908 12.7197C1.29009 12.7023 1.31106 12.685 1.33159 12.6673L3.87605 10.4826L7.9317 7.00066L11.6908 3.77343L13.3454 2.35269C13.5358 2.18915 13.7736 2.19031 13.9628 2.35269C13.973 2.36155 13.9832 2.37034 13.9935 2.37912C14.0037 2.38791 14.014 2.3967 14.0242 2.40556C14.7638 3.04035 15.5033 3.67528 16.2428 4.31025C16.5842 4.60333 16.9255 4.89642 17.2669 5.18952C17.8237 5.66772 18.3806 6.14579 18.9375 6.62391C18.9741 6.65529 19.0106 6.68667 19.0472 6.71805C19.0477 6.54574 19.0488 6.37341 19.0499 6.20111C19.0514 5.9642 19.053 5.72735 19.053 5.49065C19.053 5.45865 19.0525 5.4255 19.052 5.39167C19.047 5.05734 19.0411 4.65645 19.4989 4.63693C19.6691 4.62976 19.8407 4.63215 20.0119 4.63454C20.0974 4.63574 20.1827 4.63693 20.2678 4.63693H21.5305C21.5806 4.63693 21.6372 4.63431 21.6973 4.63153C21.8349 4.62516 21.9911 4.61794 22.131 4.63918C22.2262 4.63867 22.315 4.67517 22.3864 4.73399C22.4001 4.74418 22.4131 4.75527 22.4252 4.76735C22.4734 4.81542 22.5078 4.87309 22.5282 4.93484C22.5444 4.97985 22.5533 5.02734 22.5533 5.07526V9.72878C23.6823 10.6981 24.811 11.6672 25.94 12.6363C25.9631 12.6562 25.9864 12.6759 26.0098 12.6956C26.0533 12.7322 26.0967 12.7689 26.1388 12.8071C26.3678 13.0145 26.3766 13.3976 26.0902 13.569C25.9714 13.6403 25.8498 13.6396 25.7218 13.6389C25.7089 13.6388 25.696 13.6387 25.683 13.6387H23.5719C23.5729 13.8221 23.5693 14.0061 23.5657 14.1897C23.5625 14.3505 23.5594 14.5109 23.5594 14.6702V25.0932C23.5594 25.3294 23.3588 25.5289 23.1228 25.5289C23.1193 25.5289 23.1158 25.5289 23.1123 25.5289C23.1055 25.5288 23.0986 25.5287 23.0916 25.5289C22.5808 25.5421 22.0687 25.5377 21.557 25.5333C21.3013 25.5311 21.0458 25.5289 20.7905 25.5289ZM21.6804 8.97133V5.50837H19.9264V7.46525L20.1261 7.63671L21.6804 8.97133ZM4.62145 24.6501C4.99762 24.6463 5.37425 24.6496 5.75063 24.6528C6.00631 24.655 6.26189 24.6572 6.51714 24.6572H22.6737C22.6726 24.4738 22.6763 24.2898 22.6799 24.1062C22.683 23.9454 22.6862 23.785 22.6862 23.6257V13.2027C22.6862 12.9665 22.8867 12.767 23.1228 12.767H24.7575L22.5561 10.8771C21.8733 10.2909 21.1904 9.70474 20.5079 9.11855L18.6771 7.54647C17.9466 6.91952 17.2162 6.29243 16.4858 5.6653C16.1502 5.37716 15.8146 5.08901 15.4789 4.80085L13.6627 3.24169C13.4321 3.44608 13.1943 3.64393 12.957 3.84137C12.7907 3.97972 12.6247 4.11787 12.4615 4.25795L9.4164 6.87227C8.65188 7.52848 7.88748 8.18481 7.12312 8.84111C6.71272 9.19349 6.30233 9.54586 5.89194 9.8982C5.40408 10.3172 4.91615 10.7361 4.42821 11.155C3.94124 11.5731 3.45426 11.9912 2.96735 12.4094C2.8283 12.5286 2.68932 12.6479 2.55034 12.7673H4.18486C4.4215 12.7673 4.62145 12.9674 4.62145 13.203V13.2239C4.63194 13.5447 4.62844 13.8667 4.62494 14.1885C4.6232 14.3492 4.62145 14.5098 4.62145 14.6702V24.6501ZM1.78784 13.4228C1.75672 13.4697 1.73313 13.4653 1.7708 13.4365C1.77658 13.4321 1.78225 13.4275 1.78784 13.4228ZM25.5421 13.4406C25.5761 13.4647 25.5521 13.4763 25.518 13.4208C25.5258 13.4278 25.5337 13.4347 25.5421 13.4406Z" fill="#231F20"/>
<path d="M4.18486 25.5289V25.4371L4.18068 25.4373L4.18486 25.5289ZM3.74903 25.1061L3.84083 25.1033L3.84056 25.0995L3.74903 25.1061ZM3.74827 25.0929L3.83994 25.0888L3.83994 25.0888L3.74827 25.0929ZM3.74839 25.0579L3.84035 25.0626L3.84011 25.055L3.74839 25.0579ZM3.74536 24.1077L3.6536 24.1067L3.74536 24.1077ZM3.74885 13.6387H3.84062V13.5469H3.74885V13.6387ZM1.58638 13.6389L1.58689 13.7306H1.58689L1.58638 13.6389ZM1.21778 13.569L1.26492 13.4903L1.26484 13.4902L1.21778 13.569ZM1.14356 12.8288L1.20704 12.8951L1.20707 12.8951L1.14356 12.8288ZM1.26908 12.7197L1.21056 12.649H1.21056L1.26908 12.7197ZM1.33159 12.6673L1.39134 12.737L1.39136 12.737L1.33159 12.6673ZM3.87605 10.4826L3.81627 10.413L3.81627 10.413L3.87605 10.4826ZM7.9317 7.00066L7.87192 6.93103L7.87192 6.93103L7.9317 7.00066ZM11.6908 3.77343L11.7505 3.84305L11.7505 3.84305L11.6908 3.77343ZM13.3454 2.35269L13.4052 2.42231L13.4052 2.42229L13.3454 2.35269ZM13.9628 2.35269L14.023 2.28345L14.0225 2.28306L13.9628 2.35269ZM13.9935 2.37912L13.9338 2.44882L13.9338 2.44882L13.9935 2.37912ZM14.0242 2.40556L13.964 2.4748L13.9644 2.47519L14.0242 2.40556ZM16.2428 4.31025L16.3026 4.24063L16.2428 4.31025ZM17.2669 5.18952L17.3267 5.1199L17.3267 5.11989L17.2669 5.18952ZM18.9375 6.62391L18.8777 6.69353L18.8777 6.69353L18.9375 6.62391ZM19.0472 6.71805L18.9874 6.78768L19.1383 6.91725L19.1389 6.71833L19.0472 6.71805ZM19.0499 6.20111L19.1417 6.2017V6.2017L19.0499 6.20111ZM19.052 5.39167L18.9602 5.39303V5.39303L19.052 5.39167ZM19.4989 4.63693L19.495 4.54524L19.495 4.54525L19.4989 4.63693ZM20.0119 4.63454L20.0132 4.54279L20.0119 4.63454ZM21.6973 4.63153L21.7016 4.72319L21.6973 4.63153ZM22.131 4.63918L22.1172 4.7299L22.1243 4.73098L22.1315 4.73094L22.131 4.63918ZM22.3864 4.73399L22.328 4.8049L22.3317 4.80762L22.3864 4.73399ZM22.4252 4.76735L22.3604 4.8323L22.3604 4.83236L22.4252 4.76735ZM22.5282 4.93484L22.4411 4.96367L22.4419 4.96591L22.5282 4.93484ZM22.5533 9.72878H22.4615V9.77093L22.4935 9.7984L22.5533 9.72878ZM25.94 12.6363L25.9999 12.5667L25.9997 12.5666L25.94 12.6363ZM26.0098 12.6956L25.9507 12.7657L25.9507 12.7657L26.0098 12.6956ZM26.1388 12.8071L26.0771 12.875L26.0772 12.8751L26.1388 12.8071ZM26.0902 13.569L26.043 13.4902L26.0429 13.4903L26.0902 13.569ZM25.7218 13.6389L25.7213 13.7306L25.7218 13.6389ZM23.5719 13.6387V13.5469H23.4796L23.4801 13.6392L23.5719 13.6387ZM23.5657 14.1897L23.4739 14.1879V14.1879L23.5657 14.1897ZM23.1123 25.5289L23.1115 25.6206H23.1115L23.1123 25.5289ZM23.0916 25.5289L23.094 25.6207L23.0942 25.6207L23.0916 25.5289ZM21.557 25.5333L21.5578 25.4415L21.557 25.5333ZM21.6804 5.50837H21.7721V5.4166H21.6804V5.50837ZM21.6804 8.97133L21.6206 9.04095L21.7721 9.17107V8.97133H21.6804ZM19.9264 5.50837V5.4166H19.8347V5.50837H19.9264ZM19.9264 7.46525H19.8347V7.50741L19.8666 7.53487L19.9264 7.46525ZM20.1261 7.63671L20.0663 7.70633L20.0663 7.70633L20.1261 7.63671ZM5.75063 24.6528L5.74985 24.7446L5.75063 24.6528ZM4.62145 24.6501H4.52969V24.7428L4.62237 24.7419L4.62145 24.6501ZM22.6737 24.6572V24.749H22.766L22.7655 24.6567L22.6737 24.6572ZM22.6799 24.1062L22.7716 24.108V24.108L22.6799 24.1062ZM24.7575 12.767V12.8587H25.0053L24.8173 12.6973L24.7575 12.767ZM22.5561 10.8771L22.4963 10.9467L22.5561 10.8771ZM20.5079 9.11855L20.5677 9.04893L20.5677 9.04893L20.5079 9.11855ZM18.6771 7.54647L18.7369 7.47685L18.7369 7.47684L18.6771 7.54647ZM16.4858 5.6653L16.426 5.73492L16.4858 5.6653ZM15.4789 4.80085L15.5387 4.73123L15.5387 4.73123L15.4789 4.80085ZM13.6627 3.24169L13.7225 3.17206L13.6617 3.11992L13.6018 3.17302L13.6627 3.24169ZM12.957 3.84137L13.0157 3.91191V3.91191L12.957 3.84137ZM12.4615 4.25795L12.4017 4.18832L12.4017 4.18832L12.4615 4.25795ZM9.4164 6.87227L9.47617 6.9419L9.47618 6.94189L9.4164 6.87227ZM7.12312 8.84111L7.1829 8.91073L7.12312 8.84111ZM5.89194 9.8982L5.83216 9.82857L5.83215 9.82858L5.89194 9.8982ZM4.42821 11.155L4.36844 11.0854L4.42821 11.155ZM2.96735 12.4094L3.02709 12.4791L3.02714 12.479L2.96735 12.4094ZM2.55034 12.7673L2.49056 12.6976L2.3026 12.859H2.55034V12.7673ZM4.62145 13.2239H4.52964L4.52974 13.2269L4.62145 13.2239ZM4.62494 14.1885L4.7167 14.1895L4.62494 14.1885ZM1.78784 13.4228L1.86431 13.4735L1.72879 13.3526L1.78784 13.4228ZM1.7708 13.4365L1.71506 13.3636L1.71506 13.3636L1.7708 13.4365ZM25.5421 13.4406L25.4889 13.5154L25.489 13.5154L25.5421 13.4406ZM25.518 13.4208L25.5794 13.3526L25.4398 13.4689L25.518 13.4208ZM4.18486 25.6207H20.7905V25.4372H4.18486V25.6207ZM3.65731 25.1089C3.6655 25.3767 3.90014 25.6338 4.18904 25.6206L4.18068 25.4373C4.00696 25.4452 3.84622 25.2821 3.84075 25.1033L3.65731 25.1089ZM3.6566 25.097C3.65683 25.1022 3.65713 25.1074 3.6575 25.1126L3.84056 25.0995C3.84031 25.096 3.8401 25.0924 3.83994 25.0888L3.6566 25.097ZM3.65675 25.0532C3.656 25.0676 3.65594 25.0823 3.6566 25.097L3.83994 25.0888C3.83955 25.08 3.83959 25.0713 3.84003 25.0626L3.65675 25.0532ZM3.6536 24.1067C3.65017 24.4233 3.64669 24.7425 3.65667 25.0607L3.84011 25.055C3.83027 24.7412 3.83368 24.4259 3.83712 24.1087L3.6536 24.1067ZM3.65709 23.626C3.65709 23.7858 3.65535 23.9459 3.6536 24.1067L3.83712 24.1087C3.83887 23.9481 3.84062 23.7869 3.84062 23.626H3.65709ZM3.65709 13.6387V23.626H3.84062V13.6387H3.65709ZM1.62527 13.7305H3.74885V13.5469H1.62527V13.7305ZM1.58689 13.7306C1.59983 13.7305 1.61253 13.7305 1.62527 13.7305V13.5469C1.61193 13.5469 1.59872 13.547 1.58586 13.5471L1.58689 13.7306ZM1.17064 13.6477C1.31469 13.734 1.46163 13.7313 1.58689 13.7306L1.58586 13.5471C1.45477 13.5478 1.35889 13.5465 1.26492 13.4903L1.17064 13.6477ZM1.08009 12.7626C0.822481 13.0093 0.850293 13.4564 1.17073 13.6478L1.26484 13.4902C1.05612 13.3656 1.03038 13.0643 1.20704 12.8951L1.08009 12.7626ZM1.21056 12.649C1.16825 12.6841 1.12268 12.7217 1.08005 12.7626L1.20707 12.8951C1.24406 12.8596 1.28439 12.8262 1.3276 12.7904L1.21056 12.649ZM1.27183 12.5977C1.25202 12.6147 1.23168 12.6315 1.21056 12.649L1.3276 12.7904C1.3485 12.7731 1.3701 12.7552 1.39134 12.737L1.27183 12.5977ZM3.81627 10.413L1.27181 12.5977L1.39136 12.737L3.93582 10.5523L3.81627 10.413ZM7.87192 6.93103L3.81627 10.413L3.93582 10.5523L7.99147 7.07028L7.87192 6.93103ZM11.631 3.7038L7.87192 6.93103L7.99147 7.07028L11.7505 3.84305L11.631 3.7038ZM13.2857 2.28307L11.631 3.7038L11.7505 3.84305L13.4052 2.42231L13.2857 2.28307ZM14.0225 2.28306C13.9133 2.18929 13.7859 2.13888 13.6547 2.13871C13.5234 2.13853 13.3956 2.18862 13.2856 2.28308L13.4052 2.42229C13.4856 2.35322 13.5719 2.32212 13.6544 2.32223C13.737 2.32235 13.8231 2.35371 13.903 2.42232L14.0225 2.28306ZM14.0532 2.30943C14.0429 2.3006 14.0329 2.29204 14.023 2.28345L13.9026 2.42193C13.9131 2.43106 13.9236 2.44007 13.9338 2.44882L14.0532 2.30943ZM14.0844 2.33631C14.0739 2.32719 14.0634 2.31817 14.0532 2.30942L13.9338 2.44882C13.9441 2.45765 13.9541 2.46621 13.964 2.4748L14.0844 2.33631ZM16.3026 4.24063C15.5631 3.60566 14.8236 2.97072 14.084 2.33592L13.9644 2.47519C14.704 3.10998 15.4435 3.7449 16.1831 4.37987L16.3026 4.24063ZM17.3267 5.11989C16.9853 4.8268 16.644 4.53371 16.3026 4.24063L16.1831 4.37987C16.5244 4.67295 16.8658 4.96605 17.2071 5.25914L17.3267 5.11989ZM18.9973 6.55428C18.4404 6.07616 17.8835 5.59809 17.3267 5.1199L17.2071 5.25913C17.7639 5.73734 18.3208 6.21542 18.8777 6.69353L18.9973 6.55428ZM19.107 6.64843C19.0704 6.61705 19.0338 6.58566 18.9973 6.55428L18.8777 6.69353C18.9143 6.72492 18.9509 6.75629 18.9874 6.78768L19.107 6.64843ZM18.9582 6.20052C18.957 6.3728 18.9559 6.54529 18.9554 6.71777L19.1389 6.71833C19.1395 6.5462 19.1406 6.37403 19.1417 6.2017L18.9582 6.20052ZM18.9612 5.49065C18.9612 5.727 18.9597 5.96357 18.9582 6.20052L19.1417 6.2017C19.1432 5.96484 19.1447 5.72769 19.1447 5.49065H18.9612ZM18.9602 5.39303C18.9607 5.427 18.9612 5.45945 18.9612 5.49065H19.1447C19.1447 5.45785 19.1442 5.424 19.1437 5.39031L18.9602 5.39303ZM19.495 4.54525C19.367 4.5507 19.2632 4.58328 19.1818 4.64142C19.1003 4.69968 19.0486 4.7784 19.0161 4.86353C18.9535 5.02774 18.9578 5.23095 18.9602 5.39303L19.1437 5.39031C19.1412 5.21806 19.14 5.05365 19.1876 4.92896C19.2102 4.86964 19.2426 4.82358 19.2886 4.79074C19.3347 4.75777 19.4018 4.73291 19.5028 4.72861L19.495 4.54525ZM20.0132 4.54279C19.8424 4.5404 19.6683 4.53795 19.495 4.54524L19.5027 4.72861C19.67 4.72157 19.839 4.7239 20.0106 4.7263L20.0132 4.54279ZM20.2678 4.54516C20.1835 4.54516 20.0987 4.54398 20.0132 4.54279L20.0106 4.7263C20.096 4.72749 20.182 4.72869 20.2678 4.72869V4.54516ZM21.5305 4.54516H20.2678V4.72869H21.5305V4.54516ZM21.6931 4.53986C21.6324 4.54267 21.578 4.54516 21.5305 4.54516V4.72869C21.5831 4.72869 21.642 4.72595 21.7016 4.72319L21.6931 4.53986ZM22.1448 4.54845C21.9943 4.52561 21.8287 4.53359 21.6931 4.53986L21.7016 4.72319C21.8411 4.71674 21.9879 4.71027 22.1172 4.7299L22.1448 4.54845ZM22.4448 4.66316C22.3591 4.59261 22.25 4.54678 22.1305 4.54742L22.1315 4.73094C22.2024 4.73056 22.2709 4.75772 22.3281 4.80482L22.4448 4.66316ZM22.49 4.7024C22.4746 4.68705 22.4583 4.67307 22.4412 4.66036L22.3317 4.80762C22.342 4.81528 22.3515 4.8235 22.3604 4.8323L22.49 4.7024ZM22.6153 4.90601C22.5906 4.8313 22.5489 4.76105 22.49 4.70234L22.3604 4.83236C22.398 4.86979 22.4249 4.91488 22.4411 4.96366L22.6153 4.90601ZM22.645 5.07526C22.645 5.01604 22.6341 4.95805 22.6145 4.90377L22.4419 4.96591C22.4547 5.00165 22.4615 5.03865 22.4615 5.07526H22.645ZM22.645 9.72878V5.07526H22.4615V9.72878H22.645ZM25.9997 12.5666C24.8707 11.5976 23.742 10.6285 22.613 9.65915L22.4935 9.7984C23.6225 10.7677 24.7512 11.7368 25.8802 12.7059L25.9997 12.5666ZM26.069 12.6254C26.0455 12.6057 26.0225 12.5863 25.9999 12.5667L25.8801 12.7058C25.9036 12.7261 25.9273 12.7461 25.9507 12.7657L26.069 12.6254ZM26.2005 12.7391C26.157 12.6997 26.1122 12.6619 26.069 12.6254L25.9507 12.7657C25.9943 12.8026 26.0365 12.8382 26.0771 12.875L26.2005 12.7391ZM26.1373 13.6477C26.4875 13.4382 26.4652 12.9789 26.2003 12.739L26.0772 12.8751C26.2704 13.0501 26.2656 13.3571 26.043 13.4902L26.1373 13.6477ZM25.7213 13.7306C25.8463 13.7313 25.9935 13.734 26.1374 13.6477L26.0429 13.4903C25.9493 13.5465 25.8533 13.5478 25.7223 13.5471L25.7213 13.7306ZM25.683 13.7305C25.6957 13.7305 25.7083 13.7305 25.7213 13.7306L25.7223 13.5471C25.7095 13.547 25.6963 13.5469 25.683 13.5469V13.7305ZM23.5719 13.7305H25.683V13.5469H23.5719V13.7305ZM23.6574 14.1915C23.661 14.0081 23.6647 13.8229 23.6636 13.6382L23.4801 13.6392C23.4812 13.8212 23.4776 14.0041 23.4739 14.1879L23.6574 14.1915ZM23.6511 14.6702C23.6511 14.5119 23.6543 14.3524 23.6574 14.1915L23.4739 14.1879C23.4708 14.3485 23.4676 14.5098 23.4676 14.6702H23.6511ZM23.6511 25.0932V14.6702H23.4676V25.0932H23.6511ZM23.1228 25.6207C23.4093 25.6207 23.6511 25.3803 23.6511 25.0932H23.4676C23.4676 25.2784 23.3084 25.4372 23.1228 25.4372V25.6207ZM23.1115 25.6206C23.1149 25.6206 23.1188 25.6207 23.1228 25.6207V25.4372C23.1198 25.4372 23.1167 25.4371 23.1132 25.4371L23.1115 25.6206ZM23.0942 25.6207C23.0992 25.6205 23.1043 25.6206 23.1115 25.6206L23.1132 25.4371C23.1066 25.437 23.098 25.4369 23.0891 25.4372L23.0942 25.6207ZM21.5562 25.6251C22.0676 25.6295 22.5813 25.6339 23.094 25.6207L23.0893 25.4372C22.5803 25.4503 22.0697 25.4459 21.5578 25.4415L21.5562 25.6251ZM20.7905 25.6207C21.0453 25.6207 21.3005 25.6229 21.5562 25.6251L21.5578 25.4415C21.3022 25.4394 21.0462 25.4372 20.7905 25.4372V25.6207ZM21.5886 5.50837V8.97133H21.7721V5.50837H21.5886ZM19.9264 5.60013H21.6804V5.4166H19.9264V5.60013ZM20.0182 7.46525V5.50837H19.8347V7.46525H20.0182ZM20.1859 7.56709L19.9862 7.39564L19.8666 7.53487L20.0663 7.70633L20.1859 7.56709ZM21.7401 8.90171L20.1859 7.56709L20.0663 7.70633L21.6206 9.04095L21.7401 8.90171ZM5.75142 24.561C5.37517 24.5578 4.9977 24.5546 4.62054 24.5583L4.62237 24.7419C4.99755 24.7381 5.37332 24.7413 5.74985 24.7446L5.75142 24.561ZM6.51714 24.5654C6.26235 24.5654 6.00717 24.5632 5.75142 24.561L5.74985 24.7446C6.00546 24.7468 6.26143 24.749 6.51714 24.749V24.5654ZM22.6737 24.5654H6.51714V24.749H22.6737V24.5654ZM22.5881 24.1044C22.5845 24.2878 22.5809 24.473 22.5819 24.6577L22.7655 24.6567C22.7644 24.4747 22.768 24.2918 22.7716 24.108L22.5881 24.1044ZM22.5944 23.6257C22.5944 23.784 22.5913 23.9435 22.5881 24.1044L22.7716 24.108C22.7748 23.9474 22.778 23.7861 22.778 23.6257H22.5944ZM22.5944 13.2027V23.6257H22.778V13.2027H22.5944ZM23.1228 12.6752C22.8363 12.6752 22.5944 12.9156 22.5944 13.2027H22.778C22.778 13.0175 22.9372 12.8587 23.1228 12.8587V12.6752ZM24.7575 12.6752H23.1228V12.8587H24.7575V12.6752ZM22.4963 10.9467L24.6977 12.8366L24.8173 12.6973L22.6159 10.8075L22.4963 10.9467ZM20.4481 9.18816C21.1306 9.77436 21.8135 10.3606 22.4963 10.9467L22.6159 10.8075C21.933 10.2213 21.2502 9.63511 20.5677 9.04893L20.4481 9.18816ZM18.6173 7.61609L20.4481 9.18817L20.5677 9.04893L18.7369 7.47685L18.6173 7.61609ZM16.426 5.73492C17.1564 6.36205 17.8868 6.98915 18.6173 7.61611L18.7369 7.47684C18.0064 6.84989 17.276 6.22281 16.5456 5.59568L16.426 5.73492ZM15.4191 4.87048C15.7548 5.15863 16.0904 5.44678 16.426 5.73492L16.5456 5.59568C16.21 5.30753 15.8743 5.01938 15.5387 4.73123L15.4191 4.87048ZM13.6029 3.31132L15.4191 4.87048L15.5387 4.73123L13.7225 3.17206L13.6029 3.31132ZM13.0157 3.91191C13.2528 3.71462 13.4917 3.51587 13.7236 3.31036L13.6018 3.17302C13.3725 3.3763 13.1358 3.57323 12.8983 3.77083L13.0157 3.91191ZM12.5213 4.32757C12.6838 4.18804 12.8493 4.05034 13.0157 3.91191L12.8983 3.77083C12.7321 3.9091 12.5655 4.0477 12.4017 4.18832L12.5213 4.32757ZM9.47618 6.94189L12.5213 4.32757L12.4017 4.18832L9.35663 6.80264L9.47618 6.94189ZM7.1829 8.91073C7.94726 8.25443 8.71165 7.5981 9.47617 6.9419L9.35664 6.80263C8.59211 7.45885 7.8277 8.11519 7.06334 8.77149L7.1829 8.91073ZM5.95171 9.96782C6.3621 9.61548 6.7725 9.26311 7.1829 8.91073L7.06334 8.77149C6.65294 9.12387 6.24255 9.47624 5.83216 9.82857L5.95171 9.96782ZM4.48799 11.2246C4.97592 10.8057 5.46386 10.3868 5.95173 9.96781L5.83215 9.82858C5.3443 10.2476 4.85637 10.6665 4.36844 11.0854L4.48799 11.2246ZM3.02714 12.479C3.51404 12.0608 4.00101 11.6427 4.48799 11.2246L4.36844 11.0854C3.88146 11.5035 3.39448 11.9216 2.90757 12.3398L3.02714 12.479ZM2.61012 12.8369C2.74909 12.7176 2.88806 12.5983 3.02709 12.4791L2.90762 12.3397C2.76855 12.459 2.62955 12.5783 2.49056 12.6976L2.61012 12.8369ZM4.18486 12.6755H2.55034V12.859H4.18486V12.6755ZM4.71322 13.203C4.71322 12.9166 4.47208 12.6755 4.18486 12.6755V12.859C4.37091 12.859 4.52969 13.0182 4.52969 13.203H4.71322ZM4.71322 13.2239V13.203H4.52969V13.2239H4.71322ZM4.7167 14.1895C4.72019 13.8681 4.72373 13.544 4.71317 13.2209L4.52974 13.2269C4.54014 13.5453 4.53668 13.8654 4.53319 14.1875L4.7167 14.1895ZM4.71322 14.6702C4.71322 14.5104 4.71496 14.3503 4.7167 14.1895L4.53319 14.1875C4.53144 14.3481 4.52969 14.5093 4.52969 14.6702H4.71322ZM4.71322 24.6501V14.6702H4.52969V24.6501H4.71322ZM1.71137 13.3721C1.70677 13.379 1.70372 13.3821 1.70334 13.3825C1.70309 13.3827 1.70432 13.3815 1.70714 13.3796C1.70798 13.379 1.71749 13.3722 1.73299 13.3686C1.73961 13.3671 1.76125 13.3628 1.78659 13.3731C1.82084 13.387 1.83951 13.418 1.84267 13.4474C1.84505 13.4697 1.83849 13.4862 1.83628 13.4914C1.83329 13.4984 1.83009 13.5033 1.82847 13.5056C1.82308 13.5134 1.81995 13.5145 1.82654 13.5094L1.71506 13.3636C1.70281 13.373 1.68851 13.3855 1.67791 13.4007C1.675 13.4048 1.67087 13.4113 1.6673 13.4198C1.66452 13.4263 1.65772 13.4439 1.66019 13.467C1.66344 13.4973 1.68253 13.5289 1.71748 13.5431C1.74352 13.5537 1.76617 13.5493 1.77405 13.5475C1.7921 13.5434 1.80522 13.5348 1.81054 13.5312C1.81784 13.5262 1.82441 13.5206 1.83016 13.5151C1.84178 13.504 1.85335 13.4901 1.86431 13.4735L1.71137 13.3721ZM1.82654 13.5094C1.8337 13.504 1.84049 13.4984 1.84689 13.4931L1.72879 13.3526C1.724 13.3566 1.71946 13.3603 1.71506 13.3636L1.82654 13.5094ZM25.489 13.5154C25.493 13.5183 25.485 13.514 25.4772 13.5C25.4749 13.4958 25.4712 13.4882 25.4689 13.4778C25.4667 13.468 25.4642 13.4484 25.473 13.426C25.4832 13.4001 25.5039 13.3821 25.5267 13.374C25.5463 13.3671 25.5629 13.3687 25.5711 13.3701C25.5873 13.3729 25.5975 13.3795 25.5996 13.3809C25.6015 13.3821 25.6029 13.3832 25.6036 13.3838C25.6044 13.3845 25.6049 13.3849 25.6049 13.3849C25.605 13.385 25.6016 13.3816 25.5962 13.3728L25.4398 13.4689C25.4514 13.4877 25.4639 13.5038 25.4769 13.5165C25.4834 13.5228 25.491 13.5292 25.4996 13.5347C25.5066 13.5393 25.5208 13.5477 25.54 13.551C25.5497 13.5527 25.5676 13.5543 25.5882 13.547C25.6119 13.5385 25.6333 13.52 25.6438 13.4931C25.653 13.4698 25.6505 13.4491 25.648 13.438C25.6454 13.4262 25.641 13.4169 25.6377 13.411C25.626 13.3898 25.6081 13.375 25.5952 13.3658L25.489 13.5154ZM25.4566 13.489C25.4651 13.4967 25.4762 13.5064 25.4889 13.5154L25.5952 13.3658C25.5913 13.363 25.5865 13.359 25.5794 13.3526L25.4566 13.489Z" fill="black"/>
<path fill-rule="evenodd" clip-rule="evenodd" d="M15.6767 24.5756V15.7601C15.6767 14.7064 14.8225 13.8522 13.7689 13.8522C12.7152 13.8522 11.861 14.7064 11.861 15.7601V24.5756H15.6767ZM13.7689 12.8408C12.1566 12.8408 10.8496 14.1478 10.8496 15.7601V24.5756V25.587H11.861H15.6767H16.6881V24.5756V15.7601C16.6881 14.1478 15.3811 12.8408 13.7689 12.8408Z" fill="#231F20"/>
</svg>
