<svg width="28" height="29" viewBox="0 0 28 29" fill="none" xmlns="http://www.w3.org/2000/svg">
<rect x="9.82788" y="5.28589" width="15.2833" height="3.82083" fill="#FABF0E"/>
<path d="M22.2466 3.38745H7.91851C6.33859 3.38745 5.05288 4.67316 5.05288 6.25308V13.8947H6.00809V6.25308C6.00809 5.19948 6.86491 4.34266 7.91851 4.34266C8.9721 4.34266 9.82892 5.19948 9.82892 6.25308V8.16349H21.2914V23.9244C21.2914 24.7144 20.6486 25.3572 19.8586 25.3572H11.2541C11.0908 25.6983 10.8902 26.0192 10.6571 26.3125H19.8596C21.1758 26.3125 22.2476 25.2407 22.2476 23.9244V8.16349H25.1132V6.25308C25.1132 4.67316 23.8265 3.38745 22.2466 3.38745ZM24.157 7.20828H10.7841V6.25308C10.7841 5.51948 10.5071 4.84988 10.0524 4.34266H22.2466C23.3002 4.34266 24.157 5.19948 24.157 6.25308V7.20828ZM9.18225 16.9667C9.92253 16.3802 10.7841 15.4632 10.7841 14.3723V13.8947H5.05288V14.3723C5.05288 15.4632 5.91448 16.3802 6.65476 16.9667C4.28107 17.7299 2.18726 20.4924 2.18726 23.2109C2.18726 24.9159 3.57995 26.3029 5.29168 26.3029H10.5453C12.2571 26.3029 13.6498 24.9159 13.6498 23.2109C13.6498 20.4924 11.5559 17.7309 9.18225 16.9667ZM6.10265 14.85H9.73436C9.43442 15.6313 8.48972 16.342 7.91851 16.6878C7.34729 16.342 6.40259 15.6313 6.10265 14.85ZM10.5453 25.3477H5.29168C4.10627 25.3477 3.14246 24.3896 3.14246 23.2109C3.14246 20.5841 5.54863 17.7184 7.91851 17.7184C10.3696 17.7853 12.6945 20.5841 12.6945 23.2109C12.6945 24.3896 11.7307 25.3477 10.5453 25.3477Z" fill="#231F20"/>
<path d="M5.05288 13.8947V6.25308C5.05288 4.67316 6.33859 3.38745 7.91851 3.38745H22.2466C23.8265 3.38745 25.1132 4.67316 25.1132 6.25308V8.16349H22.2476V23.9244C22.2476 25.2407 21.1758 26.3125 19.8596 26.3125H10.6571C10.8902 26.0192 11.0908 25.6983 11.2541 25.3572H19.8586C20.6486 25.3572 21.2914 24.7144 21.2914 23.9244V8.16349H9.82892V6.25308C9.82892 5.19948 8.9721 4.34266 7.91851 4.34266C6.86491 4.34266 6.00809 5.19948 6.00809 6.25308V13.8947H5.05288ZM5.05288 13.8947H10.7841V14.3723C10.7841 15.4632 9.92253 16.3802 9.18225 16.9667C11.5559 17.7309 13.6498 20.4924 13.6498 23.2109C13.6498 24.9159 12.2571 26.3029 10.5453 26.3029H5.29168C3.57995 26.3029 2.18726 24.9159 2.18726 23.2109C2.18726 20.4924 4.28107 17.7299 6.65476 16.9667C5.91448 16.3802 5.05288 15.4632 5.05288 14.3723V13.8947ZM24.157 7.20828H10.7841V6.25308C10.7841 5.51948 10.5071 4.84988 10.0524 4.34266H22.2466C23.3002 4.34266 24.157 5.19948 24.157 6.25308V7.20828ZM6.10265 14.85H9.73436C9.43442 15.6313 8.48972 16.342 7.91851 16.6878C7.34729 16.342 6.40259 15.6313 6.10265 14.85ZM10.5453 25.3477H5.29168C4.10627 25.3477 3.14246 24.3896 3.14246 23.2109C3.14246 20.5841 5.54863 17.7184 7.91851 17.7184C10.3696 17.7853 12.6945 20.5841 12.6945 23.2109C12.6945 24.3896 11.7307 25.3477 10.5453 25.3477Z" stroke="black" stroke-width="0.262"/>
</svg>
