<svg width="40" height="40" viewBox="0 0 40 40" fill="none" xmlns="http://www.w3.org/2000/svg">
<rect x="9.5" y="12" width="21" height="22" rx="2" fill="#FFE582"/>
<mask id="mask0_2164_8981" style="mask-type:alpha" maskUnits="userSpaceOnUse" x="0" y="0" width="40" height="40">
<rect width="40" height="40" fill="#D9D9D9"/>
</mask>
<g mask="url(#mask0_2164_8981)">
<path d="M13.3333 35C11.9583 35 10.7812 34.5104 9.802 33.5312C8.82284 32.5521 8.33325 31.375 8.33325 30V15.3846C8.33325 14.0577 8.77877 12.9231 9.66979 11.9808C10.5608 11.0385 11.6538 10.5224 12.9486 10.4327V7.69229C12.9486 6.9519 13.2123 6.3181 13.7395 5.79088C14.2668 5.26363 14.9006 5 15.641 5H24.3589C25.0993 5 25.7331 5.26363 26.2603 5.79088C26.7876 6.3181 27.0512 6.9519 27.0512 7.69229V10.4327C28.3461 10.5224 29.439 11.0385 30.33 11.9808C31.2211 12.9231 31.6666 14.0577 31.6666 15.3846V30C31.6666 31.375 31.177 32.5521 30.1978 33.5312C29.2187 34.5104 28.0416 35 26.6666 35H13.3333ZM9.99992 21.859H29.9999V15.3846C29.9999 14.468 29.6735 13.6832 29.0208 13.0305C28.368 12.3777 27.5833 12.0513 26.6666 12.0513H13.3333C12.4166 12.0513 11.6319 12.3777 10.9791 13.0305C10.3263 13.6832 9.99992 14.468 9.99992 15.3846V21.859ZM13.3333 33.3333H26.6666C27.5833 33.3333 28.368 33.0069 29.0208 32.3542C29.6735 31.7014 29.9999 30.9167 29.9999 30V23.5257H9.99992V30C9.99992 30.9167 10.3263 31.7014 10.9791 32.3542C11.6319 33.0069 12.4166 33.3333 13.3333 33.3333ZM21.282 10.3846H25.3845V7.69229C25.3845 7.39315 25.2884 7.14743 25.0961 6.95512C24.9038 6.76282 24.658 6.66667 24.3589 6.66667H15.641C15.3418 6.66667 15.0961 6.76282 14.9038 6.95512C14.7114 7.14743 14.6153 7.39315 14.6153 7.69229V10.3846H18.7179C18.7179 10.0406 18.8455 9.74092 19.1009 9.48558C19.3562 9.23022 19.6559 9.10254 19.9999 9.10254C20.3439 9.10254 20.6436 9.23022 20.899 9.48558C21.1543 9.74092 21.282 10.0406 21.282 10.3846Z" fill="#1C1B1F"/>
</g>
</svg>
