<svg width="30" height="28" viewBox="0 0 30 28" fill="none" xmlns="http://www.w3.org/2000/svg">
<path d="M0.263672 19.2922C0.263672 18.4766 0.924824 17.8154 1.7404 17.8154H4.73849V27.2135H1.74039C0.924823 27.2135 0.263672 26.5524 0.263672 25.7368V19.2922Z" fill="#FBC010"/>
<path fill-rule="evenodd" clip-rule="evenodd" d="M1.56641 17.4976H5.94374C6.16658 17.4976 6.34804 17.6791 6.34804 17.902V18.4942C7.00385 18.319 7.71377 18.1567 8.44598 18.0421C8.73249 17.9975 9.02537 17.9625 9.31826 17.937C8.99672 16.2973 9.28642 14.4443 10.1364 12.6072C11.0246 10.6874 12.5272 8.78026 14.5774 7.16287C14.9403 6.87632 15.3033 6.58978 15.6566 6.2905L14.0617 2.07191C13.8898 1.68666 14.3577 1.32052 14.6888 1.59115L15.4115 2.18334C15.5102 2.26294 15.698 2.26294 15.7999 2.18334L16.5353 1.58159C17.0988 1.11994 17.9901 1.11994 18.5536 1.58159L19.289 2.18334C19.3877 2.26294 19.5787 2.26294 19.6774 2.18334L20.4 1.59115C20.7248 1.32689 21.1864 1.67074 21.0336 2.05599L19.6647 6.27776C20.0244 6.57704 20.3905 6.86677 20.7598 7.15969C23.0233 8.94264 24.6182 11.0822 25.4586 13.2026C26.401 15.5873 26.5251 18.3668 24.8665 20.4713C24.4972 20.9394 24.0483 21.3628 23.5167 21.7289C25.465 21.2896 27.4165 20.8916 28.3811 21.1113C28.9923 21.2482 29.5877 21.5857 29.7564 22.2288C29.9028 22.7796 29.6641 23.3495 29.2757 23.7411C28.0405 24.9828 20.5178 27.2816 18.6587 27.5458C16.1692 27.8992 13.5237 27.2911 11.3875 25.9857C10.3338 25.3394 9.12406 24.7122 7.85703 24.7377C7.35085 24.7472 6.84467 24.8555 6.34804 25.0752V26.7944C6.34804 27.0173 6.16658 27.1988 5.94374 27.1988H1.56641C1.34357 27.1988 1.16211 27.0173 1.16211 26.7944V17.902C1.16211 17.6791 1.34357 17.4976 1.56641 17.4976ZM18.7765 2.81374L18.0411 2.21199C17.7768 1.99549 17.3152 1.99549 17.051 2.21199L16.3188 2.81056C16.0386 3.04616 15.6312 3.11302 15.2842 3.01114L16.4175 6.01032H18.9006L19.8811 2.98885C19.515 3.12257 19.0789 3.06208 18.7733 2.81374H18.7765ZM17.2643 10.1748V10.7065C16.2201 10.8911 15.4083 11.7763 15.4083 12.8556C15.4083 14.0909 16.4557 15.0397 17.6686 15.0397C18.4358 15.0397 19.1171 15.6223 19.1171 16.4119C19.1171 17.2015 18.4358 17.7842 17.6686 17.7842C16.9014 17.7842 16.2201 17.2015 16.2201 16.4119C16.2201 16.1891 16.0386 16.0044 15.8126 16.0044C15.5866 16.0044 15.4051 16.1859 15.4051 16.4119C15.4051 17.4913 16.2137 18.3764 17.2611 18.561V19.0927C17.2611 19.6276 18.0729 19.6276 18.0729 19.0927V18.561C19.1171 18.3764 19.9289 17.4913 19.9289 16.4119C19.9289 15.1766 18.8815 14.2278 17.6686 14.2278C16.9014 14.2278 16.2201 13.6452 16.2201 12.8556C16.2201 12.066 16.9014 11.4833 17.6686 11.4833C18.4358 11.4833 19.1171 12.066 19.1171 12.8556C19.1171 13.3905 19.9289 13.3905 19.9289 12.8556C19.9289 11.7763 19.1203 10.8911 18.0729 10.7065V10.1748C18.0729 9.6399 17.2611 9.6399 17.2611 10.1748H17.2643ZM19.0471 6.82538H16.2838C15.889 7.15969 15.4847 7.48444 15.0804 7.80282C13.1321 9.33743 11.7123 11.1395 10.875 12.9479C10.0759 14.6736 9.81488 16.396 10.1396 17.8924C10.5439 17.8829 10.9546 17.8988 11.3621 17.9402C12.8742 18.0994 14.5615 18.647 16.0991 19.1468C17.2134 19.5098 18.3021 19.8314 19.4386 20.1307C20.0976 20.3026 20.9381 20.4904 21.5397 20.8024C21.9154 20.9967 22.1414 21.2195 22.256 21.4551C22.2656 21.4774 22.2751 21.4997 22.2847 21.5188C23.1028 21.1145 23.7491 20.5891 24.2298 19.9778C25.7038 18.1057 25.5382 15.6128 24.7041 13.5051C23.9146 11.5088 22.4057 9.49344 20.26 7.79964C19.8525 7.47807 19.445 7.1565 19.0502 6.8222L19.0471 6.82538ZM21.1641 21.522C20.6293 21.245 19.8111 21.0667 19.2285 20.9139C18.0825 20.6114 16.9714 20.2835 15.8444 19.9173C14.345 19.4302 12.6991 18.8953 11.2761 18.7457C10.372 18.6502 9.45196 18.7107 8.56695 18.8444C7.78699 18.9654 7.03568 19.1437 6.34804 19.3347V24.206C6.8383 24.0277 7.33811 23.9385 7.84111 23.929C9.27687 23.9035 10.6076 24.5626 11.8046 25.2948C13.7752 26.5015 16.2424 27.0714 18.5409 26.7467C20.1963 26.5111 27.6266 24.2474 28.6963 23.1744C28.8777 22.9897 29.0401 22.7064 28.9669 22.4389C28.8809 22.1206 28.483 21.9709 28.1965 21.9041C27.2987 21.7003 25.0862 22.2033 23.0169 22.6745C22.4407 22.8051 21.874 22.9356 21.3678 23.0407C20.4828 23.3591 19.1394 23.2222 18.213 23.1203C17.398 23.0311 15.593 22.8433 14.8321 22.5504C14.6252 22.4708 14.5201 22.2384 14.5997 22.0282C14.6793 21.8213 14.9117 21.7162 15.1218 21.7958C15.7871 22.0505 17.589 22.2352 18.3053 22.3148C19.1203 22.4039 20.4096 22.5504 21.1705 22.2511C21.6735 22.0378 21.6352 21.7608 21.1673 21.5156L21.1641 21.522ZM5.53943 18.3095H1.97072V26.3933H5.53943C5.53943 23.6997 5.53943 21.003 5.53943 18.3095Z" fill="#231F20" stroke="#231F20" stroke-width="0.295345"/>
</svg>
