<svg width="26" height="27" viewBox="0 0 26 27" fill="none" xmlns="http://www.w3.org/2000/svg">
<g clip-path="url(#clip0_2164_11264)">
<path d="M23.4831 6.6957C14.7007 4.63131 6.4725 5.73924 2.3331 6.85246C1.78295 7.00041 1.31297 6.51875 1.6499 6.05938C4.63089 1.99518 17.1391 -1.33505 24.1511 5.62914C24.6384 6.11307 24.1516 6.85284 23.4831 6.6957Z" fill="#FBC010"/>
<path fill-rule="evenodd" clip-rule="evenodd" d="M10.6869 2.49062C5.87318 3.01542 1.89193 5.19605 0.073231 8.08245C-0.0263001 8.23628 -0.0172518 8.44439 0.0913275 8.58916C0.199907 8.74298 0.389921 8.80632 0.570886 8.76108C3.94589 7.91054 7.31185 7.40383 10.6869 7.24097V26.2876C10.6869 26.5409 10.8859 26.74 11.1393 26.74H15.211C15.4644 26.74 15.6634 26.5409 15.6634 26.2876V7.25906C18.8846 7.43098 22.1058 7.93768 25.336 8.77012C25.517 8.81537 25.707 8.75203 25.8156 8.59821C25.9242 8.44439 25.9332 8.24532 25.8337 8.0915C24.0693 5.28654 20.278 3.16019 15.6634 2.55396V0.952414C15.6634 0.699062 15.4644 0.5 15.211 0.5H11.1393C10.8859 0.5 10.6869 0.699062 10.6869 0.952414V2.49062ZM14.7586 8.77917V25.8352H11.5917V8.77917H14.7586ZM14.7586 3.35021V7.87434H11.5917V3.31401C12.0351 3.28687 12.4965 3.26877 12.9489 3.26877C13.5642 3.26877 14.1704 3.29592 14.7586 3.35021ZM10.6869 3.39545V6.33614C7.64664 6.48091 4.60642 6.90618 1.5662 7.59385C3.46633 5.41321 6.778 3.83881 10.6869 3.39545ZM15.6634 3.45879C19.3642 3.96549 22.4949 5.49465 24.3317 7.59385C21.4453 6.92428 18.5498 6.50805 15.6634 6.35423V3.45879ZM11.5917 2.40919C12.0351 2.38204 12.4965 2.36394 12.9489 2.36394C13.5642 2.36394 14.1614 2.39109 14.7586 2.44538V1.40483H11.5917V2.40919Z" fill="#231F20" stroke="black" stroke-width="0.2"/>
</g>
<defs>
<clipPath id="clip0_2164_11264">
<rect width="25.8962" height="26.24" fill="white" transform="translate(0 0.5)"/>
</clipPath>
</defs>
</svg>
