<svg width="38" height="38" viewBox="0 0 38 38" fill="none" xmlns="http://www.w3.org/2000/svg">
<g clip-path="url(#clip0_2164_12063)">
<path d="M3.19141 0.5H34.8086C36.1956 0.500003 37.5 1.95576 37.5 4V34C37.5 36.0442 36.1956 37.5 34.8086 37.5H3.19141C1.80442 37.5 0.5 36.0442 0.5 34V4C0.5 1.95575 1.80442 0.5 3.19141 0.5Z" fill="white" stroke="#A6A6A6"/>
<path d="M24.1677 19.8217C24.1448 17.2505 26.2734 15.9992 26.3702 15.9413C25.1647 14.1841 23.2958 13.9433 22.6392 13.9245C21.069 13.759 19.5473 14.8636 18.7481 14.8636C17.9489 14.8636 16.7016 13.9406 15.3736 13.9675C13.6662 13.9944 12.0691 14.982 11.1919 16.5172C9.38355 19.6468 10.7317 24.2456 12.4647 26.7751C13.3312 28.0143 14.3443 29.3975 15.6696 29.349C16.9667 29.2966 17.451 28.5229 19.0158 28.5229C20.5806 28.5229 21.0206 29.349 22.3728 29.3181C23.764 29.2966 24.6413 28.0735 25.4768 26.8236C26.4779 25.4041 26.8802 24.0048 26.8963 23.9335C26.864 23.9227 24.1946 22.9028 24.1677 19.8217ZM21.614 12.2614C22.3109 11.3896 22.7886 10.2029 22.6567 9C21.6476 9.0444 20.3855 9.6983 19.6576 10.5513C19.0145 11.3035 18.44 12.5346 18.588 13.693C19.7222 13.7778 20.8861 13.1212 21.614 12.2628V12.2614Z" fill="#231F20"/>
</g>
<defs>
<clipPath id="clip0_2164_12063">
<rect width="38" height="38" fill="white"/>
</clipPath>
</defs>
</svg>
