<svg width="40" height="40" viewBox="0 0 40 40" fill="none" xmlns="http://www.w3.org/2000/svg">
<rect x="10.5" y="8" width="19" height="24" fill="#FFE582"/>
<mask id="mask0_2164_8967" style="mask-type:alpha" maskUnits="userSpaceOnUse" x="0" y="0" width="40" height="40">
<rect width="40" height="40" fill="#D9D9D9"/>
</mask>
<g mask="url(#mask0_2164_8967)">
<path d="M12.6923 36.6666C11.9252 36.6666 11.2847 36.4096 10.7708 35.8958C10.2569 35.3819 10 34.7414 10 33.9743V6.02554C10 5.25846 10.2569 4.61797 10.7708 4.10409C11.2847 3.5902 11.9252 3.33325 12.6923 3.33325H27.3077C28.0748 3.33325 28.7153 3.5902 29.2292 4.10409C29.7431 4.61797 30 5.25846 30 6.02554V33.9743C30 34.7414 29.7431 35.3819 29.2292 35.8958C28.7153 36.4096 28.0748 36.6666 27.3077 36.6666H12.6923ZM11.6667 32.4999V33.9743C11.6667 34.2307 11.7735 34.4657 11.9872 34.6794C12.2009 34.8931 12.4359 34.9999 12.6923 34.9999H27.3077C27.5641 34.9999 27.7991 34.8931 28.0128 34.6794C28.2265 34.4657 28.3333 34.2307 28.3333 33.9743V32.4999H11.6667ZM11.6667 30.8333H28.3333V9.16658H11.6667V30.8333ZM11.6667 7.49992H28.3333V6.02554C28.3333 5.76915 28.2265 5.53411 28.0128 5.32042C27.7991 5.10675 27.5641 4.99992 27.3077 4.99992H12.6923C12.4359 4.99992 12.2009 5.10675 11.9872 5.32042C11.7735 5.53411 11.6667 5.76915 11.6667 6.02554V7.49992Z" fill="#1C1B1F"/>
</g>
</svg>
