<svg width="40" height="40" viewBox="0 0 40 40" fill="none" xmlns="http://www.w3.org/2000/svg">
<rect x="8.25" y="24" width="24" height="8" rx="1" fill="#FFE582"/>
<mask id="mask0_2164_8995" style="mask-type:alpha" maskUnits="userSpaceOnUse" x="0" y="0" width="40" height="40">
<rect width="40" height="40" fill="#D9D9D9"/>
</mask>
<g mask="url(#mask0_2164_8995)">
<path d="M9.35904 33.3333C8.59196 33.3333 7.95147 33.0764 7.43758 32.5625C6.92369 32.0486 6.66675 31.4081 6.66675 30.641V26.0256C6.66675 25.2585 6.92369 24.6181 7.43758 24.1042C7.95147 23.5903 8.59196 23.3333 9.35904 23.3333H25.8334V17.5C25.8334 17.2628 25.913 17.0646 26.0722 16.9055C26.2314 16.7463 26.4296 16.6667 26.6667 16.6667C26.9039 16.6667 27.1021 16.7463 27.2613 16.9055C27.4205 17.0646 27.5001 17.2628 27.5001 17.5V23.3333H30.6411C31.4082 23.3333 32.0487 23.5903 32.5626 24.1042C33.0765 24.6181 33.3334 25.2585 33.3334 26.0256V30.641C33.3334 31.4081 33.0765 32.0486 32.5626 32.5625C32.0487 33.0764 31.4082 33.3333 30.6411 33.3333H9.35904ZM9.35904 31.6667H30.6411C30.9403 31.6667 31.186 31.5705 31.3783 31.3782C31.5706 31.1859 31.6667 30.9402 31.6667 30.641V26.0256C31.6667 25.7265 31.5706 25.4808 31.3783 25.2885C31.186 25.0962 30.9403 25 30.6411 25H9.35904C9.0599 25 8.81418 25.0962 8.62187 25.2885C8.42957 25.4808 8.33341 25.7265 8.33341 26.0256V30.641C8.33341 30.9402 8.42957 31.1859 8.62187 31.3782C8.81418 31.5705 9.0599 31.6667 9.35904 31.6667ZM11.6667 29.6154C12.0321 29.6154 12.3372 29.4931 12.5818 29.2484C12.8265 29.0038 12.9488 28.6987 12.9488 28.3333C12.9488 27.9679 12.8265 27.6629 12.5818 27.4183C12.3372 27.1736 12.0321 27.0513 11.6667 27.0513C11.3014 27.0513 10.9963 27.1736 10.7517 27.4183C10.507 27.6629 10.3847 27.9679 10.3847 28.3333C10.3847 28.6987 10.507 29.0038 10.7517 29.2484C10.9963 29.4931 11.3014 29.6154 11.6667 29.6154ZM17.5001 29.6154C17.8655 29.6154 18.1705 29.4931 18.4152 29.2484C18.6598 29.0038 18.7821 28.6987 18.7821 28.3333C18.7821 27.9679 18.6598 27.6629 18.4152 27.4183C18.1705 27.1736 17.8655 27.0513 17.5001 27.0513C17.1347 27.0513 16.8297 27.1736 16.585 27.4183C16.3404 27.6629 16.218 27.9679 16.218 28.3333C16.218 28.6987 16.3404 29.0038 16.585 29.2484C16.8297 29.4931 17.1347 29.6154 17.5001 29.6154ZM23.3334 29.6154C23.6988 29.6154 24.0038 29.4931 24.2485 29.2484C24.4931 29.0038 24.6155 28.6987 24.6155 28.3333C24.6155 27.9679 24.4931 27.6629 24.2485 27.4183C24.0038 27.1736 23.6988 27.0513 23.3334 27.0513C22.968 27.0513 22.663 27.1736 22.4183 27.4183C22.1737 27.6629 22.0514 27.9679 22.0514 28.3333C22.0514 28.6987 22.1737 29.0038 22.4183 29.2484C22.663 29.4931 22.968 29.6154 23.3334 29.6154ZM26.6667 12.5C26.1048 12.5 25.592 12.5812 25.1283 12.7436C24.6646 12.906 24.233 13.1496 23.8334 13.4744C23.624 13.6047 23.4077 13.672 23.1844 13.6763C22.9611 13.6806 22.7576 13.5908 22.5738 13.407C22.39 13.2233 22.3051 13.0182 22.319 12.7917C22.3329 12.5652 22.4381 12.3835 22.6347 12.2468C23.2608 11.7575 23.9034 11.3996 24.5626 11.1731C25.2218 10.9466 25.9232 10.8333 26.6667 10.8333C27.4167 10.8333 28.1197 10.9466 28.7757 11.1731C29.4317 11.3996 30.0727 11.7575 30.6988 12.2468C30.8954 12.3835 31.0006 12.5652 31.0145 12.7917C31.0284 13.0182 30.9435 13.2233 30.7597 13.407C30.5759 13.5908 30.3708 13.6806 30.1443 13.6763C29.9178 13.672 29.6999 13.6047 29.4905 13.4744C29.0973 13.1496 28.6673 12.906 28.2004 12.7436C27.7335 12.5812 27.2223 12.5 26.6667 12.5ZM26.6667 6.66667C25.2202 6.66667 23.9077 6.91186 22.7292 7.40225C21.5508 7.89264 20.5236 8.51817 19.6475 9.27883C19.451 9.42842 19.241 9.50535 19.0177 9.50963C18.7944 9.5139 18.5941 9.42736 18.4167 9.25C18.233 9.06622 18.1518 8.86429 18.1732 8.64421C18.1945 8.42413 18.3003 8.22861 18.4905 8.05767C19.608 7.10469 20.8558 6.35683 22.234 5.81408C23.6123 5.27136 25.0898 5 26.6667 5C28.2437 5 29.7212 5.27136 31.0995 5.81408C32.4776 6.35683 33.7255 7.10469 34.843 8.05767C35.0332 8.22861 35.139 8.42413 35.1603 8.64421C35.1817 8.86429 35.1005 9.06622 34.9167 9.25C34.7394 9.42736 34.5391 9.5139 34.3158 9.50963C34.0925 9.50535 33.8825 9.42842 33.686 9.27883C32.8099 8.51817 31.7827 7.89264 30.6042 7.40225C29.4258 6.91186 28.1133 6.66667 26.6667 6.66667Z" fill="#1C1B1F"/>
</g>
</svg>
