<?xml version="1.0" standalone="no"?>
<!DOCTYPE svg PUBLIC "-//W3C//DTD SVG 1.1//EN" "http://www.w3.org/Graphics/SVG/1.1/DTD/svg11.dtd" >
<svg xmlns="http://www.w3.org/2000/svg" xmlns:xlink="http://www.w3.org/1999/xlink" version="1.1">
<metadata>
Created by FontForge 20201107 at Sat Aug  3 09:41:44 2024
 By 
Copyright (c) 2014, 2015 Monotype Imaging Inc. All rights reserved.
</metadata>
<defs>
<font id="FrutigerLTPro-UltraBlack" horiz-adv-x="1402" >
  <font-face 
    font-family="Frutiger LT Pro 95 UltraBlack"
    font-weight="900"
    font-stretch="normal"
    units-per-em="2048"
    panose-1="2 11 9 4 4 5 4 3 2 4"
    ascent="1536"
    descent="-512"
    x-height="1067"
    cap-height="1430"
    bbox="-354 -512 2388 1968"
    underline-thickness="102"
    underline-position="-255"
    unicode-range="U+000D-FB02"
  />
<missing-glyph horiz-adv-x="1048" 
d="M1049 0h-1049v1470h1049v-1470zM946 102v1264h-844v-1264h844zM569 240h-114v137h114v-137zM555 479h-94q-4 29 -4 62q0 75 20.5 125.5t87.5 121.5q11 12 33.5 34.5t33 34t24 31t19 39.5t5.5 44q0 74 -46.5 124t-109.5 50q-69 0 -112.5 -48.5t-55.5 -146.5l-102 17
q12 135 84 207.5t192 72.5q110 0 182 -74t72 -194q0 -74 -29 -127t-102 -121q-61 -57 -78 -86.5t-18 -91.5z" />
    <glyph glyph-name="IJ" unicode="IJ" horiz-adv-x="1722" 
d="M653 0h-549v1430h549v-1430zM745 27v387q53 -33 123 -33q100 0 151.5 55t51.5 144v850h549v-979q0 -220 -133 -348t-395 -128q-154 0 -347 52z" />
    <glyph glyph-name="ij" unicode="ij" horiz-adv-x="1425" 
d="M618 1180h-516v356h516v-356zM618 0h-516v1067h516v-1067zM1323 1180h-516v356h516v-356zM614 -422v301q38 -14 84 -14q52 0 80.5 37t28.5 96v1069h516v-1118q0 -190 -102.5 -297t-294.5 -107q-169 0 -312 33z" />
    <glyph glyph-name="napostrophe" unicode="&#x22;n" horiz-adv-x="1781" 
d="M1688 0h-517v623q0 24 -1 40t-6.5 36t-14.5 32t-26.5 20.5t-41.5 8.5q-31 0 -51 -12t-28 -35.5t-10.5 -42.5t-2.5 -47v-623h-516v1067h488v-184h4q40 99 131 154t219 55q187 0 280 -89.5t93 -257.5v-745zM307 870h-297l92 560h383z" />
    <glyph glyph-name="fi" unicode="fi" horiz-adv-x="1669" 
d="M725 0h-537v760h-188v307h188v72q0 214 121.5 318t339.5 104q164 0 320 -37v-285q-49 14 -111 14q-58 0 -95.5 -36t-37.5 -95v-55h219v-307h-219v-760zM1565 1180h-516v356h516v-356zM1565 0h-516v1067h516v-1067z" />
    <glyph glyph-name="fl" unicode="fl" horiz-adv-x="1669" 
d="M725 0h-537v760h-188v307h188v72q0 214 121.5 318t339.5 104q164 0 320 -37v-285q-49 14 -111 14q-58 0 -95.5 -36t-37.5 -95v-55h219v-307h-219v-760zM1565 0h-516v1536h516v-1536z" />
    <glyph glyph-name=".notdef" horiz-adv-x="1048" 
d="M1049 0h-1049v1470h1049v-1470zM946 102v1264h-844v-1264h844zM569 240h-114v137h114v-137zM555 479h-94q-4 29 -4 62q0 75 20.5 125.5t87.5 121.5q11 12 33.5 34.5t33 34t24 31t19 39.5t5.5 44q0 74 -46.5 124t-109.5 50q-69 0 -112.5 -48.5t-55.5 -146.5l-102 17
q12 135 84 207.5t192 72.5q110 0 182 -74t72 -194q0 -74 -29 -127t-102 -121q-61 -57 -78 -86.5t-18 -91.5z" />
    <glyph glyph-name=".null" horiz-adv-x="0" 
 />
    <glyph glyph-name="nonmarkingreturn" horiz-adv-x="682" 
 />
    <glyph glyph-name="NULL" horiz-adv-x="0" 
 />
    <glyph glyph-name="NULL" horiz-adv-x="0" 
 />
    <glyph glyph-name="CR" unicode="&#xd;" horiz-adv-x="757" 
 />
    <glyph glyph-name="space" unicode=" " horiz-adv-x="757" 
 />
    <glyph glyph-name="exclam" unicode="!" horiz-adv-x="872" 
d="M631 528h-389l-80 902h549zM659 0h-446v381h446v-381z" />
    <glyph glyph-name="quotedbl" unicode="&#x22;" horiz-adv-x="1138" 
d="M504 805h-307v625h307v-625zM942 805h-307v625h307v-625z" />
    <glyph glyph-name="numbersign" unicode="#" horiz-adv-x="1228" 
d="M862 0h-278l51 367h-137l-52 -367h-278l51 367h-141v258h176l27 186h-140v258h176l50 365h278l-49 -365h137l49 365h279l-49 -365h139v-258h-176l-27 -186h142v-258h-177zM670 625l26 186h-137l-27 -186h138z" />
    <glyph glyph-name="dollar" unicode="$" horiz-adv-x="1290" 
d="M788 -246h-270v246q-191 0 -444 66v315q195 -74 370 -74q61 0 106.5 8t69.5 19.5t38.5 27t18 27.5t3.5 25q0 20 -6.5 36t-22 28t-30 21t-41 17.5t-44.5 14t-50 13.5t-50 13q-42 11 -76 22.5t-72 30t-67 40t-56.5 53t-45.5 69t-28.5 88t-10.5 109.5q0 169 115.5 276.5
t322.5 130.5v242h270v-242q186 -3 340 -49v-319q-174 61 -340 61q-41 0 -70.5 -4t-59.5 -15.5t-46 -36.5t-16 -63q0 -41 50 -64.5t179 -54.5q71 -17 123.5 -35t105.5 -48t87 -67.5t55 -93t21 -124.5q0 -167 -114 -284.5t-315 -158.5v-266z" />
    <glyph glyph-name="percent" unicode="%" horiz-adv-x="1972" 
d="M651 -63h-250l926 1556h250zM459 602q-196 0 -302 112.5t-106 319.5q0 196 100 308t308 112q201 0 305 -108t104 -312q0 -208 -105.5 -320t-303.5 -112zM549 987v84q0 32 -3 55.5t-11 49t-27.5 39.5t-48.5 14q-88 0 -88 -160v-92q0 -150 88 -150q90 0 90 160zM1511 -25
q-196 0 -301.5 112.5t-105.5 320.5q0 196 99.5 307.5t307.5 111.5q201 0 305.5 -107.5t104.5 -311.5q0 -208 -106 -320.5t-304 -112.5zM1602 360v84q0 31 -3 55t-11.5 49.5t-28 39.5t-48.5 14q-88 0 -88 -160v-92q0 -149 88 -149q91 0 91 159z" />
    <glyph glyph-name="ampersand" unicode="&#x26;" horiz-adv-x="1972" 
d="M1968 0h-686l-88 90q-88 -53 -217.5 -84t-282.5 -31q-98 0 -186 12t-172.5 43t-145.5 77.5t-98 121t-37 168.5q0 117 75 208.5t216 150.5q-213 131 -213 315q0 188 159.5 285.5t465.5 97.5q76 0 141.5 -4.5t139.5 -15.5t131.5 -33.5t105.5 -55.5t74 -84.5t26 -117.5
q0 -64 -34 -123t-91 -104.5t-120.5 -79.5t-133.5 -58q107 -73 195 -139q74 77 100 172h512q-51 -239 -266 -442q287 -234 430 -369zM756 934q79 46 114 80t35 84q0 53 -37.5 81.5t-107.5 28.5q-65 0 -110.5 -27.5t-45.5 -82.5q0 -46 38 -83.5t114 -80.5zM907 334l-276 219
q-45 -39 -62.5 -71t-17.5 -79q0 -63 55 -98t131 -35q93 0 170 64z" />
    <glyph glyph-name="quotesingle" unicode="'" horiz-adv-x="647" 
d="M477 805h-307v625h307v-625z" />
    <glyph glyph-name="parenleft" unicode="(" horiz-adv-x="757" 
d="M725 -287h-375q-278 465 -278 918q0 445 278 917h375q-231 -416 -231 -917q0 -505 231 -918z" />
    <glyph glyph-name="parenright" unicode=")" horiz-adv-x="757" 
d="M408 -287h-375q231 421 231 918q0 503 -231 917h375q278 -463 278 -917q0 -450 -278 -918z" />
    <glyph glyph-name="asterisk" unicode="*" horiz-adv-x="1099" 
d="M940 690l-252 -170l-139 266l-148 -266l-249 170l225 219l-295 49l82 302l285 -136l-52 306h310l-48 -306l279 136l80 -302l-289 -51z" />
    <glyph glyph-name="plus" unicode="+" horiz-adv-x="1228" 
d="M780 0h-331v350h-351v332h351v350h331v-350h350v-332h-350v-350z" />
    <glyph glyph-name="comma" unicode="," horiz-adv-x="757" 
d="M387 -231h-326l127 624h435z" />
    <glyph glyph-name="hyphen" unicode="-" horiz-adv-x="757" 
d="M666 373h-574v356h574v-356z" />
    <glyph glyph-name="period" unicode="." horiz-adv-x="757" 
d="M602 0h-446v393h446v-393z" />
    <glyph glyph-name="slash" unicode="/" horiz-adv-x="757" 
d="M240 -25h-363l641 1479h363z" />
    <glyph glyph-name="zero" unicode="0" horiz-adv-x="1515" 
d="M760 -25q-333 0 -523 199t-190 541q0 339 191 539t522 200q322 0 515 -200t193 -539q0 -346 -188 -543t-520 -197zM760 295q36 0 63 12.5t45.5 30.5t30.5 53t18.5 63.5t10 80.5t4 86t0.5 96q0 64 -0.5 100.5t-4 87.5t-10.5 79.5t-19.5 61.5t-31 49.5t-45.5 28t-63 11.5
q-26 0 -47.5 -5t-37.5 -17.5t-29 -25t-22.5 -36.5t-16 -41.5t-10.5 -50.5t-6.5 -54t-3.5 -60.5t-1 -61.5v-66q0 -47 0.5 -76t2 -70.5t5 -67t9.5 -58t15 -52t22 -40.5t30.5 -32t40.5 -18.5t51 -7.5z" />
    <glyph glyph-name="one" unicode="1" horiz-adv-x="1064" 
d="M952 0h-516v928l-317 -230l-146 373l539 359h440v-1430z" />
    <glyph glyph-name="two" unicode="2" horiz-adv-x="1212" 
d="M1171 0h-1130v401q139 70 283 152q63 36 101 59.5t87.5 60.5t76.5 68.5t46.5 73t19.5 84.5q0 99 -74 149t-194 50q-169 0 -317 -62v373q250 45 450 45q147 0 264.5 -28t205 -84t134.5 -146.5t47 -210.5q0 -182 -139 -335t-446 -302v-4h585v-344z" />
    <glyph glyph-name="three" unicode="3" horiz-adv-x="1212" 
d="M874 729v-4q146 -36 220.5 -121t74.5 -209q0 -109 -54 -192.5t-146 -131.5t-200.5 -72t-229.5 -24q-132 0 -270.5 17t-225.5 43v332q171 -60 360 -60q39 0 68.5 2.5t61.5 10.5t52.5 21.5t34 37.5t13.5 57q0 139 -236 139q-74 0 -174 -14v313q70 -4 119 -4q52 0 89 3
t83.5 14t72 37t25.5 67q0 71 -55 107.5t-156 36.5q-166 0 -344 -56v320q181 55 465 55q92 0 179.5 -13.5t169.5 -44.5t143 -76.5t98 -114t37 -152.5q0 -117 -69 -200t-206 -124z" />
    <glyph glyph-name="four" unicode="4" horiz-adv-x="1441" 
d="M1157 0h-495v274h-629v480l612 676h512v-803h252v-353h-252v-274zM662 606v418l-359 -418h359z" />
    <glyph glyph-name="five" unicode="5" horiz-adv-x="1212" 
d="M76 37v325q179 -43 301 -43q256 0 256 164q0 174 -285 174q-120 0 -254 -32v805h1010v-332h-539v-221q55 6 156 6q194 0 321 -122t127 -317q0 -100 -33.5 -179.5t-92.5 -133t-142 -89t-178.5 -51.5t-206.5 -16q-209 0 -440 62z" />
    <glyph glyph-name="six" unicode="6" horiz-adv-x="1400" 
d="M1237 1415v-330q-186 50 -352 50q-164 0 -250 -75t-86 -204v-6q107 86 319 86q132 0 244 -51.5t184 -157.5t72 -248q0 -101 -35 -185t-95 -142t-141 -98.5t-172.5 -59.5t-189.5 -19q-206 0 -366 89.5t-248 251t-88 368.5q0 358 207.5 564t566.5 206q249 0 430 -39z
M721 283q79 0 127.5 54t48.5 142q0 82 -46.5 134.5t-131.5 52.5q-82 0 -126 -53t-44 -144q0 -84 45.5 -135t126.5 -51z" />
    <glyph glyph-name="seven" unicode="7" horiz-adv-x="1212" 
d="M674 0h-615l609 1036h-643v394h1163v-394z" />
    <glyph glyph-name="eight" unicode="8" horiz-adv-x="1400" 
d="M1083 729v-2q142 -35 217.5 -124.5t75.5 -221.5q0 -108 -57.5 -189.5t-156 -127t-215 -67.5t-249.5 -22q-106 0 -201.5 13.5t-183 44.5t-150.5 77t-100.5 115.5t-37.5 155.5q0 283 286 346v4q-142 44 -202 124.5t-60 207.5q0 73 25.5 133t72.5 101.5t107.5 72.5t135 49
t150 26.5t158.5 8.5q133 0 244 -20.5t203 -64.5t144 -122t52 -184q0 -124 -62 -204.5t-196 -129.5zM702 858q65 0 104.5 46t39.5 118q0 66 -38.5 114t-111.5 48q-66 0 -108.5 -44t-42.5 -114q0 -76 41.5 -122t115.5 -46zM698 270q81 0 121.5 52.5t40.5 140.5q0 32 -7 60.5
t-23.5 57.5t-50.5 46.5t-83 17.5q-74 0 -114.5 -47t-40.5 -139q0 -84 38 -136.5t119 -52.5z" />
    <glyph glyph-name="nine" unicode="9" horiz-adv-x="1400" 
d="M852 573v7q-106 -86 -320 -86q-135 0 -247 52.5t-182 158t-70 245.5q0 100 34.5 184t94.5 142.5t140.5 99t172.5 59.5t191 19q311 0 506.5 -197t195.5 -514q0 -353 -206.5 -560.5t-565.5 -207.5q-254 0 -432 39v330q105 -29 181.5 -39t170.5 -10q158 0 247 72.5t89 205.5
zM680 764q90 0 131 56.5t41 142.5q0 79 -44.5 131.5t-127.5 52.5t-129.5 -56t-46.5 -141t48 -135.5t128 -50.5z" />
    <glyph glyph-name="colon" unicode=":" horiz-adv-x="757" 
d="M602 674h-446v393h446v-393zM602 0h-446v393h446v-393z" />
    <glyph glyph-name="semicolon" unicode=";" horiz-adv-x="757" 
d="M602 674h-446v393h446v-393zM387 -231h-326l127 624h435z" />
    <glyph glyph-name="less" unicode="&#x3c;" horiz-adv-x="1228" 
d="M1130 -41l-1032 406v307l1032 405v-305l-638 -254l638 -254v-305z" />
    <glyph glyph-name="equal" unicode="=" horiz-adv-x="1228" 
d="M1130 600h-1032v332h1032v-332zM1130 100h-1032v332h1032v-332z" />
    <glyph glyph-name="greater" unicode="&#x3e;" horiz-adv-x="1228" 
d="M1130 365l-1032 -406v305l639 254l-639 254v305l1032 -405v-307z" />
    <glyph glyph-name="question" unicode="?" horiz-adv-x="1175" 
d="M711 528h-410q3 71 17.5 128.5t30.5 92t42.5 65t42.5 43t43 30.5q4 3 6 4t18 11.5t19.5 13.5t16 13t16.5 17t11 18t9 23t2 27q0 27 -15.5 45t-46 26t-61.5 10.5t-77 2.5q-64 0 -145 -19t-146 -49v348q240 76 444 76q77 0 150.5 -9t150.5 -33.5t133.5 -62t93 -99
t36.5 -140.5q0 -49 -14.5 -95t-31 -74.5t-50 -62.5t-48 -46t-48.5 -37q-6 -5 -9 -7q-97 -72 -138.5 -121.5t-41.5 -115.5v-23zM729 0h-446v381h446v-381z" />
    <glyph glyph-name="at" unicode="@" horiz-adv-x="1638" 
d="M1260 307h245q-118 -170 -280 -251t-383 -81q-226 0 -407 96.5t-283.5 269t-102.5 388.5q0 219 107.5 385.5t290 253t409.5 86.5q164 0 304 -51t232.5 -135.5t144.5 -193.5t52 -226q0 -83 -23.5 -156.5t-62 -127.5t-89 -98.5t-104 -73.5t-106.5 -49.5t-96.5 -29
t-75.5 -8.5q-52 0 -83 25t-34 76h-4q-63 -101 -206 -101q-155 0 -251 110t-96 269q0 119 56 223t156 167t221 63q161 0 249 -123l21 84h194l-94 -465q-8 -40 -8 -64q0 -19 7.5 -29t29.5 -10q74 0 124 78.5t50 231.5q0 190 -136 289.5t-376 99.5q-246 0 -401.5 -151.5
t-155.5 -387.5q0 -213 156 -351t393 -138q131 0 229 24t187 82zM954 721q0 67 -38.5 106t-110.5 39q-74 0 -119 -44t-45 -122q0 -57 39 -97t113 -40q73 0 117 45.5t44 112.5z" />
    <glyph glyph-name="A" unicode="A" horiz-adv-x="1705" 
d="M1737 0h-576l-94 309h-463l-88 -309h-547l502 1430h756zM997 653l-155 469h-4l-158 -469h317z" />
    <glyph glyph-name="B" unicode="B" horiz-adv-x="1593" 
d="M948 0h-846v1430h899q233 0 362.5 -89t129.5 -264q0 -140 -72.5 -226t-222.5 -124v-4q139 -18 230.5 -114.5t91.5 -213.5q0 -97 -29.5 -168.5t-78 -114.5t-124 -68.5t-155.5 -34.5t-185 -9zM618 883h138q96 0 148 35t52 102q0 73 -52 106t-134 33h-152v-276zM618 295h144
q93 0 151 37.5t58 109.5q0 146 -203 146h-150v-293z" />
    <glyph glyph-name="C" unicode="C" horiz-adv-x="1327" 
d="M1288 412v-379q-204 -58 -393 -58q-186 0 -341.5 49.5t-270.5 143.5t-179.5 239.5t-64.5 327.5q0 171 67 308.5t183.5 226.5t272 136.5t335.5 47.5q102 0 168.5 -8t218.5 -37v-377q-168 53 -274 53q-177 0 -293.5 -92.5t-116.5 -265.5q0 -177 106.5 -274t284.5 -97
q137 0 297 56z" />
    <glyph glyph-name="D" unicode="D" horiz-adv-x="1669" 
d="M887 0h-785v1430h818q358 0 522 -172.5t164 -544.5q0 -713 -719 -713zM651 356h129q139 0 195.5 81t56.5 288q0 204 -55.5 288.5t-194.5 84.5h-131v-742z" />
    <glyph glyph-name="E" unicode="E" 
d="M1337 0h-1253v1430h1239v-345h-702v-202h671v-344h-671v-195h716v-344z" />
    <glyph glyph-name="F" unicode="F" horiz-adv-x="1366" 
d="M1288 510h-655v-510h-549v1430h1225v-345h-676v-231h655v-344z" />
    <glyph glyph-name="G" unicode="G" horiz-adv-x="1593" 
d="M1487 725v-672q-266 -78 -590 -78q-253 0 -445 87t-302.5 260.5t-110.5 412.5q0 224 113 388.5t306.5 247.5t442.5 83q162 0 282 -11t247 -42v-385q-65 37 -169 59.5t-206 22.5q-214 0 -334.5 -104.5t-120.5 -293.5q0 -167 74.5 -267.5t226.5 -100.5q80 0 115 12v381h471
z" />
    <glyph glyph-name="H" unicode="H" horiz-adv-x="1669" 
d="M1567 0h-549v514h-367v-514h-549v1430h549v-494h367v494h549v-1430z" />
    <glyph glyph-name="I" unicode="I" horiz-adv-x="757" 
d="M653 0h-549v1430h549v-1430z" />
    <glyph glyph-name="J" unicode="J" horiz-adv-x="985" 
d="M8 27v387q53 -33 123 -33q100 0 151.5 55t51.5 144v850h549v-979q0 -220 -133.5 -348t-395.5 -128q-153 0 -346 52z" />
    <glyph glyph-name="K" unicode="K" horiz-adv-x="1669" 
d="M1649 0h-656l-356 606h-4v-606h-549v1430h549v-562h4l342 562h625l-482 -670z" />
    <glyph glyph-name="L" unicode="L" horiz-adv-x="1366" 
d="M1325 0h-1223v1430h549v-1008h674v-422z" />
    <glyph glyph-name="M" unicode="M" horiz-adv-x="2199" 
d="M2097 0h-491v1122h-13l-280 -1122h-457l-272 1122h-15v-1122h-467v1430h811l187 -783h4l184 783h809v-1430z" />
    <glyph glyph-name="N" unicode="N" horiz-adv-x="1744" 
d="M1653 0h-807l-279 1036h-4v-1036h-471v1430h821l265 -1008h4v1008h471v-1430z" />
    <glyph glyph-name="O" unicode="O" horiz-adv-x="1669" 
d="M1630 715q0 -357 -208 -548.5t-591 -191.5q-382 0 -587 191t-205 549q0 355 206 547t586 192q381 0 590 -193t209 -546zM831 319q118 0 172 91.5t54 304.5q0 395 -228 395q-217 0 -217 -395q0 -396 219 -396z" />
    <glyph glyph-name="P" unicode="P" horiz-adv-x="1630" 
d="M651 0h-549v1430h938q82 0 157 -16t144 -53.5t119.5 -93t80.5 -140t30 -189.5q0 -135 -41 -238t-114 -165t-166.5 -92.5t-205.5 -30.5h-393v-412zM637 743h127q132 0 195 45t63 140q0 89 -61 129.5t-191 40.5h-133v-355z" />
    <glyph glyph-name="Q" unicode="Q" horiz-adv-x="1669" 
d="M1610 -289h-598l-203 264q-374 6 -572 197.5t-198 542.5q0 355 206 547t586 192q381 0 590 -193t209 -546q0 -452 -327 -635zM831 319q67 0 112.5 29t69.5 85t34 123.5t10 158.5q0 395 -228 395q-217 0 -217 -395q0 -396 219 -396z" />
    <glyph glyph-name="R" unicode="R" horiz-adv-x="1593" 
d="M1559 0h-572q-10 38 -29 201q-22 176 -58.5 230t-139.5 54h-127v-485h-549v1430h891q549 0 549 -381q0 -297 -342 -379v-4q185 -31 260 -191q30 -64 61.5 -239.5t55.5 -235.5zM608 805h160q112 0 159.5 38.5t47.5 121.5q0 82 -55 113.5t-152 31.5h-160v-305z" />
    <glyph glyph-name="S" unicode="S" 
d="M66 43v371q229 -95 489 -95q116 0 182 26t66 73q0 26 -14.5 44.5t-59 33.5t-76.5 22.5t-114 24.5q-19 4 -29 6q-108 22 -187.5 54t-143 82.5t-96 127t-32.5 178.5q0 229 184 346t551 117q234 0 474 -49v-367q-206 72 -424 72q-46 0 -79.5 -2.5t-73.5 -11t-61.5 -29
t-21.5 -51.5q0 -25 14 -42t55.5 -31.5t68 -20.5t99.5 -20q23 -5 35 -7q57 -11 101.5 -22t96.5 -29.5t90.5 -41t76.5 -56t62 -74t38.5 -96t14.5 -121.5q0 -123 -51.5 -215.5t-146 -150t-220.5 -86t-283 -28.5q-297 0 -585 68z" />
    <glyph glyph-name="T" unicode="T" horiz-adv-x="1556" 
d="M1053 0h-549v1008h-484v422h1516v-422h-483v-1008z" />
    <glyph glyph-name="U" unicode="U" horiz-adv-x="1630" 
d="M993 571v859h537v-840q0 -307 -172.5 -461t-544.5 -154q-348 0 -530.5 153.5t-182.5 428.5v873h549v-850q0 -236 170 -236q93 0 133.5 54.5t40.5 172.5z" />
    <glyph glyph-name="V" unicode="V" horiz-adv-x="1630" 
d="M1130 0h-649l-510 1430h588l266 -857h4l269 857h561z" />
    <glyph glyph-name="W" unicode="W" horiz-adv-x="2275" 
d="M1964 0h-590l-239 934h-5l-227 -934h-602l-334 1430h514l174 -914h4l230 914h526l223 -914h4l177 914h489z" />
    <glyph glyph-name="X" unicode="X" horiz-adv-x="1705" 
d="M1729 0h-637l-269 483l-250 -483h-596l512 733l-450 697h633l213 -422l229 422h578l-480 -697z" />
    <glyph glyph-name="Y" unicode="Y" horiz-adv-x="1554" 
d="M1049 0h-549v438l-531 992h596l223 -599h5l225 599h567l-536 -992v-438z" />
    <glyph glyph-name="Z" unicode="Z" 
d="M1362 0h-1321v434l700 627h-675v369h1273v-435l-677 -614h700v-381z" />
    <glyph glyph-name="bracketleft" unicode="[" horiz-adv-x="796" 
d="M731 -287h-663v1835h663v-295h-270v-1245h270v-295z" />
    <glyph glyph-name="backslash" unicode="\" horiz-adv-x="757" 
d="M881 -25h-361l-643 1479h365z" />
    <glyph glyph-name="bracketright" unicode="]" horiz-adv-x="796" 
d="M729 -287h-663v295h270v1245h-270v295h663v-1835z" />
    <glyph glyph-name="asciicircum" unicode="^" horiz-adv-x="1228" 
d="M1120 682h-315l-191 403l-190 -403h-315l356 748h299z" />
    <glyph glyph-name="underscore" unicode="_" horiz-adv-x="1024" 
d="M1024 -256h-1024v102h1024v-102z" />
    <glyph glyph-name="grave" unicode="`" horiz-adv-x="569" 
d="M518 1196h-285l-403 320h485z" />
    <glyph glyph-name="a" unicode="a" horiz-adv-x="1327" 
d="M1253 0h-479v154h-4q-53 -88 -143.5 -133.5t-204.5 -45.5q-76 0 -143.5 17.5t-124.5 54t-90 99t-33 145.5q0 191 137 291t414 100q63 0 200 -14q-1 45 -21 76t-58 47.5t-83.5 23t-107.5 6.5q-173 0 -358 -90v299q129 37 224.5 49.5t219.5 12.5q109 0 197.5 -10
t176.5 -39.5t147.5 -77t96.5 -128t37 -188.5v-649zM782 432v37h-47q-50 0 -84.5 -3.5t-72 -15t-57 -37t-19.5 -65.5q0 -54 29.5 -78t91.5 -24q77 0 118 58.5t41 127.5z" />
    <glyph glyph-name="b" unicode="b" horiz-adv-x="1441" 
d="M582 0h-480v1536h516v-606h5q60 86 138.5 124t182.5 38q148 0 252.5 -71t153.5 -191.5t49 -278.5q0 -266 -119.5 -421t-349.5 -155q-131 0 -211 52t-133 168h-4v-195zM731 319q70 0 100.5 58.5t30.5 173.5q0 109 -29.5 165t-99.5 56q-33 0 -57 -13.5t-37.5 -34t-21.5 -52
t-10.5 -62t-2.5 -69.5q0 -222 127 -222z" />
    <glyph glyph-name="c" unicode="c" horiz-adv-x="1138" 
d="M1083 346v-317q-160 -54 -381 -54q-321 0 -492 148.5t-171 429.5q0 268 167.5 403.5t495.5 135.5q222 0 373 -45v-316q-116 53 -229 53q-123 0 -190.5 -62t-67.5 -177q0 -120 68.5 -191t189.5 -71q132 0 237 63z" />
    <glyph glyph-name="d" unicode="d" horiz-adv-x="1441" 
d="M1339 0h-479v195h-4q-52 -117 -133.5 -168.5t-210.5 -51.5q-229 0 -349 154t-120 422q0 114 27.5 210.5t81.5 171t142.5 117t203.5 42.5q208 0 321 -162h4v606h516v-1536zM711 319q67 0 97 56t30 166q0 119 -30 175t-101 56q-28 0 -50 -9.5t-35 -27.5t-22 -38.5t-13 -48
t-5.5 -49t-1.5 -48.5q0 -112 30 -172t101 -60z" />
    <glyph glyph-name="e" unicode="e" horiz-adv-x="1290" 
d="M1178 313v-276q-198 -62 -480 -62q-326 0 -494.5 150.5t-168.5 427.5q0 267 168 403t491 136q561 0 561 -625v-57h-712q5 -81 70.5 -122.5t211.5 -41.5q225 0 353 67zM809 635v6q0 205 -129 205q-66 0 -102.5 -50.5t-36.5 -140.5v-20h268z" />
    <glyph glyph-name="f" unicode="f" horiz-adv-x="948" 
d="M725 0h-537v760h-188v307h188v72q0 214 121.5 318t339.5 104q164 0 320 -37v-285q-49 14 -111 14q-58 0 -95.5 -36t-37.5 -95v-55h219v-307h-219v-760z" />
    <glyph glyph-name="g" unicode="g" horiz-adv-x="1441" 
d="M852 178h-4q-61 -87 -151.5 -132.5t-198.5 -45.5q-112 0 -199.5 40.5t-143 112t-84 167.5t-28.5 210q0 258 118 410t341 152q139 0 237 -63.5t121 -178.5h4v217h484v-967q0 -267 -169.5 -411t-512.5 -144q-326 0 -553 66v344q77 -45 184 -73.5t217 -28.5q170 0 254 78
t84 247zM717 332q74 0 104.5 53t30.5 154q0 106 -30.5 163.5t-102.5 57.5q-127 0 -127 -215q0 -101 27.5 -157t97.5 -56z" />
    <glyph glyph-name="h" unicode="h" 
d="M1309 0h-516v623q0 22 -1.5 38.5t-6.5 36.5t-14.5 32.5t-27 21t-41.5 8.5q-31 0 -51 -12t-28 -35.5t-10.5 -42.5t-2.5 -47v-623h-516v1536h516v-602h4q43 72 131 115t191 43q186 0 279.5 -90t93.5 -257v-745z" />
    <glyph glyph-name="i" unicode="i" horiz-adv-x="720" 
d="M618 1180h-516v356h516v-356zM618 0h-516v1067h516v-1067z" />
    <glyph glyph-name="j" unicode="j" horiz-adv-x="720" 
d="M618 1180h-516v356h516v-356zM-90 -422v301q38 -14 84 -14q52 0 80 37t28 96v1069h516v-1118q0 -190 -102.5 -297t-294.5 -107q-168 0 -311 33z" />
    <glyph glyph-name="k" unicode="k" horiz-adv-x="1517" 
d="M1516 0h-603l-290 518h-5v-518h-516v1536h516v-893h5l295 424h583l-360 -471z" />
    <glyph glyph-name="l" unicode="l" horiz-adv-x="720" 
d="M618 0h-516v1536h516v-1536z" />
    <glyph glyph-name="m" unicode="m" horiz-adv-x="2088" 
d="M2001 0h-516v625q0 41 -5.5 67.5t-26.5 47t-60 20.5q-24 0 -41.5 -8.5t-26.5 -20.5t-14.5 -32t-6.5 -36t-1 -40v-623h-517v623q0 24 -1 40t-6.5 36t-14.5 32t-26.5 20.5t-41.5 8.5q-31 0 -51 -12t-28 -35.5t-10.5 -42.5t-2.5 -47v-623h-516v1067h487v-184h5
q40 100 133 154.5t231 54.5q123 0 215 -48.5t119 -134.5h4q17 60 78 103t130.5 61.5t135.5 18.5q97 0 167 -23t109.5 -58t62.5 -92t29.5 -110.5t6.5 -126.5v-682z" />
    <glyph glyph-name="n" unicode="n" 
d="M1309 0h-516v623q0 30 -2.5 50t-11 42t-28 33.5t-49.5 11.5q-31 0 -51 -12t-28 -35.5t-10.5 -42.5t-2.5 -47v-623h-516v1067h488v-184h4q40 99 131 154t219 55q187 0 280 -89.5t93 -257.5v-745z" />
    <glyph glyph-name="o" unicode="o" 
d="M1364 553q0 -278 -172 -428t-492 -150q-318 0 -489.5 148.5t-171.5 429.5q0 267 168 403t493 136q327 0 495.5 -137.5t168.5 -401.5zM700 283q36 0 60 19t35.5 58.5t15.5 83.5t4 109q0 117 -24.5 174t-92.5 57q-37 0 -60.5 -19.5t-33.5 -58t-13 -71t-3 -82.5
q0 -66 3.5 -109t14.5 -83t34.5 -59t59.5 -19z" />
    <glyph glyph-name="p" unicode="p" horiz-adv-x="1441" 
d="M618 -430h-516v1497h480v-195h4q52 117 133.5 168.5t210.5 51.5q156 0 262.5 -74t156.5 -201.5t50 -300.5q0 -114 -27.5 -211t-82 -171.5t-143 -116.5t-202.5 -42q-208 0 -321 162h-5v-567zM735 295q40 0 67 19t39 54.5t16.5 69t4.5 78.5q0 117 -31 174.5t-102 57.5
q-125 0 -125 -222q0 -39 2 -68t10 -61.5t21.5 -53t38.5 -34.5t59 -14z" />
    <glyph glyph-name="q" unicode="q" horiz-adv-x="1441" 
d="M1339 -430h-516v567h-4q-60 -86 -138.5 -124t-182.5 -38q-116 0 -205 43t-142.5 118.5t-80.5 171t-27 208.5q0 272 121.5 424t347.5 152q131 0 211 -52t133 -168h4v195h479v-1497zM707 295q75 0 103 58.5t28 172.5q0 222 -127 222q-38 0 -65 -18t-40.5 -51t-19.5 -72.5
t-6 -90.5q0 -46 4.5 -79.5t16.5 -68.5t39 -54t67 -19z" />
    <glyph glyph-name="r" unicode="r" horiz-adv-x="1024" 
d="M618 0h-516v1067h484v-242h4q110 267 325 267q47 0 84 -11v-428q-43 17 -114 17q-113 0 -190 -84t-77 -197v-389z" />
    <glyph glyph-name="s" unicode="s" horiz-adv-x="1138" 
d="M66 37v305q73 -44 175.5 -70t202.5 -26q82 0 135.5 17t53.5 52q0 17 -12.5 29.5t-41.5 21.5t-52 14.5t-69 13.5t-67 12q-82 16 -141.5 38t-110.5 58.5t-77.5 94t-26.5 134.5q0 182 156.5 271.5t443.5 89.5q173 0 385 -45v-287q-180 61 -336 61q-54 0 -89.5 -4.5
t-62 -21.5t-26.5 -47q0 -26 43.5 -39.5t165.5 -28.5q199 -27 294 -103t95 -215q0 -88 -38.5 -157t-99 -111.5t-141 -70t-157.5 -38t-156 -10.5q-204 0 -446 62z" />
    <glyph glyph-name="t" unicode="t" horiz-adv-x="948" 
d="M932 338v-307q-192 -56 -352 -56q-204 0 -301 103.5t-97 310.5v371h-182v307h182v246l516 157v-403h234v-307h-234v-301q0 -65 30 -102.5t85 -37.5q64 0 119 19z" />
    <glyph glyph-name="u" unicode="u" 
d="M1309 0h-488v184h-4q-40 -98 -130.5 -153.5t-217.5 -55.5q-192 0 -283.5 91t-91.5 258v743h516v-623q0 -22 1 -36t5.5 -35.5t13.5 -34t27 -22t43 -9.5t43 9t27.5 21.5t15 33t6.5 36t1 37.5v623h516v-1067z" />
    <glyph glyph-name="v" unicode="v" horiz-adv-x="1290" 
d="M973 0h-662l-317 1067h528l133 -700h4l134 700h503z" />
    <glyph glyph-name="w" unicode="w" horiz-adv-x="2048" 
d="M1800 0h-643l-127 723h-4l-131 -723h-647l-260 1067h506l122 -698h5l110 698h621l118 -698h5l114 698h471z" />
    <glyph glyph-name="x" unicode="x" horiz-adv-x="1366" 
d="M1391 0h-547l-168 344l-174 -344h-527l351 573l-326 494h543l143 -319l143 319h506l-297 -485z" />
    <glyph glyph-name="y" unicode="y" horiz-adv-x="1251" 
d="M45 -418v303q70 -20 152 -20q79 0 121 29.5t42 70.5q0 24 -8.5 58t-19.5 63t-35 92.5t-41 110.5l-283 778h535l133 -655h4l127 655h496l-322 -1016q-40 -129 -86.5 -218t-112.5 -156.5t-156 -99.5t-210 -32q-128 0 -336 37z" />
    <glyph glyph-name="z" unicode="z" horiz-adv-x="1251" 
d="M1182 0h-1112v438l538 318v4h-520v307h1079v-428l-510 -328v-4h525v-307z" />
    <glyph glyph-name="braceleft" unicode="{" horiz-adv-x="757" 
d="M725 -287h-264q-108 0 -193.5 78t-85.5 203v391q0 59 -38 93t-111 34v238q74 0 111.5 34t37.5 97v385q0 127 85 204.5t198 77.5h260v-225h-31q-68 0 -93.5 -31.5t-25.5 -89.5v-362q0 -199 -270 -207v-4q270 -8 270 -207v-361q0 -26 4.5 -45.5t16 -38t36.5 -28.5t62 -10
h31v-226z" />
    <glyph glyph-name="bar" unicode="|" horiz-adv-x="454" 
d="M399 -512h-344v2048h344v-2048z" />
    <glyph glyph-name="braceright" unicode="}" horiz-adv-x="757" 
d="M293 -287h-260v226h30q68 0 93.5 31t25.5 89v363q0 199 271 207v4q-271 8 -271 207v360q0 26 -4.5 45.5t-16 38.5t-36.5 29t-62 10h-30v225h264q108 0 193 -77.5t85 -202.5v-391q0 -59 38.5 -93t111.5 -34v-238q-74 0 -112 -34t-38 -97v-385q0 -127 -85 -205t-197 -78z
" />
    <glyph glyph-name="asciitilde" unicode="~" horiz-adv-x="1228" 
d="M1014 748l73 -271q-69 -101 -126 -144.5t-132 -43.5q-44 0 -88.5 14.5t-83.5 34.5t-79 40.5t-90 35t-101 14.5q-113 0 -172 -139l-74 264q95 195 256 195q65 0 152 -35t165 -70t120 -35q51 0 93.5 33t86.5 107z" />
    <glyph glyph-name="uni00A0" unicode="&#xa0;" horiz-adv-x="757" 
 />
    <glyph glyph-name="exclamdown" unicode="&#xa1;" horiz-adv-x="872" 
d="M659 686h-446v381h446v-381zM711 -362h-549l80 901h389z" />
    <glyph glyph-name="cent" unicode="&#xa2;" horiz-adv-x="1175" 
d="M821 -246h-246v262q-253 31 -385.5 177.5t-132.5 394.5q0 236 130.5 371t387.5 163v252h246v-246q163 -9 273 -43v-317q-121 55 -232 55q-122 0 -189 -64t-67 -179q0 -123 69 -195t187 -72q129 0 240 66v-320q-128 -43 -281 -49v-256z" />
    <glyph glyph-name="sterling" unicode="&#xa3;" horiz-adv-x="1327" 
d="M1241 0h-1155v319h172v254h-172v295h172v109q0 223 150.5 350t439.5 127q184 0 391 -45v-315q-155 41 -260 41q-225 0 -225 -215v-52h313v-295h-313v-254h487v-319z" />
    <glyph glyph-name="currency" unicode="&#xa4;" horiz-adv-x="1228" 
d="M1020 186l-109 109q-134 -96 -297 -96q-165 0 -299 94l-106 -107l-125 125l106 107q-98 134 -98 299q0 168 98 299l-106 106l125 125l106 -106q140 94 299 94q164 0 299 -94l107 106l125 -125l-107 -106q99 -135 99 -299q0 -168 -101 -297l109 -109zM614 481
q94 0 154.5 66t60.5 170q0 100 -58.5 167.5t-158.5 67.5q-90 0 -151.5 -64.5t-61.5 -170.5q0 -104 60.5 -170t154.5 -66z" />
    <glyph glyph-name="yen" unicode="&#xa5;" horiz-adv-x="1515" 
d="M1337 193h-338v-193h-516v193h-325v213h325v73l-28 58h-297v213h196l-329 680h518l213 -558h4l213 558h518l-350 -680h196v-213h-307l-31 -58v-73h338v-213z" />
    <glyph glyph-name="brokenbar" unicode="&#xa6;" horiz-adv-x="454" 
d="M399 666h-344v716h344v-716zM399 -358h-344v716h344v-716z" />
    <glyph glyph-name="section" unicode="&#xa7;" horiz-adv-x="1290" 
d="M143 -297v301q171 -59 349 -59q51 0 82.5 2t68 9t54.5 24.5t18 44.5q0 37 -53.5 64t-196.5 71q-212 65 -309 161.5t-97 237.5q0 96 55.5 173.5t153.5 115.5q-153 75 -153 248q0 358 547 358q217 0 401 -45v-295q-161 45 -311 45q-31 0 -49.5 -0.5t-43.5 -5t-39 -12
t-24 -23t-10 -37.5q0 -20 14 -36t47.5 -31t64 -25.5t87.5 -27.5q76 -22 132.5 -43.5t116 -56t97 -74.5t62 -98t24.5 -128q0 -175 -187 -278q75 -60 108.5 -120.5t33.5 -135.5q0 -185 -146.5 -281t-427.5 -96q-266 0 -469 53zM793 393q57 65 57 113q0 49 -50 89.5t-157 80.5
q-132 48 -133 49q-70 -44 -70 -115q0 -94 228 -170q105 -36 125 -47z" />
    <glyph glyph-name="dieresis" unicode="&#xa8;" horiz-adv-x="569" 
d="M199 1196h-369v320h369v-320zM739 1196h-368v320h368v-320z" />
    <glyph glyph-name="copyright" unicode="&#xa9;" horiz-adv-x="1638" 
d="M819 -25q-203 0 -374 101.5t-268 271.5t-97 367q0 148 58 284t156 236t235.5 159.5t289.5 59.5t289.5 -59.5t236 -159.5t156.5 -236t58 -284t-58 -284.5t-156.5 -236.5t-236 -159.5t-289.5 -59.5zM819 221q202 0 325.5 140.5t123.5 353.5t-124 353t-327 140
q-201 0 -323.5 -137.5t-122.5 -355.5q0 -216 121.5 -355t326.5 -139zM1180 803h-209q-34 96 -115 96q-72 0 -113 -48.5t-41 -133.5q0 -82 42.5 -135.5t109.5 -53.5q36 0 73 29.5t44 79.5h217q-24 -159 -121.5 -246.5t-226.5 -87.5q-170 0 -283 122.5t-113 305.5
q0 165 112 279t280 114q136 0 228.5 -86.5t115.5 -234.5z" />
    <glyph glyph-name="ordfeminine" unicode="&#xaa;" horiz-adv-x="862" 
d="M840 795h-320v73h-4q-77 -90 -246 -90q-106 0 -176.5 53t-70.5 144q0 104 92.5 160.5t261.5 56.5q56 0 143 -6q-1 52 -45.5 74t-128.5 22q-127 0 -231 -49v178q111 43 309 43q77 0 139.5 -10t105 -26t74.5 -40t50 -48.5t29 -55t14.5 -56t3.5 -55.5v-368zM520 1049v20h-33
q-145 0 -145 -68q0 -32 21 -49.5t57 -17.5q45 0 72.5 35.5t27.5 79.5z" />
    <glyph glyph-name="guillemotleft" unicode="&#xab;" horiz-adv-x="1327" 
d="M678 111h-393l-234 442l234 442h393l-184 -442zM1233 111h-393l-234 442l234 442h393l-184 -442z" />
    <glyph glyph-name="logicalnot" unicode="&#xac;" horiz-adv-x="1228" 
d="M1130 248h-331v352h-701v332h1032v-684z" />
    <glyph glyph-name="uni00AD" unicode="&#xad;" horiz-adv-x="757" 
d="M666 373h-574v356h574v-356z" />
    <glyph glyph-name="registered" unicode="&#xae;" horiz-adv-x="1638" 
d="M1114 346h-231l-133 232h-5v-232h-206v741h282q164 0 241 -56.5t77 -186.5q0 -209 -187 -221zM745 762h103q44 0 70 19t26 55q0 31 -25.5 49t-95.5 18h-78v-141zM819 -25q-203 0 -374 101.5t-268 271.5t-97 367q0 148 58 284t156 236t235.5 159.5t289.5 59.5t289.5 -59.5
t236 -159.5t156.5 -236t58 -284t-58 -284.5t-156.5 -236.5t-236 -159.5t-289.5 -59.5zM819 221q202 0 325.5 140.5t123.5 353.5t-124 353t-327 140q-201 0 -323.5 -137.5t-122.5 -355.5q0 -216 121.5 -355t326.5 -139z" />
    <glyph glyph-name="macron" unicode="&#xaf;" horiz-adv-x="569" 
d="M709 1260h-848v213h848v-213z" />
    <glyph glyph-name="degree" unicode="&#xb0;" horiz-adv-x="819" 
d="M410 799q-134 0 -231 95.5t-97 231.5q0 134 96 231t232 97t231.5 -97t95.5 -231t-95.5 -230.5t-231.5 -96.5zM553 1126q0 60 -41.5 102t-101.5 42q-59 0 -101.5 -41.5t-42.5 -102.5q0 -60 42 -101.5t102 -41.5t101.5 41.5t41.5 101.5z" />
    <glyph glyph-name="plusminus" unicode="&#xb1;" horiz-adv-x="1228" 
d="M1130 535h-350v-166h-331v166h-351v331h351v166h331v-166h350v-331zM1130 0h-1032v332h1032v-332z" />
    <glyph glyph-name="twosuperior" unicode="&#xb2;" horiz-adv-x="788" 
d="M760 877h-740v251q204 89 298 154t94 113q0 51 -44 81.5t-118 30.5q-104 0 -207 -32v251q156 27 326 27q193 0 302 -73t109 -216q0 -188 -331 -338v-4h311v-245z" />
    <glyph glyph-name="threesuperior" unicode="&#xb3;" horiz-adv-x="788" 
d="M580 1317v-4q96 -20 146 -70.5t50 -124.5q0 -126 -109.5 -190t-289.5 -64q-224 0 -352 35v211q113 -37 225 -37q145 0 145 66q0 35 -43.5 51t-105.5 16q-53 0 -115 -10v199q54 -4 82 -4q79 0 124.5 17.5t45.5 64.5q0 26 -22 42.5t-50.5 22.5t-62.5 6q-93 0 -211 -35v217
q123 27 332 27q395 0 395 -242q0 -150 -184 -194z" />
    <glyph glyph-name="acute" unicode="&#xb4;" horiz-adv-x="569" 
d="M739 1516l-403 -320h-285l203 320h485z" />
    <glyph glyph-name="mu" unicode="&#xb5;" 
d="M1309 0h-488v184h-4q-25 -68 -80.5 -118.5t-122.5 -65.5v-455h-520v1522h516v-623q0 -31 3 -52t11.5 -42t27.5 -32t48 -11q31 0 51 12t28.5 35t11 42t2.5 48v623h516v-1067z" />
    <glyph glyph-name="paragraph" unicode="&#xb6;" horiz-adv-x="1269" 
d="M1188 -326h-283v1543h-133v-1543h-283v1041q-216 0 -334 91t-118 261q0 185 120 274t371 89h660v-1756z" />
    <glyph glyph-name="periodcentered" unicode="&#xb7;" horiz-adv-x="757" 
d="M379 373q-103 0 -175.5 72.5t-72.5 175.5t73 175t175 72q104 0 176 -72.5t72 -174.5t-72 -175t-176 -73z" />
    <glyph glyph-name="cedilla" unicode="&#xb8;" horiz-adv-x="569" 
d="M211 -256l-68 74l113 184h184l-84 -137q37 6 74 6q88 0 141.5 -44t53.5 -124q0 -64 -48 -108.5t-115.5 -63t-144.5 -18.5q-159 0 -290 57l55 127q121 -49 188 -49q37 0 73 14t36 37q0 27 -29 42t-63 15q-39 0 -76 -12z" />
    <glyph glyph-name="onesuperior" unicode="&#xb9;" horiz-adv-x="692" 
d="M639 877h-369v544l-204 -147l-103 248l350 219h326v-864z" />
    <glyph glyph-name="ordmasculine" unicode="&#xba;" horiz-adv-x="911" 
d="M897 1116q0 -163 -112 -250.5t-330 -87.5q-215 0 -328 88t-113 250q0 163 113.5 250.5t331.5 87.5q212 0 325 -86.5t113 -251.5zM455 991q31 0 48 20t21 44t4 61q0 66 -16 95.5t-57 29.5q-44 0 -58 -30.5t-14 -94.5q0 -29 2 -48t9 -38.5t22 -29t39 -9.5z" />
    <glyph glyph-name="guillemotright" unicode="&#xbb;" horiz-adv-x="1327" 
d="M487 111h-393l185 442l-185 442h393l234 -442zM1042 111h-393l185 442l-185 442h393l234 -442z" />
    <glyph glyph-name="onequarter" unicode="&#xbc;" horiz-adv-x="2275" 
d="M778 575h-368v545l-205 -147l-103 248l351 219h325v-865zM2007 0h-344v162h-410v305l412 397h342v-485h154v-217h-154v-162zM1663 375v243l-225 -243h225zM793 -63h-250l925 1556h250z" />
    <glyph glyph-name="onehalf" unicode="&#xbd;" horiz-adv-x="2275" 
d="M760 575h-369v545l-205 -147l-102 248l350 219h326v-865zM2173 0h-739v252q391 171 391 266q0 51 -44.5 82t-117.5 31q-101 0 -207 -33v252q156 27 326 27q193 0 302 -73t109 -216q0 -188 -331 -338v-4h311v-246zM754 -63h-250l926 1556h249z" />
    <glyph glyph-name="threequarters" unicode="&#xbe;" horiz-adv-x="2275" 
d="M2028 0h-345v162h-409v305l412 397h342v-485h153v-217h-153v-162zM1683 375v243l-225 -243h225zM647 1016v-4q96 -20 146.5 -70.5t50.5 -124.5q0 -126 -110 -190t-290 -64q-224 0 -352 35v211q113 -37 225 -37q146 0 146 66q0 35 -43.5 51t-106.5 16q-52 0 -114 -10v199
q54 -4 82 -4q80 0 125 17t45 64q0 38 -41 55t-95 17q-93 0 -211 -35v217q123 27 332 27q395 0 395 -242q0 -150 -184 -194zM774 -63h-250l926 1556h250z" />
    <glyph glyph-name="questiondown" unicode="&#xbf;" horiz-adv-x="1175" 
d="M1092 35v-348q-240 -76 -445 -76q-77 0 -150.5 9t-150 33.5t-133.5 62t-93 99t-36 140.5q0 60 18.5 112t52 91t59.5 62t61 49q7 5 10 7q97 72 138.5 122t41.5 116v23h409q-3 -71 -17.5 -128.5t-30.5 -92t-42.5 -65t-42.5 -43t-43 -30.5q-4 -3 -6 -4t-18 -11.5
t-19.5 -13.5t-16 -13t-16.5 -17t-11 -18t-9 -23t-2 -27q0 -27 15.5 -45t46.5 -26t62 -10.5t77 -2.5q64 0 145 19t146 49zM893 686h-447v381h447v-381z" />
    <glyph glyph-name="Agrave" unicode="&#xc0;" horiz-adv-x="1705" 
d="M1737 0h-576l-94 309h-463l-88 -309h-547l502 1430h756zM997 653l-155 469h-4l-158 -469h317zM1087 1538h-284l-404 320h486z" />
    <glyph glyph-name="Aacute" unicode="&#xc1;" horiz-adv-x="1705" 
d="M1737 0h-576l-94 309h-463l-88 -309h-547l502 1430h756zM997 653l-155 469h-4l-158 -469h317zM1309 1858l-404 -320h-284l202 320h486z" />
    <glyph glyph-name="Acircumflex" unicode="&#xc2;" horiz-adv-x="1705" 
d="M1737 0h-576l-94 309h-463l-88 -309h-547l502 1430h756zM997 653l-155 469h-4l-158 -469h317zM1292 1538h-297l-145 193l-135 -193h-299l235 320h408z" />
    <glyph glyph-name="Atilde" unicode="&#xc3;" horiz-adv-x="1705" 
d="M1737 0h-576l-94 309h-463l-88 -309h-547l502 1430h756zM997 653l-155 469h-4l-158 -469h317zM1110 1858h195q-9 -140 -87.5 -230t-189.5 -90q-70 0 -133 19t-114 38t-93 19q-35 0 -62.5 -23.5t-27.5 -52.5h-195q14 145 79 232.5t177 87.5q67 0 137 -18.5t127.5 -37
t94.5 -18.5q41 0 61 17.5t31 56.5z" />
    <glyph glyph-name="Adieresis" unicode="&#xc4;" horiz-adv-x="1705" 
d="M1737 0h-576l-94 309h-463l-88 -309h-547l502 1430h756zM997 653l-155 469h-4l-158 -469h317zM766 1538h-369v320h369v-320zM1307 1538h-369v320h369v-320z" />
    <glyph glyph-name="Aring" unicode="&#xc5;" horiz-adv-x="1705" 
d="M1737 0h-576l-94 309h-463l-88 -309h-547l502 1430h756zM997 653l-155 469h-4l-158 -469h317zM854 1485q-104 0 -173 69t-69 172q0 102 70 172t172 70q103 0 172.5 -69.5t69.5 -172.5q0 -101 -69.5 -171t-172.5 -70zM952 1726q0 41 -28.5 70t-69.5 29q-42 0 -70 -28.5
t-28 -70.5t28 -70t70 -28t70 28t28 70z" />
    <glyph glyph-name="AE" unicode="&#xc6;" horiz-adv-x="2199" 
d="M2134 0h-985l-88 309h-461l-92 -309h-539l506 1430h1645v-345h-795l66 -202h692v-344h-586l70 -195h567v-344zM995 653l-153 457h-4l-162 -457h319z" />
    <glyph glyph-name="Ccedilla" unicode="&#xc7;" horiz-adv-x="1327" 
d="M754 -256l-68 74l100 164q-347 30 -547 226.5t-200 526.5q0 171 67 308.5t183.5 226.5t272 136.5t335.5 47.5q93 0 168.5 -9t218.5 -36v-377q-164 53 -274 53q-186 0 -298 -96t-112 -262q0 -173 103.5 -272t287.5 -99q137 0 297 56v-379q-153 -43 -319 -53l-70 -115
q38 6 74 6q88 0 141 -44t53 -124q0 -64 -47.5 -108.5t-114.5 -63t-145 -18.5q-163 0 -291 57l56 127q120 -49 188 -49q37 0 73 14t36 37q0 26 -28.5 41.5t-66.5 15.5q-35 0 -73 -12z" />
    <glyph glyph-name="Egrave" unicode="&#xc8;" 
d="M1337 0h-1253v1430h1239v-345h-702v-202h671v-344h-671v-195h716v-344zM936 1538h-285l-403 320h485z" />
    <glyph glyph-name="Eacute" unicode="&#xc9;" 
d="M1337 0h-1253v1430h1239v-345h-702v-202h671v-344h-671v-195h716v-344zM1157 1858l-403 -320h-285l203 320h485z" />
    <glyph glyph-name="Ecircumflex" unicode="&#xca;" 
d="M1337 0h-1253v1430h1239v-345h-702v-202h671v-344h-671v-195h716v-344zM1141 1538h-297l-146 193l-135 -193h-299l236 320h407z" />
    <glyph glyph-name="Edieresis" unicode="&#xcb;" 
d="M1337 0h-1253v1430h1239v-345h-702v-202h671v-344h-671v-195h716v-344zM616 1538h-368v320h368v-320zM1157 1538h-369v320h369v-320z" />
    <glyph glyph-name="Igrave" unicode="&#xcc;" horiz-adv-x="757" 
d="M653 0h-549v1430h549v-1430zM612 1538h-284l-404 320h486z" />
    <glyph glyph-name="Iacute" unicode="&#xcd;" horiz-adv-x="757" 
d="M653 0h-549v1430h549v-1430zM834 1858l-404 -320h-285l203 320h486z" />
    <glyph glyph-name="Icircumflex" unicode="&#xce;" horiz-adv-x="757" 
d="M653 0h-549v1430h549v-1430zM817 1538h-297l-145 193l-135 -193h-299l235 320h408z" />
    <glyph glyph-name="Idieresis" unicode="&#xcf;" horiz-adv-x="757" 
d="M653 0h-549v1430h549v-1430zM293 1538h-369v320h369v-320zM834 1538h-369v320h369v-320z" />
    <glyph glyph-name="Eth" unicode="&#xd0;" horiz-adv-x="1669" 
d="M887 0h-785v625h-108v258h108v547h818q358 0 522 -172.5t164 -544.5q0 -713 -719 -713zM651 356h129q139 0 195.5 81t56.5 288q0 204 -55.5 288.5t-194.5 84.5h-131v-215h183v-258h-183v-269z" />
    <glyph glyph-name="Ntilde" unicode="&#xd1;" horiz-adv-x="1744" 
d="M1653 0h-807l-279 1036h-4v-1036h-471v1430h821l265 -1008h4v1008h471v-1430zM1128 1858h195q-9 -140 -87 -230t-189 -90q-70 0 -133 19t-114 38t-93 19q-35 0 -63 -23.5t-28 -52.5h-194q14 145 79 232.5t177 87.5q67 0 137 -18.5t127 -37t94 -18.5q41 0 61 17.5t31 56.5
z" />
    <glyph glyph-name="Ograve" unicode="&#xd2;" horiz-adv-x="1669" 
d="M1630 715q0 -357 -208 -548.5t-591 -191.5q-382 0 -587 191t-205 549q0 355 206 547t586 192q381 0 590 -193t209 -546zM831 319q118 0 172 91.5t54 304.5q0 395 -228 395q-217 0 -217 -395q0 -396 219 -396zM1069 1538h-285l-403 320h485z" />
    <glyph glyph-name="Oacute" unicode="&#xd3;" horiz-adv-x="1669" 
d="M1630 715q0 -357 -208 -548.5t-591 -191.5q-382 0 -587 191t-205 549q0 355 206 547t586 192q381 0 590 -193t209 -546zM831 319q118 0 172 91.5t54 304.5q0 395 -228 395q-217 0 -217 -395q0 -396 219 -396zM1290 1858l-403 -320h-285l203 320h485z" />
    <glyph glyph-name="Ocircumflex" unicode="&#xd4;" horiz-adv-x="1669" 
d="M1630 715q0 -357 -208 -548.5t-591 -191.5q-382 0 -587 191t-205 549q0 355 206 547t586 192q381 0 590 -193t209 -546zM831 319q118 0 172 91.5t54 304.5q0 395 -228 395q-217 0 -217 -395q0 -396 219 -396zM1274 1538h-297l-146 193l-135 -193h-299l236 320h407z" />
    <glyph glyph-name="Otilde" unicode="&#xd5;" horiz-adv-x="1669" 
d="M1630 715q0 -357 -208 -548.5t-591 -191.5q-382 0 -587 191t-205 549q0 355 206 547t586 192q381 0 590 -193t209 -546zM831 319q118 0 172 91.5t54 304.5q0 395 -228 395q-217 0 -217 -395q0 -396 219 -396zM1092 1858h194q-9 -140 -87 -230t-189 -90q-70 0 -133 19
t-114 38t-93 19q-35 0 -62.5 -23.5t-27.5 -52.5h-195q14 145 79 232.5t177 87.5q67 0 137 -18.5t127 -37t94 -18.5q41 0 61.5 17.5t31.5 56.5z" />
    <glyph glyph-name="Odieresis" unicode="&#xd6;" horiz-adv-x="1669" 
d="M1630 715q0 -357 -208 -548.5t-591 -191.5q-382 0 -587 191t-205 549q0 355 206 547t586 192q381 0 590 -193t209 -546zM831 319q118 0 172 91.5t54 304.5q0 395 -228 395q-217 0 -217 -395q0 -396 219 -396zM748 1538h-369v320h369v-320zM1288 1538h-368v320h368v-320z
" />
    <glyph glyph-name="multiply" unicode="&#xd7;" horiz-adv-x="1228" 
d="M901 0l-287 289l-284 -289l-228 231l285 285l-287 287l230 229l286 -287l285 287l227 -229l-284 -287l284 -283z" />
    <glyph glyph-name="Oslash" unicode="&#xd8;" horiz-adv-x="1669" 
d="M229 -209l-180 143l191 236q-201 192 -201 545q0 355 206 547t586 192q225 0 396 -70l207 254l180 -143l-191 -235q207 -198 207 -545q0 -357 -208 -548.5t-591 -191.5q-227 0 -395 70zM616 633l347 426q-51 51 -132 51q-219 0 -219 -405q0 -48 4 -72zM1053 803
l-351 -430q47 -54 129 -54q48 0 85.5 15t61.5 44.5t40.5 64.5t24.5 83.5t11 92.5t3 100q0 18 -4 84z" />
    <glyph glyph-name="Ugrave" unicode="&#xd9;" horiz-adv-x="1630" 
d="M993 571v859h537v-840q0 -307 -172.5 -461t-544.5 -154q-348 0 -530.5 153.5t-182.5 428.5v873h549v-850q0 -236 170 -236q93 0 133.5 54.5t40.5 172.5zM1049 1538h-285l-404 320h486z" />
    <glyph glyph-name="Uacute" unicode="&#xda;" horiz-adv-x="1630" 
d="M993 571v859h537v-840q0 -307 -172.5 -461t-544.5 -154q-348 0 -530.5 153.5t-182.5 428.5v873h549v-850q0 -236 170 -236q93 0 133.5 54.5t40.5 172.5zM1270 1858l-404 -320h-284l202 320h486z" />
    <glyph glyph-name="Ucircumflex" unicode="&#xdb;" horiz-adv-x="1630" 
d="M993 571v859h537v-840q0 -307 -172.5 -461t-544.5 -154q-348 0 -530.5 153.5t-182.5 428.5v873h549v-850q0 -236 170 -236q93 0 133.5 54.5t40.5 172.5zM1253 1538h-297l-145 193l-135 -193h-299l235 320h408z" />
    <glyph glyph-name="Udieresis" unicode="&#xdc;" horiz-adv-x="1630" 
d="M993 571v859h537v-840q0 -307 -172.5 -461t-544.5 -154q-348 0 -530.5 153.5t-182.5 428.5v873h549v-850q0 -236 170 -236q93 0 133.5 54.5t40.5 172.5zM727 1538h-369v320h369v-320zM1268 1538h-369v320h369v-320z" />
    <glyph glyph-name="Yacute" unicode="&#xdd;" horiz-adv-x="1554" 
d="M1049 0h-549v438l-531 992h596l223 -599h5l225 599h567l-536 -992v-438zM1233 1858l-404 -320h-284l203 320h485z" />
    <glyph glyph-name="Thorn" unicode="&#xde;" horiz-adv-x="1630" 
d="M1044 281h-393v-281h-549v1430h549v-132h385q242 0 388.5 -127t146.5 -364q0 -250 -140.5 -388t-386.5 -138zM637 612h131q134 0 194 47t60 138q0 85 -58.5 127.5t-193.5 42.5h-133v-355z" />
    <glyph glyph-name="germandbls" unicode="&#xdf;" horiz-adv-x="1517" 
d="M719 27v278q37 -22 108 -22q70 0 113 50.5t43 135.5q0 147 -264 147v283q100 3 143 49.5t43 141.5q0 91 -36 133.5t-113 42.5q-41 0 -70 -16.5t-44 -40t-23.5 -61.5t-10.5 -67.5t-2 -70.5v-1010h-516v1036q0 84 22.5 159.5t72.5 143t123.5 116.5t183 77.5t243.5 28.5
q666 0 666 -433q0 -141 -66 -224t-207 -120v-4q172 -39 261.5 -134t89.5 -234q0 -204 -127.5 -314t-354.5 -110q-17 0 -34 0.5t-35 2.5t-31 3t-33 4.5t-29 5t-31 6t-27.5 5.5t-30 6t-27.5 6z" />
    <glyph glyph-name="agrave" unicode="&#xe0;" horiz-adv-x="1327" 
d="M1253 0h-479v154h-4q-53 -88 -143.5 -133.5t-204.5 -45.5q-76 0 -143.5 17.5t-124.5 54t-90 99t-33 145.5q0 191 137 291t414 100q63 0 200 -14q-1 45 -21 76t-58 47.5t-83.5 23t-107.5 6.5q-173 0 -358 -90v299q129 37 224.5 49.5t219.5 12.5q109 0 197.5 -10
t176.5 -39.5t147.5 -77t96.5 -128t37 -188.5v-649zM782 432v37h-47q-50 0 -84.5 -3.5t-72 -15t-57 -37t-19.5 -65.5q0 -54 29.5 -78t91.5 -24q77 0 118 58.5t41 127.5zM897 1196h-285l-403 320h485z" />
    <glyph glyph-name="aacute" unicode="&#xe1;" horiz-adv-x="1327" 
d="M1253 0h-479v154h-4q-53 -88 -143.5 -133.5t-204.5 -45.5q-76 0 -143.5 17.5t-124.5 54t-90 99t-33 145.5q0 191 137 291t414 100q63 0 200 -14q-1 45 -21 76t-58 47.5t-83.5 23t-107.5 6.5q-173 0 -358 -90v299q129 37 224.5 49.5t219.5 12.5q109 0 197.5 -10
t176.5 -39.5t147.5 -77t96.5 -128t37 -188.5v-649zM782 432v37h-47q-50 0 -84.5 -3.5t-72 -15t-57 -37t-19.5 -65.5q0 -54 29.5 -78t91.5 -24q77 0 118 58.5t41 127.5zM1118 1516l-403 -320h-285l203 320h485z" />
    <glyph glyph-name="acircumflex" unicode="&#xe2;" horiz-adv-x="1327" 
d="M1253 0h-479v154h-4q-53 -88 -143.5 -133.5t-204.5 -45.5q-76 0 -143.5 17.5t-124.5 54t-90 99t-33 145.5q0 191 137 291t414 100q63 0 200 -14q-1 45 -21 76t-58 47.5t-83.5 23t-107.5 6.5q-173 0 -358 -90v299q129 37 224.5 49.5t219.5 12.5q109 0 197.5 -10
t176.5 -39.5t147.5 -77t96.5 -128t37 -188.5v-649zM782 432v37h-47q-50 0 -84.5 -3.5t-72 -15t-57 -37t-19.5 -65.5q0 -54 29.5 -78t91.5 -24q77 0 118 58.5t41 127.5zM1102 1196h-297l-146 193l-135 -193h-299l236 320h407z" />
    <glyph glyph-name="atilde" unicode="&#xe3;" horiz-adv-x="1327" 
d="M1253 0h-479v154h-4q-53 -88 -143.5 -133.5t-204.5 -45.5q-76 0 -143.5 17.5t-124.5 54t-90 99t-33 145.5q0 191 137 291t414 100q63 0 200 -14q-1 45 -21 76t-58 47.5t-83.5 23t-107.5 6.5q-173 0 -358 -90v299q129 37 224.5 49.5t219.5 12.5q109 0 197.5 -10
t176.5 -39.5t147.5 -77t96.5 -128t37 -188.5v-649zM782 432v37h-47q-50 0 -84.5 -3.5t-72 -15t-57 -37t-19.5 -65.5q0 -54 29.5 -78t91.5 -24q77 0 118 58.5t41 127.5zM920 1516h194q-9 -142 -86 -231t-190 -89q-64 0 -129 19t-118.5 38t-90.5 19t-64.5 -23.5t-27.5 -52.5
h-195q17 154 83 237t173 83q65 0 137 -18.5t130.5 -37t90.5 -18.5q41 0 62.5 18t30.5 56z" />
    <glyph glyph-name="adieresis" unicode="&#xe4;" horiz-adv-x="1327" 
d="M1253 0h-479v154h-4q-53 -88 -143.5 -133.5t-204.5 -45.5q-76 0 -143.5 17.5t-124.5 54t-90 99t-33 145.5q0 191 137 291t414 100q63 0 200 -14q-1 45 -21 76t-58 47.5t-83.5 23t-107.5 6.5q-173 0 -358 -90v299q129 37 224.5 49.5t219.5 12.5q109 0 197.5 -10
t176.5 -39.5t147.5 -77t96.5 -128t37 -188.5v-649zM782 432v37h-47q-50 0 -84.5 -3.5t-72 -15t-57 -37t-19.5 -65.5q0 -54 29.5 -78t91.5 -24q77 0 118 58.5t41 127.5zM578 1196h-369v320h369v-320zM1118 1196h-368v320h368v-320z" />
    <glyph glyph-name="aring" unicode="&#xe5;" horiz-adv-x="1327" 
d="M1253 0h-479v154h-4q-53 -88 -143.5 -133.5t-204.5 -45.5q-76 0 -143.5 17.5t-124.5 54t-90 99t-33 145.5q0 191 137 291t414 100q63 0 200 -14q-1 45 -21 76t-58 47.5t-83.5 23t-107.5 6.5q-173 0 -358 -90v299q129 37 224.5 49.5t219.5 12.5q109 0 197.5 -10
t176.5 -39.5t147.5 -77t96.5 -128t37 -188.5v-649zM782 432v37h-47q-50 0 -84.5 -3.5t-72 -15t-57 -37t-19.5 -65.5q0 -54 29.5 -78t91.5 -24q77 0 118 58.5t41 127.5zM623 1163q-99 0 -170.5 70.5t-71.5 171.5q0 98 70.5 170t171.5 72q98 0 169.5 -71t71.5 -171
q0 -99 -71 -170.5t-170 -71.5zM721 1405q0 43 -27.5 70.5t-70.5 27.5t-71 -27.5t-28 -70.5t28 -70.5t71 -27.5t70.5 27.5t27.5 70.5z" />
    <glyph glyph-name="ae" unicode="&#xe6;" horiz-adv-x="1972" 
d="M1870 313v-276q-269 -62 -449 -62q-92 0 -151 5t-125.5 23t-124.5 55t-117 98q-139 -181 -457 -181q-66 0 -125 10.5t-111.5 35t-90.5 60.5t-60 89.5t-22 120.5q0 190 132.5 290.5t379.5 100.5q7 0 211 -8q-8 73 -63 110t-183 37q-169 0 -356 -90v299q125 36 220.5 49
t225.5 13q284 0 391 -146q87 80 174 113t215 33q266 0 408.5 -153.5t142.5 -418.5v-110h-704q2 -80 72 -122t200 -42q203 0 367 67zM1231 635h258q-1 38 -3.5 62.5t-10.5 56t-21.5 49t-38.5 30.5t-59 13q-125 0 -125 -197v-14zM772 451v22h-53q-223 0 -223 -119
q0 -54 31.5 -83t88.5 -29q74 0 115 55t41 154z" />
    <glyph glyph-name="ccedilla" unicode="&#xe7;" horiz-adv-x="1138" 
d="M557 -256l-68 74l101 166q-269 23 -410 169t-141 400q0 268 167.5 403.5t495.5 135.5q222 0 373 -45v-316q-116 53 -229 53q-123 0 -190.5 -62t-67.5 -177q0 -120 68.5 -191t189.5 -71q132 0 237 63v-317q-140 -46 -311 -52l-70 -112q34 6 74 6q88 0 141.5 -44t53.5 -124
q0 -63 -46.5 -107.5t-113.5 -63.5t-145 -19q-162 0 -293 57l55 127q117 -49 188 -49q37 0 73 14t36 37q0 25 -27.5 41t-64.5 16q-39 0 -76 -12z" />
    <glyph glyph-name="egrave" unicode="&#xe8;" horiz-adv-x="1290" 
d="M1178 313v-276q-198 -62 -480 -62q-326 0 -494.5 150.5t-168.5 427.5q0 267 168 403t491 136q561 0 561 -625v-57h-712q5 -81 70.5 -122.5t211.5 -41.5q225 0 353 67zM809 635v6q0 205 -129 205q-66 0 -102.5 -50.5t-36.5 -140.5v-20h268zM879 1196h-285l-404 320h486z
" />
    <glyph glyph-name="eacute" unicode="&#xe9;" horiz-adv-x="1290" 
d="M1178 313v-276q-198 -62 -480 -62q-326 0 -494.5 150.5t-168.5 427.5q0 267 168 403t491 136q561 0 561 -625v-57h-712q5 -81 70.5 -122.5t211.5 -41.5q225 0 353 67zM809 635v6q0 205 -129 205q-66 0 -102.5 -50.5t-36.5 -140.5v-20h268zM1100 1516l-404 -320h-284
l202 320h486z" />
    <glyph glyph-name="ecircumflex" unicode="&#xea;" horiz-adv-x="1290" 
d="M1178 313v-276q-198 -62 -480 -62q-326 0 -494.5 150.5t-168.5 427.5q0 267 168 403t491 136q561 0 561 -625v-57h-712q5 -81 70.5 -122.5t211.5 -41.5q225 0 353 67zM809 635v6q0 205 -129 205q-66 0 -102.5 -50.5t-36.5 -140.5v-20h268zM1083 1196h-297l-145 193
l-135 -193h-299l235 320h408z" />
    <glyph glyph-name="edieresis" unicode="&#xeb;" horiz-adv-x="1290" 
d="M1178 313v-276q-198 -62 -480 -62q-326 0 -494.5 150.5t-168.5 427.5q0 267 168 403t491 136q561 0 561 -625v-57h-712q5 -81 70.5 -122.5t211.5 -41.5q225 0 353 67zM809 635v6q0 205 -129 205q-66 0 -102.5 -50.5t-36.5 -140.5v-20h268zM559 1196h-369v320h369v-320z
M1100 1196h-369v320h369v-320z" />
    <glyph glyph-name="igrave" unicode="&#xec;" horiz-adv-x="720" 
d="M618 0h-516v1067h516v-1067zM594 1196h-285l-403 320h485z" />
    <glyph glyph-name="iacute" unicode="&#xed;" horiz-adv-x="720" 
d="M618 0h-516v1067h516v-1067zM815 1516l-403 -320h-285l203 320h485z" />
    <glyph glyph-name="icircumflex" unicode="&#xee;" horiz-adv-x="720" 
d="M618 0h-516v1067h516v-1067zM799 1196h-297l-146 193l-135 -193h-299l236 320h407z" />
    <glyph glyph-name="idieresis" unicode="&#xef;" horiz-adv-x="720" 
d="M618 0h-516v1067h516v-1067zM274 1196h-368v320h368v-320zM815 1196h-369v320h369v-320z" />
    <glyph glyph-name="eth" unicode="&#xf0;" 
d="M897 881h4q-30 79 -114.5 164t-221.5 167l-176 -116l-143 121l129 86q-109 37 -205 51l213 223q115 -17 276 -82l189 127l156 -115l-154 -104q514 -278 514 -836q0 -275 -178.5 -433.5t-491.5 -158.5q-325 0 -490 135.5t-165 399.5q0 220 142.5 374t348.5 154
q135 0 217.5 -37t149.5 -120zM696 270q40 0 65.5 20t36.5 61t14 77t3 94q0 35 -1 57.5t-4 55t-10.5 53t-19.5 40.5t-32 30t-46 10q-37 0 -62 -23t-35 -65t-13.5 -77.5t-3.5 -82.5q0 -122 24.5 -186t83.5 -64z" />
    <glyph glyph-name="ntilde" unicode="&#xf1;" 
d="M1309 0h-516v623q0 30 -2.5 50t-11 42t-28 33.5t-49.5 11.5q-31 0 -51 -12t-28 -35.5t-10.5 -42.5t-2.5 -47v-623h-516v1067h488v-184h4q40 99 131 154t219 55q187 0 280 -89.5t93 -257.5v-745zM958 1516h195q-9 -142 -86 -231t-190 -89q-64 0 -129 19t-118.5 38
t-90.5 19t-65 -23.5t-28 -52.5h-194q17 154 83 237t173 83q65 0 137 -18.5t130.5 -37t90.5 -18.5q41 0 62 18t30 56z" />
    <glyph glyph-name="ograve" unicode="&#xf2;" 
d="M1364 553q0 -278 -172 -428t-492 -150q-318 0 -489.5 148.5t-171.5 429.5q0 267 168 403t493 136q327 0 495.5 -137.5t168.5 -401.5zM700 283q36 0 60 19t35.5 58.5t15.5 83.5t4 109q0 117 -24.5 174t-92.5 57q-37 0 -60.5 -19.5t-33.5 -58t-13 -71t-3 -82.5
q0 -66 3.5 -109t14.5 -83t34.5 -59t59.5 -19zM936 1196h-285l-403 320h485z" />
    <glyph glyph-name="oacute" unicode="&#xf3;" 
d="M1364 553q0 -278 -172 -428t-492 -150q-318 0 -489.5 148.5t-171.5 429.5q0 267 168 403t493 136q327 0 495.5 -137.5t168.5 -401.5zM700 283q36 0 60 19t35.5 58.5t15.5 83.5t4 109q0 117 -24.5 174t-92.5 57q-37 0 -60.5 -19.5t-33.5 -58t-13 -71t-3 -82.5
q0 -66 3.5 -109t14.5 -83t34.5 -59t59.5 -19zM1157 1516l-403 -320h-285l203 320h485z" />
    <glyph glyph-name="ocircumflex" unicode="&#xf4;" 
d="M1364 553q0 -278 -172 -428t-492 -150q-318 0 -489.5 148.5t-171.5 429.5q0 267 168 403t493 136q327 0 495.5 -137.5t168.5 -401.5zM700 283q36 0 60 19t35.5 58.5t15.5 83.5t4 109q0 117 -24.5 174t-92.5 57q-37 0 -60.5 -19.5t-33.5 -58t-13 -71t-3 -82.5
q0 -66 3.5 -109t14.5 -83t34.5 -59t59.5 -19zM1141 1196h-297l-146 193l-135 -193h-299l236 320h407z" />
    <glyph glyph-name="otilde" unicode="&#xf5;" 
d="M1364 553q0 -278 -172 -428t-492 -150q-318 0 -489.5 148.5t-171.5 429.5q0 267 168 403t493 136q327 0 495.5 -137.5t168.5 -401.5zM700 283q36 0 60 19t35.5 58.5t15.5 83.5t4 109q0 117 -24.5 174t-92.5 57q-37 0 -60.5 -19.5t-33.5 -58t-13 -71t-3 -82.5
q0 -66 3.5 -109t14.5 -83t34.5 -59t59.5 -19zM958 1516h195q-9 -142 -86 -231t-190 -89q-64 0 -129 19t-118.5 38t-90.5 19t-65 -23.5t-28 -52.5h-194q17 154 83 237t173 83q65 0 137 -18.5t130.5 -37t90.5 -18.5q41 0 62 18t30 56z" />
    <glyph glyph-name="odieresis" unicode="&#xf6;" 
d="M1364 553q0 -278 -172 -428t-492 -150q-318 0 -489.5 148.5t-171.5 429.5q0 267 168 403t493 136q327 0 495.5 -137.5t168.5 -401.5zM700 283q36 0 60 19t35.5 58.5t15.5 83.5t4 109q0 117 -24.5 174t-92.5 57q-37 0 -60.5 -19.5t-33.5 -58t-13 -71t-3 -82.5
q0 -66 3.5 -109t14.5 -83t34.5 -59t59.5 -19zM616 1196h-368v320h368v-320zM1157 1196h-369v320h369v-320z" />
    <glyph glyph-name="divide" unicode="&#xf7;" horiz-adv-x="1228" 
d="M616 739q-85 0 -143.5 59t-58.5 144q0 84 58.5 143.5t143.5 59.5q84 0 143.5 -58.5t59.5 -144.5q0 -83 -58.5 -143t-144.5 -60zM1130 350h-1032v332h1032v-332zM616 -113q-85 0 -143.5 59t-58.5 144q0 84 58.5 143.5t143.5 59.5t144 -59t59 -144q0 -83 -58.5 -143
t-144.5 -60z" />
    <glyph glyph-name="oslash" unicode="&#xf8;" 
d="M205 -238l-144 119l177 219q-199 150 -199 453q0 265 168.5 402t492.5 137q163 0 293 -37l199 252l147 -119l-170 -215q195 -136 195 -420q0 -277 -172 -427.5t-492 -150.5q-163 0 -294 41zM580 506l206 276q-30 27 -79 27q-78 0 -105 -66t-27 -206v-31h5zM827 541v22h-4
l-202 -276q26 -29 75 -29q42 0 69.5 20t40 61.5t17 86.5t4.5 115z" />
    <glyph glyph-name="ugrave" unicode="&#xf9;" 
d="M1309 0h-488v184h-4q-40 -98 -130.5 -153.5t-217.5 -55.5q-192 0 -283.5 91t-91.5 258v743h516v-623q0 -22 1 -36t5.5 -35.5t13.5 -34t27 -22t43 -9.5t43 9t27.5 21.5t15 33t6.5 36t1 37.5v623h516v-1067zM936 1196h-285l-403 320h485z" />
    <glyph glyph-name="uacute" unicode="&#xfa;" 
d="M1309 0h-488v184h-4q-40 -98 -130.5 -153.5t-217.5 -55.5q-192 0 -283.5 91t-91.5 258v743h516v-623q0 -22 1 -36t5.5 -35.5t13.5 -34t27 -22t43 -9.5t43 9t27.5 21.5t15 33t6.5 36t1 37.5v623h516v-1067zM1157 1516l-403 -320h-285l203 320h485z" />
    <glyph glyph-name="ucircumflex" unicode="&#xfb;" 
d="M1309 0h-488v184h-4q-40 -98 -130.5 -153.5t-217.5 -55.5q-192 0 -283.5 91t-91.5 258v743h516v-623q0 -22 1 -36t5.5 -35.5t13.5 -34t27 -22t43 -9.5t43 9t27.5 21.5t15 33t6.5 36t1 37.5v623h516v-1067zM1141 1196h-297l-146 193l-135 -193h-299l236 320h407z" />
    <glyph glyph-name="udieresis" unicode="&#xfc;" 
d="M1309 0h-488v184h-4q-40 -98 -130.5 -153.5t-217.5 -55.5q-192 0 -283.5 91t-91.5 258v743h516v-623q0 -22 1 -36t5.5 -35.5t13.5 -34t27 -22t43 -9.5t43 9t27.5 21.5t15 33t6.5 36t1 37.5v623h516v-1067zM616 1196h-368v320h368v-320zM1157 1196h-369v320h369v-320z" />
    <glyph glyph-name="yacute" unicode="&#xfd;" horiz-adv-x="1251" 
d="M45 -418v303q70 -20 152 -20q79 0 121 29.5t42 70.5q0 24 -8.5 58t-19.5 63t-35 92.5t-41 110.5l-283 778h535l133 -655h4l127 655h496l-322 -1016q-40 -129 -86.5 -218t-112.5 -156.5t-156 -99.5t-210 -32q-128 0 -336 37zM1081 1516l-403 -320h-285l203 320h485z" />
    <glyph glyph-name="thorn" unicode="&#xfe;" horiz-adv-x="1441" 
d="M618 -430h-516v1966h516v-598h5q89 154 307 154q226 0 347.5 -152t121.5 -424q0 -116 -28 -213t-82.5 -171t-142.5 -115.5t-202 -41.5q-220 0 -321 162h-5v-567zM735 295q38 0 64 17.5t39.5 50t18.5 69t5 84.5q0 122 -33 177t-100 55q-125 0 -125 -222q0 -113 27.5 -172
t103.5 -59z" />
    <glyph glyph-name="ydieresis" unicode="&#xff;" horiz-adv-x="1251" 
d="M45 -418v303q70 -20 152 -20q79 0 121 29.5t42 70.5q0 24 -8.5 58t-19.5 63t-35 92.5t-41 110.5l-283 778h535l133 -655h4l127 655h496l-322 -1016q-40 -129 -86.5 -218t-112.5 -156.5t-156 -99.5t-210 -32q-128 0 -336 37zM541 1196h-369v320h369v-320zM1081 1196h-368
v320h368v-320z" />
    <glyph glyph-name="Amacron" unicode="&#x100;" horiz-adv-x="1705" 
d="M1737 0h-576l-94 309h-463l-88 -309h-547l502 1430h756zM997 653l-155 469h-4l-158 -469h317zM1272 1602h-848v213h848v-213z" />
    <glyph glyph-name="amacron" unicode="&#x101;" horiz-adv-x="1327" 
d="M1253 0h-479v154h-4q-53 -88 -143.5 -133.5t-204.5 -45.5q-76 0 -143.5 17.5t-124.5 54t-90 99t-33 145.5q0 191 137 291t414 100q63 0 200 -14q-1 45 -21 76t-58 47.5t-83.5 23t-107.5 6.5q-173 0 -358 -90v299q129 37 224.5 49.5t219.5 12.5q109 0 197.5 -10
t176.5 -39.5t147.5 -77t96.5 -128t37 -188.5v-649zM782 432v37h-47q-50 0 -84.5 -3.5t-72 -15t-57 -37t-19.5 -65.5q0 -54 29.5 -78t91.5 -24q77 0 118 58.5t41 127.5zM1092 1260h-848v213h848v-213z" />
    <glyph glyph-name="Abreve" unicode="&#x102;" horiz-adv-x="1705" 
d="M1737 0h-576l-94 309h-463l-88 -309h-547l502 1430h756zM997 653l-155 469h-4l-158 -469h317zM1026 1858h225q0 -105 -56.5 -181.5t-146 -113.5t-198.5 -37q-173 0 -285.5 90t-115.5 242h225q22 -55 63 -81t113 -26t113 27.5t63 79.5z" />
    <glyph glyph-name="abreve" unicode="&#x103;" horiz-adv-x="1327" 
d="M1253 0h-479v154h-4q-53 -88 -143.5 -133.5t-204.5 -45.5q-76 0 -143.5 17.5t-124.5 54t-90 99t-33 145.5q0 191 137 291t414 100q63 0 200 -14q-1 45 -21 76t-58 47.5t-83.5 23t-107.5 6.5q-173 0 -358 -90v299q129 37 224.5 49.5t219.5 12.5q109 0 197.5 -10
t176.5 -39.5t147.5 -77t96.5 -128t37 -188.5v-649zM782 432v37h-47q-50 0 -84.5 -3.5t-72 -15t-57 -37t-19.5 -65.5q0 -54 29.5 -78t91.5 -24q77 0 118 58.5t41 127.5zM1067 1516v-5q0 -147 -114 -237t-287 -90q-171 0 -286 90t-116 242h225q22 -56 64.5 -81.5t112.5 -25.5
q129 0 176 107h225z" />
    <glyph glyph-name="Aogonek" unicode="&#x104;" horiz-adv-x="1705" 
d="M1567 -256l78 -41q-42 -97 -106.5 -143.5t-180.5 -46.5q-113 0 -176.5 54t-63.5 146q0 154 248 287h-205l-94 309h-463l-88 -309h-547l502 1430h756l510 -1430h-224l-71 -84q-78 -91 -78 -141q0 -45 26 -69.5t66 -24.5q64 0 111 63zM997 653l-155 469h-4l-158 -469h317z
" />
    <glyph glyph-name="aogonek" unicode="&#x105;" horiz-adv-x="1327" 
d="M1151 -256l78 -41q-42 -99 -108.5 -144.5t-178.5 -45.5q-113 0 -176.5 54t-63.5 146q0 154 248 287h-176v154h-4q-53 -88 -143.5 -133.5t-204.5 -45.5q-76 0 -143.5 17.5t-124.5 54t-90 99t-33 145.5q0 191 137 291t414 100q63 0 200 -14q-1 45 -21 76t-58 47.5t-83.5 23
t-107.5 6.5q-173 0 -358 -90v299q129 37 224.5 49.5t219.5 12.5q109 0 197.5 -10t176.5 -39.5t147.5 -77t96.5 -128t37 -188.5v-649h-155l-80 -94q-70 -82 -70 -131q0 -45 26 -69.5t66 -24.5q63 0 111 63zM782 432v37h-47q-50 0 -84.5 -3.5t-72 -15t-57 -37t-19.5 -65.5
q0 -54 29.5 -78t91.5 -24q77 0 118 58.5t41 127.5z" />
    <glyph glyph-name="Cacute" unicode="&#x106;" horiz-adv-x="1327" 
d="M1288 412v-379q-204 -58 -393 -58q-186 0 -341.5 49.5t-270.5 143.5t-179.5 239.5t-64.5 327.5q0 171 67 308.5t183.5 226.5t272 136.5t335.5 47.5q102 0 168.5 -8t218.5 -37v-377q-168 53 -274 53q-177 0 -293.5 -92.5t-116.5 -265.5q0 -177 106.5 -274t284.5 -97
q137 0 297 56zM1325 1858l-403 -320h-285l203 320h485z" />
    <glyph glyph-name="cacute" unicode="&#x107;" horiz-adv-x="1138" 
d="M1083 346v-317q-160 -54 -381 -54q-321 0 -492 148.5t-171 429.5q0 268 167.5 403.5t495.5 135.5q222 0 373 -45v-316q-116 53 -229 53q-123 0 -190.5 -62t-67.5 -177q0 -120 68.5 -191t189.5 -71q132 0 237 63zM1151 1516l-403 -320h-285l203 320h485z" />
    <glyph glyph-name="Ccircumflex" unicode="&#x108;" horiz-adv-x="1327" 
d="M1288 412v-379q-204 -58 -393 -58q-186 0 -341.5 49.5t-270.5 143.5t-179.5 239.5t-64.5 327.5q0 171 67 308.5t183.5 226.5t272 136.5t335.5 47.5q102 0 168.5 -8t218.5 -37v-377q-168 53 -274 53q-177 0 -293.5 -92.5t-116.5 -265.5q0 -177 106.5 -274t284.5 -97
q137 0 297 56zM1311 1538h-297l-146 193l-135 -193h-299l236 320h407z" />
    <glyph glyph-name="ccircumflex" unicode="&#x109;" horiz-adv-x="1138" 
d="M1083 346v-317q-160 -54 -381 -54q-321 0 -492 148.5t-171 429.5q0 268 167.5 403.5t495.5 135.5q222 0 373 -45v-316q-116 53 -229 53q-123 0 -190.5 -62t-67.5 -177q0 -120 68.5 -191t189.5 -71q132 0 237 63zM1104 1196h-297l-145 193l-136 -193h-299l236 320h407z
" />
    <glyph glyph-name="Cdotaccent" unicode="&#x10a;" horiz-adv-x="1327" 
d="M1288 412v-379q-204 -58 -393 -58q-186 0 -341.5 49.5t-270.5 143.5t-179.5 239.5t-64.5 327.5q0 171 67 308.5t183.5 226.5t272 136.5t335.5 47.5q102 0 168.5 -8t218.5 -37v-377q-168 53 -274 53q-177 0 -293.5 -92.5t-116.5 -265.5q0 -177 106.5 -274t284.5 -97
q137 0 297 56zM1057 1538h-369v320h369v-320z" />
    <glyph glyph-name="cdotaccent" unicode="&#x10b;" horiz-adv-x="1138" 
d="M1083 346v-317q-160 -54 -381 -54q-321 0 -492 148.5t-171 429.5q0 268 167.5 403.5t495.5 135.5q222 0 373 -45v-316q-116 53 -229 53q-123 0 -190.5 -62t-67.5 -177q0 -120 68.5 -191t189.5 -71q132 0 237 63zM850 1196h-369v320h369v-320z" />
    <glyph glyph-name="Ccaron" unicode="&#x10c;" horiz-adv-x="1327" 
d="M1288 412v-379q-204 -58 -393 -58q-186 0 -341.5 49.5t-270.5 143.5t-179.5 239.5t-64.5 327.5q0 171 67 308.5t183.5 226.5t272 136.5t335.5 47.5q102 0 168.5 -8t218.5 -37v-377q-168 53 -274 53q-177 0 -293.5 -92.5t-116.5 -265.5q0 -177 106.5 -274t284.5 -97
q137 0 297 56zM1075 1538h-407l-234 320h297l148 -193l133 193h299z" />
    <glyph glyph-name="ccaron" unicode="&#x10d;" horiz-adv-x="1138" 
d="M1083 346v-317q-160 -54 -381 -54q-321 0 -492 148.5t-171 429.5q0 268 167.5 403.5t495.5 135.5q222 0 373 -45v-316q-116 53 -229 53q-123 0 -190.5 -62t-67.5 -177q0 -120 68.5 -191t189.5 -71q132 0 237 63zM868 1196h-407l-234 320h297l148 -193l133 193h299z" />
    <glyph glyph-name="Dcaron" unicode="&#x10e;" horiz-adv-x="1669" 
d="M887 0h-785v1430h818q358 0 522 -172.5t164 -544.5q0 -713 -719 -713zM651 356h129q139 0 195.5 81t56.5 288q0 204 -55.5 288.5t-194.5 84.5h-131v-742zM969 1538h-408l-233 320h297l147 -193l133 193h299z" />
    <glyph glyph-name="dcaron" unicode="&#x10f;" horiz-adv-x="1734" 
d="M1339 0h-479v195h-4q-52 -117 -133.5 -168.5t-210.5 -51.5q-229 0 -349 154t-120 422q0 114 27.5 210.5t81.5 171t142.5 117t203.5 42.5q208 0 321 -162h4v606h516v-1536zM711 319q67 0 97 56t30 166q0 119 -30 175t-101 56q-28 0 -50 -9.5t-35 -27.5t-22 -38.5t-13 -48
t-5.5 -49t-1.5 -48.5q0 -112 30 -172t101 -60zM1667 1026h-229l28 451h320z" />
    <glyph glyph-name="Dcroat" unicode="&#x110;" horiz-adv-x="1669" 
d="M887 0h-785v625h-108v258h108v547h818q358 0 522 -172.5t164 -544.5q0 -713 -719 -713zM651 356h129q139 0 195.5 81t56.5 288q0 204 -55.5 288.5t-194.5 84.5h-131v-215h183v-258h-183v-269z" />
    <glyph glyph-name="dcroat" unicode="&#x111;" horiz-adv-x="1441" 
d="M1339 0h-479v195h-4q-52 -117 -133.5 -168.5t-210.5 -51.5q-229 0 -349 154t-120 422q0 114 27.5 210.5t81.5 171t142.5 117t203.5 42.5q208 0 321 -162h4v280h-325v193h325v133h516v-133h148v-193h-148v-1210zM711 319q67 0 97 56t30 166q0 119 -30 175t-101 56
q-28 0 -50 -9.5t-35 -27.5t-22 -38.5t-13 -48t-5.5 -49t-1.5 -48.5q0 -112 30 -172t101 -60z" />
    <glyph glyph-name="Emacron" unicode="&#x112;" 
d="M1337 0h-1253v1430h1239v-345h-702v-202h671v-344h-671v-195h716v-344zM1137 1602h-848v213h848v-213z" />
    <glyph glyph-name="emacron" unicode="&#x113;" horiz-adv-x="1290" 
d="M1178 313v-276q-198 -62 -480 -62q-326 0 -494.5 150.5t-168.5 427.5q0 267 168 403t491 136q561 0 561 -625v-57h-712q5 -81 70.5 -122.5t211.5 -41.5q225 0 353 67zM809 635v6q0 205 -129 205q-66 0 -102.5 -50.5t-36.5 -140.5v-20h268zM1077 1260h-848v213h848v-213z
" />
    <glyph glyph-name="Ebreve" unicode="&#x114;" 
d="M1337 0h-1253v1430h1239v-345h-702v-202h671v-344h-671v-195h716v-344zM889 1858h225q0 -105 -56.5 -181.5t-146 -113.5t-198.5 -37q-173 0 -286 90t-116 242h226q22 -55 63 -81t113 -26t113 27.5t63 79.5z" />
    <glyph glyph-name="ebreve" unicode="&#x115;" horiz-adv-x="1290" 
d="M1178 313v-276q-198 -62 -480 -62q-326 0 -494.5 150.5t-168.5 427.5q0 267 168 403t491 136q561 0 561 -625v-57h-712q5 -81 70.5 -122.5t211.5 -41.5q225 0 353 67zM809 635v6q0 205 -129 205q-66 0 -102.5 -50.5t-36.5 -140.5v-20h268zM1085 1516v-5q0 -147 -114 -237
t-287 -90q-171 0 -285.5 90t-115.5 242h225q22 -56 64 -81.5t112 -25.5q129 0 176 107h225z" />
    <glyph glyph-name="Edotaccent" unicode="&#x116;" 
d="M1337 0h-1253v1430h1239v-345h-702v-202h671v-344h-671v-195h716v-344zM907 1538h-368v320h368v-320z" />
    <glyph glyph-name="edotaccent" unicode="&#x117;" horiz-adv-x="1290" 
d="M1178 313v-276q-198 -62 -480 -62q-326 0 -494.5 150.5t-168.5 427.5q0 267 168 403t491 136q561 0 561 -625v-57h-712q5 -81 70.5 -122.5t211.5 -41.5q225 0 353 67zM809 635v6q0 205 -129 205q-66 0 -102.5 -50.5t-36.5 -140.5v-20h268zM844 1196h-369v320h369v-320z
" />
    <glyph glyph-name="Eogonek" unicode="&#x118;" 
d="M1235 -256l78 -41q-42 -97 -106.5 -143.5t-180.5 -46.5t-178 55.5t-62 144.5q0 156 248 287h-950v1430h1239v-345h-702v-202h671v-344h-671v-195h716v-344h-155q-15 -19 -52 -61t-52 -62t-30.5 -49.5t-15.5 -52.5q0 -45 26 -69.5t66 -24.5q63 0 111 63z" />
    <glyph glyph-name="eogonek" unicode="&#x119;" horiz-adv-x="1290" 
d="M854 -256l78 -41q-18 -41 -37 -69.5t-51.5 -59t-82 -46t-114.5 -15.5q-113 0 -177 53.5t-64 146.5q0 144 206 264q-283 19 -430 167t-147 409q0 267 168 403t491 136q561 0 561 -625v-57h-712q5 -81 70.5 -122.5t211.5 -41.5q225 0 353 67v-276q-150 -52 -396 -60
q-75 -83 -103 -126.5t-28 -75.5q0 -45 26 -69.5t66 -24.5q63 0 111 63zM809 635v6q0 205 -129 205q-66 0 -102.5 -50.5t-36.5 -140.5v-20h268z" />
    <glyph glyph-name="Ecaron" unicode="&#x11a;" 
d="M1337 0h-1253v1430h1239v-345h-702v-202h671v-344h-671v-195h716v-344zM909 1538h-407l-234 320h297l148 -193l133 193h299z" />
    <glyph glyph-name="ecaron" unicode="&#x11b;" horiz-adv-x="1290" 
d="M1178 313v-276q-198 -62 -480 -62q-326 0 -494.5 150.5t-168.5 427.5q0 267 168 403t491 136q561 0 561 -625v-57h-712q5 -81 70.5 -122.5t211.5 -41.5q225 0 353 67zM809 635v6q0 205 -129 205q-66 0 -102.5 -50.5t-36.5 -140.5v-20h268zM856 1196h-407l-234 320h297
l147 -193l134 193h299z" />
    <glyph glyph-name="Gcircumflex" unicode="&#x11c;" horiz-adv-x="1593" 
d="M1487 725v-672q-266 -78 -590 -78q-253 0 -445 87t-302.5 260.5t-110.5 412.5q0 224 113 388.5t306.5 247.5t442.5 83q162 0 282 -11t247 -42v-385q-65 37 -169 59.5t-206 22.5q-214 0 -334.5 -104.5t-120.5 -293.5q0 -167 74.5 -267.5t226.5 -100.5q80 0 115 12v381h471
zM1360 1538h-297l-145 193l-136 -193h-299l236 320h407z" />
    <glyph glyph-name="gcircumflex" unicode="&#x11d;" horiz-adv-x="1441" 
d="M852 178h-4q-61 -87 -151.5 -132.5t-198.5 -45.5q-112 0 -199.5 40.5t-143 112t-84 167.5t-28.5 210q0 258 118 410t341 152q139 0 237 -63.5t121 -178.5h4v217h484v-967q0 -267 -169.5 -411t-512.5 -144q-326 0 -553 66v344q77 -45 184 -73.5t217 -28.5q170 0 254 78
t84 247zM717 332q74 0 104.5 53t30.5 154q0 106 -30.5 163.5t-102.5 57.5q-127 0 -127 -215q0 -101 27.5 -157t97.5 -56zM1186 1196h-297l-146 193l-135 -193h-299l236 320h407z" />
    <glyph glyph-name="Gbreve" unicode="&#x11e;" horiz-adv-x="1593" 
d="M1487 725v-672q-266 -78 -590 -78q-253 0 -445 87t-302.5 260.5t-110.5 412.5q0 224 113 388.5t306.5 247.5t442.5 83q162 0 282 -11t247 -42v-385q-65 37 -169 59.5t-206 22.5q-214 0 -334.5 -104.5t-120.5 -293.5q0 -167 74.5 -267.5t226.5 -100.5q80 0 115 12v381h471
zM1098 1858h225q0 -105 -56.5 -181.5t-146 -113.5t-198.5 -37q-173 0 -286 90t-116 242h225q22 -55 63.5 -81t113.5 -26t113 27.5t63 79.5z" />
    <glyph glyph-name="gbreve" unicode="&#x11f;" horiz-adv-x="1441" 
d="M852 178h-4q-61 -87 -151.5 -132.5t-198.5 -45.5q-112 0 -199.5 40.5t-143 112t-84 167.5t-28.5 210q0 258 118 410t341 152q139 0 237 -63.5t121 -178.5h4v217h484v-967q0 -267 -169.5 -411t-512.5 -144q-326 0 -553 66v344q77 -45 184 -73.5t217 -28.5q170 0 254 78
t84 247zM717 332q74 0 104.5 53t30.5 154q0 106 -30.5 163.5t-102.5 57.5q-127 0 -127 -215q0 -101 27.5 -157t97.5 -56zM1149 1516v-5q0 -147 -114 -237t-287 -90q-171 0 -286 90t-116 242h225q22 -56 64.5 -81.5t112.5 -25.5q129 0 176 107h225z" />
    <glyph glyph-name="Gdotaccent" unicode="&#x120;" horiz-adv-x="1593" 
d="M1487 725v-672q-266 -78 -590 -78q-253 0 -445 87t-302.5 260.5t-110.5 412.5q0 224 113 388.5t306.5 247.5t442.5 83q162 0 282 -11t247 -42v-385q-65 37 -169 59.5t-206 22.5q-214 0 -334.5 -104.5t-120.5 -293.5q0 -167 74.5 -267.5t226.5 -100.5q80 0 115 12v381h471
zM1106 1538h-369v320h369v-320z" />
    <glyph glyph-name="gdotaccent" unicode="&#x121;" horiz-adv-x="1441" 
d="M852 178h-4q-61 -87 -151.5 -132.5t-198.5 -45.5q-112 0 -199.5 40.5t-143 112t-84 167.5t-28.5 210q0 258 118 410t341 152q139 0 237 -63.5t121 -178.5h4v217h484v-967q0 -267 -169.5 -411t-512.5 -144q-326 0 -553 66v344q77 -45 184 -73.5t217 -28.5q170 0 254 78
t84 247zM717 332q74 0 104.5 53t30.5 154q0 106 -30.5 163.5t-102.5 57.5q-127 0 -127 -215q0 -101 27.5 -157t97.5 -56zM932 1196h-369v320h369v-320z" />
    <glyph glyph-name="Gcommaaccent" unicode="&#x122;" horiz-adv-x="1593" 
d="M1487 725v-672q-266 -78 -590 -78q-253 0 -445 87t-302.5 260.5t-110.5 412.5q0 224 113 388.5t306.5 247.5t442.5 83q162 0 282 -11t247 -42v-385q-65 37 -169 59.5t-206 22.5q-214 0 -334.5 -104.5t-120.5 -293.5q0 -167 74.5 -267.5t226.5 -100.5q80 0 115 12v381h471
zM950 -479h-311l78 352h387z" />
    <glyph glyph-name="gcommaaccent" unicode="&#x123;" horiz-adv-x="1441" 
d="M852 178h-4q-61 -87 -151.5 -132.5t-198.5 -45.5q-112 0 -199.5 40.5t-143 112t-84 167.5t-28.5 210q0 258 118 410t341 152q139 0 237 -63.5t121 -178.5h4v217h484v-967q0 -267 -169.5 -411t-512.5 -144q-326 0 -553 66v344q77 -45 184 -73.5t217 -28.5q170 0 254 78
t84 247zM717 332q74 0 104.5 53t30.5 154q0 106 -30.5 163.5t-102.5 57.5q-127 0 -127 -215q0 -101 27.5 -157t97.5 -56zM893 1194h-373l154 319h297z" />
    <glyph glyph-name="Hcircumflex" unicode="&#x124;" horiz-adv-x="1669" 
d="M1567 0h-549v514h-367v-514h-549v1430h549v-494h367v494h549v-1430zM1276 1538h-297l-145 193l-136 -193h-299l236 320h407z" />
    <glyph glyph-name="hcircumflex" unicode="&#x125;" 
d="M1309 0h-516v623q0 22 -1.5 38.5t-6.5 36.5t-14.5 32.5t-27 21t-41.5 8.5q-31 0 -51 -12t-28 -35.5t-10.5 -42.5t-2.5 -47v-623h-516v1536h516v-602h4q43 72 131 115t191 43q186 0 279.5 -90t93.5 -257v-745zM1145 1620h-297l-146 192l-135 -192h-299l236 319h407z" />
    <glyph glyph-name="Hbar" unicode="&#x126;" horiz-adv-x="1669" 
d="M1567 0h-549v453h-367v-453h-549v1006h-102v227h102v197h549v-197h367v197h549v-197h102v-227h-102v-1006zM1018 801v205h-367v-205h367z" />
    <glyph glyph-name="hbar" unicode="&#x127;" 
d="M1364 0h-516v623q0 23 -1 39t-6.5 36t-14.5 32.5t-26.5 21t-41.5 8.5q-31 0 -51 -12t-28 -35.5t-10.5 -42.5t-2.5 -47v-623h-516v1210h-148v193h148v133h516v-133h325v-193h-325v-276h4q43 72 130.5 115t190.5 43q186 0 279.5 -90t93.5 -257v-745z" />
    <glyph glyph-name="Itilde" unicode="&#x128;" horiz-adv-x="757" 
d="M653 0h-549v1430h549v-1430zM635 1858h194q-9 -140 -87 -230t-189 -90q-70 0 -133 19t-114 38t-93 19q-35 0 -62.5 -23.5t-27.5 -52.5h-195q14 145 79 232.5t177 87.5q67 0 137 -18.5t127.5 -37t94.5 -18.5q41 0 61 17.5t31 56.5z" />
    <glyph glyph-name="itilde" unicode="&#x129;" horiz-adv-x="720" 
d="M618 0h-516v1067h516v-1067zM616 1516h195q-9 -142 -86 -231t-190 -89q-64 0 -129 19t-118.5 38t-90.5 19t-65 -23.5t-28 -52.5h-194q17 154 83 237t173 83q65 0 137 -18.5t130.5 -37t90.5 -18.5q41 0 62 18t30 56z" />
    <glyph glyph-name="Imacron" unicode="&#x12a;" horiz-adv-x="757" 
d="M653 0h-549v1430h549v-1430zM803 1602h-848v213h848v-213z" />
    <glyph glyph-name="imacron" unicode="&#x12b;" horiz-adv-x="720" 
d="M618 0h-516v1067h516v-1067zM788 1260h-847v213h847v-213z" />
    <glyph glyph-name="Iogonek" unicode="&#x12e;" horiz-adv-x="757" 
d="M571 -256l78 -41q-46 -108 -116 -149t-171 -41q-113 0 -176 54t-63 146q0 156 248 287h-267v1430h549v-1430h-135q-8 -11 -53 -61t-70.5 -90.5t-25.5 -73.5q0 -41 24 -67.5t68 -26.5q63 0 110 63z" />
    <glyph glyph-name="iogonek" unicode="&#x12f;" horiz-adv-x="720" 
d="M618 1180h-516v356h516v-356zM555 -256l78 -41q-43 -100 -110 -145t-177 -45q-113 0 -176.5 54t-63.5 146q0 155 248 287h-252v1067h516v-1067h-116q-8 -11 -55 -63.5t-71 -91t-24 -70.5q0 -45 26 -69.5t66 -24.5q66 0 111 63z" />
    <glyph glyph-name="Idotaccent" unicode="&#x130;" horiz-adv-x="757" 
d="M653 0h-549v1430h549v-1430zM563 1538h-368v320h368v-320z" />
    <glyph glyph-name="dotlessi" unicode="&#x131;" horiz-adv-x="720" 
d="M618 0h-516v1067h516v-1067z" />
    <glyph glyph-name="Jcircumflex" unicode="&#x134;" horiz-adv-x="985" 
d="M8 27v387q53 -33 123 -33q100 0 151.5 55t51.5 144v850h549v-979q0 -220 -133.5 -348t-395.5 -128q-153 0 -346 52zM1051 1538h-297l-146 193l-135 -193h-299l236 320h407z" />
    <glyph glyph-name="jcircumflex" unicode="&#x135;" horiz-adv-x="720" 
d="M-90 -422v301q38 -14 84 -14q52 0 80 37t28 96v1069h516v-1118q0 -190 -102.5 -297t-294.5 -107q-168 0 -311 33zM799 1196h-297l-146 193l-135 -193h-299l236 320h407z" />
    <glyph glyph-name="Kcommaaccent" unicode="&#x136;" horiz-adv-x="1669" 
d="M1649 0h-656l-356 606h-4v-606h-549v1430h549v-562h4l342 562h625l-482 -670zM844 -479h-312l78 352h387z" />
    <glyph glyph-name="kcommaaccent" unicode="&#x137;" horiz-adv-x="1517" 
d="M1516 0h-603l-290 518h-5v-518h-516v1536h516v-893h5l295 424h583l-360 -471zM811 -479h-311l78 352h387z" />
    <glyph glyph-name="Lacute" unicode="&#x139;" horiz-adv-x="1366" 
d="M1325 0h-1223v1430h549v-1008h674v-422zM858 1858l-403 -320h-285l203 320h485z" />
    <glyph glyph-name="lacute" unicode="&#x13a;" horiz-adv-x="720" 
d="M618 0h-516v1536h516v-1536zM827 1939l-403 -319h-285l203 319h485z" />
    <glyph glyph-name="Lcommaaccent" unicode="&#x13b;" horiz-adv-x="1366" 
d="M1325 0h-1223v1430h549v-1008h674v-422zM741 -479h-311l78 352h387z" />
    <glyph glyph-name="lcommaaccent" unicode="&#x13c;" horiz-adv-x="720" 
d="M618 0h-516v1536h516v-1536zM406 -479h-312l78 352h387z" />
    <glyph glyph-name="Lcaron" unicode="&#x13d;" horiz-adv-x="1366" 
d="M1325 0h-1223v1430h549v-1008h674v-422zM1026 1085h-229l28 451h320z" />
    <glyph glyph-name="lcaron" unicode="&#x13e;" horiz-adv-x="1011" 
d="M618 0h-516v1536h516v-1536zM944 1026h-229l28 451h320z" />
    <glyph glyph-name="Ldot" unicode="&#x13f;" horiz-adv-x="1366" 
d="M1325 0h-1223v1430h549v-1008h674v-422zM1190 625h-369v319h369v-319z" />
    <glyph glyph-name="ldot" unicode="&#x140;" horiz-adv-x="1191" 
d="M618 0h-516v1536h516v-1536zM1128 625h-368v319h368v-319z" />
    <glyph glyph-name="Lslash" unicode="&#x141;" horiz-adv-x="1366" 
d="M1325 0h-1223v494l-129 -70v256l129 70v680h549v-383l314 170v-256l-314 -168v-371h674v-422z" />
    <glyph glyph-name="lslash" unicode="&#x142;" horiz-adv-x="720" 
d="M618 0h-516v565l-102 -63v246l102 63v725h516v-446l103 55v-246l-103 -55v-844z" />
    <glyph glyph-name="Nacute" unicode="&#x143;" horiz-adv-x="1744" 
d="M1653 0h-807l-279 1036h-4v-1036h-471v1430h821l265 -1008h4v1008h471v-1430zM1391 1858l-404 -320h-285l203 320h486z" />
    <glyph glyph-name="nacute" unicode="&#x144;" 
d="M1309 0h-516v623q0 30 -2.5 50t-11 42t-28 33.5t-49.5 11.5q-31 0 -51 -12t-28 -35.5t-10.5 -42.5t-2.5 -47v-623h-516v1067h488v-184h4q40 99 131 154t219 55q187 0 280 -89.5t93 -257.5v-745zM1210 1516l-403 -320h-285l203 320h485z" />
    <glyph glyph-name="Ncommaaccent" unicode="&#x145;" horiz-adv-x="1744" 
d="M1653 0h-807l-279 1036h-4v-1036h-471v1430h821l265 -1008h4v1008h471v-1430zM965 -479h-312l78 352h387z" />
    <glyph glyph-name="ncommaaccent" unicode="&#x146;" 
d="M1309 0h-516v623q0 30 -2.5 50t-11 42t-28 33.5t-49.5 11.5q-31 0 -51 -12t-28 -35.5t-10.5 -42.5t-2.5 -47v-623h-516v1067h488v-184h4q40 99 131 154t219 55q187 0 280 -89.5t93 -257.5v-745zM760 -479h-311l77 352h387z" />
    <glyph glyph-name="Ncaron" unicode="&#x147;" horiz-adv-x="1744" 
d="M1653 0h-807l-279 1036h-4v-1036h-471v1430h821l265 -1008h4v1008h471v-1430zM1112 1538h-407l-234 320h297l147 -193l134 193h299z" />
    <glyph glyph-name="ncaron" unicode="&#x148;" 
d="M1309 0h-516v623q0 30 -2.5 50t-11 42t-28 33.5t-49.5 11.5q-31 0 -51 -12t-28 -35.5t-10.5 -42.5t-2.5 -47v-623h-516v1067h488v-184h4q40 99 131 154t219 55q187 0 280 -89.5t93 -257.5v-745zM920 1196h-408l-233 320h296l148 -193l133 193h299z" />
    <glyph glyph-name="Omacron" unicode="&#x14c;" horiz-adv-x="1669" 
d="M1630 715q0 -357 -208 -548.5t-591 -191.5q-382 0 -587 191t-205 549q0 355 206 547t586 192q381 0 590 -193t209 -546zM831 319q118 0 172 91.5t54 304.5q0 395 -228 395q-217 0 -217 -395q0 -396 219 -396zM1264 1602h-848v213h848v-213z" />
    <glyph glyph-name="omacron" unicode="&#x14d;" 
d="M1364 553q0 -278 -172 -428t-492 -150q-318 0 -489.5 148.5t-171.5 429.5q0 267 168 403t493 136q327 0 495.5 -137.5t168.5 -401.5zM700 283q36 0 60 19t35.5 58.5t15.5 83.5t4 109q0 117 -24.5 174t-92.5 57q-37 0 -60.5 -19.5t-33.5 -58t-13 -71t-3 -82.5
q0 -66 3.5 -109t14.5 -83t34.5 -59t59.5 -19zM1128 1260h-847v213h847v-213z" />
    <glyph glyph-name="Obreve" unicode="&#x14e;" horiz-adv-x="1669" 
d="M1630 715q0 -357 -208 -548.5t-591 -191.5q-382 0 -587 191t-205 549q0 355 206 547t586 192q381 0 590 -193t209 -546zM831 319q118 0 172 91.5t54 304.5q0 395 -228 395q-217 0 -217 -395q0 -396 219 -396zM1006 1858h225q0 -105 -56.5 -181.5t-146.5 -113.5t-199 -37
q-173 0 -285.5 90t-115.5 242h225q22 -55 63 -81t113 -26q131 0 177 107z" />
    <glyph glyph-name="obreve" unicode="&#x14f;" 
d="M1364 553q0 -278 -172 -428t-492 -150q-318 0 -489.5 148.5t-171.5 429.5q0 267 168 403t493 136q327 0 495.5 -137.5t168.5 -401.5zM700 283q36 0 60 19t35.5 58.5t15.5 83.5t4 109q0 117 -24.5 174t-92.5 57q-37 0 -60.5 -19.5t-33.5 -58t-13 -71t-3 -82.5
q0 -66 3.5 -109t14.5 -83t34.5 -59t59.5 -19zM1102 1516v-5q0 -147 -114.5 -237t-287.5 -90q-171 0 -285.5 90t-115.5 242h225q22 -56 64 -81.5t112 -25.5q130 0 177 107h225z" />
    <glyph glyph-name="Ohungarumlaut" unicode="&#x150;" horiz-adv-x="1669" 
d="M1630 715q0 -357 -208 -548.5t-591 -191.5q-382 0 -587 191t-205 549q0 355 206 547t586 192q381 0 590 -193t209 -546zM831 319q118 0 172 91.5t54 304.5q0 395 -228 395q-217 0 -217 -395q0 -396 219 -396zM1034 1858l-403 -320h-285l203 320h485zM1616 1858l-404 -320
h-284l202 320h486z" />
    <glyph glyph-name="ohungarumlaut" unicode="&#x151;" 
d="M1364 553q0 -278 -172 -428t-492 -150q-318 0 -489.5 148.5t-171.5 429.5q0 267 168 403t493 136q327 0 495.5 -137.5t168.5 -401.5zM700 283q36 0 60 19t35.5 58.5t15.5 83.5t4 109q0 117 -24.5 174t-92.5 57q-37 0 -60.5 -19.5t-33.5 -58t-13 -71t-3 -82.5
q0 -66 3.5 -109t14.5 -83t34.5 -59t59.5 -19zM862 1516l-403 -320h-285l203 320h485zM1497 1516l-403 -320h-285l203 320h485z" />
    <glyph glyph-name="OE" unicode="&#x152;" horiz-adv-x="2199" 
d="M2146 0h-1335q-384 0 -571 173.5t-187 535.5q0 381 180 551t578 170h1321v-345h-600v-202h565v-344h-565v-195h614v-344zM995 344v741h-104q-54 0 -90 -5t-69.5 -20t-54 -42t-35.5 -70.5t-21.5 -105.5t-6.5 -148q0 -191 59 -270.5t224 -79.5h98z" />
    <glyph glyph-name="oe" unicode="&#x153;" horiz-adv-x="2048" 
d="M1937 313v-276q-269 -62 -452 -62q-171 0 -260.5 30t-173.5 114q-128 -144 -416 -144q-276 0 -436 148t-160 430q0 257 159 398t443 141q133 0 229.5 -35.5t173.5 -108.5q100 85 181.5 114.5t208.5 29.5q280 0 424.5 -144t144.5 -434v-104h-705q1 -83 74.5 -123.5
t200.5 -40.5q200 0 364 67zM1298 635h258q-1 40 -4 67t-11.5 56.5t-22.5 47t-38.5 29t-58.5 11.5q-123 0 -123 -211zM700 283q36 0 60 19t35.5 58.5t15.5 83.5t4 109q0 117 -24.5 174t-92.5 57q-37 0 -60.5 -19.5t-33.5 -58t-13 -71t-3 -82.5q0 -66 3.5 -109t14.5 -83
t34.5 -59t59.5 -19z" />
    <glyph glyph-name="Racute" unicode="&#x154;" horiz-adv-x="1593" 
d="M1559 0h-572q-10 38 -29 201q-22 176 -58.5 230t-139.5 54h-127v-485h-549v1430h891q549 0 549 -381q0 -297 -342 -379v-4q185 -31 260 -191q30 -64 61.5 -239.5t55.5 -235.5zM608 805h160q112 0 159.5 38.5t47.5 121.5q0 82 -55 113.5t-152 31.5h-160v-305zM1274 1858
l-404 -320h-284l202 320h486z" />
    <glyph glyph-name="racute" unicode="&#x155;" horiz-adv-x="1024" 
d="M618 0h-516v1067h484v-242h4q110 267 325 267q47 0 84 -11v-428q-43 17 -114 17q-113 0 -190 -84t-77 -197v-389zM1065 1516l-403 -320h-285l203 320h485z" />
    <glyph glyph-name="Rcommaaccent" unicode="&#x156;" horiz-adv-x="1593" 
d="M1559 0h-572q-10 38 -29 201q-22 176 -58.5 230t-139.5 54h-127v-485h-549v1430h891q549 0 549 -381q0 -297 -342 -379v-4q185 -31 260 -191q30 -64 61.5 -239.5t55.5 -235.5zM608 805h160q112 0 159.5 38.5t47.5 121.5q0 82 -55 113.5t-152 31.5h-160v-305zM846 -479
h-311l77 352h387z" />
    <glyph glyph-name="rcommaaccent" unicode="&#x157;" horiz-adv-x="1024" 
d="M618 0h-516v1067h484v-242h4q110 267 325 267q47 0 84 -11v-428q-43 17 -114 17q-113 0 -190 -84t-77 -197v-389zM403 -479h-311l78 352h387z" />
    <glyph glyph-name="Rcaron" unicode="&#x158;" horiz-adv-x="1593" 
d="M1559 0h-572q-10 38 -29 201q-22 176 -58.5 230t-139.5 54h-127v-485h-549v1430h891q549 0 549 -381q0 -297 -342 -379v-4q185 -31 260 -191q30 -64 61.5 -239.5t55.5 -235.5zM608 805h160q112 0 159.5 38.5t47.5 121.5q0 82 -55 113.5t-152 31.5h-160v-305zM983 1538
h-408l-233 320h297l147 -193l134 193h299z" />
    <glyph glyph-name="rcaron" unicode="&#x159;" horiz-adv-x="1024" 
d="M618 0h-516v1067h484v-242h4q110 267 325 267q47 0 84 -11v-428q-43 17 -114 17q-113 0 -190 -84t-77 -197v-389zM766 1196h-408l-233 320h297l147 -193l133 193h299z" />
    <glyph glyph-name="Sacute" unicode="&#x15a;" 
d="M66 43v371q229 -95 489 -95q116 0 182 26t66 73q0 26 -14.5 44.5t-59 33.5t-76.5 22.5t-114 24.5q-19 4 -29 6q-108 22 -187.5 54t-143 82.5t-96 127t-32.5 178.5q0 229 184 346t551 117q234 0 474 -49v-367q-206 72 -424 72q-46 0 -79.5 -2.5t-73.5 -11t-61.5 -29
t-21.5 -51.5q0 -25 14 -42t55.5 -31.5t68 -20.5t99.5 -20q23 -5 35 -7q57 -11 101.5 -22t96.5 -29.5t90.5 -41t76.5 -56t62 -74t38.5 -96t14.5 -121.5q0 -123 -51.5 -215.5t-146 -150t-220.5 -86t-283 -28.5q-297 0 -585 68zM1212 1858l-403 -320h-285l203 320h485z" />
    <glyph glyph-name="sacute" unicode="&#x15b;" horiz-adv-x="1138" 
d="M66 37v305q73 -44 175.5 -70t202.5 -26q82 0 135.5 17t53.5 52q0 17 -12.5 29.5t-41.5 21.5t-52 14.5t-69 13.5t-67 12q-82 16 -141.5 38t-110.5 58.5t-77.5 94t-26.5 134.5q0 182 156.5 271.5t443.5 89.5q173 0 385 -45v-287q-180 61 -336 61q-54 0 -89.5 -4.5
t-62 -21.5t-26.5 -47q0 -26 43.5 -39.5t165.5 -28.5q199 -27 294 -103t95 -215q0 -88 -38.5 -157t-99 -111.5t-141 -70t-157.5 -38t-156 -10.5q-204 0 -446 62zM1075 1516l-403 -320h-285l203 320h485z" />
    <glyph glyph-name="Scircumflex" unicode="&#x15c;" 
d="M66 43v371q229 -95 489 -95q116 0 182 26t66 73q0 26 -14.5 44.5t-59 33.5t-76.5 22.5t-114 24.5q-19 4 -29 6q-108 22 -187.5 54t-143 82.5t-96 127t-32.5 178.5q0 229 184 346t551 117q234 0 474 -49v-367q-206 72 -424 72q-46 0 -79.5 -2.5t-73.5 -11t-61.5 -29
t-21.5 -51.5q0 -25 14 -42t55.5 -31.5t68 -20.5t99.5 -20q23 -5 35 -7q57 -11 101.5 -22t96.5 -29.5t90.5 -41t76.5 -56t62 -74t38.5 -96t14.5 -121.5q0 -123 -51.5 -215.5t-146 -150t-220.5 -86t-283 -28.5q-297 0 -585 68zM1141 1538h-297l-146 193l-135 -193h-299
l236 320h407z" />
    <glyph glyph-name="scircumflex" unicode="&#x15d;" horiz-adv-x="1138" 
d="M66 37v305q73 -44 175.5 -70t202.5 -26q82 0 135.5 17t53.5 52q0 17 -12.5 29.5t-41.5 21.5t-52 14.5t-69 13.5t-67 12q-82 16 -141.5 38t-110.5 58.5t-77.5 94t-26.5 134.5q0 182 156.5 271.5t443.5 89.5q173 0 385 -45v-287q-180 61 -336 61q-54 0 -89.5 -4.5
t-62 -21.5t-26.5 -47q0 -26 43.5 -39.5t165.5 -28.5q199 -27 294 -103t95 -215q0 -88 -38.5 -157t-99 -111.5t-141 -70t-157.5 -38t-156 -10.5q-204 0 -446 62zM1008 1196h-297l-146 193l-135 -193h-299l236 320h407z" />
    <glyph glyph-name="Scedilla" unicode="&#x15e;" 
d="M573 -256l-67 74l96 157q-150 5 -263 19t-273 49v371q229 -95 489 -95q116 0 182 26t66 73q0 26 -14.5 44.5t-59 33.5t-76.5 22.5t-114 24.5q-19 4 -29 6q-108 22 -187.5 54t-143 82.5t-96 127t-32.5 178.5q0 229 184 346t551 117q234 0 474 -49v-367q-206 72 -424 72
q-46 0 -79.5 -2.5t-73.5 -11t-61.5 -29t-21.5 -51.5q0 -25 14 -42t55.5 -31.5t68 -20.5t99.5 -20q23 -5 35 -7q57 -11 101.5 -22t96.5 -29.5t90.5 -41t76.5 -56t62 -74t38.5 -96t14.5 -121.5q0 -204 -143 -325.5t-418 -147.5l-72 -117q35 6 74 6q85 0 139.5 -43t54.5 -125
q0 -65 -48.5 -109.5t-115 -62.5t-141.5 -18q-164 0 -293 57l55 127q2 -1 23 -9t26.5 -10t25 -8.5t29.5 -9t27 -6t31 -5t29 -1.5q35 0 70.5 14t35.5 37q0 27 -27.5 42t-66.5 15q-37 0 -74 -12z" />
    <glyph glyph-name="scedilla" unicode="&#x15f;" horiz-adv-x="1138" 
d="M436 -256l-67 74l96 157q-184 7 -399 62v305q73 -44 175.5 -70t202.5 -26q82 0 135.5 17t53.5 52q0 17 -12.5 29.5t-41.5 21.5t-52 14.5t-69 13.5t-67 12q-82 16 -141.5 38t-110.5 58.5t-77.5 94t-26.5 134.5q0 182 156.5 271.5t443.5 89.5q173 0 385 -45v-287
q-180 61 -336 61q-54 0 -89.5 -4.5t-62 -21.5t-26.5 -47q0 -26 43.5 -39.5t165.5 -28.5q199 -27 294 -103t95 -215q0 -151 -116 -250.5t-333 -125.5l-73 -121q34 6 73 6q88 0 141.5 -44t53.5 -124q0 -92 -90 -141t-215 -49q-161 0 -293 57l55 127q126 -49 191 -49
q35 0 70.5 14t35.5 37q0 28 -28.5 42.5t-63.5 14.5q-38 0 -76 -12z" />
    <glyph glyph-name="Scaron" unicode="&#x160;" 
d="M66 43v371q229 -95 489 -95q116 0 182 26t66 73q0 26 -14.5 44.5t-59 33.5t-76.5 22.5t-114 24.5q-19 4 -29 6q-108 22 -187.5 54t-143 82.5t-96 127t-32.5 178.5q0 229 184 346t551 117q234 0 474 -49v-367q-206 72 -424 72q-46 0 -79.5 -2.5t-73.5 -11t-61.5 -29
t-21.5 -51.5q0 -25 14 -42t55.5 -31.5t68 -20.5t99.5 -20q23 -5 35 -7q57 -11 101.5 -22t96.5 -29.5t90.5 -41t76.5 -56t62 -74t38.5 -96t14.5 -121.5q0 -123 -51.5 -215.5t-146 -150t-220.5 -86t-283 -28.5q-297 0 -585 68zM905 1538h-407l-234 320h297l148 -193l133 193
h299z" />
    <glyph glyph-name="scaron" unicode="&#x161;" horiz-adv-x="1138" 
d="M66 37v305q73 -44 175.5 -70t202.5 -26q82 0 135.5 17t53.5 52q0 17 -12.5 29.5t-41.5 21.5t-52 14.5t-69 13.5t-67 12q-82 16 -141.5 38t-110.5 58.5t-77.5 94t-26.5 134.5q0 182 156.5 271.5t443.5 89.5q173 0 385 -45v-287q-180 61 -336 61q-54 0 -89.5 -4.5
t-62 -21.5t-26.5 -47q0 -26 43.5 -39.5t165.5 -28.5q199 -27 294 -103t95 -215q0 -88 -38.5 -157t-99 -111.5t-141 -70t-157.5 -38t-156 -10.5q-204 0 -446 62zM772 1196h-407l-234 320h297l147 -193l134 193h299z" />
    <glyph glyph-name="Tcommaaccent" unicode="&#x162;" horiz-adv-x="1556" 
d="M1053 0h-549v1008h-484v422h1516v-422h-483v-1008zM819 -479h-311l78 352h387z" />
    <glyph glyph-name="tcommaaccent" unicode="&#x163;" horiz-adv-x="948" 
d="M932 338v-307q-192 -56 -352 -56q-204 0 -301 103.5t-97 310.5v371h-182v307h182v246l516 157v-403h234v-307h-234v-301q0 -65 30 -102.5t85 -37.5q64 0 119 19zM557 -479h-311l78 352h387z" />
    <glyph glyph-name="Tcaron" unicode="&#x164;" horiz-adv-x="1556" 
d="M1053 0h-549v1008h-484v422h1516v-422h-483v-1008zM987 1538h-407l-234 320h297l148 -193l133 193h299z" />
    <glyph glyph-name="tcaron" unicode="&#x165;" horiz-adv-x="1003" 
d="M987 1157h-194l16 379h266zM932 338v-307q-192 -56 -352 -56q-204 0 -301 103.5t-97 310.5v371h-182v307h182v246l516 157v-403h234v-307h-234v-301q0 -65 30 -102.5t85 -37.5q64 0 119 19z" />
    <glyph glyph-name="Tbar" unicode="&#x166;" horiz-adv-x="1556" 
d="M1053 0h-549v555h-336v244h336v209h-484v422h1516v-422h-483v-209h331v-244h-331v-555z" />
    <glyph glyph-name="tbar" unicode="&#x167;" horiz-adv-x="948" 
d="M932 338v-307q-192 -56 -352 -56q-204 0 -301 103.5t-97 310.5v86h-151v195h151v151h-182v246h182v246l516 157v-403h234v-246h-234v-151h174v-195h-174v-45q0 -51 32 -81t83 -30q64 0 119 19z" />
    <glyph glyph-name="Utilde" unicode="&#x168;" horiz-adv-x="1630" 
d="M993 571v859h537v-840q0 -307 -172.5 -461t-544.5 -154q-348 0 -530.5 153.5t-182.5 428.5v873h549v-850q0 -236 170 -236q93 0 133.5 54.5t40.5 172.5zM1077 1858h195q-9 -140 -87.5 -230t-189.5 -90q-70 0 -133 19t-114 38t-93 19q-35 0 -62.5 -23.5t-27.5 -52.5h-194
q14 145 79 232.5t177 87.5q67 0 137 -18.5t127 -37t94 -18.5q41 0 61 17.5t31 56.5z" />
    <glyph glyph-name="utilde" unicode="&#x169;" 
d="M1309 0h-488v184h-4q-40 -98 -130.5 -153.5t-217.5 -55.5q-192 0 -283.5 91t-91.5 258v743h516v-623q0 -22 1 -36t5.5 -35.5t13.5 -34t27 -22t43 -9.5t43 9t27.5 21.5t15 33t6.5 36t1 37.5v623h516v-1067zM956 1516h195q-9 -142 -86.5 -231t-190.5 -89q-64 0 -128.5 19
t-118 38t-90.5 19t-65 -23.5t-28 -52.5h-194q17 154 83 237t173 83q65 0 137 -18.5t130.5 -37t90.5 -18.5q41 0 62 18t30 56z" />
    <glyph glyph-name="Umacron" unicode="&#x16a;" horiz-adv-x="1630" 
d="M993 571v859h537v-840q0 -307 -172.5 -461t-544.5 -154q-348 0 -530.5 153.5t-182.5 428.5v873h549v-850q0 -236 170 -236q93 0 133.5 54.5t40.5 172.5zM1262 1602h-848v213h848v-213z" />
    <glyph glyph-name="umacron" unicode="&#x16b;" 
d="M1309 0h-488v184h-4q-40 -98 -130.5 -153.5t-217.5 -55.5q-192 0 -283.5 91t-91.5 258v743h516v-623q0 -22 1 -36t5.5 -35.5t13.5 -34t27 -22t43 -9.5t43 9t27.5 21.5t15 33t6.5 36t1 37.5v623h516v-1067zM1135 1260h-848v213h848v-213z" />
    <glyph glyph-name="Ubreve" unicode="&#x16c;" horiz-adv-x="1630" 
d="M993 571v859h537v-840q0 -307 -172.5 -461t-544.5 -154q-348 0 -530.5 153.5t-182.5 428.5v873h549v-850q0 -236 170 -236q93 0 133.5 54.5t40.5 172.5zM1014 1858h225q0 -105 -56.5 -181.5t-146 -113.5t-198.5 -37q-173 0 -286 90t-116 242h226q22 -55 63 -81t113 -26
t113 27.5t63 79.5z" />
    <glyph glyph-name="ubreve" unicode="&#x16d;" 
d="M1309 0h-488v184h-4q-40 -98 -130.5 -153.5t-217.5 -55.5q-192 0 -283.5 91t-91.5 258v743h516v-623q0 -22 1 -36t5.5 -35.5t13.5 -34t27 -22t43 -9.5t43 9t27.5 21.5t15 33t6.5 36t1 37.5v623h516v-1067zM1102 1516v-5q0 -147 -114.5 -237t-287.5 -90q-171 0 -285.5 90
t-115.5 242h225q22 -56 64 -81.5t112 -25.5q130 0 177 107h225z" />
    <glyph glyph-name="Uring" unicode="&#x16e;" horiz-adv-x="1630" 
d="M993 571v859h537v-840q0 -307 -172.5 -461t-544.5 -154q-348 0 -530.5 153.5t-182.5 428.5v873h549v-850q0 -236 170 -236q93 0 133.5 54.5t40.5 172.5zM825 1485q-104 0 -172.5 69t-68.5 172q0 102 69.5 172t171.5 70q103 0 172.5 -69.5t69.5 -172.5q0 -101 -69.5 -171
t-172.5 -70zM924 1726q0 41 -29 70t-70 29q-42 0 -70 -28.5t-28 -70.5t28 -70t70 -28q43 0 71 28t28 70z" />
    <glyph glyph-name="uring" unicode="&#x16f;" 
d="M1309 0h-488v184h-4q-40 -98 -130.5 -153.5t-217.5 -55.5q-192 0 -283.5 91t-91.5 258v743h516v-623q0 -22 1 -36t5.5 -35.5t13.5 -34t27 -22t43 -9.5t43 9t27.5 21.5t15 33t6.5 36t1 37.5v623h516v-1067zM698 1163q-99 0 -170 70.5t-71 171.5q0 98 70 170t171 72
q98 0 170 -71t72 -171q0 -99 -71.5 -170.5t-170.5 -71.5zM797 1405q0 43 -28 70.5t-71 27.5t-70.5 -27.5t-27.5 -70.5t27.5 -70.5t70.5 -27.5t71 27.5t28 70.5z" />
    <glyph glyph-name="Uhungarumlaut" unicode="&#x170;" horiz-adv-x="1630" 
d="M993 571v859h537v-840q0 -307 -172.5 -461t-544.5 -154q-348 0 -530.5 153.5t-182.5 428.5v873h549v-850q0 -236 170 -236q93 0 133.5 54.5t40.5 172.5zM1026 1858l-403 -320h-285l203 320h485zM1608 1858l-404 -320h-284l202 320h486z" />
    <glyph glyph-name="uhungarumlaut" unicode="&#x171;" 
d="M1309 0h-488v184h-4q-40 -98 -130.5 -153.5t-217.5 -55.5q-192 0 -283.5 91t-91.5 258v743h516v-623q0 -22 1 -36t5.5 -35.5t13.5 -34t27 -22t43 -9.5t43 9t27.5 21.5t15 33t6.5 36t1 37.5v623h516v-1067zM874 1516l-403 -320h-285l203 320h485zM1509 1516l-403 -320
h-285l203 320h485z" />
    <glyph glyph-name="Uogonek" unicode="&#x172;" horiz-adv-x="1630" 
d="M1014 -256l78 -41q-41 -93 -104.5 -141.5t-180.5 -48.5q-119 0 -180.5 56t-61.5 144q0 143 205 262q-325 6 -497.5 162t-172.5 420v873h549v-850q0 -236 170 -236q93 0 133.5 54.5t40.5 172.5v859h537v-840q0 -281 -142 -432.5t-444 -175.5l-59 -70q-23 -28 -36 -45.5
t-25.5 -44t-12.5 -47.5q0 -45 26 -69.5t66 -24.5q63 0 111 63z" />
    <glyph glyph-name="uogonek" unicode="&#x173;" 
d="M1194 -256l78 -41q-43 -98 -109 -144t-178 -46t-176 53.5t-64 146.5q0 158 248 287h-172v184h-4q-40 -98 -130.5 -153.5t-217.5 -55.5q-192 0 -283.5 91t-91.5 258v743h516v-623q0 -22 1 -36t5.5 -35.5t13.5 -34t27 -22t43 -9.5t43 9t27.5 21.5t15 33t6.5 36t1 37.5v623
h516v-1067h-168q-91 -104 -120.5 -147t-29.5 -78q0 -45 26 -69.5t66 -24.5q63 0 111 63z" />
    <glyph glyph-name="Wcircumflex" unicode="&#x174;" horiz-adv-x="2275" 
d="M1964 0h-590l-239 934h-5l-227 -934h-602l-334 1430h514l174 -914h4l230 914h526l223 -914h4l177 914h489zM1571 1538h-297l-146 193l-135 -193h-299l236 320h407z" />
    <glyph glyph-name="wcircumflex" unicode="&#x175;" horiz-adv-x="2048" 
d="M1800 0h-643l-127 723h-4l-131 -723h-647l-260 1067h506l122 -698h5l110 698h621l118 -698h5l114 698h471zM1462 1196h-297l-145 193l-135 -193h-299l235 320h408z" />
    <glyph glyph-name="Ycircumflex" unicode="&#x176;" horiz-adv-x="1554" 
d="M1049 0h-549v438l-531 992h596l223 -599h5l225 599h567l-536 -992v-438zM1229 1538h-297l-146 193l-135 -193h-299l236 320h407z" />
    <glyph glyph-name="ycircumflex" unicode="&#x177;" horiz-adv-x="1251" 
d="M45 -418v303q70 -20 152 -20q79 0 121 29.5t42 70.5q0 24 -8.5 58t-19.5 63t-35 92.5t-41 110.5l-283 778h535l133 -655h4l127 655h496l-322 -1016q-40 -129 -86.5 -218t-112.5 -156.5t-156 -99.5t-210 -32q-128 0 -336 37zM1063 1196h-297l-145 193l-136 -193h-299
l236 320h407z" />
    <glyph glyph-name="Ydieresis" unicode="&#x178;" horiz-adv-x="1554" 
d="M1049 0h-549v438l-531 992h596l223 -599h5l225 599h567l-536 -992v-438zM690 1538h-368v320h368v-320zM1231 1538h-369v320h369v-320z" />
    <glyph glyph-name="Zacute" unicode="&#x179;" 
d="M1362 0h-1321v434l700 627h-675v369h1273v-435l-677 -614h700v-381zM1233 1858l-404 -320h-284l203 320h485z" />
    <glyph glyph-name="zacute" unicode="&#x17a;" horiz-adv-x="1251" 
d="M1182 0h-1112v438l538 318v4h-520v307h1079v-428l-510 -328v-4h525v-307zM1147 1516l-404 -320h-284l203 320h485z" />
    <glyph glyph-name="Zdotaccent" unicode="&#x17b;" 
d="M1362 0h-1321v434l700 627h-675v369h1273v-435l-677 -614h700v-381zM920 1538h-369v320h369v-320z" />
    <glyph glyph-name="zdotaccent" unicode="&#x17c;" horiz-adv-x="1251" 
d="M1182 0h-1112v438l538 318v4h-520v307h1079v-428l-510 -328v-4h525v-307zM834 1196h-369v320h369v-320z" />
    <glyph glyph-name="Zcaron" unicode="&#x17d;" 
d="M1362 0h-1321v434l700 627h-675v369h1273v-435l-677 -614h700v-381zM903 1538h-407l-234 320h297l148 -193l133 193h299z" />
    <glyph glyph-name="zcaron" unicode="&#x17e;" horiz-adv-x="1251" 
d="M1182 0h-1112v438l538 318v4h-520v307h1079v-428l-510 -328v-4h525v-307zM829 1196h-407l-234 320h297l148 -193l133 193h299z" />
    <glyph glyph-name="florin" unicode="&#x192;" horiz-adv-x="1214" 
d="M1155 518h-330l-120 -432q-35 -124 -79 -218.5t-105.5 -169t-143.5 -114t-182 -39.5q-89 0 -195 25v285q30 -15 82 -15q60 0 103 67t87 232l103 379h-228v307h314l37 152q30 124 68 208.5t97.5 147.5t145 92t203.5 29q31 0 64 -3.5t75 -10t63 -8.5v-283q-42 10 -100 10
q-76 0 -118 -54.5t-76 -191.5l-23 -88h258v-307z" />
    <glyph glyph-name="Scommaaccent" unicode="&#x218;" 
d="M66 43v371q229 -95 489 -95q116 0 182 26t66 73q0 26 -14.5 44.5t-59 33.5t-76.5 22.5t-114 24.5q-19 4 -29 6q-108 22 -187.5 54t-143 82.5t-96 127t-32.5 178.5q0 229 184 346t551 117q234 0 474 -49v-367q-206 72 -424 72q-46 0 -79.5 -2.5t-73.5 -11t-61.5 -29
t-21.5 -51.5q0 -25 14 -42t55.5 -31.5t68 -20.5t99.5 -20q23 -5 35 -7q57 -11 101.5 -22t96.5 -29.5t90.5 -41t76.5 -56t62 -74t38.5 -96t14.5 -121.5q0 -123 -51.5 -215.5t-146 -150t-220.5 -86t-283 -28.5q-297 0 -585 68zM762 -479h-311l77 352h387z" />
    <glyph glyph-name="scommaaccent" unicode="&#x219;" horiz-adv-x="1138" 
d="M66 37v305q73 -44 175.5 -70t202.5 -26q82 0 135.5 17t53.5 52q0 17 -12.5 29.5t-41.5 21.5t-52 14.5t-69 13.5t-67 12q-82 16 -141.5 38t-110.5 58.5t-77.5 94t-26.5 134.5q0 182 156.5 271.5t443.5 89.5q173 0 385 -45v-287q-180 61 -336 61q-54 0 -89.5 -4.5
t-62 -21.5t-26.5 -47q0 -26 43.5 -39.5t165.5 -28.5q199 -27 294 -103t95 -215q0 -88 -38.5 -157t-99 -111.5t-141 -70t-157.5 -38t-156 -10.5q-204 0 -446 62zM625 -479h-312l78 352h387z" />
    <glyph glyph-name="uni021A" unicode="&#x21a;" horiz-adv-x="1556" 
d="M1053 0h-549v1008h-484v422h1516v-422h-483v-1008zM819 -479h-311l78 352h387z" />
    <glyph glyph-name="uni021B" unicode="&#x21b;" horiz-adv-x="948" 
d="M932 338v-307q-192 -56 -352 -56q-204 0 -301 103.5t-97 310.5v371h-182v307h182v246l516 157v-403h234v-307h-234v-301q0 -65 30 -102.5t85 -37.5q64 0 119 19zM557 -479h-311l78 352h387z" />
    <glyph glyph-name="dotlessj" unicode="&#x237;" horiz-adv-x="720" 
d="M-90 -422v301q38 -14 84 -14q52 0 80 37t28 96v1069h516v-1118q0 -190 -102.5 -297t-294.5 -107q-168 0 -311 33z" />
    <glyph glyph-name="circumflex" unicode="&#x2c6;" horiz-adv-x="569" 
d="M723 1196h-297l-145 193l-136 -193h-299l236 320h407z" />
    <glyph glyph-name="caron" unicode="&#x2c7;" horiz-adv-x="569" 
d="M487 1196h-407l-234 320h297l148 -193l133 193h299z" />
    <glyph glyph-name="uni02C9" unicode="&#x2c9;" horiz-adv-x="569" 
d="M709 1239h-848v213h848v-213z" />
    <glyph glyph-name="breve" unicode="&#x2d8;" horiz-adv-x="569" 
d="M686 1516v-5q0 -147 -114 -237t-287 -90q-171 0 -286 90t-116 242h226q22 -56 64 -81.5t112 -25.5q129 0 176 107h225z" />
    <glyph glyph-name="dotaccent" unicode="&#x2d9;" horiz-adv-x="569" 
d="M469 1196h-369v320h369v-320z" />
    <glyph glyph-name="ring" unicode="&#x2da;" horiz-adv-x="569" 
d="M285 1163q-99 0 -170.5 70.5t-71.5 171.5q0 98 70.5 170t171.5 72q98 0 169.5 -71t71.5 -171q0 -99 -71 -170.5t-170 -71.5zM383 1405q0 43 -27.5 70.5t-70.5 27.5t-71 -27.5t-28 -70.5t28 -70.5t71 -27.5t70.5 27.5t27.5 70.5z" />
    <glyph glyph-name="ogonek" unicode="&#x2db;" horiz-adv-x="569" 
d="M473 -223l78 -41q-46 -102 -112.5 -146.5t-174.5 -44.5q-122 0 -180.5 49t-58.5 148q0 162 251 274h146q-85 -87 -118.5 -129.5t-33.5 -76.5q0 -46 27.5 -71.5t69.5 -25.5q55 0 106 64z" />
    <glyph glyph-name="tilde" unicode="&#x2dc;" horiz-adv-x="569" 
d="M541 1516h194q-9 -142 -86 -231t-190 -89q-64 0 -129 19t-118.5 38t-90.5 19t-64.5 -23.5t-27.5 -52.5h-195q17 154 83 237t173 83q65 0 137.5 -18.5t131 -37t90.5 -18.5q41 0 62 18t30 56z" />
    <glyph glyph-name="hungarumlaut" unicode="&#x2dd;" horiz-adv-x="569" 
d="M422 1516l-404 -320h-284l203 320h485zM1057 1516l-404 -320h-284l202 320h486z" />
    <glyph glyph-name="uni0394" unicode="&#x394;" horiz-adv-x="1705" 
d="M1737 0h-1768l502 1430h756zM1053 381l-211 741h-4l-213 -741h428z" />
    <glyph glyph-name="uni03A9" unicode="&#x3a9;" horiz-adv-x="1675" 
d="M1612 0h-740l7 362q87 15 125 116t38 298q0 171 -55.5 254.5t-148.5 83.5t-149 -83.5t-56 -254.5q0 -197 38.5 -298t125.5 -116l6 -362h-740v362h281q-127 61 -204 182t-77 294q0 180 98 321t274.5 219t402.5 78t402.5 -78t274 -219t97.5 -321q0 -173 -77 -294t-204 -182
h281v-362z" />
    <glyph glyph-name="uni03BC" unicode="&#x3bc;" 
d="M1309 0h-488v184h-4q-25 -68 -80.5 -118.5t-122.5 -65.5v-455h-520v1522h516v-623q0 -31 3 -52t11.5 -42t27.5 -32t48 -11q31 0 51 12t28.5 35t11 42t2.5 48v623h516v-1067z" />
    <glyph glyph-name="pi" unicode="&#x3c0;" horiz-adv-x="1636" 
d="M1595 332v-307q-152 -50 -315 -50q-225 0 -316.5 115.5t-91.5 378.5v291h-151v-760h-512v760h-168v307h1522v-307h-179v-307q0 -62 29.5 -98t89.5 -36q47 0 92 13z" />
    <glyph glyph-name="uni1E9E" unicode="&#x1e9e;" horiz-adv-x="1792" 
d="M793 43l2 371q53 -28 132 -49t148 -21q37 0 67 5.5t55.5 25t25.5 51.5q0 19 -20.5 42t-44 39.5t-75.5 50.5q-17 11 -26 17q-91 60 -140 128t-49 161q0 102 80.5 176t208.5 86q-70 7 -192 7q-87 -1 -146 -25.5t-92 -73t-47 -110.5t-14 -148v-776h-549v860q0 122 24 215.5
t74.5 158.5t117.5 108.5t164 67.5t202 34t243 10q124 0 327.5 -11.5t305.5 -27.5v-319q-41 0 -77.5 -4t-77 -13.5t-65 -31.5t-24.5 -54q0 -17 11 -36t35.5 -41t44.5 -38t58 -44t56 -41q219 -164 219 -361q0 -118 -43 -207.5t-121 -143t-179.5 -80t-225.5 -26.5
q-192 0 -393 68z" />
    <glyph glyph-name="uni2010" unicode="&#x2010;" horiz-adv-x="757" 
d="M666 373h-574v356h574v-356z" />
    <glyph glyph-name="endash" unicode="&#x2013;" horiz-adv-x="1024" 
d="M1024 397h-1024v308h1024v-308z" />
    <glyph glyph-name="emdash" unicode="&#x2014;" horiz-adv-x="2048" 
d="M2048 397h-2048v308h2048v-308z" />
    <glyph glyph-name="quoteleft" unicode="&#x2018;" horiz-adv-x="647" 
d="M477 805h-434l236 625h325z" />
    <glyph glyph-name="quoteright" unicode="&#x2019;" horiz-adv-x="647" 
d="M369 805h-326l127 625h434z" />
    <glyph glyph-name="quotesinglbase" unicode="&#x201a;" horiz-adv-x="647" 
d="M369 -252h-326l127 625h434z" />
    <glyph glyph-name="quotedblleft" unicode="&#x201c;" horiz-adv-x="1138" 
d="M463 805h-434l235 625h326zM983 805h-434l235 625h326z" />
    <glyph glyph-name="quotedblright" unicode="&#x201d;" horiz-adv-x="1138" 
d="M354 805h-325l127 625h434zM874 805h-325l127 625h434z" />
    <glyph glyph-name="quotedblbase" unicode="&#x201e;" horiz-adv-x="1138" 
d="M354 -252h-325l127 625h434zM874 -252h-325l127 625h434z" />
    <glyph glyph-name="dagger" unicode="&#x2020;" horiz-adv-x="1327" 
d="M883 -317h-434v1062h-371v332h371v353h434v-353h366v-332h-366v-1062z" />
    <glyph glyph-name="daggerdbl" unicode="&#x2021;" horiz-adv-x="1327" 
d="M883 -317h-434v372h-371v332h371v358h-371v332h371v353h434v-353h366v-332h-366v-358h366v-332h-366v-372z" />
    <glyph glyph-name="bullet" unicode="&#x2022;" horiz-adv-x="1024" 
d="M512 332q-160 0 -271.5 112.5t-111.5 270.5t111.5 270.5t271.5 112.5t271.5 -112.5t111.5 -270.5t-111.5 -270.5t-271.5 -112.5z" />
    <glyph glyph-name="ellipsis" unicode="&#x2026;" horiz-adv-x="2048" 
d="M565 0h-446v393h446v-393zM1247 0h-446v393h446v-393zM1929 0h-446v393h446v-393z" />
    <glyph glyph-name="perthousand" unicode="&#x2030;" horiz-adv-x="2390" 
d="M457 -63h-250l930 1556h247zM379 668q-190 0 -283.5 96.5t-93.5 296.5t93.5 296.5t283.5 96.5q188 0 282.5 -96t94.5 -297t-94.5 -297t-282.5 -96zM379 881q29 0 47 17t25 50t8.5 55t1.5 58t-1.5 58t-8.5 55t-25 50t-47 17t-47 -17t-25 -50t-8.5 -55t-1.5 -58t2 -60
t9 -55.5t25 -48t46 -16.5zM1214 -25q-190 0 -283 97t-93 297t93 296.5t283 96.5q188 0 282.5 -96.5t94.5 -296.5t-94.5 -297t-282.5 -97zM1214 188q20 0 34.5 8t23 25t14 32.5t7.5 40t2.5 38.5t0.5 37q0 36 -1.5 58t-8.5 55t-25 50t-47 17q-20 0 -34.5 -8t-23 -25
t-13.5 -31.5t-7 -40t-2.5 -38.5t-0.5 -37q0 -37 1.5 -60t8.5 -55.5t25 -49t46 -16.5zM2011 -25q-190 0 -283.5 97t-93.5 297t93.5 296.5t283.5 96.5q188 0 282.5 -96.5t94.5 -296.5t-94.5 -297t-282.5 -97zM2011 188q20 0 34.5 8t23 25t14 32.5t7.5 40t2.5 38.5t0.5 37
q0 36 -1.5 58t-8.5 55t-25 50t-47 17t-47 -17t-25 -50t-8.5 -55t-1.5 -58q0 -37 2 -60.5t9 -55.5t25 -48.5t46 -16.5z" />
    <glyph glyph-name="guilsinglleft" unicode="&#x2039;" horiz-adv-x="796" 
d="M702 111h-409l-242 442l242 442h409l-184 -442z" />
    <glyph glyph-name="guilsinglright" unicode="&#x203a;" horiz-adv-x="796" 
d="M504 111h-410l185 442l-185 442h410l241 -442z" />
    <glyph glyph-name="fraction" unicode="&#x2044;" horiz-adv-x="342" 
d="M-104 -63h-250l925 1556h250z" />
    <glyph glyph-name="Euro" unicode="&#x20ac;" horiz-adv-x="1400" 
d="M1329 385l12 -377q-130 -33 -315 -33q-297 0 -498 138t-262 374h-233l45 168h162q-2 27 -2 54l2 65h-207l45 168h190q43 151 153.5 268t263.5 180.5t323 63.5q198 0 411 -61l-90 -340q-82 30 -199 30q-87 0 -159 -40t-115 -101h436l-43 -168h-448q-2 -20 -2 -61
q0 -40 2 -58h413l-45 -168h-313q49 -61 122.5 -96t147.5 -35q108 0 203 29z" />
    <glyph glyph-name="uni20B9" unicode="&#x20b9;" horiz-adv-x="1515" 
d="M1255 0h-593l-453 510v223h223q90 0 139.5 29t63.5 108h-426v209h420q-13 68 -64 103t-125 35h-231v213h1253v-209h-375q59 -51 78 -142h297v-209h-293q-14 -96 -74 -169t-147 -110.5t-186 -37.5h-21z" />
    <glyph glyph-name="uni20BA" unicode="&#x20ba;" horiz-adv-x="1515" 
d="M944 711h526q-15 -372 -218.5 -554t-596.5 -182q-203 0 -479 25v492l-141 -60v234l141 55v125l-141 -60v234l141 55v355h516v-152l332 131v-233l-332 -127v-125l332 131v-234l-332 -127v-399q61 0 106.5 23t73 61t44 93.5t22.5 112t6 126.5z" />
    <glyph glyph-name="uni20BC" unicode="&#x20bc;" horiz-adv-x="1939" 
d="M1909 0h-508v59q0 64 -1.5 124t-11.5 175.5t-28 203.5t-55 173t-88 119v-711h-494v711q-184 -124 -184 -795v-59h-508v129q0 178 43.5 346.5t127 313.5t218 250t303.5 143v248h494v-248q169 -38 303.5 -143t218 -250t127 -313.5t43.5 -346.5v-129z" />
    <glyph glyph-name="ruble" unicode="&#x20bd;" horiz-adv-x="1515" 
d="M1102 145h-387v-145h-516v145h-172v258h172v93h-172v258h172v676h770q239 0 384.5 -127t145.5 -355q0 -125 -42.5 -214.5t-123 -140.5t-184 -74t-238.5 -23h-196v-93h387v-258zM715 754h30q106 0 162 41.5t56 136.5t-54 136.5t-157 41.5h-37v-356z" />
    <glyph glyph-name="afii61289" unicode="&#x2113;" horiz-adv-x="1024" 
d="M846 281l106 -166q-176 -144 -370 -144q-163 0 -259 85.5t-96 226.5v49l-112 -94l-113 174l223 176v475q0 178 111 296t282 118q153 0 240.5 -89t87.5 -229q0 -153 -94 -300t-307 -320v-209q0 -60 31.5 -93.5t85.5 -33.5q71 0 184 78zM545 1126v-321q143 147 143 336
q0 52 -18.5 89.5t-55.5 37.5q-28 0 -48.5 -39.5t-20.5 -102.5z" />
    <glyph glyph-name="trademark" unicode="&#x2122;" horiz-adv-x="2048" 
d="M571 578h-307v639h-198v213h704v-213h-199v-639zM2005 578h-283v438h-4l-135 -438h-237l-136 438h-4v-438h-282v852h387l151 -445h4l152 445h387v-852z" />
    <glyph glyph-name="Omega" unicode="&#x2126;" horiz-adv-x="1675" 
d="M1612 0h-740l7 362q87 15 125 116t38 298q0 171 -55.5 254.5t-148.5 83.5t-149 -83.5t-56 -254.5q0 -197 38.5 -298t125.5 -116l6 -362h-740v362h281q-127 61 -204 182t-77 294q0 180 98 321t274.5 219t402.5 78t402.5 -78t274 -219t97.5 -321q0 -173 -77 -294t-204 -182
h281v-362z" />
    <glyph glyph-name="estimated" unicode="&#x212e;" horiz-adv-x="1228" 
d="M1014 285l71 -43q-93 -150 -201 -213.5t-266 -63.5q-234 0 -381 161t-147 404q0 160 65 289t186.5 203t276.5 74q152 0 272.5 -69.5t189.5 -199t69 -297.5h-827v-370q121 -121 296 -121q131 0 225.5 59.5t170.5 186.5zM918 604v297q-129 123 -304 123q-169 0 -292 -123
v-297h596z" />
    <glyph glyph-name="partialdiff" unicode="&#x2202;" horiz-adv-x="1509" 
d="M999 842v22q0 191 -111.5 310.5t-301.5 119.5q-182 0 -350 -88l-127 264q232 138 530 138q170 0 316 -58.5t250 -163t163 -255t59 -328.5q0 -191 -61 -347.5t-168 -259.5t-250.5 -158.5t-308.5 -55.5q-117 0 -216.5 33t-165.5 86t-112.5 120t-67 133.5t-20.5 128.5
q0 147 66.5 269t196.5 197t301 75q117 0 216 -48t162 -134zM956 557q-16 63 -77.5 115.5t-151.5 52.5q-103 0 -169 -68t-66 -172q0 -88 55.5 -142t142.5 -54q94 0 170 76.5t96 191.5z" />
    <glyph glyph-name="Delta" unicode="&#x2206;" horiz-adv-x="1705" 
d="M1737 0h-1768l502 1430h756zM1053 381l-211 741h-4l-213 -741h428z" />
    <glyph glyph-name="product" unicode="&#x220f;" horiz-adv-x="1554" 
d="M1456 -438h-319v1730h-717v-1730h-322v2048h1358v-2048z" />
    <glyph glyph-name="summation" unicode="&#x2211;" horiz-adv-x="1441" 
d="M1380 -438h-1319v276l586 762l-563 729v281h1272v-320h-846l514 -690l-545 -719h901v-319z" />
    <glyph glyph-name="minus" unicode="&#x2212;" horiz-adv-x="1228" 
d="M1130 350h-1032v332h1032v-332z" />
    <glyph glyph-name="uni2215" unicode="&#x2215;" horiz-adv-x="342" 
d="M-104 -63h-250l925 1556h250z" />
    <glyph glyph-name="uni2219" unicode="&#x2219;" horiz-adv-x="757" 
d="M379 373q-103 0 -175.5 72.5t-72.5 175.5t73 175t175 72q104 0 176 -72.5t72 -174.5t-72 -175t-176 -73z" />
    <glyph glyph-name="radical" unicode="&#x221a;" horiz-adv-x="1251" 
d="M803 -438h-291l-287 585l-119 -55l-118 250l405 186l213 -475l318 1557h340z" />
    <glyph glyph-name="infinity" unicode="&#x221e;" horiz-adv-x="1820" 
d="M909 354q-89 -125 -184 -182t-207 -57q-194 0 -310 125t-116 325q0 196 112 317.5t304 121.5q87 0 157.5 -31.5t123.5 -83.5t120 -144q98 142 190 200.5t214 58.5q195 0 305.5 -122.5t110.5 -316.5q0 -198 -111.5 -325t-304.5 -127q-229 0 -404 241zM748 555
q-56 79 -118.5 123.5t-119.5 44.5q-65 0 -106.5 -48t-41.5 -118q0 -72 40.5 -116t109.5 -44q126 0 236 158zM1071 555q113 -160 238 -160q70 0 109.5 45.5t39.5 118.5q0 72 -43 118t-112 46q-56 0 -116.5 -44.5t-115.5 -123.5z" />
    <glyph glyph-name="integral" unicode="&#x222b;" horiz-adv-x="1366" 
d="M475 125v872q0 42 0.5 67.5t4 79t10.5 90.5t21 89.5t33.5 89t51 76.5t70.5 64.5t94 40.5t121 16q71 0 135.5 -21.5t111 -70.5t46.5 -117q0 -65 -40.5 -107.5t-107.5 -42.5t-98 32t-39 99q-5 38 -8 53t-12 27.5t-25 12.5q-24 0 -32.5 -22t-8.5 -64q0 -63 9 -218.5
t9 -244.5v-760q0 -316 -100.5 -461t-304.5 -145q-70 0 -134.5 21.5t-111.5 71t-47 116.5q0 66 39.5 107.5t105.5 41.5q62 0 96.5 -32t43.5 -101q6 -49 15 -68.5t30 -19.5q14 0 23 7.5t12.5 22.5t4.5 28t1 32q0 56 -9.5 172.5t-9.5 165.5z" />
    <glyph glyph-name="approxequal" unicode="&#x2248;" horiz-adv-x="1214" 
d="M977 1030h209q-13 -183 -100.5 -312.5t-223.5 -129.5q-61 0 -158.5 31t-197 61.5t-164.5 30.5q-43 0 -72 -31.5t-34 -79.5h-207q1 77 23.5 154t62 142t102 105.5t135.5 40.5q77 0 260.5 -60t257.5 -60q97 0 107 108zM977 518h209q-13 -183 -100.5 -312.5t-223.5 -129.5
q-61 0 -158.5 30.5t-197 61.5t-164.5 31q-43 0 -72 -31.5t-34 -79.5h-207q1 77 23.5 154t62 142t102 105.5t135.5 40.5q77 0 260.5 -60t257.5 -60q97 0 107 108z" />
    <glyph glyph-name="notequal" unicode="&#x2260;" horiz-adv-x="1214" 
d="M1165 102h-583l-164 -333l-283 139l94 194h-182v322h342l86 178h-428v324h588l164 329l280 -139l-94 -190h180v-324h-338l-88 -178h426v-322z" />
    <glyph glyph-name="lessequal" unicode="&#x2264;" horiz-adv-x="1214" 
d="M1165 262l-1118 336v320l1118 303v-328l-665 -135l665 -166v-330zM1165 -109h-1118v322h1118v-322z" />
    <glyph glyph-name="greaterequal" unicode="&#x2265;" horiz-adv-x="1214" 
d="M1165 598l-1118 -336v330l670 166l-670 135v328l1118 -303v-320zM1165 -109h-1118v322h1118v-322z" />
    <glyph glyph-name="lozenge" unicode="&#x25ca;" horiz-adv-x="1214" 
d="M750 -72h-291l-398 801l402 801h287l401 -801zM606 256l213 473l-213 473l-215 -473z" />
    <glyph glyph-name="grave.cap" unicode="&#xe300;" horiz-adv-x="757" 
d="M612 1538h-284l-404 320h486z" />
    <glyph glyph-name="acute.cap" unicode="&#xe301;" horiz-adv-x="757" 
d="M827 1858l-403 -320h-285l203 320h485z" />
    <glyph glyph-name="circumflex.cap" unicode="&#xe302;" horiz-adv-x="757" 
d="M817 1538h-297l-145 193l-135 -193h-299l235 320h408z" />
    <glyph glyph-name="caron.cap" unicode="&#xe303;" horiz-adv-x="757" 
d="M582 1538h-408l-233 320h297l147 -193l133 193h299z" />
    <glyph glyph-name="tilde.cap" unicode="&#xe304;" horiz-adv-x="757" 
d="M635 1858h194q-9 -140 -87 -230t-189 -90q-70 0 -133 19t-114 38t-93 19q-35 0 -62.5 -23.5t-27.5 -52.5h-195q14 145 79 232.5t177 87.5q67 0 137 -18.5t127.5 -37t94.5 -18.5q41 0 61 17.5t31 56.5z" />
    <glyph glyph-name="dieresis.cap" unicode="&#xe305;" horiz-adv-x="757" 
d="M293 1538h-369v320h369v-320zM834 1538h-369v320h369v-320z" />
    <glyph glyph-name="macron.cap" unicode="&#xe306;" horiz-adv-x="757" 
d="M803 1602h-848v213h848v-213z" />
    <glyph glyph-name="breve.cap" unicode="&#xe307;" horiz-adv-x="757" 
d="M555 1858h225q0 -105 -56.5 -181.5t-146 -113.5t-198.5 -37q-173 0 -286 90t-116 242h226q22 -55 63 -81t113 -26t113 27.5t63 79.5z" />
    <glyph glyph-name="ring.cap" unicode="&#xe308;" horiz-adv-x="757" 
d="M379 1485q-104 0 -173 69t-69 172q0 102 70 172t172 70q103 0 172.5 -69.5t69.5 -172.5q0 -101 -69.5 -171t-172.5 -70zM477 1726q0 41 -28.5 70t-69.5 29q-42 0 -70 -28.5t-28 -70.5t28 -70t70 -28t70 28t28 70z" />
    <glyph glyph-name="hungarumlaut.cap" unicode="&#xe309;" horiz-adv-x="757" 
d="M543 1858l-404 -320h-284l202 320h486zM1124 1858l-403 -320h-285l203 320h485z" />
    <glyph glyph-name="dotaccent.cap" unicode="&#xe30a;" horiz-adv-x="757" 
d="M563 1538h-368v320h368v-320z" />
    <glyph glyph-name="caron.alt" unicode="&#xe30b;" horiz-adv-x="720" 
d="M244 1085h-230l29 451h319z" />
    <glyph glyph-name="commaaccent" unicode="&#xe30c;" horiz-adv-x="720" 
d="M389 -479h-311l78 352h387z" />
    <glyph glyph-name="commaaccent.alt" unicode="&#xe30d;" horiz-adv-x="720" 
d="M494 1194h-373l153 319h297z" />
    <glyph glyph-name="uniF8FF" unicode="&#xf8ff;" horiz-adv-x="1048" 
d="M1049 0h-1049v1470h1049v-1470zM946 102v1264h-844v-1264h844zM569 240h-114v137h114v-137zM555 479h-94q-4 29 -4 62q0 75 20.5 125.5t87.5 121.5q11 12 33.5 34.5t33 34t24 31t19 39.5t5.5 44q0 74 -46.5 124t-109.5 50q-69 0 -112.5 -48.5t-55.5 -146.5l-102 17
q12 135 84 207.5t192 72.5q110 0 182 -74t72 -194q0 -74 -29 -127t-102 -121q-61 -57 -78 -86.5t-18 -91.5z" />
    </font>
</defs>
</svg>
