<?xml version="1.0" standalone="no"?>
<!DOCTYPE svg PUBLIC "-//W3C//DTD SVG 1.1//EN" "http://www.w3.org/Graphics/SVG/1.1/DTD/svg11.dtd" >
<svg xmlns="http://www.w3.org/2000/svg" xmlns:xlink="http://www.w3.org/1999/xlink" version="1.1">
<metadata>
Created by FontForge 20201107 at Sat Aug  3 09:41:43 2024
 By 
Copyright (c) 2014 - 2016 Monotype Imaging Inc. All rights reserved.
</metadata>
<defs>
<font id="FrutigerLTPro-Light" horiz-adv-x="1138" >
  <font-face 
    font-family="Frutiger LT Pro 45 Light"
    font-weight="300"
    font-stretch="normal"
    units-per-em="2048"
    panose-1="2 11 4 3 3 5 4 2 2 4"
    ascent="1536"
    descent="-512"
    x-height="1044"
    cap-height="1430"
    bbox="-311 -512 2048 1903"
    underline-thickness="102"
    underline-position="-255"
    unicode-range="U+000D-FB02"
  />
<missing-glyph horiz-adv-x="1048" 
d="M1049 0h-1049v1470h1049v-1470zM946 102v1264h-844v-1264h844zM569 240h-114v137h114v-137zM555 479h-94q-4 29 -4 62q0 75 20.5 125.5t87.5 121.5q11 12 33.5 34.5t33 34t24 31t19 39.5t5.5 44q0 74 -46.5 124t-109.5 50q-69 0 -112.5 -48.5t-55.5 -146.5l-102 17
q12 135 84 207.5t192 72.5q110 0 182 -74t72 -194q0 -74 -29 -127t-102 -121q-45 -42 -62.5 -64.5t-26.5 -60t-9 -106.5v-21z" />
    <glyph glyph-name="fi" unicode="fi" 
d="M379 0h-129v934h-211v110h211v134q0 210 67 296.5t207 86.5q86 0 123 -21l-8 -113q-44 23 -102 23q-79 0 -118.5 -53t-39.5 -174v-179h235v-110h-235v-934zM973 1323h-129v172h129v-172zM973 0h-129v1044h129v-1044z" />
    <glyph glyph-name="fl" unicode="fl" 
d="M379 0h-129v934h-211v110h211v134q0 210 67 296.5t207 86.5q86 0 123 -21l-8 -113q-44 23 -102 23q-79 0 -118.5 -53t-39.5 -174v-179h235v-110h-235v-934zM973 0h-129v1536h129v-1536z" />
    <glyph glyph-name=".notdef" horiz-adv-x="1048" 
d="M1049 0h-1049v1470h1049v-1470zM946 102v1264h-844v-1264h844zM569 240h-114v137h114v-137zM555 479h-94q-4 29 -4 62q0 75 20.5 125.5t87.5 121.5q11 12 33.5 34.5t33 34t24 31t19 39.5t5.5 44q0 74 -46.5 124t-109.5 50q-69 0 -112.5 -48.5t-55.5 -146.5l-102 17
q12 135 84 207.5t192 72.5q110 0 182 -74t72 -194q0 -74 -29 -127t-102 -121q-45 -42 -62.5 -64.5t-26.5 -60t-9 -106.5v-21z" />
    <glyph glyph-name=".null" horiz-adv-x="0" 
 />
    <glyph glyph-name="nonmarkingreturn" horiz-adv-x="682" 
 />
    <glyph glyph-name="NULL" horiz-adv-x="0" 
 />
    <glyph glyph-name="NULL" horiz-adv-x="0" 
 />
    <glyph glyph-name="CR" unicode="&#xd;" horiz-adv-x="569" 
 />
    <glyph glyph-name="space" unicode=" " horiz-adv-x="569" 
 />
    <glyph glyph-name="exclam" unicode="!" horiz-adv-x="796" 
d="M457 346h-117l-25 1084h166zM481 0h-166v172h166v-172z" />
    <glyph glyph-name="quotedbl" unicode="&#x22;" 
d="M496 983h-129v447h129v-447zM772 983h-129v447h129v-447z" />
    <glyph glyph-name="numbersign" unicode="#" 
d="M735 0h-125l64 449h-266l-64 -449h-125l64 449h-213v110h227l45 311h-219v111h233l64 449h125l-64 -449h267l63 449h125l-64 -449h197v-111h-211l-43 -311h197v-110h-213zM690 559l43 311h-266l-43 -311h266z" />
    <glyph glyph-name="dollar" unicode="$" 
d="M631 -182h-105v159q-8 -2 -30 -2q-176 0 -318 62l15 145q130 -84 309 -84q18 0 24 2v588q-189 97 -270.5 189.5t-81.5 203.5q0 141 95.5 240t256.5 125v133h105v-125q158 0 276 -47l-22 -129q-86 50 -254 53v-543l41 -22q53 -30 90 -54t80 -61t68.5 -74t43 -88.5
t17.5 -109.5q0 -152 -89 -254t-251 -137v-170zM526 846v475q-102 -22 -156.5 -83t-54.5 -153q0 -66 49 -122t162 -117zM631 629v-512q95 26 146.5 97t51.5 175q0 65 -46.5 121t-151.5 119z" />
    <glyph glyph-name="percent" unicode="%" horiz-adv-x="2048" 
d="M659 -45h-118l845 1520h119zM539 678q-158 0 -241 101t-83 282t83 282t241 101q156 0 239.5 -100t83.5 -283q0 -175 -80.5 -279t-242.5 -104zM539 788q100 0 147 76.5t47 196.5q0 126 -49 199t-147 73q-91 0 -142 -71t-51 -201q0 -125 49.5 -199t145.5 -74zM1509 -14
q-158 0 -240.5 101t-82.5 282t82.5 282t240.5 101q156 0 240 -100.5t84 -282.5q0 -174 -81 -278.5t-243 -104.5zM1509 96q68 0 113.5 39t63.5 98t18 136q0 126 -49.5 199t-147.5 73q-91 0 -141.5 -71t-50.5 -201q0 -125 49 -199t145 -74z" />
    <glyph glyph-name="ampersand" unicode="&#x26;" horiz-adv-x="1366" 
d="M1341 0h-180l-155 164q-169 -189 -435 -189q-95 0 -179 25t-149 73t-103 126t-38 176q0 286 338 416q-108 117 -147 198.5t-39 151.5q0 99 58 172t144 107t185 34q63 0 121 -18t106.5 -52.5t77.5 -92.5t29 -132q0 -125 -75 -212.5t-269 -176.5l377 -420q122 175 122 434
h123q0 -142 -40.5 -276.5t-118.5 -239.5zM557 844q144 64 210.5 129.5t66.5 163.5q0 97 -54 151.5t-151 54.5q-94 0 -164 -54t-70 -154q0 -63 36.5 -129.5t125.5 -161.5zM928 252l-416 459q-123 -50 -195.5 -138.5t-72.5 -191.5q0 -140 97 -217.5t234 -77.5q96 0 193.5 45
t159.5 121z" />
    <glyph glyph-name="quotesingle" unicode="'" horiz-adv-x="569" 
d="M350 983h-129v447h129v-447z" />
    <glyph glyph-name="parenleft" unicode="(" horiz-adv-x="569" 
d="M522 -287h-86q-191 292 -270.5 507.5t-79.5 410.5q0 198 79.5 411t270.5 506h86q-182 -335 -244.5 -541.5t-62.5 -375.5t62.5 -376t244.5 -542z" />
    <glyph glyph-name="parenright" unicode=")" horiz-adv-x="569" 
d="M133 -287h-86q179 329 243 536t64 382t-64 381.5t-243 535.5h86q192 -294 271 -505.5t79 -411.5q0 -198 -79 -410.5t-271 -507.5z" />
    <glyph glyph-name="asterisk" unicode="*" 
d="M848 782l-103 -77l-176 268l-172 -268l-100 77l192 244l-301 86l35 119l301 -115l-14 314h119l-15 -314l297 115l39 -119l-301 -86z" />
    <glyph glyph-name="plus" unicode="+" horiz-adv-x="1228" 
d="M684 0h-141v449h-449v141h449v448h141v-448h449v-141h-449v-449z" />
    <glyph glyph-name="comma" unicode="," horiz-adv-x="569" 
d="M240 -274h-129l118 446h172z" />
    <glyph glyph-name="hyphen" unicode="-" horiz-adv-x="681" 
d="M598 481h-514v142h514v-142z" />
    <glyph glyph-name="period" unicode="." horiz-adv-x="569" 
d="M367 0h-166v172h166v-172z" />
    <glyph glyph-name="slash" unicode="/" horiz-adv-x="569" 
d="M78 -25h-141l555 1479h141z" />
    <glyph glyph-name="zero" unicode="0" 
d="M569 -14q-232 0 -350.5 184t-118.5 545q0 352 120 540.5t349 188.5t349 -188.5t120 -540.5q0 -359 -118.5 -544t-350.5 -185zM569 109q161 0 244.5 146.5t83.5 459.5q0 308 -82 457t-248 149q-325 0 -325 -606q0 -315 83.5 -460.5t243.5 -145.5z" />
    <glyph glyph-name="one" unicode="1" 
d="M702 0h-141v1270l-231 -203l-78 92l323 271h127v-1430z" />
    <glyph glyph-name="two" unicode="2" 
d="M961 0h-859v123l347 383q169 188 247 322.5t78 234.5q0 111 -71.5 184.5t-184.5 73.5q-168 0 -340 -102l-24 129q200 96 360 96q193 0 303.5 -99t110.5 -276q0 -231 -357 -623l-295 -323h685v-123z" />
    <glyph glyph-name="three" unicode="3" 
d="M102 43l17 135q145 -69 342 -69q73 0 138 18.5t117 54t82.5 94.5t30.5 134q0 270 -383 270h-139v123h55q127 0 218.5 20t145 58.5t78.5 90t25 118.5q0 57 -28.5 102.5t-76 72.5t-104.5 41.5t-118 14.5q-158 0 -320 -76l-12 133q179 66 346 66q129 0 229.5 -36.5t163 -118
t62.5 -199.5q0 -126 -80 -217t-217 -125v-5q143 -6 220 -104.5t77 -241.5q0 -125 -68.5 -219.5t-185 -143t-262.5 -48.5q-201 0 -353 57z" />
    <glyph glyph-name="four" unicode="4" 
d="M870 0h-141v330h-682v139l643 961h180v-977h211v-123h-211v-330zM729 453v835h-4l-549 -835h553z" />
    <glyph glyph-name="five" unicode="5" 
d="M176 37v145q134 -73 305 -73q72 0 138.5 20t121 58t87 101.5t32.5 143.5q0 157 -83 240.5t-275 83.5q-161 0 -309 -45l14 719h731v-123h-592l-10 -459q98 31 215 31q210 0 330 -111t120 -307q0 -118 -39 -209.5t-109.5 -149t-164.5 -87t-207 -29.5q-175 0 -305 51z" />
    <glyph glyph-name="six" unicode="6" 
d="M987 1411l-12 -135q-99 45 -244 45q-110 0 -195.5 -37t-137.5 -95t-85.5 -138.5t-46 -159t-12.5 -164.5h4q55 86 141.5 131t192.5 45q67 0 128.5 -13.5t120.5 -47t102 -83t69 -127.5t26 -175q0 -214 -126 -342.5t-341 -128.5q-230 0 -344 167.5t-114 510.5
q0 384 164.5 582t480.5 198q86 0 229 -33zM575 109q148 0 235 92t87 245q0 160 -78 247t-227 87q-150 0 -237 -86.5t-87 -230.5q0 -92 31.5 -170t103 -131t172.5 -53z" />
    <glyph glyph-name="seven" unicode="7" 
d="M438 0h-155l569 1307h-733v123h872v-123z" />
    <glyph glyph-name="eight" unicode="8" 
d="M705 743q186 -64 262.5 -150.5t76.5 -225.5q0 -97 -39 -172t-106 -119.5t-150.5 -67t-179.5 -22.5q-70 0 -137 14t-128.5 45t-108 74.5t-74 107.5t-27.5 140q0 136 76.5 225t253.5 151q-285 135 -285 367q0 86 42.5 153.5t109 105t138 56.5t140.5 19q84 0 158.5 -19.5
t136 -58t97.5 -104.5t36 -152q0 -210 -292 -367zM569 795q149 72 218 145t69 158q0 70 -43.5 122t-108 76.5t-137.5 24.5q-53 0 -102 -13t-91 -39t-67.5 -70t-25.5 -101q0 -95 71.5 -165t216.5 -138zM621 666l-52 24l-94 -39q-119 -48 -179 -115t-60 -167q0 -79 50.5 -140
t125.5 -90.5t157 -29.5q146 0 240 69t94 201q0 44 -16.5 82.5t-42 66t-61 51.5t-70.5 42t-72 36q-14 6 -20 9z" />
    <glyph glyph-name="nine" unicode="9" 
d="M885 702h-4q-52 -85 -139.5 -130.5t-196.5 -45.5q-65 0 -126 13.5t-120 47t-102.5 83t-70 127.5t-26.5 176q0 214 125.5 342.5t341.5 128.5q459 0 459 -676q0 -385 -164 -583.5t-479 -198.5q-92 0 -231 32l12 136q103 -45 242 -45q113 0 200 38.5t138.5 97.5t84.5 141
t44.5 158t11.5 158zM870 967q0 67 -18.5 128.5t-54.5 113t-97 82t-139 30.5q-146 0 -232.5 -92t-86.5 -246q0 -159 78 -246.5t225 -87.5q151 0 238 87t87 231z" />
    <glyph glyph-name="colon" unicode=":" horiz-adv-x="569" 
d="M367 872h-166v172h166v-172zM367 0h-166v172h166v-172z" />
    <glyph glyph-name="semicolon" unicode=";" horiz-adv-x="569" 
d="M367 872h-166v172h166v-172zM240 -274h-129l118 446h172z" />
    <glyph glyph-name="less" unicode="&#x3c;" horiz-adv-x="1228" 
d="M1133 -16l-1039 471v127l1039 471v-135l-881 -400l881 -399v-135z" />
    <glyph glyph-name="equal" unicode="=" horiz-adv-x="1228" 
d="M1133 653h-1039v142h1039v-142zM1133 242h-1039v141h1039v-141z" />
    <glyph glyph-name="greater" unicode="&#x3e;" horiz-adv-x="1228" 
d="M1135 455l-1039 -471v135l883 399l-883 400v135l1039 -471v-127z" />
    <glyph glyph-name="question" unicode="?" horiz-adv-x="1024" 
d="M518 346h-129v21q0 111 36 194.5t130 181.5q47 51 68 76t50.5 70.5t41.5 92t12 103.5q0 116 -73.5 181t-184.5 65q-53 0 -110 -10t-89 -19t-88 -28l-6 129q169 51 297 51q182 0 288.5 -97.5t106.5 -269.5q0 -103 -41.5 -182.5t-136.5 -179.5q-90 -93 -131 -171t-41 -181
v-27zM539 0h-166v172h166v-172z" />
    <glyph glyph-name="at" unicode="@" horiz-adv-x="1638" 
d="M1362 326h125q-102 -173 -277.5 -262t-388.5 -89q-145 0 -268 42.5t-208.5 114.5t-145.5 167.5t-88.5 201t-28.5 214.5q0 147 49.5 279t140.5 235t233.5 164t315.5 61q109 0 214 -25.5t197.5 -77t163 -124t111.5 -173.5t41 -218q0 -125 -48 -235t-119.5 -179t-150 -108.5
t-145.5 -39.5q-137 0 -161 125h-4q-51 -61 -107.5 -93t-142.5 -32q-124 0 -201.5 91.5t-77.5 218.5q0 97 34 194.5t93.5 177.5t150 130.5t193.5 50.5q76 0 135.5 -40t92.5 -118l43 123h129l-168 -537q-27 -82 -27 -121q0 -47 45 -47q118 0 209.5 131t91.5 308
q0 153 -84.5 267.5t-217 171t-290.5 56.5q-126 0 -237.5 -46.5t-192 -127t-127.5 -195t-47 -245.5q0 -176 79 -318t217 -221.5t308 -79.5q164 0 307.5 60t233.5 168zM692 397q57 0 111 28.5t93.5 75t70 103.5t46 115.5t15.5 109.5q0 91 -45.5 138t-120.5 47
q-49 0 -104.5 -32.5t-103 -86.5t-78.5 -132.5t-31 -162.5q0 -83 37 -143t110 -60z" />
    <glyph glyph-name="A" unicode="A" horiz-adv-x="1366" 
d="M1339 0h-147l-154 383h-721l-153 -383h-137l585 1430h160zM991 506l-309 788l-311 -788h620z" />
    <glyph glyph-name="B" unicode="B" 
d="M449 0h-285v1430h342q218 0 334 -89.5t116 -263.5q0 -273 -260 -325v-4q144 -26 223.5 -116t79.5 -224q0 -208 -144.5 -308t-405.5 -100zM309 805h158q183 0 265.5 71.5t82.5 194.5q0 118 -81 177t-228 59h-197v-502zM305 123h144q213 0 311 74t98 204q0 150 -100 215.5
t-309 65.5h-144v-559z" />
    <glyph glyph-name="C" unicode="C" horiz-adv-x="1366" 
d="M1157 160l8 -123q-46 -28 -138 -45t-189 -17q-332 0 -526.5 200.5t-194.5 541.5q0 329 197.5 533t523.5 204q87 0 184 -14t143 -39l-8 -131q-116 61 -319 61q-179 0 -311.5 -79t-200.5 -217.5t-68 -317.5q0 -284 153.5 -451.5t426.5 -167.5q216 0 319 62z" />
    <glyph glyph-name="D" unicode="D" horiz-adv-x="1366" 
d="M414 0h-250v1430h358q342 0 526.5 -180.5t184.5 -532.5q0 -345 -206 -531t-613 -186zM305 123h117q670 0 670 602q0 289 -149.5 435.5t-430.5 146.5h-207v-1184z" />
    <glyph glyph-name="E" unicode="E" horiz-adv-x="1024" 
d="M901 0h-725v1430h701v-123h-560v-510h531v-123h-531v-551h584v-123z" />
    <glyph glyph-name="F" unicode="F" horiz-adv-x="909" 
d="M299 0h-141v1430h680v-123h-539v-510h514v-123h-514v-674z" />
    <glyph glyph-name="G" unicode="G" horiz-adv-x="1478" 
d="M1155 150v501h-332v123h473v-711q-200 -88 -442 -88q-336 0 -529.5 201.5t-193.5 538.5q0 215 86.5 382t251 262t383.5 95q108 0 217 -19t166 -49l-16 -131q-140 76 -365 76q-138 0 -249.5 -47t-183.5 -130t-110.5 -195t-38.5 -244q0 -180 64.5 -317.5t197 -218.5
t318.5 -81q215 0 303 52z" />
    <glyph glyph-name="H" unicode="H" horiz-adv-x="1366" 
d="M1184 0h-142v674h-723v-674h-141v1430h141v-633h723v633h142v-1430z" />
    <glyph glyph-name="I" unicode="I" horiz-adv-x="454" 
d="M299 0h-141v1430h141v-1430z" />
    <glyph glyph-name="J" unicode="J" horiz-adv-x="681" 
d="M29 0v125q55 -27 133 -27q103 0 156 69.5t53 194.5v1068h141v-1061q0 -184 -86.5 -289t-249.5 -105q-80 0 -147 25z" />
    <glyph glyph-name="K" unicode="K" horiz-adv-x="1251" 
d="M1223 0h-195l-692 715v-715h-141v1430h141v-642l643 642h184l-692 -674z" />
    <glyph glyph-name="L" unicode="L" horiz-adv-x="909" 
d="M879 0h-715v1430h141v-1307h574v-123z" />
    <glyph glyph-name="M" unicode="M" horiz-adv-x="1820" 
d="M1645 0h-142v1288h-4l-520 -1288h-121l-536 1288h-5v-1288h-141v1430h219l523 -1258l524 1258h203v-1430z" />
    <glyph glyph-name="N" unicode="N" horiz-adv-x="1366" 
d="M1208 0h-190l-715 1233h-4v-1233h-141v1430h178l727 -1258h4v1258h141v-1430z" />
    <glyph glyph-name="O" unicode="O" horiz-adv-x="1478" 
d="M737 -25q-300 0 -463 201.5t-163 548.5q0 211 73.5 375t217 259t335.5 95q154 0 276 -58.5t198.5 -159t116.5 -231t40 -280.5q0 -224 -69.5 -391t-213.5 -263t-348 -96zM737 98q96 0 176.5 33.5t138 91.5t97.5 137t59 168.5t19 186.5q0 94 -18.5 182t-57.5 167.5
t-96 138.5t-138.5 93.5t-179.5 34.5q-113 0 -205.5 -49t-153 -133t-93.5 -195.5t-33 -238.5q0 -174 58 -313.5t169.5 -221.5t257.5 -82z" />
    <glyph glyph-name="P" unicode="P" horiz-adv-x="1024" 
d="M317 0h-141v1430h354q207 0 324 -105.5t117 -300.5q0 -189 -126 -297.5t-329 -108.5h-199v-618zM317 741h134q112 0 188.5 21t117 61.5t56.5 88t16 112.5q0 138 -75 210.5t-205 72.5h-232v-566z" />
    <glyph glyph-name="Q" unicode="Q" horiz-adv-x="1478" 
d="M1298 -266h-188l-254 252q-46 -11 -113 -11q-127 0 -232 37.5t-178.5 104.5t-124 161t-74 206t-23.5 241q0 213 75 377.5t218 258t333 93.5q126 0 231 -39.5t178 -108t124 -161t74.5 -198t23.5 -220.5q0 -259 -95 -443.5t-276 -258.5zM737 98q98 0 180.5 35t138.5 94.5
t95.5 139t57.5 167.5t18 181q0 95 -18.5 183.5t-58 167.5t-96.5 137.5t-138.5 93t-178.5 34.5q-145 0 -256.5 -81t-170 -220.5t-58.5 -314.5q0 -170 55.5 -308.5t167.5 -223.5t262 -85z" />
    <glyph glyph-name="R" unicode="R" 
d="M1079 0h-155l-195 455q-30 71 -56 113.5t-57 66.5t-64 31.5t-85 7.5h-145v-674h-142v1430h369q200 0 310 -91t110 -278q0 -134 -88.5 -223.5t-229.5 -108.5v-4q76 -10 111 -46.5t76 -129.5zM322 797h153q61 0 118 12.5t112 40.5t88.5 82.5t33.5 128.5q0 137 -77.5 191.5
t-247.5 54.5h-180v-510z" />
    <glyph glyph-name="S" unicode="S" horiz-adv-x="1024" 
d="M123 37l14 145q133 -84 316 -84q147 0 234 77.5t87 213.5q0 83 -67 145.5t-207 137.5q-62 33 -100 55t-88 55t-80 62.5t-58.5 66.5t-41.5 79.5t-13 90.5q0 115 63 201.5t164.5 129t224.5 42.5q160 0 281 -47l-23 -129q-95 53 -260 53q-62 0 -116 -14t-98 -42.5t-69.5 -77
t-25.5 -112.5q0 -45 19 -82.5t62.5 -72.5t88 -62t121.5 -67q64 -33 106 -57.5t96 -65.5t85.5 -81t54 -97t22.5 -121q0 -99 -39 -178t-105.5 -127.5t-149.5 -73.5t-177 -25q-179 0 -321 62z" />
    <glyph glyph-name="T" unicode="T" horiz-adv-x="1024" 
d="M584 0h-142v1307h-422v123h986v-123h-422v-1307z" />
    <glyph glyph-name="U" unicode="U" horiz-adv-x="1366" 
d="M1061 500v930h141v-936q0 -111 -30.5 -200.5t-81 -148t-118.5 -97.5t-139.5 -56t-148.5 -17q-75 0 -146 16t-139.5 55t-119.5 97t-82 149t-31 204v934h141v-936q0 -82 23 -152t68 -125.5t118.5 -87t167.5 -31.5q172 0 274.5 106t102.5 296z" />
    <glyph glyph-name="V" unicode="V" horiz-adv-x="1251" 
d="M696 0h-151l-533 1430h150l461 -1289l477 1289h139z" />
    <glyph glyph-name="W" unicode="W" horiz-adv-x="1933" 
d="M1501 0h-168l-362 1270h-4l-369 -1270h-170l-410 1430h146l352 -1270h4l367 1270h170l360 -1270h4l359 1270h135z" />
    <glyph glyph-name="X" unicode="X" horiz-adv-x="1251" 
d="M1237 0h-172l-436 651l-453 -651h-162l533 752l-479 678h165l402 -578l405 578h158l-481 -678z" />
    <glyph glyph-name="Y" unicode="Y" horiz-adv-x="1251" 
d="M696 0h-141v606l-530 824h163l437 -699l448 699h154l-531 -824v-606z" />
    <glyph glyph-name="Z" unicode="Z" horiz-adv-x="1024" 
d="M963 0h-920v123l745 1184h-727v123h877v-123l-741 -1184h766v-123z" />
    <glyph glyph-name="bracketleft" unicode="[" horiz-adv-x="569" 
d="M473 -287h-332v1835h332v-98h-203v-1638h203v-99z" />
    <glyph glyph-name="backslash" unicode="\" horiz-adv-x="569" 
d="M633 -25h-141l-555 1479h141z" />
    <glyph glyph-name="bracketright" unicode="]" horiz-adv-x="569" 
d="M428 -287h-332v99h203v1638h-203v98h332v-1835z" />
    <glyph glyph-name="asciicircum" unicode="^" horiz-adv-x="1228" 
d="M1126 543h-145l-367 745l-366 -745h-146l447 887h131z" />
    <glyph glyph-name="underscore" unicode="_" horiz-adv-x="1024" 
d="M1024 -256h-1024v102h1024v-102z" />
    <glyph glyph-name="grave" unicode="`" horiz-adv-x="454" 
d="M344 1151h-94l-258 295h162z" />
    <glyph glyph-name="a" unicode="a" horiz-adv-x="1024" 
d="M889 0h-127v168h-4q-40 -87 -133.5 -140t-198.5 -53q-84 0 -148.5 22t-100.5 54t-58.5 74.5t-29.5 76.5t-7 68q0 194 148.5 280.5t455.5 86.5h64v55q0 80 -18.5 135t-53.5 82.5t-74.5 38t-91.5 10.5q-173 0 -307 -86v125q61 30 150 51t157 21q198 0 282.5 -95t84.5 -292
v-530q0 -90 10 -152zM750 449v77h-60q-140 0 -236 -20t-144.5 -57.5t-67.5 -79t-19 -95.5q0 -91 56.5 -139.5t160.5 -48.5q310 0 310 363z" />
    <glyph glyph-name="b" unicode="b" 
d="M279 0h-129v1536h129v-668h4q37 86 124 143.5t201 57.5q213 0 321.5 -143t108.5 -404q0 -248 -113.5 -397.5t-316.5 -149.5q-114 0 -193 45.5t-132 145.5h-4v-166zM588 86q149 0 229 113t80 323q0 91 -17 167t-52 137.5t-96.5 96.5t-143.5 35t-144 -39t-97 -104
t-51.5 -138.5t-16.5 -154.5q0 -85 19 -161.5t56 -139t97.5 -99t136.5 -36.5z" />
    <glyph glyph-name="c" unicode="c" horiz-adv-x="909" 
d="M840 133l12 -121q-105 -37 -266 -37q-100 0 -183.5 29.5t-141.5 80.5t-98.5 120.5t-59.5 149.5t-19 167q0 246 144.5 396.5t371.5 150.5q128 0 252 -41l-10 -123q-122 53 -226 53q-183 0 -287 -121t-104 -315q0 -117 43.5 -214.5t131 -159.5t204.5 -62q106 0 236 47z" />
    <glyph glyph-name="d" unicode="d" 
d="M989 0h-129v166h-4q-53 -100 -132.5 -145.5t-193.5 -45.5q-203 0 -316.5 149.5t-113.5 397.5q0 265 110.5 406t317.5 141q122 0 208 -61t120 -140h4v668h129v-1536zM551 86q64 0 116.5 26t88 68.5t59.5 99.5t34.5 117.5t10.5 124.5q0 78 -17 151.5t-52 139t-97.5 105.5
t-144.5 40q-147 0 -227 -113.5t-80 -322.5q0 -196 76 -316t233 -120z" />
    <glyph glyph-name="e" unicode="e" horiz-adv-x="1024" 
d="M862 164v-131q-144 -58 -305 -58q-230 0 -351.5 139.5t-121.5 407.5q0 239 121.5 393t318.5 154t306.5 -137t109.5 -391v-56h-715q1 -185 95.5 -292t248.5 -107q68 0 157 24t136 54zM225 596h574q-1 171 -72.5 266.5t-196.5 95.5q-124 0 -213 -104t-92 -258z" />
    <glyph glyph-name="f" unicode="f" horiz-adv-x="681" 
d="M379 0h-129v934h-211v110h211v134q0 210 67 296.5t207 86.5q86 0 123 -21l-8 -113q-44 23 -102 23q-79 0 -118.5 -53t-39.5 -174v-179h235v-110h-235v-934z" />
    <glyph glyph-name="g" unicode="g" 
d="M862 172v33h-4q-92 -205 -317 -205q-92 0 -167.5 30.5t-125.5 80.5t-84 118.5t-49 141.5t-15 151q0 265 110 406t320 141q117 0 188.5 -28t137.5 -115h4v118h129v-962q0 -248 -125 -386t-364 -138q-145 0 -316 55l11 129q145 -74 307 -74q107 0 178.5 32.5t111 100
t55 155.5t15.5 216zM543 111q66 0 120.5 24t90.5 64t60.5 94t35 111.5t10.5 119.5q0 220 -76.5 327t-234.5 107q-152 0 -229.5 -117t-77.5 -319q0 -84 18 -156.5t53 -130t94 -91t136 -33.5z" />
    <glyph glyph-name="h" unicode="h" 
d="M977 0h-129v633q0 172 -59.5 248.5t-188.5 76.5q-78 0 -139 -33.5t-97 -90.5t-54.5 -127.5t-18.5 -149.5v-557h-129v1536h129v-668h4q47 95 133 148t195 53q183 0 268.5 -108.5t85.5 -327.5v-633z" />
    <glyph glyph-name="i" unicode="i" horiz-adv-x="454" 
d="M291 1323h-129v172h129v-172zM291 0h-129v1044h129v-1044z" />
    <glyph glyph-name="j" unicode="j" horiz-adv-x="454" 
d="M291 1323h-129v172h129v-172zM-57 -432v113q39 -13 77 -13q82 0 112 46t30 145v1185h129v-1198q0 -148 -57.5 -218t-180.5 -70q-55 0 -110 10z" />
    <glyph glyph-name="k" unicode="k" horiz-adv-x="1024" 
d="M985 0h-178l-516 537v-537h-129v1536h129v-920l467 428h166l-510 -462z" />
    <glyph glyph-name="l" unicode="l" horiz-adv-x="454" 
d="M291 0h-129v1536h129v-1536z" />
    <glyph glyph-name="m" unicode="m" horiz-adv-x="1705" 
d="M1552 0h-129v696q0 123 -53.5 192.5t-167.5 69.5q-117 0 -198.5 -99t-81.5 -279v-580h-129v696q0 125 -55 193.5t-167 68.5q-124 0 -202 -103.5t-78 -270.5v-584h-129v881q0 73 -8 163h125v-176l4 -2q54 109 132 156t191 47q110 0 185.5 -58t93.5 -163h4q41 103 131 162
t203 59q159 0 244 -99.5t85 -248.5v-721z" />
    <glyph glyph-name="n" unicode="n" 
d="M977 0h-129v637q0 321 -248 321q-84 0 -147 -34.5t-96.5 -91.5t-49.5 -120t-16 -132v-580h-129v866q0 88 -8 178h125v-186h4q48 110 131.5 160.5t206.5 50.5q183 0 269.5 -108.5t86.5 -292.5v-668z" />
    <glyph glyph-name="o" unicode="o" 
d="M569 -25q-119 0 -213 43t-153 118.5t-90 173.5t-31 212q0 156 54 278t166 195.5t267 73.5q118 0 212 -42.5t154 -117.5t91 -173.5t31 -213.5q0 -113 -30.5 -211t-89.5 -173.5t-154 -119t-214 -43.5zM569 86q162 0 254 122.5t92 313.5q0 189 -92 312.5t-256 123.5
q-155 0 -249.5 -119.5t-94.5 -316.5q0 -125 40 -223t119 -155.5t187 -57.5z" />
    <glyph glyph-name="p" unicode="p" 
d="M279 -430h-129v1474h129l-9 -190h4q112 215 334 215q206 0 318 -138t112 -409q0 -248 -113.5 -397.5t-316.5 -149.5q-119 0 -197 49t-128 154h-4v-608zM588 86q153 0 231 117t78 319q0 200 -77 318t-232 118q-64 0 -116.5 -26t-88 -68.5t-59.5 -99.5t-34.5 -117.5
t-10.5 -124.5q0 -63 10.5 -123.5t34.5 -117.5t59 -100t87.5 -69t117.5 -26z" />
    <glyph glyph-name="q" unicode="q" 
d="M989 -430h-129v608h-4q-48 -103 -126.5 -153t-199.5 -50q-203 0 -316.5 149.5t-113.5 397.5q0 265 110 406t320 141q213 0 326 -195h4v170h129v-1474zM551 86q64 0 116.5 26t88 68.5t59.5 99.5t34.5 117.5t10.5 124.5q0 81 -18 156t-53.5 139t-97.5 102.5t-142 38.5
q-149 0 -228 -114.5t-79 -321.5q0 -210 80 -323t229 -113z" />
    <glyph glyph-name="r" unicode="r" horiz-adv-x="681" 
d="M291 0h-129v899q0 72 -8 145h129v-200h4q44 109 113.5 167t154.5 58q44 0 90 -12v-135q-41 12 -92 12q-72 0 -124.5 -35t-81.5 -96.5t-42.5 -133t-13.5 -155.5v-514z" />
    <glyph glyph-name="s" unicode="s" horiz-adv-x="796" 
d="M70 25l12 127q132 -66 270 -66q103 0 168.5 51.5t65.5 134.5q0 41 -18 75.5t-56.5 63t-75.5 48.5t-98 47q-144 64 -199 129.5t-55 148.5q0 74 27.5 130t76 89t108 49.5t128.5 16.5q134 0 258 -47l-12 -113q-107 49 -234 49q-115 0 -169 -43t-54 -131q0 -48 46 -88
t183 -100q88 -37 147.5 -78.5t88 -84.5t39 -80t10.5 -81q0 -76 -32 -135t-86 -93t-117 -51.5t-132 -17.5q-167 0 -290 50z" />
    <glyph glyph-name="t" unicode="t" horiz-adv-x="681" 
d="M633 111l8 -107q-75 -29 -158 -29q-136 0 -186.5 73.5t-50.5 236.5v649h-205v110h205v252l129 45v-297h237v-110h-237v-676q0 -82 34.5 -127t104.5 -45q52 0 119 25z" />
    <glyph glyph-name="u" unicode="u" 
d="M985 0h-125v186h-4q-49 -109 -132 -160t-206 -51q-181 0 -268.5 107.5t-87.5 290.5v671h129v-638q0 -48 5.5 -89.5t22 -85.5t43.5 -74.5t72 -50.5t105 -20q69 0 124 24t89 62t56 89t31 100t9 100v583h129v-872q0 -98 8 -172z" />
    <glyph glyph-name="v" unicode="v" horiz-adv-x="909" 
d="M524 0h-151l-355 1044h142l289 -903h4l303 903h135z" />
    <glyph glyph-name="w" unicode="w" horiz-adv-x="1593" 
d="M1235 0h-156l-284 903h-4l-285 -903h-156l-336 1044h142l274 -903h4l291 903h156l276 -903h4l289 903h129z" />
    <glyph glyph-name="x" unicode="x" horiz-adv-x="909" 
d="M893 0h-160l-274 451l-293 -451h-150l367 553l-332 491h160l248 -389l252 389h147l-323 -491z" />
    <glyph glyph-name="y" unicode="y" horiz-adv-x="909" 
d="M66 -426l12 111q49 -17 100 -17q29 0 52 8.5t41.5 29t31.5 39.5t26.5 54.5t20.5 57.5t20 66.5t19 64.5l-371 1056h142l293 -870h2l301 870h135l-420 -1206q-53 -152 -117.5 -216t-150.5 -64q-68 0 -137 16z" />
    <glyph glyph-name="z" unicode="z" horiz-adv-x="909" 
d="M844 0h-778v109l628 825h-604v110h754v-110l-629 -823h629v-111z" />
    <glyph glyph-name="braceleft" unicode="{" horiz-adv-x="569" 
d="M559 -287h-115q-91 0 -148.5 69.5t-57.5 176.5v356q0 119 -42 193t-118 74v98q76 0 118 75.5t42 198.5v349q0 109 57.5 177t150.5 68h113v-98h-102q-45 0 -67.5 -53t-22.5 -137v-340q0 -108 -49 -185.5t-123 -101.5v-4q78 -26 125 -104.5t47 -184.5v-338q0 -86 23.5 -138
t66.5 -52h102v-99z" />
    <glyph glyph-name="bar" unicode="|" horiz-adv-x="454" 
d="M299 -512h-141v2048h141v-2048z" />
    <glyph glyph-name="braceright" unicode="}" horiz-adv-x="569" 
d="M123 -287h-113v99h103q45 0 67.5 53t22.5 137v340q0 108 49 185.5t123 101.5v4q-78 26 -125 104.5t-47 184.5v338q0 86 -23.5 138t-66.5 52h-103v98h115q92 0 149.5 -69t57.5 -176v-357q0 -119 42 -192.5t118 -73.5v-98q-76 0 -118 -76t-42 -199v-348q0 -109 -58 -177.5
t-151 -68.5z" />
    <glyph glyph-name="asciitilde" unicode="~" horiz-adv-x="1228" 
d="M1014 664l73 -105q-94 -186 -256 -186q-49 0 -114 23.5t-117.5 51t-110.5 51t-94 23.5q-43 0 -86 -32t-94 -117l-74 104q97 187 256 187q65 0 152 -37.5t165 -75t120 -37.5q46 0 88.5 34t91.5 116z" />
    <glyph glyph-name="uni00A0" unicode="&#xa0;" horiz-adv-x="569" 
 />
    <glyph glyph-name="exclamdown" unicode="&#xa1;" horiz-adv-x="796" 
d="M481 872h-166v172h166v-172zM481 -385h-166l25 1083h117z" />
    <glyph glyph-name="cent" unicode="&#xa2;" 
d="M958 133l13 -121q-105 -37 -266 -37q-96 0 -175 29l-63 -190h-96l75 225q-117 67 -180 194.5t-63 288.5q0 243 143.5 395t374.5 152q47 0 67 -4l46 139h96l-51 -151q36 -7 92 -25l-10 -123q-56 25 -117 39l-275 -823q72 -35 156 -35q107 0 233 47zM489 170l263 786
q-7 2 -13 2q-191 0 -293 -122.5t-102 -313.5q0 -108 38 -200t107 -152z" />
    <glyph glyph-name="sterling" unicode="&#xa3;" 
d="M993 0h-856v123h211v588h-186v110h186v94q0 529 449 529q145 0 229 -43l-20 -127q-76 47 -207 47q-41 0 -76 -6t-71.5 -21.5t-64.5 -44.5t-51 -71t-35 -106t-12 -146v-105h340v-110h-340v-588h504v-123z" />
    <glyph glyph-name="currency" unicode="&#xa4;" 
d="M1083 289l-92 -88l-110 114q-123 -108 -312 -108q-186 0 -309 108l-117 -114l-88 88l117 112q-111 138 -111 314q0 184 111 309l-117 113l88 92l117 -115q65 53 146.5 81t162.5 28q178 0 312 -109l110 115l92 -92l-110 -113q104 -121 104 -309q0 -187 -104 -314zM559 330
q93 0 167.5 35.5t118.5 92.5t67.5 123t23.5 134q0 161 -106.5 273t-256.5 112q-144 0 -257 -112t-113 -273t100 -273t256 -112z" />
    <glyph glyph-name="yen" unicode="&#xa5;" 
d="M641 0h-141v358h-295v99h295v153l-6 13h-289v98h233l-399 709h156l374 -691l385 691h146l-398 -709h234v-98h-289l-6 -13v-153h295v-99h-295v-358z" />
    <glyph glyph-name="brokenbar" unicode="&#xa6;" horiz-adv-x="454" 
d="M299 666h-141v716h141v-716zM299 -358h-141v716h141v-716z" />
    <glyph glyph-name="section" unicode="&#xa7;" 
d="M195 -188l14 120q149 -67 330 -67q70 0 131.5 23.5t103 74t41.5 117.5q0 74 -66 120t-225 105q-82 31 -135.5 57.5t-105 65.5t-76.5 90t-25 117q0 68 41 133t139 147q-88 49 -127.5 105.5t-39.5 128.5q0 98 55 169t137.5 103.5t179.5 32.5q158 0 295 -45l-14 -119
q-36 19 -108.5 36t-135.5 17q-39 0 -82.5 -9.5t-86.5 -28.5t-71 -54.5t-28 -81.5q0 -26 8.5 -49.5t20.5 -41.5t36 -37t42 -31t52.5 -28.5t54.5 -25t60 -24.5q46 -19 72 -30.5t67 -31.5t65.5 -37t53.5 -43t44.5 -52t26.5 -60.5t11 -73.5q0 -70 -32.5 -132t-120.5 -146
q159 -90 159 -242q0 -73 -29.5 -132t-75 -95t-103.5 -60t-110 -33.5t-99 -9.5q-176 0 -344 58zM457 479l239 -104q61 56 91 102t30 103q0 25 -5.5 46.5t-12 37.5t-22.5 32t-27 25.5t-35 23t-36 20t-42.5 20.5t-42.5 20l-131 61q-54 -28 -96.5 -92.5t-42.5 -130.5
q0 -105 133 -164z" />
    <glyph glyph-name="dieresis" unicode="&#xa8;" horiz-adv-x="454" 
d="M129 1196h-154v172h154v-172zM479 1196h-153v172h153v-172z" />
    <glyph glyph-name="copyright" unicode="&#xa9;" horiz-adv-x="1638" 
d="M819 -25q-151 0 -288 59t-235.5 158.5t-157 236t-58.5 286.5q0 148 58 284t156 236t235.5 159.5t289.5 59.5q198 0 368 -97.5t271 -268t101 -373.5q0 -148 -58 -284.5t-156.5 -236.5t-236 -159.5t-289.5 -59.5zM821 86q165 0 301 80.5t215.5 225t79.5 323.5
q0 177 -78.5 321t-215.5 225.5t-304 81.5q-168 0 -305.5 -83t-215 -227t-77.5 -318t77 -318t215 -227.5t308 -83.5zM1085 573h125q-30 -148 -129.5 -233.5t-234.5 -85.5q-195 0 -319 130t-124 331q0 202 117 332.5t320 130.5q148 0 247.5 -82t120.5 -228h-123
q-19 92 -84 145.5t-159 53.5q-137 0 -217 -95t-80 -255q0 -146 82 -249t219 -103q93 0 157.5 55.5t81.5 152.5z" />
    <glyph glyph-name="ordfeminine" unicode="&#xaa;" horiz-adv-x="665" 
d="M598 811h-102v98h-4q-23 -53 -81 -83.5t-126 -30.5q-236 0 -236 186q0 48 15 85t54 71t119 52.5t197 18.5h53v37q0 123 -145 123q-113 0 -201 -49v94q116 41 213 41q238 0 238 -229v-320zM487 1067v55h-22q-154 0 -232.5 -33.5t-78.5 -97.5q0 -110 153 -110
q180 0 180 186z" />
    <glyph glyph-name="guillemotleft" unicode="&#xab;" 
d="M594 131h-121l-287 420l287 420h121l-272 -420zM952 131h-121l-286 420l286 420h121l-272 -420z" />
    <glyph glyph-name="logicalnot" unicode="&#xac;" horiz-adv-x="1228" 
d="M1133 233h-142v420h-897v142h1039v-562z" />
    <glyph glyph-name="uni00AD" unicode="&#xad;" horiz-adv-x="681" 
d="M598 481h-514v142h514v-142z" />
    <glyph glyph-name="registered" unicode="&#xae;" horiz-adv-x="1638" 
d="M1188 283h-150l-241 383h-119v-383h-141v866h333q295 0 295 -244q0 -105 -61.5 -172t-161.5 -67zM678 776h174q92 0 132 31t40 104q0 64 -47.5 95.5t-132.5 31.5h-166v-262zM819 -25q-151 0 -288 59t-235.5 158.5t-157 236t-58.5 286.5q0 148 58 284t156 236t235.5 159.5
t289.5 59.5q198 0 368 -97.5t271 -268t101 -373.5q0 -148 -58 -284.5t-156.5 -236.5t-236 -159.5t-289.5 -59.5zM821 86q165 0 301 80.5t215.5 225t79.5 323.5q0 177 -78.5 321t-215.5 225.5t-304 81.5q-168 0 -305.5 -83t-215 -227t-77.5 -318t77 -318t215 -227.5
t308 -83.5z" />
    <glyph glyph-name="macron" unicode="&#xaf;" horiz-adv-x="454" 
d="M477 1243h-500v111h500v-111z" />
    <glyph glyph-name="degree" unicode="&#xb0;" horiz-adv-x="819" 
d="M733 1139q0 -133 -95 -219t-228 -86q-136 0 -230 87.5t-94 217.5q0 131 95 218t229 87q132 0 227.5 -85.5t95.5 -219.5zM629 1139q0 94 -60.5 150.5t-160.5 56.5q-96 0 -157 -57t-61 -150q0 -86 66.5 -146.5t153.5 -60.5t153 61t66 146z" />
    <glyph glyph-name="plusminus" unicode="&#xb1;" horiz-adv-x="1228" 
d="M1133 551h-449v-346h-141v346h-449v141h449v346h141v-346h449v-141zM1133 0h-1039v141h1039v-141z" />
    <glyph glyph-name="twosuperior" unicode="&#xb2;" horiz-adv-x="739" 
d="M647 877h-555v84l203 182q93 87 160 183t67 175q0 65 -44.5 106.5t-112.5 41.5q-106 0 -224 -64l-16 105q117 57 240 57q131 0 202.5 -61.5t71.5 -178.5q0 -99 -60.5 -191.5t-193.5 -213.5l-139 -127h401v-98z" />
    <glyph glyph-name="threesuperior" unicode="&#xb3;" horiz-adv-x="739" 
d="M70 899l10 107q107 -43 244 -43q52 0 99 15.5t82.5 54t35.5 93.5q0 44 -20.5 74t-59 45.5t-82 22t-100.5 6.5h-76v100h49q153 0 219 41t66 107q0 127 -205 127q-111 0 -211 -47l-8 106q98 39 243 39q77 0 142 -21t110 -72t45 -124q0 -74 -51 -127.5t-143 -73.5v-4
q91 -4 144.5 -63.5t53.5 -151.5q0 -82 -53 -139.5t-128.5 -82t-162.5 -24.5q-142 0 -243 35z" />
    <glyph glyph-name="acute" unicode="&#xb4;" horiz-adv-x="454" 
d="M203 1151h-94l190 295h162z" />
    <glyph glyph-name="mu" unicode="&#xb5;" 
d="M985 0h-125v186h-4q-49 -109 -132 -160t-206 -51q-127 0 -227 60v-465h-129v1474h129v-641q0 -154 62 -235.5t186 -81.5q148 0 228.5 104.5t80.5 280.5v573h129v-876q0 -78 8 -168z" />
    <glyph glyph-name="paragraph" unicode="&#xb6;" horiz-adv-x="1228" 
d="M1057 -221h-129v1540h-275v-1540h-129v876q-184 0 -305 110t-121 271q0 191 121 292.5t342 101.5h496v-1651z" />
    <glyph glyph-name="periodcentered" unicode="&#xb7;" horiz-adv-x="569" 
d="M287 541q-45 0 -72 27.5t-27 68.5q0 43 29.5 70.5t69.5 27.5q38 0 67 -27t29 -71q0 -41 -27.5 -68.5t-68.5 -27.5z" />
    <glyph glyph-name="cedilla" unicode="&#xb8;" horiz-adv-x="454" 
d="M14 -334l15 76q39 -25 89.5 -42t92.5 -17q51 0 78.5 20t27.5 55q0 34 -20.5 55t-58.5 21q-43 0 -84 -8l59 174h55l-39 -111q51 7 68 7q66 0 107.5 -37t41.5 -97q0 -66 -55 -103.5t-170 -37.5q-87 0 -207 45z" />
    <glyph glyph-name="onesuperior" unicode="&#xb9;" horiz-adv-x="739" 
d="M475 877h-117v749l-155 -119l-45 68l211 164h106v-862z" />
    <glyph glyph-name="ordmasculine" unicode="&#xba;" horiz-adv-x="739" 
d="M365 795q-155 0 -236.5 92.5t-81.5 234.5q0 144 81.5 238t236.5 94q88 0 153.5 -27.5t102 -76t54 -105.5t17.5 -123q0 -64 -18.5 -120.5t-56 -104t-102.5 -75t-150 -27.5zM371 881q98 0 157.5 66t59.5 175q0 102 -59 174t-160 72q-99 0 -158 -73t-59 -173
q0 -106 59 -173.5t160 -67.5z" />
    <glyph glyph-name="guillemotright" unicode="&#xbb;" 
d="M307 131h-121l273 420l-273 420h121l287 -420zM666 131h-121l272 420l-272 420h121l286 -420z" />
    <glyph glyph-name="onequarter" unicode="&#xbc;" horiz-adv-x="1708" 
d="M1448 0h-117v186h-448v101l426 575h139v-577h115v-99h-115v-186zM1331 285v436h-4l-328 -436h332zM463 578h-117v749l-156 -119l-45 68l211 164h107v-862zM428 -45h-117l846 1520h117z" />
    <glyph glyph-name="onehalf" unicode="&#xbd;" horiz-adv-x="1708" 
d="M1589 0h-555v84l203 182q92 87 159.5 183.5t67.5 175.5q0 65 -44.5 106t-112.5 41q-108 0 -224 -63l-16 104q117 57 240 57q131 0 202.5 -61t71.5 -178q0 -99 -60.5 -192t-193.5 -214l-139 -127h401v-98zM438 578h-116v749l-156 -119l-45 68l211 164h106v-862zM393 -45
h-117l846 1520h117z" />
    <glyph glyph-name="threequarters" unicode="&#xbe;" horiz-adv-x="1708" 
d="M1487 0h-117v186h-448v101l426 575h139v-577h115v-99h-115v-186zM1370 285v436h-4l-328 -436h332zM109 600l10 107q107 -43 243 -43q52 0 99.5 15.5t83 54t35.5 93.5q0 44 -21 74t-59.5 45.5t-82 22t-100.5 6.5h-75v100h49q152 0 218 41t66 107q0 127 -204 127
q-111 0 -211 -47l-8 106q98 39 243 39q77 0 142 -21t110 -72t45 -124q0 -74 -51 -127.5t-143 -73.5v-4q91 -4 144.5 -63.5t53.5 -151.5q0 -82 -53 -139.5t-128.5 -82t-162.5 -24.5q-142 0 -243 35zM571 -45h-116l845 1520h117z" />
    <glyph glyph-name="questiondown" unicode="&#xbf;" horiz-adv-x="1024" 
d="M651 872h-166v172h166v-172zM842 -229l6 -129q-171 -52 -297 -52q-176 0 -285.5 95t-109.5 272q0 99 41.5 182.5t138.5 182.5q96 99 133 177.5t37 172.5v26h129v-28q0 -66 -14 -123t-41.5 -102.5t-49.5 -73.5t-56 -66q-9 -9 -13 -14t-32 -35.5t-38.5 -44t-33 -46.5
t-32.5 -59.5t-19 -66.5t-9 -82q0 -110 71.5 -177t186.5 -67q52 0 109.5 10t88.5 19.5t89 28.5z" />
    <glyph glyph-name="Agrave" unicode="&#xc0;" horiz-adv-x="1366" 
d="M1339 0h-147l-154 383h-721l-153 -383h-137l585 1430h160zM991 506l-309 788l-311 -788h620zM795 1516h-95l-258 294h162z" />
    <glyph glyph-name="Aacute" unicode="&#xc1;" horiz-adv-x="1366" 
d="M1339 0h-147l-154 383h-721l-153 -383h-137l585 1430h160zM991 506l-309 788l-311 -788h620zM684 1516h-94l190 294h162z" />
    <glyph glyph-name="Acircumflex" unicode="&#xc2;" horiz-adv-x="1366" 
d="M1339 0h-147l-154 383h-721l-153 -383h-137l585 1430h160zM991 506l-309 788l-311 -788h620zM971 1516h-94l-181 208l-180 -208h-94l190 294h168z" />
    <glyph glyph-name="Atilde" unicode="&#xc3;" horiz-adv-x="1366" 
d="M1339 0h-147l-154 383h-721l-153 -383h-137l585 1430h160zM991 506l-309 788l-311 -788h620zM895 1729h76q-10 -85 -58 -133t-112 -48q-47 0 -124 25.5t-99 25.5q-35 0 -55.5 -16t-35.5 -57h-73q20 90 63.5 137t104.5 47q46 0 125 -25.5t90 -25.5q31 0 60.5 18.5
t37.5 51.5z" />
    <glyph glyph-name="Adieresis" unicode="&#xc4;" horiz-adv-x="1366" 
d="M1339 0h-147l-154 383h-721l-153 -383h-137l585 1430h160zM991 506l-309 788l-311 -788h620zM598 1561h-154v172h154v-172zM948 1561h-153v172h153v-172z" />
    <glyph glyph-name="Aring" unicode="&#xc5;" horiz-adv-x="1366" 
d="M1339 0h-147l-154 383h-721l-153 -383h-137l585 1430h160zM991 506l-309 788l-311 -788h620zM895 1671q0 -81 -56 -137.5t-141 -56.5q-84 0 -140 53.5t-56 140.5q0 52 19.5 91.5t50 61t62.5 32t64 10.5q75 0 136 -50.5t61 -144.5zM821 1671q0 52 -33 86.5t-92 34.5
q-54 0 -87.5 -34.5t-33.5 -86.5q0 -50 35 -85.5t88 -35.5q55 0 89 34.5t34 86.5z" />
    <glyph glyph-name="AE" unicode="&#xc6;" horiz-adv-x="1820" 
d="M1698 0h-721v383h-584l-237 -383h-156l893 1430h780v-123h-555v-510h527v-123h-527v-551h580v-123zM977 506v813h-4l-504 -813h508z" />
    <glyph glyph-name="Ccedilla" unicode="&#xc7;" horiz-adv-x="1366" 
d="M1157 160l8 -123q-44 -28 -135.5 -45t-195.5 -17q-11 0 -25 2l-31 -88q61 7 68 7q66 0 107.5 -37t41.5 -97q0 -71 -58.5 -106t-166.5 -35q-89 0 -207 45l15 76q39 -25 89.5 -42t92.5 -17q48 0 77 19.5t29 55.5q0 32 -19.5 54t-60.5 22q-43 0 -84 -8l52 156
q-300 24 -468.5 222.5t-168.5 510.5q0 217 87.5 384.5t251.5 261t382 93.5q92 0 189.5 -15t137.5 -38l-8 -131q-113 61 -319 61q-266 0 -423 -169t-157 -447q0 -281 153.5 -449t426.5 -168q97 0 184 16t135 46z" />
    <glyph glyph-name="Egrave" unicode="&#xc8;" horiz-adv-x="1024" 
d="M901 0h-725v1430h701v-123h-560v-510h531v-123h-531v-551h584v-123zM621 1516h-95l-258 294h162z" />
    <glyph glyph-name="Eacute" unicode="&#xc9;" horiz-adv-x="1024" 
d="M901 0h-725v1430h701v-123h-560v-510h531v-123h-531v-551h584v-123zM506 1516h-94l190 294h162z" />
    <glyph glyph-name="Ecircumflex" unicode="&#xca;" horiz-adv-x="1024" 
d="M901 0h-725v1430h701v-123h-560v-510h531v-123h-531v-551h584v-123zM786 1516h-94l-180 208l-180 -208h-94l190 294h168z" />
    <glyph glyph-name="Edieresis" unicode="&#xcb;" horiz-adv-x="1024" 
d="M901 0h-725v1430h701v-123h-560v-510h531v-123h-531v-551h584v-123zM418 1561h-154v172h154v-172zM768 1561h-154v172h154v-172z" />
    <glyph glyph-name="Igrave" unicode="&#xcc;" horiz-adv-x="454" 
d="M299 0h-141v1430h141v-1430zM342 1516h-94l-258 294h162z" />
    <glyph glyph-name="Iacute" unicode="&#xcd;" horiz-adv-x="454" 
d="M299 0h-141v1430h141v-1430zM205 1516h-94l190 294h162z" />
    <glyph glyph-name="Icircumflex" unicode="&#xce;" horiz-adv-x="454" 
d="M299 0h-141v1430h141v-1430zM498 1516h-95l-180 208l-180 -208h-94l190 294h168z" />
    <glyph glyph-name="Idieresis" unicode="&#xcf;" horiz-adv-x="454" 
d="M299 0h-141v1430h141v-1430zM129 1561h-154v172h154v-172zM479 1561h-153v172h153v-172z" />
    <glyph glyph-name="Eth" unicode="&#xd0;" horiz-adv-x="1366" 
d="M414 0h-250v674h-141v123h141v633h358q342 0 526.5 -180.5t184.5 -532.5q0 -345 -206 -531t-613 -186zM305 123h117q670 0 670 602q0 289 -149.5 435.5t-430.5 146.5h-207v-510h436v-123h-436v-551z" />
    <glyph glyph-name="Ntilde" unicode="&#xd1;" horiz-adv-x="1366" 
d="M1208 0h-190l-715 1233h-4v-1233h-141v1430h178l727 -1258h4v1258h141v-1430zM893 1741h76q-10 -85 -58 -132.5t-112 -47.5q-47 0 -124.5 25.5t-99.5 25.5q-35 0 -55 -16t-35 -58h-73q20 90 63.5 137t104.5 47q46 0 125 -25.5t90 -25.5q31 0 60.5 18.5t37.5 51.5z" />
    <glyph glyph-name="Ograve" unicode="&#xd2;" horiz-adv-x="1478" 
d="M737 -25q-300 0 -463 201.5t-163 548.5q0 211 73.5 375t217 259t335.5 95q154 0 276 -58.5t198.5 -159t116.5 -231t40 -280.5q0 -224 -69.5 -391t-213.5 -263t-348 -96zM737 98q96 0 176.5 33.5t138 91.5t97.5 137t59 168.5t19 186.5q0 94 -18.5 182t-57.5 167.5
t-96 138.5t-138.5 93.5t-179.5 34.5q-113 0 -205.5 -49t-153 -133t-93.5 -195.5t-33 -238.5q0 -174 58 -313.5t169.5 -221.5t257.5 -82zM860 1516h-94l-258 294h162z" />
    <glyph glyph-name="Oacute" unicode="&#xd3;" horiz-adv-x="1478" 
d="M737 -25q-300 0 -463 201.5t-163 548.5q0 211 73.5 375t217 259t335.5 95q154 0 276 -58.5t198.5 -159t116.5 -231t40 -280.5q0 -224 -69.5 -391t-213.5 -263t-348 -96zM737 98q96 0 176.5 33.5t138 91.5t97.5 137t59 168.5t19 186.5q0 94 -18.5 182t-57.5 167.5
t-96 138.5t-138.5 93.5t-179.5 34.5q-113 0 -205.5 -49t-153 -133t-93.5 -195.5t-33 -238.5q0 -174 58 -313.5t169.5 -221.5t257.5 -82zM735 1516h-94l190 294h162z" />
    <glyph glyph-name="Ocircumflex" unicode="&#xd4;" horiz-adv-x="1478" 
d="M737 -25q-300 0 -463 201.5t-163 548.5q0 211 73.5 375t217 259t335.5 95q154 0 276 -58.5t198.5 -159t116.5 -231t40 -280.5q0 -224 -69.5 -391t-213.5 -263t-348 -96zM737 98q96 0 176.5 33.5t138 91.5t97.5 137t59 168.5t19 186.5q0 94 -18.5 182t-57.5 167.5
t-96 138.5t-138.5 93.5t-179.5 34.5q-113 0 -205.5 -49t-153 -133t-93.5 -195.5t-33 -238.5q0 -174 58 -313.5t169.5 -221.5t257.5 -82zM1020 1516h-94l-181 208l-180 -208h-94l191 294h167z" />
    <glyph glyph-name="Otilde" unicode="&#xd5;" horiz-adv-x="1478" 
d="M737 -25q-300 0 -463 201.5t-163 548.5q0 211 73.5 375t217 259t335.5 95q154 0 276 -58.5t198.5 -159t116.5 -231t40 -280.5q0 -224 -69.5 -391t-213.5 -263t-348 -96zM737 98q96 0 176.5 33.5t138 91.5t97.5 137t59 168.5t19 186.5q0 94 -18.5 182t-57.5 167.5
t-96 138.5t-138.5 93.5t-179.5 34.5q-113 0 -205.5 -49t-153 -133t-93.5 -195.5t-33 -238.5q0 -174 58 -313.5t169.5 -221.5t257.5 -82zM950 1741h76q-10 -85 -58 -132.5t-112 -47.5q-47 0 -124 25.5t-99 25.5q-35 0 -55 -16t-35 -58h-74q20 90 63.5 137t104.5 47
q46 0 125 -25.5t90 -25.5q31 0 60.5 18.5t37.5 51.5z" />
    <glyph glyph-name="Odieresis" unicode="&#xd6;" horiz-adv-x="1478" 
d="M737 -25q-300 0 -463 201.5t-163 548.5q0 211 73.5 375t217 259t335.5 95q154 0 276 -58.5t198.5 -159t116.5 -231t40 -280.5q0 -224 -69.5 -391t-213.5 -263t-348 -96zM737 98q96 0 176.5 33.5t138 91.5t97.5 137t59 168.5t19 186.5q0 94 -18.5 182t-57.5 167.5
t-96 138.5t-138.5 93.5t-179.5 34.5q-113 0 -205.5 -49t-153 -133t-93.5 -195.5t-33 -238.5q0 -174 58 -313.5t169.5 -221.5t257.5 -82zM651 1561h-153v172h153v-172zM1001 1561h-153v172h153v-172z" />
    <glyph glyph-name="multiply" unicode="&#xd7;" horiz-adv-x="1228" 
d="M983 53l-367 373l-370 -373l-101 103l371 370l-371 369l101 100l370 -370l367 370l102 -100l-368 -369l368 -370z" />
    <glyph glyph-name="Oslash" unicode="&#xd8;" horiz-adv-x="1478" 
d="M139 -45l-80 68l181 206q-129 189 -129 498q0 152 41 283t118 230.5t198 156.5t271 57q261 0 424 -166l176 201l80 -68l-186 -215q135 -193 135 -477q0 -350 -164 -552t-465 -202q-277 0 -434 170zM340 346l731 836q-130 149 -332 149q-116 0 -210 -50t-153.5 -135.5
t-91.5 -196t-32 -234.5q0 -211 88 -369zM1135 1094l-734 -840q130 -156 340 -156q93 0 172.5 33t136.5 91t97.5 136t60 168.5t19.5 188.5q0 217 -92 379z" />
    <glyph glyph-name="Ugrave" unicode="&#xd9;" horiz-adv-x="1366" 
d="M1061 500v930h141v-936q0 -111 -30.5 -200.5t-81 -148t-118.5 -97.5t-139.5 -56t-148.5 -17q-75 0 -146 16t-139.5 55t-119.5 97t-82 149t-31 204v934h141v-936q0 -82 23 -152t68 -125.5t118.5 -87t167.5 -31.5q172 0 274.5 106t102.5 296zM817 1516h-94l-258 294h162z
" />
    <glyph glyph-name="Uacute" unicode="&#xda;" horiz-adv-x="1366" 
d="M1061 500v930h141v-936q0 -111 -30.5 -200.5t-81 -148t-118.5 -97.5t-139.5 -56t-148.5 -17q-75 0 -146 16t-139.5 55t-119.5 97t-82 149t-31 204v934h141v-936q0 -82 23 -152t68 -125.5t118.5 -87t167.5 -31.5q172 0 274.5 106t102.5 296zM674 1516h-94l190 294h162z
" />
    <glyph glyph-name="Ucircumflex" unicode="&#xdb;" horiz-adv-x="1366" 
d="M1061 500v930h141v-936q0 -111 -30.5 -200.5t-81 -148t-118.5 -97.5t-139.5 -56t-148.5 -17q-75 0 -146 16t-139.5 55t-119.5 97t-82 149t-31 204v934h141v-936q0 -82 23 -152t68 -125.5t118.5 -87t167.5 -31.5q172 0 274.5 106t102.5 296zM965 1516h-95l-180 208
l-180 -208h-94l190 294h168z" />
    <glyph glyph-name="Udieresis" unicode="&#xdc;" horiz-adv-x="1366" 
d="M1061 500v930h141v-936q0 -111 -30.5 -200.5t-81 -148t-118.5 -97.5t-139.5 -56t-148.5 -17q-75 0 -146 16t-139.5 55t-119.5 97t-82 149t-31 204v934h141v-936q0 -82 23 -152t68 -125.5t118.5 -87t167.5 -31.5q172 0 274.5 106t102.5 296zM594 1561h-154v172h154v-172z
M944 1561h-153v172h153v-172z" />
    <glyph glyph-name="Yacute" unicode="&#xdd;" horiz-adv-x="1251" 
d="M696 0h-141v606l-530 824h163l437 -699l448 699h154l-531 -824v-606zM614 1516h-94l191 294h161z" />
    <glyph glyph-name="Thorn" unicode="&#xde;" horiz-adv-x="1024" 
d="M317 0h-141v1430h141v-267h213q207 0 324 -105t117 -300q0 -98 -36 -176.5t-98.5 -128t-143.5 -75.5t-175 -26h-201v-352zM317 475h127q203 0 294 67t91 216q0 138 -75 210t-203 72h-234v-565z" />
    <glyph glyph-name="germandbls" unicode="&#xdf;" 
d="M418 10l8 121q56 -35 168 -35q140 0 220.5 93.5t80.5 248.5q0 159 -93.5 236.5t-297.5 77.5h-21v110h33q136 0 218.5 87t82.5 227q0 122 -67 198t-179 76q-280 0 -280 -377v-1073h-129v1112q0 207 105 328t304 121q177 0 282 -103t105 -278q0 -139 -73 -234t-201 -123v-4
q169 -13 260.5 -112.5t91.5 -266.5q0 -201 -119.5 -327.5t-322.5 -126.5q-108 0 -176 24z" />
    <glyph glyph-name="agrave" unicode="&#xe0;" horiz-adv-x="1024" 
d="M889 0h-127v168h-4q-40 -87 -133.5 -140t-198.5 -53q-84 0 -148.5 22t-100.5 54t-58.5 74.5t-29.5 76.5t-7 68q0 194 148.5 280.5t455.5 86.5h64v55q0 80 -18.5 135t-53.5 82.5t-74.5 38t-91.5 10.5q-173 0 -307 -86v125q61 30 150 51t157 21q198 0 282.5 -95t84.5 -292
v-530q0 -90 10 -152zM750 449v77h-60q-140 0 -236 -20t-144.5 -57.5t-67.5 -79t-19 -95.5q0 -91 56.5 -139.5t160.5 -48.5q310 0 310 363zM633 1151h-94l-258 295h161z" />
    <glyph glyph-name="aacute" unicode="&#xe1;" horiz-adv-x="1024" 
d="M889 0h-127v168h-4q-40 -87 -133.5 -140t-198.5 -53q-84 0 -148.5 22t-100.5 54t-58.5 74.5t-29.5 76.5t-7 68q0 194 148.5 280.5t455.5 86.5h64v55q0 80 -18.5 135t-53.5 82.5t-74.5 38t-91.5 10.5q-173 0 -307 -86v125q61 30 150 51t157 21q198 0 282.5 -95t84.5 -292
v-530q0 -90 10 -152zM750 449v77h-60q-140 0 -236 -20t-144.5 -57.5t-67.5 -79t-19 -95.5q0 -91 56.5 -139.5t160.5 -48.5q310 0 310 363zM492 1151h-95l191 295h162z" />
    <glyph glyph-name="acircumflex" unicode="&#xe2;" horiz-adv-x="1024" 
d="M889 0h-127v168h-4q-40 -87 -133.5 -140t-198.5 -53q-84 0 -148.5 22t-100.5 54t-58.5 74.5t-29.5 76.5t-7 68q0 194 148.5 280.5t455.5 86.5h64v55q0 80 -18.5 135t-53.5 82.5t-74.5 38t-91.5 10.5q-173 0 -307 -86v125q61 30 150 51t157 21q198 0 282.5 -95t84.5 -292
v-530q0 -90 10 -152zM750 449v77h-60q-140 0 -236 -20t-144.5 -57.5t-67.5 -79t-19 -95.5q0 -91 56.5 -139.5t160.5 -48.5q310 0 310 363zM788 1151h-94l-180 209l-180 -209h-94l190 295h168z" />
    <glyph glyph-name="atilde" unicode="&#xe3;" horiz-adv-x="1024" 
d="M889 0h-127v168h-4q-40 -87 -133.5 -140t-198.5 -53q-84 0 -148.5 22t-100.5 54t-58.5 74.5t-29.5 76.5t-7 68q0 194 148.5 280.5t455.5 86.5h64v55q0 80 -18.5 135t-53.5 82.5t-74.5 38t-91.5 10.5q-173 0 -307 -86v125q61 30 150 51t157 21q198 0 282.5 -95t84.5 -292
v-530q0 -90 10 -152zM750 449v77h-60q-140 0 -236 -20t-144.5 -57.5t-67.5 -79t-19 -95.5q0 -91 56.5 -139.5t160.5 -48.5q310 0 310 363zM711 1389h75q-10 -85 -58 -133t-112 -48q-47 0 -124 26t-99 26q-35 0 -55 -16t-35 -58h-74q20 90 63.5 137t104.5 47q46 0 125 -25.5
t90 -25.5q31 0 61 18.5t38 51.5z" />
    <glyph glyph-name="adieresis" unicode="&#xe4;" horiz-adv-x="1024" 
d="M889 0h-127v168h-4q-40 -87 -133.5 -140t-198.5 -53q-84 0 -148.5 22t-100.5 54t-58.5 74.5t-29.5 76.5t-7 68q0 194 148.5 280.5t455.5 86.5h64v55q0 80 -18.5 135t-53.5 82.5t-74.5 38t-91.5 10.5q-173 0 -307 -86v125q61 30 150 51t157 21q198 0 282.5 -95t84.5 -292
v-530q0 -90 10 -152zM750 449v77h-60q-140 0 -236 -20t-144.5 -57.5t-67.5 -79t-19 -95.5q0 -91 56.5 -139.5t160.5 -48.5q310 0 310 363zM416 1184h-154v172h154v-172zM766 1184h-154v172h154v-172z" />
    <glyph glyph-name="aring" unicode="&#xe5;" horiz-adv-x="1024" 
d="M889 0h-127v168h-4q-40 -87 -133.5 -140t-198.5 -53q-84 0 -148.5 22t-100.5 54t-58.5 74.5t-29.5 76.5t-7 68q0 194 148.5 280.5t455.5 86.5h64v55q0 80 -18.5 135t-53.5 82.5t-74.5 38t-91.5 10.5q-173 0 -307 -86v125q61 30 150 51t157 21q198 0 282.5 -95t84.5 -292
v-530q0 -90 10 -152zM750 449v77h-60q-140 0 -236 -20t-144.5 -57.5t-67.5 -79t-19 -95.5q0 -91 56.5 -139.5t160.5 -48.5q310 0 310 363zM711 1327q0 -83 -56.5 -138.5t-140.5 -55.5q-86 0 -141.5 55.5t-55.5 138.5q0 81 56 138t141 57q84 0 140.5 -57t56.5 -138zM637 1327
q0 49 -35 85t-90 36q-47 0 -84 -34.5t-37 -86.5q0 -51 36 -86t87 -35q54 0 88.5 35t34.5 86z" />
    <glyph glyph-name="ae" unicode="&#xe6;" horiz-adv-x="1705" 
d="M1534 164v-131q-144 -58 -303 -58q-152 0 -253 56t-144 155q-145 -211 -396 -211q-163 0 -253.5 74t-90.5 205q0 78 27 137.5t87 107t168.5 72.5t260.5 25h125v57q0 160 -57 232.5t-181 72.5q-173 0 -307 -86v125q65 31 152.5 51.5t154.5 20.5q134 0 211.5 -45
t122.5 -143q59 88 148 138t190 50q196 0 306 -137t110 -387v-60h-709v-43q0 -177 89 -266.5t247 -89.5q70 0 159 24t136 54zM903 596h567q-2 169 -72 265.5t-194 96.5q-126 0 -212.5 -105.5t-88.5 -256.5zM762 434v51h-96q-430 0 -430 -229q0 -80 65 -125t154 -45
q143 0 225 84.5t82 263.5z" />
    <glyph glyph-name="ccedilla" unicode="&#xe7;" horiz-adv-x="909" 
d="M840 133l12 -121q-107 -37 -272 -37l-31 -86q63 7 67 7q65 0 107.5 -36.5t42.5 -97.5q0 -69 -57 -105t-166 -36q-89 0 -209 45l14 76q39 -25 89.5 -42t92.5 -17q50 0 78.5 19.5t28.5 55.5q0 38 -22.5 57t-57.5 19q-45 0 -84 -8l53 154q-209 20 -325.5 169.5t-116.5 372.5
q0 243 142 395t374 152q133 0 252 -41l-10 -123q-119 53 -226 53q-181 0 -286 -120t-105 -316q0 -120 44.5 -218.5t132 -158t202.5 -59.5q107 0 236 47z" />
    <glyph glyph-name="egrave" unicode="&#xe8;" horiz-adv-x="1024" 
d="M862 164v-131q-144 -58 -305 -58q-230 0 -351.5 139.5t-121.5 407.5q0 239 121.5 393t318.5 154t306.5 -137t109.5 -391v-56h-715q1 -185 95.5 -292t248.5 -107q68 0 157 24t136 54zM225 596h574q-1 171 -72.5 266.5t-196.5 95.5q-124 0 -213 -104t-92 -258zM631 1151
h-94l-258 295h161z" />
    <glyph glyph-name="eacute" unicode="&#xe9;" horiz-adv-x="1024" 
d="M862 164v-131q-144 -58 -305 -58q-230 0 -351.5 139.5t-121.5 407.5q0 239 121.5 393t318.5 154t306.5 -137t109.5 -391v-56h-715q1 -185 95.5 -292t248.5 -107q68 0 157 24t136 54zM225 596h574q-1 171 -72.5 266.5t-196.5 95.5q-124 0 -213 -104t-92 -258zM494 1151
h-95l191 295h162z" />
    <glyph glyph-name="ecircumflex" unicode="&#xea;" horiz-adv-x="1024" 
d="M862 164v-131q-144 -58 -305 -58q-230 0 -351.5 139.5t-121.5 407.5q0 239 121.5 393t318.5 154t306.5 -137t109.5 -391v-56h-715q1 -185 95.5 -292t248.5 -107q68 0 157 24t136 54zM225 596h574q-1 171 -72.5 266.5t-196.5 95.5q-124 0 -213 -104t-92 -258zM791 1151
h-95l-180 209l-180 -209h-94l190 295h168z" />
    <glyph glyph-name="edieresis" unicode="&#xeb;" horiz-adv-x="1024" 
d="M862 164v-131q-144 -58 -305 -58q-230 0 -351.5 139.5t-121.5 407.5q0 239 121.5 393t318.5 154t306.5 -137t109.5 -391v-56h-715q1 -185 95.5 -292t248.5 -107q68 0 157 24t136 54zM225 596h574q-1 171 -72.5 266.5t-196.5 95.5q-124 0 -213 -104t-92 -258zM418 1184
h-154v172h154v-172zM768 1184h-154v172h154v-172z" />
    <glyph glyph-name="igrave" unicode="&#xec;" horiz-adv-x="454" 
d="M291 0h-129v1044h129v-1044zM344 1151h-94l-258 295h162z" />
    <glyph glyph-name="iacute" unicode="&#xed;" horiz-adv-x="454" 
d="M291 0h-129v1044h129v-1044zM203 1151h-94l190 295h162z" />
    <glyph glyph-name="icircumflex" unicode="&#xee;" horiz-adv-x="454" 
d="M291 0h-129v1044h129v-1044zM502 1151h-94l-181 209l-180 -209h-94l190 295h168z" />
    <glyph glyph-name="idieresis" unicode="&#xef;" horiz-adv-x="454" 
d="M291 0h-129v1044h129v-1044zM129 1184h-154v172h154v-172zM479 1184h-153v172h153v-172z" />
    <glyph glyph-name="eth" unicode="&#xf0;" 
d="M891 907h4q-55 236 -240 385l-221 -137l-61 86l186 117q-123 73 -276 104l24 99q216 -29 373 -129l219 135l62 -86l-191 -117q287 -250 287 -758q0 -313 -123 -472t-365 -159q-119 0 -213.5 43.5t-153.5 119t-89.5 173.5t-30.5 211q0 242 129 394.5t356 152.5
q193 0 324 -162zM569 86q108 0 187 57.5t119 155.5t40 223q0 194 -93 315t-255 121q-155 0 -249.5 -119.5t-94.5 -316.5q0 -189 91.5 -312.5t254.5 -123.5z" />
    <glyph glyph-name="ntilde" unicode="&#xf1;" 
d="M977 0h-129v637q0 321 -248 321q-84 0 -147 -34.5t-96.5 -91.5t-49.5 -120t-16 -132v-580h-129v866q0 88 -8 178h125v-186h4q48 110 131.5 160.5t206.5 50.5q183 0 269.5 -108.5t86.5 -292.5v-668zM772 1389h76q-10 -85 -58 -133t-112 -48q-47 0 -124 26t-99 26
q-35 0 -55 -16t-35 -58h-74q20 90 63.5 137t104.5 47q46 0 125 -25.5t90 -25.5q31 0 60.5 18.5t37.5 51.5z" />
    <glyph glyph-name="ograve" unicode="&#xf2;" 
d="M569 -25q-119 0 -213 43t-153 118.5t-90 173.5t-31 212q0 156 54 278t166 195.5t267 73.5q118 0 212 -42.5t154 -117.5t91 -173.5t31 -213.5q0 -113 -30.5 -211t-89.5 -173.5t-154 -119t-214 -43.5zM569 86q162 0 254 122.5t92 313.5q0 189 -92 312.5t-256 123.5
q-155 0 -249.5 -119.5t-94.5 -316.5q0 -125 40 -223t119 -155.5t187 -57.5zM694 1151h-94l-258 295h162z" />
    <glyph glyph-name="oacute" unicode="&#xf3;" 
d="M569 -25q-119 0 -213 43t-153 118.5t-90 173.5t-31 212q0 156 54 278t166 195.5t267 73.5q118 0 212 -42.5t154 -117.5t91 -173.5t31 -213.5q0 -113 -30.5 -211t-89.5 -173.5t-154 -119t-214 -43.5zM569 86q162 0 254 122.5t92 313.5q0 189 -92 312.5t-256 123.5
q-155 0 -249.5 -119.5t-94.5 -316.5q0 -125 40 -223t119 -155.5t187 -57.5zM557 1151h-94l190 295h162z" />
    <glyph glyph-name="ocircumflex" unicode="&#xf4;" 
d="M569 -25q-119 0 -213 43t-153 118.5t-90 173.5t-31 212q0 156 54 278t166 195.5t267 73.5q118 0 212 -42.5t154 -117.5t91 -173.5t31 -213.5q0 -113 -30.5 -211t-89.5 -173.5t-154 -119t-214 -43.5zM569 86q162 0 254 122.5t92 313.5q0 189 -92 312.5t-256 123.5
q-155 0 -249.5 -119.5t-94.5 -316.5q0 -125 40 -223t119 -155.5t187 -57.5zM850 1151h-94l-181 209l-180 -209h-94l191 295h167z" />
    <glyph glyph-name="otilde" unicode="&#xf5;" 
d="M569 -25q-119 0 -213 43t-153 118.5t-90 173.5t-31 212q0 156 54 278t166 195.5t267 73.5q118 0 212 -42.5t154 -117.5t91 -173.5t31 -213.5q0 -113 -30.5 -211t-89.5 -173.5t-154 -119t-214 -43.5zM569 86q162 0 254 122.5t92 313.5q0 189 -92 312.5t-256 123.5
q-155 0 -249.5 -119.5t-94.5 -316.5q0 -125 40 -223t119 -155.5t187 -57.5zM774 1389h76q-10 -85 -58 -133t-112 -48q-47 0 -124 26t-99 26q-35 0 -55 -16t-35 -58h-74q20 90 63.5 137t104.5 47q46 0 125 -25.5t90 -25.5q31 0 60.5 18.5t37.5 51.5z" />
    <glyph glyph-name="odieresis" unicode="&#xf6;" 
d="M569 -25q-119 0 -213 43t-153 118.5t-90 173.5t-31 212q0 156 54 278t166 195.5t267 73.5q118 0 212 -42.5t154 -117.5t91 -173.5t31 -213.5q0 -113 -30.5 -211t-89.5 -173.5t-154 -119t-214 -43.5zM569 86q162 0 254 122.5t92 313.5q0 189 -92 312.5t-256 123.5
q-155 0 -249.5 -119.5t-94.5 -316.5q0 -125 40 -223t119 -155.5t187 -57.5zM479 1184h-153v172h153v-172zM829 1184h-153v172h153v-172z" />
    <glyph glyph-name="divide" unicode="&#xf7;" horiz-adv-x="1228" 
d="M614 791q-53 0 -92 39.5t-39 91.5q0 54 38.5 92.5t92.5 38.5q53 0 92 -38.5t39 -92.5q0 -50 -39.5 -90.5t-91.5 -40.5zM1133 449h-1039v141h1039v-141zM614 -14q-53 0 -92 39.5t-39 91.5q0 54 39 92.5t92 38.5q52 0 91.5 -39t39.5 -92q0 -49 -39 -90t-92 -41z" />
    <glyph glyph-name="oslash" unicode="&#xf8;" 
d="M111 -82l-72 59l154 177q-111 146 -111 368q0 154 52.5 275.5t164.5 196.5t270 75q202 0 320 -115l139 162l72 -59l-150 -172q107 -139 107 -363q0 -116 -31.5 -214.5t-91.5 -173t-153.5 -117t-211.5 -42.5q-190 0 -315 109zM285 260l520 598q-94 100 -238 100
q-157 0 -250.5 -121t-93.5 -315q0 -150 62 -262zM858 778l-518 -596q89 -96 229 -96q108 0 187 57.5t119 155.5t40 223q0 151 -57 256z" />
    <glyph glyph-name="ugrave" unicode="&#xf9;" 
d="M985 0h-125v186h-4q-49 -109 -132 -160t-206 -51q-181 0 -268.5 107.5t-87.5 290.5v671h129v-638q0 -48 5.5 -89.5t22 -85.5t43.5 -74.5t72 -50.5t105 -20q69 0 124 24t89 62t56 89t31 100t9 100v583h129v-872q0 -98 8 -172zM688 1151h-94l-258 295h162z" />
    <glyph glyph-name="uacute" unicode="&#xfa;" 
d="M985 0h-125v186h-4q-49 -109 -132 -160t-206 -51q-181 0 -268.5 107.5t-87.5 290.5v671h129v-638q0 -48 5.5 -89.5t22 -85.5t43.5 -74.5t72 -50.5t105 -20q69 0 124 24t89 62t56 89t31 100t9 100v583h129v-872q0 -98 8 -172zM551 1151h-94l190 295h162z" />
    <glyph glyph-name="ucircumflex" unicode="&#xfb;" 
d="M985 0h-125v186h-4q-49 -109 -132 -160t-206 -51q-181 0 -268.5 107.5t-87.5 290.5v671h129v-638q0 -48 5.5 -89.5t22 -85.5t43.5 -74.5t72 -50.5t105 -20q69 0 124 24t89 62t56 89t31 100t9 100v583h129v-872q0 -98 8 -172zM846 1151h-94l-181 209l-180 -209h-94
l190 295h168z" />
    <glyph glyph-name="udieresis" unicode="&#xfc;" 
d="M985 0h-125v186h-4q-49 -109 -132 -160t-206 -51q-181 0 -268.5 107.5t-87.5 290.5v671h129v-638q0 -48 5.5 -89.5t22 -85.5t43.5 -74.5t72 -50.5t105 -20q69 0 124 24t89 62t56 89t31 100t9 100v583h129v-872q0 -98 8 -172zM475 1184h-153v172h153v-172zM825 1184h-153
v172h153v-172z" />
    <glyph glyph-name="yacute" unicode="&#xfd;" horiz-adv-x="909" 
d="M66 -426l12 111q49 -17 100 -17q29 0 52 8.5t41.5 29t31.5 39.5t26.5 54.5t20.5 57.5t20 66.5t19 64.5l-371 1056h142l293 -870h2l301 870h135l-420 -1206q-53 -152 -117.5 -216t-150.5 -64q-68 0 -137 16zM438 1151h-94l191 295h161z" />
    <glyph glyph-name="thorn" unicode="&#xfe;" 
d="M279 -430h-129v1966h129v-682h4q93 215 325 215q213 0 321.5 -143t108.5 -404q0 -248 -113.5 -397.5t-316.5 -149.5q-122 0 -199.5 52t-125.5 163h-4v-620zM588 86q149 0 229 113t80 323q0 207 -79.5 321.5t-229.5 114.5q-79 0 -140 -38t-97 -102t-54 -139t-18 -157
q0 -85 19 -161.5t56 -139t97.5 -99t136.5 -36.5z" />
    <glyph glyph-name="ydieresis" unicode="&#xff;" horiz-adv-x="909" 
d="M66 -426l12 111q49 -17 100 -17q29 0 52 8.5t41.5 29t31.5 39.5t26.5 54.5t20.5 57.5t20 66.5t19 64.5l-371 1056h142l293 -870h2l301 870h135l-420 -1206q-53 -152 -117.5 -216t-150.5 -64q-68 0 -137 16zM360 1184h-153v172h153v-172zM711 1184h-154v172h154v-172z" />
    <glyph glyph-name="Amacron" unicode="&#x100;" horiz-adv-x="1366" 
d="M1339 0h-147l-154 383h-721l-153 -383h-137l585 1430h160zM991 506l-309 788l-311 -788h620zM944 1604h-500v110h500v-110z" />
    <glyph glyph-name="amacron" unicode="&#x101;" horiz-adv-x="1024" 
d="M889 0h-127v168h-4q-40 -87 -133.5 -140t-198.5 -53q-84 0 -148.5 22t-100.5 54t-58.5 74.5t-29.5 76.5t-7 68q0 194 148.5 280.5t455.5 86.5h64v55q0 80 -18.5 135t-53.5 82.5t-74.5 38t-91.5 10.5q-173 0 -307 -86v125q61 30 150 51t157 21q198 0 282.5 -95t84.5 -292
v-530q0 -90 10 -152zM750 449v77h-60q-140 0 -236 -20t-144.5 -57.5t-67.5 -79t-19 -95.5q0 -91 56.5 -139.5t160.5 -48.5q310 0 310 363zM760 1243h-500v111h500v-111z" />
    <glyph glyph-name="Abreve" unicode="&#x102;" horiz-adv-x="1366" 
d="M1339 0h-147l-154 383h-721l-153 -383h-137l585 1430h160zM991 506l-309 788l-311 -788h620zM879 1753h61q-12 -99 -76 -168t-176 -69q-109 0 -174 69t-78 168h62q18 -58 69.5 -86.5t116.5 -28.5q158 0 195 115z" />
    <glyph glyph-name="abreve" unicode="&#x103;" horiz-adv-x="1024" 
d="M889 0h-127v168h-4q-40 -87 -133.5 -140t-198.5 -53q-84 0 -148.5 22t-100.5 54t-58.5 74.5t-29.5 76.5t-7 68q0 194 148.5 280.5t455.5 86.5h64v55q0 80 -18.5 135t-53.5 82.5t-74.5 38t-91.5 10.5q-173 0 -307 -86v125q61 30 150 51t157 21q198 0 282.5 -95t84.5 -292
v-530q0 -90 10 -152zM750 449v77h-60q-140 0 -236 -20t-144.5 -57.5t-67.5 -79t-19 -95.5q0 -91 56.5 -139.5t160.5 -48.5q310 0 310 363zM696 1389h62q-15 -111 -83 -174.5t-169 -63.5t-169 64t-83 174h61q15 -55 65 -85t126 -30q75 0 125 30t65 85z" />
    <glyph glyph-name="Aogonek" unicode="&#x104;" horiz-adv-x="1366" 
d="M1307 -281l28 -16q-22 -42 -77.5 -77.5t-135.5 -35.5t-125 38t-45 93q0 64 58.5 135.5t171.5 133.5l18 10h-8l-154 383h-721l-153 -383h-137l585 1430h160l567 -1430h-82q-176 -134 -176 -252q0 -41 27 -62.5t66 -21.5q70 0 133 55zM991 506l-309 788l-311 -788h620z" />
    <glyph glyph-name="aogonek" unicode="&#x105;" horiz-adv-x="1024" 
d="M874 -281l29 -16q-17 -35 -72 -74t-139 -39q-90 0 -131 41.5t-41 89.5q0 139 248 279h-6v168h-4q-27 -56 -72.5 -97t-95.5 -60t-90 -27.5t-74 -8.5q-92 0 -161 26.5t-107.5 71t-57 94t-18.5 103.5q0 194 148.5 280.5t455.5 86.5h64v55q0 80 -18.5 135t-53.5 82.5
t-74.5 38t-91.5 10.5q-173 0 -307 -86v125q61 30 150 51t157 21q198 0 282.5 -95t84.5 -292v-518q0 -82 10 -164h-64q-61 -47 -100 -90t-54 -76.5t-18.5 -51t-3.5 -38.5q0 -38 27 -59t72 -21q65 0 126 55zM750 449v77h-60q-140 0 -236 -20t-144.5 -57.5t-67.5 -79t-19 -95.5
q0 -91 56.5 -139.5t160.5 -48.5q310 0 310 363z" />
    <glyph glyph-name="Cacute" unicode="&#x106;" horiz-adv-x="1366" 
d="M1157 160l8 -123q-46 -28 -138 -45t-189 -17q-332 0 -526.5 200.5t-194.5 541.5q0 329 197.5 533t523.5 204q87 0 184 -14t143 -39l-8 -131q-116 61 -319 61q-179 0 -311.5 -79t-200.5 -217.5t-68 -317.5q0 -284 153.5 -451.5t426.5 -167.5q216 0 319 62zM788 1516h-94
l191 294h162z" />
    <glyph glyph-name="cacute" unicode="&#x107;" horiz-adv-x="909" 
d="M840 133l12 -121q-105 -37 -266 -37q-100 0 -183.5 29.5t-141.5 80.5t-98.5 120.5t-59.5 149.5t-19 167q0 246 144.5 396.5t371.5 150.5q128 0 252 -41l-10 -123q-122 53 -226 53q-183 0 -287 -121t-104 -315q0 -117 43.5 -214.5t131 -159.5t204.5 -62q106 0 236 47z
M553 1151h-94l190 295h162z" />
    <glyph glyph-name="Ccircumflex" unicode="&#x108;" horiz-adv-x="1366" 
d="M1157 160l8 -123q-46 -28 -138 -45t-189 -17q-332 0 -526.5 200.5t-194.5 541.5q0 329 197.5 533t523.5 204q87 0 184 -14t143 -39l-8 -131q-116 61 -319 61q-179 0 -311.5 -79t-200.5 -217.5t-68 -317.5q0 -284 153.5 -451.5t426.5 -167.5q216 0 319 62zM1071 1516h-94
l-180 208l-181 -208h-94l191 294h168z" />
    <glyph glyph-name="ccircumflex" unicode="&#x109;" horiz-adv-x="909" 
d="M840 133l12 -121q-105 -37 -266 -37q-100 0 -183.5 29.5t-141.5 80.5t-98.5 120.5t-59.5 149.5t-19 167q0 246 144.5 396.5t371.5 150.5q128 0 252 -41l-10 -123q-122 53 -226 53q-183 0 -287 -121t-104 -315q0 -117 43.5 -214.5t131 -159.5t204.5 -62q106 0 236 47z
M836 1151h-95l-180 209l-180 -209h-94l190 295h168z" />
    <glyph glyph-name="Cdotaccent" unicode="&#x10a;" horiz-adv-x="1366" 
d="M1157 160l8 -123q-46 -28 -138 -45t-189 -17q-332 0 -526.5 200.5t-194.5 541.5q0 329 197.5 533t523.5 204q87 0 184 -14t143 -39l-8 -131q-116 61 -319 61q-179 0 -311.5 -79t-200.5 -217.5t-68 -317.5q0 -284 153.5 -451.5t426.5 -167.5q216 0 319 62zM874 1561h-153
v172h153v-172z" />
    <glyph glyph-name="cdotaccent" unicode="&#x10b;" horiz-adv-x="909" 
d="M840 133l12 -121q-105 -37 -266 -37q-100 0 -183.5 29.5t-141.5 80.5t-98.5 120.5t-59.5 149.5t-19 167q0 246 144.5 396.5t371.5 150.5q128 0 252 -41l-10 -123q-122 53 -226 53q-183 0 -287 -121t-104 -315q0 -117 43.5 -214.5t131 -159.5t204.5 -62q106 0 236 47z
M639 1196h-154v172h154v-172z" />
    <glyph glyph-name="Ccaron" unicode="&#x10c;" horiz-adv-x="1366" 
d="M1157 160l8 -123q-46 -28 -138 -45t-189 -17q-332 0 -526.5 200.5t-194.5 541.5q0 329 197.5 533t523.5 204q87 0 184 -14t143 -39l-8 -131q-116 61 -319 61q-179 0 -311.5 -79t-200.5 -217.5t-68 -317.5q0 -284 153.5 -451.5t426.5 -167.5q216 0 319 62zM881 1516h-168
l-191 294h94l181 -208l180 208h94z" />
    <glyph glyph-name="ccaron" unicode="&#x10d;" horiz-adv-x="909" 
d="M840 133l12 -121q-105 -37 -266 -37q-100 0 -183.5 29.5t-141.5 80.5t-98.5 120.5t-59.5 149.5t-19 167q0 246 144.5 396.5t371.5 150.5q128 0 252 -41l-10 -123q-122 53 -226 53q-183 0 -287 -121t-104 -315q0 -117 43.5 -214.5t131 -159.5t204.5 -62q106 0 236 47z
M645 1151h-168l-190 295h94l180 -209l180 209h95z" />
    <glyph glyph-name="Dcaron" unicode="&#x10e;" horiz-adv-x="1366" 
d="M414 0h-250v1430h358q342 0 526.5 -180.5t184.5 -532.5q0 -345 -206 -531t-613 -186zM305 123h117q670 0 670 602q0 289 -149.5 435.5t-430.5 146.5h-207v-1184zM657 1516h-168l-190 294h94l180 -208l181 208h94z" />
    <glyph glyph-name="dcaron" unicode="&#x10f;" horiz-adv-x="1236" 
d="M989 0h-129v166h-4q-53 -100 -132.5 -145.5t-193.5 -45.5q-203 0 -316.5 149.5t-113.5 397.5q0 265 110.5 406t317.5 141q122 0 208 -61t120 -140h4v668h129v-1536zM551 86q64 0 116.5 26t88 68.5t59.5 99.5t34.5 117.5t10.5 124.5q0 78 -17 151.5t-52 139t-97.5 105.5
t-144.5 40q-147 0 -227 -113.5t-80 -322.5q0 -196 76 -316t233 -120zM1206 1116h-92l37 336h125z" />
    <glyph glyph-name="Dcroat" unicode="&#x110;" horiz-adv-x="1366" 
d="M414 0h-250v674h-141v123h141v633h358q342 0 526.5 -180.5t184.5 -532.5q0 -345 -206 -531t-613 -186zM305 123h117q670 0 670 602q0 289 -149.5 435.5t-430.5 146.5h-207v-510h436v-123h-436v-551z" />
    <glyph glyph-name="dcroat" unicode="&#x111;" horiz-adv-x="1155" 
d="M989 0h-129v166h-4q-53 -100 -132.5 -145.5t-193.5 -45.5q-203 0 -316.5 149.5t-113.5 397.5q0 265 110.5 406t317.5 141q122 0 208 -61t120 -140h4v385h-340v95h340v188h129v-188h150v-95h-150v-1253zM551 86q64 0 116.5 26t88 68.5t59.5 99.5t34.5 117.5t10.5 124.5
q0 78 -17 151.5t-52 139t-97.5 105.5t-144.5 40q-147 0 -227 -113.5t-80 -322.5q0 -196 76 -316t233 -120z" />
    <glyph glyph-name="Emacron" unicode="&#x112;" horiz-adv-x="1024" 
d="M901 0h-725v1430h701v-123h-560v-510h531v-123h-531v-551h584v-123zM782 1604h-499v110h499v-110z" />
    <glyph glyph-name="emacron" unicode="&#x113;" horiz-adv-x="1024" 
d="M862 164v-131q-144 -58 -305 -58q-230 0 -351.5 139.5t-121.5 407.5q0 239 121.5 393t318.5 154t306.5 -137t109.5 -391v-56h-715q1 -185 95.5 -292t248.5 -107q68 0 157 24t136 54zM225 596h574q-1 171 -72.5 266.5t-196.5 95.5q-124 0 -213 -104t-92 -258zM778 1243
h-499v111h499v-111z" />
    <glyph glyph-name="Ebreve" unicode="&#x114;" horiz-adv-x="1024" 
d="M901 0h-725v1430h701v-123h-560v-510h531v-123h-531v-551h584v-123zM723 1753h61q-12 -99 -76 -168t-176 -69q-109 0 -173.5 69t-77.5 168h61q18 -58 69.5 -86.5t116.5 -28.5q158 0 195 115z" />
    <glyph glyph-name="ebreve" unicode="&#x115;" horiz-adv-x="1024" 
d="M862 164v-131q-144 -58 -305 -58q-230 0 -351.5 139.5t-121.5 407.5q0 239 121.5 393t318.5 154t306.5 -137t109.5 -391v-56h-715q1 -185 95.5 -292t248.5 -107q68 0 157 24t136 54zM225 596h574q-1 171 -72.5 266.5t-196.5 95.5q-124 0 -213 -104t-92 -258zM702 1389h62
q-15 -111 -83 -174.5t-169 -63.5t-169 64t-83 174h62q15 -55 65 -85t125 -30t125 30t65 85z" />
    <glyph glyph-name="Edotaccent" unicode="&#x116;" horiz-adv-x="1024" 
d="M901 0h-725v1430h701v-123h-560v-510h531v-123h-531v-551h584v-123zM604 1561h-153v172h153v-172z" />
    <glyph glyph-name="edotaccent" unicode="&#x117;" horiz-adv-x="1024" 
d="M862 164v-131q-144 -58 -305 -58q-230 0 -351.5 139.5t-121.5 407.5q0 239 121.5 393t318.5 154t306.5 -137t109.5 -391v-56h-715q1 -185 95.5 -292t248.5 -107q68 0 157 24t136 54zM225 596h574q-1 171 -72.5 266.5t-196.5 95.5q-124 0 -213 -104t-92 -258zM608 1196
h-153v172h153v-172z" />
    <glyph glyph-name="Eogonek" unicode="&#x118;" horiz-adv-x="1024" 
d="M854 -281l29 -16q-7 -14 -21 -30.5t-38.5 -36.5t-65 -33t-88.5 -13q-78 0 -124 37t-46 94q0 141 248 279h-572v1430h701v-123h-560v-510h531v-123h-531v-551h584v-123h-96q-98 -77 -137 -137.5t-39 -116.5q0 -39 27 -60.5t65 -21.5q73 0 133 55z" />
    <glyph glyph-name="eogonek" unicode="&#x119;" horiz-adv-x="1024" 
d="M694 -281l29 -16q-11 -21 -32 -43.5t-70.5 -46t-110.5 -23.5q-78 0 -124 37t-46 94q0 124 203 254q-81 2 -149 22.5t-114.5 53t-82 77.5t-56.5 91.5t-34.5 100.5t-18 99t-4.5 91q0 159 49.5 284t151 200t239.5 75q201 0 308.5 -137.5t107.5 -388.5v-58h-715
q0 -79 20.5 -148.5t60.5 -126.5t108 -90.5t155 -33.5q77 0 162 26t131 52v-131q-107 -43 -246 -53q-147 -120 -147 -234q0 -39 26 -60.5t64 -21.5q72 0 135 55zM225 596h574q-1 45 -6 86.5t-22.5 94t-45.5 90.5t-79 64.5t-118 26.5q-88 0 -158.5 -54.5t-107 -136
t-37.5 -171.5z" />
    <glyph glyph-name="Ecaron" unicode="&#x11a;" horiz-adv-x="1024" 
d="M901 0h-725v1430h701v-123h-560v-510h531v-123h-531v-551h584v-123zM616 1516h-167l-191 294h94l180 -208l181 208h94z" />
    <glyph glyph-name="ecaron" unicode="&#x11b;" horiz-adv-x="1024" 
d="M862 164v-131q-144 -58 -305 -58q-230 0 -351.5 139.5t-121.5 407.5q0 239 121.5 393t318.5 154t306.5 -137t109.5 -391v-56h-715q1 -185 95.5 -292t248.5 -107q68 0 157 24t136 54zM225 596h574q-1 171 -72.5 266.5t-196.5 95.5q-124 0 -213 -104t-92 -258zM604 1151
h-168l-190 295h94l180 -209l180 209h95z" />
    <glyph glyph-name="Gcircumflex" unicode="&#x11c;" horiz-adv-x="1478" 
d="M1155 150v501h-332v123h473v-711q-200 -88 -442 -88q-336 0 -529.5 201.5t-193.5 538.5q0 215 86.5 382t251 262t383.5 95q108 0 217 -19t166 -49l-16 -131q-140 76 -365 76q-138 0 -249.5 -47t-183.5 -130t-110.5 -195t-38.5 -244q0 -180 64.5 -317.5t197 -218.5
t318.5 -81q215 0 303 52zM1094 1516h-95l-180 208l-180 -208h-94l190 294h168z" />
    <glyph glyph-name="gcircumflex" unicode="&#x11d;" 
d="M862 172v33h-4q-92 -205 -317 -205q-92 0 -167.5 30.5t-125.5 80.5t-84 118.5t-49 141.5t-15 151q0 265 110 406t320 141q117 0 188.5 -28t137.5 -115h4v118h129v-962q0 -248 -125 -386t-364 -138q-145 0 -316 55l11 129q145 -74 307 -74q107 0 178.5 32.5t111 100
t55 155.5t15.5 216zM543 111q66 0 120.5 24t90.5 64t60.5 94t35 111.5t10.5 119.5q0 220 -76.5 327t-234.5 107q-152 0 -229.5 -117t-77.5 -319q0 -84 18 -156.5t53 -130t94 -91t136 -33.5zM844 1151h-94l-181 209l-180 -209h-94l190 295h168z" />
    <glyph glyph-name="Gbreve" unicode="&#x11e;" horiz-adv-x="1478" 
d="M1155 150v501h-332v123h473v-711q-200 -88 -442 -88q-336 0 -529.5 201.5t-193.5 538.5q0 215 86.5 382t251 262t383.5 95q108 0 217 -19t166 -49l-16 -131q-140 76 -365 76q-138 0 -249.5 -47t-183.5 -130t-110.5 -195t-38.5 -244q0 -180 64.5 -317.5t197 -218.5
t318.5 -81q215 0 303 52zM1010 1753h61q-12 -99 -76 -168t-176 -69q-109 0 -174 69t-78 168h62q18 -58 69.5 -86.5t116.5 -28.5q158 0 195 115z" />
    <glyph glyph-name="gbreve" unicode="&#x11f;" 
d="M862 172v33h-4q-92 -205 -317 -205q-92 0 -167.5 30.5t-125.5 80.5t-84 118.5t-49 141.5t-15 151q0 265 110 406t320 141q117 0 188.5 -28t137.5 -115h4v118h129v-962q0 -248 -125 -386t-364 -138q-145 0 -316 55l11 129q145 -74 307 -74q107 0 178.5 32.5t111 100
t55 155.5t15.5 216zM543 111q66 0 120.5 24t90.5 64t60.5 94t35 111.5t10.5 119.5q0 220 -76.5 327t-234.5 107q-152 0 -229.5 -117t-77.5 -319q0 -84 18 -156.5t53 -130t94 -91t136 -33.5zM752 1389h61q-15 -111 -83 -174.5t-169 -63.5t-169 64t-83 174h62q15 -55 65 -85
t125 -30q76 0 126 30t65 85z" />
    <glyph glyph-name="Gdotaccent" unicode="&#x120;" horiz-adv-x="1478" 
d="M1155 150v501h-332v123h473v-711q-200 -88 -442 -88q-336 0 -529.5 201.5t-193.5 538.5q0 215 86.5 382t251 262t383.5 95q108 0 217 -19t166 -49l-16 -131q-140 76 -365 76q-138 0 -249.5 -47t-183.5 -130t-110.5 -195t-38.5 -244q0 -180 64.5 -317.5t197 -218.5
t318.5 -81q215 0 303 52zM897 1561h-154v172h154v-172z" />
    <glyph glyph-name="gdotaccent" unicode="&#x121;" 
d="M862 172v33h-4q-92 -205 -317 -205q-92 0 -167.5 30.5t-125.5 80.5t-84 118.5t-49 141.5t-15 151q0 265 110 406t320 141q117 0 188.5 -28t137.5 -115h4v118h129v-962q0 -248 -125 -386t-364 -138q-145 0 -316 55l11 129q145 -74 307 -74q107 0 178.5 32.5t111 100
t55 155.5t15.5 216zM543 111q66 0 120.5 24t90.5 64t60.5 94t35 111.5t10.5 119.5q0 220 -76.5 327t-234.5 107q-152 0 -229.5 -117t-77.5 -319q0 -84 18 -156.5t53 -130t94 -91t136 -33.5zM639 1196h-154v172h154v-172z" />
    <glyph glyph-name="Gcommaaccent" unicode="&#x122;" horiz-adv-x="1478" 
d="M1155 150v501h-332v123h473v-711q-200 -88 -442 -88q-336 0 -529.5 201.5t-193.5 538.5q0 215 86.5 382t251 262t383.5 95q108 0 217 -19t166 -49l-16 -131q-140 76 -365 76q-138 0 -249.5 -47t-183.5 -130t-110.5 -195t-38.5 -244q0 -180 64.5 -317.5t197 -218.5
t318.5 -81q215 0 303 52zM801 -444h-117l78 294h151z" />
    <glyph glyph-name="gcommaaccent" unicode="&#x123;" 
d="M862 172v33h-4q-92 -205 -317 -205q-92 0 -167.5 30.5t-125.5 80.5t-84 118.5t-49 141.5t-15 151q0 265 110 406t320 141q117 0 188.5 -28t137.5 -115h4v118h129v-962q0 -248 -125 -386t-364 -138q-145 0 -316 55l11 129q145 -74 307 -74q107 0 178.5 32.5t111 100
t55 155.5t15.5 216zM543 111q66 0 120.5 24t90.5 64t60.5 94t35 111.5t10.5 119.5q0 220 -76.5 327t-234.5 107q-152 0 -229.5 -117t-77.5 -319q0 -84 18 -156.5t53 -130t94 -91t136 -33.5zM625 1171h-146l113 295h110z" />
    <glyph glyph-name="Hcircumflex" unicode="&#x124;" horiz-adv-x="1366" 
d="M1184 0h-142v674h-723v-674h-141v1430h141v-633h723v633h142v-1430zM950 1516h-94l-180 208l-180 -208h-95l191 294h168z" />
    <glyph glyph-name="hcircumflex" unicode="&#x125;" 
d="M977 0h-129v633q0 172 -59.5 248.5t-188.5 76.5q-78 0 -139 -33.5t-97 -90.5t-54.5 -127.5t-18.5 -149.5v-557h-129v1536h129v-668h4q47 95 133 148t195 53q183 0 268.5 -108.5t85.5 -327.5v-633zM842 1604h-94l-181 208l-180 -208h-94l190 294h168z" />
    <glyph glyph-name="Hbar" unicode="&#x126;" horiz-adv-x="1366" 
d="M1186 0h-142v623h-722v-623h-142v963h-160v104h160v363h142v-363h722v363h142v-363h160v-104h-160v-963zM1044 741v222h-722v-222h722z" />
    <glyph glyph-name="hbar" unicode="&#x127;" 
d="M977 0h-129v633q0 172 -59.5 248.5t-188.5 76.5q-78 0 -139 -33.5t-97 -90.5t-54.5 -127.5t-18.5 -149.5v-557h-129v1253h-150v95h150v188h129v-188h350v-95h-350v-385h4q47 95 133 148t195 53q185 0 269.5 -105.5t84.5 -330.5v-633z" />
    <glyph glyph-name="Itilde" unicode="&#x128;" horiz-adv-x="454" 
d="M299 0h-141v1430h141v-1430zM426 1741h76q-10 -85 -58 -132.5t-112 -47.5q-47 0 -124 25.5t-99 25.5q-35 0 -55.5 -16t-35.5 -58h-73q20 90 63.5 137t104.5 47q46 0 125 -25.5t90 -25.5q31 0 60.5 18.5t37.5 51.5z" />
    <glyph glyph-name="itilde" unicode="&#x129;" horiz-adv-x="454" 
d="M291 0h-129v1044h129v-1044zM430 1401h76q-10 -85 -58 -132.5t-112 -47.5q-47 0 -124 25.5t-99 25.5q-35 0 -55 -16t-35 -58h-74q20 90 63.5 137t104.5 47q46 0 125 -25.5t90 -25.5q31 0 60.5 18.5t37.5 51.5z" />
    <glyph glyph-name="Imacron" unicode="&#x12a;" horiz-adv-x="454" 
d="M299 0h-141v1430h141v-1430zM479 1604h-499v110h499v-110z" />
    <glyph glyph-name="imacron" unicode="&#x12b;" horiz-adv-x="454" 
d="M291 0h-129v1044h129v-1044zM479 1243h-499v111h499v-111z" />
    <glyph glyph-name="Iogonek" unicode="&#x12e;" horiz-adv-x="454" 
d="M348 -281l29 -16q-24 -43 -79 -78t-138 -35q-79 0 -122.5 38.5t-43.5 92.5q0 138 248 279h-84v1430h141v-1430q-176 -133 -176 -254q0 -39 27 -60.5t65 -21.5q73 0 133 55z" />
    <glyph glyph-name="iogonek" unicode="&#x12f;" horiz-adv-x="454" 
d="M291 1323h-129v172h129v-172zM340 -281l29 -16q-7 -14 -21 -30.5t-38.5 -36.5t-65 -33t-88.5 -13q-82 0 -126 38t-44 93q0 43 23.5 86t63.5 79t78.5 63t81.5 51h-71v1044h129v-1044q-107 -82 -141.5 -142t-34.5 -112q0 -39 27 -60.5t65 -21.5q70 0 133 55z" />
    <glyph glyph-name="Idotaccent" unicode="&#x130;" horiz-adv-x="454" 
d="M299 0h-141v1430h141v-1430zM305 1561h-153v172h153v-172z" />
    <glyph glyph-name="dotlessi" unicode="&#x131;" horiz-adv-x="454" 
d="M291 0h-129v1044h129v-1044z" />
    <glyph glyph-name="IJ" unicode="&#x132;" horiz-adv-x="1085" 
d="M299 0h-141v1430h141v-1430zM432 0v125q56 -27 133 -27q103 0 156 69.5t53 194.5v1068h141v-1061q0 -184 -86 -289t-249 -105q-81 0 -148 25z" />
    <glyph glyph-name="ij" unicode="&#x133;" horiz-adv-x="886" 
d="M291 1323h-129v172h129v-172zM291 0h-129v1044h129v-1044zM723 1323h-129v172h129v-172zM375 -432v113q39 -13 78 -13q82 0 111.5 46t29.5 145v1185h129v-1198q0 -148 -57.5 -218t-180.5 -70q-55 0 -110 10z" />
    <glyph glyph-name="Jcircumflex" unicode="&#x134;" horiz-adv-x="681" 
d="M29 0v125q55 -27 133 -27q103 0 156 69.5t53 194.5v1068h141v-1061q0 -184 -86.5 -289t-249.5 -105q-80 0 -147 25zM715 1516h-94l-181 208l-180 -208h-94l190 294h168z" />
    <glyph glyph-name="jcircumflex" unicode="&#x135;" horiz-adv-x="454" 
d="M-57 -432v113q39 -13 77 -13q82 0 112 46t30 145v1185h129v-1198q0 -148 -57.5 -218t-180.5 -70q-55 0 -110 10zM502 1151h-94l-181 209l-180 -209h-94l190 295h168z" />
    <glyph glyph-name="Kcommaaccent" unicode="&#x136;" horiz-adv-x="1251" 
d="M1223 0h-195l-692 715v-715h-141v1430h141v-642l643 642h184l-692 -674zM633 -444h-117l78 294h151z" />
    <glyph glyph-name="kcommaaccent" unicode="&#x137;" horiz-adv-x="1024" 
d="M985 0h-178l-516 537v-537h-129v1536h129v-920l467 428h166l-510 -462zM516 -444h-117l78 294h152z" />
    <glyph glyph-name="Lacute" unicode="&#x139;" horiz-adv-x="909" 
d="M879 0h-715v1430h141v-1307h574v-123zM295 1516h-94l190 294h162z" />
    <glyph glyph-name="lacute" unicode="&#x13a;" horiz-adv-x="454" 
d="M291 0h-129v1536h129v-1536zM217 1608h-94l190 295h162z" />
    <glyph glyph-name="Lcommaaccent" unicode="&#x13b;" horiz-adv-x="909" 
d="M879 0h-715v1430h141v-1307h574v-123zM479 -444h-117l78 294h152z" />
    <glyph glyph-name="lcommaaccent" unicode="&#x13c;" horiz-adv-x="454" 
d="M291 0h-129v1536h129v-1536zM188 -444h-116l78 294h151z" />
    <glyph glyph-name="Lcaron" unicode="&#x13d;" horiz-adv-x="909" 
d="M879 0h-715v1430h141v-1307h574v-123zM569 1116h-92l37 336h125z" />
    <glyph glyph-name="lcaron" unicode="&#x13e;" horiz-adv-x="552" 
d="M291 0h-129v1536h129v-1536zM508 1116h-92l37 336h125z" />
    <glyph glyph-name="Ldot" unicode="&#x13f;" horiz-adv-x="909" 
d="M879 0h-715v1430h141v-1307h574v-123zM662 735h-154v172h154v-172z" />
    <glyph glyph-name="ldot" unicode="&#x140;" horiz-adv-x="700" 
d="M291 0h-129v1536h129v-1536zM625 735h-154v172h154v-172z" />
    <glyph glyph-name="Lslash" unicode="&#x141;" horiz-adv-x="909" 
d="M879 0h-715v496l-148 -105v141l148 105v793h141v-693l359 252v-139l-359 -254v-473h574v-123z" />
    <glyph glyph-name="lslash" unicode="&#x142;" horiz-adv-x="454" 
d="M291 0h-129v700l-135 -108v141l135 109v694h129v-592l135 109v-142l-135 -108v-803z" />
    <glyph glyph-name="Nacute" unicode="&#x143;" horiz-adv-x="1366" 
d="M1208 0h-190l-715 1233h-4v-1233h-141v1430h178l727 -1258h4v1258h141v-1430zM721 1516h-94l190 294h162z" />
    <glyph glyph-name="nacute" unicode="&#x144;" 
d="M977 0h-129v637q0 321 -248 321q-84 0 -147 -34.5t-96.5 -91.5t-49.5 -120t-16 -132v-580h-129v866q0 88 -8 178h125v-186h4q48 110 131.5 160.5t206.5 50.5q183 0 269.5 -108.5t86.5 -292.5v-668zM575 1151h-94l191 295h162z" />
    <glyph glyph-name="Ncommaaccent" unicode="&#x145;" horiz-adv-x="1366" 
d="M1208 0h-190l-715 1233h-4v-1233h-141v1430h178l727 -1258h4v1258h141v-1430zM678 -444h-117l78 294h152z" />
    <glyph glyph-name="ncommaaccent" unicode="&#x146;" 
d="M977 0h-129v637q0 321 -248 321q-84 0 -147 -34.5t-96.5 -91.5t-49.5 -120t-16 -132v-580h-129v866q0 88 -8 178h125v-186h4q48 110 131.5 160.5t206.5 50.5q183 0 269.5 -108.5t86.5 -292.5v-668zM551 -444h-117l78 294h152z" />
    <glyph glyph-name="Ncaron" unicode="&#x147;" horiz-adv-x="1366" 
d="M1208 0h-190l-715 1233h-4v-1233h-141v1430h178l727 -1258h4v1258h141v-1430zM791 1516h-168l-191 294h94l181 -208l180 208h94z" />
    <glyph glyph-name="ncaron" unicode="&#x148;" 
d="M977 0h-129v637q0 321 -248 321q-84 0 -147 -34.5t-96.5 -91.5t-49.5 -120t-16 -132v-580h-129v866q0 88 -8 178h125v-186h4q48 110 131.5 160.5t206.5 50.5q183 0 269.5 -108.5t86.5 -292.5v-668zM657 1151h-168l-190 295h94l180 -209l181 209h94z" />
    <glyph glyph-name="napostrophe" unicode="&#x149;" horiz-adv-x="1261" 
d="M1100 0h-129v637q0 321 -248 321q-84 0 -147 -34.5t-96.5 -91.5t-49.5 -120t-16 -132v-580h-129v866q0 77 -9 178h125v-186h5q49 110 131.5 160.5t205.5 50.5q183 0 270 -108.5t87 -292.5v-668zM92 983h-117l121 447h154z" />
    <glyph glyph-name="Omacron" unicode="&#x14c;" horiz-adv-x="1478" 
d="M737 -25q-300 0 -463 201.5t-163 548.5q0 211 73.5 375t217 259t335.5 95q154 0 276 -58.5t198.5 -159t116.5 -231t40 -280.5q0 -224 -69.5 -391t-213.5 -263t-348 -96zM737 98q96 0 176.5 33.5t138 91.5t97.5 137t59 168.5t19 186.5q0 94 -18.5 182t-57.5 167.5
t-96 138.5t-138.5 93.5t-179.5 34.5q-113 0 -205.5 -49t-153 -133t-93.5 -195.5t-33 -238.5q0 -174 58 -313.5t169.5 -221.5t257.5 -82zM989 1604h-500v110h500v-110z" />
    <glyph glyph-name="omacron" unicode="&#x14d;" 
d="M569 -25q-119 0 -213 43t-153 118.5t-90 173.5t-31 212q0 156 54 278t166 195.5t267 73.5q118 0 212 -42.5t154 -117.5t91 -173.5t31 -213.5q0 -113 -30.5 -211t-89.5 -173.5t-154 -119t-214 -43.5zM569 86q162 0 254 122.5t92 313.5q0 189 -92 312.5t-256 123.5
q-155 0 -249.5 -119.5t-94.5 -316.5q0 -125 40 -223t119 -155.5t187 -57.5zM821 1243h-499v111h499v-111z" />
    <glyph glyph-name="Obreve" unicode="&#x14e;" horiz-adv-x="1478" 
d="M737 -25q-300 0 -463 201.5t-163 548.5q0 211 73.5 375t217 259t335.5 95q154 0 276 -58.5t198.5 -159t116.5 -231t40 -280.5q0 -224 -69.5 -391t-213.5 -263t-348 -96zM737 98q96 0 176.5 33.5t138 91.5t97.5 137t59 168.5t19 186.5q0 94 -18.5 182t-57.5 167.5
t-96 138.5t-138.5 93.5t-179.5 34.5q-113 0 -205.5 -49t-153 -133t-93.5 -195.5t-33 -238.5q0 -174 58 -313.5t169.5 -221.5t257.5 -82zM926 1753h61q-12 -99 -76 -168t-176 -69q-109 0 -174 69t-78 168h62q18 -58 69.5 -86.5t116.5 -28.5q158 0 195 115z" />
    <glyph glyph-name="obreve" unicode="&#x14f;" 
d="M569 -25q-119 0 -213 43t-153 118.5t-90 173.5t-31 212q0 156 54 278t166 195.5t267 73.5q118 0 212 -42.5t154 -117.5t91 -173.5t31 -213.5q0 -113 -30.5 -211t-89.5 -173.5t-154 -119t-214 -43.5zM569 86q162 0 254 122.5t92 313.5q0 189 -92 312.5t-256 123.5
q-155 0 -249.5 -119.5t-94.5 -316.5q0 -125 40 -223t119 -155.5t187 -57.5zM760 1376h61q-15 -111 -83 -174t-169 -63t-169 63.5t-83 173.5h62q15 -55 64.5 -84.5t125.5 -29.5t126 29.5t65 84.5z" />
    <glyph glyph-name="Ohungarumlaut" unicode="&#x150;" horiz-adv-x="1478" 
d="M737 -25q-300 0 -463 201.5t-163 548.5q0 211 73.5 375t217 259t335.5 95q154 0 276 -58.5t198.5 -159t116.5 -231t40 -280.5q0 -224 -69.5 -391t-213.5 -263t-348 -96zM737 98q96 0 176.5 33.5t138 91.5t97.5 137t59 168.5t19 186.5q0 94 -18.5 182t-57.5 167.5
t-96 138.5t-138.5 93.5t-179.5 34.5q-113 0 -205.5 -49t-153 -133t-93.5 -195.5t-33 -238.5q0 -174 58 -313.5t169.5 -221.5t257.5 -82zM573 1516h-94l191 294h161zM922 1516h-95l191 294h162z" />
    <glyph glyph-name="ohungarumlaut" unicode="&#x151;" 
d="M569 -25q-119 0 -213 43t-153 118.5t-90 173.5t-31 212q0 156 54 278t166 195.5t267 73.5q118 0 212 -42.5t154 -117.5t91 -173.5t31 -213.5q0 -113 -30.5 -211t-89.5 -173.5t-154 -119t-214 -43.5zM569 86q162 0 254 122.5t92 313.5q0 189 -92 312.5t-256 123.5
q-155 0 -249.5 -119.5t-94.5 -316.5q0 -125 40 -223t119 -155.5t187 -57.5zM399 1151h-94l191 295h161zM748 1151h-95l191 295h162z" />
    <glyph glyph-name="OE" unicode="&#x152;" horiz-adv-x="1820" 
d="M1698 0h-690q-39 0 -164 -7t-164 -7q-119 0 -216 41.5t-161.5 111t-108.5 164.5t-63.5 198t-19.5 214q0 108 19 209.5t62 197t107.5 166.5t162 113.5t218.5 42.5q45 0 176.5 -7t153.5 -7h663v-123h-555v-510h527v-123h-527v-551h580v-123zM977 123v1184q-228 12 -264 12
q-97 0 -178 -34t-145.5 -103.5t-101 -187.5t-36.5 -273q0 -110 17 -201t45 -153t67.5 -109.5t80.5 -74.5t88.5 -44t86 -22.5t78.5 -5.5q106 0 262 12z" />
    <glyph glyph-name="oe" unicode="&#x153;" horiz-adv-x="1820" 
d="M1667 164v-131q-63 -26 -146 -42t-157 -16q-283 0 -401 213q-127 -213 -402 -213q-153 0 -265 72.5t-167 195t-55 279.5q0 156 54 278t166 195.5t267 73.5q147 0 245.5 -59t147.5 -166q116 225 375 225q193 0 304.5 -138.5t111.5 -385.5v-60h-715q1 -185 95 -292
t249 -107q68 0 158 24t135 54zM561 86q165 0 246.5 107.5t81.5 328.5q0 436 -330 436q-156 0 -250 -120t-94 -316q0 -195 93.5 -315.5t252.5 -120.5zM1030 596h574q0 96 -28.5 176t-91 133t-149.5 53q-137 0 -221 -96t-84 -266z" />
    <glyph glyph-name="Racute" unicode="&#x154;" 
d="M1079 0h-155l-195 455q-30 71 -56 113.5t-57 66.5t-64 31.5t-85 7.5h-145v-674h-142v1430h369q200 0 310 -91t110 -278q0 -134 -88.5 -223.5t-229.5 -108.5v-4q76 -10 111 -46.5t76 -129.5zM322 797h153q61 0 118 12.5t112 40.5t88.5 82.5t33.5 128.5q0 137 -77.5 191.5
t-247.5 54.5h-180v-510zM524 1516h-94l191 294h161z" />
    <glyph glyph-name="racute" unicode="&#x155;" horiz-adv-x="681" 
d="M291 0h-129v899q0 72 -8 145h129v-200h4q44 109 113.5 167t154.5 58q44 0 90 -12v-135q-41 12 -92 12q-72 0 -124.5 -35t-81.5 -96.5t-42.5 -133t-13.5 -155.5v-514zM414 1151h-95l191 295h162z" />
    <glyph glyph-name="Rcommaaccent" unicode="&#x156;" 
d="M1079 0h-155l-195 455q-30 71 -56 113.5t-57 66.5t-64 31.5t-85 7.5h-145v-674h-142v1430h369q200 0 310 -91t110 -278q0 -134 -88.5 -223.5t-229.5 -108.5v-4q76 -10 111 -46.5t76 -129.5zM322 797h153q61 0 118 12.5t112 40.5t88.5 82.5t33.5 128.5q0 137 -77.5 191.5
t-247.5 54.5h-180v-510zM553 -444h-117l78 294h152z" />
    <glyph glyph-name="rcommaaccent" unicode="&#x157;" horiz-adv-x="681" 
d="M291 0h-129v899q0 72 -8 145h129v-200h4q44 109 113.5 167t154.5 58q44 0 90 -12v-135q-41 12 -92 12q-72 0 -124.5 -35t-81.5 -96.5t-42.5 -133t-13.5 -155.5v-514zM190 -444h-116l78 294h151z" />
    <glyph glyph-name="Rcaron" unicode="&#x158;" 
d="M1079 0h-155l-195 455q-30 71 -56 113.5t-57 66.5t-64 31.5t-85 7.5h-145v-674h-142v1430h369q200 0 310 -91t110 -278q0 -134 -88.5 -223.5t-229.5 -108.5v-4q76 -10 111 -46.5t76 -129.5zM322 797h153q61 0 118 12.5t112 40.5t88.5 82.5t33.5 128.5q0 137 -77.5 191.5
t-247.5 54.5h-180v-510zM608 1516h-168l-190 294h94l180 -208l181 208h94z" />
    <glyph glyph-name="rcaron" unicode="&#x159;" horiz-adv-x="681" 
d="M291 0h-129v899q0 72 -8 145h129v-200h4q44 109 113.5 167t154.5 58q44 0 90 -12v-135q-41 12 -92 12q-72 0 -124.5 -35t-81.5 -96.5t-42.5 -133t-13.5 -155.5v-514zM502 1151h-168l-191 295h95l180 -209l180 209h94z" />
    <glyph glyph-name="Sacute" unicode="&#x15a;" horiz-adv-x="1024" 
d="M123 37l14 145q133 -84 316 -84q147 0 234 77.5t87 213.5q0 83 -67 145.5t-207 137.5q-62 33 -100 55t-88 55t-80 62.5t-58.5 66.5t-41.5 79.5t-13 90.5q0 115 63 201.5t164.5 129t224.5 42.5q160 0 281 -47l-23 -129q-95 53 -260 53q-62 0 -116 -14t-98 -42.5t-69.5 -77
t-25.5 -112.5q0 -45 19 -82.5t62.5 -72.5t88 -62t121.5 -67q64 -33 106 -57.5t96 -65.5t85.5 -81t54 -97t22.5 -121q0 -99 -39 -178t-105.5 -127.5t-149.5 -73.5t-177 -25q-179 0 -321 62zM528 1516h-94l191 294h161z" />
    <glyph glyph-name="sacute" unicode="&#x15b;" horiz-adv-x="796" 
d="M70 25l12 127q132 -66 270 -66q103 0 168.5 51.5t65.5 134.5q0 41 -18 75.5t-56.5 63t-75.5 48.5t-98 47q-144 64 -199 129.5t-55 148.5q0 74 27.5 130t76 89t108 49.5t128.5 16.5q134 0 258 -47l-12 -113q-107 49 -234 49q-115 0 -169 -43t-54 -131q0 -48 46 -88
t183 -100q88 -37 147.5 -78.5t88 -84.5t39 -80t10.5 -81q0 -76 -32 -135t-86 -93t-117 -51.5t-132 -17.5q-167 0 -290 50zM416 1151h-94l190 295h162z" />
    <glyph glyph-name="Scircumflex" unicode="&#x15c;" horiz-adv-x="1024" 
d="M123 37l14 145q133 -84 316 -84q147 0 234 77.5t87 213.5q0 83 -67 145.5t-207 137.5q-62 33 -100 55t-88 55t-80 62.5t-58.5 66.5t-41.5 79.5t-13 90.5q0 115 63 201.5t164.5 129t224.5 42.5q160 0 281 -47l-23 -129q-95 53 -260 53q-62 0 -116 -14t-98 -42.5t-69.5 -77
t-25.5 -112.5q0 -45 19 -82.5t62.5 -72.5t88 -62t121.5 -67q64 -33 106 -57.5t96 -65.5t85.5 -81t54 -97t22.5 -121q0 -99 -39 -178t-105.5 -127.5t-149.5 -73.5t-177 -25q-179 0 -321 62zM791 1516h-95l-180 208l-180 -208h-94l190 294h168z" />
    <glyph glyph-name="scircumflex" unicode="&#x15d;" horiz-adv-x="796" 
d="M70 25l12 127q132 -66 270 -66q103 0 168.5 51.5t65.5 134.5q0 41 -18 75.5t-56.5 63t-75.5 48.5t-98 47q-144 64 -199 129.5t-55 148.5q0 74 27.5 130t76 89t108 49.5t128.5 16.5q134 0 258 -47l-12 -113q-107 49 -234 49q-115 0 -169 -43t-54 -131q0 -48 46 -88
t183 -100q88 -37 147.5 -78.5t88 -84.5t39 -80t10.5 -81q0 -76 -32 -135t-86 -93t-117 -51.5t-132 -17.5q-167 0 -290 50zM674 1151h-94l-181 209l-180 -209h-94l190 295h168z" />
    <glyph glyph-name="Scedilla" unicode="&#x15e;" horiz-adv-x="1024" 
d="M258 -377l23 58q95 -29 147 -29q66 0 99.5 20t33.5 74q0 40 -28 63t-72 23q-41 0 -105 -27l-22 25l110 145q-206 3 -321 62l14 145q121 -84 314 -84q65 0 121 16.5t102.5 49.5t73 91t26.5 134q0 83 -67 145.5t-207 137.5q-62 33 -100 55t-88 55t-80 62.5t-58.5 66.5
t-41.5 79.5t-13 90.5q0 115 63 201.5t164.5 129t224.5 42.5q160 0 281 -47l-23 -129q-95 53 -260 53q-62 0 -116 -14t-98 -42.5t-69.5 -77t-25.5 -112.5q0 -45 19 -82.5t62.5 -72.5t88 -62t121.5 -67q64 -33 106 -57.5t96 -65.5t85.5 -81t54 -97t22.5 -121q0 -85 -27 -152.5
t-68.5 -109.5t-98 -72.5t-107.5 -44t-106 -20.5l-80 -99l4 -4q47 17 94 17q75 0 120.5 -35.5t45.5 -102.5q0 -82 -70.5 -124t-170.5 -42q-114 0 -193 33z" />
    <glyph glyph-name="scedilla" unicode="&#x15f;" horiz-adv-x="796" 
d="M147 -377l23 58q92 -29 147 -29q68 0 101 21t33 73q0 41 -29 63.5t-72 22.5q-42 0 -104 -27l-23 25l111 145q-139 3 -264 50l12 127q124 -66 274 -66q94 0 162 50.5t68 135.5q0 41 -18 75.5t-56.5 63t-75.5 48.5t-98 47q-144 64 -199 129.5t-55 148.5q0 74 27.5 130
t76 89t108 49.5t128.5 16.5q134 0 258 -47l-12 -113q-107 49 -234 49q-115 0 -169 -43t-54 -131q0 -48 46 -88t183 -100q88 -37 147.5 -78.5t88 -84.5t39 -80t10.5 -81q0 -70 -28 -125.5t-75.5 -90t-105 -54.5t-123.5 -25l-78 -96l5 -4q47 17 94 17q75 0 120.5 -35.5
t45.5 -102.5q0 -57 -37.5 -96t-90 -54.5t-114.5 -15.5q-114 0 -193 33z" />
    <glyph glyph-name="Scaron" unicode="&#x160;" horiz-adv-x="1024" 
d="M123 37l14 145q133 -84 316 -84q147 0 234 77.5t87 213.5q0 83 -67 145.5t-207 137.5q-62 33 -100 55t-88 55t-80 62.5t-58.5 66.5t-41.5 79.5t-13 90.5q0 115 63 201.5t164.5 129t224.5 42.5q160 0 281 -47l-23 -129q-95 53 -260 53q-62 0 -116 -14t-98 -42.5t-69.5 -77
t-25.5 -112.5q0 -45 19 -82.5t62.5 -72.5t88 -62t121.5 -67q64 -33 106 -57.5t96 -65.5t85.5 -81t54 -97t22.5 -121q0 -99 -39 -178t-105.5 -127.5t-149.5 -73.5t-177 -25q-179 0 -321 62zM604 1516h-168l-190 294h94l180 -208l180 208h95z" />
    <glyph glyph-name="scaron" unicode="&#x161;" horiz-adv-x="796" 
d="M70 25l12 127q132 -66 270 -66q103 0 168.5 51.5t65.5 134.5q0 41 -18 75.5t-56.5 63t-75.5 48.5t-98 47q-144 64 -199 129.5t-55 148.5q0 74 27.5 130t76 89t108 49.5t128.5 16.5q134 0 258 -47l-12 -113q-107 49 -234 49q-115 0 -169 -43t-54 -131q0 -48 46 -88
t183 -100q88 -37 147.5 -78.5t88 -84.5t39 -80t10.5 -81q0 -76 -32 -135t-86 -93t-117 -51.5t-132 -17.5q-167 0 -290 50zM483 1151h-168l-190 295h94l180 -209l181 209h94z" />
    <glyph glyph-name="Tcommaaccent" unicode="&#x162;" horiz-adv-x="1024" 
d="M584 0h-142v1307h-422v123h986v-123h-422v-1307zM473 -444h-117l78 294h152z" />
    <glyph glyph-name="tcommaaccent" unicode="&#x163;" horiz-adv-x="681" 
d="M633 111l8 -107q-75 -29 -158 -29q-136 0 -186.5 73.5t-50.5 236.5v649h-205v110h205v252l129 45v-297h237v-110h-237v-676q0 -82 34.5 -127t104.5 -45q52 0 119 25zM356 -444h-116l77 294h152z" />
    <glyph glyph-name="Tcaron" unicode="&#x164;" horiz-adv-x="1024" 
d="M584 0h-142v1307h-422v123h986v-123h-422v-1307zM596 1516h-168l-190 294h94l180 -208l180 208h94z" />
    <glyph glyph-name="tcaron" unicode="&#x165;" horiz-adv-x="694" 
d="M633 111l8 -107q-75 -29 -158 -29q-136 0 -186.5 73.5t-50.5 236.5v649h-205v110h205v252l129 45v-297h237v-110h-237v-676q0 -82 34.5 -127t104.5 -45q52 0 119 25zM598 1116h-92l37 336h125z" />
    <glyph glyph-name="Tbar" unicode="&#x166;" horiz-adv-x="1024" 
d="M584 0h-142v893h-340v108h340v306h-422v123h986v-123h-422v-306h338v-108h-338v-893z" />
    <glyph glyph-name="tbar" unicode="&#x167;" horiz-adv-x="681" 
d="M633 111l8 -107q-75 -29 -158 -29q-136 0 -186.5 73.5t-50.5 236.5v344h-185v98h185v207h-205v110h205v252l129 45v-297h237v-110h-237v-207h205v-98h-205v-371q0 -82 34.5 -127t104.5 -45q52 0 119 25z" />
    <glyph glyph-name="Utilde" unicode="&#x168;" horiz-adv-x="1366" 
d="M1061 500v930h141v-936q0 -111 -30.5 -200.5t-81 -148t-118.5 -97.5t-139.5 -56t-148.5 -17q-75 0 -146 16t-139.5 55t-119.5 97t-82 149t-31 204v934h141v-936q0 -82 23 -152t68 -125.5t118.5 -87t167.5 -31.5q172 0 274.5 106t102.5 296zM881 1741h75
q-10 -85 -58 -132.5t-112 -47.5q-47 0 -124 25.5t-99 25.5q-35 0 -55 -16t-35 -58h-74q20 90 63.5 137t104.5 47q46 0 125 -25.5t90 -25.5q31 0 61 18.5t38 51.5z" />
    <glyph glyph-name="utilde" unicode="&#x169;" 
d="M985 0h-125v186h-4q-49 -109 -132 -160t-206 -51q-181 0 -268.5 107.5t-87.5 290.5v671h129v-638q0 -48 5.5 -89.5t22 -85.5t43.5 -74.5t72 -50.5t105 -20q69 0 124 24t89 62t56 89t31 100t9 100v583h129v-872q0 -98 8 -172zM772 1401h76q-10 -85 -58 -132.5t-112 -47.5
q-47 0 -124 25.5t-99 25.5q-35 0 -55 -16t-35 -58h-74q20 90 63.5 137t104.5 47q46 0 125 -25.5t90 -25.5q31 0 60.5 18.5t37.5 51.5z" />
    <glyph glyph-name="Umacron" unicode="&#x16a;" horiz-adv-x="1366" 
d="M1061 500v930h141v-936q0 -111 -30.5 -200.5t-81 -148t-118.5 -97.5t-139.5 -56t-148.5 -17q-75 0 -146 16t-139.5 55t-119.5 97t-82 149t-31 204v934h141v-936q0 -82 23 -152t68 -125.5t118.5 -87t167.5 -31.5q172 0 274.5 106t102.5 296zM948 1604h-499v110h499v-110z
" />
    <glyph glyph-name="umacron" unicode="&#x16b;" 
d="M985 0h-125v186h-4q-49 -109 -132 -160t-206 -51q-181 0 -268.5 107.5t-87.5 290.5v671h129v-638q0 -48 5.5 -89.5t22 -85.5t43.5 -74.5t72 -50.5t105 -20q69 0 124 24t89 62t56 89t31 100t9 100v583h129v-872q0 -98 8 -172zM821 1243h-499v111h499v-111z" />
    <glyph glyph-name="Ubreve" unicode="&#x16c;" horiz-adv-x="1366" 
d="M1061 500v930h141v-936q0 -111 -30.5 -200.5t-81 -148t-118.5 -97.5t-139.5 -56t-148.5 -17q-75 0 -146 16t-139.5 55t-119.5 97t-82 149t-31 204v934h141v-936q0 -82 23 -152t68 -125.5t118.5 -87t167.5 -31.5q172 0 274.5 106t102.5 296zM868 1753h62q-12 -99 -76 -168
t-176 -69q-109 0 -174 69t-78 168h61q18 -58 69.5 -86.5t117.5 -28.5q52 0 89.5 11t58 31t30 36t16.5 37z" />
    <glyph glyph-name="ubreve" unicode="&#x16d;" 
d="M985 0h-125v186h-4q-49 -109 -132 -160t-206 -51q-181 0 -268.5 107.5t-87.5 290.5v671h129v-638q0 -48 5.5 -89.5t22 -85.5t43.5 -74.5t72 -50.5t105 -20q69 0 124 24t89 62t56 89t31 100t9 100v583h129v-872q0 -98 8 -172zM760 1389h61q-15 -111 -83 -174.5t-169 -63.5
t-169 64t-83 174h62q15 -55 65 -85t125 -30q76 0 126 30t65 85z" />
    <glyph glyph-name="Uring" unicode="&#x16e;" horiz-adv-x="1366" 
d="M1061 500v930h141v-936q0 -111 -30.5 -200.5t-81 -148t-118.5 -97.5t-139.5 -56t-148.5 -17q-75 0 -146 16t-139.5 55t-119.5 97t-82 149t-31 204v934h141v-936q0 -82 23 -152t68 -125.5t118.5 -87t167.5 -31.5q172 0 274.5 106t102.5 296zM901 1671q0 -81 -55.5 -137.5
t-140.5 -56.5q-84 0 -140.5 53.5t-56.5 140.5q0 51 19.5 91t50 61.5t63 32t64.5 10.5q75 0 135.5 -50.5t60.5 -144.5zM827 1671q0 52 -33 86.5t-92 34.5q-54 0 -87 -34.5t-33 -86.5q0 -50 35 -85.5t88 -35.5q55 0 88.5 34.5t33.5 86.5z" />
    <glyph glyph-name="uring" unicode="&#x16f;" 
d="M985 0h-125v186h-4q-49 -109 -132 -160t-206 -51q-181 0 -268.5 107.5t-87.5 290.5v671h129v-638q0 -48 5.5 -89.5t22 -85.5t43.5 -74.5t72 -50.5t105 -20q69 0 124 24t89 62t56 89t31 100t9 100v583h129v-872q0 -98 8 -172zM768 1327q0 -83 -56.5 -138.5t-140.5 -55.5
q-85 0 -140.5 55.5t-55.5 138.5q0 81 55.5 138t140.5 57q84 0 140.5 -57t56.5 -138zM694 1327q0 49 -35 85t-90 36q-46 0 -83 -34.5t-37 -86.5q0 -51 35.5 -86t86.5 -35q53 0 88 35t35 86z" />
    <glyph glyph-name="Uhungarumlaut" unicode="&#x170;" horiz-adv-x="1366" 
d="M1061 500v930h141v-936q0 -111 -30.5 -200.5t-81 -148t-118.5 -97.5t-139.5 -56t-148.5 -17q-75 0 -146 16t-139.5 55t-119.5 97t-82 149t-31 204v934h141v-936q0 -82 23 -152t68 -125.5t118.5 -87t167.5 -31.5q172 0 274.5 106t102.5 296zM518 1516h-94l190 294h162z
M866 1516h-94l191 294h161z" />
    <glyph glyph-name="uhungarumlaut" unicode="&#x171;" 
d="M985 0h-125v186h-4q-49 -109 -132 -160t-206 -51q-181 0 -268.5 107.5t-87.5 290.5v671h129v-638q0 -48 5.5 -89.5t22 -85.5t43.5 -74.5t72 -50.5t105 -20q69 0 124 24t89 62t56 89t31 100t9 100v583h129v-872q0 -98 8 -172zM406 1151h-95l191 295h162zM754 1151h-95
l191 295h162z" />
    <glyph glyph-name="Uogonek" unicode="&#x172;" horiz-adv-x="1366" 
d="M842 -281l28 -16q-23 -42 -79.5 -77.5t-133.5 -35.5q-76 0 -123 38t-47 93q0 124 205 254h-22q-111 5 -199 38t-144 83.5t-93.5 117t-52.5 135.5t-15 143v938h141v-934q0 -61 13 -117.5t42.5 -108t72.5 -89.5t107 -60.5t142 -22.5q96 0 170 32t118 88t66.5 126.5
t22.5 151.5v934h141v-926q0 -233 -113.5 -362.5t-320.5 -159.5q-152 -129 -152 -234q0 -40 27.5 -62t65.5 -22q67 0 133 55z" />
    <glyph glyph-name="uogonek" unicode="&#x173;" 
d="M985 -281l29 -16q-24 -44 -77.5 -78.5t-135.5 -34.5q-88 0 -129 41.5t-41 89.5q0 71 65 143t183 136h-19v186h-4q-49 -109 -132 -160t-206 -51q-181 0 -268.5 107.5t-87.5 290.5v671h129v-638q0 -48 5.5 -89.5t22 -85.5t43.5 -74.5t72 -50.5t105 -20q69 0 124 24t89 62
t56 89t31 100t9 100v583h129v-872q0 -98 8 -172h-49q-101 -81 -138.5 -137.5t-37.5 -116.5q0 -39 26.5 -60.5t65.5 -21.5q74 0 133 55z" />
    <glyph glyph-name="Wcircumflex" unicode="&#x174;" horiz-adv-x="1933" 
d="M1501 0h-168l-362 1270h-4l-369 -1270h-170l-410 1430h146l352 -1270h4l367 1270h170l360 -1270h4l359 1270h135zM1237 1516h-94l-180 208l-181 -208h-94l191 294h168z" />
    <glyph glyph-name="wcircumflex" unicode="&#x175;" horiz-adv-x="1593" 
d="M1235 0h-156l-284 903h-4l-285 -903h-156l-336 1044h142l274 -903h4l291 903h156l276 -903h4l289 903h129zM1071 1151h-94l-180 209l-181 -209h-94l191 295h168z" />
    <glyph glyph-name="Ycircumflex" unicode="&#x176;" horiz-adv-x="1251" 
d="M696 0h-141v606l-530 824h163l437 -699l448 699h154l-531 -824v-606zM895 1516h-94l-180 208l-181 -208h-94l191 294h168z" />
    <glyph glyph-name="ycircumflex" unicode="&#x177;" horiz-adv-x="909" 
d="M66 -426l12 111q49 -17 100 -17q29 0 52 8.5t41.5 29t31.5 39.5t26.5 54.5t20.5 57.5t20 66.5t19 64.5l-371 1056h142l293 -870h2l301 870h135l-420 -1206q-53 -152 -117.5 -216t-150.5 -64q-68 0 -137 16zM729 1151h-94l-180 209l-181 -209h-94l191 295h168z" />
    <glyph glyph-name="Ydieresis" unicode="&#x178;" horiz-adv-x="1251" 
d="M696 0h-141v606l-530 824h163l437 -699l448 699h154l-531 -824v-606zM541 1561h-154v172h154v-172zM891 1561h-154v172h154v-172z" />
    <glyph glyph-name="Zacute" unicode="&#x179;" horiz-adv-x="1024" 
d="M963 0h-920v123l745 1184h-727v123h877v-123l-741 -1184h766v-123zM528 1516h-94l191 294h161z" />
    <glyph glyph-name="zacute" unicode="&#x17a;" horiz-adv-x="909" 
d="M844 0h-778v109l628 825h-604v110h754v-110l-629 -823h629v-111zM481 1151h-94l191 295h161z" />
    <glyph glyph-name="Zdotaccent" unicode="&#x17b;" horiz-adv-x="1024" 
d="M963 0h-920v123l745 1184h-727v123h877v-123l-741 -1184h766v-123zM598 1561h-154v172h154v-172z" />
    <glyph glyph-name="zdotaccent" unicode="&#x17c;" horiz-adv-x="909" 
d="M844 0h-778v109l628 825h-604v110h754v-110l-629 -823h629v-111zM559 1196h-153v172h153v-172z" />
    <glyph glyph-name="Zcaron" unicode="&#x17d;" horiz-adv-x="1024" 
d="M963 0h-920v123l745 1184h-727v123h877v-123l-741 -1184h766v-123zM596 1516h-168l-190 294h94l180 -208l180 208h94z" />
    <glyph glyph-name="zcaron" unicode="&#x17e;" horiz-adv-x="909" 
d="M844 0h-778v109l628 825h-604v110h754v-110l-629 -823h629v-111zM539 1151h-168l-191 295h94l181 -209l180 209h94z" />
    <glyph glyph-name="florin" unicode="&#x192;" 
d="M51 -422l33 109q9 -2 28.5 -8t33 -8.5t26.5 -2.5q41 0 72 13t60.5 47t53 98t41.5 160l146 762h-228v110h250l39 205q18 96 48 166t63 110.5t76.5 65t82 32t85.5 7.5q63 0 131 -35l-27 -102q-63 26 -115 26q-81 0 -129.5 -63.5t-81.5 -225.5l-37 -186h236v-110h-258
l-145 -742q-35 -175 -80 -270.5t-111.5 -136.5t-173.5 -41q-51 0 -119 20z" />
    <glyph glyph-name="Scommaaccent" unicode="&#x218;" horiz-adv-x="1024" 
d="M123 37l14 145q133 -84 316 -84q147 0 234 77.5t87 213.5q0 83 -67 145.5t-207 137.5q-62 33 -100 55t-88 55t-80 62.5t-58.5 66.5t-41.5 79.5t-13 90.5q0 115 63 201.5t164.5 129t224.5 42.5q160 0 281 -47l-23 -129q-95 53 -260 53q-62 0 -116 -14t-98 -42.5t-69.5 -77
t-25.5 -112.5q0 -45 19 -82.5t62.5 -72.5t88 -62t121.5 -67q64 -33 106 -57.5t96 -65.5t85.5 -81t54 -97t22.5 -121q0 -99 -39 -178t-105.5 -127.5t-149.5 -73.5t-177 -25q-179 0 -321 62zM475 -444h-117l78 294h152z" />
    <glyph glyph-name="scommaaccent" unicode="&#x219;" horiz-adv-x="796" 
d="M70 25l12 127q132 -66 270 -66q103 0 168.5 51.5t65.5 134.5q0 41 -18 75.5t-56.5 63t-75.5 48.5t-98 47q-144 64 -199 129.5t-55 148.5q0 74 27.5 130t76 89t108 49.5t128.5 16.5q134 0 258 -47l-12 -113q-107 49 -234 49q-115 0 -169 -43t-54 -131q0 -48 46 -88
t183 -100q88 -37 147.5 -78.5t88 -84.5t39 -80t10.5 -81q0 -76 -32 -135t-86 -93t-117 -51.5t-132 -17.5q-167 0 -290 50zM371 -444h-117l78 294h151z" />
    <glyph glyph-name="uni021A" unicode="&#x21a;" horiz-adv-x="1024" 
d="M584 0h-142v1307h-422v123h986v-123h-422v-1307zM473 -444h-117l78 294h152z" />
    <glyph glyph-name="uni021B" unicode="&#x21b;" horiz-adv-x="681" 
d="M633 111l8 -107q-75 -29 -158 -29q-136 0 -186.5 73.5t-50.5 236.5v649h-205v110h205v252l129 45v-297h237v-110h-237v-676q0 -82 34.5 -127t104.5 -45q52 0 119 25zM356 -444h-116l77 294h152z" />
    <glyph glyph-name="dotlessj" unicode="&#x237;" horiz-adv-x="454" 
d="M-57 -432v113q39 -13 77 -13q82 0 112 46t30 145v1185h129v-1198q0 -148 -57.5 -218t-180.5 -70q-55 0 -110 10z" />
    <glyph glyph-name="circumflex" unicode="&#x2c6;" horiz-adv-x="454" 
d="M502 1151h-94l-181 209l-180 -209h-94l190 295h168z" />
    <glyph glyph-name="caron" unicode="&#x2c7;" horiz-adv-x="454" 
d="M311 1151h-168l-190 295h94l180 -209l181 209h94z" />
    <glyph glyph-name="uni02C9" unicode="&#x2c9;" horiz-adv-x="454" 
d="M477 1243h-500v111h500v-111z" />
    <glyph glyph-name="breve" unicode="&#x2d8;" horiz-adv-x="454" 
d="M418 1389h61q-15 -111 -83 -174.5t-169 -63.5t-169 64t-83 174h62q15 -55 65 -85t125 -30q76 0 126 30t65 85z" />
    <glyph glyph-name="dotaccent" unicode="&#x2d9;" horiz-adv-x="454" 
d="M305 1196h-153v172h153v-172z" />
    <glyph glyph-name="ring" unicode="&#x2da;" horiz-adv-x="454" 
d="M424 1327q0 -83 -56.5 -138.5t-140.5 -55.5q-85 0 -140.5 55.5t-55.5 138.5q0 81 55.5 138t140.5 57q84 0 140.5 -57t56.5 -138zM350 1327q0 49 -35 85t-90 36q-47 0 -84 -34.5t-37 -86.5q0 -51 36 -86t87 -35q53 0 88 35t35 86z" />
    <glyph glyph-name="ogonek" unicode="&#x2db;" horiz-adv-x="454" 
d="M520 -281l29 -16q-26 -62 -81.5 -97.5t-125.5 -35.5q-72 0 -126 41.5t-54 107.5q0 141 248 281h57q-91 -73 -133.5 -131t-42.5 -123q0 -50 28 -76t78 -26q42 0 73.5 22t49.5 53z" />
    <glyph glyph-name="tilde" unicode="&#x2dc;" horiz-adv-x="454" 
d="M426 1401h76q-10 -85 -58 -132.5t-112 -47.5q-47 0 -124 25.5t-99 25.5q-35 0 -55.5 -16t-35.5 -58h-73q20 90 63.5 137t104.5 47q46 0 125 -25.5t90 -25.5q31 0 60.5 18.5t37.5 51.5z" />
    <glyph glyph-name="hungarumlaut" unicode="&#x2dd;" horiz-adv-x="454" 
d="M29 1151h-95l191 295h162zM377 1151h-94l190 295h162z" />
    <glyph glyph-name="uni0394" unicode="&#x394;" horiz-adv-x="1345" 
d="M1309 0h-1272l565 1430h160zM1114 123l-438 1171l-453 -1171h891z" />
    <glyph glyph-name="uni03A9" unicode="&#x3a9;" horiz-adv-x="1523" 
d="M1399 0h-486l7 123q153 123 236 286.5t83 342.5q0 163 -56.5 293.5t-165.5 208t-253 77.5q-228 0 -358 -160t-130 -417q0 -175 84.5 -340t235.5 -291l6 -123h-477v123h305q-146 126 -220.5 286.5t-74.5 342.5q0 107 24 207.5t75 190.5t123.5 157.5t177 107t229.5 39.5
q136 0 245 -44.5t176.5 -115t113 -162.5t63.5 -181t18 -177q0 -96 -21.5 -188t-54 -161t-75 -131.5t-78.5 -101.5t-72 -69h320v-123z" />
    <glyph glyph-name="uni03BC" unicode="&#x3bc;" 
d="M985 0h-125v186h-4q-49 -109 -132 -160t-206 -51q-127 0 -227 60v-465h-129v1474h129v-641q0 -154 62 -235.5t186 -81.5q148 0 228.5 104.5t80.5 280.5v573h129v-876q0 -78 8 -168z" />
    <glyph glyph-name="pi" unicode="&#x3c0;" horiz-adv-x="1185" 
d="M1128 111l7 -111q-77 -25 -119 -25q-197 0 -197 220v739h-471v-934h-129v934h-182v110h1093v-110h-182v-715q0 -133 84 -133q48 0 96 25z" />
    <glyph glyph-name="uni1E9E" unicode="&#x1e9e;" horiz-adv-x="1228" 
d="M467 35l14 147q54 -40 128 -62t136 -22q118 0 187 71.5t69 190.5q0 86 -52 157t-165 167q-117 101 -170 184t-53 191q0 90 56.5 161.5t154.5 110.5q-77 6 -123 6q-338 0 -338 -331v-1006h-141v1016q0 438 487 438q153 0 347 -22v-117q-129 -8 -215.5 -76t-86.5 -178
q0 -77 48.5 -139t152.5 -150q58 -51 95 -88t73.5 -88t54 -108t17.5 -123q0 -179 -108.5 -284.5t-289.5 -105.5q-130 0 -278 60z" />
    <glyph glyph-name="uni2010" unicode="&#x2010;" horiz-adv-x="681" 
d="M598 481h-514v142h514v-142z" />
    <glyph glyph-name="endash" unicode="&#x2013;" horiz-adv-x="1024" 
d="M1024 496h-1024v110h1024v-110z" />
    <glyph glyph-name="emdash" unicode="&#x2014;" horiz-adv-x="2048" 
d="M2048 496h-2048v110h2048v-110z" />
    <glyph glyph-name="quoteleft" unicode="&#x2018;" horiz-adv-x="569" 
d="M301 983h-154l158 447h117z" />
    <glyph glyph-name="quoteright" unicode="&#x2019;" horiz-adv-x="569" 
d="M264 983h-117l121 447h154z" />
    <glyph glyph-name="quotesinglbase" unicode="&#x201a;" horiz-adv-x="569" 
d="M264 -274h-117l121 446h154z" />
    <glyph glyph-name="quotedblleft" unicode="&#x201c;" 
d="M406 983h-154l158 447h116zM766 983h-154l158 447h117z" />
    <glyph glyph-name="quotedblright" unicode="&#x201d;" 
d="M369 983h-117l121 447h153zM729 983h-117l121 447h154z" />
    <glyph glyph-name="quotedblbase" unicode="&#x201e;" 
d="M371 -274h-119l121 446h153zM729 -274h-117l121 446h154z" />
    <glyph glyph-name="dagger" unicode="&#x2020;" 
d="M633 0h-129v934h-359v110h359v386h129v-386h360v-110h-360v-934z" />
    <glyph glyph-name="daggerdbl" unicode="&#x2021;" 
d="M633 0h-129v385h-359v111h359v438h-359v110h359v386h129v-386h360v-110h-360v-438h360v-111h-360v-385z" />
    <glyph glyph-name="bullet" unicode="&#x2022;" horiz-adv-x="1024" 
d="M870 715q0 -148 -105.5 -252.5t-252.5 -104.5q-146 0 -251 104t-105 253q0 146 103.5 252t252.5 106q146 0 252 -104.5t106 -253.5z" />
    <glyph glyph-name="ellipsis" unicode="&#x2026;" horiz-adv-x="2048" 
d="M426 0h-166v172h166v-172zM1108 0h-166v172h166v-172zM1790 0h-166v172h166v-172z" />
    <glyph glyph-name="perthousand" unicode="&#x2030;" horiz-adv-x="2048" 
d="M340 -45h-119l846 1520h119zM356 719q-136 0 -203 88.5t-67 273.5t66.5 274t203.5 89q138 0 204.5 -90t66.5 -273q0 -186 -67.5 -274t-203.5 -88zM356 817q33 0 58 10.5t40 32.5t24.5 44.5t13.5 57.5t5 60t1 63q0 129 -29.5 195t-114.5 66q-42 0 -70 -18t-43 -54.5
t-20.5 -81t-5.5 -107.5q0 -38 1 -64t5.5 -60.5t13.5 -57t24 -44t39.5 -32t57.5 -10.5zM1049 -14q-136 0 -203.5 88.5t-67.5 273.5t67 274t204 89q138 0 204 -90t66 -273q0 -186 -67 -274t-203 -88zM1049 84q33 0 58 10.5t39.5 32.5t24 44.5t13.5 58t5 60t1 62.5
q0 63 -5.5 106t-20 80t-43.5 55.5t-74 18.5q-42 0 -70 -18t-43 -54t-21 -80.5t-6 -107.5q0 -38 1.5 -64t5.5 -60.5t13.5 -57t24.5 -44t39.5 -32t57.5 -10.5zM1692 -14q-136 0 -203.5 88.5t-67.5 273.5t67 274t204 89q138 0 204 -90t66 -273q0 -186 -67 -274t-203 -88z
M1692 84q33 0 58 10.5t39.5 32.5t24 44.5t13.5 58t5 60t1 62.5q0 63 -5.5 106t-20 80t-43.5 55.5t-74 18.5q-42 0 -70 -18t-43 -54t-21 -80.5t-6 -107.5q0 -38 1.5 -64t5.5 -60.5t13.5 -57t24.5 -44t39.5 -32t57.5 -10.5z" />
    <glyph glyph-name="guilsinglleft" unicode="&#x2039;" horiz-adv-x="569" 
d="M487 131h-120l-287 420l287 420h120l-272 -420z" />
    <glyph glyph-name="guilsinglright" unicode="&#x203a;" horiz-adv-x="569" 
d="M203 131h-121l272 420l-272 420h121l286 -420z" />
    <glyph glyph-name="fraction" unicode="&#x2044;" horiz-adv-x="342" 
d="M-195 -45h-116l846 1520h116z" />
    <glyph glyph-name="Euro" unicode="&#x20ac;" 
d="M1133 154l12 -131q-111 -48 -281 -48q-255 0 -427.5 144t-223.5 405h-184l22 99h150q-4 58 -4 96q0 18 4 88h-172l22 98h164q31 158 116 281t224 195.5t311 72.5q179 0 293 -51l-26 -129q-103 59 -267 59q-190 0 -324.5 -112.5t-181.5 -315.5h699l-23 -98h-694
q-4 -29 -4 -90q0 -63 4 -94h657l-20 -99h-619q44 -200 177.5 -313t326.5 -113q160 0 269 56z" />
    <glyph glyph-name="uni20B9" unicode="&#x20b9;" 
d="M909 0h-172l-569 674v123h244q154 0 236.5 52.5t96.5 176.5h-577v98h580q-12 105 -87 156t-198 51h-295v99h926v-99h-310q91 -76 105 -207h205v-98h-207q-18 -171 -134 -256.5t-300 -85.5h-134z" />
    <glyph glyph-name="uni20BA" unicode="&#x20ba;" 
d="M254 0v633l-168 -66v105l168 65v181l-168 -66v104l168 66v408h141v-353l463 183v-105l-463 -182v-180l463 182v-105l-463 -182v-573q27 -6 82 -6q90 0 161.5 36.5t117.5 97t76.5 144.5t44 173.5t14.5 189.5h141q-1 -130 -19 -240t-59 -208.5t-103.5 -167t-157.5 -108.5
t-216 -40q-73 0 -223 14z" />
    <glyph glyph-name="uni20BC" unicode="&#x20bc;" horiz-adv-x="1554" 
d="M1462 0h-141v106q0 110 -15.5 229t-52 244.5t-89 226t-135 169t-181.5 76.5v-908h-141v908q-99 -8 -181.5 -76.5t-135.5 -169t-89.5 -226t-52 -244.5t-15.5 -229v-106h-141v131q0 137 21 275t69 273.5t117.5 241.5t175 175.5t232.5 77.5v256h141v-256q106 -7 197.5 -56.5
t157.5 -129.5t116.5 -181t81 -216.5t46 -231t15.5 -228.5v-131z" />
    <glyph glyph-name="ruble" unicode="&#x20bd;" 
d="M418 0h-142v385h-184v111h184v133h-184v110h184v691h375q207 0 324 -103.5t117 -302.5q0 -188 -125 -291.5t-330 -103.5h-219v-133h366v-111h-366v-385zM418 739h153q112 0 189 21.5t117 62t56.5 88.5t16.5 113q0 283 -323 283h-209v-568z" />
    <glyph glyph-name="afii61289" unicode="&#x2113;" horiz-adv-x="1024" 
d="M788 135l43 -57q-107 -107 -245 -107q-117 0 -180.5 67t-63.5 183v271l-123 -134l-45 58l168 172v549q0 150 67 245t175 95q94 0 148 -67.5t54 -184.5q0 -289 -340 -658v-327q0 -88 42.5 -137.5t117.5 -49.5q94 0 182 82zM446 1149v-483q122 141 187 282.5t65 265.5
q0 79 -33 133t-83 54q-61 0 -98.5 -68t-37.5 -184z" />
    <glyph glyph-name="trademark" unicode="&#x2122;" horiz-adv-x="2027" 
d="M528 582h-129v749h-268v99h666v-99h-269v-749zM1896 582h-129v737h-4l-282 -737h-88l-281 737h-4v-737h-129v848h209l250 -654l250 654h208v-848z" />
    <glyph glyph-name="Omega" unicode="&#x2126;" horiz-adv-x="1523" 
d="M1399 0h-486l7 123q153 123 236 286.5t83 342.5q0 163 -56.5 293.5t-165.5 208t-253 77.5q-228 0 -358 -160t-130 -417q0 -175 84.5 -340t235.5 -291l6 -123h-477v123h305q-146 126 -220.5 286.5t-74.5 342.5q0 107 24 207.5t75 190.5t123.5 157.5t177 107t229.5 39.5
q136 0 245 -44.5t176.5 -115t113 -162.5t63.5 -181t18 -177q0 -96 -21.5 -188t-54 -161t-75 -131.5t-78.5 -101.5t-72 -69h320v-123z" />
    <glyph glyph-name="estimated" unicode="&#x212e;" horiz-adv-x="1228" 
d="M1014 285l71 -43q-94 -151 -202 -214t-265 -63q-234 0 -381 161t-147 404q0 160 64.5 288.5t186 203t277.5 74.5q230 0 380.5 -155.5t150.5 -410.5h-827v-370q121 -121 296 -121q131 0 225.5 59.5t170.5 186.5zM918 604v297q-129 123 -304 123q-169 0 -292 -123v-297h596
z" />
    <glyph glyph-name="partialdiff" unicode="&#x2202;" horiz-adv-x="1103" 
d="M868 762h4q2 14 2 80q0 156 -34.5 280.5t-92 200t-126.5 115t-142 39.5q-147 0 -272 -97l-47 93q134 110 332 110q104 0 195.5 -50t161 -144t110 -240t40.5 -326q0 -239 -59 -424.5t-179 -295t-286 -109.5q-92 0 -167 38t-122.5 102.5t-72.5 147t-25 175.5q0 115 36 212
t96.5 161.5t138 100.5t161.5 36q111 0 205 -58t143 -147zM854 629q-37 95 -122 164t-193 69q-133 0 -227.5 -119t-94.5 -284q0 -156 73 -257.5t195 -101.5q98 0 178 72t127.5 190t63.5 267z" />
    <glyph glyph-name="Delta" unicode="&#x2206;" horiz-adv-x="1345" 
d="M1309 0h-1272l565 1430h160zM1114 123l-438 1171l-453 -1171h891z" />
    <glyph glyph-name="product" unicode="&#x220f;" horiz-adv-x="1472" 
d="M1331 -438h-160v1900h-872v-1900h-160v2048h1192v-2048z" />
    <glyph glyph-name="summation" unicode="&#x2211;" horiz-adv-x="1259" 
d="M1206 -438h-1155v131l660 901l-631 885v131h1102v-148h-895l616 -868l-653 -885h956v-147z" />
    <glyph glyph-name="minus" unicode="&#x2212;" horiz-adv-x="1228" 
d="M1133 449h-1039v141h1039v-141z" />
    <glyph glyph-name="uni2215" unicode="&#x2215;" horiz-adv-x="342" 
d="M-195 -45h-116l846 1520h116z" />
    <glyph glyph-name="uni2219" unicode="&#x2219;" horiz-adv-x="569" 
d="M287 541q-45 0 -72 27.5t-27 68.5q0 43 29.5 70.5t69.5 27.5q38 0 67 -27t29 -71q0 -41 -27.5 -68.5t-68.5 -27.5z" />
    <glyph glyph-name="radical" unicode="&#x221a;" horiz-adv-x="1032" 
d="M621 -438h-154l-332 684l-96 -45l-57 123l229 106l309 -649l377 1829h156z" />
    <glyph glyph-name="infinity" unicode="&#x221e;" horiz-adv-x="1554" 
d="M778 424l-98 -88q-151 -133 -293 -133q-134 0 -217.5 88t-83.5 225q0 139 82.5 229.5t214.5 90.5q93 0 183.5 -53.5t211.5 -180.5l84 84q154 154 303 154q133 0 218 -89t85 -229q0 -142 -83.5 -231.5t-217.5 -89.5q-92 0 -186 53t-203 170zM866 514q100 -97 169 -135.5
t139 -38.5q73 0 117 48t44 128q0 83 -45.5 133.5t-124.5 50.5q-60 0 -130.5 -45t-168.5 -141zM690 514q-104 98 -175.5 141t-131.5 43q-72 0 -118 -52t-46 -130q0 -81 46.5 -128.5t123.5 -47.5q127 0 301 174z" />
    <glyph glyph-name="integral" unicode="&#x222b;" horiz-adv-x="1134" 
d="M440 -102v1325q0 387 256 387q72 0 118 -31t46 -84q0 -36 -24.5 -57t-61.5 -21q-27 0 -49 22t-38 44t-28 22q-63 0 -63 -190q0 -30 2 -96t2 -82v-1133q0 -131 -20.5 -221t-58 -136t-80.5 -64.5t-99 -18.5q-58 0 -99.5 29t-41.5 77q0 29 23 51.5t52 22.5q21 0 39 -13.5
t27.5 -29.5t20.5 -29.5t20 -13.5q30 0 43.5 57.5t13.5 182.5z" />
    <glyph glyph-name="approxequal" unicode="&#x2248;" horiz-adv-x="1214" 
d="M1044 479h103q-15 -142 -83.5 -219.5t-180.5 -77.5q-74 0 -185 37t-214.5 74t-157.5 37q-58 0 -101 -43.5t-53 -116.5h-106q23 149 90.5 226t173.5 77q74 0 180.5 -36.5t210 -72.5t170.5 -36q59 0 98.5 38.5t54.5 112.5zM1044 848h103q-15 -142 -83.5 -219.5
t-180.5 -77.5q-58 0 -141.5 23t-152.5 50.5t-144 50.5t-119 23q-58 0 -101 -43.5t-53 -115.5h-106q23 149 90.5 226t173.5 77q59 0 139 -23t146.5 -50t144 -50t131.5 -23q59 0 98.5 39t54.5 113z" />
    <glyph glyph-name="notequal" unicode="&#x2260;" horiz-adv-x="1214" 
d="M1126 233h-587l-156 -299l-127 66l121 233h-289v148h365l137 260h-502v145h580l157 304l127 -66l-125 -238h299v-145h-374l-138 -260h512v-148z" />
    <glyph glyph-name="lessequal" unicode="&#x2264;" horiz-adv-x="1214" 
d="M1126 168l-1038 377v153l1038 383v-159l-835 -299l835 -297v-158zM1126 -61h-1038v147h1038v-147z" />
    <glyph glyph-name="greaterequal" unicode="&#x2265;" horiz-adv-x="1214" 
d="M1126 545l-1038 -377v158l836 297l-836 299v159l1038 -383v-153zM1126 -61h-1038v147h1038v-147z" />
    <glyph glyph-name="lozenge" unicode="&#x25ca;" horiz-adv-x="1214" 
d="M680 -72h-148l-350 801l350 801h148l352 -801zM606 84l271 645l-271 645l-268 -645z" />
    <glyph glyph-name="grave.cap" unicode="&#xe300;" horiz-adv-x="454" 
d="M342 1516h-94l-258 294h162z" />
    <glyph glyph-name="acute.cap" unicode="&#xe301;" horiz-adv-x="454" 
d="M203 1516h-94l190 294h162z" />
    <glyph glyph-name="circumflex.cap" unicode="&#xe302;" horiz-adv-x="454" 
d="M502 1516h-94l-181 208l-180 -208h-94l190 294h168z" />
    <glyph glyph-name="caron.cap" unicode="&#xe303;" horiz-adv-x="454" 
d="M307 1516h-168l-190 294h94l180 -208l180 208h95z" />
    <glyph glyph-name="tilde.cap" unicode="&#xe304;" horiz-adv-x="454" 
d="M422 1741h76q-10 -85 -58 -132.5t-112 -47.5q-47 0 -124.5 25.5t-99.5 25.5q-35 0 -55 -16t-35 -58h-73q20 90 63.5 137t104.5 47q46 0 125 -25.5t90 -25.5q31 0 60.5 18.5t37.5 51.5z" />
    <glyph glyph-name="dieresis.cap" unicode="&#xe305;" horiz-adv-x="454" 
d="M129 1561h-154v172h154v-172zM479 1561h-153v172h153v-172z" />
    <glyph glyph-name="macron.cap" unicode="&#xe306;" horiz-adv-x="454" 
d="M473 1604h-500v110h500v-110z" />
    <glyph glyph-name="breve.cap" unicode="&#xe307;" horiz-adv-x="454" 
d="M414 1753h61q-12 -99 -76 -168t-176 -69q-109 0 -174 69t-78 168h62q18 -58 69.5 -86.5t116.5 -28.5q158 0 195 115z" />
    <glyph glyph-name="ring.cap" unicode="&#xe308;" horiz-adv-x="454" 
d="M420 1671q0 -81 -56 -137.5t-141 -56.5q-84 0 -140 53.5t-56 140.5q0 52 19.5 91.5t50 61t62.5 32t64 10.5q75 0 136 -50.5t61 -144.5zM346 1671q0 52 -33 86.5t-92 34.5q-54 0 -87.5 -34.5t-33.5 -86.5q0 -50 35 -85.5t88 -35.5q55 0 89 34.5t34 86.5z" />
    <glyph glyph-name="hungarumlaut.cap" unicode="&#xe309;" horiz-adv-x="454" 
d="M25 1516h-95l191 294h162zM373 1516h-94l190 294h162z" />
    <glyph glyph-name="dotaccent.cap" unicode="&#xe30a;" horiz-adv-x="454" 
d="M301 1561h-154v172h154v-172z" />
    <glyph glyph-name="caron.alt" unicode="&#xe30b;" horiz-adv-x="569" 
d="M115 1116h-92l36 336h125z" />
    <glyph glyph-name="commaaccent" unicode="&#xe30c;" horiz-adv-x="454" 
d="M209 -444h-117l78 294h152z" />
    <glyph glyph-name="commaaccent.alt" unicode="&#xe30d;" horiz-adv-x="454" 
d="M262 1171h-145l112 295h111z" />
    <glyph glyph-name="uniF8FF" unicode="&#xf8ff;" horiz-adv-x="1048" 
d="M1049 0h-1049v1470h1049v-1470zM946 102v1264h-844v-1264h844zM569 240h-114v137h114v-137zM555 479h-94q-4 29 -4 62q0 75 20.5 125.5t87.5 121.5q11 12 33.5 34.5t33 34t24 31t19 39.5t5.5 44q0 74 -46.5 124t-109.5 50q-69 0 -112.5 -48.5t-55.5 -146.5l-102 17
q12 135 84 207.5t192 72.5q110 0 182 -74t72 -194q0 -74 -29 -127t-102 -121q-62 -58 -80 -89.5t-18 -92.5v-70z" />
    </font>
</defs>
</svg>
