<?xml version="1.0" standalone="no"?>
<!DOCTYPE svg PUBLIC "-//W3C//DTD SVG 1.1//EN" "http://www.w3.org/Graphics/SVG/1.1/DTD/svg11.dtd" >
<svg xmlns="http://www.w3.org/2000/svg" xmlns:xlink="http://www.w3.org/1999/xlink" version="1.1">
<metadata>
Created by FontForge 20201107 at Sat Aug  3 09:41:42 2024
 By 
Copyright (c) 2014 - 2016 Monotype Imaging Inc. All rights reserved.
</metadata>
<defs>
<font id="FrutigerLTPro-BoldItalic" horiz-adv-x="1138" >
  <font-face 
    font-family="Frutiger LT Pro 45 Light"
    font-weight="700"
    font-style="italic"
    font-stretch="normal"
    units-per-em="2048"
    panose-1="2 11 7 3 3 5 4 9 2 4"
    ascent="1536"
    descent="-512"
    x-height="1055"
    cap-height="1430"
    bbox="-344 -512 2226 1915"
    underline-thickness="102"
    underline-position="-255"
    slope="-12"
    unicode-range="U+000D-FB02"
  />
<missing-glyph horiz-adv-x="1048" 
d="M1049 0h-1049v1470h1049v-1470zM946 102v1264h-844v-1264h844zM569 240h-114v137h114v-137zM555 479h-94q-4 29 -4 62q0 75 20.5 125.5t87.5 121.5q11 12 33.5 34.5t33 34t24 31t19 39.5t5.5 44q0 74 -46.5 124t-109.5 50q-69 0 -112.5 -48.5t-55.5 -146.5l-102 17
q12 135 84 207.5t192 72.5q110 0 182 -74t72 -194q0 -74 -29 -127t-102 -121q-61 -57 -78 -86.5t-18 -91.5z" />
    <glyph glyph-name="fi" unicode="fi" horiz-adv-x="1366" 
d="M416 0h-275l181 854h-213l43 201h213l10 47q24 114 60 196t90 142.5t129.5 90.5t174.5 30q83 0 170 -27l-63 -205q-39 19 -84 19q-42 0 -75.5 -18t-56.5 -52.5t-38.5 -73.5t-28.5 -90l-14 -59h246l-43 -201h-246zM1384 1247h-274l57 262h275zM1116 0h-274l225 1055h274z
" />
    <glyph glyph-name="fl" unicode="fl" horiz-adv-x="1366" 
d="M416 0h-275l181 854h-213l43 201h213l10 47q24 114 60 196t90 142.5t129.5 90.5t174.5 30q83 0 170 -27l-63 -205q-39 19 -84 19q-42 0 -75.5 -18t-56.5 -52.5t-38.5 -73.5t-28.5 -90l-14 -59h246l-43 -201h-246zM1116 0h-274l325 1536h275z" />
    <glyph glyph-name=".notdef" horiz-adv-x="1048" 
d="M1049 0h-1049v1470h1049v-1470zM946 102v1264h-844v-1264h844zM569 240h-114v137h114v-137zM555 479h-94q-4 29 -4 62q0 75 20.5 125.5t87.5 121.5q11 12 33.5 34.5t33 34t24 31t19 39.5t5.5 44q0 74 -46.5 124t-109.5 50q-69 0 -112.5 -48.5t-55.5 -146.5l-102 17
q12 135 84 207.5t192 72.5q110 0 182 -74t72 -194q0 -74 -29 -127t-102 -121q-61 -57 -78 -86.5t-18 -91.5z" />
    <glyph glyph-name=".null" horiz-adv-x="0" 
 />
    <glyph glyph-name="nonmarkingreturn" horiz-adv-x="682" 
 />
    <glyph glyph-name="NULL" horiz-adv-x="0" 
 />
    <glyph glyph-name="NULL" horiz-adv-x="0" 
 />
    <glyph glyph-name="CR" unicode="&#xd;" horiz-adv-x="569" 
 />
    <glyph glyph-name="space" unicode=" " horiz-adv-x="569" 
 />
    <glyph glyph-name="exclam" unicode="!" horiz-adv-x="796" 
d="M500 420h-228l164 1010h322zM444 0h-286l59 287h287z" />
    <glyph glyph-name="quotedbl" unicode="&#x22;" horiz-adv-x="1024" 
d="M549 918h-250v512h250v-512zM924 918h-250v512h250v-512z" />
    <glyph glyph-name="numbersign" unicode="#" 
d="M805 0h-182l57 420h-213l-57 -420h-181l58 420h-189l23 164h188l37 262h-188l22 164h189l57 420h182l-59 -420h211l57 420h182l-59 -420h188l-22 -164h-184l-37 -262h188l-22 -164h-189zM700 584l35 262h-207l-34 -262h206z" />
    <glyph glyph-name="dollar" unicode="$" 
d="M481 -203h-106l37 178q-102 0 -209.5 23t-184.5 59l74 250q90 -51 175 -78.5t190 -27.5l88 426q-192 85 -268 181.5t-76 215.5q0 137 71.5 236t186.5 146.5t258 47.5l35 172h102l-35 -172q68 0 171.5 -20.5t166.5 -47.5l-72 -233q-158 76 -299 76h-12l-78 -373l25 -12
q40 -20 64 -33t63 -36.5t63 -44t53 -51.5t45.5 -62t28 -72t11.5 -86q0 -219 -141.5 -351t-389.5 -133zM602 901l70 328q-81 -6 -133 -50.5t-52 -117.5q0 -56 29 -93t86 -67zM643 582l-80 -381q98 22 148.5 76.5t50.5 138.5q0 100 -119 166z" />
    <glyph glyph-name="percent" unicode="%" horiz-adv-x="2048" 
d="M604 -45h-174l1110 1520h174zM549 700q-135 0 -211 75t-76 214q0 92 24.5 174.5t71.5 148t122 104t169 38.5q139 0 225.5 -70.5t86.5 -203.5q0 -93 -27 -178t-77 -153t-130 -108.5t-178 -40.5zM567 864q52 0 90 32.5t56.5 85t26.5 104.5t8 106q0 98 -107 98
q-46 0 -80.5 -33t-52 -85t-25.5 -103t-8 -100q0 -57 27 -81t65 -24zM1458 -25q-135 0 -211 75t-76 214q0 92 25 174.5t72 148t122 104t169 38.5q139 0 225 -70.5t86 -203.5q0 -93 -27 -178t-77 -153t-130 -108.5t-178 -40.5zM1477 139q52 0 89.5 32.5t56 85t26.5 104.5
t8 106q0 98 -107 98q-46 0 -80.5 -33t-52 -85t-25.5 -103t-8 -100q0 -57 27.5 -81t65.5 -24z" />
    <glyph glyph-name="ampersand" unicode="&#x26;" horiz-adv-x="1478" 
d="M1370 0h-307l-51 82q-66 -47 -176 -77t-213 -30q-102 0 -191 25t-158 74t-109 128t-40 179q0 155 101 269.5t292 174.5q-54 70 -77 128t-23 139q0 88 35.5 158.5t95.5 114t136 66.5t161 23q53 0 107 -12t106 -38.5t92.5 -64t65 -92.5t24.5 -119q0 -137 -89.5 -233.5
t-283.5 -165.5l207 -297q120 178 125 344h250q-19 -153 -81.5 -292t-164.5 -242zM756 903q248 68 248 225q0 61 -38.5 93t-107.5 32q-73 0 -125.5 -43.5t-52.5 -126.5q0 -74 76 -180zM891 260l-254 385q-124 -45 -181 -103.5t-57 -146.5q0 -104 69 -155.5t181 -51.5
q145 0 242 72z" />
    <glyph glyph-name="quotesingle" unicode="'" horiz-adv-x="569" 
d="M524 918h-250v512h250v-512z" />
    <glyph glyph-name="parenleft" unicode="(" horiz-adv-x="681" 
d="M508 -287h-234q-99 305 -132 480t-33 311q0 97 15 189.5t32 162t61.5 156.5t70 135t93 138.5t95 124.5t109.5 134q2 3 3 4h291q-63 -76 -101.5 -124.5t-90.5 -118.5t-83.5 -123.5t-68.5 -124t-58.5 -137t-41 -146t-28 -167t-8.5 -185.5q0 -352 109 -709z" />
    <glyph glyph-name="parenright" unicode=")" horiz-adv-x="681" 
d="M168 -287h-291q134 159 217.5 279.5t146 255t89 276t26.5 316.5q0 354 -108 708h233q101 -305 133.5 -481.5t32.5 -308.5q0 -129 -24 -247t-61 -211.5t-104 -200t-129 -187.5t-161 -199z" />
    <glyph glyph-name="asterisk" unicode="*" 
d="M928 705l-205 -95l-92 283l-211 -234l-148 162l254 176l-270 119l115 197l243 -178l29 295l215 -48l-94 -278l291 55l16 -213h-289z" />
    <glyph glyph-name="plus" unicode="+" horiz-adv-x="1228" 
d="M1165 412h-413v-412h-213v412h-414v213h414v411h213v-411h413v-213z" />
    <glyph glyph-name="comma" unicode="," horiz-adv-x="569" 
d="M170 -225h-246l209 512h309z" />
    <glyph glyph-name="hyphen" unicode="-" horiz-adv-x="796" 
d="M659 438h-538l47 226h539z" />
    <glyph glyph-name="period" unicode="." horiz-adv-x="569" 
d="M330 0h-287l59 287h287z" />
    <glyph glyph-name="slash" unicode="/" horiz-adv-x="569" 
d="M63 -25h-237l780 1479h238z" />
    <glyph glyph-name="zero" unicode="0" 
d="M510 -25q-207 0 -311.5 135.5t-104.5 368.5q0 82 10.5 170.5t34 184t58.5 184t86.5 168.5t114.5 139t147 94t180 35q201 0 304.5 -120t103.5 -355q0 -88 -9.5 -180t-31.5 -191.5t-55 -189.5t-83.5 -172t-113 -141.5t-147.5 -94.5t-183 -35zM528 188q71 0 130.5 75.5
t95 183.5t60.5 232t34.5 214.5t9.5 138.5q0 96 -32.5 152.5t-100.5 56.5q-74 0 -136.5 -68t-101.5 -167.5t-67 -217t-39.5 -212.5t-11.5 -158q0 -36 5.5 -69t20 -73t49 -64t84.5 -24z" />
    <glyph glyph-name="one" unicode="1" 
d="M684 0h-287l244 1104l-262 -182l-125 194l479 314h260z" />
    <glyph glyph-name="two" unicode="2" 
d="M922 0h-940l45 236q59 59 327 270q137 108 229 195t136.5 148t61 102t16.5 77q0 95 -62 148t-153 53q-156 0 -330 -123l-6 256q231 92 385 92q134 0 237 -42t165.5 -131t62.5 -214q0 -52 -12 -104t-48.5 -123.5t-96 -146t-161.5 -169.5t-239 -196l-131 -99v-4h557z" />
    <glyph glyph-name="three" unicode="3" 
d="M778 750v-7q124 -44 182 -116.5t58 -182.5q0 -93 -31.5 -170.5t-86 -132t-129 -92.5t-160 -56t-179.5 -18q-245 0 -418 82l52 219q93 -43 169.5 -59t176.5 -16q55 0 107 13t98 39.5t74 73.5t28 109q0 58 -30 97t-85.5 59t-116.5 27.5t-141 7.5h-29l39 225h41
q95 0 166 10.5t130.5 35.5t90.5 72t31 115q0 73 -59.5 108.5t-157.5 35.5q-154 0 -313 -76l28 240q196 61 359 61q89 0 167 -20.5t140.5 -61t98.5 -107.5t36 -153q0 -142 -87 -234t-249 -128z" />
    <glyph glyph-name="four" unicode="4" 
d="M825 0h-274l63 297h-587l30 244l715 889h356l-198 -920h200l-45 -213h-196zM662 510l145 670h-4l-490 -670h349z" />
    <glyph glyph-name="five" unicode="5" 
d="M76 43l47 231q175 -73 307 -73q145 0 239.5 75.5t94.5 202.5q0 108 -78 164.5t-217 56.5q-127 0 -252 -41l172 771h819l-45 -213h-549l-65 -293h4q4 0 11 0.5t15 1t18 0.5h19q217 0 332 -116.5t115 -317.5q0 -158 -78 -276.5t-211.5 -179.5t-304.5 -61q-203 0 -393 68z
" />
    <glyph glyph-name="six" unicode="6" 
d="M1192 1395l-72 -209q-105 43 -237 43q-72 0 -135 -22.5t-108 -58t-82.5 -85.5t-61 -100t-41.5 -107h4q103 68 223 68q180 0 283.5 -104.5t103.5 -289.5q0 -116 -34.5 -216.5t-98.5 -176t-163 -119t-220 -43.5q-214 0 -326 129.5t-112 376.5q0 144 27 281.5t86 263.5
t144.5 220.5t212 151t277.5 56.5q86 0 182 -17.5t148 -41.5zM551 188q61 0 107.5 31.5t72.5 82.5t38.5 106.5t12.5 111.5q0 88 -40.5 139.5t-127.5 51.5q-72 0 -125 -47t-76.5 -114.5t-23.5 -143.5q0 -90 44 -154t118 -64z" />
    <glyph glyph-name="seven" unicode="7" 
d="M412 0h-332l772 1204h-643l43 226h948l-53 -261z" />
    <glyph glyph-name="eight" unicode="8" 
d="M887 752q93 -54 142.5 -134t49.5 -178q0 -222 -145 -343.5t-397 -121.5q-123 0 -228 43.5t-172 131t-67 202.5q0 316 346 420q-80 49 -124 120.5t-44 149.5q0 134 69 228.5t181 139t256 44.5q79 0 153.5 -19t139 -56t104 -101t39.5 -145q0 -148 -78.5 -246t-224.5 -135z
M680 846q123 45 185.5 99t62.5 142q0 74 -57.5 114t-137.5 40q-85 0 -154 -53.5t-69 -136.5q0 -100 170 -205zM631 647q-275 -101 -275 -266q0 -93 59 -143t150 -50q93 0 160.5 61.5t67.5 160.5q0 40 -11 72.5t-33 58.5t-47 48t-60 50q-7 5 -11 8z" />
    <glyph glyph-name="nine" unicode="9" 
d="M782 573h-4q-102 -67 -223 -67q-179 0 -283 104t-104 287q0 159 59.5 284t178 199t278.5 74q214 0 326 -129t112 -379q0 -146 -27.5 -283.5t-87.5 -263t-145.5 -219.5t-211 -149.5t-275.5 -55.5q-83 0 -177.5 17.5t-152.5 42.5l72 209q105 -43 237 -43q152 0 260.5 94.5
t167.5 277.5zM621 719q57 0 102.5 28t71.5 73.5t39.5 97.5t13.5 106q0 85 -42 151t-122 66q-74 0 -127.5 -50.5t-77.5 -124t-24 -157.5q0 -90 41.5 -140t124.5 -50z" />
    <glyph glyph-name="colon" unicode=":" horiz-adv-x="569" 
d="M489 768h-286l59 287h287zM330 0h-287l59 287h287z" />
    <glyph glyph-name="semicolon" unicode=";" horiz-adv-x="569" 
d="M489 768h-286l59 287h287zM170 -225h-246l209 512h309z" />
    <glyph glyph-name="less" unicode="&#x3c;" horiz-adv-x="1228" 
d="M1165 -16l-1040 446v176l1040 447v-209l-764 -326l764 -325v-209z" />
    <glyph glyph-name="equal" unicode="=" horiz-adv-x="1228" 
d="M1165 635h-1040v213h1040v-213zM1165 188h-1040v213h1040v-213z" />
    <glyph glyph-name="greater" unicode="&#x3e;" horiz-adv-x="1228" 
d="M1165 430l-1040 -446v209l764 325l-764 326v209l1040 -447v-176z" />
    <glyph glyph-name="question" unicode="?" horiz-adv-x="1024" 
d="M571 420h-249q15 132 70 225.5t175 188.5q4 3 26 20.5t28 22.5t25 21t25.5 24t20.5 24t19.5 28.5t13 29t10 34.5t2.5 37q0 44 -23.5 78t-60.5 52t-76 27t-77 9q-137 0 -254 -51v229q175 35 291 35q73 0 141.5 -12t134.5 -40t114.5 -70t78.5 -106.5t30 -144.5
q0 -105 -50.5 -184t-160.5 -166q-46 -36 -58.5 -46t-49 -41.5t-48.5 -44.5t-36.5 -40t-33 -45.5t-17.5 -43.5t-11 -50zM516 0h-287l60 287h286z" />
    <glyph glyph-name="at" unicode="@" horiz-adv-x="1638" 
d="M1341 293h175q-216 -318 -648 -318q-110 0 -216.5 29.5t-201.5 91t-167.5 148t-115 208t-42.5 263.5q0 152 60.5 288.5t165 235.5t252.5 157t315 58q104 0 202.5 -22.5t188 -71t156.5 -117.5t107 -170t40 -221q0 -119 -41 -219.5t-101.5 -163t-133.5 -106.5t-134 -62
t-106 -18q-46 0 -78 27.5t-33 78.5h-4q-94 -106 -207 -106q-129 0 -223 95.5t-94 244.5q0 130 55.5 243t153.5 180.5t213 67.5q152 0 237 -131l25 98h172l-109 -479q-18 -79 -18 -88q0 -31 31 -31q41 0 80.5 22t74 64.5t55.5 114.5t21 162q0 91 -29 163t-78 119.5t-117.5 79
t-144 45t-161.5 13.5q-124 0 -233.5 -45t-184.5 -120.5t-118.5 -176t-43.5 -209.5q0 -156 67.5 -282t189.5 -197.5t275 -71.5q317 0 471 129zM823 483q95 0 161.5 83t66.5 184q0 71 -41 117t-113 46q-93 0 -160 -81t-67 -181q0 -74 41.5 -121t111.5 -47z" />
    <glyph glyph-name="A" unicode="A" horiz-adv-x="1478" 
d="M1358 0h-287l-49 328h-608l-183 -328h-317l866 1430h318zM983 553l-90 623h-8l-344 -623h442z" />
    <glyph glyph-name="B" unicode="B" horiz-adv-x="1251" 
d="M457 0h-414l299 1430h424q204 0 318 -87t114 -256q0 -125 -86.5 -221t-218.5 -118v-5q116 -18 172.5 -99t56.5 -202q0 -150 -83.5 -250.5t-229.5 -146t-352 -45.5zM496 852h110q144 0 224.5 51.5t80.5 157.5q0 76 -52.5 109.5t-166.5 33.5h-121zM365 225h114
q83 0 144 10.5t111 37t76 75t26 119.5q0 47 -19.5 80t-47 50.5t-72.5 27.5t-80 12t-85 2h-81z" />
    <glyph glyph-name="C" unicode="C" horiz-adv-x="1251" 
d="M1149 289l-45 -275q-142 -39 -324 -39q-305 0 -472 182t-167 496q0 174 58 322t163.5 254t260 165.5t340.5 59.5q245 0 417 -70l-71 -239q-122 84 -328 84q-237 0 -389 -161t-152 -415q0 -118 47.5 -220t142.5 -167t218 -65q155 0 301 88z" />
    <glyph glyph-name="D" unicode="D" horiz-adv-x="1478" 
d="M549 0h-486l302 1430h430q310 0 474.5 -155.5t164.5 -455.5q0 -125 -28.5 -239.5t-95 -221.5t-166 -185.5t-252.5 -125.5t-343 -47zM399 225h138q287 0 442.5 160.5t155.5 472.5q0 161 -114 253.5t-323 92.5h-94z" />
    <glyph glyph-name="E" unicode="E" 
d="M915 0h-852l302 1430h841l-43 -226h-559l-74 -352h500l-45 -225h-502l-84 -402h566z" />
    <glyph glyph-name="F" unicode="F" horiz-adv-x="1024" 
d="M350 0h-287l302 1430h788l-49 -226h-500l-76 -352h478l-45 -225h-480z" />
    <glyph glyph-name="G" unicode="G" horiz-adv-x="1478" 
d="M995 215l80 379h-303l47 225h580l-164 -780q-66 -27 -174.5 -45.5t-208.5 -18.5q-341 0 -520.5 163t-179.5 472q0 259 108 451t302 292.5t450 100.5q264 0 475 -80l-72 -248q-159 103 -395 103q-127 0 -234 -47t-180 -128.5t-114 -194t-41 -241.5q0 -112 47 -206
t140.5 -152.5t217.5 -58.5q103 0 139 14z" />
    <glyph glyph-name="H" unicode="H" horiz-adv-x="1478" 
d="M1214 0h-286l131 627h-578l-131 -627h-287l299 1430h287l-121 -578h578l121 578h286z" />
    <glyph glyph-name="I" unicode="I" horiz-adv-x="569" 
d="M334 0h-299l301 1430h299z" />
    <glyph glyph-name="J" unicode="J" horiz-adv-x="796" 
d="M-70 4l66 244q67 -23 131 -23q42 0 76 11t57.5 33t39.5 44.5t27.5 57t17.5 57.5t13 58q1 7 2 10l195 934h287l-201 -975q-19 -94 -40.5 -161t-57.5 -131t-84.5 -102.5t-121 -62t-167.5 -23.5q-129 0 -240 29z" />
    <glyph glyph-name="K" unicode="K" horiz-adv-x="1366" 
d="M1245 0h-342l-397 725l-156 -725h-287l308 1430h286l-120 -562h6l567 562h397l-723 -652z" />
    <glyph glyph-name="L" unicode="L" horiz-adv-x="1024" 
d="M893 0h-846l303 1430h287l-256 -1205h561z" />
    <glyph glyph-name="M" unicode="M" horiz-adv-x="1933" 
d="M1675 0h-303l270 1184h-4l-647 -1184h-274l-115 1184h-4l-262 -1184h-273l304 1430h473l96 -1031h4l563 1031h477z" />
    <glyph glyph-name="N" unicode="N" horiz-adv-x="1478" 
d="M1225 0h-369l-299 1096h-4l-227 -1096h-275l307 1430h363l305 -1086h4l234 1086h270z" />
    <glyph glyph-name="O" unicode="O" horiz-adv-x="1593" 
d="M707 -25q-254 0 -410 163t-156 431q0 89 17 179.5t51.5 177.5t84 165.5t118 144.5t149 114.5t181.5 76t212 27.5q285 0 440.5 -158t155.5 -448q0 -73 -12 -150.5t-41 -164t-72.5 -165.5t-111.5 -151.5t-152.5 -125.5t-201 -84.5t-252.5 -31.5zM741 201q95 0 179 43.5
t143.5 114.5t102.5 160t64 181.5t21 178.5q0 154 -79 252t-228 98q-95 0 -178 -42t-141.5 -111t-101 -157t-63 -181.5t-20.5 -182.5q0 -158 79 -256t222 -98z" />
    <glyph glyph-name="P" unicode="P" 
d="M330 0h-287l303 1430h272q84 0 152.5 -5.5t139.5 -20t123.5 -41.5t94.5 -66.5t64 -100t22 -137.5q0 -122 -47 -221t-129 -163t-191.5 -98t-236.5 -34h-166zM494 768h98q142 0 232.5 70.5t90.5 189.5q0 176 -237 176h-92z" />
    <glyph glyph-name="Q" unicode="Q" horiz-adv-x="1593" 
d="M1327 -270h-342l-209 247q-12 -2 -65 -2q-113 0 -207.5 32t-160.5 87.5t-112 131.5t-68 163.5t-22 183.5q0 119 31.5 241t98.5 237t160.5 204.5t229.5 144t293 54.5q285 0 440.5 -158t155.5 -448q0 -183 -67.5 -355t-188 -296t-268.5 -168zM741 201q93 0 176 42.5
t143 112t104 158t65.5 182.5t21.5 183q0 154 -79 252t-228 98q-95 0 -178.5 -42.5t-142 -112t-100.5 -158t-62.5 -181t-20.5 -180.5q0 -159 79.5 -256.5t221.5 -97.5z" />
    <glyph glyph-name="R" unicode="R" horiz-adv-x="1251" 
d="M1114 0h-301l-78 377q-2 11 -7.5 41t-8 41.5t-9.5 35t-14 34t-19 26t-26.5 22t-36 12t-47.5 5.5h-112l-125 -594h-287l299 1430h403q75 0 132.5 -4.5t118.5 -16.5t104 -36t78.5 -60.5t53 -92t17.5 -128.5q0 -176 -116.5 -277t-301.5 -104v-4q37 -2 65.5 -17t45 -38.5
t24.5 -43t13 -41.5zM506 819h100q162 0 253 60t91 176q0 38 -11 65t-29.5 43t-47.5 25.5t-58.5 12.5t-70.5 3h-147z" />
    <glyph glyph-name="S" unicode="S" 
d="M20 55l74 244q209 -98 350 -98q115 0 194 59t79 164q0 72 -47 120t-148 105q-36 20 -49 27.5t-45.5 28t-46.5 31.5t-40 32.5t-38 38.5t-29.5 42.5t-25 50t-13.5 56.5t-6 66q0 105 42 188.5t115.5 136t169.5 80t208 27.5q212 0 369 -63l-68 -236q-145 74 -297 74
q-57 0 -108.5 -14.5t-91.5 -53t-40 -96.5q0 -67 49.5 -113t178.5 -121q45 -26 77.5 -49t69 -58t59.5 -71.5t38.5 -88.5t15.5 -111q0 -159 -75.5 -268t-205.5 -159.5t-307 -50.5q-188 0 -408 80z" />
    <glyph glyph-name="T" unicode="T" 
d="M614 0h-299l260 1204h-403l49 226h1104l-47 -226h-404z" />
    <glyph glyph-name="U" unicode="U" horiz-adv-x="1478" 
d="M1090 676l161 754h283l-188 -857q-67 -308 -221.5 -453t-434.5 -145q-520 0 -520 453q0 110 27 236l161 766h287l-156 -725q-32 -147 -32 -240q0 -264 235 -264q75 0 134 23t99 61t72 101t52.5 129.5t40.5 160.5z" />
    <glyph glyph-name="V" unicode="V" horiz-adv-x="1366" 
d="M750 0h-342l-189 1430h287l133 -1113h4l594 1113h311z" />
    <glyph glyph-name="W" unicode="W" horiz-adv-x="2048" 
d="M1544 0h-358l-15 1143h-4l-503 -1143h-355l-90 1430h287l43 -1096h4l475 1096h385l6 -1096h4l506 1096h297z" />
    <glyph glyph-name="X" unicode="X" horiz-adv-x="1366" 
d="M1249 0h-313l-219 573h-4l-447 -573h-356l661 776l-313 654h309l207 -492h4l393 492h338l-591 -682z" />
    <glyph glyph-name="Y" unicode="Y" horiz-adv-x="1366" 
d="M717 0h-287l125 592l-336 838h303l213 -601l465 601h334l-692 -838z" />
    <glyph glyph-name="Z" unicode="Z" 
d="M977 0h-1004l45 225l861 979h-625l49 226h981l-49 -226l-862 -979h651z" />
    <glyph glyph-name="bracketleft" unicode="[" horiz-adv-x="796" 
d="M530 -287h-467l406 1835h467l-43 -200h-217l-318 -1434h215z" />
    <glyph glyph-name="backslash" unicode="\" horiz-adv-x="569" 
d="M692 -25h-213l-499 1479h213z" />
    <glyph glyph-name="bracketright" unicode="]" horiz-adv-x="796" 
d="M406 -287h-467l43 201h217l317 1434h-215l43 200h467z" />
    <glyph glyph-name="asciicircum" unicode="^" horiz-adv-x="1228" 
d="M1135 641h-213l-267 573l-266 -573h-213l383 789h193z" />
    <glyph glyph-name="underscore" unicode="_" horiz-adv-x="1024" 
d="M1024 -256h-1024v102h1024v-102z" />
    <glyph glyph-name="grave" unicode="`" horiz-adv-x="569" 
d="M606 1198h-174l-264 299h272z" />
    <glyph glyph-name="a" unicode="a" 
d="M915 0h-231l29 162h-4q-78 -100 -157.5 -143.5t-182.5 -43.5q-149 0 -237.5 80.5t-88.5 220.5q0 88 33.5 155.5t105.5 117.5t193.5 76t290.5 26h120q9 65 9 90q0 41 -21.5 70.5t-56.5 43t-67 19t-66 5.5q-171 0 -346 -82l38 219q180 63 359 63q196 0 302.5 -83
t106.5 -240q0 -77 -30 -232l-64 -319q-31 -164 -35 -205zM756 487h-103q-166 0 -257 -50.5t-91 -147.5q0 -55 41.5 -84t97.5 -29q125 0 199 72.5t113 238.5z" />
    <glyph glyph-name="b" unicode="b" horiz-adv-x="1251" 
d="M301 0h-258l326 1536h280l-137 -594l8 4q119 133 285 133q182 0 283.5 -113t101.5 -315q0 -100 -21.5 -196t-66.5 -183.5t-108.5 -153t-155 -104.5t-199.5 -39q-118 0 -178 35t-123 140h-4zM600 188q66 0 119.5 31.5t86.5 80.5t56 110.5t32 119t9 109.5q0 105 -51 166
t-141 61q-67 0 -124 -41.5t-92.5 -106.5t-55 -139t-19.5 -143q0 -117 45 -182.5t135 -65.5z" />
    <glyph glyph-name="c" unicode="c" horiz-adv-x="909" 
d="M827 242l-30 -217q-100 -50 -265 -50q-203 0 -325.5 125t-122.5 330q0 188 78 335.5t220.5 230.5t324.5 83q142 0 274 -41l-68 -225q-80 53 -200 53q-80 0 -146 -35t-108 -92.5t-65 -129t-23 -146.5q0 -275 233 -275q112 0 223 54z" />
    <glyph glyph-name="d" unicode="d" horiz-adv-x="1251" 
d="M1024 0h-256l27 156h-4q-67 -94 -151 -137.5t-194 -43.5q-118 0 -201.5 61t-122 159t-38.5 221q0 95 20 188t63 179t104 151.5t150 105t193 39.5q196 0 326 -149l133 606h275l-281 -1284q-11 -52 -22 -115t-16 -100zM539 188q73 0 135 39.5t101 102.5t61 137.5t22 148.5
q0 64 -19.5 118.5t-66.5 93t-115 38.5q-67 0 -123.5 -43t-90.5 -109t-53 -138.5t-19 -137.5q0 -117 43.5 -183.5t124.5 -66.5z" />
    <glyph glyph-name="e" unicode="e" 
d="M944 252l-35 -217q-189 -60 -336 -60q-242 0 -374.5 119.5t-132.5 341.5q0 119 44.5 235t122 206.5t191 146t242.5 55.5q205 0 318.5 -105t113.5 -296q0 -107 -27 -236h-743q0 -137 71.5 -201.5t221.5 -64.5q155 0 323 76zM365 631h464q7 41 7 71q0 31 -7 58.5t-24 56
t-54.5 45.5t-91.5 17q-104 0 -175 -57t-119 -191z" />
    <glyph glyph-name="f" unicode="f" horiz-adv-x="796" 
d="M416 0h-275l181 854h-213l43 201h213l10 47q24 114 60 196t90 142.5t129.5 90.5t174.5 30q83 0 170 -27l-63 -205q-39 19 -84 19q-42 0 -75.5 -18t-56.5 -52.5t-38.5 -73.5t-28.5 -90l-14 -59h246l-43 -201h-246z" />
    <glyph glyph-name="g" unicode="g" horiz-adv-x="1251" 
d="M811 201h-4q-54 -96 -147.5 -148.5t-206.5 -52.5q-73 0 -134 23.5t-103.5 64.5t-72 97.5t-43.5 122t-14 138.5q0 120 36.5 233t103 202.5t169.5 143.5t226 54q103 0 187 -47t134 -131l31 154h264q-16 -58 -35 -148l-176 -829q-57 -268 -198.5 -400.5t-391.5 -132.5
q-235 0 -426 72l70 223q98 -41 174.5 -61.5t157.5 -20.5t142.5 25t96.5 52t68 95.5t44 102t36 126.5zM549 213q99 0 170.5 64t104 159.5t32.5 206.5q0 96 -52.5 159.5t-148.5 63.5q-55 0 -102 -27.5t-79.5 -71t-55.5 -99t-34 -111.5t-11 -108q0 -46 9 -86t28.5 -74.5t55 -55
t83.5 -20.5z" />
    <glyph glyph-name="h" unicode="h" horiz-adv-x="1251" 
d="M1016 0h-275l105 508q28 148 28 211q0 65 -41 106t-108 41q-120 0 -191.5 -90t-105.5 -256l-111 -520h-274l328 1536h274l-131 -584h4q140 127 299 127q158 0 251 -92t93 -246q0 -29 -4.5 -66t-8 -55.5t-13.5 -66.5t-11 -51z" />
    <glyph glyph-name="i" unicode="i" horiz-adv-x="569" 
d="M586 1247h-275l58 262h274zM317 0h-274l225 1055h275z" />
    <glyph glyph-name="j" unicode="j" horiz-adv-x="569" 
d="M586 1247h-275l58 262h274zM-211 -430l66 201q41 -13 61 -13q42 0 65.5 33.5t36.5 99.5l250 1164h275l-234 -1088q-28 -130 -56 -209t-68 -128t-89.5 -67t-124.5 -18q-91 0 -182 25z" />
    <glyph glyph-name="k" unicode="k" 
d="M1016 0h-309l-273 559h-4l-119 -559h-268l326 1536h274l-182 -864h6l383 383h354l-506 -482z" />
    <glyph glyph-name="l" unicode="l" horiz-adv-x="569" 
d="M317 0h-274l326 1536h274z" />
    <glyph glyph-name="m" unicode="m" horiz-adv-x="1820" 
d="M1595 0h-274l111 512q34 151 34 225q0 58 -36.5 93.5t-94.5 35.5q-61 0 -107.5 -30t-78 -88t-51 -118.5t-37.5 -146.5l-105 -483h-274l113 522q32 150 32 217q0 59 -38 93t-91 34q-46 0 -84 -18t-66 -49t-51.5 -79.5t-40 -102.5t-32.5 -125l-107 -492h-274l172 838
q37 179 43 217h256l-25 -142h5q58 85 144 125.5t179 40.5q102 0 180.5 -56.5t87.5 -143.5h5q36 71 102 118t132.5 64.5t133.5 17.5q121 0 208 -84.5t87 -203.5q0 -36 -5.5 -80.5t-11.5 -73.5t-17.5 -79t-14.5 -66z" />
    <glyph glyph-name="n" unicode="n" horiz-adv-x="1251" 
d="M1016 0h-275l103 498q30 153 30 221q0 66 -41.5 106.5t-107.5 40.5q-121 0 -192 -91t-107 -261l-109 -514h-274l190 885q19 80 31 170h268l-18 -103h4q137 127 299 127q158 0 251 -92t93 -246q0 -29 -4.5 -65t-8 -56t-13.5 -64.5t-11 -51.5z" />
    <glyph glyph-name="o" unicode="o" horiz-adv-x="1251" 
d="M563 -25q-224 0 -351.5 129.5t-127.5 352.5q0 173 82 315.5t225.5 224.5t317.5 82q221 0 352 -125.5t131 -339.5q0 -182 -78.5 -327.5t-222.5 -228.5t-328 -83zM586 188q77 0 140 41t100.5 105.5t58 137.5t20.5 142q0 252 -211 252q-98 0 -174 -66.5t-112.5 -163
t-36.5 -200.5q0 -121 55 -184.5t160 -63.5z" />
    <glyph glyph-name="p" unicode="p" horiz-adv-x="1251" 
d="M225 -430h-274l278 1348q19 91 23 137h260l-31 -140h4q61 86 137.5 125t180.5 39q184 0 285.5 -113t101.5 -315q0 -129 -36 -248.5t-103 -216t-173.5 -154t-236.5 -57.5q-234 0 -291 189h-4zM600 188q80 0 142 46t95.5 117.5t49.5 145t16 142.5q0 105 -51 166t-141 61
q-65 0 -121.5 -40t-92.5 -103t-56.5 -138t-20.5 -149q0 -118 45.5 -183t134.5 -65z" />
    <glyph glyph-name="q" unicode="q" horiz-adv-x="1251" 
d="M913 -430h-274l127 567l-4 4q-91 -166 -316 -166q-170 0 -266 123t-96 318q0 95 20 188t63 179t104 151.5t150 105t193 39.5q127 0 201 -48t113 -152h4l39 176h264q-32 -113 -43 -170zM539 188q73 0 135 39.5t101 102.5t61 137.5t22 148.5q0 64 -19.5 118.5t-66.5 93
t-115 38.5q-67 0 -123.5 -43t-90.5 -108.5t-53 -138t-19 -138.5q0 -67 15 -121t54.5 -91.5t98.5 -37.5z" />
    <glyph glyph-name="r" unicode="r" horiz-adv-x="796" 
d="M317 0h-274l188 913q14 75 25 142h262l-37 -199h4q39 91 130 157t184 66q61 0 102 -10l-57 -268q-50 16 -105 16q-125 0 -207.5 -91.5t-115.5 -252.5z" />
    <glyph glyph-name="s" unicode="s" horiz-adv-x="909" 
d="M-4 39l59 219q147 -82 262 -82q85 0 137 30.5t52 86.5q0 27 -10 49.5t-36.5 46.5t-53 42.5t-78.5 51.5q-88 56 -133 116t-45 144q0 85 37 150.5t101 105.5t144.5 60t173.5 20q130 0 299 -43l-59 -207q-133 50 -225 50q-85 0 -135 -28t-50 -79q0 -36 35.5 -70.5
t116.5 -85.5q106 -68 155.5 -133.5t49.5 -150.5q0 -121 -63 -203t-167.5 -118t-245.5 -36q-185 0 -321 64z" />
    <glyph glyph-name="t" unicode="t" horiz-adv-x="796" 
d="M707 213l-48 -213q-108 -25 -147 -25q-317 0 -317 279q0 91 36 252l76 348h-198l43 201h198l47 217l295 96l-67 -313h245l-43 -201h-245l-97 -442q-16 -77 -16 -119q0 -49 28 -77t76 -28q71 0 134 25z" />
    <glyph glyph-name="u" unicode="u" horiz-adv-x="1251" 
d="M1008 0h-269l19 102h-4q-139 -127 -299 -127q-157 0 -250.5 91.5t-93.5 246.5q0 67 30 211l115 531h274l-102 -496q-2 -11 -8.5 -42.5t-9 -47t-6.5 -41t-5.5 -47t-1.5 -43.5q0 -68 41.5 -109t108.5 -41q110 0 184 82t115 273l108 512h275l-176 -817q-34 -152 -45 -238z
" />
    <glyph glyph-name="v" unicode="v" 
d="M616 0h-303l-178 1055h281l106 -774h4l416 774h291z" />
    <glyph glyph-name="w" unicode="w" horiz-adv-x="1820" 
d="M1343 0h-309l-59 807h-4l-385 -807h-312l-139 1055h275l75 -793h4l388 793h305l57 -793h4l406 793h280z" />
    <glyph glyph-name="x" unicode="x" 
d="M1020 0h-299l-162 403l-315 -403h-328l477 551l-223 504h285l137 -363l297 363h328l-449 -504z" />
    <glyph glyph-name="y" unicode="y" 
d="M322 -51l-187 1106h281l98 -785h4l420 785h301l-733 -1245q-83 -140 -179 -202.5t-223 -62.5q-91 0 -204 29l61 209q65 -25 121 -25q67 0 119.5 43t120.5 148z" />
    <glyph glyph-name="z" unicode="z" horiz-adv-x="1024" 
d="M852 0h-883l43 213l650 629h-486l47 213h830l-45 -213l-646 -629h529z" />
    <glyph glyph-name="braceleft" unicode="{" horiz-adv-x="681" 
d="M477 -287h-178q-104 0 -158.5 50t-54.5 149q0 19 1.5 37.5t5 37.5t6 31.5t7.5 34t7 31.5l51 227q16 69 16 119q0 62 -38 87.5t-111 25.5l39 176q76 0 142.5 44t82.5 118l88 395q27 122 118 197t218 75h172l-35 -164h-84q-50 0 -87.5 -29.5t-57.5 -113.5l-88 -387
q-22 -93 -85.5 -146t-179.5 -75v-4q77 -5 122.5 -38t45.5 -112q0 -43 -14 -108l-80 -355q-12 -53 -12 -73q0 -66 78 -66h98z" />
    <glyph glyph-name="bar" unicode="|" horiz-adv-x="454" 
d="M385 -512h-213v2048h213v-2048z" />
    <glyph glyph-name="braceright" unicode="}" horiz-adv-x="681" 
d="M31 -287h-174l34 164h86q49 0 86.5 29.5t57.5 113.5l88 388q22 94 85 146.5t179 74.5v4q-77 5 -122.5 37.5t-45.5 111.5q0 44 14 109l78 354q13 57 13 74q0 65 -78 65h-96l34 164h176q104 0 158.5 -49.5t54.5 -148.5q0 -20 -1.5 -37.5t-4.5 -38t-5 -30.5t-8 -34.5
t-7 -31.5l-49 -228q-17 -73 -17 -119q0 -61 38 -86.5t112 -25.5l-39 -176q-76 0 -142.5 -44t-82.5 -118l-86 -393q-27 -122 -118 -198.5t-218 -76.5z" />
    <glyph glyph-name="asciitilde" unicode="~" horiz-adv-x="1228" 
d="M1044 700l74 -180q-107 -180 -235 -180q-56 0 -110.5 16.5t-131.5 57.5q-75 40 -120.5 54.5t-96.5 14.5q-58 0 -100.5 -35t-77.5 -112l-74 180q95 180 250 180q65 0 114.5 -15.5t120.5 -51.5q80 -42 126 -59t89 -17t81.5 32.5t90.5 114.5z" />
    <glyph glyph-name="uni00A0" unicode="&#xa0;" horiz-adv-x="569" 
 />
    <glyph glyph-name="exclamdown" unicode="&#xa1;" horiz-adv-x="796" 
d="M580 768h-287l59 287h287zM360 -375h-321l258 1010h227z" />
    <glyph glyph-name="cent" unicode="&#xa2;" 
d="M524 -285h-106l86 281q-145 37 -227 152.5t-82 281.5q0 187 77.5 334.5t219.5 231t325 83.5h14l70 230h107l-72 -240q78 -8 156 -31l-68 -225q-75 47 -147 57l-207 -675q19 -7 47 -7q110 0 221 54l-31 -217q-102 -50 -270 -50q-19 0 -33 2zM573 229l193 637
q-125 -23 -205 -139t-80 -264q0 -170 92 -234z" />
    <glyph glyph-name="sterling" unicode="&#xa3;" 
d="M940 0h-940l47 213h176l99 449h-156l35 163h153l11 54q31 161 80.5 271t124 177.5t169.5 97t224 29.5q145 0 284 -51l-61 -232q-119 58 -211 58q-134 0 -203 -75t-108 -236l-23 -93h317l-34 -163h-316l-98 -449h477z" />
    <glyph glyph-name="currency" unicode="&#xa4;" 
d="M1034 186l-119 119q-134 -94 -292 -94q-159 0 -293 94l-119 -119l-121 121l119 119q-94 134 -94 293q0 162 94 293l-119 118l121 121l119 -118q125 94 293 94q158 0 292 -94l119 118l121 -121l-119 -118q94 -131 94 -291q0 -161 -94 -295l119 -119zM623 424
q117 0 199.5 86.5t82.5 208.5q0 120 -82 207.5t-200 87.5q-117 0 -200 -86.5t-83 -208.5q0 -120 82 -207.5t201 -87.5z" />
    <glyph glyph-name="yen" unicode="&#xa5;" 
d="M977 301h-299l-60 -301h-274l64 301h-299l32 164h295l25 127h-299l33 164h225l-277 674h289l203 -603l442 603h316l-553 -674h227l-33 -164h-299l-28 -127h303z" />
    <glyph glyph-name="brokenbar" unicode="&#xa6;" horiz-adv-x="454" 
d="M385 666h-213v716h213v-716zM385 -358h-213v716h213v-716z" />
    <glyph glyph-name="section" unicode="&#xa7;" 
d="M33 -197l69 207q193 -76 334 -76q44 0 83 6t77 19.5t60 40t22 63.5q0 53 -43 93.5t-143 85.5q-77 34 -125 62t-93.5 68t-66.5 91t-21 117q0 100 67.5 181.5t180.5 121.5q-117 92 -117 211q0 73 25.5 133.5t69 101.5t102 70t123.5 42t135 13q225 0 397 -86l-79 -201
q-132 74 -306 74q-57 0 -107 -12t-86 -42t-36 -73q0 -26 12.5 -49.5t27 -38.5t51 -36t58 -31.5t74.5 -34.5q31 -15 45.5 -22t45.5 -24t47.5 -29.5t42 -33t39.5 -41t29 -46.5t21.5 -57t6.5 -65q0 -93 -65.5 -176.5t-170.5 -124.5q109 -88 109 -205q0 -121 -65 -208.5
t-168.5 -129t-231.5 -41.5q-194 0 -430 82zM682 391q85 42 122.5 85.5t37.5 96.5t-53 99t-154 92q-6 3 -33 15.5t-35 17.5q-96 -44 -132 -88t-36 -95t46 -94.5t141 -85.5q87 -38 96 -43z" />
    <glyph glyph-name="dieresis" unicode="&#xa8;" horiz-adv-x="569" 
d="M299 1247h-233l51 238h233zM725 1247h-233l51 238h233z" />
    <glyph glyph-name="copyright" unicode="&#xa9;" horiz-adv-x="1638" 
d="M864 -25q-150 0 -286.5 58.5t-235.5 157.5t-158 236t-59 288q0 148 57.5 283.5t155.5 236t235.5 160t290.5 59.5q151 0 288 -59t236 -158t157.5 -235.5t58.5 -286.5q0 -149 -58 -285.5t-157 -236t-236.5 -159t-288.5 -59.5zM864 139q146 0 266 72t190.5 204.5t70.5 299.5
q0 164 -68.5 295.5t-189.5 205.5t-271 74q-109 0 -205.5 -42t-166.5 -116.5t-111 -182.5t-41 -234q0 -251 149 -413.5t377 -162.5zM1081 596h170q-23 -146 -122 -228.5t-236 -82.5q-185 0 -301.5 123t-116.5 313q0 187 110.5 311.5t303.5 124.5q144 0 240 -81.5t116 -225.5
h-164q-12 68 -64.5 105.5t-127.5 37.5q-99 0 -156 -72.5t-57 -197.5q0 -113 59.5 -193.5t157.5 -80.5q78 0 129.5 38t58.5 109z" />
    <glyph glyph-name="ordfeminine" unicode="&#xaa;" horiz-adv-x="739" 
d="M733 803h-178l20 98h-4q-40 -59 -92.5 -87t-128.5 -28q-93 0 -148 48t-55 135q0 227 398 227h84q6 48 6 55q0 37 -38.5 58.5t-94.5 21.5q-114 0 -226 -57l25 143q115 37 234 37q136 0 206 -50t70 -147q0 -60 -34 -220.5t-44 -233.5zM602 1085h-53q-225 0 -225 -108
q0 -34 30.5 -51t65.5 -17q67 0 113.5 46t68.5 130z" />
    <glyph glyph-name="guillemotleft" unicode="&#xab;" horiz-adv-x="1251" 
d="M508 131h-236l-178 420l307 420h287l-323 -420zM963 131h-236l-178 420l307 420h287l-324 -420z" />
    <glyph glyph-name="logicalnot" unicode="&#xac;" horiz-adv-x="1228" 
d="M1165 221h-213v414h-827v213h1040v-627z" />
    <glyph glyph-name="uni00AD" unicode="&#xad;" horiz-adv-x="796" 
d="M659 438h-538l47 226h539z" />
    <glyph glyph-name="registered" unicode="&#xae;" horiz-adv-x="1638" 
d="M1204 307h-180l-197 348h-84v-348h-176v821h314q164 0 243.5 -57.5t79.5 -187.5q0 -201 -217 -219zM743 791h152q73 0 103 25t30 81q0 96 -154 96h-131v-202zM864 -25q-150 0 -286.5 58.5t-235.5 157.5t-158 236t-59 288q0 148 57.5 283.5t155.5 236t235.5 160
t290.5 59.5q151 0 288 -59t236 -158t157.5 -235.5t58.5 -286.5q0 -149 -58 -285.5t-157 -236t-236.5 -159t-288.5 -59.5zM864 139q146 0 266 72t190.5 204.5t70.5 299.5q0 164 -68.5 295.5t-189.5 205.5t-271 74q-109 0 -205.5 -42t-166.5 -116.5t-111 -182.5t-41 -234
q0 -251 149 -413.5t377 -162.5z" />
    <glyph glyph-name="macron" unicode="&#xaf;" horiz-adv-x="569" 
d="M719 1266h-610l32 164h609z" />
    <glyph glyph-name="degree" unicode="&#xb0;" horiz-adv-x="819" 
d="M516 795q-142 0 -236 92.5t-94 236.5q0 136 97 233t233 97t233 -97t97 -233q0 -138 -94.5 -233.5t-235.5 -95.5zM696 1124q0 80 -50.5 130.5t-131.5 50.5q-78 0 -128 -51t-50 -130q0 -80 50 -130t130 -50t130 50t50 130z" />
    <glyph glyph-name="plusminus" unicode="&#xb1;" horiz-adv-x="1228" 
d="M1165 553h-413v-272h-213v272h-414v213h414v270h213v-270h413v-213zM1165 0h-1040v213h1040v-213z" />
    <glyph glyph-name="twosuperior" unicode="&#xb2;" horiz-adv-x="739" 
d="M770 877h-653l28 143l379 291q121 93 121 166q0 48 -37 74t-100 26q-86 0 -215 -53l-6 174q157 55 272 55q60 0 112 -10.5t102.5 -34.5t80 -72t29.5 -116q0 -59 -32.5 -122t-77.5 -112t-103.5 -96.5t-100 -75t-77.5 -47.5l-19 -10v-4h326z" />
    <glyph glyph-name="threesuperior" unicode="&#xb3;" horiz-adv-x="739" 
d="M659 1329v-4q156 -52 156 -172q0 -75 -32.5 -132t-89 -90.5t-126.5 -50t-151 -16.5q-177 0 -291 51l33 152q103 -39 223 -39q82 0 139.5 30.5t57.5 84.5q0 50 -44.5 70t-127.5 20h-84l24 164h16q279 0 279 121q0 30 -32.5 50.5t-90.5 20.5q-131 0 -219 -39l18 166
q135 37 254 37q149 0 228.5 -52.5t79.5 -154.5q0 -82 -58 -139.5t-162 -77.5z" />
    <glyph glyph-name="acute" unicode="&#xb4;" horiz-adv-x="569" 
d="M446 1198h-176l166 299h273z" />
    <glyph glyph-name="mu" unicode="&#xb5;" horiz-adv-x="1251" 
d="M1008 0h-269l19 102h-4q-139 -127 -299 -127q-46 0 -76 16.5t-55 53.5l-99 -475h-274l309 1485h270l-100 -488q-2 -13 -8.5 -43.5t-9.5 -48.5t-7 -44t-6 -48.5t-2 -44.5q0 -68 41.5 -109t108.5 -41q113 0 187.5 84.5t111.5 266.5l108 516h275l-176 -817
q-14 -62 -23.5 -112.5t-15 -85t-6.5 -40.5z" />
    <glyph glyph-name="paragraph" unicode="&#xb6;" horiz-adv-x="1269" 
d="M1008 -254h-213l315 1520h-217l-315 -1520h-213l198 952q-182 0 -282.5 73.5t-100.5 203.5q0 32 4.5 66t20 80.5t39.5 87.5t68 82.5t101.5 71t144 48.5t190.5 19h610z" />
    <glyph glyph-name="periodcentered" unicode="&#xb7;" horiz-adv-x="569" 
d="M322 424q-64 0 -111 47.5t-47 110.5q0 65 47.5 111t110.5 46q64 0 110.5 -46t46.5 -111t-46.5 -111.5t-110.5 -46.5z" />
    <glyph glyph-name="cedilla" unicode="&#xb8;" horiz-adv-x="569" 
d="M465 -90h14q209 0 209 -158q0 -58 -26 -100t-72 -64.5t-98.5 -32.5t-114.5 -10q-72 0 -129.5 16t-126.5 48l35 115q98 -56 202 -56q49 0 89 21t40 59q0 40 -35.5 58t-76.5 18q-33 0 -56 -10l64 186h113z" />
    <glyph glyph-name="onesuperior" unicode="&#xb9;" horiz-adv-x="739" 
d="M610 877h-225l145 659l-170 -104l-81 116l307 193h209z" />
    <glyph glyph-name="ordmasculine" unicode="&#xba;" horiz-adv-x="813" 
d="M913 1176q0 -177 -119.5 -283.5t-304.5 -106.5q-154 0 -240.5 77t-86.5 216q0 111 57.5 197.5t153 132t211.5 45.5q145 0 237 -72t92 -206zM502 909q58 0 107.5 39.5t76.5 98t27 116.5q0 71 -34 119.5t-101 48.5q-95 0 -155.5 -79t-60.5 -175q0 -73 35.5 -120.5
t104.5 -47.5z" />
    <glyph glyph-name="guillemotright" unicode="&#xbb;" horiz-adv-x="1251" 
d="M395 131h-286l323 420l-143 420h235l178 -420zM850 131h-287l324 420l-144 420h236l178 -420z" />
    <glyph glyph-name="onequarter" unicode="&#xbc;" horiz-adv-x="1708" 
d="M1528 158h-129l-33 -158h-219l33 158h-379l20 176l455 530h272l-116 -542h133zM1214 322l76 342h-4l-278 -342h206zM569 578h-225l145 659l-170 -104l-81 116l307 193h209zM485 -45h-174l860 1520h175z" />
    <glyph glyph-name="onehalf" unicode="&#xbd;" horiz-adv-x="1708" 
d="M1518 0h-654l29 143l379 291q121 93 121 166q0 48 -37.5 74t-100.5 26q-86 0 -215 -53l-6 174q160 56 273 56q47 0 89 -6t86 -22t76 -41.5t52 -67.5t20 -97q0 -59 -32.5 -122t-77.5 -112t-103.5 -96.5t-100 -75t-77.5 -47.5l-18 -10v-4h325zM569 578h-225l145 659
l-170 -104l-81 116l307 193h209zM455 -45h-174l860 1520h174z" />
    <glyph glyph-name="threequarters" unicode="&#xbe;" horiz-adv-x="1708" 
d="M1587 158h-129l-33 -158h-219l33 158h-379l21 176l454 530h273l-117 -542h133zM1274 322l76 342h-4l-279 -342h207zM618 1030v-4q156 -52 156 -172q0 -75 -32.5 -132t-89 -90.5t-126.5 -50t-151 -16.5q-177 0 -291 51l33 152q103 -39 223 -39q82 0 139.5 30.5t57.5 84.5
q0 50 -44.5 70t-127.5 20h-84l24 164h17q278 0 278 121q0 30 -32.5 50.5t-90.5 20.5q-131 0 -219 -39l18 166q135 37 254 37q149 0 228.5 -52.5t79.5 -154.5q0 -82 -58 -139.5t-162 -77.5zM567 -45h-174l860 1520h174z" />
    <glyph glyph-name="questiondown" unicode="&#xbf;" horiz-adv-x="1024" 
d="M780 -135v-230q-170 -34 -291 -34q-73 0 -142 12t-135 40t-115 69.5t-79 106t-30 144.5q0 105 51.5 184t161.5 167q46 36 58.5 46t49 41.5t48.5 44.5t36.5 40t33 45.5t17.5 43.5t11 50h250q-15 -132 -70.5 -225.5t-175.5 -188.5q-4 -3 -29.5 -23t-32 -25.5t-27.5 -23.5
t-28 -28t-21 -28.5t-19 -34t-10 -36t-5 -42.5q0 -44 23.5 -78t61 -52t77 -27t77.5 -9q137 0 254 51zM735 768h-286l59 287h287z" />
    <glyph glyph-name="Agrave" unicode="&#xc0;" horiz-adv-x="1478" 
d="M1358 0h-287l-49 328h-608l-183 -328h-317l866 1430h318zM983 553l-90 623h-8l-344 -623h442zM1098 1516h-174l-265 299h273z" />
    <glyph glyph-name="Aacute" unicode="&#xc1;" horiz-adv-x="1478" 
d="M1358 0h-287l-49 328h-608l-183 -328h-317l866 1430h318zM983 553l-90 623h-8l-344 -623h442zM1006 1516h-177l166 299h273z" />
    <glyph glyph-name="Acircumflex" unicode="&#xc2;" horiz-adv-x="1478" 
d="M1358 0h-287l-49 328h-608l-183 -328h-317l866 1430h318zM983 553l-90 623h-8l-344 -623h442zM1296 1516h-182l-102 190l-164 -190h-205l264 299h236z" />
    <glyph glyph-name="Atilde" unicode="&#xc3;" horiz-adv-x="1478" 
d="M1358 0h-287l-49 328h-608l-183 -328h-317l866 1430h318zM983 553l-90 623h-8l-344 -623h442zM1253 1815h105q-36 -244 -242 -244q-51 0 -144.5 41t-131.5 41q-39 0 -68.5 -31t-34.5 -70h-104q21 120 80 184t157 64q59 0 154.5 -41t120.5 -41q45 0 69.5 22.5t38.5 74.5z
" />
    <glyph glyph-name="Adieresis" unicode="&#xc4;" horiz-adv-x="1478" 
d="M1358 0h-287l-49 328h-608l-183 -328h-317l866 1430h318zM983 553l-90 623h-8l-344 -623h442zM854 1561h-233l51 237h233zM1280 1561h-233l51 237h233z" />
    <glyph glyph-name="Aring" unicode="&#xc5;" horiz-adv-x="1478" 
d="M1358 0h-287l-49 328h-608l-183 -328h-317l866 1430h318zM983 553l-90 623h-8l-344 -623h442zM1196 1700q0 -86 -63.5 -149.5t-151.5 -63.5q-85 0 -149 63t-64 150q0 88 63.5 151.5t149.5 63.5t150.5 -63t64.5 -152zM1085 1700q0 44 -30 74t-74 30t-73 -30.5t-29 -73.5
t29 -73t73 -30t74 29.5t30 73.5z" />
    <glyph glyph-name="AE" unicode="&#xc6;" horiz-adv-x="1933" 
d="M1647 0h-721l51 328h-506l-240 -328h-317l1030 1430h998l-46 -238h-510l-53 -340h434l-45 -225h-424l-61 -402h459zM1012 553l100 651h-4l-475 -651h379z" />
    <glyph glyph-name="Ccedilla" unicode="&#xc7;" horiz-adv-x="1251" 
d="M1149 289l-45 -275q-142 -39 -316 -39l-22 -65h8q103 0 159 -36.5t56 -123.5q0 -102 -83 -153.5t-228 -51.5q-122 0 -256 64l35 115q101 -56 205 -56q46 0 86 20.5t40 59.5q0 40 -35.5 58t-76.5 18q-32 0 -55 -10l57 168q-256 31 -396.5 208.5t-140.5 462.5q0 173 58 321
t163.5 254t260 166t340.5 60q245 0 417 -70l-71 -239q-123 84 -328 84q-159 0 -283 -75t-191 -206t-67 -295q0 -121 48.5 -223t143 -165.5t216.5 -63.5q151 0 301 88z" />
    <glyph glyph-name="Egrave" unicode="&#xc8;" 
d="M915 0h-852l302 1430h841l-43 -226h-559l-74 -352h500l-45 -225h-502l-84 -402h566zM950 1516h-174l-264 299h272z" />
    <glyph glyph-name="Eacute" unicode="&#xc9;" 
d="M915 0h-852l302 1430h841l-43 -226h-559l-74 -352h500l-45 -225h-502l-84 -402h566zM797 1516h-176l165 299h273z" />
    <glyph glyph-name="Ecircumflex" unicode="&#xca;" 
d="M915 0h-852l302 1430h841l-43 -226h-559l-74 -352h500l-45 -225h-502l-84 -402h566zM1085 1516h-182l-102 190l-164 -190h-205l264 299h236z" />
    <glyph glyph-name="Edieresis" unicode="&#xcb;" 
d="M915 0h-852l302 1430h841l-43 -226h-559l-74 -352h500l-45 -225h-502l-84 -402h566zM684 1561h-233l51 237h233zM1110 1561h-233l51 237h233z" />
    <glyph glyph-name="Igrave" unicode="&#xcc;" horiz-adv-x="569" 
d="M334 0h-299l301 1430h299zM645 1516h-174l-264 299h272z" />
    <glyph glyph-name="Iacute" unicode="&#xcd;" horiz-adv-x="569" 
d="M334 0h-299l301 1430h299zM551 1516h-176l166 299h272z" />
    <glyph glyph-name="Icircumflex" unicode="&#xce;" horiz-adv-x="569" 
d="M334 0h-299l301 1430h299zM844 1516h-182l-103 190l-164 -190h-205l265 299h235z" />
    <glyph glyph-name="Idieresis" unicode="&#xcf;" horiz-adv-x="569" 
d="M334 0h-299l301 1430h299zM399 1561h-233l51 237h234zM825 1561h-233l51 237h234z" />
    <glyph glyph-name="Eth" unicode="&#xd0;" horiz-adv-x="1478" 
d="M516 0h-453l144 676h-121l39 188h121l119 566h403q328 0 497 -154.5t169 -456.5q0 -88 -14.5 -171.5t-47.5 -166t-82.5 -153.5t-123.5 -132t-166.5 -104t-216 -67.5t-267.5 -24.5zM399 225h127q288 0 448.5 161t160.5 472q0 161 -114 253.5t-323 92.5h-94l-72 -340h328
l-39 -188h-327z" />
    <glyph glyph-name="Ntilde" unicode="&#xd1;" horiz-adv-x="1478" 
d="M1225 0h-369l-299 1096h-4l-227 -1096h-275l307 1430h363l305 -1086h4l234 1086h270zM1251 1815h105q-36 -244 -242 -244q-51 0 -144.5 41t-131.5 41q-39 0 -68.5 -31t-34.5 -70h-104q21 120 80 184t157 64q59 0 154.5 -41t120.5 -41q45 0 69.5 22.5t38.5 74.5z" />
    <glyph glyph-name="Ograve" unicode="&#xd2;" horiz-adv-x="1593" 
d="M707 -25q-254 0 -410 163t-156 431q0 89 17 179.5t51.5 177.5t84 165.5t118 144.5t149 114.5t181.5 76t212 27.5q285 0 440.5 -158t155.5 -448q0 -73 -12 -150.5t-41 -164t-72.5 -165.5t-111.5 -151.5t-152.5 -125.5t-201 -84.5t-252.5 -31.5zM741 201q95 0 179 43.5
t143.5 114.5t102.5 160t64 181.5t21 178.5q0 154 -79 252t-228 98q-95 0 -178 -42t-141.5 -111t-101 -157t-63 -181.5t-20.5 -182.5q0 -158 79 -256t222 -98zM1159 1516h-174l-264 299h272z" />
    <glyph glyph-name="Oacute" unicode="&#xd3;" horiz-adv-x="1593" 
d="M707 -25q-254 0 -410 163t-156 431q0 89 17 179.5t51.5 177.5t84 165.5t118 144.5t149 114.5t181.5 76t212 27.5q285 0 440.5 -158t155.5 -448q0 -73 -12 -150.5t-41 -164t-72.5 -165.5t-111.5 -151.5t-152.5 -125.5t-201 -84.5t-252.5 -31.5zM741 201q95 0 179 43.5
t143.5 114.5t102.5 160t64 181.5t21 178.5q0 154 -79 252t-228 98q-95 0 -178 -42t-141.5 -111t-101 -157t-63 -181.5t-20.5 -182.5q0 -158 79 -256t222 -98zM1063 1516h-176l166 299h272z" />
    <glyph glyph-name="Ocircumflex" unicode="&#xd4;" horiz-adv-x="1593" 
d="M707 -25q-254 0 -410 163t-156 431q0 89 17 179.5t51.5 177.5t84 165.5t118 144.5t149 114.5t181.5 76t212 27.5q285 0 440.5 -158t155.5 -448q0 -73 -12 -150.5t-41 -164t-72.5 -165.5t-111.5 -151.5t-152.5 -125.5t-201 -84.5t-252.5 -31.5zM741 201q95 0 179 43.5
t143.5 114.5t102.5 160t64 181.5t21 178.5q0 154 -79 252t-228 98q-95 0 -178 -42t-141.5 -111t-101 -157t-63 -181.5t-20.5 -182.5q0 -158 79 -256t222 -98zM1354 1516h-183l-102 190l-164 -190h-205l265 299h235z" />
    <glyph glyph-name="Otilde" unicode="&#xd5;" horiz-adv-x="1593" 
d="M707 -25q-254 0 -410 163t-156 431q0 89 17 179.5t51.5 177.5t84 165.5t118 144.5t149 114.5t181.5 76t212 27.5q285 0 440.5 -158t155.5 -448q0 -73 -12 -150.5t-41 -164t-72.5 -165.5t-111.5 -151.5t-152.5 -125.5t-201 -84.5t-252.5 -31.5zM741 201q95 0 179 43.5
t143.5 114.5t102.5 160t64 181.5t21 178.5q0 154 -79 252t-228 98q-95 0 -178 -42t-141.5 -111t-101 -157t-63 -181.5t-20.5 -182.5q0 -158 79 -256t222 -98zM1311 1815h104q-36 -244 -241 -244q-51 0 -145 41t-132 41q-39 0 -68 -31t-34 -70h-105q21 119 80.5 183.5
t157.5 64.5q59 0 154 -41t120 -41q45 0 70 22.5t39 74.5z" />
    <glyph glyph-name="Odieresis" unicode="&#xd6;" horiz-adv-x="1593" 
d="M707 -25q-254 0 -410 163t-156 431q0 89 17 179.5t51.5 177.5t84 165.5t118 144.5t149 114.5t181.5 76t212 27.5q285 0 440.5 -158t155.5 -448q0 -73 -12 -150.5t-41 -164t-72.5 -165.5t-111.5 -151.5t-152.5 -125.5t-201 -84.5t-252.5 -31.5zM741 201q95 0 179 43.5
t143.5 114.5t102.5 160t64 181.5t21 178.5q0 154 -79 252t-228 98q-95 0 -178 -42t-141.5 -111t-101 -157t-63 -181.5t-20.5 -182.5q0 -158 79 -256t222 -98zM911 1561h-233l51 237h234zM1337 1561h-233l51 237h234z" />
    <glyph glyph-name="multiply" unicode="&#xd7;" horiz-adv-x="1228" 
d="M977 39l-332 334l-332 -334l-147 147l332 332l-332 332l147 147l332 -331l332 331l147 -147l-333 -332l333 -332z" />
    <glyph glyph-name="Oslash" unicode="&#xd8;" horiz-adv-x="1593" 
d="M260 -176l-104 80l159 217q-85 79 -129.5 195t-44.5 255q0 102 23.5 205.5t67.5 202.5t114.5 185t158 150.5t203.5 102t246 37.5q177 0 299 -61l156 211l107 -78l-150 -203q184 -156 184 -479q0 -65 -10.5 -137t-38 -158t-69 -165.5t-109 -155t-152.5 -131t-204.5 -89
t-259.5 -33.5q-161 0 -283 70zM485 352l619 836q-65 41 -160 41q-94 0 -176.5 -41.5t-141.5 -110.5t-101.5 -156.5t-63.5 -181.5t-21 -184q0 -120 45 -203zM1196 1094l-621 -844q68 -49 166 -49q94 0 177 42.5t143 112.5t103.5 158.5t65 182.5t21.5 182q0 129 -55 215z" />
    <glyph glyph-name="Ugrave" unicode="&#xd9;" horiz-adv-x="1478" 
d="M1090 676l161 754h283l-188 -857q-67 -308 -221.5 -453t-434.5 -145q-520 0 -520 453q0 110 27 236l161 766h287l-156 -725q-32 -147 -32 -240q0 -264 235 -264q75 0 134 23t99 61t72 101t52.5 129.5t40.5 160.5zM1098 1516h-174l-265 299h273z" />
    <glyph glyph-name="Uacute" unicode="&#xda;" horiz-adv-x="1478" 
d="M1090 676l161 754h283l-188 -857q-67 -308 -221.5 -453t-434.5 -145q-520 0 -520 453q0 110 27 236l161 766h287l-156 -725q-32 -147 -32 -240q0 -264 235 -264q75 0 134 23t99 61t72 101t52.5 129.5t40.5 160.5zM1006 1516h-177l166 299h273z" />
    <glyph glyph-name="Ucircumflex" unicode="&#xdb;" horiz-adv-x="1478" 
d="M1090 676l161 754h283l-188 -857q-67 -308 -221.5 -453t-434.5 -145q-520 0 -520 453q0 110 27 236l161 766h287l-156 -725q-32 -147 -32 -240q0 -264 235 -264q75 0 134 23t99 61t72 101t52.5 129.5t40.5 160.5zM1296 1516h-182l-102 190l-164 -190h-205l264 299h236z
" />
    <glyph glyph-name="Udieresis" unicode="&#xdc;" horiz-adv-x="1478" 
d="M1090 676l161 754h283l-188 -857q-67 -308 -221.5 -453t-434.5 -145q-520 0 -520 453q0 110 27 236l161 766h287l-156 -725q-32 -147 -32 -240q0 -264 235 -264q75 0 134 23t99 61t72 101t52.5 129.5t40.5 160.5zM854 1561h-233l51 237h233zM1280 1561h-233l51 237h233z
" />
    <glyph glyph-name="Yacute" unicode="&#xdd;" horiz-adv-x="1366" 
d="M717 0h-287l125 592l-336 838h303l213 -601l465 601h334l-692 -838zM948 1516h-176l166 299h272z" />
    <glyph glyph-name="Thorn" unicode="&#xde;" 
d="M330 0h-287l299 1430h287l-49 -238h16q283 0 423 -91t140 -280q0 -125 -49 -225t-133 -162.5t-191.5 -95.5t-230.5 -33h-162zM438 530h101q137 0 229 70t92 191q0 81 -53 128.5t-184 47.5h-93z" />
    <glyph glyph-name="germandbls" unicode="&#xdf;" horiz-adv-x="1251" 
d="M422 16l43 226q71 -41 131 -41q73 0 130.5 28t91.5 74.5t51.5 102t17.5 114.5q0 180 -260 180l41 213q137 0 219 74.5t82 202.5q0 72 -42.5 115t-125.5 43q-53 0 -94.5 -17.5t-69 -44.5t-49 -71t-33.5 -86t-25 -101l-213 -1028h-274l231 1114q46 220 181 333.5t356 113.5
q85 0 163 -21t141.5 -60.5t101.5 -105t38 -147.5q0 -169 -82.5 -266.5t-269.5 -141.5v-4q134 -28 202.5 -109t68.5 -190q0 -242 -155.5 -385t-404.5 -143q-76 0 -192 28z" />
    <glyph glyph-name="agrave" unicode="&#xe0;" 
d="M915 0h-231l29 162h-4q-78 -100 -157.5 -143.5t-182.5 -43.5q-149 0 -237.5 80.5t-88.5 220.5q0 88 33.5 155.5t105.5 117.5t193.5 76t290.5 26h120q9 65 9 90q0 41 -21.5 70.5t-56.5 43t-67 19t-66 5.5q-171 0 -346 -82l38 219q180 63 359 63q196 0 302.5 -83
t106.5 -240q0 -77 -30 -232l-64 -319q-31 -164 -35 -205zM756 487h-103q-166 0 -257 -50.5t-91 -147.5q0 -55 41.5 -84t97.5 -29q125 0 199 72.5t113 238.5zM829 1198h-174l-264 299h273z" />
    <glyph glyph-name="aacute" unicode="&#xe1;" 
d="M915 0h-231l29 162h-4q-78 -100 -157.5 -143.5t-182.5 -43.5q-149 0 -237.5 80.5t-88.5 220.5q0 88 33.5 155.5t105.5 117.5t193.5 76t290.5 26h120q9 65 9 90q0 41 -21.5 70.5t-56.5 43t-67 19t-66 5.5q-171 0 -346 -82l38 219q180 63 359 63q196 0 302.5 -83
t106.5 -240q0 -77 -30 -232l-64 -319q-31 -164 -35 -205zM756 487h-103q-166 0 -257 -50.5t-91 -147.5q0 -55 41.5 -84t97.5 -29q125 0 199 72.5t113 238.5zM731 1198h-176l166 299h272z" />
    <glyph glyph-name="acircumflex" unicode="&#xe2;" 
d="M915 0h-231l29 162h-4q-78 -100 -157.5 -143.5t-182.5 -43.5q-149 0 -237.5 80.5t-88.5 220.5q0 88 33.5 155.5t105.5 117.5t193.5 76t290.5 26h120q9 65 9 90q0 41 -21.5 70.5t-56.5 43t-67 19t-66 5.5q-171 0 -346 -82l38 219q180 63 359 63q196 0 302.5 -83
t106.5 -240q0 -77 -30 -232l-64 -319q-31 -164 -35 -205zM756 487h-103q-166 0 -257 -50.5t-91 -147.5q0 -55 41.5 -84t97.5 -29q125 0 199 72.5t113 238.5zM1024 1198h-182l-103 191l-164 -191h-204l264 299h235z" />
    <glyph glyph-name="atilde" unicode="&#xe3;" 
d="M915 0h-231l29 162h-4q-78 -100 -157.5 -143.5t-182.5 -43.5q-149 0 -237.5 80.5t-88.5 220.5q0 88 33.5 155.5t105.5 117.5t193.5 76t290.5 26h120q9 65 9 90q0 41 -21.5 70.5t-56.5 43t-67 19t-66 5.5q-171 0 -346 -82l38 219q180 63 359 63q196 0 302.5 -83
t106.5 -240q0 -77 -30 -232l-64 -319q-31 -164 -35 -205zM756 487h-103q-166 0 -257 -50.5t-91 -147.5q0 -55 41.5 -84t97.5 -29q125 0 199 72.5t113 238.5zM979 1497h104q-36 -244 -241 -244q-51 0 -145 41t-132 41q-39 0 -68 -30.5t-34 -69.5h-105q21 119 80.5 183.5
t157.5 64.5q59 0 154 -41t120 -41q45 0 70 22.5t39 73.5z" />
    <glyph glyph-name="adieresis" unicode="&#xe4;" 
d="M915 0h-231l29 162h-4q-78 -100 -157.5 -143.5t-182.5 -43.5q-149 0 -237.5 80.5t-88.5 220.5q0 88 33.5 155.5t105.5 117.5t193.5 76t290.5 26h120q9 65 9 90q0 41 -21.5 70.5t-56.5 43t-67 19t-66 5.5q-171 0 -346 -82l38 219q180 63 359 63q196 0 302.5 -83
t106.5 -240q0 -77 -30 -232l-64 -319q-31 -164 -35 -205zM756 487h-103q-166 0 -257 -50.5t-91 -147.5q0 -55 41.5 -84t97.5 -29q125 0 199 72.5t113 238.5zM584 1247h-234l51 238h234zM1010 1247h-234l51 238h234z" />
    <glyph glyph-name="aring" unicode="&#xe5;" 
d="M915 0h-231l29 162h-4q-78 -100 -157.5 -143.5t-182.5 -43.5q-149 0 -237.5 80.5t-88.5 220.5q0 88 33.5 155.5t105.5 117.5t193.5 76t290.5 26h120q9 65 9 90q0 41 -21.5 70.5t-56.5 43t-67 19t-66 5.5q-171 0 -346 -82l38 219q180 63 359 63q196 0 302.5 -83
t106.5 -240q0 -77 -30 -232l-64 -319q-31 -164 -35 -205zM756 487h-103q-166 0 -257 -50.5t-91 -147.5q0 -55 41.5 -84t97.5 -29q125 0 199 72.5t113 238.5zM993 1407q0 -86 -63.5 -149.5t-151.5 -63.5q-87 0 -150 64t-63 149q0 86 62.5 150.5t150.5 64.5q89 0 152 -64.5
t63 -150.5zM883 1407q0 43 -30.5 73.5t-76.5 30.5q-42 0 -71 -30.5t-29 -73.5q0 -44 29.5 -73t72.5 -29q45 0 75 29t30 73z" />
    <glyph glyph-name="ae" unicode="&#xe6;" horiz-adv-x="1820" 
d="M1610 246l-41 -217q-160 -54 -332 -54q-142 0 -232 52.5t-153 167.5q-111 -220 -455 -220q-170 0 -262 79.5t-92 230.5q0 183 161.5 274.5t465.5 91.5h141q6 35 6 62q0 84 -53 125t-168 41q-169 0 -344 -82l39 223q180 59 352 59q71 0 125 -8t103.5 -27.5t81 -58.5
t44.5 -96h4q106 190 359 190q201 0 310.5 -104t109.5 -295q0 -117 -29 -238h-696v-12q0 -254 258 -254q132 0 297 70zM1081 631h428q9 59 9 84q0 78 -39 127t-119 49q-95 0 -172.5 -71t-106.5 -189zM791 487h-142q-178 0 -261 -45.5t-83 -138.5q0 -60 45.5 -93.5
t124.5 -33.5q116 0 193 73t123 238z" />
    <glyph glyph-name="ccedilla" unicode="&#xe7;" horiz-adv-x="909" 
d="M553 -90h14q209 0 209 -160q0 -104 -85 -154.5t-226 -50.5q-120 0 -256 64l35 115q101 -56 205 -56q47 0 86.5 21t39.5 59q0 39 -34.5 57.5t-77.5 18.5q-28 0 -55 -10l57 168q-180 22 -280.5 142.5t-100.5 305.5q0 188 78 335.5t220.5 230.5t324.5 83q142 0 274 -41
l-68 -225q-80 53 -200 53q-80 0 -146 -35t-108 -92.5t-65 -129t-23 -146.5q0 -275 233 -275q112 0 223 54l-30 -217q-92 -45 -222 -48z" />
    <glyph glyph-name="egrave" unicode="&#xe8;" 
d="M944 252l-35 -217q-189 -60 -336 -60q-242 0 -374.5 119.5t-132.5 341.5q0 119 44.5 235t122 206.5t191 146t242.5 55.5q205 0 318.5 -105t113.5 -296q0 -107 -27 -236h-743q0 -137 71.5 -201.5t221.5 -64.5q155 0 323 76zM365 631h464q7 41 7 71q0 31 -7 58.5t-24 56
t-54.5 45.5t-91.5 17q-104 0 -175 -57t-119 -191zM891 1198h-174l-264 299h272z" />
    <glyph glyph-name="eacute" unicode="&#xe9;" 
d="M944 252l-35 -217q-189 -60 -336 -60q-242 0 -374.5 119.5t-132.5 341.5q0 119 44.5 235t122 206.5t191 146t242.5 55.5q205 0 318.5 -105t113.5 -296q0 -107 -27 -236h-743q0 -137 71.5 -201.5t221.5 -64.5q155 0 323 76zM365 631h464q7 41 7 71q0 31 -7 58.5t-24 56
t-54.5 45.5t-91.5 17q-104 0 -175 -57t-119 -191zM731 1198h-176l166 299h272z" />
    <glyph glyph-name="ecircumflex" unicode="&#xea;" 
d="M944 252l-35 -217q-189 -60 -336 -60q-242 0 -374.5 119.5t-132.5 341.5q0 119 44.5 235t122 206.5t191 146t242.5 55.5q205 0 318.5 -105t113.5 -296q0 -107 -27 -236h-743q0 -137 71.5 -201.5t221.5 -64.5q155 0 323 76zM365 631h464q7 41 7 71q0 31 -7 58.5t-24 56
t-54.5 45.5t-91.5 17q-104 0 -175 -57t-119 -191zM1024 1198h-182l-103 191l-164 -191h-204l264 299h235z" />
    <glyph glyph-name="edieresis" unicode="&#xeb;" 
d="M944 252l-35 -217q-189 -60 -336 -60q-242 0 -374.5 119.5t-132.5 341.5q0 119 44.5 235t122 206.5t191 146t242.5 55.5q205 0 318.5 -105t113.5 -296q0 -107 -27 -236h-743q0 -137 71.5 -201.5t221.5 -64.5q155 0 323 76zM365 631h464q7 41 7 71q0 31 -7 58.5t-24 56
t-54.5 45.5t-91.5 17q-104 0 -175 -57t-119 -191zM584 1247h-234l51 238h234zM1010 1247h-234l51 238h234z" />
    <glyph glyph-name="igrave" unicode="&#xec;" horiz-adv-x="569" 
d="M317 0h-274l225 1055h275zM547 1198h-174l-264 299h272z" />
    <glyph glyph-name="iacute" unicode="&#xed;" horiz-adv-x="569" 
d="M317 0h-274l225 1055h275zM446 1198h-176l166 299h273z" />
    <glyph glyph-name="icircumflex" unicode="&#xee;" horiz-adv-x="569" 
d="M317 0h-274l225 1055h275zM739 1198h-182l-102 191l-164 -191h-205l264 299h236z" />
    <glyph glyph-name="idieresis" unicode="&#xef;" horiz-adv-x="569" 
d="M317 0h-274l225 1055h275zM299 1247h-233l51 238h233zM725 1247h-233l51 238h233z" />
    <glyph glyph-name="eth" unicode="&#xf0;" horiz-adv-x="1251" 
d="M881 999h4q-83 152 -168 240l-213 -96l-111 123l197 88q-53 42 -135 84l194 123q105 -59 162 -107l238 107l108 -121l-221 -101q256 -271 256 -682q0 -314 -173.5 -498t-455.5 -184q-225 0 -352 129t-127 353q0 128 46 240t124.5 190t185 123t224.5 45q131 0 217 -56z
M582 188q80 0 144.5 42.5t102 108.5t57 137t19.5 138q0 110 -54 169t-157 59q-99 0 -174.5 -60.5t-112 -151.5t-36.5 -194q0 -120 54 -184t157 -64z" />
    <glyph glyph-name="ntilde" unicode="&#xf1;" horiz-adv-x="1251" 
d="M1016 0h-275l103 498q30 153 30 221q0 66 -41.5 106.5t-107.5 40.5q-121 0 -192 -91t-107 -261l-109 -514h-274l190 885q19 80 31 170h268l-18 -103h4q137 127 299 127q158 0 251 -92t93 -246q0 -29 -4.5 -65t-8 -56t-13.5 -64.5t-11 -51.5zM1036 1497h105
q-36 -244 -242 -244q-51 0 -144.5 41t-131.5 41q-40 0 -69 -30.5t-34 -69.5h-104q21 120 80 184t157 64q59 0 154.5 -41t120.5 -41q45 0 69.5 22t38.5 74z" />
    <glyph glyph-name="ograve" unicode="&#xf2;" horiz-adv-x="1251" 
d="M563 -25q-224 0 -351.5 129.5t-127.5 352.5q0 173 82 315.5t225.5 224.5t317.5 82q221 0 352 -125.5t131 -339.5q0 -182 -78.5 -327.5t-222.5 -228.5t-328 -83zM586 188q77 0 140 41t100.5 105.5t58 137.5t20.5 142q0 252 -211 252q-98 0 -174 -66.5t-112.5 -163
t-36.5 -200.5q0 -121 55 -184.5t160 -63.5zM889 1198h-174l-264 299h272z" />
    <glyph glyph-name="oacute" unicode="&#xf3;" horiz-adv-x="1251" 
d="M563 -25q-224 0 -351.5 129.5t-127.5 352.5q0 173 82 315.5t225.5 224.5t317.5 82q221 0 352 -125.5t131 -339.5q0 -182 -78.5 -327.5t-222.5 -228.5t-328 -83zM586 188q77 0 140 41t100.5 105.5t58 137.5t20.5 142q0 252 -211 252q-98 0 -174 -66.5t-112.5 -163
t-36.5 -200.5q0 -121 55 -184.5t160 -63.5zM784 1198h-176l166 299h273z" />
    <glyph glyph-name="ocircumflex" unicode="&#xf4;" horiz-adv-x="1251" 
d="M563 -25q-224 0 -351.5 129.5t-127.5 352.5q0 173 82 315.5t225.5 224.5t317.5 82q221 0 352 -125.5t131 -339.5q0 -182 -78.5 -327.5t-222.5 -228.5t-328 -83zM586 188q77 0 140 41t100.5 105.5t58 137.5t20.5 142q0 252 -211 252q-98 0 -174 -66.5t-112.5 -163
t-36.5 -200.5q0 -121 55 -184.5t160 -63.5zM1081 1198h-182l-102 191l-164 -191h-205l264 299h236z" />
    <glyph glyph-name="otilde" unicode="&#xf5;" horiz-adv-x="1251" 
d="M563 -25q-224 0 -351.5 129.5t-127.5 352.5q0 173 82 315.5t225.5 224.5t317.5 82q221 0 352 -125.5t131 -339.5q0 -182 -78.5 -327.5t-222.5 -228.5t-328 -83zM586 188q77 0 140 41t100.5 105.5t58 137.5t20.5 142q0 252 -211 252q-98 0 -174 -66.5t-112.5 -163
t-36.5 -200.5q0 -121 55 -184.5t160 -63.5zM1036 1497h105q-36 -244 -242 -244q-51 0 -144.5 41t-131.5 41q-40 0 -69 -30.5t-34 -69.5h-104q21 120 80 184t157 64q59 0 154.5 -41t120.5 -41q45 0 69.5 22t38.5 74z" />
    <glyph glyph-name="odieresis" unicode="&#xf6;" horiz-adv-x="1251" 
d="M563 -25q-224 0 -351.5 129.5t-127.5 352.5q0 173 82 315.5t225.5 224.5t317.5 82q221 0 352 -125.5t131 -339.5q0 -182 -78.5 -327.5t-222.5 -228.5t-328 -83zM586 188q77 0 140 41t100.5 105.5t58 137.5t20.5 142q0 252 -211 252q-98 0 -174 -66.5t-112.5 -163
t-36.5 -200.5q0 -121 55 -184.5t160 -63.5zM641 1247h-233l51 238h233zM1067 1247h-233l51 238h233z" />
    <glyph glyph-name="divide" unicode="&#xf7;" horiz-adv-x="1228" 
d="M645 768q-63 0 -110.5 48t-47.5 110t47.5 109.5t110.5 47.5t110.5 -47t47.5 -110t-47.5 -110.5t-110.5 -47.5zM1165 412h-1040v213h1040v-213zM645 -47q-65 0 -111.5 47.5t-46.5 110.5q0 64 47.5 110.5t110.5 46.5q65 0 111.5 -46.5t46.5 -110.5q0 -65 -47 -111.5
t-111 -46.5z" />
    <glyph glyph-name="oslash" unicode="&#xf8;" horiz-adv-x="1251" 
d="M186 -160l-92 68l135 180q-145 133 -145 369q0 169 79 311t224 226.5t326 84.5q125 0 221 -45l125 168l92 -67l-119 -160q160 -125 160 -359q0 -187 -81 -333.5t-224 -227t-324 -80.5q-139 0 -237 52zM393 307l402 539q-38 20 -101 20q-100 0 -176 -68t-111.5 -164
t-35.5 -198q0 -71 22 -129zM877 766l-408 -547q47 -31 117 -31q76 0 139 41t101 105t58.5 137t20.5 143q0 89 -28 152z" />
    <glyph glyph-name="ugrave" unicode="&#xf9;" horiz-adv-x="1251" 
d="M1008 0h-269l19 102h-4q-139 -127 -299 -127q-157 0 -250.5 91.5t-93.5 246.5q0 67 30 211l115 531h274l-102 -496q-2 -11 -8.5 -42.5t-9 -47t-6.5 -41t-5.5 -47t-1.5 -43.5q0 -68 41.5 -109t108.5 -41q110 0 184 82t115 273l108 512h275l-176 -817q-34 -152 -45 -238z
M887 1198h-174l-264 299h272z" />
    <glyph glyph-name="uacute" unicode="&#xfa;" horiz-adv-x="1251" 
d="M1008 0h-269l19 102h-4q-139 -127 -299 -127q-157 0 -250.5 91.5t-93.5 246.5q0 67 30 211l115 531h274l-102 -496q-2 -11 -8.5 -42.5t-9 -47t-6.5 -41t-5.5 -47t-1.5 -43.5q0 -68 41.5 -109t108.5 -41q110 0 184 82t115 273l108 512h275l-176 -817q-34 -152 -45 -238z
M788 1198h-176l166 299h273z" />
    <glyph glyph-name="ucircumflex" unicode="&#xfb;" horiz-adv-x="1251" 
d="M1008 0h-269l19 102h-4q-139 -127 -299 -127q-157 0 -250.5 91.5t-93.5 246.5q0 67 30 211l115 531h274l-102 -496q-2 -11 -8.5 -42.5t-9 -47t-6.5 -41t-5.5 -47t-1.5 -43.5q0 -68 41.5 -109t108.5 -41q110 0 184 82t115 273l108 512h275l-176 -817q-34 -152 -45 -238z
M1081 1198h-182l-102 191l-164 -191h-205l264 299h236z" />
    <glyph glyph-name="udieresis" unicode="&#xfc;" horiz-adv-x="1251" 
d="M1008 0h-269l19 102h-4q-139 -127 -299 -127q-157 0 -250.5 91.5t-93.5 246.5q0 67 30 211l115 531h274l-102 -496q-2 -11 -8.5 -42.5t-9 -47t-6.5 -41t-5.5 -47t-1.5 -43.5q0 -68 41.5 -109t108.5 -41q110 0 184 82t115 273l108 512h275l-176 -817q-34 -152 -45 -238z
M641 1247h-233l51 238h233zM1067 1247h-233l51 238h233z" />
    <glyph glyph-name="yacute" unicode="&#xfd;" 
d="M322 -51l-187 1106h281l98 -785h4l420 785h301l-733 -1245q-83 -140 -179 -202.5t-223 -62.5q-91 0 -204 29l61 209q65 -25 121 -25q67 0 119.5 43t120.5 148zM731 1198h-176l166 299h272z" />
    <glyph glyph-name="thorn" unicode="&#xfe;" horiz-adv-x="1251" 
d="M225 -430h-274l411 1966h275l-129 -596h4q38 59 118 99t175 40q182 0 283.5 -113t101.5 -315q0 -129 -36 -248.5t-103 -216t-173.5 -154t-236.5 -57.5q-234 0 -291 189h-4zM600 188q64 0 117 30.5t86.5 78t56.5 108.5t33 120t10 114q0 105 -51 166t-141 61
q-67 0 -124 -41.5t-92.5 -106.5t-55 -139t-19.5 -143q0 -119 46.5 -183.5t133.5 -64.5z" />
    <glyph glyph-name="ydieresis" unicode="&#xff;" 
d="M322 -51l-187 1106h281l98 -785h4l420 785h301l-733 -1245q-83 -140 -179 -202.5t-223 -62.5q-91 0 -204 29l61 209q65 -25 121 -25q67 0 119.5 43t120.5 148zM584 1247h-234l51 238h234zM1010 1247h-234l51 238h234z" />
    <glyph glyph-name="Amacron" unicode="&#x100;" horiz-adv-x="1478" 
d="M1358 0h-287l-49 328h-608l-183 -328h-317l866 1430h318zM983 553l-90 623h-8l-344 -623h442zM1262 1604h-611l33 163h608z" />
    <glyph glyph-name="amacron" unicode="&#x101;" 
d="M915 0h-231l29 162h-4q-78 -100 -157.5 -143.5t-182.5 -43.5q-149 0 -237.5 80.5t-88.5 220.5q0 88 33.5 155.5t105.5 117.5t193.5 76t290.5 26h120q9 65 9 90q0 41 -21.5 70.5t-56.5 43t-67 19t-66 5.5q-171 0 -346 -82l38 219q180 63 359 63q196 0 302.5 -83
t106.5 -240q0 -77 -30 -232l-64 -319q-31 -164 -35 -205zM756 487h-103q-166 0 -257 -50.5t-91 -147.5q0 -55 41.5 -84t97.5 -29q125 0 199 72.5t113 238.5zM989 1266h-610l33 164h608z" />
    <glyph glyph-name="Abreve" unicode="&#x102;" horiz-adv-x="1478" 
d="M1358 0h-287l-49 328h-608l-183 -328h-317l866 1430h318zM983 553l-90 623h-8l-344 -623h442zM1198 1827h127q-17 -137 -122 -224t-245 -87q-135 0 -218 82.5t-83 228.5h127q11 -88 63 -126t126 -38q168 0 225 164z" />
    <glyph glyph-name="abreve" unicode="&#x103;" 
d="M915 0h-231l29 162h-4q-78 -100 -157.5 -143.5t-182.5 -43.5q-149 0 -237.5 80.5t-88.5 220.5q0 88 33.5 155.5t105.5 117.5t193.5 76t290.5 26h120q9 65 9 90q0 41 -21.5 70.5t-56.5 43t-67 19t-66 5.5q-171 0 -346 -82l38 219q180 63 359 63q196 0 302.5 -83
t106.5 -240q0 -77 -30 -232l-64 -319q-31 -164 -35 -205zM756 487h-103q-166 0 -257 -50.5t-91 -147.5q0 -55 41.5 -84t97.5 -29q125 0 199 72.5t113 238.5zM905 1493h148q-36 -135 -128 -216t-235 -81q-325 0 -328 297h144q4 -73 49.5 -111.5t124.5 -38.5q83 0 136.5 35
t88.5 115z" />
    <glyph glyph-name="Aogonek" unicode="&#x104;" horiz-adv-x="1478" 
d="M1190 -274l78 -29q-88 -152 -269 -152q-76 0 -129 33t-53 98q0 26 5.5 49.5t25 56t51.5 64.5t89.5 72t135.5 82h-53l-49 328h-608l-183 -328h-317l866 1430h318l260 -1430h-94q-137 -83 -204 -150.5t-67 -113.5q0 -30 18 -49t56 -19q34 0 61.5 13t61.5 45zM983 553
l-90 623h-8l-344 -623h442z" />
    <glyph glyph-name="aogonek" unicode="&#x105;" 
d="M795 -274l77 -29q-88 -152 -268 -152q-80 0 -131 34.5t-51 96.5q0 35 12 67t43 72.5t94.5 87t157.5 97.5h-45l29 162h-4q-78 -100 -157.5 -143.5t-182.5 -43.5q-149 0 -237.5 80.5t-88.5 220.5q0 88 33.5 155.5t105.5 117.5t193.5 76t290.5 26h120q9 65 9 90
q0 41 -21.5 70.5t-56.5 43t-67 19t-66 5.5q-171 0 -346 -82l38 219q180 63 359 63q196 0 302.5 -83t106.5 -240q0 -77 -30 -232l-64 -319q-31 -164 -35 -205h-47q-137 -83 -203.5 -150t-66.5 -114q0 -30 19 -49t55 -19q62 0 123 58zM756 487h-103q-166 0 -257 -50.5
t-91 -147.5q0 -55 41.5 -84t97.5 -29q125 0 199 72.5t113 238.5z" />
    <glyph glyph-name="Cacute" unicode="&#x106;" horiz-adv-x="1251" 
d="M1149 289l-45 -275q-142 -39 -324 -39q-305 0 -472 182t-167 496q0 174 58 322t163.5 254t260 165.5t340.5 59.5q245 0 417 -70l-71 -239q-122 84 -328 84q-237 0 -389 -161t-152 -415q0 -118 47.5 -220t142.5 -167t218 -65q155 0 301 88zM1020 1516h-176l166 299h272z
" />
    <glyph glyph-name="cacute" unicode="&#x107;" horiz-adv-x="909" 
d="M827 242l-30 -217q-100 -50 -265 -50q-203 0 -325.5 125t-122.5 330q0 188 78 335.5t220.5 230.5t324.5 83q142 0 274 -41l-68 -225q-80 53 -200 53q-80 0 -146 -35t-108 -92.5t-65 -129t-23 -146.5q0 -275 233 -275q112 0 223 54zM760 1198h-176l166 299h272z" />
    <glyph glyph-name="Ccircumflex" unicode="&#x108;" horiz-adv-x="1251" 
d="M1149 289l-45 -275q-142 -39 -324 -39q-305 0 -472 182t-167 496q0 174 58 322t163.5 254t260 165.5t340.5 59.5q245 0 417 -70l-71 -239q-122 84 -328 84q-237 0 -389 -161t-152 -415q0 -118 47.5 -220t142.5 -167t218 -65q155 0 301 88zM1311 1516h-183l-102 190
l-164 -190h-205l265 299h235z" />
    <glyph glyph-name="ccircumflex" unicode="&#x109;" horiz-adv-x="909" 
d="M827 242l-30 -217q-100 -50 -265 -50q-203 0 -325.5 125t-122.5 330q0 188 78 335.5t220.5 230.5t324.5 83q142 0 274 -41l-68 -225q-80 53 -200 53q-80 0 -146 -35t-108 -92.5t-65 -129t-23 -146.5q0 -275 233 -275q112 0 223 54zM1038 1198h-182l-102 191l-164 -191
h-205l264 299h236z" />
    <glyph glyph-name="Cdotaccent" unicode="&#x10a;" horiz-adv-x="1251" 
d="M1149 289l-45 -275q-142 -39 -324 -39q-305 0 -472 182t-167 496q0 174 58 322t163.5 254t260 165.5t340.5 59.5q245 0 417 -70l-71 -239q-122 84 -328 84q-237 0 -389 -161t-152 -415q0 -118 47.5 -220t142.5 -167t218 -65q155 0 301 88zM1081 1561h-233l51 237h234z
" />
    <glyph glyph-name="cdotaccent" unicode="&#x10b;" horiz-adv-x="909" 
d="M827 242l-30 -217q-100 -50 -265 -50q-203 0 -325.5 125t-122.5 330q0 188 78 335.5t220.5 230.5t324.5 83q142 0 274 -41l-68 -225q-80 53 -200 53q-80 0 -146 -35t-108 -92.5t-65 -129t-23 -146.5q0 -275 233 -275q112 0 223 54zM811 1247h-233l51 238h233z" />
    <glyph glyph-name="Ccaron" unicode="&#x10c;" horiz-adv-x="1251" 
d="M1149 289l-45 -275q-142 -39 -324 -39q-305 0 -472 182t-167 496q0 174 58 322t163.5 254t260 165.5t340.5 59.5q245 0 417 -70l-71 -239q-122 84 -328 84q-237 0 -389 -161t-152 -415q0 -118 47.5 -220t142.5 -167t218 -65q155 0 301 88zM1104 1516h-236l-153 299h182
l102 -189l164 189h205z" />
    <glyph glyph-name="ccaron" unicode="&#x10d;" horiz-adv-x="909" 
d="M827 242l-30 -217q-100 -50 -265 -50q-203 0 -325.5 125t-122.5 330q0 188 78 335.5t220.5 230.5t324.5 83q142 0 274 -41l-68 -225q-80 53 -200 53q-80 0 -146 -35t-108 -92.5t-65 -129t-23 -146.5q0 -275 233 -275q112 0 223 54zM819 1198h-235l-154 299h182l103 -188
l164 188h204z" />
    <glyph glyph-name="Dcaron" unicode="&#x10e;" horiz-adv-x="1478" 
d="M549 0h-486l302 1430h430q310 0 474.5 -155.5t164.5 -455.5q0 -125 -28.5 -239.5t-95 -221.5t-166 -185.5t-252.5 -125.5t-343 -47zM399 225h138q287 0 442.5 160.5t155.5 472.5q0 161 -114 253.5t-323 92.5h-94zM950 1516h-235l-154 299h182l103 -189l164 189h204z" />
    <glyph glyph-name="dcaron" unicode="&#x10f;" horiz-adv-x="1409" 
d="M1024 0h-256l27 156h-4q-67 -94 -151 -137.5t-194 -43.5q-118 0 -201.5 61t-122 159t-38.5 221q0 95 20 188t63 179t104 151.5t150 105t193 39.5q196 0 326 -149l133 606h275l-281 -1284q-11 -52 -22 -115t-16 -100zM539 188q73 0 135 39.5t101 102.5t61 137.5t22 148.5
q0 64 -19.5 118.5t-66.5 93t-115 38.5q-67 0 -123.5 -43t-90.5 -109t-53 -138.5t-19 -137.5q0 -117 43.5 -183.5t124.5 -66.5zM1513 1090h-151l119 407h235z" />
    <glyph glyph-name="Dcroat" unicode="&#x110;" horiz-adv-x="1478" 
d="M516 0h-453l144 676h-121l39 188h121l119 566h403q328 0 497 -154.5t169 -456.5q0 -88 -14.5 -171.5t-47.5 -166t-82.5 -153.5t-123.5 -132t-166.5 -104t-216 -67.5t-267.5 -24.5zM399 225h127q288 0 448.5 161t160.5 472q0 161 -114 253.5t-323 92.5h-94l-72 -340h328
l-39 -188h-327z" />
    <glyph glyph-name="dcroat" unicode="&#x111;" horiz-adv-x="1251" 
d="M1024 0h-256l27 156h-4q-67 -94 -151 -137.5t-194 -43.5q-118 0 -201.5 61t-122 159t-38.5 221q0 95 20 188t63 179t104 151.5t150 105t193 39.5q196 0 326 -149l64 291h-340l32 149h340l37 166h275l-37 -166h178l-33 -149h-178l-211 -969q-11 -52 -22 -115t-16 -100z
M539 188q73 0 135 39.5t101 102.5t61 137.5t22 148.5q0 64 -19.5 118.5t-66.5 93t-115 38.5q-67 0 -123.5 -43t-90.5 -109t-53 -138.5t-19 -137.5q0 -117 43.5 -183.5t124.5 -66.5z" />
    <glyph glyph-name="Emacron" unicode="&#x112;" 
d="M915 0h-852l302 1430h841l-43 -226h-559l-74 -352h500l-45 -225h-502l-84 -402h566zM1108 1604h-610l32 163h609z" />
    <glyph glyph-name="emacron" unicode="&#x113;" 
d="M944 252l-35 -217q-189 -60 -336 -60q-242 0 -374.5 119.5t-132.5 341.5q0 119 44.5 235t122 206.5t191 146t242.5 55.5q205 0 318.5 -105t113.5 -296q0 -107 -27 -236h-743q0 -137 71.5 -201.5t221.5 -64.5q155 0 323 76zM365 631h464q7 41 7 71q0 31 -7 58.5t-24 56
t-54.5 45.5t-91.5 17q-104 0 -175 -57t-119 -191zM999 1266h-610l33 164h608z" />
    <glyph glyph-name="Ebreve" unicode="&#x114;" 
d="M915 0h-852l302 1430h841l-43 -226h-559l-74 -352h500l-45 -225h-502l-84 -402h566zM1044 1827h127q-17 -138 -121.5 -224.5t-244.5 -86.5q-135 0 -218 82.5t-83 228.5h127q11 -88 63 -126t125 -38q168 0 225 164z" />
    <glyph glyph-name="ebreve" unicode="&#x115;" 
d="M944 252l-35 -217q-189 -60 -336 -60q-242 0 -374.5 119.5t-132.5 341.5q0 119 44.5 235t122 206.5t191 146t242.5 55.5q205 0 318.5 -105t113.5 -296q0 -107 -27 -236h-743q0 -137 71.5 -201.5t221.5 -64.5q155 0 323 76zM365 631h464q7 41 7 71q0 31 -7 58.5t-24 56
t-54.5 45.5t-91.5 17q-104 0 -175 -57t-119 -191zM981 1493h147q-36 -135 -127.5 -216t-234.5 -81q-325 0 -328 297h144q4 -73 49.5 -111.5t124.5 -38.5q83 0 136.5 35t88.5 115z" />
    <glyph glyph-name="Edotaccent" unicode="&#x116;" 
d="M915 0h-852l302 1430h841l-43 -226h-559l-74 -352h500l-45 -225h-502l-84 -402h566zM918 1561h-234l51 237h234z" />
    <glyph glyph-name="edotaccent" unicode="&#x117;" 
d="M944 252l-35 -217q-189 -60 -336 -60q-242 0 -374.5 119.5t-132.5 341.5q0 119 44.5 235t122 206.5t191 146t242.5 55.5q205 0 318.5 -105t113.5 -296q0 -107 -27 -236h-743q0 -137 71.5 -201.5t221.5 -64.5q155 0 323 76zM365 631h464q7 41 7 71q0 31 -7 58.5t-24 56
t-54.5 45.5t-91.5 17q-104 0 -175 -57t-119 -191zM805 1247h-234l52 238h233z" />
    <glyph glyph-name="Eogonek" unicode="&#x118;" 
d="M754 -274l77 -29q-88 -152 -268 -152q-74 0 -128 33t-54 98q0 23 3 41.5t20.5 52t48 65.5t91 76t144.5 89h-625l302 1430h841l-43 -226h-559l-74 -352h500l-45 -225h-502l-84 -402h566l-50 -225h-88q-143 -86 -206.5 -152.5t-63.5 -111.5q0 -29 18.5 -48.5t55.5 -19.5
q62 0 123 58z" />
    <glyph glyph-name="eogonek" unicode="&#x119;" 
d="M608 -274l78 -29q-88 -152 -268 -152q-43 0 -81.5 10.5t-69.5 42.5t-31 80q0 74 62 146.5t202 155.5q-210 13 -322 135t-112 321q0 119 44.5 235t122 206.5t191 146t242.5 55.5q205 0 318.5 -105t113.5 -296q0 -107 -27 -236h-743q0 -140 71 -203t222 -63q155 0 323 76
l-35 -217q-59 -19 -139 -35.5t-125 -19.5q-120 -75 -176.5 -138t-56.5 -106q0 -32 19 -50t52 -18q36 0 64 13.5t61 44.5zM365 631h464q7 41 7 71q0 31 -7 58.5t-24 56t-54.5 45.5t-91.5 17q-104 0 -175 -57t-119 -191z" />
    <glyph glyph-name="Ecaron" unicode="&#x11a;" 
d="M915 0h-852l302 1430h841l-43 -226h-559l-74 -352h500l-45 -225h-502l-84 -402h566zM907 1516h-235l-154 299h182l103 -189l164 189h204z" />
    <glyph glyph-name="ecaron" unicode="&#x11b;" 
d="M944 252l-35 -217q-189 -60 -336 -60q-242 0 -374.5 119.5t-132.5 341.5q0 119 44.5 235t122 206.5t191 146t242.5 55.5q205 0 318.5 -105t113.5 -296q0 -107 -27 -236h-743q0 -137 71.5 -201.5t221.5 -64.5q155 0 323 76zM365 631h464q7 41 7 71q0 31 -7 58.5t-24 56
t-54.5 45.5t-91.5 17q-104 0 -175 -57t-119 -191zM825 1198h-235l-154 299h182l103 -188l164 188h205z" />
    <glyph glyph-name="Gcircumflex" unicode="&#x11c;" horiz-adv-x="1478" 
d="M995 215l80 379h-303l47 225h580l-164 -780q-66 -27 -174.5 -45.5t-208.5 -18.5q-341 0 -520.5 163t-179.5 472q0 259 108 451t302 292.5t450 100.5q264 0 475 -80l-72 -248q-159 103 -395 103q-127 0 -234 -47t-180 -128.5t-114 -194t-41 -241.5q0 -112 47 -206
t140.5 -152.5t217.5 -58.5q103 0 139 14zM1350 1516h-183l-102 190l-164 -190h-205l265 299h235z" />
    <glyph glyph-name="gcircumflex" unicode="&#x11d;" horiz-adv-x="1251" 
d="M811 201h-4q-54 -96 -147.5 -148.5t-206.5 -52.5q-73 0 -134 23.5t-103.5 64.5t-72 97.5t-43.5 122t-14 138.5q0 120 36.5 233t103 202.5t169.5 143.5t226 54q103 0 187 -47t134 -131l31 154h264q-16 -58 -35 -148l-176 -829q-57 -268 -198.5 -400.5t-391.5 -132.5
q-235 0 -426 72l70 223q98 -41 174.5 -61.5t157.5 -20.5t142.5 25t96.5 52t68 95.5t44 102t36 126.5zM549 213q99 0 170.5 64t104 159.5t32.5 206.5q0 96 -52.5 159.5t-148.5 63.5q-55 0 -102 -27.5t-79.5 -71t-55.5 -99t-34 -111.5t-11 -108q0 -46 9 -86t28.5 -74.5t55 -55
t83.5 -20.5zM1042 1198h-182l-102 191l-164 -191h-205l264 299h236z" />
    <glyph glyph-name="Gbreve" unicode="&#x11e;" horiz-adv-x="1478" 
d="M995 215l80 379h-303l47 225h580l-164 -780q-66 -27 -174.5 -45.5t-208.5 -18.5q-341 0 -520.5 163t-179.5 472q0 259 108 451t302 292.5t450 100.5q264 0 475 -80l-72 -248q-159 103 -395 103q-127 0 -234 -47t-180 -128.5t-114 -194t-41 -241.5q0 -112 47 -206
t140.5 -152.5t217.5 -58.5q103 0 139 14zM1247 1827h127q-17 -138 -121.5 -224.5t-244.5 -86.5q-135 0 -218 82.5t-83 228.5h127q11 -88 63 -126t125 -38q168 0 225 164z" />
    <glyph glyph-name="gbreve" unicode="&#x11f;" horiz-adv-x="1251" 
d="M811 201h-4q-54 -96 -147.5 -148.5t-206.5 -52.5q-73 0 -134 23.5t-103.5 64.5t-72 97.5t-43.5 122t-14 138.5q0 120 36.5 233t103 202.5t169.5 143.5t226 54q103 0 187 -47t134 -131l31 154h264q-16 -58 -35 -148l-176 -829q-57 -268 -198.5 -400.5t-391.5 -132.5
q-235 0 -426 72l70 223q98 -41 174.5 -61.5t157.5 -20.5t142.5 25t96.5 52t68 95.5t44 102t36 126.5zM549 213q99 0 170.5 64t104 159.5t32.5 206.5q0 96 -52.5 159.5t-148.5 63.5q-55 0 -102 -27.5t-79.5 -71t-55.5 -99t-34 -111.5t-11 -108q0 -46 9 -86t28.5 -74.5t55 -55
t83.5 -20.5zM958 1493h148q-36 -135 -128 -216t-235 -81q-324 0 -327 297h143q4 -73 49.5 -111.5t124.5 -38.5q83 0 136.5 35t88.5 115z" />
    <glyph glyph-name="Gdotaccent" unicode="&#x120;" horiz-adv-x="1478" 
d="M995 215l80 379h-303l47 225h580l-164 -780q-66 -27 -174.5 -45.5t-208.5 -18.5q-341 0 -520.5 163t-179.5 472q0 259 108 451t302 292.5t450 100.5q264 0 475 -80l-72 -248q-159 103 -395 103q-127 0 -234 -47t-180 -128.5t-114 -194t-41 -241.5q0 -112 47 -206
t140.5 -152.5t217.5 -58.5q103 0 139 14zM1120 1561h-233l51 237h233z" />
    <glyph glyph-name="gdotaccent" unicode="&#x121;" horiz-adv-x="1251" 
d="M811 201h-4q-54 -96 -147.5 -148.5t-206.5 -52.5q-73 0 -134 23.5t-103.5 64.5t-72 97.5t-43.5 122t-14 138.5q0 120 36.5 233t103 202.5t169.5 143.5t226 54q103 0 187 -47t134 -131l31 154h264q-16 -58 -35 -148l-176 -829q-57 -268 -198.5 -400.5t-391.5 -132.5
q-235 0 -426 72l70 223q98 -41 174.5 -61.5t157.5 -20.5t142.5 25t96.5 52t68 95.5t44 102t36 126.5zM549 213q99 0 170.5 64t104 159.5t32.5 206.5q0 96 -52.5 159.5t-148.5 63.5q-55 0 -102 -27.5t-79.5 -71t-55.5 -99t-34 -111.5t-11 -108q0 -46 9 -86t28.5 -74.5t55 -55
t83.5 -20.5zM815 1247h-233l51 238h233z" />
    <glyph glyph-name="Gcommaaccent" unicode="&#x122;" horiz-adv-x="1478" 
d="M995 215l80 379h-303l47 225h580l-164 -780q-66 -27 -174.5 -45.5t-208.5 -18.5q-341 0 -520.5 163t-179.5 472q0 259 108 451t302 292.5t450 100.5q264 0 475 -80l-72 -248q-159 103 -395 103q-127 0 -234 -47t-180 -128.5t-114 -194t-41 -241.5q0 -112 47 -206
t140.5 -152.5t217.5 -58.5q103 0 139 14zM713 -455h-205l129 320h260z" />
    <glyph glyph-name="gcommaaccent" unicode="&#x123;" horiz-adv-x="1251" 
d="M811 201h-4q-54 -96 -147.5 -148.5t-206.5 -52.5q-73 0 -134 23.5t-103.5 64.5t-72 97.5t-43.5 122t-14 138.5q0 120 36.5 233t103 202.5t169.5 143.5t226 54q103 0 187 -47t134 -131l31 154h264q-16 -58 -35 -148l-176 -829q-57 -268 -198.5 -400.5t-391.5 -132.5
q-235 0 -426 72l70 223q98 -41 174.5 -61.5t157.5 -20.5t142.5 25t96.5 52t68 95.5t44 102t36 126.5zM549 213q99 0 170.5 64t104 159.5t32.5 206.5q0 96 -52.5 159.5t-148.5 63.5q-55 0 -102 -27.5t-79.5 -71t-55.5 -99t-34 -111.5t-11 -108q0 -46 9 -86t28.5 -74.5t55 -55
t83.5 -20.5zM827 1198h-249l174 299h198z" />
    <glyph glyph-name="Hcircumflex" unicode="&#x124;" horiz-adv-x="1478" 
d="M1214 0h-286l131 627h-578l-131 -627h-287l299 1430h287l-121 -578h578l121 578h286zM1270 1516h-183l-102 190l-164 -190h-205l265 299h235z" />
    <glyph glyph-name="hcircumflex" unicode="&#x125;" horiz-adv-x="1251" 
d="M1016 0h-275l105 508q28 148 28 211q0 65 -41 106t-108 41q-120 0 -191.5 -90t-105.5 -256l-111 -520h-274l328 1536h274l-131 -584h4q140 127 299 127q158 0 251 -92t93 -246q0 -29 -4.5 -66t-8 -55.5t-13.5 -66.5t-11 -51zM1143 1597h-182l-103 191l-164 -191h-205
l265 299h235z" />
    <glyph glyph-name="Hbar" unicode="&#x126;" horiz-adv-x="1478" 
d="M1214 0h-286l116 565h-577l-117 -565h-287l211 1010h-143l37 168h141l53 252h287l-53 -252h578l53 252h286l-53 -252h131l-35 -168h-131zM1087 772l50 238h-576l-49 -238h575z" />
    <glyph glyph-name="hbar" unicode="&#x127;" horiz-adv-x="1251" 
d="M1016 0h-275l105 508q28 148 28 211q0 65 -41 106t-108 41q-120 0 -191.5 -90t-105.5 -256l-111 -520h-274l260 1221h-176l31 149h178l35 166h274l-37 -166h342l-30 -149h-347l-59 -269h4q140 127 299 127q158 0 251 -92t93 -246q0 -29 -4.5 -66t-8 -55.5t-13.5 -66.5
t-11 -51z" />
    <glyph glyph-name="Itilde" unicode="&#x128;" horiz-adv-x="569" 
d="M334 0h-299l301 1430h299zM772 1815h105q-36 -244 -242 -244q-51 0 -145 41t-132 41q-39 0 -68 -31t-34 -70h-104q21 120 80 184t157 64q59 0 154.5 -41t120.5 -41q45 0 69.5 22.5t38.5 74.5z" />
    <glyph glyph-name="itilde" unicode="&#x129;" horiz-adv-x="569" 
d="M317 0h-274l225 1055h275zM707 1497h104q-36 -244 -242 -244q-51 0 -144.5 41t-131.5 41q-40 0 -69 -30.5t-34 -69.5h-104q21 119 80.5 183.5t157.5 64.5q59 0 154 -41t120 -41q45 0 70 22.5t39 73.5z" />
    <glyph glyph-name="Imacron" unicode="&#x12a;" horiz-adv-x="569" 
d="M334 0h-299l301 1430h299zM809 1604h-610l32 163h609z" />
    <glyph glyph-name="imacron" unicode="&#x12b;" horiz-adv-x="569" 
d="M317 0h-274l225 1055h275zM739 1266h-610l33 164h608z" />
    <glyph glyph-name="Iogonek" unicode="&#x12e;" horiz-adv-x="569" 
d="M260 -274l78 -29q-88 -152 -268 -152q-78 0 -130.5 34t-52.5 97q0 27 6.5 51.5t26 56.5t52 64t89.5 71.5t134 80.5h-160l301 1430h299l-301 -1430q-129 -77 -200 -146t-71 -118q0 -32 19.5 -50t52.5 -18q36 0 64 13.5t61 44.5z" />
    <glyph glyph-name="iogonek" unicode="&#x12f;" horiz-adv-x="569" 
d="M586 1247h-275l58 262h274zM246 -274l78 -29q-90 -152 -269 -152q-78 0 -130 34t-52 97q0 24 3.5 43t20.5 52.5t48 65t91 75t144 88.5h-137l225 1055h275l-226 -1055q-79 -48 -134.5 -91t-83 -75.5t-39 -55.5t-11.5 -42q0 -29 18.5 -48.5t55.5 -19.5q62 0 123 58z" />
    <glyph glyph-name="Idotaccent" unicode="&#x130;" horiz-adv-x="569" 
d="M334 0h-299l301 1430h299zM623 1561h-234l51 237h234z" />
    <glyph glyph-name="dotlessi" unicode="&#x131;" horiz-adv-x="569" 
d="M317 0h-274l225 1055h275z" />
    <glyph glyph-name="IJ" unicode="&#x132;" horiz-adv-x="1312" 
d="M334 0h-299l301 1430h299zM446 4l66 244q67 -23 131 -23q37 0 67.5 10t51.5 22t39.5 38t28.5 42.5t20.5 51t14 49t10.5 49.5q1 6 2 9l194 934h287l-201 -975q-19 -94 -40.5 -161t-57.5 -131t-84.5 -102.5t-121 -62t-167.5 -23.5q-129 0 -240 29z" />
    <glyph glyph-name="ij" unicode="&#x133;" horiz-adv-x="1101" 
d="M586 1247h-275l58 262h274zM317 0h-274l225 1055h275zM1118 1247h-274l57 262h275zM322 -430l65 201q41 -13 62 -13q42 0 65.5 33.5t36.5 99.5l250 1164h274l-233 -1088q-28 -130 -56 -209t-68 -128t-89.5 -67t-124.5 -18q-91 0 -182 25z" />
    <glyph glyph-name="Jcircumflex" unicode="&#x134;" horiz-adv-x="796" 
d="M-70 4l66 244q67 -23 131 -23q42 0 76 11t57.5 33t39.5 44.5t27.5 57t17.5 57.5t13 58q1 7 2 10l195 934h287l-201 -975q-19 -94 -40.5 -161t-57.5 -131t-84.5 -102.5t-121 -62t-167.5 -23.5q-129 0 -240 29zM1022 1516h-182l-103 190l-164 -190h-204l264 299h235z" />
    <glyph glyph-name="jcircumflex" unicode="&#x135;" horiz-adv-x="569" 
d="M-211 -430l66 201q41 -13 61 -13q42 0 65.5 33.5t36.5 99.5l250 1164h275l-234 -1088q-28 -130 -56 -209t-68 -128t-89.5 -67t-124.5 -18q-91 0 -182 25zM743 1198h-182l-102 191l-164 -191h-205l264 299h236z" />
    <glyph glyph-name="Kcommaaccent" unicode="&#x136;" horiz-adv-x="1366" 
d="M1245 0h-342l-397 725l-156 -725h-287l308 1430h286l-120 -562h6l567 562h397l-723 -652zM565 -455h-205l129 320h261z" />
    <glyph glyph-name="kcommaaccent" unicode="&#x137;" 
d="M1016 0h-309l-273 559h-4l-119 -559h-268l326 1536h274l-182 -864h6l383 383h354l-506 -482zM473 -455h-205l129 320h260z" />
    <glyph glyph-name="Lacute" unicode="&#x139;" horiz-adv-x="1024" 
d="M893 0h-846l303 1430h287l-256 -1205h561zM575 1516h-176l166 299h273z" />
    <glyph glyph-name="lacute" unicode="&#x13a;" horiz-adv-x="569" 
d="M317 0h-274l326 1536h274zM559 1597h-176l166 299h272z" />
    <glyph glyph-name="Lcommaaccent" unicode="&#x13b;" horiz-adv-x="1024" 
d="M893 0h-846l303 1430h287l-256 -1205h561zM424 -455h-205l129 320h260z" />
    <glyph glyph-name="lcommaaccent" unicode="&#x13c;" horiz-adv-x="569" 
d="M317 0h-274l326 1536h274zM104 -455h-204l129 320h260z" />
    <glyph glyph-name="Lcaron" unicode="&#x13d;" horiz-adv-x="1024" 
d="M893 0h-846l303 1430h287l-256 -1205h561zM881 1090h-152l119 407h235z" />
    <glyph glyph-name="lcaron" unicode="&#x13e;" horiz-adv-x="722" 
d="M317 0h-274l326 1536h274zM809 1090h-152l119 407h236z" />
    <glyph glyph-name="Ldot" unicode="&#x13f;" horiz-adv-x="1024" 
d="M893 0h-846l303 1430h287l-256 -1205h561zM893 637h-234l52 237h233z" />
    <glyph glyph-name="ldot" unicode="&#x140;" horiz-adv-x="888" 
d="M317 0h-274l326 1536h274zM844 639h-234l52 238h233z" />
    <glyph glyph-name="Lslash" unicode="&#x141;" horiz-adv-x="1024" 
d="M895 0h-842l105 498l-170 -90l41 188l168 90l153 744h287l-119 -574l387 205l-39 -189l-387 -204l-92 -443h555z" />
    <glyph glyph-name="lslash" unicode="&#x142;" horiz-adv-x="569" 
d="M317 0h-274l125 600l-166 -88l39 188l166 88l155 748h275l-121 -584l166 88l-41 -188l-164 -88z" />
    <glyph glyph-name="Nacute" unicode="&#x143;" horiz-adv-x="1478" 
d="M1225 0h-369l-299 1096h-4l-227 -1096h-275l307 1430h363l305 -1086h4l234 1086h270zM1016 1516h-176l166 299h272z" />
    <glyph glyph-name="nacute" unicode="&#x144;" horiz-adv-x="1251" 
d="M1016 0h-275l103 498q30 153 30 221q0 66 -41.5 106.5t-107.5 40.5q-121 0 -192 -91t-107 -261l-109 -514h-274l190 885q19 80 31 170h268l-18 -103h4q137 127 299 127q158 0 251 -92t93 -246q0 -29 -4.5 -65t-8 -56t-13.5 -64.5t-11 -51.5zM811 1198h-176l166 299h272z
" />
    <glyph glyph-name="Ncommaaccent" unicode="&#x145;" horiz-adv-x="1478" 
d="M1225 0h-369l-299 1096h-4l-227 -1096h-275l307 1430h363l305 -1086h4l234 1086h270zM623 -455h-205l129 320h260z" />
    <glyph glyph-name="ncommaaccent" unicode="&#x146;" horiz-adv-x="1251" 
d="M1016 0h-275l103 498q30 153 30 221q0 66 -41.5 106.5t-107.5 40.5q-121 0 -192 -91t-107 -261l-109 -514h-274l190 885q19 80 31 170h268l-18 -103h4q137 127 299 127q158 0 251 -92t93 -246q0 -29 -4.5 -65t-8 -56t-13.5 -64.5t-11 -51.5zM481 -455h-205l130 320h260z
" />
    <glyph glyph-name="Ncaron" unicode="&#x147;" horiz-adv-x="1478" 
d="M1225 0h-369l-299 1096h-4l-227 -1096h-275l307 1430h363l305 -1086h4l234 1086h270zM1077 1516h-235l-154 299h182l103 -189l164 189h204z" />
    <glyph glyph-name="ncaron" unicode="&#x148;" horiz-adv-x="1251" 
d="M1016 0h-275l103 498q30 153 30 221q0 66 -41.5 106.5t-107.5 40.5q-121 0 -192 -91t-107 -261l-109 -514h-274l190 885q19 80 31 170h268l-18 -103h4q137 127 299 127q158 0 251 -92t93 -246q0 -29 -4.5 -65t-8 -56t-13.5 -64.5t-11 -51.5zM883 1198h-236l-153 299h182
l102 -188l164 188h205z" />
    <glyph glyph-name="napostrophe" unicode="&#x149;" horiz-adv-x="1497" 
d="M1262 0h-275l103 498q30 153 30 221q0 66 -41.5 106.5t-107.5 40.5q-121 0 -192 -91t-107 -261l-109 -514h-274l190 885q19 80 31 170h268l-18 -103h4q137 127 299 127q158 0 251 -92t93 -246q0 -29 -4.5 -65t-8 -56t-13.5 -64.5t-11 -51.5zM299 958h-231l180 472h303z
" />
    <glyph glyph-name="Omacron" unicode="&#x14c;" horiz-adv-x="1593" 
d="M707 -25q-254 0 -410 163t-156 431q0 89 17 179.5t51.5 177.5t84 165.5t118 144.5t149 114.5t181.5 76t212 27.5q285 0 440.5 -158t155.5 -448q0 -73 -12 -150.5t-41 -164t-72.5 -165.5t-111.5 -151.5t-152.5 -125.5t-201 -84.5t-252.5 -31.5zM741 201q95 0 179 43.5
t143.5 114.5t102.5 160t64 181.5t21 178.5q0 154 -79 252t-228 98q-95 0 -178 -42t-141.5 -111t-101 -157t-63 -181.5t-20.5 -182.5q0 -158 79 -256t222 -98zM1321 1604h-610l32 163h609z" />
    <glyph glyph-name="omacron" unicode="&#x14d;" horiz-adv-x="1251" 
d="M563 -25q-224 0 -351.5 129.5t-127.5 352.5q0 173 82 315.5t225.5 224.5t317.5 82q221 0 352 -125.5t131 -339.5q0 -182 -78.5 -327.5t-222.5 -228.5t-328 -83zM586 188q77 0 140 41t100.5 105.5t58 137.5t20.5 142q0 252 -211 252q-98 0 -174 -66.5t-112.5 -163
t-36.5 -200.5q0 -121 55 -184.5t160 -63.5zM1057 1266h-611l33 164h608z" />
    <glyph glyph-name="Obreve" unicode="&#x14e;" horiz-adv-x="1593" 
d="M707 -25q-254 0 -410 163t-156 431q0 89 17 179.5t51.5 177.5t84 165.5t118 144.5t149 114.5t181.5 76t212 27.5q285 0 440.5 -158t155.5 -448q0 -73 -12 -150.5t-41 -164t-72.5 -165.5t-111.5 -151.5t-152.5 -125.5t-201 -84.5t-252.5 -31.5zM741 201q95 0 179 43.5
t143.5 114.5t102.5 160t64 181.5t21 178.5q0 154 -79 252t-228 98q-95 0 -178 -42t-141.5 -111t-101 -157t-63 -181.5t-20.5 -182.5q0 -158 79 -256t222 -98zM1282 1827h127q-17 -137 -122 -224t-245 -87q-135 0 -218 82.5t-83 228.5h127q11 -88 63 -126t126 -38
q168 0 225 164z" />
    <glyph glyph-name="obreve" unicode="&#x14f;" horiz-adv-x="1251" 
d="M563 -25q-224 0 -351.5 129.5t-127.5 352.5q0 173 82 315.5t225.5 224.5t317.5 82q221 0 352 -125.5t131 -339.5q0 -182 -78.5 -327.5t-222.5 -228.5t-328 -83zM586 188q77 0 140 41t100.5 105.5t58 137.5t20.5 142q0 252 -211 252q-98 0 -174 -66.5t-112.5 -163
t-36.5 -200.5q0 -121 55 -184.5t160 -63.5zM1016 1493h147q-36 -135 -127.5 -216t-234.5 -81q-325 0 -328 297h143q4 -73 50 -111.5t125 -38.5q83 0 136.5 35t88.5 115z" />
    <glyph glyph-name="Ohungarumlaut" unicode="&#x150;" horiz-adv-x="1593" 
d="M707 -25q-254 0 -410 163t-156 431q0 89 17 179.5t51.5 177.5t84 165.5t118 144.5t149 114.5t181.5 76t212 27.5q285 0 440.5 -158t155.5 -448q0 -73 -12 -150.5t-41 -164t-72.5 -165.5t-111.5 -151.5t-152.5 -125.5t-201 -84.5t-252.5 -31.5zM741 201q95 0 179 43.5
t143.5 114.5t102.5 160t64 181.5t21 178.5q0 154 -79 252t-228 98q-95 0 -178 -42t-141.5 -111t-101 -157t-63 -181.5t-20.5 -182.5q0 -158 79 -256t222 -98zM829 1516h-176l166 299h273zM1233 1516h-176l166 299h272z" />
    <glyph glyph-name="ohungarumlaut" unicode="&#x151;" horiz-adv-x="1251" 
d="M563 -25q-224 0 -351.5 129.5t-127.5 352.5q0 173 82 315.5t225.5 224.5t317.5 82q221 0 352 -125.5t131 -339.5q0 -182 -78.5 -327.5t-222.5 -228.5t-328 -83zM586 188q77 0 140 41t100.5 105.5t58 137.5t20.5 142q0 252 -211 252q-98 0 -174 -66.5t-112.5 -163
t-36.5 -200.5q0 -121 55 -184.5t160 -63.5zM598 1198h-176l166 299h272zM1001 1198h-176l166 299h273z" />
    <glyph glyph-name="OE" unicode="&#x152;" horiz-adv-x="1933" 
d="M1718 0h-567q-120 0 -238.5 -6t-175.5 -6q-126 0 -235.5 45.5t-189.5 127.5t-125.5 202.5t-45.5 263.5q0 177 57 326t163 258t265 170t355 61q88 0 223 -6q132 -6 221 -6h580l-45 -226h-528l-74 -352h477l-45 -225h-479l-84 -402h538zM938 225l205 979q-73 13 -146 13
q-123 0 -227.5 -46t-176.5 -126t-112.5 -188.5t-40.5 -231.5q0 -180 97.5 -296t277.5 -116q65 0 123 12z" />
    <glyph glyph-name="oe" unicode="&#x153;" horiz-adv-x="1933" 
d="M1722 246l-41 -217q-160 -54 -331 -54q-274 0 -367 197q-60 -94 -174 -145.5t-246 -51.5q-225 0 -352 129t-127 353q0 171 79 314t216.5 225.5t302.5 82.5t262 -49.5t141 -146.5q83 108 170 152t218 44q201 0 310 -103.5t109 -295.5q0 -112 -28 -238h-697v-16
q0 -250 258 -250q132 0 297 70zM1194 631h428q8 57 8 84q0 75 -37 125.5t-120 50.5q-95 0 -172.5 -71t-106.5 -189zM573 176q77 0 140 42t101 109t58.5 144.5t20.5 155.5q0 112 -49.5 182t-145.5 70q-78 0 -142 -42t-103.5 -108.5t-60.5 -142t-21 -148.5q0 -126 51.5 -194
t150.5 -68z" />
    <glyph glyph-name="Racute" unicode="&#x154;" horiz-adv-x="1251" 
d="M1114 0h-301l-78 377q-2 11 -7.5 41t-8 41.5t-9.5 35t-14 34t-19 26t-26.5 22t-36 12t-47.5 5.5h-112l-125 -594h-287l299 1430h403q75 0 132.5 -4.5t118.5 -16.5t104 -36t78.5 -60.5t53 -92t17.5 -128.5q0 -176 -116.5 -277t-301.5 -104v-4q37 -2 65.5 -17t45 -38.5
t24.5 -43t13 -41.5zM506 819h100q162 0 253 60t91 176q0 38 -11 65t-29.5 43t-47.5 25.5t-58.5 12.5t-70.5 3h-147zM823 1516h-176l166 299h272z" />
    <glyph glyph-name="racute" unicode="&#x155;" horiz-adv-x="796" 
d="M317 0h-274l188 913q14 75 25 142h262l-37 -199h4q39 91 130 157t184 66q61 0 102 -10l-57 -268q-50 16 -105 16q-125 0 -207.5 -91.5t-115.5 -252.5zM666 1198h-177l166 299h273z" />
    <glyph glyph-name="Rcommaaccent" unicode="&#x156;" horiz-adv-x="1251" 
d="M1114 0h-301l-78 377q-2 11 -7.5 41t-8 41.5t-9.5 35t-14 34t-19 26t-26.5 22t-36 12t-47.5 5.5h-112l-125 -594h-287l299 1430h403q75 0 132.5 -4.5t118.5 -16.5t104 -36t78.5 -60.5t53 -92t17.5 -128.5q0 -176 -116.5 -277t-301.5 -104v-4q37 -2 65.5 -17t45 -38.5
t24.5 -43t13 -41.5zM506 819h100q162 0 253 60t91 176q0 38 -11 65t-29.5 43t-47.5 25.5t-58.5 12.5t-70.5 3h-147zM514 -455h-205l129 320h260z" />
    <glyph glyph-name="rcommaaccent" unicode="&#x157;" horiz-adv-x="796" 
d="M317 0h-274l188 913q14 75 25 142h262l-37 -199h4q39 91 130 157t184 66q61 0 102 -10l-57 -268q-50 16 -105 16q-125 0 -207.5 -91.5t-115.5 -252.5zM117 -455h-205l129 320h260z" />
    <glyph glyph-name="Rcaron" unicode="&#x158;" horiz-adv-x="1251" 
d="M1114 0h-301l-78 377q-2 11 -7.5 41t-8 41.5t-9.5 35t-14 34t-19 26t-26.5 22t-36 12t-47.5 5.5h-112l-125 -594h-287l299 1430h403q75 0 132.5 -4.5t118.5 -16.5t104 -36t78.5 -60.5t53 -92t17.5 -128.5q0 -176 -116.5 -277t-301.5 -104v-4q37 -2 65.5 -17t45 -38.5
t24.5 -43t13 -41.5zM506 819h100q162 0 253 60t91 176q0 38 -11 65t-29.5 43t-47.5 25.5t-58.5 12.5t-70.5 3h-147zM903 1516h-235l-154 299h182l103 -189l164 189h204z" />
    <glyph glyph-name="rcaron" unicode="&#x159;" horiz-adv-x="796" 
d="M317 0h-274l188 913q14 75 25 142h262l-37 -199h4q39 91 130 157t184 66q61 0 102 -10l-57 -268q-50 16 -105 16q-125 0 -207.5 -91.5t-115.5 -252.5zM725 1198h-236l-153 299h182l103 -188l163 188h205z" />
    <glyph glyph-name="Sacute" unicode="&#x15a;" 
d="M20 55l74 244q209 -98 350 -98q115 0 194 59t79 164q0 72 -47 120t-148 105q-36 20 -49 27.5t-45.5 28t-46.5 31.5t-40 32.5t-38 38.5t-29.5 42.5t-25 50t-13.5 56.5t-6 66q0 105 42 188.5t115.5 136t169.5 80t208 27.5q212 0 369 -63l-68 -236q-145 74 -297 74
q-57 0 -108.5 -14.5t-91.5 -53t-40 -96.5q0 -67 49.5 -113t178.5 -121q45 -26 77.5 -49t69 -58t59.5 -71.5t38.5 -88.5t15.5 -111q0 -159 -75.5 -268t-205.5 -159.5t-307 -50.5q-188 0 -408 80zM801 1516h-176l166 299h272z" />
    <glyph glyph-name="sacute" unicode="&#x15b;" horiz-adv-x="909" 
d="M-4 39l59 219q147 -82 262 -82q85 0 137 30.5t52 86.5q0 27 -10 49.5t-36.5 46.5t-53 42.5t-78.5 51.5q-88 56 -133 116t-45 144q0 85 37 150.5t101 105.5t144.5 60t173.5 20q130 0 299 -43l-59 -207q-133 50 -225 50q-85 0 -135 -28t-50 -79q0 -36 35.5 -70.5
t116.5 -85.5q106 -68 155.5 -133.5t49.5 -150.5q0 -121 -63 -203t-167.5 -118t-245.5 -36q-185 0 -321 64zM653 1198h-176l166 299h272z" />
    <glyph glyph-name="Scircumflex" unicode="&#x15c;" 
d="M20 55l74 244q209 -98 350 -98q115 0 194 59t79 164q0 72 -47 120t-148 105q-36 20 -49 27.5t-45.5 28t-46.5 31.5t-40 32.5t-38 38.5t-29.5 42.5t-25 50t-13.5 56.5t-6 66q0 105 42 188.5t115.5 136t169.5 80t208 27.5q212 0 369 -63l-68 -236q-145 74 -297 74
q-57 0 -108.5 -14.5t-91.5 -53t-40 -96.5q0 -67 49.5 -113t178.5 -121q45 -26 77.5 -49t69 -58t59.5 -71.5t38.5 -88.5t15.5 -111q0 -159 -75.5 -268t-205.5 -159.5t-307 -50.5q-188 0 -408 80zM1112 1516h-182l-103 190l-163 -190h-205l264 299h235z" />
    <glyph glyph-name="scircumflex" unicode="&#x15d;" horiz-adv-x="909" 
d="M-4 39l59 219q147 -82 262 -82q85 0 137 30.5t52 86.5q0 27 -10 49.5t-36.5 46.5t-53 42.5t-78.5 51.5q-88 56 -133 116t-45 144q0 85 37 150.5t101 105.5t144.5 60t173.5 20q130 0 299 -43l-59 -207q-133 50 -225 50q-85 0 -135 -28t-50 -79q0 -36 35.5 -70.5
t116.5 -85.5q106 -68 155.5 -133.5t49.5 -150.5q0 -121 -63 -203t-167.5 -118t-245.5 -36q-185 0 -321 64zM909 1198h-182l-102 191l-164 -191h-205l264 299h236z" />
    <glyph glyph-name="Scedilla" unicode="&#x15e;" 
d="M129 -412l41 111q89 -31 178 -31q43 0 74 19.5t31 54.5q0 34 -25 53t-57 19q-49 0 -97 -19l-34 53l116 129q-128 11 -336 78l74 244q209 -98 350 -98q115 0 194 59t79 164q0 72 -47 120t-148 105q-36 20 -49 27.5t-45.5 28t-46.5 31.5t-40 32.5t-38 38.5t-29.5 42.5
t-25 50t-13.5 56.5t-6 66q0 105 42 188.5t115.5 136t169.5 80t208 27.5q212 0 369 -63l-68 -236q-145 74 -297 74q-57 0 -108.5 -14.5t-91.5 -53t-40 -96.5q0 -67 49.5 -113t178.5 -121q45 -26 77.5 -49t69 -58t59.5 -71.5t38.5 -88.5t15.5 -111q0 -216 -138 -340t-395 -136
l-84 -86l4 -4q44 13 91 13q76 0 117.5 -38t41.5 -106q0 -56 -28.5 -98.5t-74 -66t-94.5 -35t-98 -11.5q-140 0 -229 43z" />
    <glyph glyph-name="scedilla" unicode="&#x15f;" horiz-adv-x="909" 
d="M29 -412l41 111q89 -31 178 -31q45 0 74.5 19.5t29.5 54.5t-23.5 53.5t-60.5 18.5q-46 0 -94 -19l-35 53l117 129q-144 9 -260 62l59 219q147 -82 262 -82q85 0 137 30.5t52 86.5q0 27 -10 49.5t-36.5 46.5t-53 42.5t-78.5 51.5q-88 56 -133 116t-45 144q0 85 37 150.5
t101 105.5t144.5 60t173.5 20q130 0 299 -43l-59 -207q-133 50 -225 50q-85 0 -135 -28t-50 -79q0 -36 35.5 -70.5t116.5 -85.5q106 -69 155.5 -133t49.5 -151q0 -319 -410 -355l-84 -86l4 -4q44 13 88 13q70 0 116 -35t46 -107q0 -71 -45.5 -121t-111.5 -71t-144 -21
q-138 0 -223 43z" />
    <glyph glyph-name="Scaron" unicode="&#x160;" 
d="M20 55l74 244q209 -98 350 -98q115 0 194 59t79 164q0 72 -47 120t-148 105q-36 20 -49 27.5t-45.5 28t-46.5 31.5t-40 32.5t-38 38.5t-29.5 42.5t-25 50t-13.5 56.5t-6 66q0 105 42 188.5t115.5 136t169.5 80t208 27.5q212 0 369 -63l-68 -236q-145 74 -297 74
q-57 0 -108.5 -14.5t-91.5 -53t-40 -96.5q0 -67 49.5 -113t178.5 -121q45 -26 77.5 -49t69 -58t59.5 -71.5t38.5 -88.5t15.5 -111q0 -159 -75.5 -268t-205.5 -159.5t-307 -50.5q-188 0 -408 80zM907 1516h-235l-154 299h182l103 -189l164 189h204z" />
    <glyph glyph-name="scaron" unicode="&#x161;" horiz-adv-x="909" 
d="M-4 39l59 219q147 -82 262 -82q85 0 137 30.5t52 86.5q0 27 -10 49.5t-36.5 46.5t-53 42.5t-78.5 51.5q-88 56 -133 116t-45 144q0 85 37 150.5t101 105.5t144.5 60t173.5 20q130 0 299 -43l-59 -207q-133 50 -225 50q-85 0 -135 -28t-50 -79q0 -36 35.5 -70.5
t116.5 -85.5q106 -68 155.5 -133.5t49.5 -150.5q0 -121 -63 -203t-167.5 -118t-245.5 -36q-185 0 -321 64zM690 1198h-235l-154 299h182l103 -188l164 188h204z" />
    <glyph glyph-name="Tcommaaccent" unicode="&#x162;" 
d="M614 0h-299l260 1204h-403l49 226h1104l-47 -226h-404zM395 -455h-205l129 320h261z" />
    <glyph glyph-name="tcommaaccent" unicode="&#x163;" horiz-adv-x="796" 
d="M707 213l-48 -213q-108 -25 -147 -25q-317 0 -317 279q0 91 36 252l76 348h-198l43 201h198l47 217l295 96l-67 -313h245l-43 -201h-245l-97 -442q-16 -77 -16 -119q0 -49 28 -77t76 -28q71 0 134 25zM317 -455h-204l129 320h260z" />
    <glyph glyph-name="Tcaron" unicode="&#x164;" 
d="M614 0h-299l260 1204h-403l49 226h1104l-47 -226h-404zM887 1516h-236l-153 299h182l102 -189l164 189h205z" />
    <glyph glyph-name="tcaron" unicode="&#x165;" horiz-adv-x="815" 
d="M889 1130h-148l105 367h225zM707 213l-48 -213q-108 -25 -147 -25q-317 0 -317 279q0 91 36 252l76 348h-198l43 201h198l47 217l295 96l-67 -313h245l-43 -201h-245l-97 -442q-16 -77 -16 -119q0 -49 28 -77t76 -28q71 0 134 25z" />
    <glyph glyph-name="Tbar" unicode="&#x166;" 
d="M614 0h-299l162 748h-311l39 184h311l59 272h-403l49 226h1104l-47 -226h-404l-59 -272h320l-39 -184h-320z" />
    <glyph glyph-name="tbar" unicode="&#x167;" horiz-adv-x="796" 
d="M707 213l-48 -213q-77 -25 -147 -25q-317 0 -317 279q0 92 38 264h-170l31 154h172l41 182h-198l43 201h198l47 217l295 96l-67 -313h245l-43 -201h-245l-41 -182h202l-30 -154h-205l-23 -106q-16 -77 -16 -119q0 -49 28 -77t76 -28q71 0 134 25z" />
    <glyph glyph-name="Utilde" unicode="&#x168;" horiz-adv-x="1478" 
d="M1090 676l161 754h283l-188 -857q-67 -308 -221.5 -453t-434.5 -145q-520 0 -520 453q0 110 27 236l161 766h287l-156 -725q-32 -147 -32 -240q0 -264 235 -264q75 0 134 23t99 61t72 101t52.5 129.5t40.5 160.5zM1241 1815h105q-36 -244 -242 -244q-51 0 -145 41
t-132 41q-39 0 -68 -31t-34 -70h-104q21 120 80 184t157 64q59 0 154.5 -41t120.5 -41q45 0 69.5 22.5t38.5 74.5z" />
    <glyph glyph-name="utilde" unicode="&#x169;" horiz-adv-x="1251" 
d="M1008 0h-269l19 102h-4q-139 -127 -299 -127q-157 0 -250.5 91.5t-93.5 246.5q0 67 30 211l115 531h274l-102 -496q-2 -11 -8.5 -42.5t-9 -47t-6.5 -41t-5.5 -47t-1.5 -43.5q0 -68 41.5 -109t108.5 -41q110 0 184 82t115 273l108 512h275l-176 -817q-34 -152 -45 -238z
M1034 1497h105q-36 -244 -242 -244q-51 0 -144.5 41t-131.5 41q-40 0 -69 -30.5t-34 -69.5h-104q21 120 80 184t157 64q59 0 154.5 -41t120.5 -41q45 0 69.5 22t38.5 74z" />
    <glyph glyph-name="Umacron" unicode="&#x16a;" horiz-adv-x="1478" 
d="M1090 676l161 754h283l-188 -857q-67 -308 -221.5 -453t-434.5 -145q-520 0 -520 453q0 110 27 236l161 766h287l-156 -725q-32 -147 -32 -240q0 -264 235 -264q75 0 134 23t99 61t72 101t52.5 129.5t40.5 160.5zM1280 1604h-610l32 163h609z" />
    <glyph glyph-name="umacron" unicode="&#x16b;" horiz-adv-x="1251" 
d="M1008 0h-269l19 102h-4q-139 -127 -299 -127q-157 0 -250.5 91.5t-93.5 246.5q0 67 30 211l115 531h274l-102 -496q-2 -11 -8.5 -42.5t-9 -47t-6.5 -41t-5.5 -47t-1.5 -43.5q0 -68 41.5 -109t108.5 -41q110 0 184 82t115 273l108 512h275l-176 -817q-34 -152 -45 -238z
M1069 1266h-610l33 164h608z" />
    <glyph glyph-name="Ubreve" unicode="&#x16c;" horiz-adv-x="1478" 
d="M1090 676l161 754h283l-188 -857q-67 -308 -221.5 -453t-434.5 -145q-520 0 -520 453q0 110 27 236l161 766h287l-156 -725q-32 -147 -32 -240q0 -264 235 -264q75 0 134 23t99 61t72 101t52.5 129.5t40.5 160.5zM1204 1827h127q-17 -138 -121.5 -224.5t-244.5 -86.5
q-135 0 -218 82.5t-83 228.5h127q11 -88 63 -126t125 -38q168 0 225 164z" />
    <glyph glyph-name="ubreve" unicode="&#x16d;" horiz-adv-x="1251" 
d="M1008 0h-269l19 102h-4q-139 -127 -299 -127q-157 0 -250.5 91.5t-93.5 246.5q0 67 30 211l115 531h274l-102 -496q-2 -11 -8.5 -42.5t-9 -47t-6.5 -41t-5.5 -47t-1.5 -43.5q0 -68 41.5 -109t108.5 -41q110 0 184 82t115 273l108 512h275l-176 -817q-34 -152 -45 -238z
M1016 1493h147q-36 -135 -127.5 -216t-234.5 -81q-325 0 -328 297h143q4 -73 50 -111.5t125 -38.5q83 0 136.5 35t88.5 115z" />
    <glyph glyph-name="Uring" unicode="&#x16e;" horiz-adv-x="1478" 
d="M1090 676l161 754h283l-188 -857q-67 -308 -221.5 -453t-434.5 -145q-520 0 -520 453q0 110 27 236l161 766h287l-156 -725q-32 -147 -32 -240q0 -264 235 -264q75 0 134 23t99 61t72 101t52.5 129.5t40.5 160.5zM1186 1696q0 -86 -63.5 -149.5t-151.5 -63.5
q-85 0 -149 63t-64 150q0 88 63.5 151.5t149.5 63.5t150.5 -63t64.5 -152zM1075 1696q0 44 -30 74t-74 30t-73.5 -30.5t-29.5 -73.5t29.5 -73t73.5 -30t74 29.5t30 73.5z" />
    <glyph glyph-name="uring" unicode="&#x16f;" horiz-adv-x="1251" 
d="M1008 0h-269l19 102h-4q-139 -127 -299 -127q-157 0 -250.5 91.5t-93.5 246.5q0 67 30 211l115 531h274l-102 -496q-2 -11 -8.5 -42.5t-9 -47t-6.5 -41t-5.5 -47t-1.5 -43.5q0 -68 41.5 -109t108.5 -41q110 0 184 82t115 273l108 512h275l-176 -817q-34 -152 -45 -238z
M991 1407q0 -86 -63.5 -149.5t-151.5 -63.5q-87 0 -150 64t-63 149q0 86 62.5 150.5t150.5 64.5q89 0 152 -64.5t63 -150.5zM881 1407q0 43 -30.5 73.5t-76.5 30.5q-42 0 -71 -30.5t-29 -73.5q0 -44 29.5 -73t72.5 -29q45 0 75 29t30 73z" />
    <glyph glyph-name="Uhungarumlaut" unicode="&#x170;" horiz-adv-x="1478" 
d="M1090 676l161 754h283l-188 -857q-67 -308 -221.5 -453t-434.5 -145q-520 0 -520 453q0 110 27 236l161 766h287l-156 -725q-32 -147 -32 -240q0 -264 235 -264q75 0 134 23t99 61t72 101t52.5 129.5t40.5 160.5zM815 1516h-176l166 299h272zM1219 1516h-177l166 299h273
z" />
    <glyph glyph-name="uhungarumlaut" unicode="&#x171;" horiz-adv-x="1251" 
d="M1008 0h-269l19 102h-4q-139 -127 -299 -127q-157 0 -250.5 91.5t-93.5 246.5q0 67 30 211l115 531h274l-102 -496q-2 -11 -8.5 -42.5t-9 -47t-6.5 -41t-5.5 -47t-1.5 -43.5q0 -68 41.5 -109t108.5 -41q110 0 184 82t115 273l108 512h275l-176 -817q-34 -152 -45 -238z
M625 1198h-176l165 299h273zM1028 1198h-176l166 299h272z" />
    <glyph glyph-name="Uogonek" unicode="&#x172;" horiz-adv-x="1478" 
d="M727 -274l78 -29q-88 -152 -266 -152q-79 0 -132 34t-53 99q0 150 262 299q-222 13 -334 129t-112 320q0 112 27 238l161 766h287l-156 -725q-32 -147 -32 -240q0 -264 235 -264q92 0 158 30.5t111 95t73 142.5t53 195l164 766h283l-193 -873q-62 -283 -203 -422
t-374 -158q-116 -71 -175 -133.5t-59 -107.5q0 -32 19.5 -50t52.5 -18q38 0 66 14t59 44z" />
    <glyph glyph-name="uogonek" unicode="&#x173;" horiz-adv-x="1251" 
d="M854 -274l78 -29q-88 -152 -268 -152q-77 0 -130 33.5t-53 97.5q0 35 11.5 66.5t42 72t94 87.5t159.5 98h-49l19 102h-4q-136 -127 -299 -127q-157 0 -250.5 91.5t-93.5 246.5q0 67 30 211l115 531h274l-102 -496q-2 -11 -8.5 -42.5t-9 -47t-6.5 -41t-5.5 -47t-1.5 -43.5
q0 -68 41.5 -109t108.5 -41q110 0 184 82t115 273l108 512h275l-176 -817q-33 -149 -33 -162l-12 -76h-80q-137 -83 -204 -150.5t-67 -113.5q0 -32 19.5 -50t52.5 -18q36 0 64 13.5t61 44.5z" />
    <glyph glyph-name="Wcircumflex" unicode="&#x174;" horiz-adv-x="2048" 
d="M1544 0h-358l-15 1143h-4l-503 -1143h-355l-90 1430h287l43 -1096h4l475 1096h385l6 -1096h4l506 1096h297zM1540 1516h-182l-103 190l-163 -190h-205l264 299h235z" />
    <glyph glyph-name="wcircumflex" unicode="&#x175;" horiz-adv-x="1820" 
d="M1343 0h-309l-59 807h-4l-385 -807h-312l-139 1055h275l75 -793h4l388 793h305l57 -793h4l406 793h280zM1364 1198h-182l-103 191l-164 -191h-204l264 299h235z" />
    <glyph glyph-name="Ycircumflex" unicode="&#x176;" horiz-adv-x="1366" 
d="M717 0h-287l125 592l-336 838h303l213 -601l465 601h334l-692 -838zM1198 1516h-182l-103 190l-163 -190h-205l264 299h235z" />
    <glyph glyph-name="ycircumflex" unicode="&#x177;" 
d="M322 -51l-187 1106h281l98 -785h4l420 785h301l-733 -1245q-83 -140 -179 -202.5t-223 -62.5q-91 0 -204 29l61 209q65 -25 121 -25q67 0 119.5 43t120.5 148zM1024 1198h-182l-103 191l-164 -191h-204l264 299h235z" />
    <glyph glyph-name="Ydieresis" unicode="&#x178;" horiz-adv-x="1366" 
d="M717 0h-287l125 592l-336 838h303l213 -601l465 601h334l-692 -838zM801 1561h-234l51 237h234zM1227 1561h-234l51 237h234z" />
    <glyph glyph-name="Zacute" unicode="&#x179;" 
d="M977 0h-1004l45 225l861 979h-625l49 226h981l-49 -226l-862 -979h651zM858 1516h-176l166 299h272z" />
    <glyph glyph-name="zacute" unicode="&#x17a;" horiz-adv-x="1024" 
d="M852 0h-883l43 213l650 629h-486l47 213h830l-45 -213l-646 -629h529zM709 1198h-177l166 299h273z" />
    <glyph glyph-name="Zdotaccent" unicode="&#x17b;" 
d="M977 0h-1004l45 225l861 979h-625l49 226h981l-49 -226l-862 -979h651zM920 1561h-234l51 237h234z" />
    <glyph glyph-name="zdotaccent" unicode="&#x17c;" horiz-adv-x="1024" 
d="M852 0h-883l43 213l650 629h-486l47 213h830l-45 -213l-646 -629h529zM784 1247h-233l51 238h234z" />
    <glyph glyph-name="Zcaron" unicode="&#x17d;" 
d="M977 0h-1004l45 225l861 979h-625l49 226h981l-49 -226l-862 -979h651zM907 1516h-235l-154 299h182l103 -189l164 189h204z" />
    <glyph glyph-name="zcaron" unicode="&#x17e;" horiz-adv-x="1024" 
d="M852 0h-883l43 213l650 629h-486l47 213h830l-45 -213l-646 -629h529zM748 1198h-236l-154 299h183l102 -188l164 188h205z" />
    <glyph glyph-name="florin" unicode="&#x192;" 
d="M4 -416l64 201q59 -27 104 -27q93 0 138.5 64.5t74.5 202.5l135 643h-241l40 163h240l43 187q28 122 61 200.5t83 133.5t120 78.5t170 23.5q99 0 224 -33l-64 -200q-41 20 -106 20q-50 0 -85 -13.5t-55.5 -42t-31.5 -56t-21 -70.5l-53 -228h237l-37 -163h-233l-139 -641
q-29 -135 -62 -221t-84.5 -147.5t-123.5 -87.5t-177 -26q-97 0 -221 39z" />
    <glyph glyph-name="Scommaaccent" unicode="&#x218;" 
d="M20 55l74 244q209 -98 350 -98q115 0 194 59t79 164q0 72 -47 120t-148 105q-36 20 -49 27.5t-45.5 28t-46.5 31.5t-40 32.5t-38 38.5t-29.5 42.5t-25 50t-13.5 56.5t-6 66q0 105 42 188.5t115.5 136t169.5 80t208 27.5q212 0 369 -63l-68 -236q-145 74 -297 74
q-57 0 -108.5 -14.5t-91.5 -53t-40 -96.5q0 -67 49.5 -113t178.5 -121q45 -26 77.5 -49t69 -58t59.5 -71.5t38.5 -88.5t15.5 -111q0 -159 -75.5 -268t-205.5 -159.5t-307 -50.5q-188 0 -408 80zM397 -455h-204l129 320h260z" />
    <glyph glyph-name="scommaaccent" unicode="&#x219;" horiz-adv-x="909" 
d="M-4 39l59 219q147 -82 262 -82q85 0 137 30.5t52 86.5q0 27 -10 49.5t-36.5 46.5t-53 42.5t-78.5 51.5q-88 56 -133 116t-45 144q0 85 37 150.5t101 105.5t144.5 60t173.5 20q130 0 299 -43l-59 -207q-133 50 -225 50q-85 0 -135 -28t-50 -79q0 -36 35.5 -70.5
t116.5 -85.5q106 -68 155.5 -133.5t49.5 -150.5q0 -121 -63 -203t-167.5 -118t-245.5 -36q-185 0 -321 64zM309 -455h-205l129 320h261z" />
    <glyph glyph-name="uni021A" unicode="&#x21a;" 
d="M614 0h-299l260 1204h-403l49 226h1104l-47 -226h-404zM395 -455h-205l129 320h261z" />
    <glyph glyph-name="uni021B" unicode="&#x21b;" horiz-adv-x="796" 
d="M707 213l-48 -213q-108 -25 -147 -25q-317 0 -317 279q0 91 36 252l76 348h-198l43 201h198l47 217l295 96l-67 -313h245l-43 -201h-245l-97 -442q-16 -77 -16 -119q0 -49 28 -77t76 -28q71 0 134 25zM317 -455h-204l129 320h260z" />
    <glyph glyph-name="dotlessj" unicode="&#x237;" horiz-adv-x="569" 
d="M-211 -430l66 201q41 -13 61 -13q42 0 65.5 33.5t36.5 99.5l250 1164h275l-234 -1088q-28 -130 -56 -209t-68 -128t-89.5 -67t-124.5 -18q-91 0 -182 25z" />
    <glyph glyph-name="circumflex" unicode="&#x2c6;" horiz-adv-x="569" 
d="M739 1198h-182l-102 191l-164 -191h-205l264 299h236z" />
    <glyph glyph-name="caron" unicode="&#x2c7;" horiz-adv-x="569" 
d="M520 1198h-235l-154 299h182l103 -188l164 188h204z" />
    <glyph glyph-name="uni02C9" unicode="&#x2c9;" horiz-adv-x="569" 
d="M719 1266h-610l32 164h609z" />
    <glyph glyph-name="breve" unicode="&#x2d8;" horiz-adv-x="569" 
d="M676 1493h147q-36 -135 -127.5 -216t-234.5 -81q-325 0 -328 297h143q4 -73 50 -111.5t125 -38.5q83 0 136.5 35t88.5 115z" />
    <glyph glyph-name="dotaccent" unicode="&#x2d9;" horiz-adv-x="569" 
d="M512 1247h-233l51 238h233z" />
    <glyph glyph-name="ring" unicode="&#x2da;" horiz-adv-x="569" 
d="M791 1407q0 -86 -64 -149.5t-152 -63.5q-87 0 -150 64t-63 149q0 86 62.5 150.5t150.5 64.5q89 0 152.5 -64.5t63.5 -150.5zM680 1407q0 43 -30 73.5t-77 30.5q-42 0 -71 -30.5t-29 -73.5q0 -44 29.5 -73t72.5 -29q45 0 75 29t30 73z" />
    <glyph glyph-name="ogonek" unicode="&#x2db;" horiz-adv-x="569" 
d="M369 -254l98 -41q-91 -160 -272 -160q-76 0 -130.5 35.5t-54.5 102.5q0 47 28 95.5t74.5 89.5t98 74t106.5 58h140q-145 -90 -208 -149.5t-63 -110.5q0 -25 15.5 -48.5t50.5 -23.5q72 0 117 78z" />
    <glyph glyph-name="tilde" unicode="&#x2dc;" horiz-adv-x="569" 
d="M694 1497h105q-36 -244 -242 -244q-51 0 -144.5 41t-131.5 41q-40 0 -69 -30.5t-34 -69.5h-104q21 120 80 184t157 64q59 0 154.5 -41t120.5 -41q45 0 69.5 22t38.5 74z" />
    <glyph glyph-name="hungarumlaut" unicode="&#x2dd;" horiz-adv-x="569" 
d="M246 1198h-176l166 299h272zM649 1198h-176l166 299h272z" />
    <glyph glyph-name="uni0394" unicode="&#x394;" horiz-adv-x="1449" 
d="M1329 0h-1415l838 1430h350zM1010 211l-123 981l-4 2l-549 -983h676z" />
    <glyph glyph-name="uni03A9" unicode="&#x3a9;" horiz-adv-x="1585" 
d="M1389 0h-603l58 225q121 52 212.5 157.5t136 228.5t44.5 245q0 182 -81 277.5t-230 95.5q-204 0 -339.5 -163t-135.5 -419q0 -313 184 -422l-37 -225h-575l45 225h288q-92 74 -143 196t-51 261q0 171 58 315.5t161.5 244.5t249 156t315.5 56q137 0 249 -45t185.5 -123
t113.5 -182.5t40 -224.5q0 -206 -113 -384t-293 -270h308z" />
    <glyph glyph-name="uni03BC" unicode="&#x3bc;" horiz-adv-x="1251" 
d="M1008 0h-269l19 102h-4q-139 -127 -299 -127q-46 0 -76 16.5t-55 53.5l-99 -475h-274l309 1485h270l-100 -488q-2 -13 -8.5 -43.5t-9.5 -48.5t-7 -44t-6 -48.5t-2 -44.5q0 -68 41.5 -109t108.5 -41q113 0 187.5 84.5t111.5 266.5l108 516h275l-176 -817
q-14 -62 -23.5 -112.5t-15 -85t-6.5 -40.5z" />
    <glyph glyph-name="pi" unicode="&#x3c0;" horiz-adv-x="1343" 
d="M1219 197l-31 -193q-110 -29 -172 -29q-135 0 -195.5 48.5t-60.5 158.5q0 45 16 123l117 549h-324l-182 -854h-274l182 854h-186l43 201h1247l-43 -201h-189l-114 -539q-9 -43 -9 -69q0 -74 76 -74q36 0 99 25z" />
    <glyph glyph-name="uni1E9E" unicode="&#x1e9e;" horiz-adv-x="1421" 
d="M479 45l72 244q146 -88 287 -88q88 0 146 50.5t58 135.5q0 22 -6.5 44.5t-12.5 37.5t-24.5 40.5t-27 36t-35.5 42t-35 41.5q-80 94 -116.5 155.5t-36.5 126.5q0 120 86 201.5t221 116.5q-78 8 -142 8q-159 0 -250.5 -81.5t-127.5 -248.5l-193 -907h-287l203 958
q29 135 88.5 231.5t147.5 154.5t197.5 85t248.5 27q249 0 457 -31l-45 -215q-72 -3 -142 -31.5t-119 -81t-49 -114.5q0 -12 2 -24t4.5 -22t9.5 -23.5t11 -22.5t14.5 -24.5t15.5 -23t18.5 -25t19 -24t22 -26.5t21.5 -27q35 -44 49.5 -63.5t41.5 -60t38.5 -68.5t21.5 -68
t10 -80q0 -85 -27 -155.5t-75 -120t-114.5 -84t-145 -50.5t-166.5 -16q-79 0 -170 19t-164 51z" />
    <glyph glyph-name="uni2010" unicode="&#x2010;" horiz-adv-x="796" 
d="M659 438h-538l47 226h539z" />
    <glyph glyph-name="endash" unicode="&#x2013;" horiz-adv-x="1024" 
d="M1020 457h-1024l41 188h1024z" />
    <glyph glyph-name="emdash" unicode="&#x2014;" horiz-adv-x="2048" 
d="M2044 457h-2048l41 188h2048z" />
    <glyph glyph-name="quoteleft" unicode="&#x2018;" horiz-adv-x="569" 
d="M481 918h-309l270 512h248z" />
    <glyph glyph-name="quoteright" unicode="&#x2019;" horiz-adv-x="569" 
d="M438 918h-245l208 512h310z" />
    <glyph glyph-name="quotesinglbase" unicode="&#x201a;" horiz-adv-x="569" 
d="M170 -225h-246l209 512h309z" />
    <glyph glyph-name="quotedblleft" unicode="&#x201c;" horiz-adv-x="1024" 
d="M481 918h-309l270 512h248zM936 918h-309l270 512h248z" />
    <glyph glyph-name="quotedblright" unicode="&#x201d;" horiz-adv-x="1024" 
d="M440 918h-247l208 512h310zM895 918h-248l209 512h309z" />
    <glyph glyph-name="quotedblbase" unicode="&#x201e;" horiz-adv-x="1024" 
d="M170 -225h-246l209 512h309zM625 -225h-246l209 512h309z" />
    <glyph glyph-name="dagger" unicode="&#x2020;" 
d="M600 0h-254l184 891h-307l45 213h307l68 326h254l-68 -326h314l-45 -213h-314z" />
    <glyph glyph-name="daggerdbl" unicode="&#x2021;" 
d="M983 301h-319l-64 -301h-254l64 301h-316l41 201h316l92 434h-320l41 201h320l61 293h254l-61 -293h317l-41 -201h-317l-90 -434h317z" />
    <glyph glyph-name="bullet" unicode="&#x2022;" horiz-adv-x="1024" 
d="M561 356q-147 0 -251.5 105.5t-104.5 253.5q0 146 103.5 251t252.5 105t254 -104.5t105 -251.5t-105 -253t-254 -106z" />
    <glyph glyph-name="ellipsis" unicode="&#x2026;" horiz-adv-x="2048" 
d="M393 0h-287l60 287h287zM1075 0h-287l60 287h287zM1757 0h-287l60 287h287z" />
    <glyph glyph-name="perthousand" unicode="&#x2030;" horiz-adv-x="2048" 
d="M254 -45h-174l1110 1520h174zM1667 -25q-133 0 -198.5 60.5t-65.5 193.5q0 86 21.5 165.5t63.5 145t112 105t159 39.5q113 0 185.5 -67t72.5 -181q0 -64 -10 -125t-35.5 -123t-63.5 -108.5t-100.5 -75.5t-140.5 -29zM1671 123q49 0 84 43t49 105.5t19.5 104t5.5 64.5
q0 97 -80 97q-42 0 -74.5 -35t-49.5 -87t-25.5 -101.5t-8.5 -88.5q0 -47 16.5 -74.5t63.5 -27.5zM981 -25q-133 0 -198.5 60.5t-65.5 193.5q0 86 21.5 165.5t63.5 145t112 105t159 39.5q113 0 185.5 -67t72.5 -181q0 -64 -10 -125t-35.5 -123t-63.5 -108.5t-100.5 -75.5
t-140.5 -29zM985 123q49 0 84 43t49 105.5t19.5 104t5.5 64.5q0 97 -80 97q-42 0 -74.5 -35t-49.5 -87t-25.5 -101.5t-8.5 -88.5q0 -47 16.5 -74.5t63.5 -27.5zM375 745q-133 0 -198.5 60.5t-65.5 193.5q0 86 21.5 165.5t63.5 145t112 105t159 39.5q113 0 185.5 -67
t72.5 -181q0 -64 -10 -125t-35.5 -123t-63.5 -108.5t-100.5 -75.5t-140.5 -29zM379 893q49 0 84 43t49 105.5t19.5 104t5.5 64.5q0 97 -80 97q-42 0 -74.5 -35t-49.5 -87t-25.5 -101.5t-8.5 -88.5q0 -47 16.5 -74.5t63.5 -27.5z" />
    <glyph glyph-name="guilsinglleft" unicode="&#x2039;" horiz-adv-x="796" 
d="M508 131h-236l-178 420l307 420h287l-323 -420z" />
    <glyph glyph-name="guilsinglright" unicode="&#x203a;" horiz-adv-x="796" 
d="M395 131h-286l323 420l-143 420h235l178 -420z" />
    <glyph glyph-name="fraction" unicode="&#x2044;" horiz-adv-x="342" 
d="M-170 -45h-174l860 1520h174z" />
    <glyph glyph-name="Euro" unicode="&#x20ac;" 
d="M1110 246l-35 -230q-127 -41 -305 -41q-266 0 -420.5 141.5t-154.5 393.5h-203l57 125h154q11 81 33 160h-185l58 125h174q109 244 325 389t473 145q188 0 328 -55l-98 -213q-87 49 -232 49q-153 0 -283.5 -84.5t-207.5 -230.5h606l-57 -125h-609q-23 -73 -32 -160h571
l-55 -125h-510q17 -146 111.5 -227.5t244.5 -81.5q142 0 252 45z" />
    <glyph glyph-name="uni20B9" unicode="&#x20b9;" 
d="M829 0h-344l-372 629l41 190h223q49 0 76 1t67.5 5t64.5 14t50.5 27t44 44.5t27.5 64.5h-521l35 164h512q0 40 -19 66.5t-55 38.5t-71 16t-84 4h-254l35 166h1022l-35 -164h-318q54 -41 54 -127h237l-35 -164h-229q-49 -188 -166.5 -261t-325.5 -73h-71z" />
    <glyph glyph-name="uni20BA" unicode="&#x20ba;" 
d="M451 199h36q59 0 106 13.5t84.5 56t59.5 69t50.5 106.5t37.5 110.5t37 135.5q8 28 12 43h275q-25 -142 -60.5 -252.5t-93 -206t-133.5 -158t-183.5 -97.5t-242.5 -35q-143 0 -313 16l125 586l-207 -76l39 184l207 76l28 141l-206 -75l36 180l207 76l74 338h287l-49 -224
l395 148l-37 -183l-395 -147l-31 -141l395 147l-37 -182l-395 -148z" />
    <glyph glyph-name="uni20BC" unicode="&#x20bc;" horiz-adv-x="1693" 
d="M1538 0h-283l23 111q37 192 37 374q0 67 -4 122t-17 119t-36 109.5t-63.5 80.5t-96.5 45l-174 -818h-273l174 818q-85 -17 -164 -86t-137.5 -161.5t-108.5 -208t-81 -218t-51 -199.5l-19 -88h-282l26 129q30 145 81 285t129 273t173 236t219 171t260 80l56 256h272
l-55 -256q96 -14 173 -61.5t127 -115t83.5 -156.5t48 -182t14.5 -194q0 -180 -28 -336z" />
    <glyph glyph-name="ruble" unicode="&#x20bd;" 
d="M788 285h-339l-60 -285h-287l60 285h-180l38 180h181l24 123h-178l39 180h178l142 662h284q99 0 175 -9t145.5 -34t114 -65.5t70.5 -107t26 -155.5q0 -119 -42 -210t-118 -147.5t-177 -85t-225 -28.5h-145l-27 -123h340zM553 768h104q138 0 214.5 67t76.5 199
q0 97 -54 140t-171 43h-76z" />
    <glyph glyph-name="afii61289" unicode="&#x2113;" horiz-adv-x="1024" 
d="M711 209l53 -123q-83 -60 -158 -87.5t-160 -27.5q-123 0 -186 61t-63 156q0 24 12 86l29 142l-136 -109l-61 119l233 170l107 504q37 178 134.5 277.5t238.5 99.5q100 0 163.5 -65.5t63.5 -166.5q0 -322 -512 -692l-35 -152q-28 -131 -28 -172q0 -50 26 -77t72 -27
q85 0 207 84zM596 1145l-88 -406q138 125 219.5 257.5t81.5 238.5q0 43 -20.5 72.5t-57.5 29.5q-94 0 -135 -192z" />
    <glyph glyph-name="trademark" unicode="&#x2122;" horiz-adv-x="2048" 
d="M600 578h-213v688h-240v164h693v-164h-240v-688zM1999 578h-201v602h-4l-217 -602h-154l-217 602h-4v-602h-201v852h297l203 -533l201 533h297v-852z" />
    <glyph glyph-name="Omega" unicode="&#x2126;" horiz-adv-x="1585" 
d="M1389 0h-603l58 225q121 52 212.5 157.5t136 228.5t44.5 245q0 182 -81 277.5t-230 95.5q-204 0 -339.5 -163t-135.5 -419q0 -313 184 -422l-37 -225h-575l45 225h288q-92 74 -143 196t-51 261q0 171 58 315.5t161.5 244.5t249 156t315.5 56q137 0 249 -45t185.5 -123
t113.5 -182.5t40 -224.5q0 -206 -113 -384t-293 -270h308z" />
    <glyph glyph-name="estimated" unicode="&#x212e;" horiz-adv-x="1228" 
d="M1014 285l71 -43q-96 -151 -203.5 -214t-263.5 -63q-234 0 -381 161t-147 404q0 157 62.5 284.5t184.5 204.5t281 77q114 0 211.5 -40t168 -112.5t110.5 -179t41 -234.5h-827v-370q121 -121 296 -121q131 0 225.5 59.5t170.5 186.5zM918 604v297q-129 123 -304 123
q-169 0 -292 -123v-297h596z" />
    <glyph glyph-name="partialdiff" unicode="&#x2202;" horiz-adv-x="1161" 
d="M893 829h2q1 5 8 34t12 55t10 65t5 72q0 160 -70 257t-190 97q-149 0 -289 -96l-31 178q175 117 391 117q195 0 307.5 -139t112.5 -375q0 -79 -14 -174t-45 -202.5t-74.5 -211t-108.5 -198.5t-141.5 -166.5t-178 -114.5t-214.5 -43q-159 0 -243.5 100t-84.5 260
q0 89 26.5 182t77.5 176.5t119 150t158 105.5t187 39q93 0 164.5 -46.5t103.5 -121.5zM827 625q-8 71 -61.5 125.5t-138.5 54.5q-86 0 -164 -68.5t-122 -167t-44 -192.5q0 -89 40.5 -141t115.5 -52q109 0 213 131t161 310z" />
    <glyph glyph-name="Delta" unicode="&#x2206;" horiz-adv-x="1449" 
d="M1329 0h-1415l838 1430h350zM1010 211l-123 981l-4 2l-549 -983h676z" />
    <glyph glyph-name="product" unicode="&#x220f;" horiz-adv-x="1509" 
d="M1380 -438h-221v1847h-811v-1847h-219v2048h1251v-2048z" />
    <glyph glyph-name="summation" unicode="&#x2211;" horiz-adv-x="1316" 
d="M1266 -438h-1215v176l627 858l-600 842v172h1161v-201h-868l571 -811l-608 -838h932v-198z" />
    <glyph glyph-name="minus" unicode="&#x2212;" horiz-adv-x="1228" 
d="M1165 412h-1040v213h1040v-213z" />
    <glyph glyph-name="uni2215" unicode="&#x2215;" horiz-adv-x="342" 
d="M-170 -45h-174l860 1520h174z" />
    <glyph glyph-name="uni2219" unicode="&#x2219;" horiz-adv-x="569" 
d="M322 424q-64 0 -111 47.5t-47 110.5q0 65 47.5 111t110.5 46q64 0 110.5 -46t46.5 -111t-46.5 -111.5t-110.5 -46.5z" />
    <glyph glyph-name="radical" unicode="&#x221a;" horiz-adv-x="1087" 
d="M629 -438h-207l-316 653l-102 -47l-80 174l291 133l272 -575l349 1710h225z" />
    <glyph glyph-name="infinity" unicode="&#x221e;" horiz-adv-x="1650" 
d="M750 399q-114 -121 -200.5 -173t-193.5 -52q-153 0 -247.5 100t-94.5 258t93 259.5t243 101.5q101 0 193.5 -53.5t206.5 -188.5q112 132 206.5 188t190.5 56q155 0 245.5 -102.5t90.5 -255.5q0 -163 -93 -265t-245 -102q-97 0 -192.5 54t-202.5 175zM862 526
q155 -168 287 -168q70 0 114 47.5t44 124.5q0 79 -45 128t-119 49q-37 0 -72.5 -13.5t-77 -47t-62 -52.5t-69.5 -68zM637 528q-174 177 -291 177q-69 0 -112.5 -51t-43.5 -124q0 -76 44.5 -123t121.5 -47q64 0 140 45.5t141 122.5z" />
    <glyph glyph-name="integral" unicode="&#x222b;" horiz-adv-x="1228" 
d="M465 -43v1239q0 212 69.5 313t221.5 101q78 0 146.5 -39t68.5 -111q0 -41 -30.5 -70.5t-74.5 -29.5q-19 0 -34.5 4.5t-24.5 9.5t-18.5 18.5t-13 19.5t-11.5 25.5t-10 24.5q-14 31 -33 31q-20 0 -29.5 -15t-9.5 -61q0 -44 2 -133t2 -194v-1121q0 -204 -69 -305.5
t-218 -101.5q-87 0 -148 40.5t-61 106.5q0 43 27.5 72t71.5 29q26 0 45 -8t31.5 -26.5t18 -30.5t15.5 -38q13 -35 33 -35q41 0 41 68q-2 72 -5 133.5t-3 83.5z" />
    <glyph glyph-name="approxequal" unicode="&#x2248;" horiz-adv-x="1214" 
d="M961 909h139q-17 -166 -93.5 -254t-203.5 -88q-70 0 -176.5 35.5t-204 71t-146.5 35.5q-50 0 -85 -37t-48 -105h-139q17 164 94.5 254t200.5 90q54 0 130 -21.5t139.5 -47t137 -47t123.5 -21.5q104 0 132 135zM961 494h139q-17 -166 -93.5 -254t-203.5 -88
q-56 0 -135.5 22t-145 48.5t-136 48.5t-110.5 22q-50 0 -85 -36.5t-48 -104.5h-139q17 164 94.5 254t200.5 90q68 0 169 -34.5t200 -69t161 -34.5q104 0 132 136z" />
    <glyph glyph-name="notequal" unicode="&#x2260;" horiz-adv-x="1214" 
d="M1081 203h-583l-158 -312l-182 95l110 217h-250v209h357l123 239h-480v207h584l160 311l180 -92l-111 -219h250v-207h-356l-123 -239h479v-209z" />
    <glyph glyph-name="lessequal" unicode="&#x2264;" horiz-adv-x="1214" 
d="M1081 205l-1063 352v211l1063 367v-220l-780 -251l780 -240v-219zM1081 -72h-1063v207h1063v-207z" />
    <glyph glyph-name="greaterequal" unicode="&#x2265;" horiz-adv-x="1214" 
d="M1081 557l-1063 -352v219l781 240l-781 251v220l1063 -367v-211zM1081 -72h-1063v207h1063v-207z" />
    <glyph glyph-name="lozenge" unicode="&#x25ca;" horiz-adv-x="1214" 
d="M702 -72h-194l-361 799l361 803h194l363 -801zM604 133l250 596l-250 594l-244 -594z" />
    <glyph glyph-name="grave.cap" unicode="&#xe300;" horiz-adv-x="569" 
d="M647 1516h-174l-264 299h272z" />
    <glyph glyph-name="acute.cap" unicode="&#xe301;" horiz-adv-x="569" 
d="M549 1516h-176l166 299h272z" />
    <glyph glyph-name="circumflex.cap" unicode="&#xe302;" horiz-adv-x="569" 
d="M821 1516h-182l-102 190l-164 -190h-205l264 299h236z" />
    <glyph glyph-name="caron.cap" unicode="&#xe303;" horiz-adv-x="569" 
d="M614 1516h-235l-154 299h183l102 -189l164 189h205z" />
    <glyph glyph-name="tilde.cap" unicode="&#xe304;" horiz-adv-x="569" 
d="M776 1815h105q-36 -244 -242 -244q-51 0 -145 41t-132 41q-39 0 -68 -31t-34 -70h-104q21 120 80 184t157 64q59 0 154.5 -41t120.5 -41q45 0 69.5 22.5t38.5 74.5z" />
    <glyph glyph-name="dieresis.cap" unicode="&#xe305;" horiz-adv-x="569" 
d="M399 1561h-233l51 237h234zM825 1561h-233l51 237h234z" />
    <glyph glyph-name="macron.cap" unicode="&#xe306;" horiz-adv-x="569" 
d="M805 1604h-610l32 163h609z" />
    <glyph glyph-name="breve.cap" unicode="&#xe307;" horiz-adv-x="569" 
d="M760 1827h127q-17 -137 -122 -224t-245 -87q-135 0 -218 82.5t-83 228.5h127q11 -88 63 -126t126 -38q168 0 225 164z" />
    <glyph glyph-name="ring.cap" unicode="&#xe308;" horiz-adv-x="569" 
d="M750 1696q0 -86 -63.5 -149.5t-151.5 -63.5q-85 0 -149 63t-64 150q0 88 63.5 151.5t149.5 63.5t150.5 -63t64.5 -152zM639 1696q0 44 -30 74t-74 30t-73.5 -30.5t-29.5 -73.5t29.5 -73t73.5 -30t74 29.5t30 73.5z" />
    <glyph glyph-name="hungarumlaut.cap" unicode="&#xe309;" horiz-adv-x="569" 
d="M328 1516h-176l165 299h273zM731 1516h-176l166 299h272z" />
    <glyph glyph-name="dotaccent.cap" unicode="&#xe30a;" horiz-adv-x="569" 
d="M592 1561h-234l52 237h233z" />
    <glyph glyph-name="caron.alt" unicode="&#xe30b;" horiz-adv-x="569" 
d="M311 1090h-151l119 407h235z" />
    <glyph glyph-name="commaaccent" unicode="&#xe30c;" horiz-adv-x="569" 
d="M121 -455h-205l129 320h260z" />
    <glyph glyph-name="commaaccent.alt" unicode="&#xe30d;" horiz-adv-x="569" 
d="M514 1198h-250l174 299h199z" />
    <glyph glyph-name="uniF8FF" unicode="&#xf8ff;" horiz-adv-x="1048" 
d="M1049 0h-1049v1470h1049v-1470zM946 102v1264h-844v-1264h844zM569 240h-114v137h114v-137zM555 479h-94q-4 29 -4 62q0 75 20.5 125.5t87.5 121.5q11 12 33.5 34.5t33 34t24 31t19 39.5t5.5 44q0 74 -46.5 124t-109.5 50q-69 0 -112.5 -48.5t-55.5 -146.5l-102 17
q12 135 84 207.5t192 72.5q110 0 182 -74t72 -194q0 -74 -29 -127t-102 -121q-61 -57 -78 -86.5t-18 -91.5z" />
    </font>
</defs>
</svg>
