<?xml version="1.0" standalone="no"?>
<!DOCTYPE svg PUBLIC "-//W3C//DTD SVG 1.1//EN" "http://www.w3.org/Graphics/SVG/1.1/DTD/svg11.dtd" >
<svg xmlns="http://www.w3.org/2000/svg" xmlns:xlink="http://www.w3.org/1999/xlink" version="1.1">
<metadata>
Created by FontForge 20201107 at Sat Aug  3 09:41:42 2024
 By 
Copyright (c) 2014 - 2016 Monotype Imaging Inc. All rights reserved.
</metadata>
<defs>
<font id="FrutigerLTPro-Condensed" horiz-adv-x="987" >
  <font-face 
    font-family="Frutiger LT Pro 57 Condensed"
    font-weight="400"
    font-stretch="condensed"
    units-per-em="2048"
    panose-1="2 11 6 6 2 2 4 2 2 4"
    ascent="1536"
    descent="-512"
    x-height="1044"
    cap-height="1430"
    bbox="-215 -512 2048 1903"
    underline-thickness="102"
    underline-position="-255"
    unicode-range="U+000D-FB02"
  />
<missing-glyph horiz-adv-x="1048" 
d="M1049 1470v-1470h-1049v1470h1049zM102 102h844v1264h-844v-1264zM555 528v-49h-94v51q0 95 23.5 147t103.5 134q35 35 50 52.5t28.5 46.5t13.5 61q0 72 -46.5 123t-109.5 51q-70 0 -113 -49.5t-55 -145.5l-102 17q12 136 83 208t193 72q111 0 182.5 -74t71.5 -194
q0 -70 -28.5 -126t-102.5 -122q-62 -55 -80 -93t-18 -110zM569 377v-137h-114v137h114z" />
    <glyph glyph-name="fi" unicode="fi" horiz-adv-x="1024" 
d="M371 0h-172v905h-166v139h166v240q0 131 66.5 204t193.5 73q65 0 135 -17v-147q-35 24 -98 24q-67 0 -96 -36t-29 -115v-226h188v-139h-188v-905zM891 1270h-189v205h189v-205zM883 0h-172v1044h172v-1044z" />
    <glyph glyph-name="fl" unicode="fl" horiz-adv-x="1024" 
d="M371 0h-172v905h-166v139h166v240q0 131 66.5 204t193.5 73q65 0 135 -17v-147q-35 24 -98 24q-67 0 -96 -36t-29 -115v-226h188v-139h-188v-905zM883 0h-172v1536h172v-1536z" />
    <glyph glyph-name=".notdef" horiz-adv-x="1048" 
d="M1049 1470v-1470h-1049v1470h1049zM102 102h844v1264h-844v-1264zM555 528v-49h-94v51q0 95 23.5 147t103.5 134q35 35 50 52.5t28.5 46.5t13.5 61q0 72 -46.5 123t-109.5 51q-70 0 -113 -49.5t-55 -145.5l-102 17q12 136 83 208t193 72q111 0 182.5 -74t71.5 -194
q0 -70 -28.5 -126t-102.5 -122q-62 -55 -80 -93t-18 -110zM569 377v-137h-114v137h114z" />
    <glyph glyph-name=".null" horiz-adv-x="0" 
 />
    <glyph glyph-name="nonmarkingreturn" horiz-adv-x="682" 
 />
    <glyph glyph-name="NULL" horiz-adv-x="0" 
 />
    <glyph glyph-name="NULL" horiz-adv-x="0" 
 />
    <glyph glyph-name="CR" unicode="&#xd;" horiz-adv-x="491" 
 />
    <glyph glyph-name="space" unicode=" " horiz-adv-x="491" 
 />
    <glyph glyph-name="exclam" unicode="!" horiz-adv-x="720" 
d="M434 381h-147l-29 1049h205zM459 0h-197v229h197v-229z" />
    <glyph glyph-name="quotedbl" unicode="&#x22;" horiz-adv-x="1024" 
d="M432 1061h-147v475h147v-475zM739 1061h-147v475h147v-475z" />
    <glyph glyph-name="numbersign" unicode="#" horiz-adv-x="983" 
d="M637 0h-123l64 446h-244l-64 -446h-123l64 446h-203v111h217l43 315h-202v111h217l61 447h123l-61 -447h243l62 447h123l-62 -447h203v-111h-217l-43 -315h203v-111h-218zM592 557l43 315h-244l-43 -315h244z" />
    <glyph glyph-name="dollar" unicode="$" horiz-adv-x="983" 
d="M535 -193h-82v179h-29q-160 0 -285 61v186q156 -95 283 -92q17 0 31 2v510q-193 115 -258.5 202.5t-65.5 227.5q0 146 85 239t239 118v168h82v-164q146 -3 249 -47v-174q-111 65 -241 65h-8v-465l75 -49q29 -18 38.5 -24.5t42 -31.5t48.5 -42.5t42 -50.5t39 -64.5
t23.5 -75.5t10.5 -92q0 -157 -83.5 -264t-235.5 -133v-189zM453 877v395q-64 -23 -100 -75.5t-36 -121.5q0 -62 31.5 -104.5t104.5 -93.5zM535 596v-428q65 30 98 82.5t33 118.5q0 75 -26.5 121t-104.5 106z" />
    <glyph glyph-name="percent" unicode="%" horiz-adv-x="1667" 
d="M580 -68h-131l641 1565h131zM403 653q-136 0 -210 101.5t-74 294.5t74 294t210 101q137 0 211 -102.5t74 -292.5t-74 -293t-211 -103zM403 776q71 0 104.5 64t33.5 209q0 143 -33.5 207.5t-106.5 64.5q-70 0 -102.5 -65.5t-32.5 -206.5q0 -145 33 -209t104 -64zM1264 -14
q-139 0 -212 102.5t-73 292.5t74 292.5t211 102.5q135 0 209.5 -101t74.5 -294q0 -191 -73.5 -293t-210.5 -102zM1264 109q70 0 103.5 64.5t33.5 207.5t-32.5 207.5t-104.5 64.5t-105 -66.5t-33 -205.5q0 -141 34 -206.5t104 -65.5z" />
    <glyph glyph-name="ampersand" unicode="&#x26;" horiz-adv-x="1251" 
d="M1214 0h-213l-112 158q-51 -81 -144.5 -126.5t-209.5 -45.5q-193 0 -306.5 110.5t-113.5 284.5q0 145 69 250t213 184q-145 199 -145 326q0 135 90.5 219t239.5 84q144 0 232.5 -83.5t88.5 -213.5q0 -213 -272 -369l264 -366q75 171 86 391h172q-24 -308 -160 -520z
M547 891q102 64 147 122.5t45 135.5q0 69 -42 112.5t-113 43.5q-74 0 -121 -43.5t-47 -110.5q0 -45 38 -119.5t93 -140.5zM801 270l-316 426q-190 -128 -190 -301q0 -115 73.5 -188.5t186.5 -73.5q67 0 137 39.5t109 97.5z" />
    <glyph glyph-name="quotesingle" unicode="'" horiz-adv-x="491" 
d="M319 1061h-147v475h147v-475z" />
    <glyph glyph-name="parenleft" unicode="(" horiz-adv-x="569" 
d="M543 -274l-137 -13q-135 228 -210 470.5t-75 447.5q0 203 75.5 445t209.5 472l137 -12q-137 -267 -193.5 -467t-56.5 -438q0 -231 56.5 -436t193.5 -469z" />
    <glyph glyph-name="parenright" unicode=")" horiz-adv-x="569" 
d="M164 -287l-137 13q137 264 193 468.5t56 436.5q0 238 -56 438t-193 467l137 12q134 -230 209.5 -472t75.5 -445q0 -205 -75 -447.5t-210 -470.5z" />
    <glyph glyph-name="asterisk" unicode="*" horiz-adv-x="1024" 
d="M774 965l-127 -91l-135 230l-139 -230l-125 91l178 202l-262 60l47 147l246 -106l-23 268h156l-27 -266l248 104l49 -147l-262 -60z" />
    <glyph glyph-name="plus" unicode="+" horiz-adv-x="1228" 
d="M684 0h-139v449h-449v139h449v448h139v-448h449v-139h-449v-449z" />
    <glyph glyph-name="comma" unicode="," horiz-adv-x="491" 
d="M209 -246h-156l103 475h188z" />
    <glyph glyph-name="hyphen" unicode="-" horiz-adv-x="606" 
d="M524 502h-442v147h442v-147z" />
    <glyph glyph-name="period" unicode="." horiz-adv-x="491" 
d="M344 0h-197v229h197v-229z" />
    <glyph glyph-name="slash" unicode="/" horiz-adv-x="530" 
d="M152 -14h-152l379 1458h151z" />
    <glyph glyph-name="zero" unicode="0" horiz-adv-x="983" 
d="M492 -14q-202 0 -309 186.5t-107 542.5t107 542.5t309 186.5t308.5 -185t106.5 -544t-106.5 -544t-308.5 -185zM256 750q0 -229 26 -365.5t77 -194t133 -57.5q123 0 179 140t56 442t-56 441.5t-179 139.5q-66 0 -114 -44t-73.5 -123t-37 -171.5t-11.5 -207.5z" />
    <glyph glyph-name="one" unicode="1" horiz-adv-x="983" 
d="M594 0h-180v1223l-183 -205l-94 133l293 279h164v-1430z" />
    <glyph glyph-name="two" unicode="2" horiz-adv-x="983" 
d="M827 0h-751v158q276 315 409 533t133 358q0 107 -56 173t-154 66q-58 0 -134 -28.5t-141 -81.5l-22 180q182 86 335 86q157 0 259 -103t102 -258q0 -177 -142.5 -427.5t-390.5 -499.5h553v-156z" />
    <glyph glyph-name="three" unicode="3" horiz-adv-x="983" 
d="M76 39l16 176q154 -82 273 -82q125 0 208.5 82t83.5 205q0 110 -75 177t-197 67h-139v147h65q171 0 256.5 68.5t85.5 183.5q0 104 -70.5 168.5t-183.5 64.5q-124 0 -262 -79l-16 167q129 60 311 60q185 0 293.5 -94.5t108.5 -259.5q0 -134 -70 -222t-195 -114v-4
q128 -19 202.5 -115.5t74.5 -237.5q0 -184 -124 -297.5t-341 -113.5q-76 0 -163 15t-142 38z" />
    <glyph glyph-name="four" unicode="4" horiz-adv-x="983" 
d="M780 0h-172v324h-561v172l514 934h219v-959h156v-147h-156v-324zM608 471v778h-4l-405 -778h409z" />
    <glyph glyph-name="five" unicode="5" horiz-adv-x="983" 
d="M125 43l8 166q57 -33 125.5 -54.5t122.5 -21.5q134 0 215.5 90.5t81.5 233.5q0 146 -78.5 223.5t-224.5 77.5q-80 0 -236 -47v719h658v-148h-486v-399q73 22 156 22q180 0 289.5 -115t109.5 -311q0 -233 -120.5 -363t-339.5 -130q-158 0 -281 57z" />
    <glyph glyph-name="six" unicode="6" horiz-adv-x="983" 
d="M248 729h4q37 84 111.5 130t171.5 46q165 0 268.5 -128.5t103.5 -317.5q0 -221 -111.5 -347t-299.5 -126q-210 0 -315 164t-105 507q0 787 530 787q130 0 238 -41l-8 -168q-103 61 -220 61q-169 0 -268 -149.5t-100 -417.5zM502 133q104 0 164.5 90t60.5 223
q0 132 -62 222t-163 90q-102 0 -165 -90t-63 -222q0 -136 62.5 -224.5t165.5 -88.5z" />
    <glyph glyph-name="seven" unicode="7" horiz-adv-x="983" 
d="M426 0h-199l469 1274h-581v156h753v-170z" />
    <glyph glyph-name="eight" unicode="8" horiz-adv-x="983" 
d="M641 741q266 -108 266 -364q0 -171 -114 -281t-301 -110t-301.5 109.5t-114.5 281.5q0 256 268 364q-112 54 -176 149t-64 206q0 146 107 247t281 101q173 0 280 -101t107 -247q0 -111 -64 -207t-174 -148zM508 811q190 135 190 285q0 80 -60.5 140t-145.5 60
q-87 0 -147 -62.5t-60 -150.5q0 -177 223 -272zM479 680q-122 -67 -172.5 -129.5t-50.5 -153.5q0 -114 69.5 -189t178.5 -75q98 0 160.5 71.5t62.5 180.5q0 100 -59 168t-189 127z" />
    <glyph glyph-name="nine" unicode="9" horiz-adv-x="983" 
d="M139 27l8 168q105 -62 220 -62q169 0 268 148.5t100 418.5h-4q-37 -84 -111 -130t-171 -46q-165 0 -269 129.5t-104 319.5q0 219 111 345t300 126q209 0 314.5 -164t105.5 -508q0 -786 -530 -786q-135 0 -238 41zM481 672q103 0 165.5 89.5t62.5 221.5t-62 222.5
t-168 90.5q-100 0 -161.5 -89.5t-61.5 -223.5q0 -132 62 -221.5t163 -89.5z" />
    <glyph glyph-name="colon" unicode=":" horiz-adv-x="491" 
d="M344 815h-197v229h197v-229zM344 0h-197v229h197v-229z" />
    <glyph glyph-name="semicolon" unicode=";" horiz-adv-x="491" 
d="M344 815h-197v229h197v-229zM209 -246h-156l103 475h188z" />
    <glyph glyph-name="less" unicode="&#x3c;" horiz-adv-x="1228" 
d="M1133 -14l-1037 467v131l1037 467v-131l-881 -402l881 -401v-131z" />
    <glyph glyph-name="equal" unicode="=" horiz-adv-x="1228" 
d="M1133 655h-1037v140h1037v-140zM1133 242h-1037v139h1037v-139z" />
    <glyph glyph-name="greater" unicode="&#x3e;" horiz-adv-x="1228" 
d="M1133 453l-1037 -467v131l881 401l-881 402v131l1037 -467v-131z" />
    <glyph glyph-name="question" unicode="?" horiz-adv-x="909" 
d="M500 371h-156v53q0 57 8.5 104.5t26.5 84.5t32 59.5t39 54t33 43.5q3 5 24.5 32t34 47.5t30 54t26 72.5t8.5 81q0 101 -60.5 166t-156.5 65q-92 0 -233 -69l-9 167q129 58 267 58q173 0 272.5 -93t99.5 -259q0 -54 -11.5 -104.5t-35 -99.5t-37.5 -73t-42 -66
q-6 -10 -9 -14q-18 -27 -56 -81t-52.5 -77.5t-28.5 -63.5t-14 -79v-63zM520 0h-196v229h196v-229z" />
    <glyph glyph-name="at" unicode="@" horiz-adv-x="1638" 
d="M1362 332h127q-100 -166 -274.5 -256t-395.5 -90q-201 0 -369 99t-264 266.5t-96 363.5q0 151 59.5 286.5t162 232.5t246.5 153.5t306 56.5q143 0 270.5 -48.5t218 -130.5t143 -194.5t52.5 -236.5q0 -120 -46.5 -227t-117 -176.5t-149.5 -109.5t-148 -40q-134 0 -161 122
h-4q-116 -122 -267 -122q-116 0 -187 86t-71 217q0 138 60.5 263t169.5 204t239 79q75 0 135 -42t91 -113l41 123h131l-185 -584q-10 -38 -10 -63q0 -48 45 -48q75 0 143 59.5t110 159.5t42 212q0 218 -149 348.5t-396 130.5q-185 0 -330.5 -77.5t-225 -213.5t-79.5 -307
q0 -166 76 -303t212.5 -216t305.5 -79q187 0 317 52.5t222 162.5zM1032 827q0 84 -44 132.5t-118 48.5q-48 0 -103 -31.5t-103 -84t-79.5 -131t-31.5 -163.5q0 -87 39 -141t106 -54q55 0 107.5 27t92.5 72t71 100.5t47 114t16 110.5z" />
    <glyph glyph-name="A" unicode="A" horiz-adv-x="1175" 
d="M1159 0h-188l-115 373h-545l-114 -373h-181l480 1430h196zM809 528l-219 713h-4l-226 -713h449z" />
    <glyph glyph-name="B" unicode="B" horiz-adv-x="1062" 
d="M508 0h-350v1430h368q183 0 287.5 -94t104.5 -269q0 -113 -63.5 -199t-172.5 -118v-5q124 -20 195 -115.5t71 -238.5q0 -173 -119.5 -282t-320.5 -109zM338 811h111q143 0 215.5 63.5t72.5 182.5q0 107 -68.5 166t-187.5 59h-143v-471zM338 147h158q124 0 198 69.5
t74 186.5q0 118 -66 189.5t-194 71.5h-170v-517z" />
    <glyph glyph-name="C" unicode="C" horiz-adv-x="1099" 
d="M1001 209v-180q-140 -43 -260 -43q-154 0 -276.5 53.5t-202.5 150.5t-122 231t-42 296q0 328 174 527.5t459 199.5q165 0 270 -51v-176q-116 71 -268 71q-191 0 -318.5 -145.5t-127.5 -388.5q0 -295 119 -454t339 -159q139 0 256 68z" />
    <glyph glyph-name="D" unicode="D" horiz-adv-x="1175" 
d="M371 0h-234v1430h328q151 0 271.5 -51.5t198 -144.5t118.5 -219.5t41 -277.5q0 -360 -189 -548.5t-534 -188.5zM317 156h111q237 0 357 153t120 434q0 86 -14 160t-49 144t-88.5 119t-138.5 78.5t-193 29.5h-105v-1118z" />
    <glyph glyph-name="E" unicode="E" horiz-adv-x="948" 
d="M850 0h-692v1430h665v-156h-485v-455h463v-155h-463v-508h512v-156z" />
    <glyph glyph-name="F" unicode="F" horiz-adv-x="872" 
d="M338 0h-180v1430h639v-156h-459v-455h436v-155h-436v-664z" />
    <glyph glyph-name="G" unicode="G" horiz-adv-x="1253" 
d="M924 180v451h-240v155h412v-727q-210 -73 -359 -73q-299 0 -469 198.5t-170 532.5q0 327 174.5 527t458.5 200q200 0 336 -64v-180q-174 88 -334 88q-193 0 -319.5 -147t-126.5 -387q0 -294 119.5 -453.5t336.5 -159.5q50 0 101 12t80 27z" />
    <glyph glyph-name="H" unicode="H" horiz-adv-x="1175" 
d="M1018 0h-180v664h-500v-664h-180v1430h180v-611h500v611h180v-1430z" />
    <glyph glyph-name="I" unicode="I" horiz-adv-x="495" 
d="M338 0h-180v1430h180v-1430z" />
    <glyph glyph-name="J" unicode="J" horiz-adv-x="645" 
d="M47 0v178l35 -10q30 -10 65 -10q181 0 181 221v1051h180v-1061q0 -177 -80 -280t-231 -103q-35 0 -150 14z" />
    <glyph glyph-name="K" unicode="K" horiz-adv-x="1062" 
d="M1055 0h-234l-499 692h-5v-692h-180v1430h180v-621h5l473 621h215l-537 -676z" />
    <glyph glyph-name="L" unicode="L" horiz-adv-x="833" 
d="M807 0h-649v1430h180v-1274h469v-156z" />
    <glyph glyph-name="M" unicode="M" horiz-adv-x="1593" 
d="M1436 0h-172v1233h-4l-406 -1233h-131l-389 1233h-4v-1233h-172v1430h278l359 -1137h4l366 1137h271v-1430z" />
    <glyph glyph-name="N" unicode="N" horiz-adv-x="1253" 
d="M1096 0h-224l-538 1171h-4v-1171h-172v1430h223l539 -1180h4v1180h172v-1430z" />
    <glyph glyph-name="O" unicode="O" horiz-adv-x="1253" 
d="M618 -14q-239 0 -379.5 193.5t-140.5 520.5q0 360 139 552t398 192q238 0 379 -192.5t141 -524.5q0 -358 -138 -549.5t-399 -191.5zM639 1296q-96 0 -166.5 -48.5t-109.5 -132.5t-57.5 -180.5t-18.5 -207.5q0 -285 86 -439.5t245 -154.5q167 0 258 153t91 441
q0 261 -87 415t-241 154z" />
    <glyph glyph-name="P" unicode="P" horiz-adv-x="985" 
d="M338 0h-180v1430h352q189 0 301.5 -110.5t112.5 -295.5q0 -212 -120.5 -319t-338.5 -107h-127v-598zM338 745h94q74 0 129.5 15.5t88 39.5t52.5 60t26.5 71t6.5 77q0 131 -69 202.5t-232 71.5h-96v-537z" />
    <glyph glyph-name="Q" unicode="Q" horiz-adv-x="1253" 
d="M1126 -266h-221l-215 260q-23 -8 -74 -8q-237 0 -377.5 191t-140.5 523q0 360 139 552t398 192q237 0 378.5 -191.5t141.5 -525.5q0 -539 -303 -690zM629 1296q-87 0 -154.5 -47t-107.5 -127.5t-60 -179.5t-20 -211q0 -291 86.5 -444.5t249.5 -153.5q160 0 252 151
t92 443q0 121 -19.5 222t-59 180t-106 123t-153.5 44z" />
    <glyph glyph-name="R" unicode="R" horiz-adv-x="1062" 
d="M1006 0h-195l-166 489q-18 53 -41 85.5t-56 48t-65 20t-84 4.5h-61v-647h-180v1430h379q104 0 183 -31t123.5 -84.5t66.5 -117.5t22 -138q0 -136 -73 -224.5t-210 -117.5v-4q66 -13 100 -46t56 -94zM338 795h145q118 0 189 69t71 183q0 115 -69.5 175t-188.5 60h-147
v-487z" />
    <glyph glyph-name="S" unicode="S" horiz-adv-x="909" 
d="M102 47v186q162 -92 275 -92q111 0 181.5 65t70.5 163q0 45 -7 74.5t-30.5 64.5t-69.5 71t-123 83q-70 43 -112.5 72.5t-84 68t-63 76.5t-34.5 89t-13 115q0 167 110.5 264t286.5 97q144 0 259 -47v-174q-108 65 -242 65q-101 0 -163 -60.5t-62 -152.5q0 -82 52.5 -136
t194.5 -136q163 -95 226 -194t63 -218q0 -182 -110.5 -293.5t-307.5 -111.5q-172 0 -297 61z" />
    <glyph glyph-name="T" unicode="T" horiz-adv-x="909" 
d="M545 0h-180v1274h-328v156h835v-156h-327v-1274z" />
    <glyph glyph-name="U" unicode="U" horiz-adv-x="1212" 
d="M874 494v936h181v-953q0 -239 -122.5 -365t-326.5 -126q-97 0 -177 29.5t-141.5 88.5t-95.5 156t-34 223v947h180v-936q0 -161 70.5 -261t197.5 -100q125 0 196.5 99t71.5 262z" />
    <glyph glyph-name="V" unicode="V" horiz-adv-x="1099" 
d="M633 0h-180l-435 1430h197l332 -1166h4l350 1166h180z" />
    <glyph glyph-name="W" unicode="W" horiz-adv-x="1630" 
d="M1300 0h-213l-270 1225h-4l-270 -1225h-213l-312 1430h189l233 -1160h4l256 1160h230l256 -1160h4l250 1160h172z" />
    <glyph glyph-name="X" unicode="X" horiz-adv-x="1099" 
d="M1087 0h-213l-335 596l-322 -596h-205l434 756l-383 674h213l299 -527l287 527h199l-399 -676z" />
    <glyph glyph-name="Y" unicode="Y" horiz-adv-x="1060" 
d="M621 0h-181v600l-428 830h205l315 -633l318 633h199l-428 -830v-600z" />
    <glyph glyph-name="Z" unicode="Z" horiz-adv-x="948" 
d="M879 0h-809v170l581 1104h-563v156h778v-156l-600 -1118h613v-156z" />
    <glyph glyph-name="bracketleft" unicode="[" horiz-adv-x="569" 
d="M496 -287h-312v1835h312v-123h-164v-1589h164v-123z" />
    <glyph glyph-name="backslash" unicode="\" horiz-adv-x="530" 
d="M530 -14h-151l-379 1458h152z" />
    <glyph glyph-name="bracketright" unicode="]" horiz-adv-x="569" 
d="M385 -287h-311v123h164v1589h-164v123h311v-1835z" />
    <glyph glyph-name="asciicircum" unicode="^" horiz-adv-x="1228" 
d="M1133 543h-148l-371 747l-370 -747h-148l453 887h131z" />
    <glyph glyph-name="underscore" unicode="_" horiz-adv-x="1024" 
d="M991 -256h-1024v102h1024v-102z" />
    <glyph glyph-name="grave" unicode="`" horiz-adv-x="417" 
d="M311 1188h-131l-209 297h203z" />
    <glyph glyph-name="a" unicode="a" horiz-adv-x="948" 
d="M838 0h-156l-10 141h-4q-92 -155 -293 -155q-139 0 -220 81t-81 220q0 93 36 162t102.5 110t152.5 60.5t194 19.5h107v78q0 42 -10 75.5t-24 54.5t-37 36t-40 22t-43.5 10.5t-37.5 4t-30 0.5q-71 0 -144.5 -30t-115.5 -79l-18 162q133 86 295 86q35 0 70.5 -5t79.5 -17.5
t81 -37.5t68.5 -61t50 -93t18.5 -128v-570q0 -29 4.5 -87.5t4.5 -59.5zM666 375v137l-39 2q-39 2 -74 2q-75 0 -132.5 -15.5t-90 -38.5t-52.5 -54t-26 -57t-6 -52q0 -86 44.5 -134t131.5 -48q109 0 176.5 77t67.5 181z" />
    <glyph glyph-name="b" unicode="b" horiz-adv-x="985" 
d="M266 0h-166q0 16 4.5 87t4.5 93v1356h172v-635h4q51 82 114.5 120t153.5 38q168 0 263 -141t95 -396q0 -256 -94.5 -396t-265.5 -140q-181 0 -275 168h-4zM510 125q117 0 173 98.5t56 298.5t-55.5 299t-175.5 99q-227 0 -227 -398q0 -200 56 -298.5t173 -98.5z" />
    <glyph glyph-name="c" unicode="c" horiz-adv-x="796" 
d="M748 188l8 -157q-41 -19 -105 -32t-114 -13q-216 0 -339.5 141.5t-123.5 384.5q0 255 125 401t342 146q123 0 207 -41l-9 -156q-88 49 -196 49q-140 0 -214.5 -101.5t-74.5 -297.5q0 -176 77 -277.5t208 -101.5q111 0 209 55z" />
    <glyph glyph-name="d" unicode="d" horiz-adv-x="985" 
d="M885 0h-166l-6 154h-4q-92 -168 -275 -168q-171 0 -265.5 140t-94.5 396t94.5 396.5t265.5 140.5q90 0 150.5 -37t115.5 -121h5v635h172v-1356q0 -22 4 -93t4 -87zM475 125q118 0 174 98.5t56 298.5q0 201 -56 299.5t-176 98.5q-227 0 -227 -398q0 -200 56 -298.5
t173 -98.5z" />
    <glyph glyph-name="e" unicode="e" horiz-adv-x="909" 
d="M778 203l8 -156q-128 -61 -290 -61q-202 0 -312 140t-110 396q0 252 107 394.5t296 142.5q170 0 268.5 -127.5t98.5 -378.5v-82h-590q0 -181 71 -267.5t214 -86.5q114 0 239 86zM254 602h418q0 326 -205 326q-100 0 -156 -83.5t-57 -242.5z" />
    <glyph glyph-name="f" unicode="f" horiz-adv-x="569" 
d="M371 0h-172v905h-166v139h166v240q0 131 66.5 204t193.5 73q65 0 135 -17v-147q-35 24 -98 24q-67 0 -96 -36t-29 -115v-226h188v-139h-188v-905z" />
    <glyph glyph-name="g" unicode="g" horiz-adv-x="985" 
d="M713 -10v172h-4q-102 -176 -275 -176q-171 0 -265.5 140t-94.5 396q0 259 98 398t281 139q77 0 145 -45t111 -121h4l6 151h166q0 -19 -4 -84t-4 -94v-919q0 -183 -123 -292.5t-324 -109.5q-62 0 -156 20t-149 44l8 174q66 -41 144 -65.5t145 -24.5q141 0 216 77.5
t75 219.5zM475 125q118 0 174 98.5t56 298.5q0 201 -56 299.5t-176 98.5q-227 0 -227 -398q0 -200 56 -298.5t173 -98.5z" />
    <glyph glyph-name="h" unicode="h" 
d="M862 0h-172v682q0 229 -172 229q-104 0 -162.5 -73t-58.5 -201v-637h-172v1536h172v-635h4q40 76 108 117t148 41q145 0 225 -86.5t80 -241.5v-731z" />
    <glyph glyph-name="i" unicode="i" horiz-adv-x="454" 
d="M322 1270h-189v205h189v-205zM313 0h-172v1044h172v-1044z" />
    <glyph glyph-name="j" unicode="j" horiz-adv-x="454" 
d="M322 1270h-189v205h189v-205zM-25 -436v139l21 -4q24 -6 63 -6q24 0 40.5 9.5t24.5 21t12 34t4.5 33.5t0.5 35v1218h172v-1247q0 -137 -56 -194.5t-177 -57.5q-59 0 -105 19z" />
    <glyph glyph-name="k" unicode="k" horiz-adv-x="909" 
d="M893 0h-213l-379 526h-4v-526h-172v1536h172v-911l358 419h201l-410 -466z" />
    <glyph glyph-name="l" unicode="l" horiz-adv-x="454" 
d="M313 0h-172v1536h172v-1536z" />
    <glyph glyph-name="m" unicode="m" horiz-adv-x="1478" 
d="M1354 0h-172v725q0 90 -41 138t-119 48q-197 0 -197 -258v-653h-172v725q0 89 -40.5 137.5t-118.5 48.5q-197 0 -197 -258v-653h-172v834q0 21 -4 107.5t-4 102.5h166l6 -155h4q79 170 258 170q161 0 246 -164q88 164 254 164q144 0 223.5 -87t79.5 -241v-731z" />
    <glyph glyph-name="n" unicode="n" 
d="M862 0h-172v682q0 229 -172 229q-104 0 -162.5 -73t-58.5 -201v-637h-172v834q0 25 -4 109t-4 101h166l6 -155h4q42 89 106.5 129.5t157.5 40.5q147 0 226 -87t79 -241v-731z" />
    <glyph glyph-name="o" unicode="o" 
d="M494 -14q-198 0 -309 140t-111 396t111 396.5t309 140.5t308.5 -140t110.5 -397q0 -256 -110.5 -396t-308.5 -140zM494 125q122 0 180.5 98.5t58.5 298.5q0 202 -59 300t-182 98q-238 0 -238 -398q0 -199 59 -298t181 -99z" />
    <glyph glyph-name="p" unicode="p" horiz-adv-x="985" 
d="M281 -442h-172v1306q0 25 -4.5 95t-4.5 85h166l6 -153h4q92 168 275 168q171 0 265.5 -140.5t94.5 -396.5t-94.5 -396t-265.5 -140q-90 0 -151 36t-115 121h-4v-585zM510 125q117 0 173 98.5t56 298.5q0 201 -55.5 299.5t-175.5 98.5q-227 0 -227 -398q0 -200 56 -298.5
t173 -98.5z" />
    <glyph glyph-name="q" unicode="q" horiz-adv-x="985" 
d="M877 -442h-172v585h-5q-53 -85 -115 -121t-151 -36q-171 0 -265.5 140t-94.5 396t94.5 396.5t265.5 140.5q183 0 275 -168h4l6 153h166q0 -20 -4 -90t-4 -90v-1306zM475 125q118 0 174 98.5t56 298.5q0 201 -56 299.5t-176 98.5q-227 0 -227 -398q0 -200 56 -298.5
t173 -98.5z" />
    <glyph glyph-name="r" unicode="r" horiz-adv-x="606" 
d="M297 0h-172v834q0 24 -4 106t-4 104h166l6 -163h4q41 94 110.5 136t186.5 42v-170q-35 6 -66 6q-107 0 -167 -91.5t-60 -242.5v-561z" />
    <glyph glyph-name="s" unicode="s" horiz-adv-x="757" 
d="M70 47l10 156q133 -78 246 -78q90 0 144 40.5t54 106.5t-41 105.5t-159 89.5q-68 29 -110 53t-77 57.5t-50 76.5t-15 102q0 133 94 218t244 85q124 0 219 -37l-8 -148q-97 46 -203 46q-81 0 -127.5 -39t-46.5 -105q0 -60 44.5 -102.5t160.5 -85.5q51 -19 89.5 -40.5
t74.5 -54t55.5 -79t19.5 -103.5q0 -154 -86.5 -239.5t-251.5 -85.5q-161 0 -280 61z" />
    <glyph glyph-name="t" unicode="t" horiz-adv-x="606" 
d="M586 152v-140q-76 -26 -148 -26q-132 0 -185.5 63.5t-53.5 179.5v676h-166v139h166v213l172 52v-265h215v-139h-215v-614q0 -84 22.5 -125t85.5 -41q39 0 107 27z" />
    <glyph glyph-name="u" unicode="u" 
d="M870 0h-165l-7 156h-4q-42 -89 -106.5 -129.5t-157.5 -40.5q-148 0 -226.5 86t-78.5 243v729h172v-679q0 -232 172 -232q107 0 164 74.5t57 204.5v632h172v-833q0 -25 4 -107.5t4 -103.5z" />
    <glyph glyph-name="v" unicode="v" horiz-adv-x="872" 
d="M541 0h-205l-318 1044h189l229 -872h4l234 872h180z" />
    <glyph glyph-name="w" unicode="w" horiz-adv-x="1402" 
d="M1112 0h-197l-219 883h-4l-200 -883h-197l-277 1044h181l198 -872h4l199 872h205l207 -872h4l196 872h172z" />
    <glyph glyph-name="x" unicode="x" horiz-adv-x="872" 
d="M854 0h-197l-231 432l-219 -432h-189l310 561l-279 483h189l200 -376l201 376h188l-290 -489z" />
    <glyph glyph-name="y" unicode="y" horiz-adv-x="833" 
d="M80 -442l8 155q44 -20 96 -20q23 0 41.5 10t29 21.5t21.5 40t16 44.5t15 56l31 119l-330 1060h180l234 -851h4l217 851h172l-369 -1275q-17 -60 -41.5 -103.5t-48.5 -66t-56 -35.5t-55.5 -16t-54.5 -3q-60 0 -110 13z" />
    <glyph glyph-name="z" unicode="z" horiz-adv-x="796" 
d="M733 0h-670v156l484 741h-467v147h643v-155l-483 -742h493v-147z" />
    <glyph glyph-name="braceleft" unicode="{" horiz-adv-x="569" 
d="M551 -287h-121q-93 0 -151 68.5t-58 175.5v358q0 123 -38.5 196t-119.5 73v94q81 0 119.5 73t38.5 193v361q0 107 57.5 175t155.5 68h117v-94h-68q-30 0 -47 -3.5t-34.5 -17.5t-25 -45.5t-7.5 -82.5v-392q0 -105 -48 -183t-126 -97v-4q79 -20 126.5 -98.5t47.5 -182.5
v-399q0 -82 24.5 -112t75.5 -30h82v-94z" />
    <glyph glyph-name="bar" unicode="|" horiz-adv-x="454" 
d="M305 -512h-155v2048h155v-2048z" />
    <glyph glyph-name="braceright" unicode="}" horiz-adv-x="569" 
d="M139 -287h-121v94h82q51 0 76 30.5t25 111.5v399q0 104 47.5 182.5t126.5 98.5v4q-78 19 -126 97t-48 183v392q0 51 -7.5 82.5t-25 45.5t-35 17.5t-47.5 3.5h-68v94h117q98 0 155.5 -68t57.5 -175v-361q0 -120 38.5 -193t119.5 -73v-94q-81 0 -119.5 -73t-38.5 -196v-358
q0 -107 -58 -175.5t-151 -68.5z" />
    <glyph glyph-name="asciitilde" unicode="~" horiz-adv-x="1228" 
d="M1014 664l73 -105q-107 -186 -260 -186q-72 0 -217 69q-12 5 -48 22.5t-51 24t-42 17t-47 14.5t-39 4q-81 0 -168 -151l-74 104q55 98 117 142.5t141 44.5q40 0 86 -13t72 -25t78 -38q57 -29 79 -39.5t58.5 -23.5t58.5 -13q38 0 86 38t97 114z" />
    <glyph glyph-name="uni00A0" unicode="&#xa0;" horiz-adv-x="491" 
 />
    <glyph glyph-name="exclamdown" unicode="&#xa1;" horiz-adv-x="720" 
d="M459 815h-197v229h197v-229zM463 -385h-205l29 1049h147z" />
    <glyph glyph-name="cent" unicode="&#xa2;" horiz-adv-x="983" 
d="M500 -262h-90l41 270q-149 41 -231.5 174.5t-82.5 329.5q0 251 122.5 399t350.5 148l35 235h90l-37 -243q54 -8 113 -33l-8 -156q-58 34 -127 43l-115 -768q12 -4 35 -4q110 0 215 55l8 -157q-42 -19 -105 -32t-116 -13q-43 0 -59 4zM475 164l113 747
q-131 -6 -201 -108.5t-70 -290.5q0 -130 42 -219.5t116 -128.5z" />
    <glyph glyph-name="sterling" unicode="&#xa3;" horiz-adv-x="983" 
d="M895 0h-789v147h144v541h-144v131h144v182q0 204 111 323.5t307 119.5q115 0 239 -47l-18 -156q-42 27 -103 45.5t-106 18.5q-123 0 -190.5 -78.5t-67.5 -216.5v-191h328v-131h-328v-541h473v-147z" />
    <glyph glyph-name="currency" unicode="&#xa4;" horiz-adv-x="983" 
d="M891 236l-107 106q-124 -102 -292 -102q-167 0 -291 102l-109 -106l-82 81l107 107q-101 128 -101 291q0 160 101 291l-107 106l82 82l109 -107q125 103 291 103q167 0 292 -103l107 107l82 -82l-107 -106q101 -128 101 -291q0 -166 -103 -291l109 -107zM492 371
q148 0 241.5 97.5t93.5 246.5q0 150 -94.5 247t-243.5 97q-145 0 -239 -97t-94 -247q0 -149 94 -246.5t242 -97.5z" />
    <glyph glyph-name="yen" unicode="&#xa5;" horiz-adv-x="983" 
d="M887 291h-307v-291h-172v291h-312v131h312v147h-312v131h264l-348 730h189l291 -625l290 625h189l-344 -730h260v-131h-307v-147h307v-131z" />
    <glyph glyph-name="brokenbar" unicode="&#xa6;" horiz-adv-x="454" 
d="M305 666h-155v716h155v-716zM305 -358h-155v716h155v-716z" />
    <glyph glyph-name="section" unicode="&#xa7;" horiz-adv-x="983" 
d="M129 -193l21 158q127 -88 274 -88q101 0 159 47.5t58 132.5q0 61 -43.5 105.5t-191.5 126.5q-56 31 -91.5 53t-74 52.5t-59 59.5t-34.5 67t-14 83q0 90 47.5 159.5t136.5 135.5q-137 73 -137 236q0 135 95 222t251 87q69 0 146 -19t116 -41l-20 -157q-120 69 -225 69
q-86 0 -138.5 -44t-52.5 -113q0 -25 9.5 -48t21.5 -39t41 -38.5t48 -34.5t63.5 -39.5t68.5 -42.5q76 -48 118 -79t75 -67.5t45 -73.5t12 -87q0 -73 -49 -149t-127 -136q72 -46 103.5 -105t31.5 -139q0 -151 -105.5 -241t-267.5 -90q-164 0 -311 77zM414 834
q-60 -52 -84.5 -98.5t-24.5 -100.5q0 -75 62 -132t215 -136q92 89 92 200q0 75 -62.5 136.5t-197.5 130.5z" />
    <glyph glyph-name="dieresis" unicode="&#xa8;" horiz-adv-x="417" 
d="M127 1260h-164v204h164v-204zM455 1260h-164v204h164v-204z" />
    <glyph glyph-name="copyright" unicode="&#xa9;" horiz-adv-x="1638" 
d="M1548 715q0 -199 -98 -367t-266 -265t-367 -97q-197 0 -364.5 98t-265 266t-97.5 365q0 196 98 364t265.5 266.5t363.5 98.5q200 0 368.5 -98.5t265.5 -266t97 -364.5zM817 117q165 0 300.5 77t213.5 214.5t78 306.5q0 168 -77 305t-213.5 215t-303.5 78
q-158 0 -292 -76.5t-214 -214.5t-80 -307q0 -125 46 -236.5t124 -190.5t187 -125t231 -46zM1081 575h123q-31 -147 -127.5 -231t-232.5 -84q-189 0 -311.5 128.5t-122.5 326.5q0 204 118.5 330t311.5 126q145 0 245.5 -81.5t118.5 -223.5h-123q-17 90 -82.5 143.5
t-156.5 53.5q-136 0 -214.5 -93.5t-78.5 -252.5q0 -149 83 -248.5t214 -99.5q92 0 154 53.5t81 152.5z" />
    <glyph glyph-name="ordfeminine" unicode="&#xaa;" horiz-adv-x="606" 
d="M561 811h-110l-7 88h-4q-21 -44 -70 -70t-116 -26q-99 0 -154 47t-55 131q0 50 16 88t52 68t100.5 45.5t155.5 15.5h71v39q0 61 -35.5 87t-105.5 26q-116 0 -180 -64l-13 107q88 51 201 51q125 0 186.5 -55.5t61.5 -153.5v-303q0 -39 1.5 -65.5t3 -39t1.5 -16.5z
M440 1038v74q-20 4 -71 4q-109 0 -155 -30t-46 -89q0 -51 29 -78.5t86 -27.5q68 0 112.5 43.5t44.5 103.5z" />
    <glyph glyph-name="guillemotleft" unicode="&#xab;" horiz-adv-x="1024" 
d="M541 111h-148l-229 421l229 422h148l-205 -422zM860 111h-147l-230 421l230 422h147l-205 -422z" />
    <glyph glyph-name="logicalnot" unicode="&#xac;" horiz-adv-x="1228" 
d="M1133 233h-140v422h-897v140h1037v-562z" />
    <glyph glyph-name="uni00AD" unicode="&#xad;" horiz-adv-x="606" 
d="M524 502h-442v147h442v-147z" />
    <glyph glyph-name="registered" unicode="&#xae;" horiz-adv-x="1638" 
d="M1184 289h-148l-235 379h-121v-379h-139v854h336q138 0 211 -59.5t73 -180.5q0 -104 -61 -169.5t-160 -65.5zM680 776h174q87 0 127.5 31t40.5 102q0 125 -168 125h-174v-258zM1548 715q0 -199 -98 -367t-266 -265t-367 -97q-197 0 -364.5 98t-265 266t-97.5 365
q0 196 98 364t265.5 266.5t363.5 98.5q200 0 368.5 -98.5t265.5 -266t97 -364.5zM817 117q165 0 300.5 77t213.5 214.5t78 306.5q0 168 -77 305t-213.5 215t-303.5 78q-158 0 -292 -76.5t-214 -214.5t-80 -307q0 -125 46 -236.5t124 -190.5t187 -125t231 -46z" />
    <glyph glyph-name="macron" unicode="&#xaf;" horiz-adv-x="417" 
d="M479 1278h-540v123h540v-123z" />
    <glyph glyph-name="degree" unicode="&#xb0;" horiz-adv-x="819" 
d="M410 797q-134 0 -229 95t-95 228t95 228.5t229 95.5q132 0 227.5 -95.5t95.5 -228.5t-94.5 -228t-228.5 -95zM618 1120q0 84 -60.5 146.5t-147.5 62.5t-148 -62.5t-61 -146.5q0 -87 62.5 -148t146.5 -61q86 0 147 61.5t61 147.5z" />
    <glyph glyph-name="plusminus" unicode="&#xb1;" horiz-adv-x="1228" 
d="M1133 553h-449v-346h-139v346h-449v139h449v344h139v-344h449v-139zM1133 0h-1037v139h1037v-139z" />
    <glyph glyph-name="twosuperior" unicode="&#xb2;" horiz-adv-x="589" 
d="M549 877h-508v94q352 373 352 528q0 61 -37.5 99t-99.5 38q-41 0 -91 -18.5t-87 -46.5l-15 117q113 55 222 55q110 0 178.5 -60.5t68.5 -156.5q0 -104 -94 -253t-252 -290h363v-106z" />
    <glyph glyph-name="threesuperior" unicode="&#xb3;" horiz-adv-x="589" 
d="M41 899l10 117q100 -49 178 -49q79 0 134 48.5t55 119.5q0 55 -45.5 95t-145.5 40h-75v98h43q112 0 164.5 39.5t52.5 99.5q0 61 -45 99.5t-115 38.5q-81 0 -170 -50l-12 113q88 35 213 35q119 0 189.5 -57t70.5 -156q0 -80 -44 -132t-128 -69v-4q85 -10 131.5 -68.5
t46.5 -146.5q0 -108 -81.5 -175t-219.5 -67q-119 0 -207 31z" />
    <glyph glyph-name="acute" unicode="&#xb4;" horiz-adv-x="417" 
d="M238 1188h-132l138 297h202z" />
    <glyph glyph-name="mu" unicode="&#xb5;" horiz-adv-x="1015" 
d="M981 145l4 -141q-37 -16 -88 -16q-85 0 -124 47t-46 162h-4q-84 -222 -264 -222q-82 0 -154 45l-4 -4q8 -220 8 -299v-147h-174v1474h174v-524q0 -64 1.5 -105.5t7 -91.5t17.5 -81t31.5 -59t50.5 -41t72 -13q75 0 124 61t69 156t20 221v477h175v-802q0 -52 13.5 -78.5
t49.5 -26.5q17 0 41 8z" />
    <glyph glyph-name="paragraph" unicode="&#xb6;" horiz-adv-x="1136" 
d="M979 -256h-131v1571h-219v-1571h-131v911q-187 0 -306.5 109.5t-119.5 271.5q0 190 120.5 292t339.5 102h447v-1686z" />
    <glyph glyph-name="periodcentered" unicode="&#xb7;" horiz-adv-x="491" 
d="M246 479q-54 0 -92.5 38.5t-38.5 92.5t38.5 92.5t92.5 38.5t92.5 -38.5t38.5 -92.5t-38.5 -92.5t-92.5 -38.5z" />
    <glyph glyph-name="cedilla" unicode="&#xb8;" horiz-adv-x="417" 
d="M39 -406l29 72q80 -26 129 -26q53 0 85.5 26t32.5 60q0 75 -92 75q-51 0 -86 -14l-31 39l117 174h90l-84 -123q35 6 60 6q75 0 124.5 -40t49.5 -107q0 -79 -66 -128.5t-178 -49.5q-83 0 -180 36z" />
    <glyph glyph-name="onesuperior" unicode="&#xb9;" horiz-adv-x="589" 
d="M397 877h-139v720l-119 -122l-59 92l190 168h127v-858z" />
    <glyph glyph-name="ordmasculine" unicode="&#xba;" horiz-adv-x="643" 
d="M322 803q-135 0 -209 83t-74 236q0 155 74 238.5t209 83.5t208.5 -83.5t73.5 -238.5q0 -153 -73.5 -236t-208.5 -83zM322 897q143 0 143 225q0 116 -35 172t-108 56q-144 0 -144 -228q0 -225 144 -225z" />
    <glyph glyph-name="guillemotright" unicode="&#xbb;" horiz-adv-x="1024" 
d="M311 111h-147l205 421l-205 422h147l230 -422zM631 111h-148l205 421l-205 422h148l229 -422z" />
    <glyph glyph-name="onequarter" unicode="&#xbc;" horiz-adv-x="1476" 
d="M377 575h-139v721l-119 -122l-60 92l191 168h127v-859zM1303 0h-132v184h-364v113l334 561h162v-575h100v-99h-100v-184zM1171 283v452h-4l-249 -452h253zM463 -68h-131l641 1565h131z" />
    <glyph glyph-name="onehalf" unicode="&#xbd;" horiz-adv-x="1476" 
d="M377 575h-139v721l-119 -122l-60 92l191 168h127v-859zM1417 0h-508v94q353 374 353 529q0 61 -38 99t-100 38q-41 0 -91 -19t-87 -47l-14 117q113 55 221 55q110 0 179 -60.5t69 -156.5q0 -104 -94 -253t-252 -290h362v-106zM422 -68h-131l641 1565h131z" />
    <glyph glyph-name="threequarters" unicode="&#xbe;" horiz-adv-x="1476" 
d="M1364 0h-131v184h-365v113l334 561h162v-575h100v-99h-100v-184zM1233 283v452h-4l-250 -452h254zM41 598l10 117q100 -49 178 -49q79 0 134 48.5t55 119.5q0 55 -45.5 95t-145.5 40h-75v98h43q112 0 164.5 39.5t52.5 99.5q0 61 -45 99t-115 38q-83 0 -170 -49l-12 113
q88 35 213 35q119 0 189.5 -57t70.5 -156q0 -80 -44 -132t-128 -69v-4q85 -10 131.5 -68.5t46.5 -146.5q0 -108 -81.5 -175t-219.5 -67q-119 0 -207 31zM483 -68h-131l641 1565h131z" />
    <glyph glyph-name="questiondown" unicode="&#xbf;" horiz-adv-x="909" 
d="M754 -174l8 -168q-127 -57 -266 -57q-173 0 -273 93t-100 259q0 53 11.5 104.5t34 97.5t39 74t40.5 65q7 10 10 15q20 32 56.5 82.5t52 75t29.5 63.5t14 78v66h155v-53q0 -57 -8.5 -104.5t-26.5 -85t-32 -60t-39 -54t-33 -43.5q-4 -5 -25 -32t-33.5 -47.5t-29.5 -53.5
t-26 -72t-9 -81q0 -101 60.5 -166.5t156.5 -65.5q91 0 234 70zM586 815h-197v229h197v-229z" />
    <glyph glyph-name="Agrave" unicode="&#xc0;" horiz-adv-x="1175" 
d="M1159 0h-188l-115 373h-545l-114 -373h-181l480 1430h196zM809 528l-219 713h-4l-226 -713h449zM692 1499h-131l-209 297h203z" />
    <glyph glyph-name="Aacute" unicode="&#xc1;" horiz-adv-x="1175" 
d="M1159 0h-188l-115 373h-545l-114 -373h-181l480 1430h196zM809 528l-219 713h-4l-226 -713h449zM616 1499h-131l138 297h202z" />
    <glyph glyph-name="Acircumflex" unicode="&#xc2;" horiz-adv-x="1175" 
d="M1159 0h-188l-115 373h-545l-114 -373h-181l480 1430h196zM809 528l-219 713h-4l-226 -713h449zM870 1499h-155l-127 187l-127 -187h-156l205 297h156z" />
    <glyph glyph-name="Atilde" unicode="&#xc3;" horiz-adv-x="1175" 
d="M1159 0h-188l-115 373h-545l-114 -373h-181l480 1430h196zM809 528l-219 713h-4l-226 -713h449zM780 1765h107q-8 -47 -20 -82.5t-31.5 -68.5t-51.5 -50.5t-75 -17.5q-11 0 -23 2t-20 3.5t-23 7.5t-19 7.5t-22 9.5t-20 9q-84 39 -107 39q-72 0 -80 -88h-106
q11 106 60 162.5t134 56.5q43 0 140 -43q11 -5 32.5 -15.5t34 -15t21.5 -4.5q28 0 44 21.5t25 66.5z" />
    <glyph glyph-name="Adieresis" unicode="&#xc4;" horiz-adv-x="1175" 
d="M1159 0h-188l-115 373h-545l-114 -373h-181l480 1430h196zM809 528l-219 713h-4l-226 -713h449zM506 1571h-164v205h164v-205zM834 1571h-164v205h164v-205z" />
    <glyph glyph-name="Aring" unicode="&#xc5;" horiz-adv-x="1175" 
d="M1159 0h-188l-115 373h-545l-114 -373h-181l480 1430h196zM809 528l-219 713h-4l-226 -713h449zM588 1477q-87 0 -150 63t-63 150q0 86 62.5 149.5t150.5 63.5t150.5 -63.5t62.5 -149.5q0 -87 -63 -150t-150 -63zM707 1690q0 49 -35.5 83.5t-83.5 34.5t-83.5 -34.5
t-35.5 -83.5q0 -50 34.5 -84.5t84.5 -34.5q49 0 84 35.5t35 83.5z" />
    <glyph glyph-name="AE" unicode="&#xc6;" horiz-adv-x="1593" 
d="M1495 0h-651v373h-445l-182 -373h-201l713 1430h748v-156h-453v-455h428v-155h-428v-508h471v-156zM844 528v770h-4l-373 -770h377z" />
    <glyph glyph-name="Ccedilla" unicode="&#xc7;" horiz-adv-x="1099" 
d="M422 -406l29 72q80 -26 129 -26q53 0 85.5 26t32.5 60q0 75 -92 75q-51 0 -86 -14l-31 39l115 172q-236 43 -371 235t-135 484q0 328 174 527.5t459 199.5q165 0 270 -51v-176q-116 71 -268 71q-191 0 -318.5 -145.5t-127.5 -388.5q0 -295 119 -454t339 -159
q139 0 256 68v-180q-138 -43 -272 -43q-23 0 -41 2l-76 -111q34 6 60 6q75 0 124.5 -40t49.5 -107q0 -79 -66 -128.5t-178 -49.5q-94 0 -180 36z" />
    <glyph glyph-name="Egrave" unicode="&#xc8;" horiz-adv-x="948" 
d="M850 0h-692v1430h665v-156h-485v-455h463v-155h-463v-508h512v-156zM578 1499h-132l-208 297h202z" />
    <glyph glyph-name="Eacute" unicode="&#xc9;" horiz-adv-x="948" 
d="M850 0h-692v1430h665v-156h-485v-455h463v-155h-463v-508h512v-156zM504 1499h-131l137 297h203z" />
    <glyph glyph-name="Ecircumflex" unicode="&#xca;" horiz-adv-x="948" 
d="M850 0h-692v1430h665v-156h-485v-455h463v-155h-463v-508h512v-156zM758 1499h-156l-127 187l-127 -187h-155l204 297h156z" />
    <glyph glyph-name="Edieresis" unicode="&#xcb;" horiz-adv-x="948" 
d="M850 0h-692v1430h665v-156h-485v-455h463v-155h-463v-508h512v-156zM393 1571h-164v205h164v-205zM721 1571h-164v205h164v-205z" />
    <glyph glyph-name="Igrave" unicode="&#xcc;" horiz-adv-x="495" 
d="M338 0h-180v1430h180v-1430zM350 1499h-131l-209 297h203z" />
    <glyph glyph-name="Iacute" unicode="&#xcd;" horiz-adv-x="495" 
d="M338 0h-180v1430h180v-1430zM276 1499h-131l138 297h202z" />
    <glyph glyph-name="Icircumflex" unicode="&#xce;" horiz-adv-x="495" 
d="M338 0h-180v1430h180v-1430zM530 1499h-155l-127 187l-127 -187h-156l205 297h156z" />
    <glyph glyph-name="Idieresis" unicode="&#xcf;" horiz-adv-x="495" 
d="M338 0h-180v1430h180v-1430zM166 1571h-164v205h164v-205zM494 1571h-164v205h164v-205z" />
    <glyph glyph-name="Eth" unicode="&#xd0;" horiz-adv-x="1175" 
d="M371 0h-234v692h-157v131h157v607h328q151 0 271.5 -51.5t198 -144.5t118.5 -219.5t41 -277.5q0 -360 -189 -548.5t-534 -188.5zM317 156h111q237 0 357 153t120 434q0 86 -14 160t-49 144t-88.5 119t-138.5 78.5t-193 29.5h-105v-451h330v-131h-330v-536z" />
    <glyph glyph-name="Ntilde" unicode="&#xd1;" horiz-adv-x="1253" 
d="M1096 0h-224l-538 1171h-4v-1171h-172v1430h223l539 -1180h4v1180h172v-1430zM819 1765h107q-8 -47 -20 -82.5t-31.5 -68.5t-51.5 -50.5t-75 -17.5q-11 0 -23 2t-20 3.5t-23 7.5t-19 7.5t-22 9.5t-20 9q-84 39 -107 39q-72 0 -80 -88h-106q11 106 60 162.5t134 56.5
q43 0 140 -43q11 -5 32.5 -15.5t34 -15t21.5 -4.5q28 0 44 21.5t25 66.5z" />
    <glyph glyph-name="Ograve" unicode="&#xd2;" horiz-adv-x="1253" 
d="M618 -14q-239 0 -379.5 193.5t-140.5 520.5q0 360 139 552t398 192q238 0 379 -192.5t141 -524.5q0 -358 -138 -549.5t-399 -191.5zM639 1296q-96 0 -166.5 -48.5t-109.5 -132.5t-57.5 -180.5t-18.5 -207.5q0 -285 86 -439.5t245 -154.5q167 0 258 153t91 441
q0 261 -87 415t-241 154zM731 1499h-131l-209 297h203z" />
    <glyph glyph-name="Oacute" unicode="&#xd3;" horiz-adv-x="1253" 
d="M618 -14q-239 0 -379.5 193.5t-140.5 520.5q0 360 139 552t398 192q238 0 379 -192.5t141 -524.5q0 -358 -138 -549.5t-399 -191.5zM639 1296q-96 0 -166.5 -48.5t-109.5 -132.5t-57.5 -180.5t-18.5 -207.5q0 -285 86 -439.5t245 -154.5q167 0 258 153t91 441
q0 261 -87 415t-241 154zM655 1499h-131l138 297h202z" />
    <glyph glyph-name="Ocircumflex" unicode="&#xd4;" horiz-adv-x="1253" 
d="M618 -14q-239 0 -379.5 193.5t-140.5 520.5q0 360 139 552t398 192q238 0 379 -192.5t141 -524.5q0 -358 -138 -549.5t-399 -191.5zM639 1296q-96 0 -166.5 -48.5t-109.5 -132.5t-57.5 -180.5t-18.5 -207.5q0 -285 86 -439.5t245 -154.5q167 0 258 153t91 441
q0 261 -87 415t-241 154zM909 1499h-155l-127 187l-127 -187h-156l205 297h156z" />
    <glyph glyph-name="Otilde" unicode="&#xd5;" horiz-adv-x="1253" 
d="M618 -14q-239 0 -379.5 193.5t-140.5 520.5q0 360 139 552t398 192q238 0 379 -192.5t141 -524.5q0 -358 -138 -549.5t-399 -191.5zM639 1296q-96 0 -166.5 -48.5t-109.5 -132.5t-57.5 -180.5t-18.5 -207.5q0 -285 86 -439.5t245 -154.5q167 0 258 153t91 441
q0 261 -87 415t-241 154zM819 1765h107q-8 -47 -20 -82.5t-31.5 -68.5t-51.5 -50.5t-75 -17.5q-11 0 -23 2t-20 3.5t-23 7.5t-19 7.5t-22 9.5t-20 9q-84 39 -107 39q-72 0 -80 -88h-106q11 106 60 162.5t134 56.5q43 0 140 -43q11 -5 32.5 -15.5t34 -15t21.5 -4.5
q28 0 44 21.5t25 66.5z" />
    <glyph glyph-name="Odieresis" unicode="&#xd6;" horiz-adv-x="1253" 
d="M618 -14q-239 0 -379.5 193.5t-140.5 520.5q0 360 139 552t398 192q238 0 379 -192.5t141 -524.5q0 -358 -138 -549.5t-399 -191.5zM639 1296q-96 0 -166.5 -48.5t-109.5 -132.5t-57.5 -180.5t-18.5 -207.5q0 -285 86 -439.5t245 -154.5q167 0 258 153t91 441
q0 261 -87 415t-241 154zM545 1571h-164v205h164v-205zM872 1571h-163v205h163v-205z" />
    <glyph glyph-name="multiply" unicode="&#xd7;" horiz-adv-x="1228" 
d="M985 47l-371 369l-370 -369l-101 103l369 368l-369 369l101 102l370 -368l371 368l100 -102l-368 -369l368 -368z" />
    <glyph glyph-name="Oslash" unicode="&#xd8;" horiz-adv-x="1253" 
d="M94 -29l-67 54l172 217q-101 185 -101 458q0 360 139 552t398 192q229 0 371 -180l153 194l68 -53l-172 -217q100 -183 100 -461q0 -360 -139 -550.5t-398 -190.5q-232 0 -370 180zM326 403l565 715q-82 178 -260 178q-158 0 -251 -150t-93 -446q0 -170 39 -297z
M928 1026l-566 -715q83 -178 256 -178q167 0 258 153.5t91 440.5q0 172 -39 299z" />
    <glyph glyph-name="Ugrave" unicode="&#xd9;" horiz-adv-x="1212" 
d="M874 494v936h181v-953q0 -239 -122.5 -365t-326.5 -126q-97 0 -177 29.5t-141.5 88.5t-95.5 156t-34 223v947h180v-936q0 -161 70.5 -261t197.5 -100q125 0 196.5 99t71.5 262zM709 1499h-131l-209 297h202z" />
    <glyph glyph-name="Uacute" unicode="&#xda;" horiz-adv-x="1212" 
d="M874 494v936h181v-953q0 -239 -122.5 -365t-326.5 -126q-97 0 -177 29.5t-141.5 88.5t-95.5 156t-34 223v947h180v-936q0 -161 70.5 -261t197.5 -100q125 0 196.5 99t71.5 262zM635 1499h-131l137 297h203z" />
    <glyph glyph-name="Ucircumflex" unicode="&#xdb;" horiz-adv-x="1212" 
d="M874 494v936h181v-953q0 -239 -122.5 -365t-326.5 -126q-97 0 -177 29.5t-141.5 88.5t-95.5 156t-34 223v947h180v-936q0 -161 70.5 -261t197.5 -100q125 0 196.5 99t71.5 262zM889 1499h-156l-127 187l-127 -187h-155l204 297h156z" />
    <glyph glyph-name="Udieresis" unicode="&#xdc;" horiz-adv-x="1212" 
d="M874 494v936h181v-953q0 -239 -122.5 -365t-326.5 -126q-97 0 -177 29.5t-141.5 88.5t-95.5 156t-34 223v947h180v-936q0 -161 70.5 -261t197.5 -100q125 0 196.5 99t71.5 262zM524 1571h-164v205h164v-205zM852 1571h-164v205h164v-205z" />
    <glyph glyph-name="Yacute" unicode="&#xdd;" horiz-adv-x="1060" 
d="M621 0h-181v600l-428 830h205l315 -633l318 633h199l-428 -830v-600zM559 1499h-131l137 297h203z" />
    <glyph glyph-name="Thorn" unicode="&#xde;" horiz-adv-x="985" 
d="M338 0h-180v1430h180v-246h174q186 0 299 -110.5t113 -295.5q0 -211 -120.5 -318.5t-338.5 -107.5h-127v-352zM338 500h92q163 0 234 66.5t71 195.5q0 48 -8 87t-29 75t-54.5 60t-87.5 38t-126 14h-92v-536z" />
    <glyph glyph-name="germandbls" unicode="&#xdf;" horiz-adv-x="985" 
d="M403 0l9 150q69 -25 133 -25q102 0 148 64.5t46 201.5q0 108 -14 172.5t-52 103t-93.5 52.5t-149.5 16v148h8q141 0 193.5 67t52.5 236q0 116 -45 175.5t-145 59.5q-106 0 -155.5 -72.5t-49.5 -236.5v-1112h-172v1118q0 215 96 329t281 114q173 0 267.5 -105t94.5 -295
q0 -140 -54 -212.5t-184 -125.5v-4q160 -17 226.5 -108.5t66.5 -290.5q0 -200 -97.5 -317t-272.5 -117q-66 0 -138 14z" />
    <glyph glyph-name="agrave" unicode="&#xe0;" horiz-adv-x="948" 
d="M838 0h-156l-10 141h-4q-92 -155 -293 -155q-139 0 -220 81t-81 220q0 93 36 162t102.5 110t152.5 60.5t194 19.5h107v78q0 42 -10 75.5t-24 54.5t-37 36t-40 22t-43.5 10.5t-37.5 4t-30 0.5q-71 0 -144.5 -30t-115.5 -79l-18 162q133 86 295 86q35 0 70.5 -5t79.5 -17.5
t81 -37.5t68.5 -61t50 -93t18.5 -128v-570q0 -29 4.5 -87.5t4.5 -59.5zM666 375v137l-39 2q-39 2 -74 2q-75 0 -132.5 -15.5t-90 -38.5t-52.5 -54t-26 -57t-6 -52q0 -86 44.5 -134t131.5 -48q109 0 176.5 77t67.5 181zM578 1188h-132l-208 297h202z" />
    <glyph glyph-name="aacute" unicode="&#xe1;" horiz-adv-x="948" 
d="M838 0h-156l-10 141h-4q-92 -155 -293 -155q-139 0 -220 81t-81 220q0 93 36 162t102.5 110t152.5 60.5t194 19.5h107v78q0 42 -10 75.5t-24 54.5t-37 36t-40 22t-43.5 10.5t-37.5 4t-30 0.5q-71 0 -144.5 -30t-115.5 -79l-18 162q133 86 295 86q35 0 70.5 -5t79.5 -17.5
t81 -37.5t68.5 -61t50 -93t18.5 -128v-570q0 -29 4.5 -87.5t4.5 -59.5zM666 375v137l-39 2q-39 2 -74 2q-75 0 -132.5 -15.5t-90 -38.5t-52.5 -54t-26 -57t-6 -52q0 -86 44.5 -134t131.5 -48q109 0 176.5 77t67.5 181zM504 1188h-131l137 297h203z" />
    <glyph glyph-name="acircumflex" unicode="&#xe2;" horiz-adv-x="948" 
d="M838 0h-156l-10 141h-4q-92 -155 -293 -155q-139 0 -220 81t-81 220q0 93 36 162t102.5 110t152.5 60.5t194 19.5h107v78q0 42 -10 75.5t-24 54.5t-37 36t-40 22t-43.5 10.5t-37.5 4t-30 0.5q-71 0 -144.5 -30t-115.5 -79l-18 162q133 86 295 86q35 0 70.5 -5t79.5 -17.5
t81 -37.5t68.5 -61t50 -93t18.5 -128v-570q0 -29 4.5 -87.5t4.5 -59.5zM666 375v137l-39 2q-39 2 -74 2q-75 0 -132.5 -15.5t-90 -38.5t-52.5 -54t-26 -57t-6 -52q0 -86 44.5 -134t131.5 -48q109 0 176.5 77t67.5 181zM758 1188h-156l-127 186l-127 -186h-155l204 297h156z
" />
    <glyph glyph-name="atilde" unicode="&#xe3;" horiz-adv-x="948" 
d="M838 0h-156l-10 141h-4q-92 -155 -293 -155q-139 0 -220 81t-81 220q0 93 36 162t102.5 110t152.5 60.5t194 19.5h107v78q0 42 -10 75.5t-24 54.5t-37 36t-40 22t-43.5 10.5t-37.5 4t-30 0.5q-71 0 -144.5 -30t-115.5 -79l-18 162q133 86 295 86q35 0 70.5 -5t79.5 -17.5
t81 -37.5t68.5 -61t50 -93t18.5 -128v-570q0 -29 4.5 -87.5t4.5 -59.5zM666 375v137l-39 2q-39 2 -74 2q-75 0 -132.5 -15.5t-90 -38.5t-52.5 -54t-26 -57t-6 -52q0 -86 44.5 -134t131.5 -48q109 0 176.5 77t67.5 181zM668 1454h106q-8 -47 -20 -82.5t-31.5 -68.5
t-51.5 -50.5t-75 -17.5q-11 0 -23 2t-20 3.5t-23 7.5t-19 7.5t-22 9.5t-20 9q-84 39 -107 39q-71 0 -79 -88h-107q11 105 60.5 162t134.5 57q8 0 15.5 -0.5t16 -2.5t15 -3.5t16.5 -5t15 -5t16 -6.5t14.5 -6.5t15.5 -7t15 -6.5q11 -5 32.5 -15.5t34 -15t21.5 -4.5
q28 0 44.5 21.5t25.5 66.5z" />
    <glyph glyph-name="adieresis" unicode="&#xe4;" horiz-adv-x="948" 
d="M838 0h-156l-10 141h-4q-92 -155 -293 -155q-139 0 -220 81t-81 220q0 93 36 162t102.5 110t152.5 60.5t194 19.5h107v78q0 42 -10 75.5t-24 54.5t-37 36t-40 22t-43.5 10.5t-37.5 4t-30 0.5q-71 0 -144.5 -30t-115.5 -79l-18 162q133 86 295 86q35 0 70.5 -5t79.5 -17.5
t81 -37.5t68.5 -61t50 -93t18.5 -128v-570q0 -29 4.5 -87.5t4.5 -59.5zM666 375v137l-39 2q-39 2 -74 2q-75 0 -132.5 -15.5t-90 -38.5t-52.5 -54t-26 -57t-6 -52q0 -86 44.5 -134t131.5 -48q109 0 176.5 77t67.5 181zM393 1260h-164v204h164v-204zM721 1260h-164v204h164
v-204z" />
    <glyph glyph-name="aring" unicode="&#xe5;" horiz-adv-x="948" 
d="M838 0h-156l-10 141h-4q-92 -155 -293 -155q-139 0 -220 81t-81 220q0 93 36 162t102.5 110t152.5 60.5t194 19.5h107v78q0 42 -10 75.5t-24 54.5t-37 36t-40 22t-43.5 10.5t-37.5 4t-30 0.5q-71 0 -144.5 -30t-115.5 -79l-18 162q133 86 295 86q35 0 70.5 -5t79.5 -17.5
t81 -37.5t68.5 -61t50 -93t18.5 -128v-570q0 -29 4.5 -87.5t4.5 -59.5zM666 375v137l-39 2q-39 2 -74 2q-75 0 -132.5 -15.5t-90 -38.5t-52.5 -54t-26 -57t-6 -52q0 -86 44.5 -134t131.5 -48q109 0 176.5 77t67.5 181zM500 1155q-87 0 -150 63t-63 150q0 86 62.5 149.5
t150.5 63.5t150.5 -63.5t62.5 -149.5q0 -87 -63 -150t-150 -63zM618 1368q0 49 -35 84t-83 35t-83.5 -35t-35.5 -84q0 -50 34.5 -84.5t84.5 -34.5q49 0 83.5 35.5t34.5 83.5z" />
    <glyph glyph-name="ae" unicode="&#xe6;" horiz-adv-x="1478" 
d="M1348 203l8 -156q-131 -61 -293 -61q-128 0 -215.5 54.5t-124.5 158.5q-108 -213 -348 -213q-139 0 -220 81t-81 220q0 178 124 269t363 91h107v27q0 121 -58 183.5t-164 62.5q-73 0 -145.5 -30t-116.5 -79l-18 162q133 86 295 86q106 0 182.5 -45t114.5 -131
q49 92 119 134t170 42q173 0 269.5 -129.5t96.5 -376.5v-37h-590v-6q0 -201 68 -297t217 -96q115 0 240 86zM823 647h418q0 135 -52.5 208t-154.5 73q-93 0 -151.5 -74.5t-59.5 -206.5zM668 463v53h-68q-185 0 -269.5 -57t-84.5 -172q0 -79 45.5 -124.5t130.5 -45.5
q112 0 179 85.5t67 260.5z" />
    <glyph glyph-name="ccedilla" unicode="&#xe7;" horiz-adv-x="796" 
d="M276 -406l29 72q80 -26 129 -26q52 0 85.5 26t33.5 60q0 75 -90 75q-53 0 -88 -14l-31 39l113 168q-180 25 -281.5 163t-101.5 355q0 256 124 401.5t343 145.5q123 0 207 -41l-9 -156q-88 49 -196 49q-140 0 -214.5 -101.5t-74.5 -297.5q0 -176 77 -277.5t208 -101.5
q111 0 209 55l8 -157q-41 -19 -104 -32t-111 -13l-74 -109q54 6 59 6q76 0 125 -41t49 -106q0 -79 -65.5 -128.5t-177.5 -49.5q-91 0 -181 36z" />
    <glyph glyph-name="egrave" unicode="&#xe8;" horiz-adv-x="909" 
d="M778 203l8 -156q-128 -61 -290 -61q-202 0 -312 140t-110 396q0 252 107 394.5t296 142.5q170 0 268.5 -127.5t98.5 -378.5v-82h-590q0 -181 71 -267.5t214 -86.5q114 0 239 86zM254 602h418q0 326 -205 326q-100 0 -156 -83.5t-57 -242.5zM559 1188h-131l-209 297h203z
" />
    <glyph glyph-name="eacute" unicode="&#xe9;" horiz-adv-x="909" 
d="M778 203l8 -156q-128 -61 -290 -61q-202 0 -312 140t-110 396q0 252 107 394.5t296 142.5q170 0 268.5 -127.5t98.5 -378.5v-82h-590q0 -181 71 -267.5t214 -86.5q114 0 239 86zM254 602h418q0 326 -205 326q-100 0 -156 -83.5t-57 -242.5zM483 1188h-131l137 297h203z
" />
    <glyph glyph-name="ecircumflex" unicode="&#xea;" horiz-adv-x="909" 
d="M778 203l8 -156q-128 -61 -290 -61q-202 0 -312 140t-110 396q0 252 107 394.5t296 142.5q170 0 268.5 -127.5t98.5 -378.5v-82h-590q0 -181 71 -267.5t214 -86.5q114 0 239 86zM254 602h418q0 326 -205 326q-100 0 -156 -83.5t-57 -242.5zM737 1188h-155l-127 186
l-127 -186h-156l205 297h155z" />
    <glyph glyph-name="edieresis" unicode="&#xeb;" horiz-adv-x="909" 
d="M778 203l8 -156q-128 -61 -290 -61q-202 0 -312 140t-110 396q0 252 107 394.5t296 142.5q170 0 268.5 -127.5t98.5 -378.5v-82h-590q0 -181 71 -267.5t214 -86.5q114 0 239 86zM254 602h418q0 326 -205 326q-100 0 -156 -83.5t-57 -242.5zM373 1260h-164v204h164v-204z
M700 1260h-163v204h163v-204z" />
    <glyph glyph-name="igrave" unicode="&#xec;" horiz-adv-x="454" 
d="M313 0h-172v1044h172v-1044zM330 1188h-131l-209 297h203z" />
    <glyph glyph-name="iacute" unicode="&#xed;" horiz-adv-x="454" 
d="M313 0h-172v1044h172v-1044zM256 1188h-131l137 297h203z" />
    <glyph glyph-name="icircumflex" unicode="&#xee;" horiz-adv-x="454" 
d="M313 0h-172v1044h172v-1044zM510 1188h-156l-127 186l-127 -186h-155l205 297h155z" />
    <glyph glyph-name="idieresis" unicode="&#xef;" horiz-adv-x="454" 
d="M313 0h-172v1044h172v-1044zM145 1260h-163v204h163v-204zM473 1260h-164v204h164v-204z" />
    <glyph glyph-name="eth" unicode="&#xf0;" 
d="M707 967l4 4q-36 116 -108 216.5t-167 160.5l-160 -97l-67 56l160 96q-68 46 -176 80l61 78q94 -17 231 -88l146 88l67 -56l-141 -86q356 -256 356 -796q0 -323 -102.5 -480t-316.5 -157q-198 0 -309 140t-111 396t111 396.5t309 140.5q134 0 213 -92zM494 125
q122 0 180.5 98.5t58.5 298.5q0 199 -58.5 298.5t-182.5 99.5q-238 0 -238 -398q0 -199 59 -298t181 -99z" />
    <glyph glyph-name="ntilde" unicode="&#xf1;" 
d="M862 0h-172v682q0 229 -172 229q-104 0 -162.5 -73t-58.5 -201v-637h-172v834q0 25 -4 109t-4 101h166l6 -155h4q42 89 106.5 129.5t157.5 40.5q147 0 226 -87t79 -241v-731zM686 1454h107q-8 -47 -20 -82.5t-32 -68.5t-52 -50.5t-75 -17.5q-11 0 -23 2t-20 3.5t-23 7.5
t-19 7.5t-22 9.5t-20 9q-84 39 -106 39q-72 0 -80 -88h-106q11 106 60 162.5t134 56.5q8 0 15.5 -0.5t16 -2.5t15 -3.5t16.5 -5t15 -5t16 -6.5t14.5 -6.5t15.5 -7t15 -6.5q11 -5 32.5 -15.5t34 -15t21.5 -4.5q28 0 44.5 21.5t25.5 66.5z" />
    <glyph glyph-name="ograve" unicode="&#xf2;" 
d="M494 -14q-198 0 -309 140t-111 396t111 396.5t309 140.5t308.5 -140t110.5 -397q0 -256 -110.5 -396t-308.5 -140zM494 125q122 0 180.5 98.5t58.5 298.5q0 202 -59 300t-182 98q-238 0 -238 -398q0 -199 59 -298t181 -99zM598 1188h-131l-209 297h203z" />
    <glyph glyph-name="oacute" unicode="&#xf3;" 
d="M494 -14q-198 0 -309 140t-111 396t111 396.5t309 140.5t308.5 -140t110.5 -397q0 -256 -110.5 -396t-308.5 -140zM494 125q122 0 180.5 98.5t58.5 298.5q0 202 -59 300t-182 98q-238 0 -238 -398q0 -199 59 -298t181 -99zM522 1188h-131l137 297h203z" />
    <glyph glyph-name="ocircumflex" unicode="&#xf4;" 
d="M494 -14q-198 0 -309 140t-111 396t111 396.5t309 140.5t308.5 -140t110.5 -397q0 -256 -110.5 -396t-308.5 -140zM494 125q122 0 180.5 98.5t58.5 298.5q0 202 -59 300t-182 98q-238 0 -238 -398q0 -199 59 -298t181 -99zM776 1188h-155l-127 186l-127 -186h-156
l205 297h155z" />
    <glyph glyph-name="otilde" unicode="&#xf5;" 
d="M494 -14q-198 0 -309 140t-111 396t111 396.5t309 140.5t308.5 -140t110.5 -397q0 -256 -110.5 -396t-308.5 -140zM494 125q122 0 180.5 98.5t58.5 298.5q0 202 -59 300t-182 98q-238 0 -238 -398q0 -199 59 -298t181 -99zM686 1454h107q-8 -47 -20 -82.5t-32 -68.5
t-52 -50.5t-75 -17.5q-11 0 -23 2t-20 3.5t-23 7.5t-19 7.5t-22 9.5t-20 9q-84 39 -106 39q-72 0 -80 -88h-106q11 106 60 162.5t134 56.5q8 0 15.5 -0.5t16 -2.5t15 -3.5t16.5 -5t15 -5t16 -6.5t14.5 -6.5t15.5 -7t15 -6.5q11 -5 32.5 -15.5t34 -15t21.5 -4.5
q28 0 44.5 21.5t25.5 66.5z" />
    <glyph glyph-name="odieresis" unicode="&#xf6;" 
d="M494 -14q-198 0 -309 140t-111 396t111 396.5t309 140.5t308.5 -140t110.5 -397q0 -256 -110.5 -396t-308.5 -140zM494 125q122 0 180.5 98.5t58.5 298.5q0 202 -59 300t-182 98q-238 0 -238 -398q0 -199 59 -298t181 -99zM412 1260h-164v204h164v-204zM739 1260h-164
v204h164v-204z" />
    <glyph glyph-name="divide" unicode="&#xf7;" horiz-adv-x="1228" 
d="M614 788q-54 0 -92.5 39t-38.5 93t38.5 92.5t92.5 38.5t92.5 -38.5t38.5 -92.5t-38.5 -93t-92.5 -39zM1133 449h-1037v139h1037v-139zM614 -14q-54 0 -92.5 38.5t-38.5 92.5t38.5 92.5t92.5 38.5t92.5 -38.5t38.5 -92.5t-38.5 -92.5t-92.5 -38.5z" />
    <glyph glyph-name="oslash" unicode="&#xf8;" 
d="M109 -27l-62 47l113 144q-86 136 -86 358q0 256 111 396.5t309 140.5q174 0 284 -113l101 125l61 -47l-115 -141q88 -131 88 -361q0 -256 -110.5 -396t-308.5 -140q-183 0 -285 114zM279 313l397 504q-64 103 -184 103q-238 0 -238 -398q0 -123 25 -209zM709 733
l-398 -504q59 -104 183 -104q122 0 180.5 98.5t58.5 298.5q0 126 -24 211z" />
    <glyph glyph-name="ugrave" unicode="&#xf9;" 
d="M870 0h-165l-7 156h-4q-42 -89 -106.5 -129.5t-157.5 -40.5q-148 0 -226.5 86t-78.5 243v729h172v-679q0 -232 172 -232q107 0 164 74.5t57 204.5v632h172v-833q0 -25 4 -107.5t4 -103.5zM598 1188h-131l-209 297h203z" />
    <glyph glyph-name="uacute" unicode="&#xfa;" 
d="M870 0h-165l-7 156h-4q-42 -89 -106.5 -129.5t-157.5 -40.5q-148 0 -226.5 86t-78.5 243v729h172v-679q0 -232 172 -232q107 0 164 74.5t57 204.5v632h172v-833q0 -25 4 -107.5t4 -103.5zM522 1188h-131l137 297h203z" />
    <glyph glyph-name="ucircumflex" unicode="&#xfb;" 
d="M870 0h-165l-7 156h-4q-42 -89 -106.5 -129.5t-157.5 -40.5q-148 0 -226.5 86t-78.5 243v729h172v-679q0 -232 172 -232q107 0 164 74.5t57 204.5v632h172v-833q0 -25 4 -107.5t4 -103.5zM776 1188h-155l-127 186l-127 -186h-156l205 297h155z" />
    <glyph glyph-name="udieresis" unicode="&#xfc;" 
d="M870 0h-165l-7 156h-4q-42 -89 -106.5 -129.5t-157.5 -40.5q-148 0 -226.5 86t-78.5 243v729h172v-679q0 -232 172 -232q107 0 164 74.5t57 204.5v632h172v-833q0 -25 4 -107.5t4 -103.5zM412 1260h-164v204h164v-204zM739 1260h-164v204h164v-204z" />
    <glyph glyph-name="yacute" unicode="&#xfd;" horiz-adv-x="833" 
d="M80 -442l8 155q44 -20 96 -20q23 0 41.5 10t29 21.5t21.5 40t16 44.5t15 56l31 119l-330 1060h180l234 -851h4l217 851h172l-369 -1275q-17 -60 -41.5 -103.5t-48.5 -66t-56 -35.5t-55.5 -16t-54.5 -3q-60 0 -110 13zM446 1188h-131l138 297h202z" />
    <glyph glyph-name="thorn" unicode="&#xfe;" horiz-adv-x="985" 
d="M281 -442h-172v1978h172v-637h4q83 160 266 160q171 0 265.5 -140.5t94.5 -396.5t-94.5 -396t-265.5 -140q-89 0 -150.5 36t-115.5 121h-4v-585zM510 125q117 0 173 98.5t56 298.5q0 199 -56 298.5t-175 99.5q-227 0 -227 -398q0 -200 56 -298.5t173 -98.5z" />
    <glyph glyph-name="ydieresis" unicode="&#xff;" horiz-adv-x="833" 
d="M80 -442l8 155q44 -20 96 -20q23 0 41.5 10t29 21.5t21.5 40t16 44.5t15 56l31 119l-330 1060h180l234 -851h4l217 851h172l-369 -1275q-17 -60 -41.5 -103.5t-48.5 -66t-56 -35.5t-55.5 -16t-54.5 -3q-60 0 -110 13zM336 1260h-164v204h164v-204zM664 1260h-164v204h164
v-204z" />
    <glyph glyph-name="Amacron" unicode="&#x100;" horiz-adv-x="1175" 
d="M1159 0h-188l-115 373h-545l-114 -373h-181l480 1430h196zM809 528l-219 713h-4l-226 -713h449zM864 1589h-540v123h540v-123z" />
    <glyph glyph-name="amacron" unicode="&#x101;" horiz-adv-x="948" 
d="M838 0h-156l-10 141h-4q-92 -155 -293 -155q-139 0 -220 81t-81 220q0 93 36 162t102.5 110t152.5 60.5t194 19.5h107v78q0 42 -10 75.5t-24 54.5t-37 36t-40 22t-43.5 10.5t-37.5 4t-30 0.5q-71 0 -144.5 -30t-115.5 -79l-18 162q133 86 295 86q35 0 70.5 -5t79.5 -17.5
t81 -37.5t68.5 -61t50 -93t18.5 -128v-570q0 -29 4.5 -87.5t4.5 -59.5zM666 375v137l-39 2q-39 2 -74 2q-75 0 -132.5 -15.5t-90 -38.5t-52.5 -54t-26 -57t-6 -52q0 -86 44.5 -134t131.5 -48q109 0 176.5 77t67.5 181zM754 1278h-541v123h541v-123z" />
    <glyph glyph-name="Abreve" unicode="&#x102;" horiz-adv-x="1175" 
d="M1159 0h-188l-115 373h-545l-114 -373h-181l480 1430h196zM809 528l-219 713h-4l-226 -713h449zM745 1763h107q-17 -132 -84 -198t-174 -66q-110 0 -176.5 68t-81.5 196h106q10 -68 50 -104.5t102 -36.5t101.5 37t49.5 104z" />
    <glyph glyph-name="abreve" unicode="&#x103;" horiz-adv-x="948" 
d="M838 0h-156l-10 141h-4q-92 -155 -293 -155q-139 0 -220 81t-81 220q0 93 36 162t102.5 110t152.5 60.5t194 19.5h107v78q0 42 -10 75.5t-24 54.5t-37 36t-40 22t-43.5 10.5t-37.5 4t-30 0.5q-71 0 -144.5 -30t-115.5 -79l-18 162q133 86 295 86q35 0 70.5 -5t79.5 -17.5
t81 -37.5t68.5 -61t50 -93t18.5 -128v-570q0 -29 4.5 -87.5t4.5 -59.5zM666 375v137l-39 2q-39 2 -74 2q-75 0 -132.5 -15.5t-90 -38.5t-52.5 -54t-26 -57t-6 -52q0 -86 44.5 -134t131.5 -48q109 0 176.5 77t67.5 181zM635 1452h106q-15 -129 -81.5 -196.5t-176.5 -67.5
t-177.5 68.5t-80.5 195.5h107q10 -67 49.5 -104t101.5 -37t102 37t50 104z" />
    <glyph glyph-name="Aogonek" unicode="&#x104;" horiz-adv-x="1175" 
d="M1143 -334l28 -72q-82 -36 -153 -36q-106 0 -169 47.5t-63 132.5q0 71 64.5 144t173.5 118h-53l-115 373h-545l-114 -373h-181l480 1430h196l467 -1430h-45q-84 -47 -132 -115.5t-48 -140.5q0 -50 26 -77t70 -27q63 0 113 26zM809 528l-219 713h-4l-226 -713h449z" />
    <glyph glyph-name="aogonek" unicode="&#x105;" horiz-adv-x="948" 
d="M827 -334l29 -72q-82 -36 -156 -36q-105 0 -167 48t-62 132q0 73 64.5 144t173.5 118h-27l-10 141h-4q-92 -155 -293 -155q-139 0 -220 81t-81 220q0 93 36 162t102.5 110t152.5 60.5t194 19.5h107v78q0 42 -10 75.5t-24 54.5t-37 36t-40 22t-43.5 10.5t-37.5 4t-30 0.5
q-71 0 -144.5 -30t-115.5 -79l-18 162q133 86 295 86q43 0 86 -7t96 -29t92.5 -58t66.5 -100.5t27 -149.5v-568q0 -37 2.5 -71t4.5 -53.5t2 -22.5h-39q-85 -50 -133 -117t-48 -139q0 -50 27 -77t72 -27q64 0 110 26zM666 375v137l-39 2q-39 2 -74 2q-75 0 -132.5 -15.5
t-90 -38.5t-52.5 -54t-26 -57t-6 -52q0 -86 44.5 -134t131.5 -48q109 0 176.5 77t67.5 181z" />
    <glyph glyph-name="Cacute" unicode="&#x106;" horiz-adv-x="1099" 
d="M1001 209v-180q-140 -43 -260 -43q-154 0 -276.5 53.5t-202.5 150.5t-122 231t-42 296q0 328 174 527.5t459 199.5q165 0 270 -51v-176q-116 71 -268 71q-191 0 -318.5 -145.5t-127.5 -388.5q0 -295 119 -454t339 -159q139 0 256 68zM702 1499h-131l138 297h202z" />
    <glyph glyph-name="cacute" unicode="&#x107;" horiz-adv-x="796" 
d="M748 188l8 -157q-41 -19 -105 -32t-114 -13q-216 0 -339.5 141.5t-123.5 384.5q0 255 125 401t342 146q123 0 207 -41l-9 -156q-88 49 -196 49q-140 0 -214.5 -101.5t-74.5 -297.5q0 -176 77 -277.5t208 -101.5q111 0 209 55zM526 1188h-131l137 297h203z" />
    <glyph glyph-name="Ccircumflex" unicode="&#x108;" horiz-adv-x="1099" 
d="M1001 209v-180q-140 -43 -260 -43q-154 0 -276.5 53.5t-202.5 150.5t-122 231t-42 296q0 328 174 527.5t459 199.5q165 0 270 -51v-176q-116 71 -268 71q-191 0 -318.5 -145.5t-127.5 -388.5q0 -295 119 -454t339 -159q139 0 256 68zM969 1499h-156l-127 187l-127 -187
h-156l205 297h156z" />
    <glyph glyph-name="ccircumflex" unicode="&#x109;" horiz-adv-x="796" 
d="M748 188l8 -157q-41 -19 -105 -32t-114 -13q-216 0 -339.5 141.5t-123.5 384.5q0 255 125 401t342 146q123 0 207 -41l-9 -156q-88 49 -196 49q-140 0 -214.5 -101.5t-74.5 -297.5q0 -176 77 -277.5t208 -101.5q111 0 209 55zM778 1188h-155l-127 186l-127 -186h-156
l205 297h155z" />
    <glyph glyph-name="Cdotaccent" unicode="&#x10a;" horiz-adv-x="1099" 
d="M1001 209v-180q-140 -43 -260 -43q-154 0 -276.5 53.5t-202.5 150.5t-122 231t-42 296q0 328 174 527.5t459 199.5q165 0 270 -51v-176q-116 71 -268 71q-191 0 -318.5 -145.5t-127.5 -388.5q0 -295 119 -454t339 -159q139 0 256 68zM768 1571h-164v205h164v-205z" />
    <glyph glyph-name="cdotaccent" unicode="&#x10b;" horiz-adv-x="796" 
d="M748 188l8 -157q-41 -19 -105 -32t-114 -13q-216 0 -339.5 141.5t-123.5 384.5q0 255 125 401t342 146q123 0 207 -41l-9 -156q-88 49 -196 49q-140 0 -214.5 -101.5t-74.5 -297.5q0 -176 77 -277.5t208 -101.5q111 0 209 55zM578 1260h-164v204h164v-204z" />
    <glyph glyph-name="Ccaron" unicode="&#x10c;" horiz-adv-x="1099" 
d="M1001 209v-180q-140 -43 -260 -43q-154 0 -276.5 53.5t-202.5 150.5t-122 231t-42 296q0 328 174 527.5t459 199.5q165 0 270 -51v-176q-116 71 -268 71q-191 0 -318.5 -145.5t-127.5 -388.5q0 -295 119 -454t339 -159q139 0 256 68zM764 1499h-156l-205 297h156
l127 -186l127 186h156z" />
    <glyph glyph-name="ccaron" unicode="&#x10d;" horiz-adv-x="796" 
d="M748 188l8 -157q-41 -19 -105 -32t-114 -13q-216 0 -339.5 141.5t-123.5 384.5q0 255 125 401t342 146q123 0 207 -41l-9 -156q-88 49 -196 49q-140 0 -214.5 -101.5t-74.5 -297.5q0 -176 77 -277.5t208 -101.5q111 0 209 55zM573 1188h-155l-205 297h156l127 -187
l127 187h155z" />
    <glyph glyph-name="Dcaron" unicode="&#x10e;" horiz-adv-x="1175" 
d="M371 0h-234v1430h328q151 0 271.5 -51.5t198 -144.5t118.5 -219.5t41 -277.5q0 -360 -189 -548.5t-534 -188.5zM317 156h111q237 0 357 153t120 434q0 86 -14 160t-49 144t-88.5 119t-138.5 78.5t-193 29.5h-105v-1118zM600 1499h-156l-204 297h155l127 -186l127 186h156
z" />
    <glyph glyph-name="dcaron" unicode="&#x10f;" horiz-adv-x="1128" 
d="M885 0h-166l-6 154h-4q-92 -168 -275 -168q-171 0 -265.5 140t-94.5 396t94.5 396.5t265.5 140.5q90 0 150.5 -37t115.5 -121h5v635h172v-1356q0 -22 4 -93t4 -87zM475 125q118 0 174 98.5t56 298.5q0 201 -56 299.5t-176 98.5q-227 0 -227 -398q0 -200 56 -298.5
t173 -98.5zM1110 1090h-127l33 395h186z" />
    <glyph glyph-name="Dcroat" unicode="&#x110;" horiz-adv-x="1175" 
d="M371 0h-234v692h-157v131h157v607h328q151 0 271.5 -51.5t198 -144.5t118.5 -219.5t41 -277.5q0 -360 -189 -548.5t-534 -188.5zM317 156h111q237 0 357 153t120 434q0 86 -14 160t-49 144t-88.5 119t-138.5 78.5t-193 29.5h-105v-451h330v-131h-330v-536z" />
    <glyph glyph-name="dcroat" unicode="&#x111;" horiz-adv-x="985" 
d="M885 0h-166l-6 154h-4q-88 -168 -275 -168q-171 0 -265.5 140t-94.5 396t94.5 396.5t265.5 140.5q89 0 149 -35.5t117 -122.5h5v344h-299v115h299v176h172v-176h110v-115h-110v-1065q0 -21 4 -91t4 -89zM475 125q117 0 173.5 98t56.5 299t-55.5 299.5t-176.5 98.5
q-117 0 -172 -99.5t-55 -298.5q0 -201 55.5 -299t173.5 -98z" />
    <glyph glyph-name="Emacron" unicode="&#x112;" horiz-adv-x="948" 
d="M850 0h-692v1430h665v-156h-485v-455h463v-155h-463v-508h512v-156zM770 1589h-541v123h541v-123z" />
    <glyph glyph-name="emacron" unicode="&#x113;" horiz-adv-x="909" 
d="M778 203l8 -156q-128 -61 -290 -61q-202 0 -312 140t-110 396q0 252 107 394.5t296 142.5q170 0 268.5 -127.5t98.5 -378.5v-82h-590q0 -181 71 -267.5t214 -86.5q114 0 239 86zM254 602h418q0 326 -205 326q-100 0 -156 -83.5t-57 -242.5zM745 1278h-540v123h540v-123z
" />
    <glyph glyph-name="Ebreve" unicode="&#x114;" horiz-adv-x="948" 
d="M850 0h-692v1430h665v-156h-485v-455h463v-155h-463v-508h512v-156zM651 1763h107q-17 -132 -84 -198t-174 -66q-110 0 -176.5 68t-81.5 196h106q10 -68 50 -104.5t102 -36.5t101.5 37t49.5 104z" />
    <glyph glyph-name="ebreve" unicode="&#x115;" horiz-adv-x="909" 
d="M778 203l8 -156q-128 -61 -290 -61q-202 0 -312 140t-110 396q0 252 107 394.5t296 142.5q170 0 268.5 -127.5t98.5 -378.5v-82h-590q0 -181 71 -267.5t214 -86.5q114 0 239 86zM254 602h418q0 326 -205 326q-100 0 -156 -83.5t-57 -242.5zM627 1452h106
q-15 -129 -81.5 -196.5t-176.5 -67.5t-177.5 68.5t-80.5 195.5h107q10 -67 49.5 -104t101.5 -37t102 37t50 104z" />
    <glyph glyph-name="Edotaccent" unicode="&#x116;" horiz-adv-x="948" 
d="M850 0h-692v1430h665v-156h-485v-455h463v-155h-463v-508h512v-156zM582 1571h-164v205h164v-205z" />
    <glyph glyph-name="edotaccent" unicode="&#x117;" horiz-adv-x="909" 
d="M778 203l8 -156q-128 -61 -290 -61q-202 0 -312 140t-110 396q0 252 107 394.5t296 142.5q170 0 268.5 -127.5t98.5 -378.5v-82h-590q0 -181 71 -267.5t214 -86.5q114 0 239 86zM254 602h418q0 326 -205 326q-100 0 -156 -83.5t-57 -242.5zM557 1260h-164v204h164v-204z
" />
    <glyph glyph-name="Eogonek" unicode="&#x118;" horiz-adv-x="948" 
d="M817 -334l29 -72q-79 -36 -156 -36q-105 0 -167 48t-62 132q0 71 65.5 144.5t171.5 117.5h-540v1430h665v-156h-485v-455h463v-155h-463v-508h512v-156h-62q-86 -51 -133 -117.5t-47 -138.5q0 -50 27 -77t72 -27q64 0 110 26z" />
    <glyph glyph-name="eogonek" unicode="&#x119;" horiz-adv-x="909" 
d="M651 -334l29 -72q-82 -36 -156 -36q-105 0 -167 48t-62 132q0 65 54 132.5t151 115.5q-206 0 -316 140t-110 396q0 252 107 394.5t296 142.5q170 0 268.5 -127.5t98.5 -378.5v-82h-590q0 -181 71 -267.5t214 -86.5q114 0 239 86l8 -156q-89 -37 -172 -51
q-86 -50 -129 -118.5t-43 -127.5q0 -110 99 -110q64 0 110 26zM254 602h418q0 326 -205 326q-100 0 -156 -83.5t-57 -242.5z" />
    <glyph glyph-name="Ecaron" unicode="&#x11a;" horiz-adv-x="948" 
d="M850 0h-692v1430h665v-156h-485v-455h463v-155h-463v-508h512v-156zM575 1499h-155l-205 297h156l127 -186l127 186h155z" />
    <glyph glyph-name="ecaron" unicode="&#x11b;" horiz-adv-x="909" 
d="M778 203l8 -156q-128 -61 -290 -61q-202 0 -312 140t-110 396q0 252 107 394.5t296 142.5q170 0 268.5 -127.5t98.5 -378.5v-82h-590q0 -181 71 -267.5t214 -86.5q114 0 239 86zM254 602h418q0 326 -205 326q-100 0 -156 -83.5t-57 -242.5zM549 1188h-156l-205 297h156
l127 -187l127 187h156z" />
    <glyph glyph-name="Gcircumflex" unicode="&#x11c;" horiz-adv-x="1253" 
d="M924 180v451h-240v155h412v-727q-210 -73 -359 -73q-299 0 -469 198.5t-170 532.5q0 327 174.5 527t458.5 200q200 0 336 -64v-180q-174 88 -334 88q-193 0 -319.5 -147t-126.5 -387q0 -294 119.5 -453.5t336.5 -159.5q50 0 101 12t80 27zM995 1499h-155l-127 187
l-127 -187h-156l205 297h156z" />
    <glyph glyph-name="gcircumflex" unicode="&#x11d;" horiz-adv-x="985" 
d="M713 -10v172h-4q-102 -176 -275 -176q-171 0 -265.5 140t-94.5 396q0 259 98 398t281 139q77 0 145 -45t111 -121h4l6 151h166q0 -19 -4 -84t-4 -94v-919q0 -183 -123 -292.5t-324 -109.5q-62 0 -156 20t-149 44l8 174q66 -41 144 -65.5t145 -24.5q141 0 216 77.5
t75 219.5zM475 125q118 0 174 98.5t56 298.5q0 201 -56 299.5t-176 98.5q-227 0 -227 -398q0 -200 56 -298.5t173 -98.5zM780 1188h-155l-127 186l-127 -186h-156l205 297h155z" />
    <glyph glyph-name="Gbreve" unicode="&#x11e;" horiz-adv-x="1253" 
d="M924 180v451h-240v155h412v-727q-210 -73 -359 -73q-299 0 -469 198.5t-170 532.5q0 327 174.5 527t458.5 200q200 0 336 -64v-180q-174 88 -334 88q-193 0 -319.5 -147t-126.5 -387q0 -294 119.5 -453.5t336.5 -159.5q50 0 101 12t80 27zM864 1763h107
q-17 -132 -84 -198t-174 -66q-110 0 -176.5 68t-81.5 196h106q10 -68 50 -104.5t102 -36.5t101.5 37t49.5 104z" />
    <glyph glyph-name="gbreve" unicode="&#x11f;" horiz-adv-x="985" 
d="M713 -10v172h-4q-102 -176 -275 -176q-171 0 -265.5 140t-94.5 396q0 259 98 398t281 139q77 0 145 -45t111 -121h4l6 151h166q0 -19 -4 -84t-4 -94v-919q0 -183 -123 -292.5t-324 -109.5q-62 0 -156 20t-149 44l8 174q66 -41 144 -65.5t145 -24.5q141 0 216 77.5
t75 219.5zM475 125q118 0 174 98.5t56 298.5q0 201 -56 299.5t-176 98.5q-227 0 -227 -398q0 -200 56 -298.5t173 -98.5zM649 1452h107q-15 -129 -81.5 -196.5t-176.5 -67.5t-177.5 68.5t-80.5 195.5h106q10 -67 50 -104t102 -37t101.5 37t49.5 104z" />
    <glyph glyph-name="Gdotaccent" unicode="&#x120;" horiz-adv-x="1253" 
d="M924 180v451h-240v155h412v-727q-210 -73 -359 -73q-299 0 -469 198.5t-170 532.5q0 327 174.5 527t458.5 200q200 0 336 -64v-180q-174 88 -334 88q-193 0 -319.5 -147t-126.5 -387q0 -294 119.5 -453.5t336.5 -159.5q50 0 101 12t80 27zM795 1571h-164v205h164v-205z
" />
    <glyph glyph-name="gdotaccent" unicode="&#x121;" horiz-adv-x="985" 
d="M713 -10v172h-4q-102 -176 -275 -176q-171 0 -265.5 140t-94.5 396q0 259 98 398t281 139q77 0 145 -45t111 -121h4l6 151h166q0 -19 -4 -84t-4 -94v-919q0 -183 -123 -292.5t-324 -109.5q-62 0 -156 20t-149 44l8 174q66 -41 144 -65.5t145 -24.5q141 0 216 77.5
t75 219.5zM475 125q118 0 174 98.5t56 298.5q0 201 -56 299.5t-176 98.5q-227 0 -227 -398q0 -200 56 -298.5t173 -98.5zM580 1260h-164v204h164v-204z" />
    <glyph glyph-name="Gcommaaccent" unicode="&#x122;" horiz-adv-x="1253" 
d="M924 180v451h-240v155h412v-727q-210 -73 -359 -73q-299 0 -469 198.5t-170 532.5q0 327 174.5 527t458.5 200q200 0 336 -64v-180q-174 88 -334 88q-193 0 -319.5 -147t-126.5 -387q0 -294 119.5 -453.5t336.5 -159.5q50 0 101 12t80 27zM711 -455h-138l66 297h174z" />
    <glyph glyph-name="gcommaaccent" unicode="&#x123;" horiz-adv-x="985" 
d="M713 -10v172h-4q-102 -176 -275 -176q-171 0 -265.5 140t-94.5 396q0 259 98 398t281 139q77 0 145 -45t111 -121h4l6 151h166q0 -19 -4 -84t-4 -94v-919q0 -183 -123 -292.5t-324 -109.5q-62 0 -156 20t-149 44l8 174q66 -41 144 -65.5t145 -24.5q141 0 216 77.5
t75 219.5zM475 125q118 0 174 98.5t56 298.5q0 201 -56 299.5t-176 98.5q-227 0 -227 -398q0 -200 56 -298.5t173 -98.5zM580 1188h-170l102 297h133z" />
    <glyph glyph-name="Hcircumflex" unicode="&#x124;" horiz-adv-x="1175" 
d="M1018 0h-180v664h-500v-664h-180v1430h180v-611h500v611h180v-1430zM870 1499h-155l-127 187l-127 -187h-156l205 297h156z" />
    <glyph glyph-name="hcircumflex" unicode="&#x125;" 
d="M862 0h-172v682q0 229 -172 229q-104 0 -162.5 -73t-58.5 -201v-637h-172v1536h172v-635h4q40 76 108 117t148 41q145 0 225 -86.5t80 -241.5v-731zM784 1602h-155l-127 186l-127 -186h-156l205 296h156z" />
    <glyph glyph-name="Hbar" unicode="&#x126;" horiz-adv-x="1175" 
d="M1018 0h-180v635h-500v-635h-180v1020h-142v125h142v285h180v-285h500v285h180v-285h141v-125h-141v-1020zM838 786v234h-500v-234h500z" />
    <glyph glyph-name="hbar" unicode="&#x127;" 
d="M862 0h-172v672q0 54 -8 95.5t-23.5 66.5t-32 41.5t-39.5 23.5t-40 9.5t-39 2.5q-56 0 -106 -31.5t-78 -95.5q-18 -42 -22.5 -82t-4.5 -122v-580h-172v1245h-111v115h111v176h172v-176h299v-115h-299v-108q0 -208 -2 -236h6q90 158 264 158q36 0 71 -7t78 -28.5t74 -57
t52.5 -98.5t21.5 -145v-723z" />
    <glyph glyph-name="Itilde" unicode="&#x128;" horiz-adv-x="495" 
d="M338 0h-180v1430h180v-1430zM446 1765h107q-8 -47 -20 -82.5t-31.5 -68.5t-51.5 -50.5t-75 -17.5q-11 0 -23 2t-20 3.5t-23 7.5t-19 7.5t-22 9.5t-20 9q-84 39 -107 39q-72 0 -80 -88h-106q11 105 60.5 162t134.5 57q8 0 15.5 -0.5t16 -2.5t15 -3.5t16.5 -5t15 -5
t16 -6.5t14.5 -6.5t15.5 -7t15 -6.5q11 -5 32.5 -15.5t34 -15t21.5 -4.5q28 0 44 21.5t25 66.5z" />
    <glyph glyph-name="itilde" unicode="&#x129;" horiz-adv-x="454" 
d="M313 0h-172v1044h172v-1044zM420 1454h106q-8 -47 -20 -82.5t-31.5 -68.5t-51.5 -50.5t-75 -17.5q-11 0 -23 2t-20 3.5t-23 7.5t-19 7.5t-22 9.5t-20 9q-84 39 -106 39q-72 0 -80 -88h-107q11 105 60.5 162t134.5 57q8 0 15.5 -0.5t16 -2.5t15 -3.5t16.5 -5t15 -5
t16 -6.5t14.5 -6.5t15.5 -7t15 -6.5q11 -5 32.5 -15.5t34 -15t21.5 -4.5q28 0 44.5 21.5t25.5 66.5z" />
    <glyph glyph-name="Imacron" unicode="&#x12a;" horiz-adv-x="495" 
d="M338 0h-180v1430h180v-1430zM518 1589h-541v123h541v-123z" />
    <glyph glyph-name="imacron" unicode="&#x12b;" horiz-adv-x="454" 
d="M313 0h-172v1044h172v-1044zM500 1278h-541v123h541v-123z" />
    <glyph glyph-name="Iogonek" unicode="&#x12e;" horiz-adv-x="495" 
d="M379 -334l29 -72q-80 -36 -154 -36q-106 0 -168.5 48t-62.5 132q0 68 58 136t167 126h-90v1430h180v-1430q-168 -113 -168 -256q0 -50 26 -77t70 -27q63 0 113 26z" />
    <glyph glyph-name="iogonek" unicode="&#x12f;" horiz-adv-x="454" 
d="M322 1270h-189v205h189v-205zM354 -334l29 -72q-82 -36 -156 -36q-105 0 -167 48t-62 132q0 68 58.5 136.5t166.5 125.5h-82v1044h172v-1044q-168 -114 -168 -256q0 -50 27 -77t72 -27q64 0 110 26z" />
    <glyph glyph-name="Idotaccent" unicode="&#x130;" horiz-adv-x="495" 
d="M338 0h-180v1430h180v-1430zM332 1571h-164v205h164v-205z" />
    <glyph glyph-name="dotlessi" unicode="&#x131;" horiz-adv-x="454" 
d="M313 0h-172v1044h172v-1044z" />
    <glyph glyph-name="IJ" unicode="&#x132;" horiz-adv-x="1097" 
d="M338 0h-180v1430h180v-1430zM500 0v178l35 -10q30 -10 65 -10q180 0 180 221v1051h181v-1061q0 -176 -80 -279.5t-232 -103.5q-33 0 -149 14z" />
    <glyph glyph-name="ij" unicode="&#x133;" horiz-adv-x="884" 
d="M322 1270h-189v205h189v-205zM313 0h-172v1044h172v-1044zM752 1270h-189v205h189v-205zM406 -436v139l20 -4q24 -6 63 -6q24 0 40.5 9.5t24.5 21t12 34t4.5 33.5t0.5 35v1218h172v-1247q0 -137 -56 -194.5t-177 -57.5q-58 0 -104 19z" />
    <glyph glyph-name="Jcircumflex" unicode="&#x134;" horiz-adv-x="645" 
d="M47 0v178l35 -10q30 -10 65 -10q181 0 181 221v1051h180v-1061q0 -177 -80 -280t-231 -103q-35 0 -150 14zM700 1499h-155l-127 187l-127 -187h-156l205 297h156z" />
    <glyph glyph-name="jcircumflex" unicode="&#x135;" horiz-adv-x="454" 
d="M-25 -436v139l21 -4q24 -6 63 -6q24 0 40.5 9.5t24.5 21t12 34t4.5 33.5t0.5 35v1218h172v-1247q0 -137 -56 -194.5t-177 -57.5q-59 0 -105 19zM510 1188h-156l-127 186l-127 -186h-155l205 297h155z" />
    <glyph glyph-name="Kcommaaccent" unicode="&#x136;" horiz-adv-x="1062" 
d="M1055 0h-234l-499 692h-5v-692h-180v1430h180v-621h5l473 621h215l-537 -676zM549 -455h-137l65 297h174z" />
    <glyph glyph-name="kcommaaccent" unicode="&#x137;" horiz-adv-x="909" 
d="M893 0h-213l-379 526h-4v-526h-172v1536h172v-911l358 419h201l-410 -466zM477 -455h-137l66 297h174z" />
    <glyph glyph-name="Lacute" unicode="&#x139;" horiz-adv-x="833" 
d="M807 0h-649v1430h180v-1274h469v-156zM317 1499h-131l138 297h202z" />
    <glyph glyph-name="lacute" unicode="&#x13a;" horiz-adv-x="454" 
d="M313 0h-172v1536h172v-1536zM270 1602h-131l137 296h203z" />
    <glyph glyph-name="Lcommaaccent" unicode="&#x13b;" horiz-adv-x="833" 
d="M807 0h-649v1430h180v-1274h469v-156zM475 -455h-137l65 297h175z" />
    <glyph glyph-name="lcommaaccent" unicode="&#x13c;" horiz-adv-x="454" 
d="M313 0h-172v1536h172v-1536zM211 -455h-137l65 297h174z" />
    <glyph glyph-name="Lcaron" unicode="&#x13d;" horiz-adv-x="833" 
d="M807 0h-649v1430h180v-1274h469v-156zM600 1090h-127l33 395h186z" />
    <glyph glyph-name="lcaron" unicode="&#x13e;" horiz-adv-x="565" 
d="M313 0h-172v1536h172v-1536zM547 1090h-127l33 395h186z" />
    <glyph glyph-name="Ldot" unicode="&#x13f;" horiz-adv-x="833" 
d="M807 0h-649v1430h180v-1274h469v-156zM662 649h-164v205h164v-205z" />
    <glyph glyph-name="ldot" unicode="&#x140;" horiz-adv-x="677" 
d="M313 0h-172v1536h172v-1536zM623 649h-164v205h164v-205z" />
    <glyph glyph-name="Lslash" unicode="&#x141;" horiz-adv-x="833" 
d="M807 0h-649v569l-138 -131v176l138 131v685h180v-512l260 247v-176l-260 -248v-585h469v-156z" />
    <glyph glyph-name="lslash" unicode="&#x142;" horiz-adv-x="454" 
d="M313 0h-172v633h-4l-137 -178v147l141 178v756h172v-537h4l138 172v-147l-142 -176v-848z" />
    <glyph glyph-name="Nacute" unicode="&#x143;" horiz-adv-x="1253" 
d="M1096 0h-224l-538 1171h-4v-1171h-172v1430h223l539 -1180h4v1180h172v-1430zM688 1499h-131l137 297h203z" />
    <glyph glyph-name="nacute" unicode="&#x144;" 
d="M862 0h-172v682q0 229 -172 229q-104 0 -162.5 -73t-58.5 -201v-637h-172v834q0 25 -4 109t-4 101h166l6 -155h4q42 89 106.5 129.5t157.5 40.5q147 0 226 -87t79 -241v-731zM553 1188h-131l137 297h203z" />
    <glyph glyph-name="Ncommaaccent" unicode="&#x145;" horiz-adv-x="1253" 
d="M1096 0h-224l-538 1171h-4v-1171h-172v1430h223l539 -1180h4v1180h172v-1430zM631 -455h-137l65 297h174z" />
    <glyph glyph-name="ncommaaccent" unicode="&#x146;" 
d="M862 0h-172v682q0 229 -172 229q-104 0 -162.5 -73t-58.5 -201v-637h-172v834q0 25 -4 109t-4 101h166l6 -155h4q42 89 106.5 129.5t157.5 40.5q147 0 226 -87t79 -241v-731zM489 -455h-137l66 297h174z" />
    <glyph glyph-name="Ncaron" unicode="&#x147;" horiz-adv-x="1253" 
d="M1096 0h-224l-538 1171h-4v-1171h-172v1430h223l539 -1180h4v1180h172v-1430zM713 1499h-156l-205 297h156l127 -186l127 186h156z" />
    <glyph glyph-name="ncaron" unicode="&#x148;" 
d="M862 0h-172v682q0 229 -172 229q-104 0 -162.5 -73t-58.5 -201v-637h-172v834q0 25 -4 109t-4 101h166l6 -155h4q42 89 106.5 129.5t157.5 40.5q147 0 226 -87t79 -241v-731zM584 1188h-156l-205 297h156l127 -187l127 187h155z" />
    <glyph glyph-name="napostrophe" unicode="&#x149;" horiz-adv-x="1060" 
d="M936 0h-172v682q0 229 -172 229q-104 0 -162.5 -73t-58.5 -201v-637h-172v834q0 25 -4.5 109t-4.5 101h166l6 -155h5q42 89 106.5 129.5t157.5 40.5q147 0 226 -87t79 -241v-731zM92 1061h-155l102 475h188z" />
    <glyph glyph-name="Omacron" unicode="&#x14c;" horiz-adv-x="1253" 
d="M618 -14q-239 0 -379.5 193.5t-140.5 520.5q0 360 139 552t398 192q238 0 379 -192.5t141 -524.5q0 -358 -138 -549.5t-399 -191.5zM639 1296q-96 0 -166.5 -48.5t-109.5 -132.5t-57.5 -180.5t-18.5 -207.5q0 -285 86 -439.5t245 -154.5q167 0 258 153t91 441
q0 261 -87 415t-241 154zM899 1589h-541v123h541v-123z" />
    <glyph glyph-name="omacron" unicode="&#x14d;" 
d="M494 -14q-198 0 -309 140t-111 396t111 396.5t309 140.5t308.5 -140t110.5 -397q0 -256 -110.5 -396t-308.5 -140zM494 125q122 0 180.5 98.5t58.5 298.5q0 202 -59 300t-182 98q-238 0 -238 -398q0 -199 59 -298t181 -99zM766 1278h-541v123h541v-123z" />
    <glyph glyph-name="Obreve" unicode="&#x14e;" horiz-adv-x="1253" 
d="M618 -14q-239 0 -379.5 193.5t-140.5 520.5q0 360 139 552t398 192q238 0 379 -192.5t141 -524.5q0 -358 -138 -549.5t-399 -191.5zM639 1296q-96 0 -166.5 -48.5t-109.5 -132.5t-57.5 -180.5t-18.5 -207.5q0 -285 86 -439.5t245 -154.5q167 0 258 153t91 441
q0 261 -87 415t-241 154zM778 1763h107q-17 -132 -84 -198t-174 -66q-110 0 -176.5 68t-81.5 196h106q10 -68 50 -104.5t102 -36.5t101.5 37t49.5 104z" />
    <glyph glyph-name="obreve" unicode="&#x14f;" 
d="M494 -14q-198 0 -309 140t-111 396t111 396.5t309 140.5t308.5 -140t110.5 -397q0 -256 -110.5 -396t-308.5 -140zM494 125q122 0 180.5 98.5t58.5 298.5q0 202 -59 300t-182 98q-238 0 -238 -398q0 -199 59 -298t181 -99zM645 1452h107q-15 -129 -81.5 -196.5
t-176.5 -67.5t-177.5 68.5t-80.5 195.5h106q10 -67 50 -104t102 -37t101.5 37t49.5 104z" />
    <glyph glyph-name="Ohungarumlaut" unicode="&#x150;" horiz-adv-x="1253" 
d="M618 -14q-239 0 -379.5 193.5t-140.5 520.5q0 360 139 552t398 192q238 0 379 -192.5t141 -524.5q0 -358 -138 -549.5t-399 -191.5zM639 1296q-96 0 -166.5 -48.5t-109.5 -132.5t-57.5 -180.5t-18.5 -207.5q0 -285 86 -439.5t245 -154.5q167 0 258 153t91 441
q0 261 -87 415t-241 154zM506 1499h-131l137 297h203zM834 1499h-132l138 297h202z" />
    <glyph glyph-name="ohungarumlaut" unicode="&#x151;" 
d="M494 -14q-198 0 -309 140t-111 396t111 396.5t309 140.5t308.5 -140t110.5 -397q0 -256 -110.5 -396t-308.5 -140zM494 125q122 0 180.5 98.5t58.5 298.5q0 202 -59 300t-182 98q-238 0 -238 -398q0 -199 59 -298t181 -99zM367 1188h-131l137 297h202zM694 1188h-131
l137 297h203z" />
    <glyph glyph-name="OE" unicode="&#x152;" horiz-adv-x="1593" 
d="M1495 0h-598q-73 0 -181 -7t-118 -7q-150 0 -263.5 89t-175 251t-61.5 374q0 367 145 555.5t423 188.5q26 0 123.5 -7t119.5 -7h568v-156h-453v-455h426v-155h-426v-508h471v-156zM844 156v1118q-78 22 -187 22q-180 0 -275 -149t-95 -447q0 -559 375 -559q111 0 182 15z
" />
    <glyph glyph-name="oe" unicode="&#x153;" horiz-adv-x="1593" 
d="M1462 203l8 -156q-131 -61 -290 -61q-125 0 -210 54t-134 171q-95 -225 -332 -225q-206 0 -318 140t-112 396q0 255 112 396t318 141q124 0 200 -50t132 -167q51 114 126.5 165.5t192.5 51.5q175 0 274 -129t99 -371v-88h-610q0 -24 0.5 -41.5t6 -57.5t15.5 -69.5t31 -67
t50 -61t75.5 -40.5t105.5 -17q61 0 132 22t128 64zM918 602h438q0 166 -53 246t-162 80q-107 0 -165 -81t-58 -245zM504 125q129 0 189.5 98.5t60.5 298.5t-60.5 299t-191.5 99q-125 0 -186.5 -98t-61.5 -300q0 -200 60.5 -298.5t189.5 -98.5z" />
    <glyph glyph-name="Racute" unicode="&#x154;" horiz-adv-x="1062" 
d="M1006 0h-195l-166 489q-18 53 -41 85.5t-56 48t-65 20t-84 4.5h-61v-647h-180v1430h379q104 0 183 -31t123.5 -84.5t66.5 -117.5t22 -138q0 -136 -73 -224.5t-210 -117.5v-4q66 -13 100 -46t56 -94zM338 795h145q118 0 189 69t71 183q0 115 -69.5 175t-188.5 60h-147
v-487zM526 1499h-131l137 297h203z" />
    <glyph glyph-name="racute" unicode="&#x155;" horiz-adv-x="606" 
d="M297 0h-172v834q0 24 -4 106t-4 104h166l6 -163h4q41 94 110.5 136t186.5 42v-170q-35 6 -66 6q-107 0 -167 -91.5t-60 -242.5v-561zM393 1188h-131l137 297h203z" />
    <glyph glyph-name="Rcommaaccent" unicode="&#x156;" horiz-adv-x="1062" 
d="M1006 0h-195l-166 489q-18 53 -41 85.5t-56 48t-65 20t-84 4.5h-61v-647h-180v1430h379q104 0 183 -31t123.5 -84.5t66.5 -117.5t22 -138q0 -136 -73 -224.5t-210 -117.5v-4q66 -13 100 -46t56 -94zM338 795h145q118 0 189 69t71 183q0 115 -69.5 175t-188.5 60h-147
v-487zM551 -455h-137l65 297h174z" />
    <glyph glyph-name="rcommaaccent" unicode="&#x157;" horiz-adv-x="606" 
d="M297 0h-172v834q0 24 -4 106t-4 104h166l6 -163h4q41 94 110.5 136t186.5 42v-170q-35 6 -66 6q-107 0 -167 -91.5t-60 -242.5v-561zM193 -455h-138l66 297h174z" />
    <glyph glyph-name="Rcaron" unicode="&#x158;" horiz-adv-x="1062" 
d="M1006 0h-195l-166 489q-18 53 -41 85.5t-56 48t-65 20t-84 4.5h-61v-647h-180v1430h379q104 0 183 -31t123.5 -84.5t66.5 -117.5t22 -138q0 -136 -73 -224.5t-210 -117.5v-4q66 -13 100 -46t56 -94zM338 795h145q118 0 189 69t71 183q0 115 -69.5 175t-188.5 60h-147
v-487zM573 1499h-155l-205 297h156l127 -186l127 186h155z" />
    <glyph glyph-name="rcaron" unicode="&#x159;" horiz-adv-x="606" 
d="M297 0h-172v834q0 24 -4 106t-4 104h166l6 -163h4q41 94 110.5 136t186.5 42v-170q-35 6 -66 6q-107 0 -167 -91.5t-60 -242.5v-561zM436 1188h-155l-205 297h155l127 -187l127 187h156z" />
    <glyph glyph-name="Sacute" unicode="&#x15a;" horiz-adv-x="909" 
d="M102 47v186q162 -92 275 -92q111 0 181.5 65t70.5 163q0 45 -7 74.5t-30.5 64.5t-69.5 71t-123 83q-70 43 -112.5 72.5t-84 68t-63 76.5t-34.5 89t-13 115q0 167 110.5 264t286.5 97q144 0 259 -47v-174q-108 65 -242 65q-101 0 -163 -60.5t-62 -152.5q0 -82 52.5 -136
t194.5 -136q163 -95 226 -194t63 -218q0 -182 -110.5 -293.5t-307.5 -111.5q-172 0 -297 61zM510 1499h-131l137 297h203z" />
    <glyph glyph-name="sacute" unicode="&#x15b;" horiz-adv-x="757" 
d="M70 47l10 156q133 -78 246 -78q90 0 144 40.5t54 106.5t-41 105.5t-159 89.5q-68 29 -110 53t-77 57.5t-50 76.5t-15 102q0 133 94 218t244 85q124 0 219 -37l-8 -148q-97 46 -203 46q-81 0 -127.5 -39t-46.5 -105q0 -60 44.5 -102.5t160.5 -85.5q51 -19 89.5 -40.5
t74.5 -54t55.5 -79t19.5 -103.5q0 -154 -86.5 -239.5t-251.5 -85.5q-161 0 -280 61zM424 1188h-131l137 297h203z" />
    <glyph glyph-name="Scircumflex" unicode="&#x15c;" horiz-adv-x="909" 
d="M102 47v186q162 -92 275 -92q111 0 181.5 65t70.5 163q0 45 -7 74.5t-30.5 64.5t-69.5 71t-123 83q-70 43 -112.5 72.5t-84 68t-63 76.5t-34.5 89t-13 115q0 167 110.5 264t286.5 97q144 0 259 -47v-174q-108 65 -242 65q-101 0 -163 -60.5t-62 -152.5q0 -82 52.5 -136
t194.5 -136q163 -95 226 -194t63 -218q0 -182 -110.5 -293.5t-307.5 -111.5q-172 0 -297 61zM737 1499h-155l-127 187l-127 -187h-156l205 297h155z" />
    <glyph glyph-name="scircumflex" unicode="&#x15d;" horiz-adv-x="757" 
d="M70 47l10 156q133 -78 246 -78q90 0 144 40.5t54 106.5t-41 105.5t-159 89.5q-68 29 -110 53t-77 57.5t-50 76.5t-15 102q0 133 94 218t244 85q124 0 219 -37l-8 -148q-97 46 -203 46q-81 0 -127.5 -39t-46.5 -105q0 -60 44.5 -102.5t160.5 -85.5q51 -19 89.5 -40.5
t74.5 -54t55.5 -79t19.5 -103.5q0 -154 -86.5 -239.5t-251.5 -85.5q-161 0 -280 61zM662 1188h-156l-127 186l-127 -186h-156l205 297h156z" />
    <glyph glyph-name="Scedilla" unicode="&#x15e;" horiz-adv-x="909" 
d="M221 -406l29 72q80 -26 129 -26q53 0 86 25t33 61q0 75 -90 75q-54 0 -89 -14l-30 39l106 160q-171 0 -293 61v186q162 -92 275 -92q111 0 181.5 65t70.5 163q0 45 -7 74.5t-30.5 64.5t-69.5 71t-123 83q-70 43 -112.5 72.5t-84 68t-63 76.5t-34.5 89t-13 115
q0 167 110.5 264t286.5 97q144 0 259 -47v-174q-108 65 -242 65q-101 0 -163 -60.5t-62 -152.5q0 -82 52.5 -136t194.5 -136q163 -95 226 -194t63 -218q0 -163 -91.5 -270.5t-236.5 -126.5l-77 -117q34 6 59 6q77 0 125.5 -39.5t48.5 -107.5q0 -79 -66 -128.5t-178 -49.5
q-83 0 -180 36z" />
    <glyph glyph-name="scedilla" unicode="&#x15f;" horiz-adv-x="757" 
d="M147 -406l29 72q80 -26 129 -26q53 0 86 25t33 61q0 75 -90 75q-53 0 -88 -14l-31 39l107 160q-58 0 -127.5 17t-124.5 44l10 156q133 -78 246 -78q90 0 144 40.5t54 106.5q0 63 -42 104.5t-158 90.5q-136 57 -194 117.5t-58 171.5q0 133 94 218t244 85q124 0 219 -37
l-8 -148q-97 46 -203 46q-81 0 -127.5 -39t-46.5 -105q0 -60 44.5 -102.5t160.5 -85.5q51 -19 89.5 -40.5t74.5 -54t55.5 -79t19.5 -103.5q0 -139 -72.5 -224t-201.5 -97l-76 -113q27 6 59 6q78 0 126 -40t48 -107q0 -80 -65 -129t-178 -49q-95 0 -181 36z" />
    <glyph glyph-name="Scaron" unicode="&#x160;" horiz-adv-x="909" 
d="M102 47v186q162 -92 275 -92q111 0 181.5 65t70.5 163q0 45 -7 74.5t-30.5 64.5t-69.5 71t-123 83q-70 43 -112.5 72.5t-84 68t-63 76.5t-34.5 89t-13 115q0 167 110.5 264t286.5 97q144 0 259 -47v-174q-108 65 -242 65q-101 0 -163 -60.5t-62 -152.5q0 -82 52.5 -136
t194.5 -136q163 -95 226 -194t63 -218q0 -182 -110.5 -293.5t-307.5 -111.5q-172 0 -297 61zM532 1499h-155l-205 297h156l127 -186l127 186h155z" />
    <glyph glyph-name="scaron" unicode="&#x161;" horiz-adv-x="757" 
d="M70 47l10 156q133 -78 246 -78q90 0 144 40.5t54 106.5t-41 105.5t-159 89.5q-68 29 -110 53t-77 57.5t-50 76.5t-15 102q0 133 94 218t244 85q124 0 219 -37l-8 -148q-97 46 -203 46q-81 0 -127.5 -39t-46.5 -105q0 -60 44.5 -102.5t160.5 -85.5q51 -19 89.5 -40.5
t74.5 -54t55.5 -79t19.5 -103.5q0 -154 -86.5 -239.5t-251.5 -85.5q-161 0 -280 61zM457 1188h-156l-205 297h156l127 -187l127 187h156z" />
    <glyph glyph-name="Tcommaaccent" unicode="&#x162;" horiz-adv-x="909" 
d="M545 0h-180v1274h-328v156h835v-156h-327v-1274zM434 -455h-137l65 297h175z" />
    <glyph glyph-name="tcommaaccent" unicode="&#x163;" horiz-adv-x="606" 
d="M586 152v-140q-76 -26 -148 -26q-132 0 -185.5 63.5t-53.5 179.5v676h-166v139h166v213l172 52v-265h215v-139h-215v-614q0 -84 22.5 -125t85.5 -41q39 0 107 27zM334 -455h-137l65 297h174z" />
    <glyph glyph-name="Tcaron" unicode="&#x164;" horiz-adv-x="909" 
d="M545 0h-180v1274h-328v156h835v-156h-327v-1274zM532 1499h-155l-205 297h156l127 -186l127 186h155z" />
    <glyph glyph-name="tcaron" unicode="&#x165;" horiz-adv-x="618" 
d="M586 152v-140q-76 -26 -148 -26q-132 0 -185.5 63.5t-53.5 179.5v676h-166v139h166v213l172 52v-265h215v-139h-215v-614q0 -84 22.5 -125t85.5 -41q39 0 107 27zM596 1090h-127l33 395h186z" />
    <glyph glyph-name="Tbar" unicode="&#x166;" horiz-adv-x="909" 
d="M545 0h-180v819h-261v129h261v326h-328v156h835v-156h-327v-326h260v-129h-260v-819z" />
    <glyph glyph-name="tbar" unicode="&#x167;" horiz-adv-x="606" 
d="M586 152v-140q-76 -26 -148 -26q-132 0 -185.5 63.5t-53.5 179.5v330h-144v129h144v217h-166v139h166v213l172 52v-265h215v-139h-215v-217h180v-129h-180v-268q0 -84 22.5 -125t85.5 -41q39 0 107 27z" />
    <glyph glyph-name="Utilde" unicode="&#x168;" horiz-adv-x="1212" 
d="M874 494v936h181v-953q0 -239 -122.5 -365t-326.5 -126q-97 0 -177 29.5t-141.5 88.5t-95.5 156t-34 223v947h180v-936q0 -161 70.5 -261t197.5 -100q125 0 196.5 99t71.5 262zM799 1765h106q-8 -47 -20 -82.5t-31.5 -68.5t-51.5 -50.5t-75 -17.5q-11 0 -23 2t-20 3.5
t-23 7.5t-19 7.5t-22 9.5t-20 9q-84 39 -106 39q-72 0 -80 -88h-107q11 105 60.5 162t134.5 57q8 0 15.5 -0.5t16 -2.5t15 -3.5t16.5 -5t15 -5t16 -6.5t14.5 -6.5t15.5 -7t15 -6.5q11 -5 32.5 -15.5t34 -15t21.5 -4.5q28 0 44.5 21.5t25.5 66.5z" />
    <glyph glyph-name="utilde" unicode="&#x169;" 
d="M870 0h-165l-7 156h-4q-42 -89 -106.5 -129.5t-157.5 -40.5q-148 0 -226.5 86t-78.5 243v729h172v-679q0 -232 172 -232q107 0 164 74.5t57 204.5v632h172v-833q0 -25 4 -107.5t4 -103.5zM686 1454h107q-8 -47 -20 -82.5t-32 -68.5t-52 -50.5t-75 -17.5q-11 0 -23 2
t-20 3.5t-23 7.5t-19 7.5t-22 9.5t-20 9q-84 39 -106 39q-72 0 -80 -88h-106q11 106 60 162.5t134 56.5q8 0 15.5 -0.5t16 -2.5t15 -3.5t16.5 -5t15 -5t16 -6.5t14.5 -6.5t15.5 -7t15 -6.5q11 -5 32.5 -15.5t34 -15t21.5 -4.5q28 0 44.5 21.5t25.5 66.5z" />
    <glyph glyph-name="Umacron" unicode="&#x16a;" horiz-adv-x="1212" 
d="M874 494v936h181v-953q0 -239 -122.5 -365t-326.5 -126q-97 0 -177 29.5t-141.5 88.5t-95.5 156t-34 223v947h180v-936q0 -161 70.5 -261t197.5 -100q125 0 196.5 99t71.5 262zM881 1589h-541v123h541v-123z" />
    <glyph glyph-name="umacron" unicode="&#x16b;" 
d="M870 0h-165l-7 156h-4q-42 -89 -106.5 -129.5t-157.5 -40.5q-148 0 -226.5 86t-78.5 243v729h172v-679q0 -232 172 -232q107 0 164 74.5t57 204.5v632h172v-833q0 -25 4 -107.5t4 -103.5zM772 1278h-541v123h541v-123z" />
    <glyph glyph-name="Ubreve" unicode="&#x16c;" horiz-adv-x="1212" 
d="M874 494v936h181v-953q0 -239 -122.5 -365t-326.5 -126q-97 0 -177 29.5t-141.5 88.5t-95.5 156t-34 223v947h180v-936q0 -161 70.5 -261t197.5 -100q125 0 196.5 99t71.5 262zM758 1763h106q-17 -132 -84 -198t-174 -66q-110 0 -176.5 68t-81.5 196h107
q10 -68 49.5 -104.5t101.5 -36.5t102 37t50 104z" />
    <glyph glyph-name="ubreve" unicode="&#x16d;" 
d="M870 0h-165l-7 156h-4q-42 -89 -106.5 -129.5t-157.5 -40.5q-148 0 -226.5 86t-78.5 243v729h172v-679q0 -232 172 -232q107 0 164 74.5t57 204.5v632h172v-833q0 -25 4 -107.5t4 -103.5zM645 1452h107q-15 -129 -81.5 -196.5t-176.5 -67.5t-177.5 68.5t-80.5 195.5h106
q10 -67 50 -104t102 -37t101.5 37t49.5 104z" />
    <glyph glyph-name="Uring" unicode="&#x16e;" horiz-adv-x="1212" 
d="M874 494v936h181v-953q0 -239 -122.5 -365t-326.5 -126q-97 0 -177 29.5t-141.5 88.5t-95.5 156t-34 223v947h180v-936q0 -161 70.5 -261t197.5 -100q125 0 196.5 99t71.5 262zM606 1477q-87 0 -150 63t-63 150q0 86 62.5 149.5t150.5 63.5t150.5 -63.5t62.5 -149.5
q0 -87 -63 -150t-150 -63zM725 1690q0 49 -35.5 83.5t-83.5 34.5t-83.5 -34.5t-35.5 -83.5q0 -50 34.5 -84.5t84.5 -34.5q49 0 84 35.5t35 83.5z" />
    <glyph glyph-name="uring" unicode="&#x16f;" 
d="M870 0h-165l-7 156h-4q-42 -89 -106.5 -129.5t-157.5 -40.5q-148 0 -226.5 86t-78.5 243v729h172v-679q0 -232 172 -232q107 0 164 74.5t57 204.5v632h172v-833q0 -25 4 -107.5t4 -103.5zM502 1155q-87 0 -150 63t-63 150q0 86 62.5 149.5t150.5 63.5t150.5 -63.5
t62.5 -149.5q0 -87 -63 -150t-150 -63zM621 1368q0 49 -35.5 84t-83.5 35t-83.5 -35t-35.5 -84q0 -50 34.5 -84.5t84.5 -34.5q49 0 84 35.5t35 83.5z" />
    <glyph glyph-name="Uhungarumlaut" unicode="&#x170;" horiz-adv-x="1212" 
d="M874 494v936h181v-953q0 -239 -122.5 -365t-326.5 -126q-97 0 -177 29.5t-141.5 88.5t-95.5 156t-34 223v947h180v-936q0 -161 70.5 -261t197.5 -100q125 0 196.5 99t71.5 262zM487 1499h-131l138 297h202zM815 1499h-131l137 297h203z" />
    <glyph glyph-name="uhungarumlaut" unicode="&#x171;" 
d="M870 0h-165l-7 156h-4q-42 -89 -106.5 -129.5t-157.5 -40.5q-148 0 -226.5 86t-78.5 243v729h172v-679q0 -232 172 -232q107 0 164 74.5t57 204.5v632h172v-833q0 -25 4 -107.5t4 -103.5zM375 1188h-131l137 297h203zM702 1188h-131l138 297h202z" />
    <glyph glyph-name="Uogonek" unicode="&#x172;" horiz-adv-x="1212" 
d="M784 -334l29 -72q-82 -36 -156 -36q-105 0 -167 48t-62 132q0 63 54.5 132t142.5 116h-13q-209 0 -331.5 124.5t-122.5 374.5v945h180v-938q0 -165 72 -262t196 -97t196 97t72 262v938h181v-943q0 -201 -81 -322t-226 -161q-173 -126 -173 -260q0 -50 27 -77t72 -27
q64 0 110 26z" />
    <glyph glyph-name="uogonek" unicode="&#x173;" 
d="M864 -334l29 -72q-82 -36 -156 -36q-105 0 -167 48t-62 132q0 70 64.5 143t172.5 119h-40l-7 156h-4q-40 -89 -105 -129.5t-159 -40.5q-148 0 -226.5 87t-78.5 238v733h172v-682q0 -229 172 -229q106 0 163.5 73t57.5 202v636h172v-833q0 -14 4 -101.5t4 -109.5h-34
q-85 -50 -133 -117t-48 -139q0 -50 27 -77t72 -27q64 0 110 26z" />
    <glyph glyph-name="Wcircumflex" unicode="&#x174;" horiz-adv-x="1630" 
d="M1300 0h-213l-270 1225h-4l-270 -1225h-213l-312 1430h189l233 -1160h4l256 1160h230l256 -1160h4l250 1160h172zM1100 1499h-156l-127 187l-127 -187h-155l204 297h156z" />
    <glyph glyph-name="wcircumflex" unicode="&#x175;" horiz-adv-x="1402" 
d="M1112 0h-197l-219 883h-4l-200 -883h-197l-277 1044h181l198 -872h4l199 872h205l207 -872h4l196 872h172zM983 1188h-156l-127 186l-127 -186h-155l205 297h155z" />
    <glyph glyph-name="Ycircumflex" unicode="&#x176;" horiz-adv-x="1060" 
d="M621 0h-181v600l-428 830h205l315 -633l318 633h199l-428 -830v-600zM813 1499h-156l-127 187l-127 -187h-155l205 297h155z" />
    <glyph glyph-name="ycircumflex" unicode="&#x177;" horiz-adv-x="833" 
d="M80 -442l8 155q44 -20 96 -20q23 0 41.5 10t29 21.5t21.5 40t16 44.5t15 56l31 119l-330 1060h180l234 -851h4l217 851h172l-369 -1275q-17 -60 -41.5 -103.5t-48.5 -66t-56 -35.5t-55.5 -16t-54.5 -3q-60 0 -110 13zM698 1188h-155l-127 186l-127 -186h-156l205 297h156
z" />
    <glyph glyph-name="Ydieresis" unicode="&#x178;" horiz-adv-x="1060" 
d="M621 0h-181v600l-428 830h205l315 -633l318 633h199l-428 -830v-600zM449 1571h-164v205h164v-205zM776 1571h-164v205h164v-205z" />
    <glyph glyph-name="Zacute" unicode="&#x179;" horiz-adv-x="948" 
d="M879 0h-809v170l581 1104h-563v156h778v-156l-600 -1118h613v-156zM545 1499h-131l137 297h203z" />
    <glyph glyph-name="zacute" unicode="&#x17a;" horiz-adv-x="796" 
d="M733 0h-670v156l484 741h-467v147h643v-155l-483 -742h493v-147zM467 1188h-131l137 297h203z" />
    <glyph glyph-name="Zdotaccent" unicode="&#x17b;" horiz-adv-x="948" 
d="M879 0h-809v170l581 1104h-563v156h778v-156l-600 -1118h613v-156zM580 1571h-164v205h164v-205z" />
    <glyph glyph-name="zdotaccent" unicode="&#x17c;" horiz-adv-x="796" 
d="M733 0h-670v156l484 741h-467v147h643v-155l-483 -742h493v-147zM504 1260h-164v204h164v-204z" />
    <glyph glyph-name="Zcaron" unicode="&#x17d;" horiz-adv-x="948" 
d="M879 0h-809v170l581 1104h-563v156h778v-156l-600 -1118h613v-156zM553 1499h-156l-204 297h155l127 -186l127 186h156z" />
    <glyph glyph-name="zcaron" unicode="&#x17e;" horiz-adv-x="796" 
d="M733 0h-670v156l484 741h-467v147h643v-155l-483 -742h493v-147zM477 1188h-155l-205 297h155l127 -187l127 187h156z" />
    <glyph glyph-name="florin" unicode="&#x192;" horiz-adv-x="983" 
d="M45 -424l21 143q67 -26 112 -26q38 0 61.5 24t47 100.5t47.5 223.5l98 672h-180v131h201l26 147q17 92 33.5 156.5t41.5 124t57 95t77.5 56.5t104.5 21q91 0 145 -35l-23 -137q-53 33 -104 33q-27 0 -48 -10.5t-37 -36.5t-27 -53.5t-21 -79t-17 -94.5t-18 -116
q-3 -19 -4 -28l-6 -43h182v-131h-203l-88 -584q-16 -107 -33.5 -186.5t-45.5 -158t-63 -128.5t-87 -80.5t-117 -30.5q-56 0 -133 31z" />
    <glyph glyph-name="Scommaaccent" unicode="&#x218;" horiz-adv-x="909" 
d="M102 47v186q162 -92 275 -92q111 0 181.5 65t70.5 163q0 45 -7 74.5t-30.5 64.5t-69.5 71t-123 83q-70 43 -112.5 72.5t-84 68t-63 76.5t-34.5 89t-13 115q0 167 110.5 264t286.5 97q144 0 259 -47v-174q-108 65 -242 65q-101 0 -163 -60.5t-62 -152.5q0 -82 52.5 -136
t194.5 -136q163 -95 226 -194t63 -218q0 -182 -110.5 -293.5t-307.5 -111.5q-172 0 -297 61zM444 -455h-137l66 297h174z" />
    <glyph glyph-name="scommaaccent" unicode="&#x219;" horiz-adv-x="757" 
d="M70 47l10 156q133 -78 246 -78q90 0 144 40.5t54 106.5t-41 105.5t-159 89.5q-68 29 -110 53t-77 57.5t-50 76.5t-15 102q0 133 94 218t244 85q124 0 219 -37l-8 -148q-97 46 -203 46q-81 0 -127.5 -39t-46.5 -105q0 -60 44.5 -102.5t160.5 -85.5q51 -19 89.5 -40.5
t74.5 -54t55.5 -79t19.5 -103.5q0 -154 -86.5 -239.5t-251.5 -85.5q-161 0 -280 61zM371 -455h-138l66 297h174z" />
    <glyph glyph-name="uni021A" unicode="&#x21a;" horiz-adv-x="909" 
d="M545 0h-180v1274h-328v156h835v-156h-327v-1274zM434 -455h-137l65 297h175z" />
    <glyph glyph-name="uni021B" unicode="&#x21b;" horiz-adv-x="606" 
d="M586 152v-140q-76 -26 -148 -26q-132 0 -185.5 63.5t-53.5 179.5v676h-166v139h166v213l172 52v-265h215v-139h-215v-614q0 -84 22.5 -125t85.5 -41q39 0 107 27zM334 -455h-137l65 297h174z" />
    <glyph glyph-name="dotlessj" unicode="&#x237;" horiz-adv-x="454" 
d="M-25 -436v139l21 -4q24 -6 63 -6q24 0 40.5 9.5t24.5 21t12 34t4.5 33.5t0.5 35v1218h172v-1247q0 -137 -56 -194.5t-177 -57.5q-59 0 -105 19z" />
    <glyph glyph-name="circumflex" unicode="&#x2c6;" horiz-adv-x="417" 
d="M492 1188h-156l-127 186l-127 -186h-156l205 297h156z" />
    <glyph glyph-name="caron" unicode="&#x2c7;" horiz-adv-x="417" 
d="M287 1188h-156l-205 297h156l127 -187l127 187h156z" />
    <glyph glyph-name="uni02C9" unicode="&#x2c9;" horiz-adv-x="417" 
d="M479 1278h-540v123h540v-123z" />
    <glyph glyph-name="breve" unicode="&#x2d8;" horiz-adv-x="417" 
d="M360 1452h107q-15 -129 -81.5 -196.5t-176.5 -67.5t-177.5 68.5t-80.5 195.5h106q10 -67 50 -104t102 -37t101.5 37t49.5 104z" />
    <glyph glyph-name="dotaccent" unicode="&#x2d9;" horiz-adv-x="417" 
d="M291 1260h-164v204h164v-204z" />
    <glyph glyph-name="ring" unicode="&#x2da;" horiz-adv-x="417" 
d="M209 1155q-87 0 -150 63t-63 150q0 86 62.5 149.5t150.5 63.5t150.5 -63.5t62.5 -149.5q0 -87 -63 -150t-150 -63zM328 1368q0 49 -35.5 84t-83.5 35t-83.5 -35t-35.5 -84q0 -50 35 -84.5t84 -34.5t84 35.5t35 83.5z" />
    <glyph glyph-name="ogonek" unicode="&#x2db;" horiz-adv-x="417" 
d="M373 -334l28 -72q-82 -36 -153 -36q-107 0 -169.5 48t-62.5 132q0 70 63.5 142t174.5 120h90q-85 -51 -132.5 -119t-47.5 -137q0 -50 26 -77t70 -27q59 0 113 26z" />
    <glyph glyph-name="tilde" unicode="&#x2dc;" horiz-adv-x="417" 
d="M401 1454h107q-8 -47 -20 -82.5t-31.5 -68.5t-51.5 -50.5t-75 -17.5q-11 0 -23 2t-20 3.5t-23 7.5t-19 7.5t-22 9.5t-20 9q-84 39 -107 39q-72 0 -80 -88h-106q11 106 60 162.5t134 56.5q43 0 140 -43q11 -5 32.5 -15.5t34 -15t21.5 -4.5q28 0 44 21.5t25 66.5z" />
    <glyph glyph-name="hungarumlaut" unicode="&#x2dd;" horiz-adv-x="417" 
d="M74 1188h-131l137 297h203zM401 1188h-131l138 297h202z" />
    <glyph glyph-name="uni0394" unicode="&#x394;" horiz-adv-x="1175" 
d="M1159 0h-1143l480 1430h196zM924 156l-334 1085h-4l-342 -1085h680z" />
    <glyph glyph-name="uni03A9" unicode="&#x3a9;" horiz-adv-x="1253" 
d="M1155 156v-156h-426v156q112 100 177 259t65 326q0 164 -39 288t-118 195.5t-189 71.5q-162 0 -252 -153t-90 -402q0 -167 64.5 -326t176.5 -259v-156h-426v156h236q-116 116 -176 269t-60 329q0 199 61.5 354t182.5 245.5t285 90.5t285 -90.5t182 -245.5t61 -354
q0 -363 -235 -598h235z" />
    <glyph glyph-name="uni03BC" unicode="&#x3bc;" horiz-adv-x="1015" 
d="M981 145l4 -141q-37 -16 -88 -16q-85 0 -124 47t-46 162h-4q-84 -222 -264 -222q-82 0 -154 45l-4 -4q8 -220 8 -299v-147h-174v1474h174v-524q0 -64 1.5 -105.5t7 -91.5t17.5 -81t31.5 -59t50.5 -41t72 -13q75 0 124 61t69 156t20 221v477h175v-802q0 -52 13.5 -78.5
t49.5 -26.5q17 0 41 8z" />
    <glyph glyph-name="pi" unicode="&#x3c0;" horiz-adv-x="1040" 
d="M979 131l8 -131q-47 -12 -104 -12q-129 0 -180.5 66.5t-51.5 217.5v621h-307v-893h-174v893h-129v151h920v-151h-136v-623q0 -78 20.5 -111.5t78.5 -33.5q34 0 55 6z" />
    <glyph glyph-name="uni1E9E" unicode="&#x1e9e;" horiz-adv-x="1232" 
d="M494 47v186q57 -39 131 -65.5t137 -26.5q95 0 153 62t58 157q0 64 -28 116t-57.5 79.5t-113.5 91.5q-8 7 -12 10q-108 84 -161.5 171.5t-53.5 189.5q0 82 53.5 155t138.5 115q-53 4 -104 4q-297 0 -297 -282v-1010h-180v1020q0 218 134.5 321t373.5 103q149 0 358 -23
v-155q-127 -6 -208 -65.5t-81 -170.5q0 -32 9.5 -61t22.5 -50t41 -48.5t49 -45t63 -49.5q60 -46 95 -78t73 -82.5t55.5 -112.5t17.5 -141q0 -161 -108.5 -268.5t-288.5 -107.5q-56 0 -106 9t-81.5 20t-82.5 32z" />
    <glyph glyph-name="uni2010" unicode="&#x2010;" horiz-adv-x="606" 
d="M524 502h-442v147h442v-147z" />
    <glyph glyph-name="endash" unicode="&#x2013;" horiz-adv-x="1024" 
d="M1024 506h-1024v139h1024v-139z" />
    <glyph glyph-name="emdash" unicode="&#x2014;" horiz-adv-x="2048" 
d="M2048 506h-2048v139h2048v-139z" />
    <glyph glyph-name="quoteleft" unicode="&#x2018;" horiz-adv-x="491" 
d="M289 1061h-189l136 475h155z" />
    <glyph glyph-name="quoteright" unicode="&#x2019;" horiz-adv-x="491" 
d="M256 1061h-156l103 475h188z" />
    <glyph glyph-name="quotesinglbase" unicode="&#x201a;" horiz-adv-x="491" 
d="M256 -260h-156l103 475h188z" />
    <glyph glyph-name="quotedblleft" unicode="&#x201c;" horiz-adv-x="1024" 
d="M401 1061h-188l135 475h156zM709 1061h-189l135 475h156z" />
    <glyph glyph-name="quotedblright" unicode="&#x201d;" horiz-adv-x="1024" 
d="M369 1061h-156l102 475h189zM676 1061h-156l103 475h188z" />
    <glyph glyph-name="quotedblbase" unicode="&#x201e;" horiz-adv-x="1024" 
d="M369 -260h-156l102 475h189zM676 -260h-156l103 475h188z" />
    <glyph glyph-name="dagger" unicode="&#x2020;" horiz-adv-x="983" 
d="M569 0h-155v920h-283v139h283v371h155v-371h283v-139h-283v-920z" />
    <glyph glyph-name="daggerdbl" unicode="&#x2021;" horiz-adv-x="983" 
d="M569 0h-155v344h-283v139h283v463h-283v139h283v345h155v-345h283v-139h-283v-463h283v-139h-283v-344z" />
    <glyph glyph-name="bullet" unicode="&#x2022;" horiz-adv-x="1024" 
d="M512 356q-150 0 -254 106t-104 253q0 149 105.5 253.5t252.5 104.5q150 0 254 -105.5t104 -252.5t-104 -253t-254 -106z" />
    <glyph glyph-name="ellipsis" unicode="&#x2026;" horiz-adv-x="2048" 
d="M440 0h-196v229h196v-229zM1122 0h-196v229h196v-229zM1804 0h-196v229h196v-229z" />
    <glyph glyph-name="perthousand" unicode="&#x2030;" horiz-adv-x="1822" 
d="M317 1444q122 0 179 -92.5t57 -290.5t-57 -290.5t-179 -92.5q-121 0 -178 92.5t-57 290.5t57 290.5t178 92.5zM834 1444h104l-510 -1458h-102zM315 1329q-58 0 -84 -62t-26 -198q0 -152 26 -214t86 -62q62 0 87.5 64t25.5 204q0 139 -25.5 203.5t-89.5 64.5zM944 752
q122 0 179 -92.5t57 -290.5t-57 -290.5t-179 -92.5q-121 0 -178 92.5t-57 290.5t57 290.5t178 92.5zM1505 752q122 0 179 -92.5t57 -290.5t-57 -290.5t-179 -92.5q-121 0 -178 92.5t-57 290.5t57 290.5t178 92.5zM942 637q-58 0 -84.5 -62.5t-26.5 -195.5q0 -151 26 -215
t87 -64q62 0 87.5 64.5t25.5 204.5q0 138 -25 203t-90 65zM1503 637q-59 0 -84.5 -63.5t-25.5 -204.5q0 -146 26 -207.5t86 -61.5q62 0 87.5 64t25.5 205q0 138 -25 203t-90 65z" />
    <glyph glyph-name="guilsinglleft" unicode="&#x2039;" horiz-adv-x="569" 
d="M473 111h-147l-230 421l230 422h147l-205 -422z" />
    <glyph glyph-name="guilsinglright" unicode="&#x203a;" horiz-adv-x="569" 
d="M244 111h-148l205 421l-205 422h148l229 -422z" />
    <glyph glyph-name="fraction" unicode="&#x2044;" horiz-adv-x="342" 
d="M-84 -68h-131l641 1565h131z" />
    <glyph glyph-name="Euro" unicode="&#x20ac;" horiz-adv-x="983" 
d="M963 197l12 -174q-121 -37 -232 -37q-226 0 -372.5 139t-196.5 399h-160l21 101h129q-4 86 -4 96q0 25 2 53.5t2 30.5h-150l21 100h141q51 258 200 398.5t367 140.5q141 0 252 -53l-32 -164q-21 22 -91 41.5t-118 19.5q-147 0 -246 -96t-143 -287h542l-20 -100h-539
q-4 -28 -4 -78q0 -70 4 -102h510l-18 -101h-475q41 -181 142 -280t247 -99q111 0 209 52z" />
    <glyph glyph-name="uni20B9" unicode="&#x20b9;" horiz-adv-x="983" 
d="M815 0h-211l-485 664v131h223q117 0 180 48t78 148h-481v131h479q-18 82 -84 127.5t-162 48.5h-233v132h837v-132h-264q71 -66 86 -176h178v-131h-176q-17 -164 -122 -249t-281 -85h-58z" />
    <glyph glyph-name="uni20BA" unicode="&#x20ba;" horiz-adv-x="983" 
d="M199 0v623l-162 -82v143l162 82v160l-162 -82v143l162 82v361h178v-271l354 180v-143l-354 -180v-160l354 180v-143l-354 -180v-580q70 0 126 15.5t95.5 41.5t68.5 68t46.5 87.5t28 108.5t15 121.5t5.5 135.5h174q-1 -134 -18 -240.5t-56.5 -199t-102 -154t-158 -96.5
t-220.5 -35q-110 0 -182 14z" />
    <glyph glyph-name="uni20BC" unicode="&#x20bc;" horiz-adv-x="1409" 
d="M1346 0h-177v98q0 85 -6.5 174.5t-22 194t-44 196.5t-68.5 171.5t-100.5 130.5t-134.5 61v-883h-172v883q-74 -10 -135 -61t-101.5 -130t-70 -171.5t-45 -197t-22.5 -194t-7 -174.5v-98h-177v131q0 135 16.5 268t57.5 270t103 243t160 178t221 84v256h172v-256
q88 -9 164 -49t131.5 -101.5t100 -144t73.5 -172.5t48.5 -191t27.5 -195.5t8 -189.5v-131z" />
    <glyph glyph-name="ruble" unicode="&#x20bd;" horiz-adv-x="983" 
d="M360 0h-180v352h-149v131h149v133h-149v132h149v682h352q189 0 301.5 -110.5t112.5 -295.5q0 -408 -459 -408h-127v-133h318v-131h-318v-352zM360 745h95q150 0 226.5 65t76.5 204q0 268 -301 268h-97v-537z" />
    <glyph glyph-name="afii61289" unicode="&#x2113;" horiz-adv-x="1024" 
d="M801 158l49 -74q-119 -113 -266 -113q-122 0 -191 69.5t-69 186.5v240l-121 -129l-56 78l177 172v538q0 153 73 252t191 99q101 0 163 -71.5t62 -191.5q0 -150 -87 -310t-263 -341v-313q0 -81 41.5 -126.5t111.5 -45.5q90 0 185 80zM463 1149v-463q114 130 173.5 264
t59.5 254q0 78 -29.5 126t-78.5 48q-54 0 -89.5 -63.5t-35.5 -165.5z" />
    <glyph glyph-name="trademark" unicode="&#x2122;" horiz-adv-x="2048" 
d="M508 578h-131v757h-266v95h663v-95h-266v-757zM1855 578h-131v741h-4l-280 -741h-88l-279 741h-4v-741h-131v852h209l250 -656l250 656h208v-852z" />
    <glyph glyph-name="Omega" unicode="&#x2126;" horiz-adv-x="1253" 
d="M1155 156v-156h-426v156q112 100 177 259t65 326q0 164 -39 288t-118 195.5t-189 71.5q-162 0 -252 -153t-90 -402q0 -167 64.5 -326t176.5 -259v-156h-426v156h236q-116 116 -176 269t-60 329q0 199 61.5 354t182.5 245.5t285 90.5t285 -90.5t182 -245.5t61 -354
q0 -363 -235 -598h235z" />
    <glyph glyph-name="estimated" unicode="&#x212e;" horiz-adv-x="1228" 
d="M1014 285l71 -43q-93 -150 -201.5 -213.5t-265.5 -63.5q-234 0 -381 161t-147 404q0 245 147 405.5t381 160.5q232 0 380 -154t151 -412h-827v-370q121 -121 296 -121q131 0 225.5 59.5t170.5 186.5zM918 604v297q-129 123 -304 123q-169 0 -292 -123v-297h596z" />
    <glyph glyph-name="partialdiff" unicode="&#x2202;" horiz-adv-x="991" 
d="M186 1358l-51 125q131 108 301 108q206 0 335.5 -201.5t129.5 -555.5q0 -389 -125.5 -613.5t-349.5 -224.5q-159 0 -253.5 130t-94.5 333q0 226 113 373t274 147q86 0 160 -45t120 -123q3 18 3 68q0 260 -95.5 416.5t-232.5 156.5q-129 0 -234 -94zM729 649
q-26 85 -93.5 140t-148.5 55q-66 0 -123.5 -52.5t-92.5 -142.5t-35 -194q0 -147 55.5 -234.5t148.5 -87.5q113 0 190.5 142.5t98.5 373.5z" />
    <glyph glyph-name="Delta" unicode="&#x2206;" horiz-adv-x="1175" 
d="M1159 0h-1143l480 1430h196zM924 156l-334 1085h-4l-342 -1085h680z" />
    <glyph glyph-name="product" unicode="&#x220f;" horiz-adv-x="1472" 
d="M1331 -438h-160v1900h-872v-1900h-160v2048h1192v-2048z" />
    <glyph glyph-name="summation" unicode="&#x2211;" horiz-adv-x="1259" 
d="M1206 -438h-1155v131l660 901l-631 885v131h1102v-148h-895l616 -868l-653 -885h956v-147z" />
    <glyph glyph-name="minus" unicode="&#x2212;" horiz-adv-x="1228" 
d="M1133 449h-1037v139h1037v-139z" />
    <glyph glyph-name="uni2215" unicode="&#x2215;" horiz-adv-x="342" 
d="M-84 -68h-131l641 1565h131z" />
    <glyph glyph-name="uni2219" unicode="&#x2219;" horiz-adv-x="491" 
d="M246 479q-54 0 -92.5 38.5t-38.5 92.5t38.5 92.5t92.5 38.5t92.5 -38.5t38.5 -92.5t-38.5 -92.5t-92.5 -38.5z" />
    <glyph glyph-name="radical" unicode="&#x221a;" horiz-adv-x="1032" 
d="M621 -438h-154l-332 684l-96 -45l-57 123l229 106l309 -649l377 1829h156z" />
    <glyph glyph-name="infinity" unicode="&#x221e;" horiz-adv-x="1554" 
d="M778 424l-102 -92q-143 -129 -289 -129q-133 0 -217 88t-84 225q0 139 82.5 229.5t214.5 90.5q93 0 183.5 -53.5t211.5 -180.5l94 94q144 144 293 144q135 0 219 -90.5t84 -227.5q0 -142 -83.5 -231.5t-217.5 -89.5q-93 0 -186 53.5t-203 169.5zM1174 340q73 0 117 48
t44 128q0 83 -45.5 133.5t-124.5 50.5q-21 0 -40 -4.5t-55 -20.5t-88 -57t-116 -104q98 -96 168 -135t140 -39zM389 340q127 0 301 174q-104 98 -175.5 141t-131.5 43q-72 0 -118 -52t-46 -130q0 -81 47 -128.5t123 -47.5z" />
    <glyph glyph-name="integral" unicode="&#x222b;" horiz-adv-x="1134" 
d="M442 -102l-2 65v1077l-2 156q-5 414 258 414q72 0 118 -31t46 -84q0 -36 -24.5 -57t-61.5 -21q-22 0 -41 13.5t-29 30.5t-22 30.5t-23 13.5q-63 0 -63 -194l4 -174v-1125q0 -109 -14.5 -191t-37.5 -130t-58 -77.5t-70 -39.5t-78 -10q-58 0 -99.5 29t-41.5 77
q0 29 23 51.5t52 22.5q21 0 38.5 -13.5t27.5 -29.5t21 -29.5t20 -13.5q59 0 59 240z" />
    <glyph glyph-name="approxequal" unicode="&#x2248;" horiz-adv-x="1214" 
d="M1047 848h102q-17 -144 -86 -221.5t-180 -77.5q-45 0 -102 13t-94 25.5t-105 37.5q-64 24 -95.5 35t-78.5 22.5t-80 11.5q-59 0 -101.5 -44t-54.5 -113h-104q19 146 87 224.5t177 78.5q43 0 98.5 -13t92 -25.5t102.5 -37.5q65 -24 97 -35t82.5 -23t88.5 -12q58 0 99.5 40
t54.5 114zM1047 477h102q-17 -144 -85 -220.5t-179 -76.5q-45 0 -102 13t-96 26t-105 37q-69 26 -97 36t-76 22t-81 12q-59 0 -101.5 -44.5t-54.5 -113.5h-104q19 146 87 224.5t177 78.5q43 0 98.5 -13t92 -25.5t102.5 -37.5q62 -23 96 -34.5t84 -23t88 -11.5q58 0 99.5 39
t54.5 112z" />
    <glyph glyph-name="notequal" unicode="&#x2260;" horiz-adv-x="1214" 
d="M1126 233h-587l-156 -299l-127 66l121 233h-289v148h365l137 260h-502v145h580l157 304l127 -66l-125 -238h299v-145h-374l-138 -260h512v-148z" />
    <glyph glyph-name="lessequal" unicode="&#x2264;" horiz-adv-x="1214" 
d="M1126 168l-1038 377v153l1038 383v-159l-835 -299l835 -297v-158zM1126 -61h-1038v147h1038v-147z" />
    <glyph glyph-name="greaterequal" unicode="&#x2265;" horiz-adv-x="1214" 
d="M1126 545l-1038 -377v158l836 297l-836 299v159l1038 -383v-153zM1126 -61h-1038v147h1038v-147z" />
    <glyph glyph-name="lozenge" unicode="&#x25ca;" horiz-adv-x="1214" 
d="M680 -72h-148l-350 801l350 801h148l352 -801zM606 84l271 645l-271 645l-268 -645z" />
    <glyph glyph-name="grave.cap" unicode="&#xe300;" horiz-adv-x="495" 
d="M350 1499h-131l-209 297h203z" />
    <glyph glyph-name="acute.cap" unicode="&#xe301;" horiz-adv-x="495" 
d="M276 1499h-131l138 297h202z" />
    <glyph glyph-name="circumflex.cap" unicode="&#xe302;" horiz-adv-x="495" 
d="M530 1499h-155l-127 187l-127 -187h-156l205 297h156z" />
    <glyph glyph-name="caron.cap" unicode="&#xe303;" horiz-adv-x="495" 
d="M326 1499h-156l-205 297h156l127 -186l127 186h155z" />
    <glyph glyph-name="tilde.cap" unicode="&#xe304;" horiz-adv-x="417" 
d="M440 1765h107q-8 -47 -20 -82.5t-31.5 -68.5t-51.5 -50.5t-75 -17.5q-11 0 -23 2t-20 3.5t-23 7.5t-19 7.5t-22 9.5t-20 9q-84 39 -107 39q-72 0 -80 -88h-106q11 106 60 162.5t134 56.5q43 0 140 -43q11 -5 32.5 -15.5t34 -15t21.5 -4.5q28 0 44 21.5t25 66.5z" />
    <glyph glyph-name="dieresis.cap" unicode="&#xe305;" horiz-adv-x="495" 
d="M166 1571h-164v205h164v-205zM494 1571h-164v205h164v-205z" />
    <glyph glyph-name="macron.cap" unicode="&#xe306;" horiz-adv-x="495" 
d="M518 1589h-541v123h541v-123z" />
    <glyph glyph-name="breve.cap" unicode="&#xe307;" horiz-adv-x="495" 
d="M399 1763h107q-17 -132 -84 -198t-174 -66q-110 0 -176.5 68t-81.5 196h106q10 -68 50 -104.5t102 -36.5t101.5 37t49.5 104z" />
    <glyph glyph-name="ring.cap" unicode="&#xe308;" horiz-adv-x="417" 
d="M248 1477q-87 0 -150 63t-63 150q0 86 62.5 149.5t150.5 63.5t150.5 -63.5t62.5 -149.5q0 -87 -63 -150t-150 -63zM367 1690q0 49 -35.5 83.5t-83.5 34.5t-83.5 -34.5t-35.5 -83.5q0 -50 34.5 -84.5t84.5 -34.5q49 0 84 35.5t35 83.5z" />
    <glyph glyph-name="hungarumlaut.cap" unicode="&#xe309;" horiz-adv-x="495" 
d="M113 1499h-131l137 297h203zM440 1499h-131l137 297h203z" />
    <glyph glyph-name="dotaccent.cap" unicode="&#xe30a;" horiz-adv-x="495" 
d="M330 1571h-164v205h164v-205z" />
    <glyph glyph-name="caron.alt" unicode="&#xe30b;" horiz-adv-x="454" 
d="M176 1090h-127l33 395h186z" />
    <glyph glyph-name="commaaccent" unicode="&#xe30c;" horiz-adv-x="454" 
d="M215 -455h-137l65 297h174z" />
    <glyph glyph-name="commaaccent.alt" unicode="&#xe30d;" horiz-adv-x="454" 
d="M272 1188h-170l103 297h133z" />
    <glyph glyph-name="uniF8FF" unicode="&#xf8ff;" horiz-adv-x="1048" 
d="M1049 1470v-1470h-1049v1470h1049zM102 102h844v1264h-844v-1264zM555 528v-49h-94v51q0 95 23.5 147t103.5 134q35 35 50 52.5t28.5 46.5t13.5 61q0 72 -46.5 123t-109.5 51q-70 0 -113 -49.5t-55 -145.5l-102 17q12 136 83 208t193 72q111 0 182.5 -74t71.5 -194
q0 -70 -28.5 -126t-102.5 -122q-62 -55 -80 -93t-18 -110zM569 377v-137h-114v137h114z" />
    </font>
</defs>
</svg>
